<?xml version="1.0" encoding="utf-8"?>
<!-- Generator: Adobe Illustrator 17.1.0, SVG Export Plug-In . SVG Version: 6.00 Build 0)  -->
<!DOCTYPE svg PUBLIC "-//W3C//DTD SVG 1.1//EN" "http://www.w3.org/Graphics/SVG/1.1/DTD/svg11.dtd">
<svg version="1.1" id="Layer_3" xmlns="http://www.w3.org/2000/svg" xmlns:xlink="http://www.w3.org/1999/xlink" x="0px" y="0px"
	 viewBox="0 0 5000 5000" enable-background="new 0 0 5000 5000" xml:space="preserve">
<path fill="#707070" d="M3031.3,1864.6l-16,38.2l218.1,85.7l15.2-33c6.2-13.5,2.7-29.8-8.7-39.1c-7.2-5.9-17.4-13-32-21.4
	c-31.1-18-64.4-31.6-98.8-40.9c-17.7-4.8-33.2-9.9-46.4-10.4C3049.2,1843.1,3036.7,1851.6,3031.3,1864.6z"/>
<path fill="#3F3F3F" d="M3029.8,1872l-14.2,26.9l213.7,93.8l13-22.4c7.7-13.3,6.4-30.7-3.9-41.9c-0.5-0.5-0.9-1-1.4-1.4
	c-6.7-6.5-11-8.8-28.9-19.7c-30.8-18.7-63.5-33.7-97.5-44.8c-15.3-5-29.5-9.3-41.8-11C3053,1849.2,3037.5,1857.4,3029.8,1872z"/>
<polygon fill="#353535" points="3077.6,1931.5 3112,1855.1 3103.2,1852.7 3068.3,1926.9 "/>
<polygon fill="#353535" points="3107.4,1941.2 3141.8,1864.7 3132.6,1861.4 3098.2,1936.5 "/>
<polygon fill="#353535" points="3050,1923.7 3084.3,1847.3 3075,1845.2 3040.7,1919 "/>
<polygon fill="#353535" points="3163.3,1963.1 3196.8,1888.8 3188.5,1884.5 3154,1958.4 "/>
<polygon fill="#353535" points="3190.9,1979.6 3224.4,1905.1 3216.1,1899.8 3181.6,1974.9 "/>
<polygon fill="#353535" points="3136.7,1951.7 3171.3,1876.3 3162.6,1872.5 3127.5,1947.1 "/>
<g>
	<g>
		<path fill="#1E1E1E" d="M3030.8,1869.9c-1,0.7-4,7.2-4.6,8.2l-10.7,20.7l213.7,93.8l15.5-26.8
			C3156,1931.3,3067.5,1899.7,3030.8,1869.9z"/>
	</g>
</g>
<path fill="#303030" d="M1689.7,2160v724.4c0,5.3,4.1,9.6,9.2,9.6h0.1c0,0-0.1,0.4-0.2,1.2c-6.9,41.6,12.3,81.1,60.9,86.8
	c51.7,6.1,171.2,12.6,262.5,2c13.6-1.6,26.6-7.1,37.9-15.1l0.2-0.1l18-12l1140-1.3c0,0,116.6-27.4,114.8-151.1l0-12.9h8.8
	l-1.5-485.9c0-1.1-0.9-2-2-1.9l-0.1,0c-1.9,0.2-3.7-1.3-3.9-3.3l-1-9.4c-0.2-2,1.1-3.9,3-4.3l0.1,0c4.6-0.9,7.8-5.2,7.6-10.1
	l-1.7-27.5c-0.3-5.2-4.9-9-9.8-8.1l-0.1,0c-0.7,0.1-1.3-0.4-1.4-1.1c-0.8-10.4-6-78.6-10.6-110.5c-0.8-5.2,3.2-9.8,8.2-9.5l31.4,1.8
	c4.5,0.2,8.2-3.5,8.2-8.1v-0.1c0-2.1-1.6-3.9-3.6-4.2l-34.3-3.6c-6-0.6-10.9-5-12.5-11c-3.7-13.9-11.1-40.2-20-64.6
	c-10.4-28.2-33.1-49.6-61-57.8c-63.4-18.7-187.4-59.7-217.7-102.2c-5.6-7.8-11.1-15.7-17.2-23.2c-7.9-9.7-18.2-23.6-26.9-39.3
	c-23.1-41.8-52.3-79.5-85.4-113.1l-16-16.2c-21.2-21.5-49.6-33.5-79.2-33.5h-196.2c-38.6,0-75.5,16.6-102,45.9l-53.7,59.4
	c-11.3,12.5-20.9,26.5-28.5,41.7c-16.9,33.7-60.7,100.1-147.3,109.6c0,0-318.8,31.7-422.8,51.8c-17.6,3.4-33.3,13.5-44,28.4
	l-0.2,0.3c-3.5,4.8-8,8.7-13.3,11.2c-16.4,7.9-56.3,33.6-85.1,104.5C1693.6,2117.4,1689.7,2138.6,1689.7,2160z"/>
<g>
	<path fill="none" d="M2078.3,2956.8l-18,12l-0.2,0.1c-11.3,8.1-24.3,13.6-37.9,15.1c-91.3,10.6-210.8,4-262.5-2
		c-39.8-4.7-59.9-32-62-64.6l1539.4,31.7c-11.2,4.7-18.7,6.4-18.7,6.4L2078.3,2956.8z"/>
	<path fill="#232323" d="M3002.6,2840.4c76.9-132,199.2-414.8,50.2-696.5c-11.3-21.4-19.8-44.2-24.7-68.1
		c-10.3-50.2-22.2-135.3-1.8-197.6c-2.7-2.7-5-5.4-7-8.2c-5.6-7.8-11.1-15.7-17.2-23.2c-7.9-9.7-18.2-23.6-26.9-39.3
		c-23.1-41.8-52.3-79.5-85.4-113.1l-16-16.2c-21.2-21.5-49.6-33.5-79.2-33.5h-196.2c-38.6,0-75.5,16.6-102,45.9l-53.7,59.4
		c-11.3,12.5-20.9,26.5-28.5,41.7c-16.9,33.7-60.7,100.1-147.3,109.6c0,0-22.5,2.2-57.5,5.9c32.1,42.7,67.5,97.5,85.1,150.8
		c11.7,35.4,10.7,74.1-1.7,109.3c-37.2,106-134.7,456.1,92.8,707.6l0.4,0.4c13.8,16.3,2.7,41.9-18.1,41.9h-670.3
		c2.2,32.6,22.2,60,62,64.6c51.7,6.1,171.2,12.6,262.5,2c13.6-1.6,26.6-7.1,37.9-15.1l0.2-0.1l18-12l1140-1.3c0,0,7.5-1.8,18.7-6.4
		l-193-21.5C3003.7,2923.1,2981.5,2876.5,3002.6,2840.4z"/>
</g>
<g>
	<path fill="#383838" d="M2510.5,1880.9c63.5,8.6,200,20.9,359.7-1.9c15-2.1,26.2-15.5,26.1-31.3c-0.2-29.5,2.3-78.3,17.7-122.6
		c-7.8-9.5-15.9-18.7-24.3-27.7l-16-17.2c-21.2-22.7-49.6-35.5-79.2-35.5h-196.2c-38.6,0-75.5,17.6-102,48.7l-33.8,39.7
		c3.7,41.9,9.7,66.3,10.5,104.7C2473.6,1859.8,2489.6,1878.1,2510.5,1880.9z"/>
</g>
<g>
	<g>
		<g>
			<path fill="#1C1C1C" d="M2028,2875.1c17.5,0,31.9-14.4,32.6-32.6l1.4-36.6c-0.9-17.6,1.1-30.7,4.1-40.3
				c6.3-20.1,34.3-19.4,39.4,1.1c1.6,6.4,1.6,11.5,1.6,11.5v80.3c0,9.2,7.1,16.6,15.9,16.6H2300c18.7,0,31.9-19.2,25.7-37.7
				l-24.1-72.8c-2.6-8-9.9-13.3-18-13.2c-0.6,0-1.2,0-1.7,0c-69.4-0.8-109.9-80.3-71-140.2c8.4-12.9,18.2-23,26-30
				c7.7-6.9,10.7-17.8,8-28c-29.7-108.8,14-314.5,38-411.5c6.7-26.9-12.9-53.2-39.6-53.2h-85.2c-15.7,0-31.5,3.9-44.8,12.7
				c-14.4,9.5-39.5,8.2-49.7,7.2c-3.5-0.3-6.9-0.5-10.4-0.6l-354.6-2.4c-6.1,17.5-9.1,36-9.1,54.6v715.1h5.8H2028z"/>
		</g>
	</g>
</g>
<g>
	<path fill="none" d="M3323.5,2121.7h36.7l-31.4-1.8C3326.8,2119.8,3325,2120.5,3323.5,2121.7z"/>
	<path fill="#1C1C1C" d="M3283.8,2110.3l-4.3-4.9c-9.5-10.8-22.9-16.9-36.9-16.9h-121.3c-12.4,0-21.7,11.9-19.2,24.6l38.2,194.9
		c2.7,13.9,11.8,25.7,24.4,31.1c31.4,13.5,89.3,50.3,89.3,137.2c0,0,0,100.7-98.1,152.5c-7.2,3.8-12.9,10.2-16.2,17.9l-93.1,220.1
		c-10.1,23.8,6.6,50.5,31.5,50.6c59.1,0.3,155.1-1,219.1-10.5c20.3-22.9,36.4-55.9,35.8-102.4l0-12.9h8.8l-1.5-485.9
		c0-1.1-0.9-2-2-1.9l-0.1,0c-1.9,0.2-3.7-1.3-3.9-3.3l-1-9.4c-0.2-2,1.1-3.9,3-4.3l0.1,0c4.6-0.9,7.8-5.2,7.6-10.1l-1.7-27.5
		c-0.3-5.2-4.9-9-9.8-8.1l-0.1,0c-0.7,0.1-1.3-0.4-1.4-1.1c-0.8-10.4-6-78.6-10.6-110.5c-0.4-3.1,0.8-6,3-7.7h-14.8
		C3299.3,2121.7,3290.2,2117.5,3283.8,2110.3z"/>
</g>
<g>
	<g>
		<path fill="#3A3A3A" d="M3323.5,2126.8"/>
		<g>
			<path fill="#3A3A3A" d="M3285.4,2115.6l-4.1-4.8c-9.1-10.6-21.9-16.6-35.4-16.6h-116.1c-11.9,0-20.8,11.6-18.4,24l36.6,190.8
				c2.6,13.6,11.3,25.1,23.4,30.5c30,13.3,85.5,49.3,85.5,134.3c0,0,0,98.6-93.9,149.3c-6.9,3.7-12.4,10-15.5,17.5l-89.2,215.4
				c-9.6,23.3,6.3,49.4,30.1,49.6c56.6,0.3,154.7,1.3,216-8c19.5-22.5,28.8-56.9,28.2-102.5l0-12.7h8.5l-1.5-475.7
				c0-1.1-0.9-2-1.9-1.9l-0.1,0c-1.9,0.2-3.5-1.3-3.7-3.3l-1-9.2c-0.2-2,1.1-3.8,2.9-4.2l0.1,0c4.4-0.9,7.5-5.1,7.2-9.8l-1.6-27
				c-0.3-5.1-4.7-8.8-9.4-8l-0.1,0c-0.7,0.1-1.3-0.4-1.3-1.1c-0.8-10.2-6.8-76.8-10.2-108.1c-1.4-12.5-11.3-7.6-11.3-7.6
				C3300.2,2126.8,3291.6,2122.7,3285.4,2115.6z"/>
		</g>
	</g>
</g>
<path fill="#303030" d="M3335.6,2133.9"/>
<g>
	<g>
		<g>
			<path fill="#444444" d="M2023.9,2875.1c17.3,0,31.5-14.3,32.2-32.4l1.4-36.3c-0.9-17.5,1.1-30.5,4.1-40
				c6.3-19.9,33.9-19.3,38.9,1c1.6,6.4,1.6,11.4,1.6,11.4v79.8c0,9.1,7,16.5,15.7,16.5h174.8c18.5,0,31.5-19.1,25.4-37.4l-23.8-72.3
				c-2.6-7.9-9.8-13.2-17.7-13.1c-0.6,0-1.1,0-1.7,0c-68.5-0.8-108.6-79.7-70.1-139.2c8.3-12.8,18-22.9,25.7-29.8
				c7.6-6.8,10.6-17.7,7.9-27.8c-29.3-108,13.9-312.3,37.6-408.6c6.6-26.8-12.7-52.8-39.1-52.8h-84.2c-15.5,0-31.1,3.9-44.2,12.6
				c-14.2,9.4-39.1,8.2-49.1,7.2c-3.4-0.3-6.8-0.5-10.3-0.5l-350.3-2.4c-6,17.4-9,35.7-9,54.2v710h5.7H2023.9z"/>
		</g>
	</g>
</g>
<path fill="#181919" d="M3104.8,2367.8l-18.4,181.1l21.7,11.6c13.2,7,29.2,5.3,40.5-4.8c15.1-13.4,33.6-37.1,40.4-75.4
	c1.6-8.8,1.9-17.7,1.1-26.6c-1.6-17.5-6.5-49-22.3-75.2c-7-11.6-19.8-17.6-32.6-15.5L3104.8,2367.8z"/>
<path fill="#6A6D6D" d="M3104.2,2373.3l-17.5,172.9l20.6,11c12.5,6.7,27.6,5,38.4-4.7c14.3-12.8,31.8-35.4,38.3-72
	c1.5-8.4,1.8-16.9,1-25.4c-1.5-16.7-6.2-46.8-21-71.8c-6.6-11.1-18.8-16.7-30.9-14.8L3104.2,2373.3z"/>
<path fill="#3D3D3D" d="M3102.6,2379.1l-15,167.5l20.2,10.5c12.2,6.3,26.9,4.6,37.3-5c13.7-12.6,30.6-34.7,36.5-70.2
	c1.3-8.1,1.5-16.4,0.7-24.6c-1.6-16.1-6.6-45.2-21.3-69.2c-6.6-10.7-18.5-16-30.3-13.9L3102.6,2379.1z"/>
<g>
	<path fill="#3F3F3F" d="M2754,2115.3c159.4-3.6,286.9,133.3,286.9,133.3l-45.2-147.8c-42.5-159.4-151.4-106-151.4-106
		c-209.9,53.1-377.2-39.9-377.2-39.9c-37.8-11.4-71.5,4-97.1,24.5c-68.3,118.8-83.5,320.8-83.5,320.8h71.1
		C2460.7,2102.3,2754,2115.3,2754,2115.3z"/>
	<path fill="#2F2F30" d="M2911.1,1907.8c-14.8-6.7-31.4-8.1-47.1-4c-84.2,22.2-313.5,4.6-387.1-1.8c-21-1.8-42,4.4-58.7,17.8
		c-18.5,14.9-34.4,35.5-48.2,59.5c25.7-20.5,59.3-35.9,97.1-24.5c0,0,167.3,93.1,377.2,39.9c0,0,108.9-53.3,151.4,106l45.2,147.8
		c0,0-127.5-136.9-286.9-133.3c0,0-293.3-13-396.4,184.8h715.1C3043.1,2009.3,2959.2,1929.5,2911.1,1907.8z"/>
</g>
<ellipse fill="#B0B4BB" cx="2683.5" cy="2428.2" rx="428.6" ry="446.9"/>
<ellipse fill="#7C7E7F" cx="2683.5" cy="2428.2" rx="424.1" ry="442.2"/>
<ellipse fill="#B0B4BB" cx="2683.5" cy="2428.2" rx="419.7" ry="437.6"/>
<ellipse fill="#59595B" cx="2683.5" cy="2428.2" rx="410.8" ry="428.4"/>
<ellipse fill="#252426" cx="2683.5" cy="2428.2" rx="361.7" ry="377.2"/>
<ellipse fill="#2E2932" cx="2683.5" cy="2428.2" rx="354.6" ry="369.8"/>
<ellipse fill="#3F3C42" cx="2683.5" cy="2428.2" rx="337.8" ry="352.2"/>
<ellipse fill="#252426" cx="2683.5" cy="2428.2" rx="326.3" ry="340.2"/>
<ellipse fill="#3F3C42" cx="2683.5" cy="2428.2" rx="321" ry="334.7"/>
<ellipse fill="#252426" cx="2683.5" cy="2428.2" rx="314" ry="327.4"/>
<ellipse fill="#5B5860" cx="2683.5" cy="2428.2" rx="297.8" ry="310.6"/>
<ellipse fill="#403F44" cx="2683.5" cy="2428.2" rx="291.6" ry="304.1"/>
<ellipse fill="#5B5860" cx="2683.5" cy="2428.2" rx="287.2" ry="299.5"/>
<ellipse fill="#403F44" cx="2683.5" cy="2428.2" rx="284.8" ry="296.9"/>
<ellipse fill="#5B5860" cx="2683.5" cy="2428.2" rx="280.4" ry="292.4"/>
<ellipse fill="#403F44" cx="2683.5" cy="2428.2" rx="272.7" ry="284.3"/>
<ellipse fill="#5B5860" cx="2683.5" cy="2428.2" rx="268.5" ry="280"/>
<ellipse fill="#403F44" cx="2683.5" cy="2428.2" rx="262" ry="273.2"/>
<ellipse fill="#5B5860" cx="2683.5" cy="2428.2" rx="258" ry="269"/>
<ellipse fill="#403F44" cx="2683.5" cy="2428.2" rx="252.1" ry="262.9"/>
<ellipse fill="#5B5860" cx="2683.5" cy="2428.2" rx="248.3" ry="258.9"/>
<ellipse fill="#3F3C42" cx="2683.5" cy="2428.2" rx="241.8" ry="252.1"/>
<ellipse fill="#494351" cx="2683.5" cy="2428.2" rx="222.3" ry="231.8"/>
<ellipse fill="#18191B" cx="2683.5" cy="2428.2" rx="207.6" ry="216.5"/>
<ellipse fill="#6D415E" cx="2683.5" cy="2428.2" rx="164.7" ry="171.7"/>
<ellipse fill="#46395B" cx="2683.5" cy="2428.2" rx="119.5" ry="124.6"/>
<path fill="#545B7A" d="M2765.8,2427.7c0.3,47.4-36.4,86.1-81.8,86.4c-45.5,0.3-82.6-37.9-82.9-85.3c-0.3-47.4,36.4-86.1,81.8-86.4
	C2728.4,2342.1,2765.5,2380.3,2765.8,2427.7z"/>
<ellipse fill="#7696A8" cx="2803" cy="2428.2" rx="42.5" ry="71.4"/>
<path fill="#6D415E" d="M2516.1,2300.1c-16.9,13.2,131.9-145.1,317.3-21.5c0,0-54.1-71.2-166.3-66.2
	C2621.5,2214.5,2557,2242.7,2516.1,2300.1z"/>
<ellipse fill="#D1C0BD" cx="2541.2" cy="2441.6" rx="58.3" ry="58"/>
<ellipse opacity="0.59" fill="#404059" cx="2683.5" cy="2428.2" rx="207.6" ry="216.5"/>
<path fill="#B2B2D1" d="M2813.6,2428.3c-11.1-0.1-19.9-11.8-19.8-26.1s9.2-25.8,20.3-25.7c11.1,0.1,19.9,11.8,19.8,26.1
	S2824.7,2428.4,2813.6,2428.3z"/>
<path fill="#EDE1D3" d="M2562.1,2440.4c1,11.5-6.7,21.6-17.1,22.6s-19.7-7.6-20.6-19.1c-1-11.5,6.7-21.6,17.1-22.6
	S2561.1,2428.9,2562.1,2440.4z"/>
<path fill="#D3E4EA" d="M2679.6,2515.9c0,0,58.4-1.8,79.1-52.9C2758.7,2463,2745.2,2527.6,2679.6,2515.9z"/>
<path fill="#545456" d="M2281.8,2621.4l33,71.4c2.5,5.3,1.4,11.7-2.7,15.8l-3.7,3.8c-20.9,21.4-53.3,26.1-78.2,10
	c-8.8-5.7-16.6-13.9-21.4-25.6c-8.3-20.3-4-43.8,9.8-60.5l0.4-0.5c10.9-13.1,26.3-21.2,42.8-22.5l5.8-0.4
	C2273.7,2612.4,2279.3,2615.8,2281.8,2621.4z"/>
<path fill="#181919" d="M2279.6,2626.5l29.7,64.3c2.2,4.8,1.3,10.5-2.4,14.3l-3.4,3.4c-18.8,19.2-48,23.5-70.4,9
	c-7.9-5.1-15-12.5-19.3-23.1c-7.5-18.3-3.6-39.4,8.8-54.5l0.4-0.5c9.8-11.8,23.6-19.1,38.6-20.2l5.3-0.4
	C2272.2,2618.5,2277.3,2621.5,2279.6,2626.5z"/>
<path fill="#545456" d="M2277.3,2631l26.5,58.2c2,4.4,1.1,9.5-2.1,12.9l-3,3.1c-16.7,17.4-42.7,21.2-62.6,8.1
	c-7.1-4.7-13.3-11.4-17.2-20.9c-6.7-16.5-3.3-35.7,7.8-49.3l0.4-0.4c8.7-10.7,21-17.3,34.3-18.3l4.7-0.4
	C2270.8,2623.6,2275.2,2626.4,2277.3,2631z"/>
<g>
	<g>
		<path fill="#232323" d="M2102.1,2858.6v-79.8c0,0,0-5.1-1.6-11.4c-5.1-20.3-32.7-21-38.9-1c-3,9.5-5,22.5-4.1,40l-1.4,36.3
			c-0.6,14.9-10.3,27.2-23.4,31.1l79.7,0.2C2106.3,2871.7,2102.1,2865.7,2102.1,2858.6z"/>
		<g>
			<path fill="#232323" d="M2154.7,2138.2c23.5-12.3,52.2-28.5,73.8-44.2h-76c-15.5,0-31.1,3.9-44.2,12.6
				c-14.2,9.4-39.1,8.2-49.1,7.2c-3.4-0.3-6.8-0.5-10.3-0.5l-150.9-1l3.7,15.6c6.7,28.4,31.1,48.3,59.2,48.3h1.2
				c39,0,70.6,33,70.6,73.6v624.1c13.1-3.9,22.8-16.2,23.4-31.1l1.4-36.3c-0.9-17.5,1.1-30.5,4.1-40c6.3-19.9,33.9-19.3,38.9,1
				c1.6,6.4,1.6,11.4,1.6,11.4v79.8c0,7.1,4.3,13.1,10.3,15.5v-664.1C2112.3,2179.6,2128.7,2151.8,2154.7,2138.2z"/>
		</g>
	</g>
</g>
<ellipse fill="#1C1C1C" cx="2179.4" cy="2211.8" rx="36.1" ry="37.6"/>
<path fill="#3A3A3A" d="M2210.7,2212c-0.1,18-14.2,32.5-31.5,32.4c-17.3-0.1-31.2-14.9-31-32.9c0.1-18,14.2-32.5,31.5-32.4
	C2196.9,2179.3,2210.8,2194,2210.7,2212z"/>
<path fill="#9E4D54" d="M2195,2211.9c-0.1,9-7.1,16.2-15.7,16.2s-15.6-7.4-15.5-16.4c0.1-9,7.1-16.2,15.7-16.2
	C2188.2,2195.5,2195.1,2202.9,2195,2211.9z"/>
<ellipse fill="#1C1C1C" cx="1878.3" cy="2303.6" rx="31.9" ry="39.6"/>
<ellipse fill="#3A3A3A" cx="1878.3" cy="2303.6" rx="27.7" ry="34.4"/>
<g>
	<g>
		<g>
			<path fill="#424244" d="M2052.5,2020.5c13.9-63.3-41.8-65.4-56.4-64.8c-3.3,0.1-6.7,0.1-10,0c-76.9-2.6-137.9,8.5-182.9,22.2
				c-1,1.3-2.1,2.6-3,3.9l-0.2,0.3c-3.5,4.8-8,8.7-13.3,11.2c-16.3,7.9-56.2,33.5-84.9,104H1933
				C2036.6,2097.2,2052.5,2020.5,2052.5,2020.5z"/>
		</g>
	</g>
</g>
<path fill="#232323" d="M1981.4,2048.7c-27.1,15.5-57.5,12.1-67.8-7.6c-10.3-19.7,3.3-48.2,30.4-63.7c27.1-15.5,57.5-12.1,67.8,7.6
	C2022.1,2004.7,2008.6,2033.2,1981.4,2048.7z"/>
<path fill="#424245" d="M1975.4,2042.3c-25.4,14.5-53.2,12.4-62.2-4.7c-9-17.1,4.3-42.7,29.7-57.2c25.4-14.5,53.2-12.4,62.2,4.7
	S2000.8,2027.7,1975.4,2042.3z"/>
<g>
	<path fill="#7C7C82" d="M1972,2015.3l25.5,8c9.9-12.8,13.3-27.3,7.6-38.3c-2.8-5.3-7.4-9.2-13.3-11.6l-23.7,27.5
		C1963.9,2005.7,1966,2013.4,1972,2015.3z"/>
</g>
<path fill="#7C7C82" d="M1937.6,2051.9c0,0,20.3,1,33.8-7.5C1971.4,2044.4,1962.7,2060.5,1937.6,2051.9z"/>
<g>
	<g>
		<g>
			<path fill="#474747" d="M2553.3,1880.8c49.3,8.6,155.4,20.9,279.5-1.9c11.7-2.1,20.4-15.5,20.3-31.3
				c-0.1-29.5,8.8-114.9,20.7-159.2c-6.1-9.5-40.4-43.7-99.8-43.7h-152.5c-78.4,0-106.8,37.7-106.8,37.7c2.8,41.9,8.7,117,9.4,155.3
				C2524.6,1859.8,2537,1878,2553.3,1880.8z"/>
		</g>
	</g>
</g>
<g>
	<g>
		<g>
			<path fill="#4F4F4F" d="M2617.6,1786.1c27.7,5.1,87.1,12.5,156.8-1.1c6.5-1.3,11.4-9.3,11.4-18.7c-0.1-17.6,4.9-68.8,11.6-95.3
				c-3.4-5.7-22.6-26.1-56-26.1H2656c-44,0-59.9,22.5-59.9,22.5c1.6,25.1,4.9,70,5.3,93C2601.6,1773.5,2608.5,1784.4,2617.6,1786.1z
				"/>
		</g>
	</g>
</g>
<path fill="#C1C1C1" d="M2143.3,1910.5v13.8l16.9,4.9c4.6,1.3,9.5,1.2,14-0.3l23.6-8v-18.7
	C2197.6,1903.7,2166.9,1897.4,2143.3,1910.5z"/>
<g>
	<g>
		<g>
			<path fill="#232323" d="M2143.3,1911.8v14.1l8.4,2.6c10.1,3.2,20.9,2.9,30.8-0.8l15.3-5.6v-17.7
				C2179.6,1912.3,2159,1912.9,2143.3,1911.8z"/>
		</g>
	</g>
</g>
<polygon fill="#7F7E7F" points="2161,1911.5 2162.3,1929.8 2165.2,1930.2 2166.9,1911.5 "/>
<path fill="#C1C1C1" d="M2035.5,1924.4v13.8l16.9,4.9c4.6,1.3,9.5,1.2,14-0.3l23.6-8v-18.7
	C2089.8,1917.5,2059.1,1911.2,2035.5,1924.4z"/>
<g>
	<g>
		<g>
			<path fill="#232323" d="M2035.5,1925.6v14.1l8.4,2.6c10.1,3.2,20.9,2.9,30.8-0.8l15.3-5.6v-17.7
				C2071.8,1926.1,2051.2,1926.8,2035.5,1925.6z"/>
		</g>
	</g>
</g>
<polygon fill="#7F7E7F" points="2053.2,1925.4 2054.6,1943.6 2057.5,1944 2059.1,1925.4 "/>
</svg>
