<?xml version="1.0" encoding="utf-8"?>
<!-- Generator: Adobe Illustrator 17.1.0, SVG Export Plug-In . SVG Version: 6.00 Build 0)  -->
<!DOCTYPE svg PUBLIC "-//W3C//DTD SVG 1.1//EN" "http://www.w3.org/Graphics/SVG/1.1/DTD/svg11.dtd">
<svg version="1.1" id="Layer_2" xmlns="http://www.w3.org/2000/svg" xmlns:xlink="http://www.w3.org/1999/xlink" x="0px" y="0px"
	 viewBox="0 0 5000 5000" enable-background="new 0 0 5000 5000" xml:space="preserve">
<path fill="#FDD07C" d="M2825.9,2857.7h-742.1c-17.8,0-32.2-14.4-32.2-32.2v-506.6c0-17.8,14.4-32.2,32.2-32.2h742.1
	c17.8,0,32.2,14.4,32.2,32.2v506.6C2858.1,2843.3,2843.7,2857.7,2825.9,2857.7z"/>
<path fill="#FFEFDC" d="M2826.8,2857.7h-742.1c-17.8,0-32.2-14.3-32.2-31.9v-503.4c0-17.6,14.4-31.9,32.2-31.9h742.1
	c17.8,0,32.2,14.3,32.2,31.9v503.4C2859,2843.4,2844.6,2857.7,2826.8,2857.7z"/>
<path fill="#FDD07C" d="M2826.8,2857.7h-742.1c-17.8,0-32.2-14.1-32.2-31.6v-497.3c0-17.4,14.4-31.6,32.2-31.6h742.1
	c17.8,0,32.2,14.1,32.2,31.6v497.3C2859,2843.6,2844.6,2857.7,2826.8,2857.7z"/>
<polygon fill="#E5B363" points="2804.8,2356.1 2183.2,2686.6 2051.5,2617.2 2051.5,2686.6 2180.9,2760.5 2804.8,2430.1 "/>
<path fill="#D69A43" d="M2052.5,2672.7l138.5,79.2l408.7-216.4l219.6,11.1L2295,2857.7h-205.5c-20.4,0-36.9-16.5-36.9-36.9V2672.7z"
	/>
<polygon fill="#E5B363" points="2592.8,2539.1 2819.4,2546.5 2295,2857.7 2661.1,2857.7 2859,2751.8 2859,2398.1 "/>
<circle fill="#FAA61A" cx="2743.9" cy="2730.8" r="58.1"/>
<circle fill="#ED1C24" cx="2672.2" cy="2730.8" r="58.1"/>
<path fill="none" stroke="#F7DFBF" stroke-width="4" stroke-miterlimit="10" d="M2745.7,2800.1H2673c-38,0-68.8-29.3-68.8-65.6
	v-173.2c0-36.2,30.8-65.6,68.8-65.6h72.7c38,0,68.8,29.3,68.8,65.6v173.2C2814.4,2770.7,2783.6,2800.1,2745.7,2800.1z"/>
<circle fill="#FFD03B" cx="2745.2" cy="2589.8" r="58.1"/>
<circle fill="#FFD03B" cx="2673.4" cy="2589.8" r="58.1"/>
<circle fill="#E5B735" stroke="#FFEBC0" stroke-miterlimit="10" cx="2731.6" cy="2589.8" r="39.2"/>
<circle fill="#E5B735" stroke="#FFEBC0" stroke-miterlimit="10" cx="2683.2" cy="2589.8" r="39.2"/>
<path fill="#FDE476" stroke="#AF8935" stroke-width="4" stroke-miterlimit="10" d="M2205.3,2557.6h-60.6c-14,0-25.4-11.4-25.4-25.4
	v-73c0-14,11.4-25.4,25.4-25.4h60.6c14,0,25.4,11.4,25.4,25.4v73C2230.7,2546.3,2219.3,2557.6,2205.3,2557.6z"/>
<ellipse fill="none" stroke="#9B6626" stroke-width="2" stroke-miterlimit="10" cx="2119.3" cy="2652.5" rx="9.6" ry="20.2"/>
<ellipse fill="none" stroke="#9B6626" stroke-width="2" stroke-miterlimit="10" cx="2211.5" cy="2652.5" rx="9.6" ry="20.2"/>
<ellipse fill="none" stroke="#9B6626" stroke-width="2" stroke-miterlimit="10" cx="2179.9" cy="2652.5" rx="9.6" ry="20.2"/>
<ellipse fill="none" stroke="#9B6626" stroke-width="2" stroke-miterlimit="10" cx="2151.5" cy="2652.5" rx="9.6" ry="20.2"/>
<ellipse fill="none" stroke="#9B6626" stroke-width="2" stroke-miterlimit="10" cx="2277" cy="2652.5" rx="9.6" ry="20.2"/>
<ellipse fill="none" stroke="#9B6626" stroke-width="2" stroke-miterlimit="10" cx="2369.2" cy="2652.5" rx="9.6" ry="20.2"/>
<ellipse fill="none" stroke="#9B6626" stroke-width="2" stroke-miterlimit="10" cx="2337.6" cy="2652.5" rx="9.6" ry="20.2"/>
<ellipse fill="none" stroke="#9B6626" stroke-width="2" stroke-miterlimit="10" cx="2309.1" cy="2652.5" rx="9.6" ry="20.2"/>
<ellipse fill="none" stroke="#9B6626" stroke-width="2" stroke-miterlimit="10" cx="2438.8" cy="2652.5" rx="9.6" ry="20.2"/>
<ellipse fill="none" stroke="#9B6626" stroke-width="2" stroke-miterlimit="10" cx="2531" cy="2652.5" rx="9.6" ry="20.2"/>
<ellipse fill="none" stroke="#9B6626" stroke-width="2" stroke-miterlimit="10" cx="2499.4" cy="2652.5" rx="9.6" ry="20.2"/>
<ellipse fill="none" stroke="#9B6626" stroke-width="2" stroke-miterlimit="10" cx="2470.9" cy="2652.5" rx="9.6" ry="20.2"/>
<ellipse fill="none" stroke="#9B6626" stroke-width="2" stroke-miterlimit="10" cx="2598" cy="2652.5" rx="9.6" ry="20.2"/>
<ellipse fill="none" stroke="#9B6626" stroke-width="2" stroke-miterlimit="10" cx="2690.2" cy="2652.5" rx="9.6" ry="20.2"/>
<ellipse fill="none" stroke="#9B6626" stroke-width="2" stroke-miterlimit="10" cx="2658.6" cy="2652.5" rx="9.6" ry="20.2"/>
<ellipse fill="none" stroke="#9B6626" stroke-width="2" stroke-miterlimit="10" cx="2630.1" cy="2652.5" rx="9.6" ry="20.2"/>
<ellipse fill="none" stroke="#9B6626" stroke-width="2" stroke-miterlimit="10" cx="2396.4" cy="2741.9" rx="9.6" ry="20.2"/>
<path fill="none" stroke="#9B6626" stroke-width="2" stroke-miterlimit="10" d="M2414.3,2723.2h13c2.3,0,3.5,2.7,1.9,4.3l-11.2,11.4
	c-1.1,1.2-0.3,3.1,1.4,3.1c5.4,0,13.9,0.1,13.9,13.9c0,6.3-7.2,6.3-9.5,6.3h-9.5"/>
<line fill="none" stroke="#9B6626" stroke-width="2" stroke-miterlimit="10" x1="2454.9" y1="2721.7" x2="2441.8" y2="2764.2"/>
<path fill="none" stroke="#9B6626" stroke-width="2" stroke-miterlimit="10" d="M2464.5,2736.7c0,0,9.7-4.3,12.8-14.6
	c0-0.1,0.2-0.1,0.2-0.1v41.6"/>
<path fill="none" stroke="#9B6626" stroke-width="2" stroke-miterlimit="10" d="M2486.9,2723.5h24c0.9,0,1.3,1,0.7,1.6
	c-4.5,4.6-12.2,17.9-12.2,38.4"/>
<path fill="none" stroke="#9B6626" stroke-width="2" stroke-miterlimit="10" d="M2112.1,2832.9v-32c0-0.4,0.6-0.5,0.8-0.2l7.4,15
	c0.2,0.4,0.7,0.4,0.9,0l7.3-14.3c0.2-0.4,0.9-0.3,0.9,0.2v31.2"/>
<path fill="none" stroke="#9B6626" stroke-width="2" stroke-miterlimit="10" d="M2156.3,2832.9l-13.9-16.1c0,0,1.2-0.1,2.7-0.5
	c5.9-1.6,8.4-8.8,4.5-13.5c-1.9-2.2-5-3.7-10.3-2.1v32.2"/>
<circle fill="#9B6626" cx="2167.8" cy="2827.9" r="2.6"/>
<line fill="none" stroke="#9B6626" stroke-width="2" stroke-miterlimit="10" x1="2180.2" y1="2797" x2="2180.2" y2="2834.6"/>
<path fill="none" stroke="#9B6626" stroke-width="2" stroke-miterlimit="10" d="M2180.2,2800.1l17.8,30.5c0.3,0.6,0.1-13.4,0.1-14.1
	l0.1-19.9"/>
</svg>
