<?xml version="1.0" encoding="utf-8"?>
<!-- Generator: Adobe Illustrator 17.1.0, SVG Export Plug-In . SVG Version: 6.00 Build 0)  -->
<!DOCTYPE svg PUBLIC "-//W3C//DTD SVG 1.1//EN" "http://www.w3.org/Graphics/SVG/1.1/DTD/svg11.dtd">
<svg version="1.1" id="Layer_2" xmlns="http://www.w3.org/2000/svg" xmlns:xlink="http://www.w3.org/1999/xlink" x="0px" y="0px"
	 viewBox="0 0 5000 5000" enable-background="new 0 0 5000 5000" xml:space="preserve">
<circle fill="#C8242E" cx="2517.1" cy="2485.8" r="356.4"/>
<g>
	<path fill="#D33746" d="M2873.3,2480.9c-2.6-194.6-161.1-351.5-356.3-351.5c-24,0-47.4,2.4-70.1,6.9
		C2508.2,2208.4,2689.8,2408.9,2873.3,2480.9z"/>
</g>
<g>
	<path fill="#A80B1A" d="M2162,2456.7c-0.8,9.6-1.3,19.2-1.3,29c0,196.8,159.6,356.4,356.4,356.4c13.3,0,26.5-0.8,39.4-2.2
		C2444.7,2708.8,2257.1,2540,2162,2456.7z"/>
</g>
<circle fill="#D8D1D0" cx="2517.1" cy="2485.8" r="311"/>
<circle fill="#8C9293" cx="2517.1" cy="2485.8" r="298.4"/>
<ellipse fill="#797C7C" cx="2517.1" cy="2485.8" rx="282" ry="281"/>
<ellipse fill="#979D9E" cx="2517.1" cy="2485.8" rx="273.3" ry="272.4"/>
<ellipse fill="#797C7C" cx="2517.1" cy="2485.8" rx="265" ry="264.1"/>
<ellipse fill="#C1C5C6" cx="2517.1" cy="2485.8" rx="257.8" ry="256.7"/>
<path fill="#E1E4E5" d="M2432.5,2296.6l-85.3,260.1c-1.5,4.6-2.7,9.3-3.4,14.1c-4.3,28.8-7.1,117.6,113.8,147.1
	c45.2,11,92.8,10.3,136.8-5c40.6-14.1,85.3-42.4,95.3-99c2.3-13.1,1.6-26.6-1.9-39.5l-69.9-261.8c0,0-9.7-59.9-91-67.2
	c-6.8-0.6-13.6-0.3-20.3,1C2486.6,2250.3,2443.7,2262.5,2432.5,2296.6z"/>
<path fill="#C1C5C6" d="M2438.2,2295.5l-83.5,255.1c-1.5,4.5-2.6,9.1-3.3,13.8c-4.2,28.2-7,115.3,111.4,144.2
	c44.3,10.8,90.9,10.1,134-4.9c39.8-13.8,83.5-41.6,93.3-97.1c2.3-12.9,1.5-26.1-1.8-38.7l-68.5-256.7c0,0-9.5-58.8-89.3-65.9
	c-6.8-0.6-13.7-0.2-20.4,1.2C2490.2,2250.4,2449,2262.5,2438.2,2295.5z"/>
<path fill="#E1E4E5" d="M2398.2,2517.8c2.7-4.7,9.4-4.8,12.3-0.2c10.5,17.1,42.1,58.9,102.3,61.8c0,0,68.5,3.4,114.8-60.7
	c2.1-2.9,6.5-2.6,8,0.7c2.6,5.8,6.3,16.7,10.7,36.7c0.7,3.4,1.2,6.9,1.2,10.4c0.6,21.2-3.7,89.4-80.9,113
	c-33.9,10.4-70.6,9.6-103.8-2.8c-37.3-13.9-81.2-45.4-76.5-116.6C2386.3,2560.1,2390.4,2531.7,2398.2,2517.8z"/>
<path fill="#2C3030" d="M2402.6,2517.7c2.6-4.6,9.3-4.7,12.1-0.2c10.3,16.6,41.3,57.1,100.5,59.9c0,0,67.3,3.3,112.8-58.9
	c2.1-2.8,6.4-2.5,7.8,0.7c2.6,5.6,6.2,16.2,10.5,35.6c0.7,3.3,1.1,6.7,1.2,10.1c0.6,20.6-3.6,86.8-79.4,109.7
	c-33.3,10.1-69.3,9.3-102-2.7c-36.7-13.5-79.7-44-75.1-113.2C2390.8,2558.7,2395,2531.2,2402.6,2517.7z"/>
<path fill="#FDFFFF" d="M2654.2,2213.4c0,0,132.8,64.7,161.3,225.5C2815.5,2438.9,2812.4,2296.8,2654.2,2213.4z"/>
<g>
	<path fill="#F27E94" d="M2842,2339.6c-40.6-90.2-117.6-160.3-212.3-191.9C2711.7,2187.3,2774.8,2239.9,2842,2339.6z"/>
</g>
<path fill="#D8D1D0" d="M2824.8,2470.4c0,0,44.9,8.7,47.8-10.6l0.8,14.6c0,1.7,0,24.6-0.4,30.5l-1.6,19.7c0,0-15.8-25.8-46.2-20.2
	L2824.8,2470.4z"/>
<path fill="#D8D1D0" d="M2209.3,2461.9c0,0-43.2,6.5-46.9-11.7l-1.7,16c0,0.4-0.1,0.9-0.1,1.3c0,4.4-0.1,26.7,0,28.3l1.1,18.5
	c0,0,16-23.9,46.4-19.4L2209.3,2461.9z"/>
<path fill="#B9BABA" d="M2593.1,2509.3c-1.7,37.9-37.6,67.1-80.3,65.2l-16.1-0.7c-42.7-1.9-76-34.1-74.3-71.9l6-136.9
	c1.7-37.9,37.6-67.1,80.3-65.2l16.1,0.7c42.7,1.9,76,34.1,74.3,71.9L2593.1,2509.3z"/>
<g>
	<path fill="#A5A8AA" d="M2533.6,2305.7l-18.6-0.8c-39-1.6-71.8,26.9-73.3,63.7l-5.4,132.2c-1.5,36.8,28.9,67.9,67.9,69.5l18.6,0.8
		c39,1.6,71.8-26.9,73.3-63.7l5.4-132.2C2603,2338.4,2572.6,2307.3,2533.6,2305.7z M2514.4,2546.2c-30.4-1.3-54-26.5-52.8-56.4
		c1.2-29.9,26.9-53.1,57.2-51.8c30.4,1.3,54,26.5,52.8,56.4C2570.4,2524.3,2544.8,2547.5,2514.4,2546.2z M2519.8,2413.5
		c-31.9-1.3-57.1-20-56.2-41.7c0.9-21.7,27.5-38.2,59.4-36.9c31.9,1.3,57.1,20,56.2,41.7C2578.4,2398.3,2551.8,2414.8,2519.8,2413.5
		z"/>
</g>
<g>
	<path fill="#DCE1E5" d="M2532,2300.8l-19.1-0.8c-40-1.6-73.7,28.1-75.3,66.5l-5.7,138c-1.6,38.4,29.6,70.8,69.6,72.5l19.1,0.8
		c40,1.6,73.7-28.1,75.3-66.5l5.7-138C2603.1,2334.9,2572,2302.5,2532,2300.8z M2512,2551.8c-31.2-1.3-55.4-27.6-54.1-58.8
		c1.3-31.2,27.6-55.4,58.8-54.1c31.2,1.3,55.4,27.6,54.1,58.8C2569.5,2528.9,2543.2,2553.1,2512,2551.8z M2517.7,2413.3
		c-32.8-1.3-58.6-20.8-57.7-43.5c0.9-22.6,28.3-39.9,61-38.6c32.8,1.3,58.6,20.8,57.7,43.5
		C2577.8,2397.4,2550.5,2414.7,2517.7,2413.3z"/>
	
		<ellipse transform="matrix(4.113498e-002 -0.9992 0.9992 4.113498e-002 45.3408 4792.1587)" fill="none" stroke="#E8F3F9" stroke-width="0.25" stroke-miterlimit="10" cx="2519.4" cy="2372.5" rx="41" ry="59.4"/>
	<circle fill="none" stroke="#E8F3F9" stroke-width="0.25" stroke-miterlimit="10" cx="2514.4" cy="2495.4" r="56.5"/>
</g>
<path fill="#E8F3F9" d="M2528,2300.7c0,0,60.5,10.3,73.6,72.6C2601.6,2373.3,2601.5,2311.4,2528,2300.7z"/>
<path fill="#E8F3F9" d="M2587.6,2480.4c0,0,1,71-45.4,86.5C2542.2,2566.9,2596.3,2564.9,2587.6,2480.4z"/>
</svg>
