<?xml version="1.0" encoding="utf-8"?>
<!-- Generator: Adobe Illustrator 17.1.0, SVG Export Plug-In . SVG Version: 6.00 Build 0)  -->
<!DOCTYPE svg PUBLIC "-//W3C//DTD SVG 1.1//EN" "http://www.w3.org/Graphics/SVG/1.1/DTD/svg11.dtd">
<svg version="1.1" id="Layer_3" xmlns="http://www.w3.org/2000/svg" xmlns:xlink="http://www.w3.org/1999/xlink" x="0px" y="0px"
	 viewBox="0 0 5000 5000" enable-background="new 0 0 5000 5000" xml:space="preserve">
<path fill="#FFFFFF" d="M2994.3,2495.3c2.1,261.8-212.2,474-474,474s-474-212.2-474-474s212.2-472.3,474-474
	C2781.3,2019.7,2992.2,2229.3,2994.3,2495.3z"/>
<path fill="#F4F0ED" d="M2973.7,2495.3c0,250.4-203,453.4-453.4,453.4s-452.6-203-453.4-453.4c-0.8-240.1,202.9-452.8,453.4-453.4
	C2770.7,2041.4,2973.7,2244.9,2973.7,2495.3z"/>
<circle fill="#D3CBC2" cx="2493.6" cy="2510.7" r="325.6"/>
<path fill="#D3CBC2" d="M2702.6,2792l83.7,95.6l45.1-33.7l-96.7-113.7L2682,2778l3.6,1.5C2692.1,2782.3,2697.9,2786.6,2702.6,2792z"
	/>
<circle fill="#FFFFFF" cx="2520.3" cy="2495.3" r="325.6"/>
<circle fill="#EAE9E8" cx="2520.3" cy="2495.3" r="302.9"/>
<circle fill="#B27738" cx="2520.3" cy="2495.3" r="288.5"/>
<path fill="#EAE9E8" d="M2884.3,2849.5l-29.7,28.6c-13.5,13-34.9,12.6-47.9-0.9l-107-110.2l8.1-5.5c27.3-18.4,51.2-41.4,70.7-67.9
	l6.5-8.8l100.2,111.5C2899.7,2811.3,2899.3,2835.1,2884.3,2849.5z"/>
<path fill="#F4F3F2" d="M2860.4,2843.4l-16.2,15.7c-8.1,7.8-24.9,3.5-37.6-9.7l-62-64.3c-9.8-10.2-12.7-23.4-6.4-29.4l19.9-19.2
	c5.6-5.4,17.1-2.4,25.9,6.7l70.5,73.2C2863.5,2825.6,2866.2,2837.8,2860.4,2843.4z"/>
<path fill="#FFFFFF" d="M2875.7,2827.9l-7.7,7.5c-3.9,3.7-17.3-4-30.1-17.3l-62.6-64.9c-9.9-10.3-15.5-21-12.5-23.9l9.5-9.2
	c2.7-2.6,11.9,2.8,20.7,11.9l71.2,73.8C2873.3,2815.4,2878.5,2825.3,2875.7,2827.9z"/>
<ellipse fill="#EDC094" cx="2495.2" cy="2475.7" rx="17.6" ry="24.6"/>
<path fill="#C28A45" d="M2693.4,2289.3c44.4,46.9,185.3,224.3-3.5,422.1c-4.3,4.5-6.9,10.5-6.7,16.8c0.3,7.9-2.2,15.8-19.4-2.7
	c0,0-28.3-42.5-56.2,4c-23.3,38.8-27.1,39.2-31.2,27.7c-2.9-8.3-10-14.8-18.7-15.7c-2.2-0.2-4.7-0.3-7.4,0
	c-8.5,0.9-15.9-3.5-21.1-10.3c-0.6-0.7-1.3-1.3-2.2-1.7c-4.9-2.2-8.3-6.8-10.7-11.5c-11.4-22.2-43-67.1-98.6-31.3
	c-6.7,4.3-15.1,4.9-22.2,1.4c-9.5-4.6-22.4-8.3-27.7,2c0,0-1.9,1.2-5,2.8c-17.1,8.9-36.6-5.7-33.9-24.8c1.7-12.4-0.2-26.6-14.7-33.8
	c-6.4-3.2-11.3-8.6-13.2-15.5c-2.5-9.1-9.2-19.8-27.1-17.8c-5.2,0.6-10.5-0.4-14.9-3.2c-10.9-6.8-26.2-21-6.1-39.7
	c0,0,48.7-27.4,18-57c-10.5-10.1-10.1-27.4,1.7-36c1.3-1,2.8-1.9,4.3-2.9c3.3-2.1,6.2-4.7,8.2-8.1c4.2-7.2,9.2-20.2,0.4-32.7
	c-7.8-11.1-3.4-26.8,8.6-33.3c1.1-0.6,2.2-1.2,3.4-1.8c5.7-2.8,10.2-7.7,12-13.7c2.2-7.1,3.1-16.7-2.7-25.4
	c-5.6-8.2-5.1-19.2,0.9-27c32.6-42.4,129.1-145.9,263.6-94.2c0.9,0.4,1.8,0.8,2.7,1.2c5,2.6,22.6,11.8,34.7,20.1
	c4.3,2.9,7.5,7.1,9.1,12.1c1.8,5.3,4.6,12.9,8.3,20.1c6.6,12.8,23.1,17,34.6,8.5c1-0.7,2-1.5,3.1-2.2
	C2673.1,2279.5,2685.7,2281.2,2693.4,2289.3z"/>
<path fill="#EDC094" d="M2495.2,2409.6c0,0,29.8-5.6,54.1,14.6c22.6,18.8,28,51.2,16.5,78.3c-10.4,24.4-34.1,49-88.1,33.5
	c0,0,51.8,20.6,90.3-11.8c36.4-30.6,26.5-88.6-17.5-106.6C2535.9,2411.7,2517.7,2408.1,2495.2,2409.6z"/>
<path fill="#EDC094" d="M2442,2431.8c0,0,26.8-32.2,72-40.1c61.6-10.7,119.3,38,113,100.2c-1.4,13.3-5.7,27.3-14.6,41.3
	c-17.8,27.9-48.9,44.1-82,46.5c-48,3.5-123.1-7.4-157.2-98.7c0,0,34.9,125.3,146.5,133.2c48.1,3.4,95.3-19.5,119.4-61.3
	c1.1-1.9,2.1-3.8,3.1-5.8c39.4-76.5-23.2-165.7-109.1-159.9C2503.7,2389.3,2471.1,2400.7,2442,2431.8z"/>
<path fill="#EDC094" d="M2398.7,2435.9c2.9,2.3,6.8,2.1,10.5,0.9c7.4-2.4,12.7-8.7,15.3-16c9.1-26.1,36.6-55.8,88.3-57.7
	c0,0,137.1-13.9,169.2,112.6c0,0,18.3,46.8-17.4,138.8c0-0.1,47.4-44.7,47.8-114.7c0.4-60.8-37.3-114.6-91.7-141.7
	c-9.5-4.8-19.8-8.8-30.6-11.5c0,0,76.7,6.4,122.3,62.3c0,0-62.8-89.8-178.5-89.7c0,0-96.2-2.4-138.3,83.6
	C2389.9,2414.3,2388.5,2428.1,2398.7,2435.9L2398.7,2435.9z"/>
<path fill="#EDC094" d="M2649.6,2529.4c0,0-111.4,164.1-240.6,43.2c0,0,5.5,25.7,33,45.8c0,0-12,4-26.4-14.2c0,0,8.5,20.6,36.3,36.9
	c43.4,25.5,98.9,22.8,138.6-8.1C2613.4,2615.2,2642.2,2578.2,2649.6,2529.4"/>
<ellipse fill="#935721" cx="2342.4" cy="2307.5" rx="4.8" ry="3.4"/>
<ellipse fill="#935721" cx="2533.9" cy="2441.1" rx="4.8" ry="3.4"/>
<ellipse fill="#935721" cx="2776.4" cy="2427.3" rx="4.8" ry="3.4"/>
<ellipse fill="#935721" cx="2766.8" cy="2570.6" rx="4.8" ry="3.4"/>
<ellipse fill="#935721" cx="2260" cy="2522.5" rx="4.8" ry="3.4"/>
<ellipse fill="#935721" cx="2457.8" cy="2733.7" rx="4.8" ry="3.4"/>
<ellipse fill="#935721" cx="2448.2" cy="2696.3" rx="4.8" ry="3.4"/>
<ellipse fill="#935721" cx="2734.8" cy="2322.6" rx="4.8" ry="3.4"/>
<ellipse fill="#935721" cx="2495.2" cy="2397.5" rx="4.8" ry="3.4"/>
<ellipse fill="#935721" cx="2418.7" cy="2430.8" rx="4.8" ry="3.4"/>
<ellipse fill="#935721" cx="2443.4" cy="2567.1" rx="4.8" ry="3.4"/>
<ellipse fill="#935721" cx="2686.2" cy="2529.4" rx="4.8" ry="3.4"/>
<ellipse fill="#935721" cx="2695.8" cy="2648.1" rx="4.8" ry="3.4"/>
<ellipse fill="#935721" cx="2671.1" cy="2716.2" rx="4.8" ry="3.4"/>
<ellipse fill="#935721" cx="2640" cy="2661.8" rx="4.8" ry="3.4"/>
<ellipse fill="#935721" cx="2590.2" cy="2684.8" rx="4.8" ry="3.4"/>
<ellipse fill="#935721" cx="2644.8" cy="2628.3" rx="4.8" ry="3.4"/>
<ellipse fill="#935721" cx="2691" cy="2430.8" rx="4.8" ry="3.4"/>
<ellipse fill="#935721" cx="2585.4" cy="2479.1" rx="4.8" ry="3.4"/>
<ellipse fill="#935721" cx="2514.3" cy="2651.5" rx="4.8" ry="3.4"/>
<ellipse fill="#935721" cx="2396" cy="2658.4" rx="4.8" ry="3.4"/>
<ellipse fill="#935721" cx="2409" cy="2716.2" rx="4.8" ry="3.4"/>
<ellipse fill="#935721" cx="2327" cy="2570.6" rx="4.8" ry="3.4"/>
<ellipse fill="#935721" cx="2281.6" cy="2437.6" rx="4.8" ry="3.4"/>
<ellipse fill="#935721" cx="2373.3" cy="2408.9" rx="4.8" ry="3.4"/>
<ellipse fill="#935721" cx="2623" cy="2276.6" rx="4.8" ry="3.4"/>
<ellipse fill="#935721" cx="2613.4" cy="2245.7" rx="4.8" ry="3.4"/>
<ellipse fill="#935721" cx="2529.3" cy="2300.6" rx="4.8" ry="3.4"/>
<ellipse fill="#935721" cx="2500.4" cy="2238.8" rx="4.8" ry="3.4"/>
<ellipse fill="#935721" cx="2448.2" cy="2280" rx="4.8" ry="3.4"/>
<ellipse fill="#935721" cx="2453" cy="2340.4" rx="4.8" ry="3.4"/>
<ellipse fill="#935721" cx="2373.3" cy="2314.3" rx="4.8" ry="3.4"/>
<ellipse fill="#935721" cx="2368.5" cy="2280" rx="4.8" ry="3.4"/>
<ellipse fill="#935721" cx="2512.8" cy="2448" rx="4.8" ry="3.4"/>
<ellipse transform="matrix(0.8576 0.5144 -0.5144 0.8576 1653.0012 -924.3804)" fill="#935721" cx="2495.6" cy="2522.5" rx="4.8" ry="3.4"/>
<ellipse fill="#935721" cx="2551.8" cy="2466.8" rx="4.8" ry="3.4"/>
<ellipse fill="#935721" cx="2472.8" cy="2454.5" rx="4.8" ry="3.4"/>
<ellipse fill="#935721" cx="2529.1" cy="2510.7" rx="4.8" ry="3.4"/>
<ellipse fill="#935721" cx="2493.6" cy="2466.8" rx="4.8" ry="3.4"/>
<ellipse fill="#935721" cx="2528.7" cy="2487.8" rx="4.8" ry="3.4"/>
<ellipse fill="#935721" cx="2654.5" cy="2444.5" rx="4.8" ry="3.4"/>
<ellipse fill="#935721" cx="2551.8" cy="2352.1" rx="4.8" ry="3.4"/>
<ellipse fill="#935721" cx="2418.7" cy="2408.9" rx="4.8" ry="3.4"/>
<ellipse fill="#935721" cx="2453" cy="2501.9" rx="4.8" ry="3.4"/>
<ellipse fill="#935721" cx="2523.9" cy="2412.3" rx="4.8" ry="3.4"/>
<ellipse fill="#935721" cx="2570.9" cy="2510.7" rx="4.8" ry="3.4"/>
<ellipse fill="#935721" cx="2472.8" cy="2567.1" rx="4.8" ry="3.4"/>
<ellipse fill="#935721" cx="2409" cy="2589.5" rx="4.8" ry="3.4"/>
<ellipse fill="#935721" cx="2756.7" cy="2542.5" rx="4.8" ry="3.4"/>
<ellipse fill="#935721" cx="2255.2" cy="2437.6" rx="4.8" ry="3.4"/>
<ellipse fill="#935721" cx="2373.3" cy="2510.7" rx="4.8" ry="3.4"/>
<ellipse fill="#935721" cx="2686.2" cy="2394" rx="4.8" ry="3.4"/>
<ellipse fill="#935721" cx="2595" cy="2522.5" rx="4.8" ry="3.4"/>
<ellipse fill="#935721" cx="2438.6" cy="2491.2" rx="4.8" ry="3.4"/>
<ellipse fill="#935721" cx="2551.8" cy="2326" rx="4.8" ry="3.4"/>
<ellipse fill="#935721" cx="2599.8" cy="2586" rx="4.8" ry="3.4"/>
<ellipse fill="#935721" cx="2551.8" cy="2614.5" rx="4.8" ry="3.4"/>
<ellipse fill="#935721" cx="2519.1" cy="2574" rx="4.8" ry="3.4"/>
<ellipse fill="#935721" cx="2575.7" cy="2375.8" rx="4.8" ry="3.4"/>
</svg>
