<?xml version="1.0" encoding="utf-8"?>
<!-- Generator: Adobe Illustrator 17.1.0, SVG Export Plug-In . SVG Version: 6.00 Build 0)  -->
<!DOCTYPE svg PUBLIC "-//W3C//DTD SVG 1.1//EN" "http://www.w3.org/Graphics/SVG/1.1/DTD/svg11.dtd">
<svg version="1.1" id="Layer_2" xmlns="http://www.w3.org/2000/svg" xmlns:xlink="http://www.w3.org/1999/xlink" x="0px" y="0px"
	 viewBox="0 0 5000 5000" enable-background="new 0 0 5000 5000" xml:space="preserve">
<path fill="#BA8E49" d="M2886.3,2433.4c-2,32.1,6.3,63.4-1.7,93c-13.7,50.6-45.9,87.9-79.4,129.3c-36.7,45.4-68.4,82.1-123.6,103.8
	c-40.1,15.8-95.2,30.3-141,19.7c-46.4-10.7-88.2,4-125.8-7.2c-37.8-11.3-56.9-33.4-87.7-61.7c-20.4-18.7-49.4-26.5-66.9-62.3
	c-14.1-28.8,35.2-18.4,52.8-57.7c15.9-35.3,38.5-49.2,47.6-93.5c3.5-16.8-16.9-71.1-17.6-93.5c-1.6-47.9-2.7-71.4-26.5-100.6
	c-28.6-35.1-83.2-38.1-71.8-62.4c10.2-21.7,34.1-44.3,47.1-61.1c39.8-51.6,87.6-71,153.5-84.7c31.7-6.6,59.2-15.9,97-15.9
	c65.8,0,124.2,32.6,180,58.2c40.2,18.5,53.1,47,95.3,86.5c28.3,26.5,45.7,53.7,58.9,90.9C2889.6,2351.6,2888.6,2396.4,2886.3,2433.4
	z"/>
<path fill="#D6B065" d="M2859.8,2433.3c-1.9,31,6,61.2-1.7,89.8c-13,48.9-43.5,84.8-75.3,124.7c-34.8,43.8-64.8,79.3-117.2,100.2
	c-38,15.2-90.2,29.2-133.7,19c-44-10.3-83.6,3.9-119.2-6.9c-35.9-10.9-54-32.2-83.1-59.5c-19.3-18.1-46.8-25.5-63.5-60.1
	c-13.4-27.8,33.3-17.8,50.1-55.7c15.1-34,36.5-47.5,45.2-90.2c3.3-16.2-16-68.6-16.7-90.2c-1.5-46.2-2.6-68.9-25.1-97
	c-27.1-33.9-78.8-36.8-68-60.2c9.7-20.9,32.3-42.8,44.6-59c37.7-49.8,83-68.5,145.5-81.7c30.1-6.3,56.1-15.3,92-15.3
	c62.3,0,117.4,32.3,170.6,56.2c39.2,17.6,74.9,41,90.3,83.4c12.7,35.1,43.3,51.8,55.8,87.7C2863,2354.4,2862,2397.6,2859.8,2433.3z"
	/>
<circle fill="#C69C52" cx="2325.1" cy="2234.3" r="4.4"/>
<circle fill="#C69C52" cx="2481.5" cy="2214.1" r="4.4"/>
<circle fill="#C69C52" cx="2490.3" cy="2147.6" r="4.4"/>
<circle fill="#C69C52" cx="2454.2" cy="2113.2" r="4.4"/>
<circle fill="#C69C52" cx="2403.4" cy="2249.1" r="4.4"/>
<circle fill="#C69C52" cx="2403.4" cy="2285.8" r="4.4"/>
<circle fill="#C69C52" cx="2297" cy="2271.4" r="4.4"/>
<circle fill="#C69C52" cx="2454.2" cy="2168.5" r="4.4"/>
<circle fill="#C69C52" cx="2461.8" cy="2239" r="4.4"/>
<circle fill="#C69C52" cx="2458.6" cy="2290.2" r="4.4"/>
<circle fill="#C69C52" cx="2417.2" cy="2310.8" r="4.4"/>
<circle fill="#C69C52" cx="2485.9" cy="2244.6" r="4.4"/>
<circle fill="#C69C52" cx="2481.5" cy="2134.4" r="4.4"/>
<circle fill="#C69C52" cx="2392.3" cy="2152" r="4.4"/>
<circle fill="#C69C52" cx="2454.2" cy="2262.6" r="4.4"/>
<circle fill="#C69C52" cx="2477.1" cy="2180" r="4.4"/>
<circle fill="#C69C52" cx="2454.2" cy="2214.1" r="4.4"/>
<circle fill="#C69C52" cx="2417" cy="2267" r="4.4"/>
<circle fill="#C69C52" cx="2432.5" cy="2238.7" r="4.4"/>
<circle fill="#C69C52" cx="2440.1" cy="2182" r="4.4"/>
<circle fill="#C69C52" cx="2440.1" cy="2143.2" r="4.4"/>
<circle fill="#C69C52" cx="2392.3" cy="2134.4" r="4.4"/>
<circle fill="#C69C52" cx="2411" cy="2172.9" r="4.4"/>
<circle fill="#C69C52" cx="2349.5" cy="2156.4" r="4.4"/>
<circle fill="#C69C52" cx="2301.4" cy="2206.7" r="4.4"/>
<circle fill="#C69C52" cx="2282.9" cy="2245.8" r="4.4"/>
<circle fill="#C69C52" cx="2378.5" cy="2294.6" r="4.4"/>
<circle fill="#C69C52" cx="2345.1" cy="2290.2" r="4.4"/>
<circle fill="#C69C52" cx="2374.1" cy="2262.6" r="4.4"/>
<circle fill="#C69C52" cx="2330.6" cy="2258.2" r="4.4"/>
<circle fill="#C69C52" cx="2491.4" cy="2366.9" r="4.4"/>
<circle fill="#C69C52" cx="2647.8" cy="2346.6" r="4.4"/>
<circle fill="#C69C52" cx="2656.6" cy="2280.2" r="4.4"/>
<circle fill="#C69C52" cx="2620.5" cy="2245.8" r="4.4"/>
<circle fill="#C69C52" cx="2569.7" cy="2381.6" r="4.4"/>
<circle fill="#C69C52" cx="2569.7" cy="2418.4" r="4.4"/>
<circle fill="#C69C52" cx="2463.3" cy="2404" r="4.4"/>
<circle fill="#C69C52" cx="2620.5" cy="2301.1" r="4.4"/>
<circle fill="#C69C52" cx="2628.1" cy="2371.6" r="4.4"/>
<circle fill="#C69C52" cx="2624.9" cy="2422.8" r="4.4"/>
<circle fill="#C69C52" cx="2583.5" cy="2443.3" r="4.4"/>
<circle fill="#C69C52" cx="2652.2" cy="2377.2" r="4.4"/>
<circle fill="#C69C52" cx="2647.8" cy="2266.9" r="4.4"/>
<circle fill="#C69C52" cx="2558.6" cy="2284.6" r="4.4"/>
<circle fill="#C69C52" cx="2620.5" cy="2395.2" r="4.4"/>
<circle fill="#C69C52" cx="2643.4" cy="2312.5" r="4.4"/>
<circle fill="#C69C52" cx="2620.5" cy="2346.6" r="4.4"/>
<circle fill="#C69C52" cx="2583.3" cy="2399.6" r="4.4"/>
<circle fill="#C69C52" cx="2598.8" cy="2371.3" r="4.4"/>
<circle fill="#C69C52" cx="2606.4" cy="2314.6" r="4.4"/>
<circle fill="#C69C52" cx="2606.4" cy="2275.8" r="4.4"/>
<circle fill="#C69C52" cx="2558.6" cy="2266.9" r="4.4"/>
<circle fill="#C69C52" cx="2577.3" cy="2305.5" r="4.4"/>
<circle fill="#C69C52" cx="2515.8" cy="2289" r="4.4"/>
<circle fill="#C69C52" cx="2467.7" cy="2339.2" r="4.4"/>
<circle fill="#C69C52" cx="2449.2" cy="2378.3" r="4.4"/>
<circle fill="#C69C52" cx="2544.8" cy="2427.2" r="4.4"/>
<circle fill="#C69C52" cx="2511.4" cy="2422.8" r="4.4"/>
<circle fill="#C69C52" cx="2540.4" cy="2395.2" r="4.4"/>
<circle fill="#C69C52" cx="2496.9" cy="2390.8" r="4.4"/>
<circle fill="#C69C52" cx="2549.3" cy="2540.1" r="4.4"/>
<circle fill="#C69C52" cx="2705.8" cy="2519.9" r="4.4"/>
<circle fill="#C69C52" cx="2714.6" cy="2453.4" r="4.4"/>
<circle fill="#C69C52" cx="2678.4" cy="2419" r="4.4"/>
<circle fill="#C69C52" cx="2627.6" cy="2554.9" r="4.4"/>
<circle fill="#C69C52" cx="2627.6" cy="2591.6" r="4.4"/>
<circle fill="#C69C52" cx="2521.2" cy="2577.2" r="4.4"/>
<circle fill="#C69C52" cx="2678.4" cy="2474.3" r="4.4"/>
<circle fill="#C69C52" cx="2686.1" cy="2544.8" r="4.4"/>
<circle fill="#C69C52" cx="2682.8" cy="2596" r="4.4"/>
<circle fill="#C69C52" cx="2641.5" cy="2616.6" r="4.4"/>
<circle fill="#C69C52" cx="2710.2" cy="2550.4" r="4.4"/>
<circle fill="#C69C52" cx="2705.8" cy="2440.2" r="4.4"/>
<circle fill="#C69C52" cx="2616.6" cy="2457.8" r="4.4"/>
<circle fill="#C69C52" cx="2678.4" cy="2568.4" r="4.4"/>
<circle fill="#C69C52" cx="2701.3" cy="2485.8" r="4.4"/>
<circle fill="#C69C52" cx="2678.4" cy="2519.9" r="4.4"/>
<circle fill="#C69C52" cx="2641.2" cy="2572.8" r="4.4"/>
<circle fill="#C69C52" cx="2656.7" cy="2544.5" r="4.4"/>
<circle fill="#C69C52" cx="2664.4" cy="2487.8" r="4.4"/>
<circle fill="#C69C52" cx="2664.4" cy="2449" r="4.4"/>
<circle fill="#C69C52" cx="2616.6" cy="2440.2" r="4.4"/>
<circle fill="#C69C52" cx="2635.3" cy="2478.7" r="4.4"/>
<circle fill="#C69C52" cx="2573.7" cy="2462.2" r="4.4"/>
<circle fill="#C69C52" cx="2525.7" cy="2512.5" r="4.4"/>
<circle fill="#C69C52" cx="2507.1" cy="2551.6" r="4.4"/>
<circle fill="#C69C52" cx="2602.7" cy="2600.4" r="4.4"/>
<circle fill="#C69C52" cx="2569.3" cy="2596" r="4.4"/>
<circle fill="#C69C52" cx="2598.3" cy="2568.4" r="4.4"/>
<circle fill="#C69C52" cx="2554.8" cy="2564" r="4.4"/>
<circle fill="#C69C52" cx="2533.3" cy="2614.4" r="4.4"/>
<circle fill="#C69C52" cx="2398.4" cy="2532.5" r="4.4"/>
<circle fill="#C69C52" cx="2350.1" cy="2578.9" r="4.4"/>
<circle fill="#C69C52" cx="2356.8" cy="2628.4" r="4.4"/>
<circle fill="#C69C52" cx="2481.3" cy="2554" r="4.4"/>
<circle fill="#C69C52" cx="2504.3" cy="2525.3" r="4.4"/>
<circle fill="#C69C52" cx="2578.4" cy="2602.9" r="4.4"/>
<circle fill="#C69C52" cx="2391.3" cy="2585.2" r="4.4"/>
<circle fill="#C69C52" cx="2429.4" cy="2525.3" r="4.4"/>
<circle fill="#C69C52" cx="2463.9" cy="2487.4" r="4.4"/>
<circle fill="#C69C52" cx="2509" cy="2497.1" r="4.4"/>
<circle fill="#C69C52" cx="2414.1" cy="2505.9" r="4.4"/>
<circle fill="#C69C52" cx="2348.7" cy="2594.8" r="4.4"/>
<circle fill="#C69C52" cx="2429.3" cy="2636.7" r="4.4"/>
<circle fill="#C69C52" cx="2450.1" cy="2511.7" r="4.4"/>
<circle fill="#C69C52" cx="2380.6" cy="2561.9" r="4.4"/>
<circle fill="#C69C52" cx="2419.8" cy="2549.6" r="4.4"/>
<circle fill="#C69C52" cx="2481.9" cy="2531.5" r="4.4"/>
<circle fill="#C69C52" cx="2452.1" cy="2543.9" r="4.4"/>
<circle fill="#C69C52" cx="2410.8" cy="2583.4" r="4.4"/>
<circle fill="#C69C52" cx="2386.5" cy="2613.7" r="4.4"/>
<circle fill="#C69C52" cx="2418.3" cy="2650.5" r="4.4"/>
<path fill="#C69C52" d="M2424.3,2605.9c1.5-1.9,4.3-2.2,6.2-0.7s2.2,4.3,0.7,6.2"/>
<circle fill="#C69C52" cx="2465.6" cy="2660" r="4.4"/>
<circle fill="#C69C52" cx="2534.5" cy="2650.8" r="4.4"/>
<circle fill="#C69C52" cx="2573.4" cy="2631.8" r="4.4"/>
<circle fill="#C69C52" cx="2529.2" cy="2533.9" r="4.4"/>
<circle fill="#C69C52" cx="2552.6" cy="2558.3" r="4.4"/>
<circle fill="#C69C52" cx="2512.7" cy="2561.7" r="4.4"/>
<circle fill="#C69C52" cx="2543.9" cy="2592.3" r="4.4"/>
<circle fill="#C69C52" cx="2675.3" cy="2342.6" r="4.4"/>
<circle fill="#C69C52" cx="2749.9" cy="2203.6" r="4.4"/>
<circle fill="#C69C52" cx="2701" cy="2157.7" r="4.4"/>
<circle fill="#C69C52" cx="2652" cy="2167.1" r="4.4"/>
<circle fill="#C69C52" cx="2732.9" cy="2287.5" r="4.4"/>
<circle fill="#C69C52" cx="2762.8" cy="2308.9" r="4.4"/>
<circle fill="#C69C52" cx="2689.1" cy="2387" r="4.4"/>
<circle fill="#C69C52" cx="2696.9" cy="2199.3" r="4.4"/>
<circle fill="#C69C52" cx="2758.7" cy="2234.1" r="4.4"/>
<circle fill="#C69C52" cx="2798.5" cy="2266.6" r="4.4"/>
<circle fill="#C69C52" cx="2791.1" cy="2312.2" r="4.4"/>
<circle fill="#C69C52" cx="2777.3" cy="2217.8" r="4.4"/>
<circle fill="#C69C52" cx="2685.1" cy="2157.2" r="4.4"/>
<circle fill="#C69C52" cx="2647.5" cy="2240" r="4.4"/>
<circle fill="#C69C52" cx="2773.5" cy="2254.1" r="4.4"/>
<circle fill="#C69C52" cx="2719.6" cy="2187.3" r="4.4"/>
<circle fill="#C69C52" cx="2734" cy="2225.8" r="4.4"/>
<circle fill="#C69C52" cx="2755.4" cy="2286.9" r="4.4"/>
<circle fill="#C69C52" cx="2741.4" cy="2257.8" r="4.4"/>
<circle fill="#C69C52" cx="2699.8" cy="2218.6" r="4.4"/>
<circle fill="#C69C52" cx="2668.2" cy="2196" r="4.4"/>
<circle fill="#C69C52" cx="2633.2" cy="2229.7" r="4.4"/>
<circle fill="#C69C52" cx="2675.4" cy="2236.9" r="4.4"/>
<circle fill="#C69C52" cx="2626.2" cy="2277.4" r="4.4"/>
<circle fill="#C69C52" cx="2639" cy="2345.7" r="4.4"/>
<circle fill="#C69C52" cx="2660" cy="2383.5" r="4.4"/>
<circle fill="#C69C52" cx="2755.4" cy="2334.3" r="4.4"/>
<circle fill="#C69C52" cx="2732.4" cy="2358.9" r="4.4"/>
<circle fill="#C69C52" cx="2726.8" cy="2319.2" r="4.4"/>
<circle fill="#C69C52" cx="2697.9" cy="2352" r="4.4"/>
<circle fill="#C69C52" cx="2646.5" cy="2182.6" r="4.4"/>
<circle fill="#C69C52" cx="2488.8" cy="2178.1" r="4.4"/>
<circle fill="#C69C52" cx="2469.8" cy="2242.4" r="4.4"/>
<circle fill="#C69C52" cx="2500.1" cy="2282" r="4.4"/>
<circle fill="#C69C52" cx="2571.4" cy="2155.8" r="4.4"/>
<circle fill="#C69C52" cx="2577.2" cy="2119.4" r="4.4"/>
<circle fill="#C69C52" cx="2680" cy="2150.2" r="4.4"/>
<circle fill="#C69C52" cx="2508.7" cy="2227.4" r="4.4"/>
<circle fill="#C69C52" cx="2512.2" cy="2156.5" r="4.4"/>
<circle fill="#C69C52" cx="2523.4" cy="2106.5" r="4.4"/>
<circle fill="#C69C52" cx="2489.3" cy="2147.2" r="4.4"/>
<circle fill="#C69C52" cx="2476.4" cy="2256.8" r="4.4"/>
<circle fill="#C69C52" cx="2567.2" cy="2253.3" r="4.4"/>
<circle fill="#C69C52" cx="2523.4" cy="2134.4" r="4.4"/>
<circle fill="#C69C52" cx="2487.9" cy="2212.5" r="4.4"/>
<circle fill="#C69C52" cx="2515.8" cy="2182.4" r="4.4"/>
<circle fill="#C69C52" cx="2560.8" cy="2135.9" r="4.4"/>
<circle fill="#C69C52" cx="2541.1" cy="2161.4" r="4.4"/>
<circle fill="#C69C52" cx="2524.7" cy="2216.2" r="4.4"/>
<circle fill="#C69C52" cx="2518.6" cy="2254.6" r="4.4"/>
<circle fill="#C69C52" cx="2564.5" cy="2270.8" r="4.4"/>
<circle fill="#C69C52" cx="2544.8" cy="2235.5" r="4.4"/>
<circle fill="#C69C52" cx="2610.3" cy="2255.7" r="4.4"/>
<circle fill="#C69C52" cx="2665.6" cy="2213.5" r="4.4"/>
<circle fill="#C69C52" cx="2690" cy="2177.8" r="4.4"/>
<circle fill="#C69C52" cx="2603.2" cy="2114.6" r="4.4"/>
<circle fill="#C69C52" cx="2635.5" cy="2124.2" r="4.4"/>
<circle fill="#C69C52" cx="2602.5" cy="2146.9" r="4.4"/>
<circle fill="#C69C52" cx="2644.8" cy="2158.1" r="4.4"/>
<circle fill="#C69C52" cx="2655.4" cy="2743.4" r="4.4"/>
<circle fill="#C69C52" cx="2509.4" cy="2683.7" r="4.4"/>
<circle fill="#C69C52" cx="2468.9" cy="2737.2" r="4.4"/>
<circle fill="#C69C52" cx="2427.8" cy="2714" r="4.4"/>
<circle fill="#C69C52" cx="2594.6" cy="2691.9" r="4.4"/>
<circle fill="#C69C52" cx="2612.8" cy="2659.9" r="4.4"/>
<circle fill="#C69C52" cx="2698.2" cy="2725" r="4.4"/>
<circle fill="#C69C52" cx="2510.6" cy="2736.9" r="4.4"/>
<circle fill="#C69C52" cx="2538.8" cy="2671.8" r="4.4"/>
<circle fill="#C69C52" cx="2566.9" cy="2628.8" r="4.4"/>
<circle fill="#C69C52" cx="2613.1" cy="2631.4" r="4.4"/>
<circle fill="#C69C52" cx="2520.7" cy="2655" r="4.4"/>
<circle fill="#C69C52" cx="2470" cy="2753" r="4.4"/>
<circle fill="#C69C52" cx="2484.4" cy="2661.5" r="4.4"/>
<circle fill="#C69C52" cx="2557.1" cy="2655" r="4.4"/>
<circle fill="#C69C52" cx="2496.4" cy="2715.6" r="4.4"/>
<circle fill="#C69C52" cx="2533.2" cy="2697.2" r="4.4"/>
<circle fill="#C69C52" cx="2591.7" cy="2669.6" r="4.4"/>
<circle fill="#C69C52" cx="2564.2" cy="2686.5" r="4.4"/>
<circle fill="#C69C52" cx="2529.5" cy="2732" r="4.4"/>
<path fill="#C69C52" d="M2512.5,2762c2.1,1.2,2.9,3.9,1.7,6c-1.2,2.1-3.9,2.9-6,1.7"/>
<circle fill="#C69C52" cx="2452.1" cy="2690.9" r="4.4"/>
<circle fill="#C69C52" cx="2550.3" cy="2754.3" r="4.4"/>
<circle fill="#C69C52" cx="2614.7" cy="2754.3" r="4.4"/>
<circle fill="#C69C52" cx="2641.5" cy="2747.4" r="4.4"/>
<circle fill="#C69C52" cx="2690.5" cy="2701.6" r="4.4"/>
<circle fill="#C69C52" cx="2638.8" cy="2664.6" r="4.4"/>
<circle fill="#C69C52" cx="2665.7" cy="2684.9" r="4.4"/>
<circle fill="#C69C52" cx="2626.8" cy="2694.6" r="4.4"/>
<circle fill="#C69C52" cx="2662.4" cy="2719.9" r="4.4"/>
<circle fill="#C69C52" cx="2845.7" cy="2429.8" r="4.4"/>
<circle fill="#C69C52" cx="2796.1" cy="2579.5" r="4.4"/>
<circle fill="#C69C52" cx="2704.7" cy="2669.6" r="4.4"/>
<circle fill="#C69C52" cx="2736.8" cy="2575.1" r="4.4"/>
<circle fill="#C69C52" cx="2798.4" cy="2494" r="4.4"/>
<circle fill="#C69C52" cx="2765.3" cy="2478" r="4.4"/>
<circle fill="#C69C52" cx="2824.4" cy="2388.4" r="4.4"/>
<path fill="#C69C52" d="M2850.9,2570.7"/>
<path fill="#C69C52" d="M2847.1,2578.6"/>
<circle fill="#C69C52" cx="2782.1" cy="2551" r="4.4"/>
<circle fill="#C69C52" cx="2737.4" cy="2525.9" r="4.4"/>
<circle fill="#C69C52" cx="2736.8" cy="2479.7" r="4.4"/>
<circle fill="#C69C52" cx="2766.6" cy="2570.3" r="4.4"/>
<circle fill="#C69C52" cx="2681.7" cy="2631.4" r="4.4"/>
<circle fill="#C69C52" cx="2828.8" cy="2535.9" r="4.4"/>
<circle fill="#C69C52" cx="2764.2" cy="2533.9" r="4.4"/>
<circle fill="#C69C52" cx="2807.9" cy="2554.9" r="4.4"/>
<circle fill="#C69C52" cx="2776.3" cy="2498.4" r="4.4"/>
<circle fill="#C69C52" cx="2795.1" cy="2524.7" r="4.4"/>
<circle fill="#C69C52" cx="2791.7" cy="2610" r="4.4"/>
<circle fill="#C69C52" cx="2844.6" cy="2343.7" r="4.4"/>
<circle fill="#C69C52" cx="2786.2" cy="2356.4" r="4.4"/>
<circle fill="#C69C52" cx="2853.6" cy="2386.8" r="4.4"/>
<circle fill="#C69C52" cx="2768.1" cy="2451.8" r="4.4"/>
<circle fill="#C69C52" cx="2786.6" cy="2423.6" r="4.4"/>
<circle fill="#C69C52" cx="2798.9" cy="2461.7" r="4.4"/>
<circle fill="#C69C52" cx="2821.7" cy="2424.4" r="4.4"/>
<circle fill="#C69C52" cx="2330.2" cy="2600.2" r="4.4"/>
<circle fill="#C69C52" cx="2421.7" cy="2420.8" r="4.4"/>
<circle fill="#C69C52" cx="2428" cy="2354.1" r="4.4"/>
<circle fill="#C69C52" cx="2390.6" cy="2321" r="4.4"/>
<circle fill="#C69C52" cx="2492.5" cy="2454.3" r="4.4"/>
<circle fill="#C69C52" cx="2493.7" cy="2312.4" r="4.4"/>
<circle fill="#C69C52" cx="2335" cy="2683.7" r="4.4"/>
<circle fill="#C69C52" cx="2392.7" cy="2376.3" r="4.4"/>
<circle fill="#C69C52" cx="2402.9" cy="2446.5" r="4.4"/>
<circle fill="#C69C52" cx="2401.6" cy="2497.8" r="4.4"/>
<circle fill="#C69C52" cx="2361" cy="2519.8" r="4.4"/>
<circle fill="#C69C52" cx="2427.2" cy="2451.2" r="4.4"/>
<circle fill="#C69C52" cx="2418.7" cy="2341.2" r="4.4"/>
<circle fill="#C69C52" cx="2833.2" cy="2305.5" r="4.4"/>
<circle fill="#C69C52" cx="2416" cy="2386.9" r="4.4"/>
<circle fill="#C69C52" cx="2394.4" cy="2421.8" r="4.4"/>
<circle fill="#C69C52" cx="2799.5" cy="2385.9" r="4.4"/>
<circle fill="#C69C52" cx="2373.6" cy="2447.2" r="4.4"/>
<circle fill="#C69C52" cx="2379.1" cy="2390.4" r="4.4"/>
<circle fill="#C69C52" cx="2377.7" cy="2351.5" r="4.4"/>
<circle fill="#C69C52" cx="2812.3" cy="2347" r="4.4"/>
<circle fill="#C69C52" cx="2349.7" cy="2382.3" r="4.4"/>
<circle fill="#C69C52" cx="2529.1" cy="2478" r="4.4"/>
<circle fill="#C69C52" cx="2326.1" cy="2646.4" r="4.4"/>
<circle fill="#C69C52" cx="2429.3" cy="2736.4" r="4.4"/>
<circle fill="#C69C52" cx="2406" cy="2694.6" r="4.4"/>
<circle fill="#C69C52" cx="2390.6" cy="2727.6" r="4.4"/>
<circle fill="#C69C52" cx="2463" cy="2701.6" r="4.4"/>
<circle fill="#C69C52" cx="2292.6" cy="2633.3" r="4.4"/>
<circle fill="#C69C52" cx="2325.1" cy="2234.3" r="4.4"/>
<path fill="#BA8E49" d="M2682.9,2305.8c0,0-32.5,115.2-15.5,167.2c1.7,5.1,3.2,10.2,4.3,15.6c4.8,23.8,14.8,83.6,1.9,115.1
	c0,0,16.6-61.2,7.7-115.4c-1.2-7.1-3.2-13.7-5.6-20c-5.8-15-17-63,18.8-165.2L2682.9,2305.8z"/>
<path fill="#BA8E49" d="M2569.7,2377.2c0,0-24.9,54.4,18.2,66.1c0,0-34.3,8.4-33.2-61C2555.8,2312.9,2569.7,2377.2,2569.7,2377.2z"
	/>
<path fill="#BA8E49" d="M2544.3,2327.8c0,0,0,0-49.9-41.1c-4-3.3-7.7-7-6.2-12c4.2-13.8,11.2-38.2,10.8-42.5
	c-0.7-6.1-19.6-23.8-19.6-23.8l8,18.1c2.9,6.6,3.6,14,1.9,20.9l-3.6,14.8c-3.8,15.6,2,32,14.8,41.6l40.7,30.7L2544.3,2327.8"/>
<path fill="#BA8E49" d="M2708.2,2261.1c0,0,53.1-27.6,26.3-63.4c0,0,32.2,14.5-11.3,68.6S2708.2,2261.1,2708.2,2261.1z"/>
<path fill="#BA8E49" d="M2588.2,2550.6c0,0-24.9,54.4,18.2,66.1c0,0-34.3,8.4-33.2-61S2588.2,2550.6,2588.2,2550.6z"/>
<path fill="#BA8E49" d="M2571.4,2494.3c0,0-70.7,15.9-99.4-36.8c0,0-2.4,37.6,96.3,52.9C2667,2525.6,2571.4,2494.3,2571.4,2494.3z"
	/>
<path fill="#BA8E49" d="M2643,2707.3c0,0,26.2-53.8,62.7-27.9c0,0-15.3-31.8-68.2,13.2C2584.5,2737.5,2643,2707.3,2643,2707.3z"/>
<path fill="#BA8E49" d="M2574.6,2716.4c0,0,0,0-63.5-12.4c-5.1-1-10.3-1.5-13.2,2.8c-8,12-22.3,33-26,35.3c-5.2,3.4-30.8,0-30.8,0
	l19-5.3c6.9-1.9,13-6.1,17.4-11.9l9.2-12.2c9.6-12.8,26-18.7,41.6-15l49.6,11.9L2574.6,2716.4"/>
<path fill="#BA8E49" d="M2379.1,2216c0,0,0,0-7.2,64.3c-0.6,5.2-0.7,10.4,3.9,12.9c12.6,7,34.7,19.6,37.4,23
	c3.8,4.9,2.6,30.7,2.6,30.7l-6.8-18.5c-2.5-6.8-7.2-12.5-13.3-16.3l-12.9-8.1c-13.6-8.5-20.8-24.3-18.4-40.2l7.8-50.4L2379.1,2216"
	/>
<path fill="#BA8E49" d="M2824.4,2486.1l-11.4,3.7c-21.3,7-32.9,29.8-26.1,51.1l11.2,34.6l-7.5-41.4c-2.5-13.6,5-27.1,17.9-32.2
	l20.3-8L2824.4,2486.1z"/>
<path fill="#BA8E49" d="M2447.5,2601.1l-10.6-0.5c-19.8-1-36.4-19.7-37.2-41.8l-1.2-35.9l6.3,41.4c2.1,13.7,12.4,24.5,24.7,25.9
	l19.3,2.2L2447.5,2601.1z"/>
<path fill="#BA8E49" d="M2620.6,2203.4l2.9-11.7c5.4-21.7-7.8-43.7-29.6-49.2l-35.3-8.9l39.1,15.5c12.9,5.1,20.3,18.6,17.8,32.3
	l-4,21.5L2620.6,2203.4z"/>
<path fill="#BA8E49" d="M2756.9,2407.7l-2.5-11.8c-4.7-21.9,9.3-43.4,31.2-48.2l35.5-7.7l-39.5,14.2c-13,4.7-20.9,18-18.9,31.7
	l3.3,21.6L2756.9,2407.7z"/>
<path fill="#BA8E49" d="M2337.1,2341.2l23-3.6c17.1-2,33.9,6,43.1,20.6l0.2,0.2l-6.9-4.5c-8.4-5.4-18.4-7.6-28.3-6.2l-28.8,4.2
	L2337.1,2341.2z"/>
<path fill="#BA8E49" d="M2358.2,2508.5l9.5,7.4c17.7,13.7,43.2,10.5,56.9-7.2l22.4-28.7l-30,29.5c-9.9,9.7-25.3,11.1-36.7,3.3
	l-20.1-14.3L2358.2,2508.5z"/>
<path opacity="0.2" d="M2211.7,2383.6l-8,23c-1,2.8,1.1,5.8,4.1,5.8h19.1c4.5,0,8-3.9,7.6-8.4l-1.2-11c-0.4-4.1-2.7-7.9-6.2-10.2
	l-4.4-2.9C2218.8,2377.2,2213.3,2379.1,2211.7,2383.6z"/>
<path opacity="0.2" d="M2163.4,2485.9l4,8.7c3,6.5,11.3,8.4,16.8,3.8l11.7-9.7c4.9-4.1,5-11.7,0.1-15.9l-8.9-7.6
	c-3.1-2.6-7.5-3-11-0.9l-7.2,4.3C2162.8,2472.1,2160.5,2479.6,2163.4,2485.9z"/>
<path opacity="0.2" d="M2218.9,2571.9l-5.6-15.5c-0.7-1.9,0.8-3.9,2.9-3.9h13.3c3.2,0,5.6,2.7,5.3,5.7l-0.8,7.4
	c-0.3,2.8-1.9,5.3-4.3,6.9l-3.1,1.9C2223.8,2576.2,2220,2575,2218.9,2571.9z"/>
<path opacity="0.2" d="M2136.6,2392l2.6-5.9c1.9-4.4,7.4-5.7,11-2.6l7.7,6.6c3.2,2.8,3.3,8,0.1,10.8l-5.8,5.1c-2,1.8-4.9,2-7.2,0.6
	l-4.7-2.9C2136.2,2401.4,2134.7,2396.3,2136.6,2392z"/>
<path opacity="0.2" d="M2251.7,2478.2l-4.7,9.6c-0.5,0.9,0.3,2,1.4,1.8l8.2-1.4c3.5-0.6,5.3-4.7,3.3-7.6l-1.9-2.8
	C2256.4,2475.4,2252.9,2475.6,2251.7,2478.2z"/>
<path opacity="0.2" d="M2174.4,2560.7c3.5-0.6,5.3-4.7,3.3-7.6l-1.9-2.8"/>
<path opacity="0.2" d="M2185.4,2349.4l-4.7,9.6c-0.5,0.9,0.3,2,1.4,1.8l8.2-1.4c3.5-0.6,5.3-4.7,3.3-7.6l-1.9-2.8
	C2190.2,2346.6,2186.7,2346.8,2185.4,2349.4z"/>
<path opacity="0.2" d="M2303.6,2412.6l-3.1,6.4c-0.3,0.6,0.2,1.3,0.9,1.2l5.5-0.9c2.4-0.4,3.5-3.1,2.2-5.1l-1.3-1.9
	C2306.8,2410.7,2304.4,2410.9,2303.6,2412.6z"/>
<path opacity="0.2" d="M2116.9,2449.9l10.7,0.2c1,0,1.7-1.1,1.1-2l-4.7-6.9c-2-3-6.4-2.8-8.3,0.2l-1.8,2.9
	C2112.5,2446.7,2114.1,2449.8,2116.9,2449.9z"/>
<path opacity="0.2" d="M2212.4,2355.8c3.5-0.6,5.3-4.7,3.3-7.6l-1.9-2.8"/>
<path opacity="0.2" d="M2191.9,2296.8c-1.9,3.1,0.1,7,3.6,7.5l3.4,0.4"/>
<path fill="#BF934C" d="M2210.9,2379.7l-8,23c-1,2.8,1.1,5.8,4.1,5.8h19.1c4.5,0,8-3.9,7.6-8.4l-1.2-11c-0.4-4.1-2.7-7.9-6.2-10.2
	l-4.4-2.9C2217.9,2373.3,2212.5,2375.1,2210.9,2379.7z"/>
<path fill="#D6B065" d="M2211.8,2382.8l-7,20.3c-0.9,2.5,1,5.1,3.6,5.1h16.8c4,0,7.1-3.5,6.7-7.4l-1-9.7c-0.4-3.7-2.4-6.9-5.5-9
	l-3.8-2.5C2217.9,2377.2,2213.1,2378.8,2211.8,2382.8z"/>
<path fill="#BF934C" d="M2162.5,2482l4,8.7c3,6.5,11.3,8.4,16.8,3.8l11.7-9.7c4.9-4.1,5-11.7,0.1-15.9l-8.9-7.6
	c-3.1-2.6-7.5-3-11-0.9l-7.2,4.3C2162,2468.2,2159.6,2475.7,2162.5,2482z"/>
<path fill="#D6B065" d="M2161.9,2480.2l3.3,7.3c2.5,5.5,9.5,7.1,14.1,3.2l9.8-8.2c4.2-3.5,4.2-9.8,0.1-13.3l-7.5-6.4
	c-2.6-2.2-6.3-2.5-9.3-0.8l-6,3.6C2161.5,2468.6,2159.5,2474.9,2161.9,2480.2z"/>
<path fill="#BF934C" d="M2218,2568l-5.6-15.5c-0.7-1.9,0.8-3.9,2.9-3.9h13.3c3.2,0,5.6,2.7,5.3,5.7l-0.8,7.4
	c-0.3,2.8-1.9,5.3-4.3,6.9l-3.1,1.9C2223,2572.3,2219.1,2571.1,2218,2568z"/>
<path fill="#D6B065" d="M2218.6,2565.9l-4.9-13.7c-0.6-1.7,0.7-3.4,2.5-3.4h11.8c2.8,0,5,2.3,4.7,5l-0.7,6.6
	c-0.3,2.5-1.7,4.7-3.8,6.1l-2.7,1.7C2223,2569.7,2219.6,2568.6,2218.6,2565.9z"/>
<path fill="#BF934C" d="M2135.7,2388.1l2.6-5.9c1.9-4.4,7.4-5.7,11-2.6l7.7,6.6c3.2,2.8,3.3,8,0.1,10.8l-5.8,5.1
	c-2,1.8-4.9,2-7.2,0.6l-4.7-2.9C2135.4,2397.5,2133.8,2392.4,2135.7,2388.1z"/>
<path fill="#D6B065" d="M2135.3,2389.3l2.2-5c1.6-3.7,6.2-4.8,9.3-2.2l6.4,5.6c2.7,2.4,2.8,6.7,0,9.1l-4.9,4.3
	c-1.7,1.5-4.2,1.7-6.1,0.5l-4-2.4C2135,2397.2,2133.7,2392.9,2135.3,2389.3z"/>
<path fill="#BF934C" d="M2250.8,2474.2l-4.7,9.6c-0.5,0.9,0.3,2,1.4,1.8l8.2-1.4c3.5-0.6,5.3-4.7,3.3-7.6l-1.9-2.8
	C2255.5,2471.4,2252,2471.7,2250.8,2474.2z"/>
<path fill="#BF934C" d="M2173.6,2556.7c3.5-0.6,5.3-4.7,3.3-7.6l-1.9-2.8"/>
<path fill="#BF934C" d="M2184.6,2345.4l-4.7,9.6c-0.5,0.9,0.3,2,1.4,1.8l8.2-1.4c3.5-0.6,5.3-4.7,3.3-7.6l-1.9-2.8
	C2189.3,2342.7,2185.8,2342.9,2184.6,2345.4z"/>
<path fill="#BF934C" d="M2302.8,2408.7l-3.1,6.4c-0.3,0.6,0.2,1.3,0.9,1.2l5.5-0.9c2.4-0.4,3.5-3.1,2.2-5.1l-1.3-1.9
	C2305.9,2406.8,2303.6,2407,2302.8,2408.7z"/>
<path fill="#BF934C" d="M2113.9,2444.4l12.9,1.8c1,0,1.7-1.1,1.1-2l-4.7-6.9c-2-3-6.4-2.8-8.3,0.2l-1.8,2.9
	C2111.6,2442.8,2111.1,2444.3,2113.9,2444.4z"/>
<path fill="#BF934C" d="M2211.5,2351.9c3.5-0.6,5.3-4.7,3.3-7.6l-1.9-2.8"/>
<path fill="#BF934C" d="M2191,2292.8c-1.9,3.1,0.1,7,3.6,7.5l3.4,0.4"/>
<path fill="#BA8E49" d="M2352.2,2206.7l4.4,16.4c3.5,13.3,17.5,20.8,30.6,16.4l1.6-0.5c15.5-5.2,24.5-21.4,20.7-37.3l-0.1-0.3
	c2.2-10.4-7.2-19.6-17.6-17.3l-27.4,6.1C2356.9,2192,2351.7,2199,2352.2,2206.7z"/>
<path fill="#BA8E49" d="M2580.3,2714.3l3.5-13.2c2.8-10.7,14.1-16.8,24.6-13.2l1.3,0.4c12.5,4.2,19.7,17.2,16.7,30l-0.1,0.2
	c1.7,8.4-5.8,15.8-14.2,13.9l-22.1-4.9C2584.1,2726.1,2579.9,2720.5,2580.3,2714.3z"/>
<path fill="#BA8E49" d="M2464.8,2580.6c0.1-0.5-9.9,9.8-13.3,17c-3.2,6.8-1.1,14.9,5,19.3l5.6,4.1c6,4.4,14.5,3.5,19.4-2.2
	l11.1-12.6c4.3-4.9,4.7-12.2,0.8-17.5l-3.8-5.3c-2.7-3.7-7.2-5.5-11.7-4.7L2464.8,2580.6"/>
<path fill="#BA8E49" d="M2708.7,2283c0.1-0.4,4.4,10.3,4.7,16.8c0.3,6.1-3.8,11.5-9.6,12.9l-5.4,1.3c-5.9,1.4-11.9-1.8-13.8-7.5
	l-4.4-12.8c-1.7-5,0.2-10.5,4.7-13.3l4.4-2.8c3.1-1.9,7.1-1.9,10.2,0.1L2708.7,2283"/>
<path fill="#BA8E49" d="M2539.3,2329.5l-7.8,5.7c-3.2,5.8-2.8,13,1,18.5l2.9,4.1c4.8,6.9,13.9,9.5,21.7,6l5.4-2.4
	c5.4-2.4,9.2-7.4,10.1-13.2l0-0.3c1.4-8.6-7.2-20.2-15.6-24.1c-1.5-0.7-3.1-1-4.7-0.7l-17.1,9.5"/>
<path fill="#BA8E49" d="M2526.4,2724.5l5.1-3.8c2.1-3.8,1.8-8.5-0.7-12.1l-1.9-2.7c-3.2-4.5-9.1-6.2-14.1-3.9l-3.5,1.6
	c-3.5,1.6-6,4.8-6.6,8.6l0,0.2c-0.9,5.6,4.7,13.2,10.2,15.7c1,0.5,2.1,0.6,3.1,0.4l11.2-6.2"/>
<path fill="#BA8E49" d="M2773.7,2401.9l8.7,14.6c7,11.8,2.6,27.1-9.6,33.3l-1.5,0.8c-14.6,7.4-32.4,2.6-41.1-11.2l-0.2-0.2
	c-9-5.8-9-18.8-0.1-24.6l23.5-15.3C2759.9,2395,2768.5,2396.1,2773.7,2401.9z"/>
<path fill="#BA8E49" d="M2383.2,2625.9l-11.9-6.7c-9.6-5.5-21.9-1.6-26.7,8.4l-0.6,1.2c-5.7,11.9-1.5,26.1,9.8,32.9l0.2,0.1
	c4.8,7.1,15.3,6.9,19.9-0.4l11.9-19.2C2389,2636.9,2387.9,2630,2383.2,2625.9z"/>
<path fill="#BA8E49" d="M2601.2,2182.8c-0.4-0.3,13.9-0.3,21.5,2.4c7.1,2.5,11.4,9.6,10.4,17.1l-1,6.8c-1.1,7.4-7.6,12.8-15.1,12.4
	l-16.8-0.9c-6.5-0.4-11.9-5.2-13.1-11.6l-1.1-6.4c-0.8-4.5,1.1-9,4.8-11.6L2601.2,2182.8"/>
<path fill="#BA8E49" d="M2819.9,2485.3c-0.3-0.2,4.3,10.4,8.7,15.1c4.1,4.4,10.8,5.3,16,2.1l4.7-2.9c5.1-3.2,7-9.8,4.3-15.2
	l-6.1-12.1c-2.4-4.7-7.7-7.2-12.8-5.9l-5.1,1.2c-3.6,0.9-6.3,3.7-7,7.3L2819.9,2485.3"/>
<path fill="#BA8E49" d="M2491.1,2444.9l9.6-1.6c6.4,1.8,11.2,7.1,12.5,13.6l0.9,4.9c1.6,8.3-3,16.6-10.9,19.7l-5.5,2.1
	c-5.5,2.2-11.7,1.4-16.5-2l-0.2-0.2c-7.1-5-9.4-19.3-6.3-28c0.6-1.6,1.5-2.9,2.8-3.8l18.7-5.6"/>
<path fill="#BA8E49" d="M2744.1,2385.7l-6.3,1c-4.2-1.2-7.3-4.6-8.2-8.9l-0.6-3.2c-1-5.4,1.9-10.8,7.1-12.9l3.6-1.4
	c3.6-1.4,7.7-0.9,10.8,1.3l0.1,0.1c4.6,3.3,6.2,12.6,4.1,18.3c-0.4,1-1,1.9-1.8,2.5l-12.2,3.7"/>
<path fill="#BA8E49" d="M2396.5,2459.2l4.4,16.4c3.5,13.3,17.5,20.8,30.6,16.4l1.6-0.5c15.5-5.2,24.5-21.4,20.7-37.3l-0.1-0.3
	c2.2-10.4-7.2-19.6-17.6-17.3l-27.4,6.1C2401.2,2444.6,2396,2451.5,2396.5,2459.2z"/>
<path fill="#BA8E49" d="M2404.3,2361.7l3.5-13.2c2.8-10.7,14.1-16.8,24.6-13.2l1.3,0.4c12.5,4.2,19.7,17.2,16.7,30l-0.1,0.2
	c1.7,8.4-5.8,15.8-14.2,13.9l-22.1-4.9C2408,2373.5,2403.8,2367.9,2404.3,2361.7z"/>
<path fill="#BA8E49" d="M2793.3,2543.2c0.1-0.6-11.7,11.5-15.7,20c-3.7,8-1.3,17.5,5.9,22.8l6.6,4.8c7.1,5.2,17,4.1,22.8-2.5
	l13-14.9c5.1-5.8,5.5-14.3,1-20.5l-4.5-6.2c-3.1-4.4-8.5-6.5-13.8-5.5L2793.3,2543.2"/>
<path fill="#BA8E49" d="M2755.6,2608.5c0.1-0.4,4.4,10.3,4.7,16.8c0.3,6.1-3.8,11.5-9.6,12.9l-5.4,1.3c-5.9,1.4-11.9-1.8-13.8-7.5
	l-4.4-12.8c-1.7-5,0.2-10.5,4.7-13.3l4.4-2.8c3.1-1.9,7.1-1.9,10.2,0.1L2755.6,2608.5"/>
<path fill="#BA8E49" d="M2516.9,2126.2l-7.8,5.7c-3.2,5.8-2.8,13,1,18.5l2.9,4.1c4.8,6.9,13.9,9.5,21.7,6l5.4-2.4
	c5.4-2.4,9.2-7.4,10.1-13.2l0-0.3c1.4-8.6-7.2-20.2-15.6-24.1c-1.5-0.7-3.1-1-4.7-0.7l-17.1,9.5"/>
<path fill="#BA8E49" d="M2681.4,2609.3l5.1-3.8c2.1-3.8,1.8-8.5-0.7-12.1l-1.9-2.7c-3.2-4.5-9.1-6.2-14.1-3.9l-3.5,1.6
	c-3.5,1.6-6,4.8-6.6,8.6l0,0.2c-0.9,5.6,4.7,13.2,10.2,15.7c1,0.5,2.1,0.6,3.1,0.4l11.2-6.2"/>
<path fill="#BA8E49" d="M2590.7,2460.9l-8.7,14.6c-7,11.8-2.6,27.1,9.6,33.3l1.5,0.8c14.6,7.4,32.4,2.6,41.1-11.2l0.2-0.2
	c9-5.8,9-18.8,0.1-24.6l-23.5-15.3C2604.5,2454,2595.9,2455.1,2590.7,2460.9z"/>
<path fill="#BA8E49" d="M2713.7,2202.9l5.1-3.8c2.1-3.8,1.8-8.5-0.7-12.1l-1.9-2.7c-3.2-4.5-9.1-6.2-14.1-3.9l-3.5,1.6
	c-3.5,1.6-6,4.8-6.6,8.6l0,0.2c-0.9,5.6,4.7,13.2,10.2,15.7c1,0.5,2.1,0.6,3.1,0.4l11.2-6.2"/>
<path fill="#BA8E49" d="M2467.6,2242.5l3.2-2.3c1.3-2.4,1.1-5.2-0.4-7.4l-1.2-1.7c-2-2.8-5.6-3.8-8.7-2.4l-2.2,1
	c-2.2,1-3.7,3-4.1,5.3l0,0.1c-0.6,3.5,2.9,8.2,6.3,9.7c0.6,0.3,1.3,0.4,1.9,0.3l6.9-3.8"/>
<path fill="#BA8E49" d="M2643.2,2398.9l-4-2.9c-1.6-3-1.4-6.7,0.5-9.4l1.5-2.1c2.5-3.6,7.1-4.8,11.1-3.1l2.7,1.2
	c2.8,1.2,4.7,3.8,5.2,6.8l0,0.1c0.7,4.4-3.7,10.3-8,12.3c-0.8,0.4-1.6,0.5-2.4,0.3l-8.8-4.8"/>
<path fill="#BA8E49" d="M2810.6,2302.5l-3.2-2.3c-1.3-2.4-1.1-5.2,0.4-7.4l1.2-1.7c2-2.8,5.6-3.8,8.7-2.4l2.2,1c2.2,1,3.7,3,4.1,5.3
	l0,0.1c0.6,3.5-2.9,8.2-6.3,9.7c-0.6,0.3-1.3,0.4-1.9,0.3l-6.9-3.8"/>
<path fill="#BA8E49" d="M2364.7,2418.3l-3.2-2.3c-1.3-2.4-1.1-5.2,0.4-7.4l1.2-1.7c2-2.8,5.6-3.8,8.7-2.4l2.2,1c2.2,1,3.7,3,4.1,5.3
	l0,0.1c0.6,3.5-2.9,8.2-6.3,9.7c-0.6,0.3-1.3,0.4-1.9,0.3l-6.9-3.8"/>
<path fill="#BA8E49" d="M2578.6,2588.4l-4.4-3.3c-1.8-3.3-1.6-7.4,0.6-10.5l1.6-2.3c2.7-3.9,7.9-5.4,12.3-3.4l3,1.4
	c3.1,1.4,5.2,4.2,5.7,7.5l0,0.2c0.8,4.9-4.1,11.4-8.8,13.6c-0.9,0.4-1.8,0.5-2.7,0.4l-9.7-5.4"/>
<path fill="#BA8E49" d="M2704.6,2693.7l-3.2-2.3c-1.3-2.4-1.1-5.2,0.4-7.4l1.2-1.7c2-2.8,5.6-3.8,8.7-2.4l2.2,1c2.2,1,3.7,3,4.1,5.3
	l0,0.1c0.6,3.5-2.9,8.2-6.3,9.7c-0.6,0.3-1.3,0.4-1.9,0.3l-6.9-3.8"/>
<path fill="#BA8E49" d="M2452.3,2690.9l-3.2,2.3c-1.3,2.4-1.1,5.2,0.4,7.4l1.2,1.7c2,2.8,5.6,3.8,8.7,2.4l2.2-1c2.2-1,3.7-3,4.1-5.3
	l0-0.1c0.6-3.5-2.9-8.2-6.3-9.7c-0.6-0.3-1.3-0.4-1.9-0.3l-6.9,3.8"/>
<path fill="#BA8E49" d="M2423.9,2154.1l-4.5-3.3c-1.8-3.3-1.6-7.4,0.6-10.6l1.6-2.4c2.8-4,8-5.4,12.4-3.4l3.1,1.4
	c3.1,1.4,5.3,4.2,5.8,7.6l0,0.2c0.8,4.9-4.1,11.6-8.9,13.8c-0.9,0.4-1.8,0.5-2.7,0.4l-9.8-5.4"/>
<path fill="#BA8E49" d="M2294,2227.4l-3.2,2.3c-1.3,2.4-1.1,5.2,0.4,7.4l1.2,1.7c2,2.8,5.6,3.8,8.7,2.4l2.2-1c2.2-1,3.7-3,4.1-5.3
	l0-0.1c0.6-3.5-2.9-8.2-6.3-9.7c-0.6-0.3-1.3-0.4-1.9-0.3l-6.9,3.8"/>
<path fill="#BA8E49" d="M2721.2,2512.8l3.2-2.3c1.3-2.4,1.1-5.2-0.4-7.4l-1.2-1.7c-2-2.8-5.6-3.8-8.7-2.4l-2.2,1
	c-2.2,1-3.7,3-4.1,5.3l0,0.1c-0.6,3.5,2.9,8.2,6.3,9.7c0.6,0.3,1.3,0.4,1.9,0.3l6.9-3.8"/>
<path fill="#BA8E49" d="M2392.1,2721.1l5.1-3.8c2.1-3.8,1.8-8.5-0.7-12.1l-1.9-2.7c-3.2-4.5-9.1-6.2-14.1-3.9l-3.5,1.6
	c-3.5,1.6-6,4.8-6.6,8.6l0,0.2c-0.9,5.6,4.7,13.2,10.2,15.7c1,0.5,2.1,0.6,3.1,0.4l11.2-6.2"/>
<path fill="#66461B" d="M2349.2,2204.8l4.4,16.4c3.5,13.3,17.5,20.8,30.6,16.4l1.6-0.5c15.5-5.2,24.5-21.4,20.7-37.3l-0.1-0.3
	c2.2-10.4-7.2-19.6-17.6-17.3l-27.4,6.1C2353.9,2190.1,2348.7,2197.1,2349.2,2204.8z"/>
<path fill="#66461B" d="M2577.3,2712.3l3.5-13.2c2.8-10.7,14.1-16.8,24.6-13.2l1.3,0.4c12.5,4.2,19.7,17.2,16.7,30l-0.1,0.2
	c1.7,8.4-5.8,15.8-14.2,13.9l-22.1-4.9C2581.1,2724.2,2576.9,2718.6,2577.3,2712.3z"/>
<path fill="#66461B" d="M2461.8,2578.6c0.1-0.5-9.9,9.8-13.3,17c-3.2,6.8-1.1,14.9,5,19.3l5.6,4.1c6,4.4,14.5,3.5,19.4-2.2
	l11.1-12.6c4.3-4.9,4.7-12.2,0.8-17.5l-3.8-5.3c-2.7-3.7-7.2-5.5-11.7-4.7L2461.8,2578.6"/>
<path fill="#66461B" d="M2705.7,2281.1c0.1-0.4,4.4,10.3,4.7,16.8c0.3,6.1-3.8,11.5-9.6,12.9l-5.4,1.3c-5.9,1.4-11.9-1.8-13.8-7.5
	l-4.4-12.8c-1.7-5,0.2-10.5,4.7-13.3l4.4-2.8c3.1-1.9,7.1-1.9,10.2,0.1L2705.7,2281.1"/>
<path fill="#66461B" d="M2536.3,2327.5l-7.8,5.7c-3.2,5.8-2.8,13,1,18.5l2.9,4.1c4.8,6.9,13.9,9.5,21.7,6l5.4-2.4
	c5.4-2.4,9.2-7.4,10.1-13.2l0-0.3c1.4-8.6-7.2-20.2-15.6-24.1c-1.5-0.7-3.1-1-4.7-0.7l-17.1,9.5"/>
<path fill="#66461B" d="M2523.4,2722.6l5.1-3.8c2.1-3.8,1.8-8.5-0.7-12.1l-1.9-2.7c-3.2-4.5-9.1-6.2-14.1-3.9l-3.5,1.6
	c-3.5,1.6-6,4.8-6.6,8.6l0,0.2c-0.9,5.6,4.7,13.2,10.2,15.7c1,0.5,2.1,0.6,3.1,0.4l11.2-6.2"/>
<path fill="#66461B" d="M2770.6,2399.9l8.7,14.6c7,11.8,2.6,27.1-9.6,33.3l-1.5,0.8c-14.6,7.4-32.4,2.6-41.1-11.2l-0.2-0.2
	c-9-5.8-9-18.8-0.1-24.6l23.5-15.3C2756.9,2393,2765.5,2394.2,2770.6,2399.9z"/>
<path fill="#66461B" d="M2380.1,2624l-11.9-6.7c-9.6-5.5-21.9-1.6-26.7,8.4l-0.6,1.2c-5.7,11.9-1.5,26.1,9.8,32.9l0.2,0.1
	c4.8,7.1,15.3,6.9,19.9-0.4l11.9-19.2C2386,2635,2384.9,2628.1,2380.1,2624z"/>
<path fill="#66461B" d="M2598.2,2180.9c-0.4-0.3,13.9-0.3,21.5,2.4c7.1,2.5,11.4,9.6,10.4,17.1l-1,6.8c-1.1,7.4-7.6,12.8-15.1,12.4
	l-16.8-0.9c-6.5-0.4-11.9-5.2-13.1-11.6l-1.1-6.4c-0.8-4.5,1.1-9,4.8-11.6L2598.2,2180.9"/>
<path fill="#66461B" d="M2816.9,2483.4c-0.3-0.2,4.3,10.4,8.7,15.1c4.1,4.4,10.8,5.3,16,2.1l4.7-2.9c5.1-3.2,7-9.8,4.3-15.2
	l-6.1-12.1c-2.4-4.7-7.7-7.2-12.8-5.9l-5.1,1.2c-3.6,0.9-6.3,3.7-7,7.3L2816.9,2483.4"/>
<path fill="#66461B" d="M2488.1,2443l9.6-1.6c6.4,1.8,11.2,7.1,12.5,13.6l0.9,4.9c1.6,8.3-3,16.6-10.9,19.7l-5.5,2.1
	c-5.5,2.2-11.7,1.4-16.5-2l-0.2-0.2c-7.1-5-9.4-19.3-6.3-28c0.6-1.6,1.5-2.9,2.8-3.8l18.7-5.6"/>
<path fill="#66461B" d="M2741.1,2383.8l-6.3,1c-4.2-1.2-7.3-4.6-8.2-8.9l-0.6-3.2c-1-5.4,1.9-10.8,7.1-12.9l3.6-1.4
	c3.6-1.4,7.7-0.9,10.8,1.3l0.1,0.1c4.6,3.3,6.2,12.6,4.1,18.3c-0.4,1-1,1.9-1.8,2.5l-12.2,3.7"/>
<path fill="#66461B" d="M2393.5,2457.3l4.4,16.4c3.5,13.3,17.5,20.8,30.6,16.4l1.6-0.5c15.5-5.2,24.5-21.4,20.7-37.3l-0.1-0.3
	c2.2-10.4-7.2-19.6-17.6-17.3l-27.4,6.1C2398.2,2442.6,2393,2449.6,2393.5,2457.3z"/>
<path fill="#66461B" d="M2401.2,2359.8l3.5-13.2c2.8-10.7,14.1-16.8,24.6-13.2l1.3,0.4c12.5,4.2,19.7,17.2,16.7,30l-0.1,0.2
	c1.7,8.4-5.8,15.8-14.2,13.9l-22.1-4.9C2405,2371.6,2400.8,2366,2401.2,2359.8z"/>
<path fill="#66461B" d="M2790.2,2541.3c0.1-0.6-11.7,11.5-15.7,20c-3.7,8-1.3,17.5,5.9,22.8l6.6,4.8c7.1,5.2,17,4.1,22.8-2.5
	l13-14.9c5.1-5.8,5.5-14.3,1-20.5l-4.5-6.2c-3.1-4.4-8.5-6.5-13.8-5.5L2790.2,2541.3"/>
<path fill="#66461B" d="M2752.6,2606.6c0.1-0.4,4.4,10.3,4.7,16.8c0.3,6.1-3.8,11.5-9.6,12.9l-5.4,1.3c-5.9,1.4-11.9-1.8-13.8-7.5
	l-4.4-12.8c-1.7-5,0.2-10.5,4.7-13.3l4.4-2.8c3.1-1.9,7.1-1.9,10.2,0.1L2752.6,2606.6"/>
<path fill="#66461B" d="M2513.8,2124.3l-7.8,5.7c-3.2,5.8-2.8,13,1,18.5l2.9,4.1c4.8,6.9,13.9,9.5,21.7,6l5.4-2.4
	c5.4-2.4,9.2-7.4,10.1-13.2l0-0.3c1.4-8.6-7.2-20.2-15.6-24.1c-1.5-0.7-3.1-1-4.7-0.7l-17.1,9.5"/>
<path fill="#66461B" d="M2678.4,2607.4l5.1-3.8c2.1-3.8,1.8-8.5-0.7-12.1l-1.9-2.7c-3.2-4.5-9.1-6.2-14.1-3.9l-3.5,1.6
	c-3.5,1.6-6,4.8-6.6,8.6l0,0.2c-0.9,5.6,4.7,13.2,10.2,15.7c1,0.5,2.1,0.6,3.1,0.4l11.2-6.2"/>
<path fill="#66461B" d="M2587.7,2459l-8.7,14.6c-7,11.8-2.6,27.1,9.6,33.3l1.5,0.8c14.6,7.4,32.4,2.6,41.1-11.2l0.2-0.2
	c9-5.8,9-18.8,0.1-24.6l-23.5-15.3C2601.5,2452.1,2592.9,2453.2,2587.7,2459z"/>
<path fill="#66461B" d="M2710.7,2201l5.1-3.8c2.1-3.8,1.8-8.5-0.7-12.1l-1.9-2.7c-3.2-4.5-9.1-6.2-14.1-3.9l-3.5,1.6
	c-3.5,1.6-6,4.8-6.6,8.6l0,0.2c-0.9,5.6,4.7,13.2,10.2,15.7c1,0.5,2.1,0.6,3.1,0.4l11.2-6.2"/>
<path fill="#66461B" d="M2464.6,2240.6l3.2-2.3c1.3-2.4,1.1-5.2-0.4-7.4l-1.2-1.7c-2-2.8-5.6-3.8-8.7-2.4l-2.2,1
	c-2.2,1-3.7,3-4.1,5.3l0,0.1c-0.6,3.5,2.9,8.2,6.3,9.7c0.6,0.3,1.3,0.4,1.9,0.3l6.9-3.8"/>
<path fill="#66461B" d="M2640.2,2397l-4-2.9c-1.6-3-1.4-6.7,0.5-9.4l1.5-2.1c2.5-3.6,7.1-4.8,11.1-3.1l2.7,1.2
	c2.8,1.2,4.7,3.8,5.2,6.8l0,0.1c0.7,4.4-3.7,10.3-8,12.3c-0.8,0.4-1.6,0.5-2.4,0.3l-8.8-4.8"/>
<path fill="#66461B" d="M2807.6,2300.6l-3.2-2.3c-1.3-2.4-1.1-5.2,0.4-7.4l1.2-1.7c2-2.8,5.6-3.8,8.7-2.4l2.2,1c2.2,1,3.7,3,4.1,5.3
	l0,0.1c0.6,3.5-2.9,8.2-6.3,9.7c-0.6,0.3-1.3,0.4-1.9,0.3l-6.9-3.8"/>
<path fill="#66461B" d="M2361.7,2416.4l-3.2-2.3c-1.3-2.4-1.1-5.2,0.4-7.4l1.2-1.7c2-2.8,5.6-3.8,8.7-2.4l2.2,1c2.2,1,3.7,3,4.1,5.3
	l0,0.1c0.6,3.5-2.9,8.2-6.3,9.7c-0.6,0.3-1.3,0.4-1.9,0.3l-6.9-3.8"/>
<path fill="#66461B" d="M2575.6,2586.5l-4.4-3.3c-1.8-3.3-1.6-7.4,0.6-10.5l1.6-2.3c2.7-3.9,7.9-5.4,12.3-3.4l3,1.4
	c3.1,1.4,5.2,4.2,5.7,7.5l0,0.2c0.8,4.9-4.1,11.4-8.8,13.6c-0.9,0.4-1.8,0.5-2.7,0.4l-9.7-5.4"/>
<path fill="#66461B" d="M2701.6,2691.8l-3.2-2.3c-1.3-2.4-1.1-5.2,0.4-7.4l1.2-1.7c2-2.8,5.6-3.8,8.7-2.4l2.2,1c2.2,1,3.7,3,4.1,5.3
	l0,0.1c0.6,3.5-2.9,8.2-6.3,9.7c-0.6,0.3-1.3,0.4-1.9,0.3l-6.9-3.8"/>
<path fill="#66461B" d="M2449.3,2688.9l-3.2,2.3c-1.3,2.4-1.1,5.2,0.4,7.4l1.2,1.7c2,2.8,5.6,3.8,8.7,2.4l2.2-1c2.2-1,3.7-3,4.1-5.3
	l0-0.1c0.6-3.5-2.9-8.2-6.3-9.7c-0.6-0.3-1.3-0.4-1.9-0.3l-6.9,3.8"/>
<path fill="#66461B" d="M2420.9,2152.2l-4.5-3.3c-1.8-3.3-1.6-7.4,0.6-10.6l1.6-2.4c2.8-4,8-5.4,12.4-3.4l3.1,1.4
	c3.1,1.4,5.3,4.2,5.8,7.6l0,0.2c0.8,4.9-4.1,11.6-8.9,13.8c-0.9,0.4-1.8,0.5-2.7,0.4l-9.8-5.4"/>
<path fill="#66461B" d="M2291,2225.5l-3.2,2.3c-1.3,2.4-1.1,5.2,0.4,7.4l1.2,1.7c2,2.8,5.6,3.8,8.7,2.4l2.2-1c2.2-1,3.7-3,4.1-5.3
	l0-0.1c0.6-3.5-2.9-8.2-6.3-9.7c-0.6-0.3-1.3-0.4-1.9-0.3l-6.9,3.8"/>
<path fill="#66461B" d="M2718.2,2510.9l3.2-2.3c1.3-2.4,1.1-5.2-0.4-7.4l-1.2-1.7c-2-2.8-5.6-3.8-8.7-2.4l-2.2,1
	c-2.2,1-3.7,3-4.1,5.3l0,0.1c-0.6,3.5,2.9,8.2,6.3,9.7c0.6,0.3,1.3,0.4,1.9,0.3l6.9-3.8"/>
<path fill="#66461B" d="M2389.1,2719.1l5.1-3.8c2.1-3.8,1.8-8.5-0.7-12.1l-1.9-2.7c-3.2-4.5-9.1-6.2-14.1-3.9l-3.5,1.6
	c-3.5,1.6-6,4.8-6.6,8.6l0,0.2c-0.9,5.6,4.7,13.2,10.2,15.7c1,0.5,2.1,0.6,3.1,0.4l11.2-6.2"/>
</svg>
