<?xml version="1.0" encoding="utf-8"?>
<!-- Generator: Adobe Illustrator 17.1.0, SVG Export Plug-In . SVG Version: 6.00 Build 0)  -->
<!DOCTYPE svg PUBLIC "-//W3C//DTD SVG 1.1//EN" "http://www.w3.org/Graphics/SVG/1.1/DTD/svg11.dtd">
<svg version="1.1" id="Layer_3" xmlns="http://www.w3.org/2000/svg" xmlns:xlink="http://www.w3.org/1999/xlink" x="0px" y="0px"
	 viewBox="0 0 5000 5000" enable-background="new 0 0 5000 5000" xml:space="preserve">
<path fill="#7F5A2F" d="M3078.8,2335.3l-195.7,122.8c-11.6,7.2-23.9,13.3-36.7,18.1c-46,17.3-170,66.8-287.6,140.8
	c0,0-34.8,19.1-27.4,48.5c1.9,7.5,7.5,13.5,15,16.1c13.2,4.5,38.3,6.7,72.7-18.9c0,0,77.8-63.1,118-92.9c7.2-5.3,14.2-10.9,20.8-17
	c14.4-13.1,46.7-38.4,81.2-37.2c0,0,42.5,6.5,64.2,12.6c9,2.5,18.6,1,26.3-4l177.3-117.2L3078.8,2335.3z"/>
<path fill="#9E7C4F" d="M3074,2332.2l-195.8,120c-11.6,7.1-23.9,13-36.7,17.7c-46,16.9-170,65.4-287.6,137.7
	c0,0-34.8,18.6-27.4,47.4c1.9,7.3,7.5,13.2,15.1,15.8c13.2,4.4,38.2,6.5,72.7-18.5c0,0,98.5-78.1,131.1-100c0,0,47.4-40,93.8-38.4
	c0,0,37.7,0.9,59.4,7c9,2.5,18.6,1,26.3-4l177.3-114.6L3074,2332.2z"/>
<path fill="#7F5A2F" d="M1976.2,2344.9l197.4,120.4c11.7,7.1,24,13,37,17.7c46.3,16.7,170.9,64.8,289.4,137.3c0,0,35,18.7,28,48.2
	c-1.8,7.5-7.3,13.6-14.8,16.3c-13.1,4.7-38.2,7.2-72.9-18c0,0-78.7-62.2-119.2-91.4c-7.3-5.3-14.4-10.8-21.1-16.7
	c-14.5-12.9-47.2-37.8-81.7-36.2c0,0-42.4,7-64,13.4c-8.9,2.7-18.6,1.3-26.4-3.7L1949,2417L1976.2,2344.9z"/>
<path fill="#9E7C4F" d="M1981,2350l197.3,115.1c11.7,6.8,24,12.4,37,16.9c46.3,16,170.9,61.9,289.4,131.3c0,0,35,17.8,28,46.1
	c-1.8,7.2-7.3,13-14.8,15.6c-13.1,4.5-38.2,6.8-72.9-17.2c0,0-99.6-75.3-132.4-96.2c0,0-48-38.5-94.3-36.5c0,0-37.7,1.4-59.3,7.5
	c-8.9,2.5-18.6,1.2-26.3-3.6l-178.8-110L1981,2350z"/>
<path opacity="0.1" fill="#FFFFFF" d="M2023.8,2308.1c0,0-94.6,24.5-58.8,182.2c0,0-10.3,137.4,103.5,179.1c0,0,217.1,66.7,318.7-96
	c0,0,79.9-131.3,56.3-214.3C2443.4,2359.1,2306.3,2267.6,2023.8,2308.1z"/>
<path opacity="0.1" fill="#FFFFFF" d="M3032.4,2301.9c0,0,95,23.3,61.2,181.5c0,0,12.1,137.2-101.1,180.3c0,0-216.2,69.3-319.9-92.1
	c0,0-81.7-130.4-59.1-213.6C2613.4,2358,2749.4,2264.9,3032.4,2301.9z"/>
<path fill="#B79B6C" d="M1878.5,2321.7l10.4,68.1c0.5,3.1,3,5.7,6.2,6.2c8.5,1.3,24.9,7.1,30.2,31.6c1.7,7.8,3.2,15.7,5.3,23.5
	c11.1,41.1,41.9,153.3,53,172.8c0,0,24,70.7,173,70.9c2.5,0,5.1,0.1,7.6,0.1c22.3,0.7,159.3,0.9,230.9-99.3
	c0,0,66.7-98.2,83.5-164.7c0,0,14.1-27.8,43.5-29.8l-0.4-64.6c0,0-111.8-15.8-146.9-26.9c-10-3.2-20.1-5.9-30.5-7.8
	c-61.6-11.1-250.2-36.1-430.7,2.1l86.5,51c0,0,45.8-47.3,208.9-41.4c0,0,111.1,5.6,173.5,37.2c23.2,11.7,38.5,34.3,40.5,59.3
	c2.1,26.8-0.6,69.3-25.1,120.9c0,0-45.5,106.8-152,129.6c0,0-152.7,28.6-222.3-29.1c0,0-33.3-20.5-43.7-123.8
	c-0.8-7.5-1.9-15.1-1.9-22.6c0.2-27.1,1.6-95.2,10.7-110.7c0,0,22.8-37.5,30-45.8l-66.5-24.5c0,0-27.4-8.8-69,9.4
	C1879.8,2314.8,1877.9,2318.2,1878.5,2321.7z"/>
<path fill="#B79B6C" d="M3176,2313.6l-9.5,68.4c-0.4,3.2-2.9,5.8-6.2,6.3c-8.5,1.4-24.8,7.4-29.8,31.9c-1.6,7.9-3,15.7-5,23.5
	c-10.5,41.2-39.9,153.8-50.7,173.4c0,0-23.1,71-172,73c-2.5,0.1-5.1,0.1-7.6,0.2c-22.3,1-159.2,2.8-232.2-96.5
	c0,0-68-97.4-85.7-163.7c0,0-14.5-27.6-43.9-29.2l-0.4-64.6c0,0,111.6-17.1,146.5-28.7c10-3.3,20.1-6.2,30.4-8.2
	c61.4-11.8,249.3-39,430.2-3l-85.4,51.9c0,0-46.5-46.8-209.4-38.8c0,0-111,6.9-173,39.3c-23,12-38.1,34.7-39.7,59.8
	c-1.8,26.9,1.5,69.3,26.7,120.6c0,0,46.9,106.2,153.8,127.7c0,0,153.1,26.7,221.9-31.8c0,0,34.1-21,42.1-124.3
	c0.6-7.6,1.7-15.1,1.6-22.6c-0.6-27-2.9-95.2-12.2-110.6c0,0-23.3-37.2-30.6-45.5l66.2-25.3c0,0,27.3-8.4,69.1,8.6
	C3174.6,2306.8,3176.5,2310.2,3176,2313.6z"/>
<path fill="#B79B6C" d="M2435.5,2323.8c0,0,51.6,62.6,53.2,86.8c0,0,45.3-23.1,78.6,3.7c0,0,36.2-81.8,61.4-91.7
	c0,0-31.1,1.9-56.6,7.4c0,0-31.3,7.4-81.2,1.9C2491.1,2331.9,2453.5,2325.1,2435.5,2323.8z"/>
<path fill="#E5CFB3" d="M2469.9,2334.9l9.8,1.3c6.7,0.9,11.9,6,12.6,12.4c2.1,17.3,6.4,49.4,10.1,51.5l0,0
	c-5.2,1.6-10.9-0.3-13.5-4.9c-6.8-11.5-18.2-32.4-25-53.8C2462.9,2337.9,2466,2334.4,2469.9,2334.9z"/>
<path fill="#E5CFB3" d="M2582.4,2334.2l-12.6,1.9c-4,0.6-7,3.8-7.2,7.6c-0.9,14.9-3.3,49.9-7.2,52.2c0,0,0,0,0,0.1
	c1.8,4.6,8.5,5,10.9,0.6c6-11,16.6-32.1,23.3-54.4C2591,2337.8,2587.1,2333.5,2582.4,2334.2z"/>
<path fill="#7F5A2F" d="M3153.2,2354.7c0,5.6-15.4,10.2-34.6,10.4c-19.1,0.1-34.7-4.3-34.7-9.9c0-5.6,15.4-10.2,34.6-10.4
	S3153.1,2349.1,3153.2,2354.7z"/>
<path fill="#ECDCCB" d="M3150,2354.8c0,4.8-13.2,8.7-29.5,8.8s-29.6-3.7-29.6-8.5c0-4.8,13.2-8.7,29.5-8.8
	C3136.7,2346.2,3150,2350,3150,2354.8z"/>
<ellipse transform="matrix(1 -6.124275e-003 6.124275e-003 1 -14.3399 19.1898)" fill="#F1F4F9" cx="3126.2" cy="2351.1" rx="13.1" ry="1.9"/>
<path fill="#7F5A2F" d="M1978,2361.9c0,5.6-15.4,10.2-34.6,10.4c-19.1,0.1-34.7-4.3-34.7-9.9s15.4-10.2,34.6-10.4
	C1962.4,2351.9,1977.9,2356.3,1978,2361.9z"/>
<path fill="#ECDCCB" d="M1974.8,2362c0,4.8-13.2,8.7-29.5,8.8s-29.6-3.7-29.6-8.5s13.2-8.7,29.5-8.8
	C1961.5,2353.4,1974.8,2357.2,1974.8,2362z"/>
<ellipse transform="matrix(1 -6.124275e-003 6.124275e-003 1 -14.4061 11.9929)" fill="#F1F4F9" cx="1951" cy="2358.3" rx="13.1" ry="1.9"/>
<path fill="#E5CFB3" d="M2772.5,2303.9c0,0,216-26.9,308.1,25.7c4.8,2.7,10.7,3,15.6,0.6l29.5-14.6l0,0
	C3125.8,2315.6,2939.2,2263.2,2772.5,2303.9"/>
<path fill="#E5CFB3" d="M2275.4,2306.5c0,0-216.7-21.9-307.4,32.9c-4.7,2.8-10.6,3.3-15.6,1l-29.8-13.9l0,0
	C1922.6,2326.4,2107.8,2269.6,2275.4,2306.5"/>
<path fill="#E5CFB3" d="M3094.1,2508.4c0,0-6.8,144.3-141.9,159.3c-135.1,15-0.7,4.4-0.7,4.4S3087.8,2681.5,3094.1,2508.4z"/>
<path fill="#E5CFB3" d="M1968.1,2505.3c0,0-3.1,144.4,130.7,167.8s0.4,4.4,0.4,4.4S1962.5,2678.4,1968.1,2505.3z"/>
<path fill="#BEA379" d="M2671.6,2606.4c0,0-57.9,49.8-80.3,59.5c-19.4,8.3-1.1-0.5,0,0c0,0-27,14.8-53.7,3.2c-16.7-7.3,0,0,0,0
	s32.8,2.9,51.8-7.5c0,0,25.7-12.2,80.6-59c23.9-20.3,0,0,0,0L2671.6,2606.4"/>
<path fill="#BEA379" d="M2383.2,2611.1c0,0,59.8,49.5,82.5,58.5c19.7,7.8,1.1-0.6,0,0c0,0,37.2,16.4,55.6,3.8c14.9-10.2,0,0,0,0
	s-33.8,1.5-53.6-9.1c0,0-26.7-11.9-83-57c-24.6-19.6,0,0,0,0L2383.2,2611.1"/>
</svg>
