<?xml version="1.0" encoding="utf-8"?>
<!-- Generator: Adobe Illustrator 17.1.0, SVG Export Plug-In . SVG Version: 6.00 Build 0)  -->
<!DOCTYPE svg PUBLIC "-//W3C//DTD SVG 1.1//EN" "http://www.w3.org/Graphics/SVG/1.1/DTD/svg11.dtd">
<svg version="1.1" id="Layer_3" xmlns="http://www.w3.org/2000/svg" xmlns:xlink="http://www.w3.org/1999/xlink" x="0px" y="0px"
	 viewBox="0 0 5000 5000" enable-background="new 0 0 5000 5000" xml:space="preserve">
<path d="M3190.6,2213.9l-211.1,133.8c-12.5,7.9-25.7,14.5-39.5,19.6c-49.5,18.5-182.7,71.9-309.5,152.6c0,0-37.5,20.7-30,53.7
	c1.9,8.4,7.8,15.2,15.8,18.2c14,5.3,40.8,8,78-19.9c0,0,84.2-69.2,127.5-101.7c7.8-5.8,15.4-12,22.5-18.6
	c15.5-14.4,50.5-42.1,87.3-40.3c0,0,45.3,7.8,68.4,15c9.5,3,19.9,1.4,28.2-4.1l191.2-127.9L3190.6,2213.9z"/>
<path fill="#22282C" d="M3185.5,2210.3l-211,130.8c-12.5,7.7-25.7,14.1-39.5,19.2c-49.5,18.1-182.7,70.3-309.4,149.1
	c0,0-37.4,20.3-30,52.4c1.9,8.2,7.8,14.9,15.8,17.8c14,5.1,40.8,7.8,77.9-19.5c0,0,106.5-85.6,141.6-109.4c0,0,51.3-43.8,100.8-41.4
	c0,0,40.3,1.6,63.3,8.6c9.5,2.9,19.9,1.4,28.2-4l191.2-125L3185.5,2210.3z"/>
<path d="M2012.3,2208l209,137c12.3,8.1,25.5,14.9,39.2,20.3c49.2,19.3,181.6,74.7,307.1,157.3c0,0,37.2,21.3,29.2,54.1
	c-2,8.3-8,15-16.1,17.9c-14.1,5-40.9,7.4-77.7-21.1c0,0-83.1-70.5-126-103.6c-7.7-6-15.2-12.2-22.2-18.9
	c-15.3-14.6-49.9-42.8-86.7-41.6c0,0-45.4,7.1-68.6,14c-9.6,2.8-19.9,1.1-28.1-4.5l-189.2-130.8L2012.3,2208z"/>
<path fill="#22282C" d="M2017.4,2213.7l209,131.2c12.3,7.7,25.5,14.2,39.2,19.4c49.2,18.5,181.6,71.5,307.2,150.6
	c0,0,37.1,20.4,29.2,51.7c-2,8-8,14.4-16.1,17.2c-14.1,4.8-40.9,7-77.6-20.2c0,0-105.2-85.3-140-109.2c0,0-50.6-43.6-100.2-42.1
	c0,0-40.3,1-63.5,7.5c-9.6,2.7-19.9,1.1-28.1-4.4l-189.3-125.2L2017.4,2213.7z"/>
<path opacity="0.17" fill="#FFFFFF" d="M2063.8,2167.7c0,0-101.5,25.9-65.6,202.1c0,0-13.1,152.9,107.8,201.1
	c0,0,230.9,77.6,342-102.2c0,0,87.4-145.1,63.5-237.9C2511.4,2230.8,2366.2,2126.9,2063.8,2167.7z"/>
<path opacity="0.17" fill="#FFFFFF" d="M3141.5,2176c0,0,101.1,27.4,62.5,203.1c0,0,10.8,153-110.8,199.4c0,0-232,74-340.4-107.4
	c0,0-85.2-146.4-59.8-238.8C2693,2232.2,2839.7,2130.5,3141.5,2176z"/>
<path fill="#22282C" d="M1908.3,2180.7l10,76c0.5,3.5,3.1,6.4,6.6,7c9.1,1.6,26.4,8.3,31.7,35.6c1.7,8.8,3.2,17.5,5.3,26.2
	c11.2,45.9,42.4,171.4,53.9,193.3c0,0,24.6,79.1,183.7,81.5c2.7,0.1,5.4,0.2,8.1,0.2c23.8,1.1,170.1,3.4,248.2-107.2
	c0,0,72.8-108.4,91.8-182.2c0,0,15.5-30.7,46.9-32.5l0.5-71.9c0,0-119.2-19.2-156.5-32.2c-10.7-3.7-21.4-6.9-32.5-9.2
	c-65.6-13.3-266.8-44-460.2-4.1l91.6,58.1c0,0,49.7-52,223.8-43c0,0,118.6,7.9,184.8,44c24.6,13.4,40.6,38.8,42.3,66.7
	c1.8,29.9-1.7,77.2-28.7,134.3c0,0-50.2,118.3-164.5,142.1c0,0-163.6,29.6-237.1-35.7c0,0-35.3-23.4-44.8-138.6
	c-0.7-8.4-1.8-16.8-1.6-25.2c0.6-30.1,3.2-106,13.2-123.2c0,0,25-41.4,32.8-50.6l-70.7-28.3c0,0-29.1-10.2-73.9,9.4
	C1909.9,2173,1907.8,2176.8,1908.3,2180.7z"/>
<path fill="#22282C" d="M3294.8,2191.1l-11.2,76c-0.5,3.5-3.2,6.4-6.7,6.9c-9.1,1.5-26.6,7.9-32.3,35.1c-1.8,8.7-3.5,17.5-5.7,26.1
	c-11.9,45.7-45,170.8-56.9,192.4c0,0-25.8,78.7-184.9,78.7c-2.7,0-5.4,0.1-8.1,0.1c-23.9,0.8-170.2,0.8-246.6-111
	c0,0-71.1-109.5-89-183.6c0,0-15-30.9-46.4-33.2l0.5-71.9c0,0,119.5-17.4,157-29.8c10.7-3.5,21.5-6.6,32.6-8.7
	c65.8-12.3,267-39.7,459.7,3.1l-92,56.5c0,0-48.9-52.8-223.2-46.4c0,0-118.7,6.1-185.5,41.2c-24.8,13-41.2,38.1-43.4,66.1
	c-2.3,29.9,0.6,77.2,26.6,134.8c0,0,48.4,119.1,162.3,144.6c0,0,163.1,32.1,237.6-32.1c0,0,36.8-22.8,46.9-137.9
	c0.7-8.4,2.1-16.8,2-25.2c-0.2-30.1-1.6-106.1-11.3-123.3c0,0-24.3-41.8-32-51.1l71.1-27.2c0,0,29.3-9,73.7,10.6
	C3293.4,2183.5,3295.4,2187.3,3294.8,2191.1z"/>
<path fill="#22282C" d="M2503.5,2191.4c0,0,54.2,70.5,55.5,97.5c0,0,48.7-25.1,84,5.3c0,0,40-90.6,67.1-101.2c0,0-33.3,1.7-60.5,7.4
	c0,0-33.5,7.8-86.7,0.9C2562.7,2201.2,2522.7,2193.1,2503.5,2191.4z"/>
<path fill="#363C3F" d="M2540.1,2204.3l10.5,1.6c7.1,1.1,12.6,6.9,13.3,14c2,19.3,6.1,55.1,10,57.5l0,0c-5.6,1.8-11.6-0.5-14.4-5.7
	c-7.1-12.9-18.9-36.4-25.8-60.3C2532.5,2207.5,2535.9,2203.6,2540.1,2204.3z"/>
<path fill="#363C3F" d="M2660.2,2205.2l-13.5,1.9c-4.3,0.6-7.5,4.1-7.8,8.4c-1.1,16.5-4.3,55.5-8.5,58c0,0,0,0,0,0.1
	c1.9,5.2,9,5.7,11.6,0.8c6.5-12.2,18.2-35.6,25.8-60.2C2669.3,2209.3,2665.3,2204.5,2660.2,2205.2z"/>
<ellipse transform="matrix(1 7.643136e-003 -7.643136e-003 1 17.1871 -24.6428)" fill="#5A6262" cx="3232.7" cy="2236.3" rx="37" ry="11.3"/>
<ellipse transform="matrix(1 7.643136e-003 -7.643136e-003 1 17.1872 -24.6585)" fill="#CFD2D7" cx="3234.8" cy="2236.4" rx="31.6" ry="9.6"/>
<ellipse transform="matrix(1 7.643136e-003 -7.643136e-003 1 17.1551 -24.706)" fill="#F2F5F9" cx="3241" cy="2232.1" rx="14" ry="2.1"/>
<ellipse transform="matrix(1 7.643136e-003 -7.643136e-003 1 17.077 -15.0457)" fill="#5A6262" cx="1977" cy="2226.7" rx="37" ry="11.3"/>
<ellipse transform="matrix(1 7.643136e-003 -7.643136e-003 1 17.0772 -15.0614)" fill="#CFD2D7" cx="1979.1" cy="2226.8" rx="31.6" ry="9.6"/>
<ellipse transform="matrix(1 7.643136e-003 -7.643136e-003 1 17.045 -15.1089)" fill="#F2F5F9" cx="1985.3" cy="2222.5" rx="14" ry="2.1"/>
<path fill="#363C3F" d="M2863.9,2174.3c0,0,231.2-26.8,328.8,33.2c5.1,3.1,11.3,3.5,16.7,0.9l31.7-15.8l0,0
	C3241.1,2192.6,3042.6,2131.4,2863.9,2174.3"/>
<path fill="#363C3F" d="M2332.7,2169.7c0,0-231.1-27.6-328.9,32c-5.1,3.1-11.4,3.5-16.7,0.8l-31.7-15.9l0,0
	C1955.4,2186.6,2154.2,2126.1,2332.7,2169.7"/>
<path fill="#363C3F" d="M3204.2,2406.9c0,0-9.5,160.6-154.1,175.3c-144.5,14.7-0.8,4.9-0.8,4.9S3194.8,2599.7,3204.2,2406.9z"/>
<path fill="#363C3F" d="M2001.2,2386.5c0,0-5.5,160.8,137,188.9c142.5,28.1,0.4,5,0.4,5S1992.5,2579.4,2001.2,2386.5z"/>
<path fill="#363C3F" d="M2751.3,2509.8c0,0-62.7,54.7-86.7,65c-20.9,9-1.1-0.6,0,0c0,0-29.1,16.1-57.4,2.8c-17.7-8.4,0,0,0,0
	s35,3.7,55.5-7.6c0,0,27.6-13.3,87-64.5c25.9-22.3,0,0,0,0L2751.3,2509.8"/>
<path fill="#363C3F" d="M2443.1,2510.7c0,0,63.1,56.1,87.2,66.4c20.9,9,1.1-0.6,0,0c0,0,39.5,18.8,59.4,5.1c16.1-11.2,0,0,0,0
	s-36.2,1.1-57.1-10.9c0,0-28.3-13.7-87.8-64.8c-25.9-22.2,0,0,0,0L2443.1,2510.7"/>
</svg>
