<?xml version="1.0" encoding="utf-8"?>
<!-- Generator: Adobe Illustrator 17.1.0, SVG Export Plug-In . SVG Version: 6.00 Build 0)  -->
<!DOCTYPE svg PUBLIC "-//W3C//DTD SVG 1.1//EN" "http://www.w3.org/Graphics/SVG/1.1/DTD/svg11.dtd">
<svg version="1.1" id="Layer_3" xmlns="http://www.w3.org/2000/svg" xmlns:xlink="http://www.w3.org/1999/xlink" x="0px" y="0px"
	 viewBox="0 0 5000 5000" enable-background="new 0 0 5000 5000" xml:space="preserve">
<path opacity="0.2" d="M2695.5,1870.4h87c0.7,0,1.3-0.6,1.3-1.3v-52.7c0-0.7-0.6-1.3-1.3-1.3h-87c-0.7,0-1.3,0.6-1.3,1.3v52.7
	C2694.3,1869.8,2694.8,1870.4,2695.5,1870.4z"/>
<path fill="#826D5B" d="M1998.5,2136.6v653.9c0,18.6,14.6,33.7,32.5,33.7h909.9c17.4,0,31.5-14.8,31.3-32.8l-6.8-653
	c-0.1-12.2-9.7-22-21.5-22l-924.6-4.6C2008.6,2111.7,1998.5,2125.4,1998.5,2136.6z"/>
<path fill="#F3E8E0" d="M2005.9,2130.7v661.2c0,15.4,12,27.9,26.8,27.9h904.1c18.1,0,32.7-15.3,32.7-34.1v-643.3
	c0-17.4-13.6-31.6-30.3-31.6h-914.2C2014.4,2110.9,2005.9,2119.7,2005.9,2130.7z"/>
<path fill="#ACA59D" d="M2012.7,2139.7v657.2c0,12.9,10.3,23.3,23.1,23.3h910.6c12.7,0,23.1-10.4,23.1-23.3v-657.2
	c0-12.9-10.3-23.3-23.1-23.3h-910.6C2023,2116.4,2012.7,2126.8,2012.7,2139.7z"/>
<rect x="2053.7" y="2116.4" fill="#C6AC8E" width="808" height="703.8"/>
<path fill="#BEB9B5" d="M2969.4,2139.7c0-12.9-10.3-23.3-23.1-23.3h-910.6c-12.7,0-23.1,10.4-23.1,23.3l0,396.4l956.7-355.7V2139.7z
	"/>
<polygon fill="#CEB696" points="2861.7,2116.4 2053.7,2116.4 2059.9,2516.6 2861.7,2218.2 "/>
<path fill="#ACA59D" d="M2012.7,2135.8v665c0,10.7,8.6,19.4,19.2,19.4h94.9c10.6,0,19.2-0.4,19.2-19.4v-665
	c0-19.4-8.6-19.4-19.2-19.4h-94.9C2021.3,2116.4,2012.7,2125.1,2012.7,2135.8z"/>
<path fill="#CBB49D" d="M2407.7,2344.5v247.6c0,7.7,6.2,14,13.9,14h139.6c7.7,0,13.9-6.3,13.9-14v-247.6c0-7.7-6.2-14-13.9-14
	h-139.6C2413.9,2330.5,2407.7,2336.8,2407.7,2344.5z"/>
<path fill="none" stroke="#BEBCBA" stroke-width="13" stroke-miterlimit="10" d="M2781.6,1840.1c0,0,473.3-85.9,507.5,338.4
	c9.2,114.4-62.8,252.1-186.7,280.7c-36.3,8.4-80.2,12.4-133.5,9.1"/>
<path fill="#C6AC8E" d="M2704.3,1867.1h84.6c0.7,0,1.2-0.6,1.2-1.3V1813c0-0.7-0.6-1.3-1.2-1.3h-84.6c-0.7,0-1.2,0.6-1.2,1.3v52.8
	C2703.1,1866.5,2703.7,1867.1,2704.3,1867.1z"/>
<path fill="#CEB696" d="M2586.5,1901h131.8c0.4,0,0.8-0.4,0.8-0.8v-123.7c0-0.5-0.4-0.8-0.8-0.8h-131.8c-0.4,0-0.8,0.4-0.8,0.8
	v123.7C2585.7,1900.6,2586,1901,2586.5,1901z"/>
<rect x="2966.7" y="2436.5" fill="#B19A85" width="80.6" height="60.6"/>
<rect x="2491.9" y="1789.3" fill="#D9D9D7" width="94.7" height="94.8"/>
<rect x="2535.1" y="1806.3" fill="#EFEFEF" width="17.2" height="13.7"/>
<rect x="2535.6" y="1853.8" fill="#EFEFEF" width="17.2" height="14.6"/>
<rect x="2560.8" y="1830.9" fill="#EFEFEF" width="11.6" height="14.1"/>
<rect x="2535.6" y="1807.6" fill="#545554" width="16.3" height="13.8"/>
<rect x="2535.6" y="1854.6" fill="#545554" width="16.3" height="13.8"/>
<rect x="2561.1" y="1831.9" fill="#7D7D7D" width="11" height="13.3"/>
<rect x="2719.1" y="1811.7" fill="#AC957F" width="7" height="55.5"/>
<rect x="2579.9" y="1789.3" fill="#CECECC" width="5.8" height="94.8"/>
<path fill="#F4F4F4" d="M2585.7,1840.1l2-60.5c0-1.4,1.1-2.5,2.5-2.6l128.6-1.4h-131.3c-0.7,0-1.3,0.6-1.3,1.4L2585.7,1840.1z"/>
<path fill="#FFFFFF" d="M2491.3,1850l1.6-59.2c0-0.1,0.1-0.2,0.2-0.2l83.9-1.4l-85.7-0.7V1850z"/>
<path fill="#FFFFFF" d="M2790.1,1815.7h-64v-1.3h62.8C2788.9,1814.4,2790.1,1814.1,2790.1,1815.7z"/>
<path fill="#D2BAA0" d="M2556,2330.5h-132.6c-8.1,0-14.6,6.6-14.6,14.7l-1.1,42l153.5-56.7C2561.2,2330.5,2564.1,2330.5,2556,2330.5
	z"/>
<rect x="2968.3" y="2436.5" fill="#9B806B" width="8" height="60.6"/>
<path fill="#BEB9B5" d="M2146.1,2137.1c0-19.4-8.6-19.4-19.2-19.4h-94.9c-10.6,0-19.2,8.7-19.2,19.4v398.2l133.4-49.5V2137.1z"/>
<rect x="2976.3" y="2437.6" fill="#D2C7C0" width="71.1" height="2"/>
</svg>
