<?xml version="1.0" encoding="utf-8"?>
<!-- Generator: Adobe Illustrator 17.1.0, SVG Export Plug-In . SVG Version: 6.00 Build 0)  -->
<!DOCTYPE svg PUBLIC "-//W3C//DTD SVG 1.1//EN" "http://www.w3.org/Graphics/SVG/1.1/DTD/svg11.dtd">
<svg version="1.1" id="Layer_3" xmlns="http://www.w3.org/2000/svg" xmlns:xlink="http://www.w3.org/1999/xlink" x="0px" y="0px"
	 viewBox="0 0 5000 5000" enable-background="new 0 0 5000 5000" xml:space="preserve">
<path fill="none" stroke="#9D9E9E" stroke-width="14" stroke-miterlimit="10" d="M1926.3,2487.1c0,0,164,460.9,524,291.5
	c0,0,440.4-189.5,738.5,37.4c0,0,290.3,214.1,236.1,524.8c-10,57.4-32,111.8-62.2,161.4c-62.3,102.2-217.8,315.7-447.9,351.4
	c-13.9,2.2-27.8,4.5-41.6,7.2c-63.5,12.6-264.9,41.4-438.1-54.5c-161.5-89.4-242.7-275-200.9-456.3c1.7-7.3,3.6-14.7,5.8-22
	c36.2-123.2,153.1-203.3,280.1-197.2c110.6,5.3,274.7,51.9,325.8,271.1c16.1,69.4-1.7,143.4-50.4,195c-0.8,0.9-1.6,1.7-2.5,2.6
	c-66.7,68.3-181.3,36.2-205.2-56.6c-16.1-62.2-11-146.3,73.1-233.6c61.9-64.3,146.9-100,235.5-102.9
	c143.3-4.6,408.4-46.2,481.9-283.9c0,0,93-258.1-135.4-391c-20.7-12-42.7-21.4-65.1-29.4c-32.1-11.4-103.7-45.3-105.7-121.3
	c0,0-14.1-129.8,102.7-191.3c24-12.6,42.8-17.5,64.6-56.1c21.9-38.7,22.3-94.9,2.6-163.2"/>
<polygon fill="#4C4C4B" points="1910.4,2503.9 1885,2441.9 1919.5,2426.6 1944.8,2488.6 "/>
<polygon fill="#B0B0AD" points="1918.5,2500.1 1892.3,2438.7 1897.5,2436.3 1924.5,2497.6 "/>
<polygon fill="#B0B0AD" points="1944.8,2488.2 1910.4,2503.9 1907.8,2497.5 1942.7,2482.7 "/>
<path fill="#C4C3C5" d="M1706.7,2024.8l3.2,12.2c1.9,7.2,6.5,29.2,9.1,36.1l33.8,85c5,11.2,14.9,44,18.9,55.7l69.6,190.8
	c8.2,16.6,12.4,31.9,20.7,46.7l0.1,0.2C1862.1,2451.5,1751.7,2037.4,1706.7,2024.8"/>
<path fill="#5F5F67" d="M1752.7,1998.6l26.7,6.9c9.1,0,13-10.6,16.4-1.8l143.1,374.4c8.4,17.8-3.6,20.2-17.1,50.6l-0.1,0.2
	L1752.7,1998.6z"/>
<polygon fill="#767677" points="1755.5,2148.8 1771.2,2146.2 1854.6,2404.9 1846.5,2416.8 "/>
<g>
	<path fill="#B1B1B1" d="M1756.4,1998.6c-0.3-0.4-0.8-0.5-1.2-0.3l-44.6,25.2c-0.4,0.2-0.6,0.8-0.3,1.3
		c19.5,34.9,39.5,82.6,55.6,124.6c16.5-5.4,37-14.5,55-29.4C1791.1,2056,1760.4,2005.1,1756.4,1998.6z"/>
</g>
<path fill="#C6C5C5" d="M1708.1,2023.5l44.6-25.2c0.4-0.2,0.9-0.1,1.2,0.3c6.1,9.9,73.9,122.1,106.3,226.8
	c0,0,62.5,168.9,63.1,202.8c-0.1,0.3-0.2,0.4-0.3,0.7c-3.6,2.6-34.7,24.5-59.7,22.6c-0.3-0.2-0.5-0.4-0.8-0.6
	c-2.5-9.2-33.5-125.4-58.5-190c-4.7-12.9-9.5-25.8-14.2-38.7c-14.7-42.8-49-138.5-82-197.4
	C1707.5,2024.3,1707.6,2023.7,1708.1,2023.5z"/>
<g>
	<g>
		<g>
			<path fill="#B1B1B1" d="M1850.5,2407.8c6.5,23,11,39.7,11.9,43.1c0.1,0.4,0.4,0.6,0.8,0.7c24.9,1.9,55.9-19.8,59.6-22.5
				c0.2-0.2,0.4-0.4,0.4-0.7c-0.2-8.7-4.3-26.2-10.5-47.3C1891,2405.9,1876.1,2411.6,1850.5,2407.8z"/>
		</g>
	</g>
</g>
<path fill="#898A8D" d="M1713.4,2023.5l43.3-25.2c0.4-0.2,0.9-0.1,1.1,0.3c5.9,9.9,71.7,122.1,103.2,226.8
	c0,0,60.7,168.9,61.2,202.8c-0.1,0.3-0.2,0.4-0.3,0.7c-3.5,2.6-33.7,24.5-57.9,22.6c-0.3-0.2-0.5-0.4-0.7-0.6
	c-2.4-9.2-32.5-125.4-56.7-190c-4.6-12.9-9.2-25.8-13.8-38.7c-14.2-42.8-47.5-138.5-79.5-197.4
	C1712.8,2024.3,1713,2023.7,1713.4,2023.5z"/>
<path fill="#807F7F" d="M1733.4,2069.5c4.1,9.1,9.1,17.3,9.7,23.1c0.4,3.9-5.6,7.1-7.2,7.2c-1.5,0.1-8.9-8.8-15.7-23.9
	s-8.3-24.4-7.6-28.2c0.3-1.4,9.5-2.1,11.6-0.1C1728.4,2051.6,1729,2059.6,1733.4,2069.5z"/>
<g>
	<path fill="#9C9B9F" d="M1757.8,1998.6c-0.2-0.4-0.7-0.5-1.1-0.3l-43.3,25.2c-0.4,0.2-0.6,0.8-0.3,1.3c19,34.9,38.3,82.6,54,124.6
		c16-5.4,35.9-14.5,53.4-29.4C1791.5,2056,1761.6,2005.1,1757.8,1998.6z"/>
</g>
<g>
	<g>
		<g>
			<path fill="#9C9B9F" d="M1851.6,2407.8c6.3,23,10.6,39.7,11.5,43.1c0.1,0.4,0.4,0.6,0.8,0.7c24.2,1.9,54.3-19.8,57.9-22.5
				c0.2-0.2,0.4-0.4,0.4-0.7c-0.1-8.7-4.2-26.2-10.2-47.3C1890.9,2405.9,1876.5,2411.6,1851.6,2407.8z"/>
		</g>
	</g>
</g>
<path fill="#9C9B9F" d="M1807.2,2280.5c25.1,74,42.7,135,39.3,136.3c-3.4,1.3-26.6-57.7-51.7-131.7c-25.1-74-42.7-135-39.3-136.3
	C1758.9,2147.5,1782.1,2206.5,1807.2,2280.5z"/>
<g>
	<path fill="#807F7F" d="M1799.5,2258c-7.8-22.4-15.2-42.9-21.7-59.8c-3.6,1.7-6.6,3.6-9.1,5.6c5.2,17.3,11.6,37.7,19,59.8
		C1791.1,2263.1,1795.7,2261.7,1799.5,2258z"/>
</g>
<path fill="#9C9B9F" d="M1728.5,2071.7c6.4,14.4,9.8,27,7.4,28.1c-2.3,1.1-9.4-9.6-15.9-24s-9.8-27-7.4-28.1
	C1715,2046.6,1722.1,2057.3,1728.5,2071.7z"/>
<path fill="#807F7F" d="M1726.9,2071.8c5,11.1,7.9,20.7,6.5,21.4c-1.4,0.7-6.7-7.7-11.7-18.8c-5-11.1-7.9-20.7-6.5-21.4
	C1716.7,2052.3,1721.9,2060.7,1726.9,2071.8z"/>
<path fill="#525356" d="M1698.7,2000.4c0,0,28.3-13.6,47.9-30.2l14,30.4c0,0-14.9,38-52,27.8L1698.7,2000.4z"/>
<path fill="#9C9B9F" d="M1696.3,1999.1c0,0,30.8-12.2,50.3-28.8l14.1,32c0,0-21.5,35.9-54.5,24.8L1696.3,1999.1z"/>
<path fill="#575757" d="M1685.6,1836.5l18.8-9.3c0,0,4.5,69,12,100.4c2.3,9.6,7.5,18.1,14.8,22.8c2.8,1.9,6.1,3.3,9.8,3.6
	c1.6,0.1,2.9,1.6,3.3,3.5l3.9,17.1c0,0-22.2,30.1-51.4,27.5l-2-14.9c-1-2.9-3.7-5.7-2.3-8.3c3.2-6.1,12.7-20.3,8-37.2
	c-1.1-4-2.3-7.6-2.9-11.8C1694.4,1910,1683.2,1861.6,1685.6,1836.5z"/>
<path fill="#9C9B9F" d="M1685.5,1833.4l18.8-9.3c0,0,4.5,69,12,100.4c2.3,9.6,7.5,18.1,14.8,22.8c2.8,1.9,6.1,3.3,9.8,3.6
	c1.6,0.1,2.9,1.6,3.3,3.5l3.9,17.1c0,0-22.2,30.1-51.4,27.5l-5-14.5c-1-2.9-0.8-6.1,0.6-8.7c3.2-6.1,8.1-19.1,3.5-35.9
	c-1.1-4-1.9-8.1-2.5-12.3C1690.2,1907.7,1683.1,1858.6,1685.5,1833.4z"/>
<g>
	<path fill="#707171" d="M1748.1,1971.5l-3.9-17.1c-0.4-1.9-1.7-3.3-3.3-3.5c-3.7-0.3-7-1.8-9.8-3.6c-3.8-2.5-7-6-9.6-10.2
		c0.9,3,1.9,6,3.1,8.7c2.3,5.2,6.3,9.3,11.1,10.8c3.3,1,7.8,5,9.5,18.4C1747,1973,1748.1,1971.5,1748.1,1971.5z"/>
</g>
<g>
	<g>
		<g>
			<path fill="#707171" d="M1759,2003c1-1.4,1.5-2.3,1.5-2.3l-12.5-29.1c-0.8,0.7-2.1,2.9-2.9,3.6
				C1747.6,1984.5,1751.8,1996.7,1759,2003z"/>
		</g>
	</g>
</g>
<path fill="#BEBEBF" d="M1702.1,1995.8c1.5,0.2,6.3,0.5,11.9-3.6c0.7-0.5,0.8-1.9,0.1-2.5c-2.3-2.1-6.6-7.2-7.9-16.5
	c-0.1-0.8-0.8-1.4-1.4-1.3l-4.9,1.1c-0.5,0.1-0.9,0.6-1,1.2c-0.5,3.5-1.9,15.4,2.5,21.1C1701.5,1995.6,1701.8,1995.8,1702.1,1995.8z
	"/>
<path fill="#BEBEBF" d="M1739.2,1976c-0.5,1.2-2.4,4.7-7.4,6.1c-0.7,0.2-1.5-0.6-1.7-1.5c-0.4-2.9-1.9-9.1-7.3-15.7
	c-0.5-0.6-0.6-1.4-0.2-1.8l2.8-2.7c0.3-0.3,0.8-0.3,1.2,0c2.5,1.8,10.8,8.2,12.6,14.8C1739.3,1975.4,1739.3,1975.7,1739.2,1976z"/>
<path fill="#BEBEBF" d="M1707.7,2009.9l3.4,11.6c0.3,1.1,1,1.9,1.8,2.4c2.4,1.3,7.5,3.4,12.2,0.2c1.1-0.7,1.4-2.5,0.7-3.8l-7.3-12.7
	c-0.9-1.6-2.6-2-3.9-1.1c-1.3,1-3.3,1.9-5.7,1.5C1708,2007.9,1707.4,2008.9,1707.7,2009.9z"/>
<path fill="#BEBEBF" d="M1743.8,1990l4.9,10.6c0.5,1,0.6,2.1,0.4,3c-0.6,2.6-2.3,7.8-6.9,9c-1.1,0.3-2.3-0.7-2.6-2.1l-3.3-14.2
	c-0.4-1.7,0.3-3.3,1.6-3.6c1.4-0.3,3-1,4.2-3.1C1742.4,1988.8,1743.4,1989.1,1743.8,1990z"/>
<path fill="#707171" d="M1685.5,1833.4l12.1-5.9c0,0-16.1,22-7.9,76.4C1689.7,1903.9,1679.9,1847.7,1685.5,1833.4z"/>
<path fill="#C6AB83" d="M1818.9,1906.8c0,0-15.2-20.4-35.4-9.9c-8.5,4.4-14.3,13.1-16.2,22.8c-3.1,15.5-3.9,45,14.5,92.1l143.2,374
	c0,0,26.5,78.6,52.9,74.3c0,0,33.5-0.2,22.9-45.5l-172.4-477.8L1818.9,1906.8z"/>
<g>
	<path fill="#B0946F" d="M1803.7,1895.5c-5.7-2.1-12.5-2.5-20.2,1.4c-8.5,4.4-14.3,13.1-16.2,22.8c-1.6,8-2.6,19.7-0.6,35.5
		C1769.9,1931.9,1779.2,1905,1803.7,1895.5z"/>
</g>
<path fill="#987D56" d="M1796.4,1938c24,45.3,90.8,185.9,186.2,500.1c3.8,12.5,13.5,22.3,25.7,25.2c13.2,3.2,31.5,3.4,51.6-9.1
	c0,0,47.9-24,39.5-80.3c-0.9-5.7-2.5-11.3-4.3-16.8c-17.4-51.1-132-386.5-173-461.1c0,0-35-68.6-98.1-41.6c0,0-0.9,0.3-2.4,1.1
	C1791.9,1869.9,1780.6,1908.1,1796.4,1938z"/>
<path fill="#B79B6C" d="M1796.7,1932.2c24.9,46.9,94.3,192.1,193.4,516.7c3.9,12.9,14,23,26.7,26.1c13.7,3.3,32.7,3.5,53.6-9.4
	c0,0,49.8-24.8,41-83c-0.9-5.9-2.5-11.7-4.5-17.4c-18-52.8-137.1-399.4-179.7-476.4c0,0-36.4-70.8-101.9-43c0,0-0.9,0.4-2.5,1.1
	C1792,1861.8,1780.2,1901.2,1796.7,1932.2z"/>
<g>
	<path fill="#987D56" d="M1855.7,1839.4c-9.3-0.1-19.4,1.8-30.4,6.4c0,0-0.9,0.4-2.5,1.1c-26,12.5-38.3,42.4-31.8,70
		C1795.2,1896.9,1809.3,1859,1855.7,1839.4z"/>
</g>
<path fill="#D7BFA6" d="M1790.3,1963.2c-0.7-1.2-2.5-0.2-2,1.1c21.7,52.7,141.9,362.1,172.5,453c0.2,0.7,1.2,0.4,1.1-0.3
	C1947.1,2357.1,1884.7,2119.1,1790.3,1963.2z"/>
<path fill="#C9AD87" d="M1856.7,1884.1c0,0,172.5,410.2,199.6,515.1c3.5,13.6,17.1,21.6,29.9,17.4c0.2-0.1,0.4-0.1,0.6-0.2
	c0,0,17.2-5.4,12.7-32.5c0,0-147.1-432.9-200-516.4c0,0-8.6-14-28.5-11.1c-5.2,0.8-10.1,3.3-13.2,7.8
	C1854.8,1868.4,1852.8,1875,1856.7,1884.1z"/>
<path fill="#C4C3C5" d="M2849.7,2032.4l-3.2,12.2c-1.9,7.2-6.5,29.2-9.1,36.1l-33.8,85c-5,11.2-14.9,44-18.9,55.7l-69.6,190.8
	c-8.2,16.6-12.4,31.9-20.7,46.7l-0.1,0.2C2694.2,2459.1,2804.7,2045,2849.7,2032.4"/>
<path fill="#5F5F67" d="M2803.6,2006.2l-26.7,6.9c-9.1,0-13-10.6-16.4-1.8l-143.1,374.4c-8.4,17.8,3.6,20.2,17.1,50.6l0.1,0.2
	L2803.6,2006.2z"/>
<polygon fill="#767677" points="2800.8,2156.4 2785.1,2153.8 2701.8,2412.5 2709.8,2424.4 "/>
<g>
	<path fill="#B1B1B1" d="M2800,2006.2c0.3-0.4,0.8-0.5,1.2-0.3l44.6,25.2c0.4,0.2,0.6,0.8,0.3,1.3c-19.5,34.9-39.5,82.6-55.6,124.6
		c-16.5-5.4-37-14.5-55-29.4C2765.2,2063.6,2796,2012.7,2800,2006.2z"/>
</g>
<path fill="#C6C5C5" d="M2848.3,2031.1l-44.6-25.2c-0.4-0.2-0.9-0.1-1.2,0.3c-6.1,9.9-73.9,122.1-106.3,226.8
	c0,0-62.5,168.9-63.1,202.8c0.1,0.3,0.2,0.4,0.3,0.7c3.6,2.6,34.7,24.5,59.7,22.6c0.3-0.2,0.5-0.4,0.8-0.6
	c2.5-9.2,33.5-125.4,58.5-190c4.7-12.9,9.5-25.8,14.2-38.7c14.7-42.8,49-138.5,82-197.4C2848.9,2031.9,2848.7,2031.3,2848.3,2031.1z
	"/>
<g>
	<g>
		<g>
			<path fill="#B1B1B1" d="M2705.8,2415.4c-6.5,23-11,39.7-11.9,43.1c-0.1,0.4-0.4,0.6-0.8,0.7c-24.9,1.9-55.9-19.8-59.6-22.5
				c-0.2-0.2-0.4-0.4-0.4-0.7c0.2-8.7,4.3-26.2,10.5-47.3C2665.4,2413.5,2680.2,2419.2,2705.8,2415.4z"/>
		</g>
	</g>
</g>
<path fill="#898A8D" d="M2843,2031.1l-43.3-25.2c-0.4-0.2-0.9-0.1-1.1,0.3c-5.9,9.9-71.7,122.1-103.2,226.8
	c0,0-60.7,168.9-61.2,202.8c0.1,0.3,0.2,0.4,0.3,0.7c3.5,2.6,33.7,24.5,57.9,22.6c0.3-0.2,0.5-0.4,0.7-0.6
	c2.4-9.2,32.5-125.4,56.7-190c4.6-12.9,9.2-25.8,13.8-38.7c14.2-42.8,47.5-138.5,79.5-197.4
	C2843.5,2031.9,2843.4,2031.3,2843,2031.1z"/>
<path fill="#807F7F" d="M2822.9,2077.1c-4.1,9.1-9.1,17.3-9.7,23.1c-0.4,3.9,5.6,7.1,7.2,7.2c1.5,0.1,8.9-8.8,15.7-23.9
	c6.8-15.1,8.3-24.4,7.6-28.2c-0.3-1.4-9.5-2.1-11.6-0.1C2828,2059.2,2827.4,2067.2,2822.9,2077.1z"/>
<g>
	<path fill="#9C9B9F" d="M2798.6,2006.2c0.2-0.4,0.7-0.5,1.1-0.3l43.3,25.2c0.4,0.2,0.6,0.8,0.3,1.3c-19,34.9-38.3,82.6-54,124.6
		c-16-5.4-35.9-14.5-53.4-29.4C2764.8,2063.6,2794.7,2012.7,2798.6,2006.2z"/>
</g>
<g>
	<g>
		<g>
			<path fill="#9C9B9F" d="M2704.7,2415.4c-6.3,23-10.6,39.7-11.5,43.1c-0.1,0.4-0.4,0.6-0.8,0.7c-24.2,1.9-54.3-19.8-57.9-22.5
				c-0.2-0.2-0.4-0.4-0.4-0.7c0.1-8.7,4.2-26.2,10.2-47.3C2665.5,2413.5,2679.8,2419.2,2704.7,2415.4z"/>
		</g>
	</g>
</g>
<path fill="#9C9B9F" d="M2749.1,2288.1c-25.1,74-42.7,135-39.3,136.3c3.4,1.3,26.6-57.7,51.7-131.7s42.7-135,39.3-136.3
	C2797.4,2155.1,2774.2,2214.1,2749.1,2288.1z"/>
<g>
	<path fill="#807F7F" d="M2756.9,2265.6c7.8-22.4,15.2-42.9,21.7-59.8c3.6,1.7,6.6,3.6,9.1,5.6c-5.2,17.3-11.6,37.7-19,59.8
		C2765.2,2270.6,2760.6,2269.3,2756.9,2265.6z"/>
</g>
<path fill="#9C9B9F" d="M2827.8,2079.3c-6.4,14.4-9.8,27-7.4,28.1c2.3,1.1,9.4-9.6,15.9-24c6.4-14.4,9.8-27,7.4-28.1
	C2841.3,2054.2,2834.2,2064.9,2827.8,2079.3z"/>
<path fill="#807F7F" d="M2829.4,2079.4c-5,11.1-7.9,20.7-6.5,21.4c1.4,0.7,6.7-7.7,11.7-18.8c5-11.1,7.9-20.7,6.5-21.4
	C2839.7,2059.9,2834.4,2068.3,2829.4,2079.4z"/>
<path fill="#525356" d="M2857.7,2008c0,0-28.3-13.6-47.9-30.2l-14,30.4c0,0,14.9,38,52,27.8L2857.7,2008z"/>
<path fill="#9C9B9F" d="M2860.1,2006.7c0,0-30.8-12.2-50.3-28.8l-14.1,32c0,0,21.5,35.9,54.5,24.8L2860.1,2006.7z"/>
<path fill="#575757" d="M2870.8,1844.1l-18.8-9.3c0,0-4.5,69-12,100.4c-2.3,9.6-7.5,18.1-14.8,22.8c-2.8,1.9-6.1,3.3-9.8,3.6
	c-1.6,0.1-2.9,1.6-3.3,3.5l-3.9,17.1c0,0,22.2,30.1,51.4,27.5l2-14.9c1-2.9,3.7-5.7,2.3-8.3c-3.2-6.1-12.7-20.3-8-37.2
	c1.1-4,2.3-7.6,2.9-11.8C2861.9,1917.5,2873.1,1869.2,2870.8,1844.1z"/>
<path fill="#9C9B9F" d="M2870.8,1841l-18.8-9.3c0,0-4.5,69-12,100.4c-2.3,9.6-7.5,18.1-14.8,22.8c-2.8,1.9-6.1,3.3-9.8,3.6
	c-1.6,0.1-2.9,1.6-3.3,3.5l-3.9,17.1c0,0,22.2,30.1,51.4,27.5l5-14.5c1-2.9,0.8-6.1-0.6-8.7c-3.2-6.1-8.1-19.1-3.5-35.9
	c1.1-4,1.9-8.1,2.5-12.3C2866.2,1915.2,2873.2,1866.2,2870.8,1841z"/>
<g>
	<path fill="#707171" d="M2808.2,1979.1l3.9-17.1c0.4-1.9,1.7-3.3,3.3-3.5c3.7-0.3,7-1.8,9.8-3.6c3.8-2.5,7-6,9.6-10.2
		c-0.9,3-1.9,6-3.1,8.7c-2.3,5.2-6.3,9.3-11.1,10.8c-3.3,1-7.8,5-9.5,18.4C2809.3,1980.6,2808.2,1979.1,2808.2,1979.1z"/>
</g>
<g>
	<g>
		<g>
			<path fill="#707171" d="M2797.3,2010.6c-1-1.4-1.5-2.3-1.5-2.3l12.5-29.1c0.8,0.7,2.1,2.9,2.9,3.6
				C2808.7,1992.1,2804.6,2004.3,2797.3,2010.6z"/>
		</g>
	</g>
</g>
<path fill="#BEBEBF" d="M2854.3,2003.4c-1.5,0.2-6.3,0.5-11.9-3.6c-0.7-0.5-0.8-1.9-0.1-2.5c2.3-2.1,6.6-7.2,7.9-16.5
	c0.1-0.8,0.8-1.4,1.4-1.3l4.9,1.1c0.5,0.1,0.9,0.6,1,1.2c0.5,3.5,1.9,15.4-2.6,21.1C2854.8,2003.2,2854.6,2003.4,2854.3,2003.4z"/>
<path fill="#BEBEBF" d="M2817.2,1983.6c0.5,1.2,2.4,4.7,7.4,6.1c0.7,0.2,1.5-0.6,1.7-1.5c0.4-2.9,1.9-9.1,7.3-15.7
	c0.5-0.6,0.6-1.4,0.2-1.8l-2.8-2.7c-0.3-0.3-0.8-0.3-1.2,0c-2.5,1.8-10.8,8.2-12.6,14.8C2817.1,1983,2817.1,1983.3,2817.2,1983.6z"
	/>
<path fill="#BEBEBF" d="M2848.7,2017.5l-3.4,11.6c-0.3,1.1-1,1.9-1.8,2.4c-2.4,1.3-7.5,3.4-12.2,0.2c-1.1-0.7-1.4-2.5-0.7-3.8
	l7.3-12.7c0.9-1.6,2.6-2,3.9-1.1c1.3,1,3.3,1.9,5.7,1.5C2848.3,2015.5,2848.9,2016.5,2848.7,2017.5z"/>
<path fill="#BEBEBF" d="M2812.6,1997.6l-4.9,10.6c-0.5,1-0.6,2.1-0.4,3c0.6,2.6,2.3,7.8,6.9,9c1.1,0.3,2.3-0.7,2.6-2.1l3.3-14.2
	c0.4-1.7-0.3-3.3-1.6-3.6c-1.4-0.3-3-1-4.2-3.1C2813.9,1996.4,2813,1996.7,2812.6,1997.6z"/>
<path fill="#707171" d="M2870.8,1841l-12.1-5.9c0,0,16.1,22,7.9,76.4C2866.6,1911.5,2876.5,1855.3,2870.8,1841z"/>
<path fill="#C6AB83" d="M2737.4,1914.4c0,0,15.2-20.4,35.4-9.9c8.5,4.4,14.3,13.1,16.2,22.8c3.1,15.5,3.9,45-14.5,92.1l-143.2,374
	c0,0-26.5,78.6-52.9,74.3c0,0-33.5-0.2-22.9-45.5l172.4-477.8L2737.4,1914.4z"/>
<g>
	<path fill="#B0946F" d="M2752.6,1903.1c5.7-2.1,12.5-2.5,20.2,1.4c8.5,4.4,14.3,13.1,16.2,22.8c1.6,8,2.6,19.7,0.6,35.5
		C2786.4,1939.5,2777.1,1912.6,2752.6,1903.1z"/>
</g>
<path fill="#987D56" d="M2759.9,1945.6c-24,45.3-90.8,185.9-186.2,500.1c-3.8,12.5-13.5,22.3-25.7,25.2c-13.2,3.2-31.5,3.4-51.6-9.1
	c0,0-47.9-24-39.5-80.3c0.9-5.7,2.5-11.3,4.3-16.8c17.4-51.1,132-386.5,173-461.1c0,0,35-68.6,98.1-41.6c0,0,0.9,0.3,2.4,1.1
	C2764.4,1877.5,2775.8,1915.7,2759.9,1945.6z"/>
<path fill="#B79B6C" d="M2759.6,1939.8c-24.9,46.9-94.3,192.1-193.4,516.7c-3.9,12.9-14,23-26.7,26.1c-13.7,3.3-32.7,3.5-53.6-9.4
	c0,0-49.8-24.8-41-83c0.9-5.9,2.5-11.7,4.5-17.4c18-52.8,137.1-399.4,179.7-476.4c0,0,36.4-70.8,101.9-43c0,0,0.9,0.4,2.5,1.1
	C2764.3,1869.4,2776.1,1908.8,2759.6,1939.8z"/>
<g>
	<path fill="#987D56" d="M2700.6,1847c9.3-0.1,19.4,1.8,30.4,6.4c0,0,0.9,0.4,2.5,1.1c26,12.5,38.3,42.4,31.8,70
		C2761.1,1904.5,2747.1,1866.6,2700.6,1847z"/>
</g>
<path fill="#D7BFA6" d="M2766,1970.7c0.7-1.2,2.5-0.2,2,1.1c-21.7,52.7-141.9,362.1-172.5,453c-0.2,0.7-1.2,0.4-1.1-0.3
	C2609.2,2364.7,2671.6,2126.7,2766,1970.7z"/>
<path fill="#C9AD87" d="M2699.7,1891.7c0,0-172.5,410.2-199.6,515.1c-3.5,13.6-17.1,21.6-29.9,17.4c-0.2-0.1-0.4-0.1-0.6-0.2
	c0,0-17.2-5.4-12.7-32.5c0,0,147.1-432.9,200-516.4c0,0,8.6-14,28.5-11.1c5.2,0.8,10.1,3.3,13.2,7.8
	C2701.5,1876,2703.5,1882.6,2699.7,1891.7z"/>
<path fill="#9D765B" d="M1669.7,1834.1c0,0,3.8,22.8-6.6,37.7c-8,11.4-24.5,8.1-28.4-5.6c-2-7.1-3.2-17.3-2.2-32.1
	c0,0,4.1-170.9,33.1-269.2c2.8-9.6,5.6-19.1,8.2-28.8c14.2-53.4,77.3-244.6,236.8-352.1c9.3-6.3,17.9-10.6,27-17.2
	c34.6-25,145.3-90.3,325-92.1c7.9-0.1,20.1-1.1,28-0.9c46.1,0.8,182.5-3.3,323,93.5c7,4.8,15.6,8.9,22.5,13.8
	c41.9,29.9,205.8,147.5,259.7,408.3c0,0,35.6,193,29.1,259.1c0,0,1.6,35.7-16.2,34c0,0-18.8,0.4-21.6-32.6
	c-1.4-16.1-4.4-32-7.9-47.8l-88.6-402.1l-53.4-82.2l-84.1-75.1l-66.3-50l-116.5-60.8l-122.9-32.2l-144,5.4l-114.8,28.6l-98.7,37.5
	l-89,53.6l-87.3,76.8l-67.9,126.9l-53.4,214.4l-29.1,125.1L1669.7,1834.1z"/>
<path fill="#8C8D8C" d="M2258.4,1122.7c0,0,19.3-8.4,42.4,2.3l-8.5-33.3c0,0-23.6,0.6-33.9-0.3c-10.3-0.9,0,0,0,0
	S2266.6,1114,2258.4,1122.7"/>
<path fill="#8C8D8C" d="M2522.1,1165.7c0,0-13.1-25.3-41.6-13.1l8.6-27.6c0,0,52.8,21.1,66.2,30.4
	C2572.1,1167,2522.1,1165.7,2522.1,1165.7z"/>
<path fill="#8C8D8C" d="M2030.6,1167.2c0,0,16.2-24.1,45-12.7l-6.7-31.7c0,0-53.5,23.3-68.4,29.5S2030.6,1167.2,2030.6,1167.2z"/>
<path fill="#8C8D8C" d="M2741,1308.4c0,0-69.4-8.1-62.7-71.7C2678.3,1236.7,2733.9,1292.2,2741,1308.4z"/>
<path fill="#8C8D8C" d="M1806.9,1308.4c0,0,69.4-8.1,62.7-71.7C1869.6,1236.7,1813.9,1292.2,1806.9,1308.4z"/>
<path fill="#A6A7A0" d="M2694.3,1257.3c-2.9,4.5-8.7,12.6-16.3,18.9c-6.7,5.4-15.6,6.1-23.1,2.1c-26.3-14.1-98-53.3-126.7-76.2
	c-6.5-5.2-10.4-13.4-10.6-22.3c-0.2-10.1-2.6-24.4,0.1-32.9c1.9-6.2,6.7-6.7,8.6-6.2c17.2,4.4,87.4,30.4,167.4,110.7
	C2695.2,1252.9,2695.5,1255.4,2694.3,1257.3z"/>
<path fill="#A6A7A0" d="M1852.9,1256c2.5,4.1,9,13.7,17.8,20.7c6.3,5,14.6,5.8,21.5,2c25.7-13.8,99.5-54.1,128.1-77.1
	c6.1-4.9,9.8-12.7,10-21c0.2-10.8,0.4-26.6-0.1-35.6c-0.1-1.2-1.1-2-2.1-1.7c-13.2,3.2-91.3,24.9-174.8,109.2
	C1852.4,1253.4,1852.2,1254.9,1852.9,1256z"/>
<path fill="#A6A7A0" d="M2282.5,1093c0,0,1.6,37.9,48.5,54.7c0,0,85.7,16.8,105.1,18.6c0,0,32.7,7.5,50.6-20.3
	c4.1-6.4,9.5-11.8,15.6-15.8l0.1-0.1C2502.5,1130.1,2386,1077,2282.5,1093z"/>
<path fill="#A6A7A0" d="M2270.8,1093c0,0-1.6,37.9-48.5,54.7c0,0-85.7,16.8-105.1,18.6c0,0-32.2,6.2-53.2-24.7
	c-1.5-2.3-3-4.6-5.2-6.1l-1-0.6c-2.9-1.9-2.5-6.7,0.7-8C2086,1115.5,2183,1079.4,2270.8,1093z"/>
<path fill="#91918F" d="M2892.7,1861.4l-46.2-39c-5.4-4.6-8.7-11.5-8.9-19c-1.3-35.3-7.3-144.2-35.3-238.4
	c0,0-28.9-111.6-68.9-161.6c-6.9-8.6-13.1-17.8-17.7-28.1c-8-17.7-16.2-43.9-7.9-63.8c3.6-8.5,11.6-13.9,20-12.4
	c5.7,1,13.2,4.4,22.6,12.2c0,0,79.2,85.8,121.6,247c0.9,3.6,1.7,7.2,2.5,10.8c6.6,32.7,39.3,162.9,25.8,288.9
	C2899.9,1861.9,2895.6,1863.8,2892.7,1861.4z"/>
<g>
	<path fill="#91918F" d="M2725.8,1298.9c-7.6-0.4-14.7,4.7-17.9,12.5c-8.3,20-0.1,46.1,7.9,63.8c4.6,10.3,10.8,19.5,17.7,28.1
		c40,50,68.9,161.6,68.9,161.6c28,94.3,34,203.1,35.3,238.4c0.3,7.5,3.5,14.4,8.9,19l37.6,31.7
		C2908.2,1542.5,2773.5,1354.9,2725.8,1298.9z"/>
	<path fill="#7D7D7D" d="M2874.6,1569c-0.7-3.6-1.5-7.2-2.5-10.8c-42.4-161.2-121.6-247-121.6-247c-9.4-7.8-16.9-11.1-22.6-12.2
		c-0.7-0.1-1.4-0.1-2.1-0.2c47.8,56,182.4,243.7,158.3,555.2l8.6,7.3c2.9,2.5,7.2,0.5,7.7-3.5
		C2913.8,1731.9,2881.2,1601.7,2874.6,1569z"/>
</g>
<path fill="#A6A7A0" d="M2910.2,1844.9c0.6,5,1.1,12.8-0.7,18.2c-1.5,4.6-6.5,6.4-10.2,3.7l-58.8-42.5c-2.1-1.5-3.7-3.8-4.6-6.4
	c-1.8-5.6-4-15.2,1.2-17.9c0.2-0.1,0.5-0.1,0.7,0l67.9,37.9C2908.2,1839.3,2909.8,1841.9,2910.2,1844.9z"/>
<path fill="#91918F" d="M1664.6,1858.6l46.2-39c5.4-4.6,8.7-11.5,8.9-19c1.3-35.3,7.3-144.2,35.3-238.4c0,0,28.9-111.6,68.9-161.6
	c6.9-8.6,13.1-17.8,17.7-28.1c8-17.7,16.2-43.9,7.9-63.8c-3.6-8.5-11.6-13.9-20-12.4c-5.7,1-13.2,4.4-22.6,12.2
	c0,0-79.2,85.8-121.6,247c-0.9,3.6-1.7,7.2-2.5,10.8c-6.6,32.7-39.3,162.9-25.8,288.9C1657.4,1859.1,1661.7,1861,1664.6,1858.6z"/>
<path fill="#91918F" d="M1657.2,1891"/>
<g>
	<path fill="#91918F" d="M1830.9,1294.7c7.6-0.4,14.7,4.7,17.9,12.5c8.3,20,0.1,46.1-7.9,63.8c-4.6,10.3-10.8,19.5-17.7,28.1
		c-40,50-68.9,161.6-68.9,161.6c-28,94.3-34,203.1-35.3,238.4c-0.3,7.5-3.5,14.4-8.9,19l-37.6,31.7
		C1648.5,1538.4,1783.2,1350.7,1830.9,1294.7z"/>
	<path fill="#7D7D7D" d="M1682.1,1564.8c0.7-3.6,1.5-7.2,2.5-10.8c42.4-161.2,121.6-247,121.6-247c9.4-7.8,16.9-11.1,22.6-12.2
		c0.7-0.1,1.4-0.1,2.1-0.2c-47.8,56-182.4,243.7-158.3,555.2l-8.6,7.3c-2.9,2.5-7.2,0.5-7.7-3.5
		C1642.8,1727.7,1675.5,1597.5,1682.1,1564.8z"/>
</g>
<g>
	<path fill="#9D9E9E" d="M1850.4,1311.8c5.5,19.2-2.1,42.8-9.4,59.2c-4.6,10.3-10.8,19.5-17.7,28.1c-40,50-68.9,161.6-68.9,161.6
		c-20.5,69.2-29.2,146.1-32.9,196.2C1683.3,1555.8,1820.5,1353,1850.4,1311.8z"/>
</g>
<g>
	<path fill="#B6B6B1" d="M1871,1276.9c6.3,4.8,14.4,5.5,21.2,1.8c25.7-13.8,99.5-54.1,128.1-77.1c6.1-4.9,9.8-12.7,10-21
		c0-1.6,0.1-3.3,0.1-5.1C1987.2,1191.5,1901,1228.2,1871,1276.9z"/>
</g>
<g>
	<path fill="#B6B6B1" d="M2676.1,1277.1c-6.3,4.8-14.6,5.3-21.5,1.6c-25.7-13.8-101.2-52.2-128.1-77.1c-4.9-4.5-8.9-12.8-9-21.1
		c0-1.6,0-2.8,0-4.6C2560.7,1191.9,2646.2,1228.4,2676.1,1277.1z"/>
</g>
<g>
	<path fill="#B6B6B1" d="M2078.8,1156.9c18.6,13.2,38.3,9.4,38.3,9.4c19.4-1.8,105.1-18.6,105.1-18.6c14.2-5.1,24.1-12.1,31.3-19.4
		C2156.3,1127.7,2102.8,1145.6,2078.8,1156.9z"/>
</g>
<g>
	<path fill="#B6B6B1" d="M2476.4,1157.5c-18.6,14-39.2,8.8-39.2,8.8c-19.4-1.8-105.1-18.6-105.1-18.6c-14.2-5.1-24.1-12.1-31.3-19.4
		C2397.9,1127.7,2452.4,1146.2,2476.4,1157.5z"/>
</g>
<g>
	<path fill="#7C7C7B" d="M2694.3,1257.3c1.2-1.8,0.9-4.3-0.6-5.8c-80-80.3-150.3-106.2-167.4-110.7c-2-0.5-6.7,0-8.6,6.2
		c-0.1,0.3-0.1,0.6-0.2,0.9c28.7,13.6,113.3,56.1,174.5,112.8C2692.9,1259.4,2693.7,1258.2,2694.3,1257.3z"/>
</g>
<g>
	<path fill="#7C7C7B" d="M1852.5,1256.8c-1.2-1.9-0.9-5,0.6-6.6c81.4-82.9,150.8-107.6,168.3-112.2c2-0.5,6.8,0,8.8,6.4
		c0.1,0.3,0.1,0.6,0.2,0.9c-29.2,14-112.6,56.1-174.9,114.6C1854.5,1258.6,1853.1,1257.7,1852.5,1256.8z"/>
</g>
<g>
	<path fill="#7C7C7B" d="M2270.1,1097.7c0.6-2.9,0.7-5.8,0.7-5.8c-87.7-13.6-184.8,23.6-212.3,35c-3.2,1.3-3.5,6-0.7,8l1,0.6
		c0.1,0.1,0.1,0.1,0.2,0.2C2085,1123.1,2162.1,1091.7,2270.1,1097.7z"/>
</g>
<g>
	<path fill="#7C7C7B" d="M2283.2,1097.8c-0.6-2.9-1.4-5.9-1.4-5.9c90.4-13.9,189.3,24.1,217.7,35.6c3.3,1.3,3.6,6.1,0.7,8.1l-1,0.7
		c-0.1,0.1-0.1,0.1-0.2,0.2C2472.1,1123.7,2394.4,1091.6,2283.2,1097.8z"/>
</g>
<g>
	<path fill="#9D9E9E" d="M2706.3,1316c-5.5,19.2,2.1,42.8,9.4,59.2c4.6,10.3,10.8,19.5,17.7,28.1c40,50,68.9,161.6,68.9,161.6
		c20.5,69.2,29.2,146.1,32.9,196.2C2873.4,1560,2736.2,1357.2,2706.3,1316z"/>
</g>
<path fill="#A6A7A0" d="M1647.1,1842.1c-0.6,5-1.1,12.8,0.7,18.2c1.5,4.6,6.5,6.4,10.2,3.7l58.8-42.5c2.1-1.5,3.7-3.8,4.6-6.4
	c1.8-5.6,4-15.2-1.2-17.9c-0.2-0.1-0.5-0.1-0.7,0l-67.9,37.9C1649.1,1836.5,1647.5,1839.1,1647.1,1842.1z"/>
<path fill="#AAAAAA" d="M2642.2,2751.2l129.9-17.3c2.3-0.3,4.2-0.7,4-3.1l-4.4-50.8c-0.2-2.5-1.4-3.1-3.8-2.7l-131.7,17.1
	c-2.3,0.3-4,2.5-3.7,4.9l5,47.9C2637.7,2749.7,2639.9,2751.5,2642.2,2751.2z"/>
<g>
	<g>
		<path fill="#99999A" d="M2636.5,2737.9l1,9.3c0.3,2.5,2.4,4.2,4.8,4l129.9-17.3c4-0.4,4-3,3.8-5.4l-0.6-7.3L2636.5,2737.9z"/>
	</g>
</g>
<polygon fill="#BFBEBE" points="2774.8,2716 2636.1,2734.3 2636.5,2738.2 2774.9,2719.1 "/>
<g>
	<path fill="#D7D5D4" d="M2767.8,2677.3l-131.7,17.1c-1.9,0.3-3.3,1.8-3.6,3.7l139.1-18.1
		C2770.9,2678.3,2769.8,2677.1,2767.8,2677.3z"/>
</g>
<ellipse fill="#818282" cx="2664" cy="2716" rx="9.7" ry="10.1"/>
<ellipse fill="#818282" cx="2743.8" cy="2705.9" rx="9.7" ry="10.1"/>
<ellipse fill="#818282" cx="2704.2" cy="2711.5" rx="8.4" ry="8.8"/>
<ellipse fill="#AEAEAF" cx="2664" cy="2716" rx="9" ry="9.4"/>
<ellipse fill="#AEAEAF" cx="2743.8" cy="2705.9" rx="9" ry="9.4"/>
<ellipse fill="#AEAEAF" cx="2704.2" cy="2711.5" rx="7.9" ry="8.2"/>
<path fill="#DBDDDC" d="M2666.5,2707c0,0-9.8-0.1-11.3,11.1c-0.1,0.4-1.7-4.4,2.2-8.7C2661.2,2705.3,2666.5,2707,2666.5,2707"/>
<path fill="#DBDDDC" d="M2746.4,2696.9c0,0-9.8-0.1-11.3,11.1c-0.1,0.4-1.7-4.4,2.2-8.7C2741.1,2695.1,2746.4,2696.9,2746.4,2696.9"
	/>
<path fill="#DBDDDC" d="M2705.6,2703.4c1.3-0.1-7.9,0.3-9.3,8.9c-0.1,0.3-0.8-3.4,2.2-6.7
	C2701.4,2702.5,2705.6,2703.4,2705.6,2703.4"/>
<path fill="#A0A09F" d="M2741.3,2715c0,0,9.8,0.1,11.3-11.1c0.1-0.4,1.7,4.4-2.2,8.7C2746.6,2716.7,2741.3,2715,2741.3,2715"/>
<path fill="#A0A09F" d="M2661.3,2725.1c0,0,9.8,0.1,11.3-11.1c0.1-0.4,1.7,4.4-2.2,8.7C2666.7,2726.8,2661.3,2725.1,2661.3,2725.1"
	/>
<path fill="#A0A09F" d="M2702.7,2719.5c-1.3,0.1,7.9-0.3,9.3-8.9c0.1-0.3,0.8,3.4-2.2,6.7
	C2706.9,2720.5,2702.7,2719.5,2702.7,2719.5"/>
<path fill="#AFB1B1" d="M3205.3,1867.2l16.9-4.6l-7-32.2c-0.2-0.9-0.4-1.8-1.3-1.6l-16,3.7c-1.2,0.3-0.7,1.8-0.6,2.3L3205.3,1867.2z
	"/>
<path fill="#AFB1B1" d="M3199.9,1836.5l13.4-3.7l-6.2-24.3c0,0-0.1-0.3-0.4-0.8c-3.1-5.5-11.8-4.2-12.5,2.2c-0.1,0.5-0.1,1.1,0,1.6
	L3199.9,1836.5z"/>
<polygon fill="#D3D3D3" points="3211.2,1862.6 3209.2,1863.1 3201.6,1831.7 3203.5,1831.2 "/>
<g>
	<path fill="#9E9F9F" d="M3207.2,1808.5c0,0-0.1-0.3-0.4-0.8c-0.6-1-1.4-1.8-2.3-2.3l6,23l1.7-0.4L3207.2,1808.5z"/>
</g>
<polygon fill="#8D8D8D" points="3206.4,1863.8 3204.4,1864.3 3197.3,1834.3 3197.3,1833.3 3198,1832.6 3198.7,1832.4 "/>
<polygon fill="#A0A09F" points="3221.8,1860.3 3219.9,1860.8 3212.8,1829.2 3214,1828.8 3214.9,1829.2 3215.5,1832 "/>
<polygon fill="#8D8D8D" points="3212.4,1829.4 3199.1,1832.4 3198.8,1831 3212.1,1828 "/>
<g>
	<g>
		<g>
			<path fill="#929392" d="M3194.2,1809.8c-0.1,0.5-0.1,1.1,0,1.6l4.9,20.9l1.8-0.4l-6-24.3
				C3194.5,1808.3,3194.3,1809,3194.2,1809.8z"/>
		</g>
	</g>
</g>
<path fill="#C8C8C8" d="M3195.7,1806.4c0,0,0.4-0.7,1.5-1.2l6,24.9l-1.6,0.4l-5.9-23.6"/>
<polygon fill="#949595" points="3261.3,1993 3236,1999.8 3223.2,1947.7 3248.5,1940.9 "/>
<polygon fill="#9D9E9E" points="3231.9,1855.6 3256,1951.7 3220.5,1961.3 3196.5,1865.2 "/>
<polygon fill="#AFB1B1" points="3221.4,1858.4 3245.5,1954.5 3233.3,1957.9 3209.2,1861.8 "/>
<polygon fill="#C2C8C8" points="3209.2,1861.8 3233.3,1957.9 3229.9,1958.8 3206.2,1862.6 "/>
<polygon opacity="0.28" fill="#3A3A39" points="3252.7,1938.3 3253.3,1940.9 3217.9,1950.6 3217.2,1948 "/>
<polygon opacity="0.28" fill="#3A3A39" points="3248.7,1922.4 3249.3,1925 3213.9,1934.6 3213.2,1932 "/>
<polygon opacity="0.28" fill="#3A3A39" points="3244.8,1906.8 3245.4,1909.4 3210,1919.1 3209.3,1916.5 "/>
<polygon opacity="0.28" fill="#3A3A39" points="3240.8,1890.9 3241.4,1893.5 3206,1903.1 3205.3,1900.5 "/>
<polygon opacity="0.28" fill="#3A3A39" points="3236.7,1874.5 3237.3,1877.1 3201.9,1886.8 3201.2,1884.2 "/>
<polygon opacity="0.28" fill="#3A3A39" points="3232.8,1859 3233.4,1861.6 3198,1871.2 3197.3,1868.6 "/>
<polygon fill="#808383" points="3261.2,1993 3255.4,1994.6 3245.4,1954.8 3251.2,1953.2 "/>
<polygon fill="#808383" points="3239.9,1998 3236.9,1998.8 3226.9,1959.1 3230,1958.2 "/>
<polygon fill="#A8A8A8" points="3243.8,1998 3240.8,1998.8 3230.8,1959.1 3233.9,1958.2 "/>
<polygon fill="#7D7D7D" points="3250.8,1956.7 3227.7,1963 3226.9,1959.6 3250,1953.3 "/>
<polygon fill="#6B6B6B" points="3255.9,1951.7 3220.5,1961.4 3220.2,1960.3 3255.6,1950.6 "/>
</svg>
