<?xml version="1.0" encoding="utf-8"?>
<!-- Generator: Adobe Illustrator 17.1.0, SVG Export Plug-In . SVG Version: 6.00 Build 0)  -->
<!DOCTYPE svg PUBLIC "-//W3C//DTD SVG 1.1//EN" "http://www.w3.org/Graphics/SVG/1.1/DTD/svg11.dtd">
<svg version="1.1" id="Layer_2" xmlns="http://www.w3.org/2000/svg" xmlns:xlink="http://www.w3.org/1999/xlink" x="0px" y="0px"
	 viewBox="0 0 5000 5000" enable-background="new 0 0 5000 5000" xml:space="preserve">
<g>
	<line opacity="0.62" fill="#0E0E1C" x1="2234.7" y1="1494.3" x2="2234.7" y2="1720.4"/>
</g>
<g>
	<line opacity="0.62" fill="#0E0E1C" x1="2774.2" y1="1625.1" x2="2774.2" y2="1841.7"/>
</g>
<path fill="none" stroke="#EFF0EC" stroke-width="18" stroke-miterlimit="10" d="M2662.8,3148.4c0,0,123.8,395.3-140.3,560.3
	c-119,74.4-268.8,77.2-390.4,7.4c-62.3-35.7-122.7-92.9-150.1-184.2c-52.5-174.7,63.8-359.3,238.8-373.2c3.5-0.3,7-0.5,10.5-0.6
	c104.2-3.9,193.5,77.2,209.2,184.7c10.5,72.1,35.2,186.9,91.6,275.7c79,124.5,266.1,84.1,288.2-63.4c4-26.6,5.2-57,2.6-91.7"/>
<polygon fill="#EFF0EC" points="2201.1,2573.4 2184.9,2586.4 2157.6,2549.4 2173.7,2536.4 "/>
<path fill="#EFF0EC" d="M2298.3,2776.7l-22.9,11.8c-3.8,1.9-8.2,0.7-9.9-2.8l-91.6-193.5c-1.7-3.5,0-8,3.8-9.9l22.9-11.8
	c3.8-1.9,8.2-0.7,9.9,2.8l91.6,193.5C2303.8,2770.3,2302.1,2774.8,2298.3,2776.7z"/>
<polygon fill="#EFF0EC" points="2308.9,2812.3 2289.7,2819.6 2276.7,2782.1 2295.9,2774.9 "/>
<polygon fill="#E9E9E9" points="2680.9,3110.3 2631.8,3123.6 2619.3,3073.4 2668.5,3060.1 "/>
<polygon fill="#E9E9E9" points="2681.5,3129.4 2640.1,3140.6 2631.1,3104.5 2672.6,3093.3 "/>
<polygon fill="#E9E9E9" points="2678.6,3144.2 2649.5,3152 2643,3125.9 2672.2,3118 "/>
<path fill="none" stroke="#E9E9E9" stroke-width="18" stroke-miterlimit="10" d="M2754,1862.4c0,0,18.9,25.8,81.9,52.7
	c117.9,50.3,117.3,236,25.3,327.8c-40.6,40.5-99.7,65.1-185.1,41.4c-42.2-11.7-64-61.1-44.6-101.9c0.4-0.8,0.7-1.5,1.1-2.3
	c33.6-67.8,125.8-71.9,166.7-8.7c29.7,45.8,50.9,122.3-23.8,221.8c-6.6,8.7-13.7,17-21,25.1c-36.4,40.4-197.2,237-24.7,384.3
	c0,0,60.9,55.3-26.6,193.1c-19.6,30.8-36.6,63.3-50,97.6l-0.2,0.6l-0.7-0.6c-26.5-24.4-58.5-41.2-92.8-50.4
	c-194.6-52-251.9-187.7-282.4-282.3c-26.7-82.7-69.5-158.4-125.8-232.5l-182.1-189.4c-70.9-73.7,28.8-187.9,105.8-121.1
	c23.2,20.1,42.3,45.3,57.8,70.7c51.5,84.6,25.6,199.1-59,246.5c-31.4,17.6-61.7,20.8-89.3,16.1c-95.9-16.6-144.7-112.7-111.6-208
	c25.7-74.1,71.6-126.4,107.9-158.7c24.9-22,54.3-37.2,85.3-47.8c201.9-68.9,162.5-405.2,162.5-405.2"/>
<polygon fill="#E9E9E9" points="2675.8,3149.1 2654.3,3154.9 2649.8,3137 2671.3,3131.2 "/>
<rect x="2809.8" y="3426.1" fill="#D9DBDA" width="25.7" height="63.7"/>
<path fill="#B9BBC2" d="M2822.8,3228.3c4.8,0,8.7,4.2,8.7,9.3v42.4c0,5.1-3.9,9.3-8.7,9.3l0,0c-4.8,0-8.7-4.2-8.7-9.3v-42.4
	C2814.1,3232.4,2818,3228.3,2822.8,3228.3L2822.8,3228.3z"/>
<path fill="#B9BBC2" d="M2823,3251.1c6.7,0,12.1,5.3,12.1,11.9v60.3c0,6.6-5.4,11.9-12.1,11.9l0,0c-6.7,0-12.1-5.3-12.1-11.9V3263
	C2810.9,3256.4,2816.3,3251.1,2823,3251.1L2823,3251.1z"/>
<rect x="2801.8" y="3296.3" fill="#E9E9E9" width="40.4" height="129.8"/>
<path fill="#B9BBC2" d="M2823,3212.4c3.2,0,5.8,4,5.8,8.9v40.5c0,4.9-2.6,8.9-5.8,8.9l0,0c-3.2,0-5.8-4-5.8-8.9v-40.5
	C2817.2,3216.3,2819.8,3212.4,2823,3212.4L2823,3212.4z"/>
<g>
	<rect x="2220.2" y="1710" fill="#E9E9E9" width="17.9" height="37.3"/>
	<rect x="2207.3" y="1494.3" fill="#E9E9E9" width="43.8" height="226.1"/>
	
		<line opacity="0.62" fill="none" stroke="#BFBDBD" stroke-width="2" stroke-miterlimit="10" x1="2238.1" y1="1494.3" x2="2238.1" y2="1720.4"/>
	<g>
		<path fill="#EFF0EE" stroke="#E9E9E9" stroke-miterlimit="10" d="M2266.3,1462.2c0,0,13.4-87.8-70.6-89.2
			c-6.3-0.1-12.6,1-18.8,2.6c-21.3,5.5-37,12.1-64.1,46.4c-6.1,7.7-3.9,5.8-3.9,9.1c0,14.4-8.3,23.3,1.6,44c0,0,1.2,6.9,2.1,8.6
			c3.7,7.1,28.2,36.6,88,36.6C2200.6,1520.3,2256.3,1521.2,2266.3,1462.2z"/>
		<path fill="#595959" d="M2225.5,1446.6c0,5.2,4,9.3,9,9.3h19.9c4.9,0,9-4.2,9-9.3l0,0c0-5.2-4-9.3-9-9.3h-19.9
			C2229.5,1437.3,2225.5,1441.5,2225.5,1446.6L2225.5,1446.6z"/>
		<path fill="#595959" d="M2103.1,1456c0,20.6,8.1,34.5,11.1,33.1c4.4-2.2,7.8-14.9,6.8-32.6c-1-17.7-8.2-26.7-11.4-30.4
			C2106.6,1422.4,2103.1,1430.4,2103.1,1456z"/>
		<path fill="#3F3F3F" d="M2112.1,1456c1.2,14.6-0.8,34.1,1.6,34.4c4.6,0.5,8.2-19.9,7.3-35.2c-0.8-14.7-9.5-31.9-13.8-31.4
			C2104.8,1424.2,2111,1441.4,2112.1,1456z"/>
	</g>
</g>
<g>
	<rect x="2748.8" y="1832.9" fill="#E9E9E9" width="17.9" height="37.3"/>
	<rect x="2735.8" y="1617.1" fill="#E9E9E9" width="43.8" height="226.1"/>
	
		<line opacity="0.62" fill="none" stroke="#BFBDBD" stroke-width="2" stroke-miterlimit="10" x1="2766.7" y1="1617.1" x2="2766.7" y2="1843.2"/>
	<g>
		<path fill="#EFF0EE" stroke="#E9E9E9" stroke-miterlimit="10" d="M2794.8,1585.1c0,0,13.4-87.8-70.6-89.2
			c-6.3-0.1-12.6,1-18.8,2.6c-21.3,5.5-37,12.1-64.1,46.4c-6.1,7.7-3.9,5.8-3.9,9.1c0,14.4-8.3,23.3,1.6,44c0,0,1.2,6.9,2.1,8.6
			c3.7,7.1,28.2,36.6,88,36.6C2729.2,1643.1,2784.8,1644,2794.8,1585.1z"/>
		<path fill="#595959" d="M2754,1569.5c0,5.2,4,9.3,9,9.3h19.9c4.9,0,9-4.2,9-9.3l0,0c0-5.2-4-9.3-9-9.3H2763
			C2758,1560.2,2754,1564.3,2754,1569.5L2754,1569.5z"/>
		<path fill="#595959" d="M2631.7,1578.8c0,20.6,8.1,34.5,11.1,33.1c4.4-2.2,7.8-14.9,6.8-32.6s-8.2-26.7-11.4-30.4
			C2635.2,1545.3,2631.7,1553.2,2631.7,1578.8z"/>
		<path fill="#3F3F3F" d="M2640.7,1578.9c1.2,14.6-0.8,34.1,1.6,34.4c4.6,0.5,8.2-19.9,7.3-35.2c-0.8-14.7-9.5-31.9-13.8-31.4
			C2633.4,1547.1,2639.5,1564.3,2640.7,1578.9z"/>
	</g>
</g>
</svg>
