<?xml version="1.0" encoding="utf-8"?>
<!-- Generator: Adobe Illustrator 17.1.0, SVG Export Plug-In . SVG Version: 6.00 Build 0)  -->
<!DOCTYPE svg PUBLIC "-//W3C//DTD SVG 1.1//EN" "http://www.w3.org/Graphics/SVG/1.1/DTD/svg11.dtd">
<svg version="1.1" id="Layer_3" xmlns="http://www.w3.org/2000/svg" xmlns:xlink="http://www.w3.org/1999/xlink" x="0px" y="0px"
	 viewBox="0 0 5000 5000" enable-background="new 0 0 5000 5000" xml:space="preserve">
<path fill="#2B1A19" d="M1961.3,3767.6l-0.3-0.1c-7.3-2.3-11.5-10.8-9.5-19l17.8-71.5c2-8.2,9.6-13,16.8-10.7l0.3,0.1
	c7.3,2.3,11.5,10.8,9.5,19l-17.8,71.5C1976.1,3765.1,1968.5,3769.9,1961.3,3767.6z"/>
<path fill="none" stroke="#2B1A19" stroke-width="20" stroke-miterlimit="10" d="M3593.6,2929.6c-249.4-58.9-303.1-75.2-429.8-45.4
	c-119.4,28.1-213.9,131.2-247,264.2c-141.3,567.8-852.6,567.6-852.6,567.6c-76.2,4.6-133.1-7.2-175.6-27.9
	c-138.6-67.8-146.7-290.6-12.2-368.2c38.9-22.4,75.6-21.7,106-12.4c58.2,17.8,90.2,88.7,70.9,153.5
	c-48.7,163.6-248.2,177.3-300.2,178.1c-9.4,0.1-227.4-1-240.7-238.3c-6.3-113.2,71.3-210.4,169.7-231.3
	c126.9-27,301.6-101,299.4-293.9"/>
<rect x="1944.8" y="2811.3" transform="matrix(0.9954 -9.625614e-002 9.625614e-002 0.9954 -264.7614 203.1203)" fill="#2D1D1A" width="56.3" height="68.9"/>
<path fill="#2B1A19" d="M1770.8,3396.7l33.3,29.7c6.6,3.5,9.9-0.5,11.5-3.1l61.4-85.9c1.6-2.6,1.3-6.2,0.3-7l-34.3-31.7
	c-4.6-1.3-7.2,0.6-8.8,3.2l-64.2,86.6C1768.3,3391.1,1768.7,3394.8,1770.8,3396.7z"/>
<polygon fill="#442B2A" points="1853.2,3305.3 1780.6,3401.6 1791.3,3411.6 1866.4,3315.3 "/>
<circle fill="#C19F5B" cx="1843.3" cy="3334" r="6.8"/>
<circle fill="#C19F5B" cx="1806.2" cy="3379.8" r="6.8"/>
<circle fill="#D8C29E" cx="1843.3" cy="3334" r="3.4"/>
<circle fill="#D8C29E" cx="1806.2" cy="3379.8" r="3.4"/>
<path fill="#2B1A19" d="M1994.4,3770.7l-0.3-0.1c-7.4-1.7-12.2-9.8-10.7-18.1l13-72.8c1.5-8.3,8.7-13.7,16.1-12l0.3,0.1
	c7.4,1.7,12.2,9.8,10.7,18.1l-13,72.8C2009,3766.9,2001.8,3772.3,1994.4,3770.7z"/>
<path fill="#2B1A19" d="M2028.7,3771.2l-0.3,0c-7.5-1.1-12.8-8.8-11.8-17.2l8.6-73.6c1-8.4,7.8-14.4,15.3-13.3l0.3,0
	c7.5,1.1,12.8,8.8,11.8,17.2l-8.6,73.6C2043.1,3766.4,2036.2,3772.3,2028.7,3771.2z"/>
<path fill="#2B1A19" d="M2061.1,3771.6l-0.3,0c-7.5-0.3-13.4-7.5-13.1-16l2.5-74.2c0.3-8.5,6.6-15.1,14.2-14.8l0.3,0
	c7.5,0.3,13.4,7.5,13.1,16l-2.5,74.2C2075,3765.3,2068.6,3772,2061.1,3771.6z"/>
<path fill="#2B1A19" d="M2091.2,3766.4l-0.3,0c-7.5-0.3-13.4-7.5-13.1-16l2.6-74.2c0.3-8.5,6.7-15.1,14.2-14.8l0.3,0
	c7.5,0.3,13.4,7.5,13.1,16l-2.6,74.2C2105.1,3760.2,2098.8,3766.8,2091.2,3766.4z"/>
<path fill="#2B1A19" d="M2124,3760.8l-0.3,0c-7.5,0.3-13.9-6.4-14.1-14.8l-2.3-74.2c-0.3-8.5,5.7-15.6,13.2-15.9l0.3,0
	c7.5-0.3,13.9,6.4,14.1,14.8l2.3,74.2C2137.5,3753.4,2131.6,3760.5,2124,3760.8z"/>
<path fill="#2B1A19" d="M2157.6,3760.4l-0.3,0c-7.5,0.9-14.2-5.3-15-13.7l-6.8-73.9c-0.8-8.5,4.7-16,12.2-16.9l0.3,0
	c7.5-0.9,14.2,5.3,15,13.7l6.8,73.9C2170.6,3752,2165.1,3759.5,2157.6,3760.4z"/>
<path fill="#2B1A19" d="M2191.3,3751.7l-0.3,0.1c-7.4,1.6-14.6-3.8-16.1-12.1l-12.7-72.9c-1.5-8.3,3.4-16.4,10.8-18.1l0.3-0.1
	c7.4-1.6,14.6,3.8,16.1,12.1l12.7,72.9C2203.5,3742,2198.7,3750.1,2191.3,3751.7z"/>
<path fill="#2B1A19" d="M2214.7,3746.7l-0.3,0c-7.5,1-14.3-5.1-15.1-13.6l-7.4-73.8c-0.8-8.4,4.5-16.1,12.1-17l0.3,0
	c7.5-1,14.3,5.1,15.1,13.6l7.4,73.8C2227.6,3738.1,2222.2,3745.7,2214.7,3746.7z"/>
<path fill="#2B1A19" d="M2249.5,3744.5l-0.3,0.1c-7.4,1.6-14.6-3.9-16-12.3l-12.2-73c-1.4-8.3,3.5-16.4,10.9-18l0.3-0.1
	c7.4-1.6,14.6,3.9,16,12.3l12.2,73C2261.8,3734.9,2257,3743,2249.5,3744.5z"/>
<path fill="#2B1A19" d="M2281.6,3732.4l-0.3,0.1c-7.3,2.1-14.8-2.8-16.7-11l-16.7-71.9c-1.9-8.2,2.5-16.6,9.8-18.8l0.3-0.1
	c7.3-2.1,14.8,2.8,16.7,11l16.7,71.9C2293.3,3721.9,2288.9,3730.3,2281.6,3732.4z"/>
<path fill="#2B1A19" d="M2313.3,3722.7l-0.3,0.1c-7.1,2.9-14.9-1.3-17.5-9.2l-22.4-69.9c-2.6-8,1.1-16.8,8.2-19.7l0.3-0.1
	c7.1-2.9,14.9,1.3,17.5,9.2l22.4,69.9C2324.1,3711,2320.4,3719.8,2313.3,3722.7z"/>
<path fill="#3A2626" d="M1971.6,3746.3L1971.6,3746.3c-2.7-0.9-4.1-3.9-3.4-6.8l12.4-48.1c0.7-2.9,3.4-4.6,6-3.7l0.1,0
	c2.6,0.8,4,3.9,3.3,6.7l-12.4,48.1C1976.9,3745.4,1974.2,3747.1,1971.6,3746.3z"/>
<path fill="#3A2626" d="M2001.6,3749.2L2001.6,3749.2c-2.7-0.5-4.5-3.4-4-6.3l7.7-49.3c0.5-3,3-4.9,5.6-4.4l0.1,0
	c2.6,0.5,4.4,3.3,3.9,6.3l-7.7,49.3C2006.8,3747.7,2004.3,3749.7,2001.6,3749.2z"/>
<path fill="#3A2626" d="M2032.7,3749.4L2032.7,3749.4c-2.7-0.4-4.6-3.2-4.2-6.1l6-49.6c0.4-3,2.8-5.1,5.4-4.7l0.1,0
	c2.6,0.4,4.5,3.1,4.1,6.1l-6,49.6C2037.8,3747.7,2035.3,3749.8,2032.7,3749.4z"/>
<path fill="#3A2626" d="M2064.9,3747.4L2064.9,3747.4c-2.8-0.2-4.8-2.8-4.6-5.8l3-49.9c0.2-3,2.5-5.3,5.2-5.1l0.1,0
	c2.7,0.2,4.7,2.8,4.5,5.8l-3,49.9C2069.9,3745.3,2067.6,3747.6,2064.9,3747.4z"/>
<path fill="#3A2626" d="M2091.2,3747.4L2091.2,3747.4c-2.8-0.2-4.8-2.8-4.6-5.8l2.8-50c0.2-3,2.5-5.3,5.1-5.1l0.1,0
	c2.7,0.2,4.7,2.8,4.5,5.8l-2.8,50C2096.2,3745.3,2093.9,3747.6,2091.2,3747.4z"/>
<path fill="#3A2626" d="M2123.1,3738.8L2123.1,3738.8c-2.8,0.1-5-2.3-5.1-5.3l-1.2-50c-0.1-3,2-5.5,4.7-5.6l0.1,0
	c2.7-0.1,4.9,2.3,5,5.3l1.2,50C2127.9,3736.2,2125.7,3738.7,2123.1,3738.8z"/>
<path fill="#3A2626" d="M2155.6,3738.5L2155.6,3738.5c-2.8,0.3-5.1-1.8-5.4-4.8l-4.8-49.8c-0.3-3,1.6-5.7,4.3-6l0.1,0
	c2.7-0.3,5,1.8,5.3,4.8l4.8,49.8C2160.2,3735.5,2158.3,3738.1,2155.6,3738.5z"/>
<path fill="#3A2626" d="M2185.7,3727.5L2185.7,3727.5c-2.7,0.4-5.2-1.7-5.5-4.7l-5.8-49.6c-0.3-3,1.5-5.7,4.2-6.1l0.1,0
	c2.7-0.4,5.1,1.7,5.4,4.7l5.8,49.6C2190.2,3724.4,2188.3,3727.2,2185.7,3727.5z"/>
<path fill="#3A2626" d="M2212.4,3724.8L2212.4,3724.8c-2.8,0.4-5.2-1.8-5.5-4.8l-5.1-49.7c-0.3-3,1.6-5.7,4.3-6l0.1,0
	c2.7-0.3,5.1,1.8,5.4,4.8l5.1,49.7C2217,3721.7,2215.1,3724.4,2212.4,3724.8z"/>
<path fill="#3A2626" d="M2244.9,3717.6L2244.9,3717.6c-2.7,0.5-5.2-1.6-5.6-4.6l-6.7-49.5c-0.4-3,1.4-5.7,4.1-6.2l0.1,0
	c2.6-0.5,5.1,1.6,5.5,4.6l6.7,49.5C2249.3,3714.4,2247.5,3717.1,2244.9,3717.6z"/>
<path fill="#3A2626" d="M2279.8,3707.1L2279.8,3707.1c-2.7,0.9-5.3-0.8-6.1-3.7l-12.2-48.1c-0.7-2.9,0.8-5.9,3.3-6.7l0.1,0
	c2.6-0.8,5.2,0.8,6,3.7l12.2,48.1C2283.8,3703.3,2282.3,3706.3,2279.8,3707.1z"/>
<path fill="#3A2626" d="M2305.6,3696.3L2305.6,3696.3c-2.6,1-5.4-0.6-6.2-3.5l-13.6-47.7c-0.8-2.9,0.6-5.9,3.1-6.8l0.1,0
	c2.5-0.9,5.3,0.7,6.1,3.5l13.6,47.7C2309.6,3692.3,2308.2,3695.4,2305.6,3696.3z"/>
<rect x="1979.7" y="2808" transform="matrix(0.9984 -5.654998e-002 5.654998e-002 0.9984 -157.5181 116.782)" fill="#442B2A" width="9.9" height="67.3"/>
<g>
	<path fill="#6A331C" d="M3041.3,1919.1c-10-97-38-191.4-83.9-277.5c-49.9-93.7-128.1-199.9-246-270c0,0-127.4-75.4-309.6-72
		l-10.5,85.8c8.2,0.4,28.7-0.4,36.8-0.4c51.5,0,255.1,15.1,439,239.5c32,39.1,57.8,82.9,76.3,129.9c23.9,60.5,56.6,154.1,66.2,235.5
		c4.7,39.5,26.9,78.7,74.3,94.5C3073.1,2075.8,3054,2042.7,3041.3,1919.1z"/>
	<path fill="#2D1D1A" d="M3092.6,2086.9c-3-0.8-5.8-1.6-8.6-2.5C3089.3,2088.4,3092.6,2086.9,3092.6,2086.9z"/>
	<path fill="#94512F" d="M3062.4,1923.8c-1.4-94.1-22.5-187.5-63.8-274.8c-44.9-95-119.1-205-239.8-284.4
		c0,0-160.5-88.8-357.8-104.5l-5.3,55.5c18.6-0.1,27.7-0.2,36.5,0.7c55.7,5.3,295.3,40.9,470.5,306.9c29.7,45,74.1,128.9,82.5,172.5
		c12.1,62.5,33.6,113.6,36.2,192.6c1.2,38.4,21.5,78.3,71.2,98.4C3081.6,2077.4,3064.1,2043.7,3062.4,1923.8z"/>
	<path fill="#2D1D1A" d="M2738.4,1332.7c-120-68-236.6-88.7-337.8-86.5l0.3,14.1c14.4-0.6,22.5-0.4,22.5-0.4
		c243.9,15.5,422.9,174.6,515.2,279c50.6,57.3,85.7,126.7,101.6,201.4c34.2,160.9,37.8,330.3,37.8,330.3l14.6,16.2
		C3147.1,1560.3,2738.4,1332.7,2738.4,1332.7z"/>
	<path fill="#2D1D1A" d="M3040.3,1740.4c-15.9-74.8-50.9-144.2-101.6-201.4c-92.3-104.4-271.3-263.5-515.2-279c0,0-14.6-0.1-29,0.5
		l2.9,37.8c182.2-3.4,314.1,73.4,314.1,73.4c117.9,70.1,196,176.3,246,270c45.9,86.1,73.9,180.5,83.9,277.5
		c12.7,123.6,31.8,156.7,42.8,165.2c2.8,0.9,5.6,1.8,8.6,2.5l-14.6-16.2C3078,2070.7,3074.5,1901.3,3040.3,1740.4z"/>
	<path fill="#6A331C" d="M1790.5,1946.8c5.7-97.4,29.5-192.9,71.5-280.9c45.7-95.8,119.1-205.4,233.8-280.6
		c0,0,158.7-118.9,314.6-85.7l-6.6,84.9c-13.3,1.1-21.6,1.7-24.4,1.6c-51.5-1.1-254.2,26.4-428,258.6c-30.3,40.4-54,85.4-70.5,133.1
		c-21.2,61.5-49.7,156.5-55.7,238.2c-2.9,39.7-23.4,79.9-70.1,97.7C1765.7,2104.8,1783.3,2070.8,1790.5,1946.8z"/>
	<path fill="#2D1D1A" d="M2067.1,1347.6c116.9-73.2,232.4-99,333.6-101.4l9.4,38.3c-14.4,0.1-32.5-3.9-32.5-3.9
		c-250.4,5.7-370.7,145.3-458.3,253.7c-48,59.5-137.3,244-138.7,337.1c-2.5,175.5-20.1,228.5-20.1,228.5l-13.9,16.8
		C1668.9,1593,2067.1,1347.6,2067.1,1347.6z"/>
	<path fill="#94512F" d="M1782.8,1940.9c0.4-97.5,19-194.2,56.2-284.4c40.5-98.1,126.1-198.7,236.5-280c0,0,177.1-116.6,334.6-92
		l25.8,32.3c-4,0.6-33.6-2.6-63.3-1.3c-23.1,1-51.8,4.4-70.4,8.1c-146.9,29.5-256.6,75.9-392.7,290.9
		c-27,42.7-47.6,110.5-61.4,159.1c-17.9,62.5-25.3,152.6-26.9,234.6c-0.8,39.8-19,81-64.7,101.4
		C1766.5,2100,1782.3,2065.2,1782.8,1940.9z"/>
	<path fill="#2D1D1A" d="M1784.5,1812.6c12.6-75.4,59.1-208.9,107.2-268.4c74.3-91.9,167.9-198.6,338.6-244
		c44.8-11.9,88-26.3,134.3-27.4c21.2-0.5,52.2-1.3,59.7-1.3l0.6,27.6c-192.8-11.2-329.2,86.1-329.2,86.1
		c-114.6,75.2-188,184.8-233.8,280.6c-42,88-65.9,183.6-71.5,280.9c-7.2,124.1-24.8,158-35.4,167c-2.7,1-5.6,2-8.5,2.9l13.9-16.8
		C1760.5,2099.9,1757.4,1974.8,1784.5,1812.6z"/>
	<path fill="#4C3431" d="M1780.5,1828.5c11.7-94.5,71.4-231,113-290.2c200.4-285.3,512-267.1,518.6-266.7l-2.2,8.3
		c-78.4,1.8-178.4,22.8-236,44.6c-108.4,41.1-210.3,129.8-267.5,209.3c-115.3,160.3-131.3,352.6-134.6,412.9
		c-6.8,124-15.5,155.6-25.2,164c7.8,17,2.5,5.3-0.1,6l0.3-31.3C1746.9,2085.4,1757.7,2012.6,1780.5,1828.5z"/>
	<path fill="#4C3431" d="M3044.1,1800.5c-15.9-93.9-83.6-226.1-125.8-284.9c-183.1-255.6-499.7-244.7-506.2-244l-2.2,8.3
		c78.4-1.7,160.3,15.3,218.8,34.5c110.1,36.2,207.4,104.2,276.5,197.3c117.7,158.6,146.7,346.4,152.7,406.5
		c12.3,123.6,22.3,154.8,32.4,162.7c-7,17.3-2.3,5.4,0.3,6l-1.7-31.2C3089,2055.7,3075,1983.5,3044.1,1800.5z"/>
</g>
<path fill="none" stroke="#2B1A19" stroke-width="8" stroke-miterlimit="10" d="M3017,2423.5l61.3-98.1c3.9-6.2,4.3-13.9,1.1-20.5
	l-0.1-0.2c-3-6.2-3.8-13.3-2.3-20l20.8-95c0.6-2.5,1-5.1,1.3-7.7l34.6-261.9c0.5-4.1-2.7-7.6-6.8-7.4l-0.2,0
	c-8.4,0.4-15.2,6.8-16.2,15.2l-20.1,167.8l-26.5,200c-0.6,4.6-2.3,9-4.8,12.8l-38.1,56.7"/>
<ellipse transform="matrix(0.9996 2.911168e-002 -2.911168e-002 0.9996 65.677 -88.3562)" fill="#0F0908" cx="3067.3" cy="2211.4" rx="47.7" ry="6.4"/>
<path fill="#2A1F1E" d="M3034.7,2081.5l-15.3,127.5c-0.2,1.7,2.1,1.7,3.8,1.5c10.5-1.7,42.5-4.9,69-2.4c4.9,0.5,9.8,1.7,14.3,3.7
	c2.5,1,5.1,2.2,6.8,3.2c0.5,0.3,1.1,0,1.1-0.6l15.4-138.7c0.3-2.7-1.4-5.3-4-6.2c-0.1,0-0.2-0.1-0.4-0.1c-20-6.3-41.3-7.5-62-3.5
	l-17.4,3.4C3040.1,2070.4,3035.5,2075.4,3034.7,2081.5z"/>
<path fill="none" stroke="#261817" stroke-width="6" stroke-miterlimit="10" d="M3048.9,2211.8l0.1,3.2c0.3,13.7-8,26.1-20.8,31
	l-39.7,15.2c-6.8,2.6-11.3,9.2-11.1,16.5l0.7,29.5"/>
<path fill="#493837" d="M3084.9,2063.6l-17.7,143.8l17,0.3c3.1,0.1,6.3,0.4,9.3,1.1l13,2.9l7.9-145.3
	C3114.4,2066.4,3094.3,2063.4,3084.9,2063.6z"/>
<path fill="#493837" d="M3054,2133.5l-5.2,74.3c0,0-16.1,0.1-27,2.6l9.8-76.5L3054,2133.5z"/>
<polygon fill="#110B0B" points="3028.4,2135 3054,2133.5 3047.6,2156 3028.9,2156.5 3028.5,2139.2 "/>
<path fill="#CE9965" d="M3028.4,2135l30.2-1.6l5.7-58.4l-2.8-0.3c-9-1.1-18.1,0.6-26.1,5l-0.1,0.1c0,0-0.1-1.1-0.5,1.8L3028.4,2135z
	"/>
<path fill="none" stroke="#2B1A19" stroke-width="8" stroke-miterlimit="10" d="M1851.9,2447.2l-69.4-92.5
	c-4.4-5.8-5.5-13.5-2.9-20.4l0.1-0.2c2.4-6.5,2.7-13.5,0.6-20.1l-28.8-92.9c-0.8-2.5-1.4-5-2-7.5l-56.8-258c-0.9-4,2.1-7.8,6.2-7.9
	l0.2,0c8.4-0.3,15.8,5.5,17.5,13.7l34.3,165.5l43.5,197c1,4.5,3,8.7,5.9,12.3l42.8,53.2"/>
<path fill="#0F0908" d="M1736.9,2245.6c0.4,3.5,21.8,3.9,47.9,0.9c26-3,46.8-8.3,46.4-11.8c-0.4-3.5-21.8-3.9-47.9-0.9
	C1757.3,2236.8,1736.5,2242.1,1736.9,2245.6z"/>
<path fill="#2A1F1E" d="M1805.1,2107.9l26.2,125.7c0.3,1.7-1.9,1.9-3.6,1.8c-10.6-0.8-42.8-1.3-69,3.5c-4.9,0.9-9.6,2.6-13.9,4.9
	c-2.4,1.2-4.8,2.6-6.5,3.8c-0.5,0.3-1.1,0.1-1.2-0.5l-27.2-136.9c-0.5-2.7,0.9-5.4,3.4-6.5c0.1,0,0.2-0.1,0.4-0.1
	c19.4-8,40.6-11,61.4-8.8l17.7,1.9C1798.8,2097.4,1803.8,2101.9,1805.1,2107.9z"/>
<path fill="none" stroke="#261817" stroke-width="6" stroke-miterlimit="10" d="M1802.1,2239l0.2,3.2c0.9,13.7,10.2,25.3,23.4,29.1
	l40.9,11.7c7,2,12,8.2,12.5,15.5l1.9,29.5"/>
<path fill="#493837" d="M1753.6,2094.4l29.9,141.8l-16.9,1.7c-3.1,0.3-6.2,1-9.2,1.9l-12.7,4l-20.3-144.1
	C1724.4,2099.7,1744.2,2095,1753.6,2094.4z"/>
<path fill="#493837" d="M1790.4,2161.4l11.5,73.6c0,0,16-1.3,27.2,0.3l-16.3-75.4L1790.4,2161.4z"/>
<polygon fill="#110B0B" points="1815.9,2160.7 1790.4,2161.4 1798.6,2183.3 1817.3,2182.1 1816.2,2164.9 "/>
<path fill="#CE9965" d="M1815.9,2160.7l-30.2,0.9l-10.6-57.7l2.8-0.6c8.9-1.9,18.1-0.9,26.4,2.7l0.1,0.1c0,0,0-1.2,0.6,1.8
	L1815.9,2160.7z"/>
<path fill="#33211F" d="M2121.7,2832.4l-1.6,0.4c-24.3,6.4-49.5-6.4-56.4-28.6l-160.2-514.5c-4.6-4.5-2.3-12.5,3.8-21.1
	c8.9-12.5,22.8-21.4,38.4-25.6l8.9-2.4c53.9-14.3,110,14.2,125.4,63.5l122.8,394.3C2220.7,2755.9,2184.4,2815.8,2121.7,2832.4z"/>
<path fill="#3E2B29" d="M2113.7,2832.1l-1.3,0.4c-20.4,5.4-42.5-8.2-49.4-30.5l-160.2-514.5c-4.1-4.7-2.5-12.5,2.2-20.7
	c7-12,18.4-20.3,31.5-23.7l7.5-2c45.2-12,94.3,18.3,109.7,67.6l122.8,394.3C2194.4,2760.5,2166.2,2818.2,2113.7,2832.1z"/>
<path fill="#201311" d="M1882.5,2305.5l157.8,515.5c2,6.4-3.2,12.8-10.4,12.9l-0.3,0c-12.2,0.3-24.2-2.4-34.9-7.7l-23-11.3l-54-0.2
	c-16-0.1-23-4.7-27.7-18.7l-126.4-407.2c-2-6,0.9-12.5,6.9-15.5l66.3-33c0,0,2.4-45.8,27.2-47.4
	C1872.4,2292.4,1880.2,2297.9,1882.5,2305.5z"/>
<path fill="#493634" d="M2098.4,2813.9l-1,0.3c-14.7,3.9-31.7-9.5-38.1-29.8l-146.9-471.9c-3.2-10.4-2.8-15.9,1.3-22.3
	c5.3-8.3,14.4-14.4,24.9-17.2l1.6-0.4c32.6-8.6,70.5,21,84.6,66.3l112.6,361.7C2153.8,2753.1,2136.3,2803.8,2098.4,2813.9z"/>
<polygon fill="#140807" points="1981.7,2822.1 1963.3,2812.8 1821.3,2347.5 1832.9,2341.9 "/>
<path fill="#3A2624" d="M1845,2335.7l-0.9,7.5c-0.7,5.5-0.2,11,1.4,16.4l131,441.4c0.6,2.1,2.2,3.9,4.4,4.9l0.4,0.2
	c13.2,5.8,27.7-5.6,23.4-18.4l-151.2-452.6C1852.1,2330.8,1845.5,2331.4,1845,2335.7z"/>
<path fill="#70504F" d="M1952.2,2421.6c0,0,32.7-22.4,75.7-25.9c0,0-30.2,25.8-75.6,31.1L1952.2,2421.6z"/>
<path fill="#70504F" d="M1953.2,2444.4c0,0,51.5-9.6,89.8-2c0,0-48.8,19.7-89.6,10.4L1953.2,2444.4z"/>
<path fill="#70504F" d="M1970.3,2495.7c0,0,53.2,10.1,89.2-31.3c0,0-65.9,26.6-89.5,17.4L1970.3,2495.7z"/>
<path fill="#70504F" d="M1981,2523.2c0,0,25.2-31,99.7-2.2c0,0-88.9-14.7-99.4,14.7L1981,2523.2z"/>
<path fill="#70504F" d="M1940.7,2400.7c0,0,23.5,6.2,40.4-8.8c0,0-29.4,8.5-40.6,0.9L1940.7,2400.7z"/>
<path fill="#70504F" d="M1929.9,2356.2c0,0,31.3-32.3,73.3-25.3c0,0-31.9,3.1-36.6,15.6c0,0,52.9-1.3,63.7-11.7
	c0,0-31.4,27.3-100.2,34.7L1929.9,2356.2z"/>
<path fill="#70504F" d="M1992.2,2567.3c0,0,15.4-27.3,64.7-24.5c0,0-46.6,7.2-48.7,24.2c0,0,42.1,9.4,90.8-13.7
	c0,0-78.1,32.6-106.6,23.1L1992.2,2567.3z"/>
<path fill="#70504F" d="M2000.9,2617.8c0,0,32.6-15.2,65.3-20.2l-26.8,19.1c0,0,45.6-9.5,71.6-10.6
	C2111,2606.1,2035.9,2636.8,2000.9,2617.8z"/>
<path fill="#70504F" d="M2014.3,2649.8c0,0,62.9,4.2,98.1-15.7c0,0-58.3,35.1-97.9,24.7L2014.3,2649.8z"/>
<path fill="#70504F" d="M2025.8,2684c0,0,72.9,11.9,97.1-6.7c0,0-54.7,31.7-96.9,16.8L2025.8,2684z"/>
<path fill="#70504F" d="M2044.9,2734.2c0,0,63.1,15.5,100.6-15.8c0,0-29.9,41.3-100.4,25.9L2044.9,2734.2z"/>
<path fill="#70504F" d="M2056.5,2782.6c0,0,87,7.5,137.5-56.5c0,0-37.7,69.7-138.7,65.6L2056.5,2782.6z"/>
<path fill="#70504F" d="M2073.2,2805.3c0,0,58.2,16,107.9-16.8c0,0-43.3,44.9-114,21.6L2073.2,2805.3z"/>
<path fill="#70504F" d="M1921.4,2334c0,0,13.2-13.8,39.1-14.4c0,0-18.7-8.6-43.1,1L1921.4,2334z"/>
<path fill="#70504F" d="M1914.7,2310.3c0,0,10.1-28.6,54.5-27.4c0,0-38.8-2.6-59.9,20.2L1914.7,2310.3z"/>
<path fill="#70504F" d="M1909.7,2297.2c0,0,13.5-58.5,83.7-55.2c0,0-66.5-1.6-92.6,43.6L1909.7,2297.2z"/>
<path fill="#382422" d="M1946.1,2423.1c0,0,32.7-22.4,75.7-25.9c0,0-30.2,25.8-75.6,31.1L1946.1,2423.1z"/>
<path fill="#382422" d="M1947.1,2445.9c0,0,51.5-9.6,89.8-2c0,0-48.8,19.7-89.6,10.4L1947.1,2445.9z"/>
<path fill="#382422" d="M1964.2,2497.2c0,0,53.2,10.1,89.2-31.3c0,0-65.9,26.6-89.5,17.4L1964.2,2497.2z"/>
<path fill="#382422" d="M1974.8,2524.8c0,0,25.2-31,99.7-2.2c0,0-88.9-14.7-99.4,14.7L1974.8,2524.8z"/>
<path fill="#382422" d="M1934.6,2402.3c0,0,23.5,6.2,40.4-8.8c0,0-29.4,8.5-40.6,0.9L1934.6,2402.3z"/>
<path fill="#382422" d="M1923.7,2357.8c0,0,31.3-32.3,73.3-25.3c0,0-31.9,3.1-36.6,15.6c0,0,52.9-1.3,63.7-11.7
	c0,0-31.4,27.3-100.2,34.7L1923.7,2357.8z"/>
<path fill="#382422" d="M1986.1,2568.8c0,0,15.4-27.3,64.7-24.5c0,0-46.6,7.2-48.7,24.2c0,0,42.1,9.4,90.8-13.7
	c0,0-78.1,32.6-106.6,23.1L1986.1,2568.8z"/>
<path fill="#382422" d="M1994.8,2619.3c0,0,32.6-15.2,65.3-20.2l-26.8,19.1c0,0,45.6-9.5,71.6-10.6
	C2104.9,2607.6,2029.8,2638.3,1994.8,2619.3z"/>
<path fill="#382422" d="M2008.2,2651.3c0,0,62.9,4.2,98.1-15.7c0,0-58.3,35.1-97.9,24.7L2008.2,2651.3z"/>
<path fill="#382422" d="M2019.7,2685.5c0,0,72.9,11.9,97.1-6.7c0,0-54.7,31.7-96.9,16.8L2019.7,2685.5z"/>
<path fill="#382422" d="M2038.8,2735.8c0,0,63.1,15.5,100.6-15.8c0,0-29.9,41.3-100.4,25.9L2038.8,2735.8z"/>
<path fill="#382422" d="M2050.4,2784.1c0,0,87,7.5,137.5-56.5c0,0-37.7,69.7-138.7,65.6L2050.4,2784.1z"/>
<path fill="#382422" d="M2067.1,2806.8c0,0,58.2,16,107.9-16.8c0,0-43.3,44.9-114,21.6L2067.1,2806.8z"/>
<path fill="#382422" d="M1915.2,2335.5c0,0,13.2-13.8,39.1-14.4c0,0-18.7-8.6-43.1,1L1915.2,2335.5z"/>
<path fill="#382422" d="M1908.6,2311.8c0,0,10.1-28.6,54.5-27.4c0,0-38.8-2.6-59.9,20.2L1908.6,2311.8z"/>
<path fill="#382422" d="M1903.6,2298.7c0,0,13.5-58.5,83.7-55.2c0,0-66.5-1.6-92.6,43.6L1903.6,2298.7z"/>
<path fill="#33211F" d="M2057.9,2832.7l-0.4,0.1c-9.6,2.5-19.7-2.6-22.4-11.4l-159.9-520.9c-2.7-8.8,2.9-18,12.6-20.6l0.4-0.1
	c9.6-2.5,19.7,2.6,22.4,11.4l159.9,520.9C2073.2,2821,2067.6,2830.2,2057.9,2832.7z"/>
<path fill="#493634" d="M2032.4,2783.8l-0.1,0c-3.2,0.8-7.6-4.5-9.9-12l-134.5-438.2c-2.3-7.4-1.6-14.1,1.6-14.9l0.1,0
	c3.2-0.8,7.6,4.5,9.9,12l134.5,438.2C2036.3,2776.3,2035.6,2783,2032.4,2783.8z"/>
<path fill="#3A2624" d="M1780.5,2397.2l117.8,373.4c0.5,1.6,3.1,1,2.7-0.6l-77-391.7c-1.4-7.3-10-11.2-17.3-8l-16.9,7.6
	C1782.1,2381.3,1778.1,2389.5,1780.5,2397.2z"/>
<path fill="#33211F" d="M2777.5,2819l1.6,0.4c24.5,5.3,49.2-8.6,55.1-31.1l137.3-521.1c4.4-4.7,1.7-12.6-4.7-20.9
	c-9.4-12.1-23.7-20.4-39.5-23.8l-9-2c-54.5-11.9-109.3,19-122.4,69l-105.2,399.4C2675.3,2747,2714.2,2805.3,2777.5,2819z"/>
<path fill="#3E2B29" d="M2785.5,2818.4l1.3,0.3c20.6,4.5,42.1-10.1,48-32.6l137.3-521.1c3.9-4.8,2-12.6-3.2-20.6
	c-7.5-11.7-19.3-19.4-32.5-22.3l-7.6-1.7c-45.7-10-93.4,22.5-106.6,72.4l-105.2,399.4C2701.8,2750.4,2732.4,2806.9,2785.5,2818.4z"
	/>
<path fill="#201311" d="M2993.2,2282.1l-134.8,522c-1.7,6.5,3.8,12.6,11,12.4l0.3,0c12.2-0.3,24.1-3.4,34.6-9.2l22.5-12.3l54-2.6
	c16-0.8,22.8-5.7,26.9-20l108.3-412.4c1.7-6.1-1.4-12.4-7.6-15.1l-67.7-30.1c0,0-4.5-45.6-29.2-46.1
	C3002.7,2268.6,2995.2,2274.4,2993.2,2282.1z"/>
<path fill="#493634" d="M2800,2799.5l1,0.2c14.8,3.2,31.3-10.9,36.7-31.5l125.9-477.9c2.8-10.5,2.1-16.1-2.2-22.2
	c-5.6-8.1-15-13.7-25.6-16l-1.6-0.4c-33-7.2-69.5,24.1-81.6,70L2756,2688C2742,2741.2,2761.7,2791.2,2800,2799.5z"/>
<polygon fill="#140807" points="2916.9,2802.5 2934.9,2792.4 3056.6,2319.8 3044.6,2314.8 "/>
<path fill="#3A2624" d="M3032,2310.6l1.2,7.4c0.9,5.5,0.7,11-0.7,16.4l-111.3,446.7c-0.5,2.2-2.1,4-4.2,5.1l-0.4,0.2
	c-12.9,6.4-27.9-4.4-24.2-17.4l131.1-458.8C3024.6,2306,3031.3,2306.3,3032,2310.6z"/>
<path fill="#70504F" d="M2928.7,2401.1c0,0-33.7-20.9-76.8-22.5c0,0,31.3,24.4,76.9,27.7L2928.7,2401.1z"/>
<path fill="#70504F" d="M2928.7,2424c0,0-51.9-7.3-89.8,2c0,0,49.6,17.5,90,6.4L2928.7,2424z"/>
<path fill="#70504F" d="M2913.9,2475.9c0,0-52.7,12.4-90.5-27.3c0,0,67,23.6,90.1,13.4L2913.9,2475.9z"/>
<path fill="#70504F" d="M2904.5,2504c0,0-26.5-29.9-99.7,2.2c0,0,88.2-18.6,99.9,10.3L2904.5,2504z"/>
<path fill="#70504F" d="M2939.3,2379.8c0,0-23.2,7.3-40.8-7c0,0,29.7,7.2,40.6-0.9L2939.3,2379.8z"/>
<path fill="#70504F" d="M2948.1,2334.9c0,0-32.7-30.9-74.3-22c0,0,32,1.7,37.2,13.9c0,0-52.9,1.1-64.2-8.8c0,0,32.6,25.9,101.6,30.3
	L2948.1,2334.9z"/>
<path fill="#70504F" d="M2895.2,2548.4c0,0-16.6-26.6-65.7-21.6c0,0,46.9,5.1,49.7,22c0,0-41.6,11.3-91.3-9.7
	c0,0,79.4,29.2,107.5,18.4L2895.2,2548.4z"/>
<path fill="#70504F" d="M2888.7,2599.3c0,0-33.2-13.8-66.1-17.3l27.7,17.9c0,0-45.9-7.5-72-7.4
	C2778.2,2592.5,2854.6,2619.8,2888.7,2599.3z"/>
<path fill="#70504F" d="M2876.7,2631.8c0,0-62.6,7-98.7-11.4c0,0,59.8,32.5,98.9,20.4L2876.7,2631.8z"/>
<path fill="#70504F" d="M2866.8,2666.5c0,0-72.3,15.1-97.3-2.4c0,0,56,29.2,97.5,12.5L2866.8,2666.5z"/>
<path fill="#70504F" d="M2849.9,2717.6c0,0-62.4,18.3-101.2-11.3c0,0,31.7,39.9,101.4,21.4L2849.9,2717.6z"/>
<path fill="#70504F" d="M2840.4,2766.4c0,0-86.6,11.3-139.9-50.4c0,0,40.7,67.9,141.5,59.4L2840.4,2766.4z"/>
<path fill="#70504F" d="M2824.8,2789.8c0,0-57.4,18.6-108.6-12c0,0,45.3,43,114.8,16.6L2824.8,2789.8z"/>
<path fill="#70504F" d="M2955.6,2312.3c0,0-13.8-13.2-39.7-12.7c0,0,18.3-9.4,43.1-1L2955.6,2312.3z"/>
<path fill="#70504F" d="M2961.2,2288.3c0,0-11.4-28.1-55.6-25c0,0,38.7-4.3,60.7,17.5L2961.2,2288.3z"/>
<path fill="#70504F" d="M2965.6,2275c0,0-16.1-57.9-86.1-51.5c0,0,66.4-4.5,94.4,39.4L2965.6,2275z"/>
<path fill="#382422" d="M2934.8,2402.4c0,0-33.7-20.9-76.8-22.5c0,0,31.3,24.4,76.9,27.7L2934.8,2402.4z"/>
<path fill="#382422" d="M2934.9,2425.3c0,0-51.9-7.3-89.8,2c0,0,49.6,17.5,90,6.4L2934.9,2425.3z"/>
<path fill="#382422" d="M2920.1,2477.2c0,0-52.7,12.4-90.5-27.3c0,0,67,23.6,90.1,13.4L2920.1,2477.2z"/>
<path fill="#382422" d="M2910.6,2505.2c0,0-26.5-29.9-99.7,2.2c0,0,88.2-18.6,99.9,10.3L2910.6,2505.2z"/>
<path fill="#382422" d="M2945.4,2381.1c0,0-23.2,7.3-40.8-7c0,0,29.7,7.2,40.6-0.9L2945.4,2381.1z"/>
<path fill="#382422" d="M2954.3,2336.1c0,0-32.7-30.9-74.3-22c0,0,32,1.7,37.2,13.9c0,0-52.9,1.1-64.2-8.8c0,0,32.6,25.9,101.6,30.3
	L2954.3,2336.1z"/>
<path fill="#382422" d="M2901.3,2549.7c0,0-16.6-26.6-65.7-21.6c0,0,46.9,5.1,49.7,22c0,0-41.6,11.3-91.3-9.7
	c0,0,79.4,29.2,107.5,18.4L2901.3,2549.7z"/>
<path fill="#382422" d="M2894.9,2600.5c0,0-33.2-13.8-66.1-17.3l27.7,17.9c0,0-45.9-7.5-72-7.4
	C2784.4,2593.7,2860.8,2621.1,2894.9,2600.5z"/>
<path fill="#382422" d="M2882.9,2633.1c0,0-62.6,7-98.7-11.4c0,0,59.8,32.5,98.9,20.4L2882.9,2633.1z"/>
<path fill="#382422" d="M2873,2667.8c0,0-72.3,15.1-97.3-2.4c0,0,56,29.2,97.5,12.5L2873,2667.8z"/>
<path fill="#382422" d="M2856.1,2718.8c0,0-62.4,18.3-101.2-11.3c0,0,31.7,39.9,101.4,21.4L2856.1,2718.8z"/>
<path fill="#382422" d="M2846.6,2767.7c0,0-86.6,11.3-139.9-50.4c0,0,40.7,67.9,141.5,59.4L2846.6,2767.7z"/>
<path fill="#382422" d="M2831,2791.1c0,0-57.4,18.6-108.6-12c0,0,45.3,43,114.8,16.6L2831,2791.1z"/>
<path fill="#382422" d="M2961.8,2313.5c0,0-13.8-13.2-39.7-12.7c0,0,18.3-9.4,43.1-1L2961.8,2313.5z"/>
<path fill="#382422" d="M2967.4,2289.5c0,0-11.4-28.1-55.6-25c0,0,38.7-4.3,60.7,17.5L2967.4,2289.5z"/>
<path fill="#382422" d="M2971.8,2276.2c0,0-16.1-57.9-86.1-51.5c0,0,66.4-4.5,94.4,39.4L2971.8,2276.2z"/>
<path fill="#33211F" d="M2841.2,2816.6l0.4,0.1c9.7,2.1,19.5-3.5,21.8-12.4l136.7-527.5c2.3-8.9-3.7-17.9-13.5-20l-0.4-0.1
	c-9.7-2.1-19.5,3.5-21.8,12.4l-136.7,527.5C2825.5,2805.5,2831.5,2814.5,2841.2,2816.6z"/>
<path fill="#493634" d="M2864.6,2766.5l0.1,0c3.2,0.7,7.4-4.9,9.3-12.4l115-443.8c1.9-7.5,0.9-14.2-2.3-14.9l-0.1,0
	c-3.2-0.7-7.4,4.9-9.3,12.4l-115,443.8C2860.4,2759.2,2861.4,2765.8,2864.6,2766.5z"/>
<path fill="#3A2624" d="M3099.1,2369.1l-101.2,378.2c-0.4,1.6-3,1.1-2.8-0.5l59.6-394.7c1.1-7.3,9.5-11.7,16.9-8.7l17.2,6.8
	C3096.9,2353.4,3101.2,2361.4,3099.1,2369.1z"/>
<path fill="#B78A30" d="M3809.5,2920.5c0,3.4-4.3,6.2-9.6,6.2h-43.8c-5.3,0-9.6-2.8-9.6-6.2l0,0c0-3.4,4.3-6.2,9.6-6.2h43.8
	C3805.2,2914.2,3809.5,2917,3809.5,2920.5L3809.5,2920.5z"/>
<path fill="#996C23" d="M3786.7,2920.5c0,5.2-4.5,9.4-10,9.4h-45.9c-5.5,0-10-4.2-10-9.4l0,0c0-5.2,4.5-9.4,10-9.4h45.9
	C3782.2,2911.1,3786.7,2915.3,3786.7,2920.5L3786.7,2920.5z"/>
<path fill="#AA7C2B" d="M3762,2920.7c0,7.2-5.8,13.1-12.8,13.1h-65.3c-7.1,0-12.8-5.9-12.8-13.1l0,0c0-7.2,5.8-13.1,12.8-13.1h65.3
	C3756.2,2907.6,3762,2913.5,3762,2920.7L3762,2920.7z"/>
<line fill="none" stroke="#D6A543" stroke-width="24" stroke-miterlimit="10" x1="3553.7" y1="2916.3" x2="3424.4" y2="2891"/>
<rect x="3538.4" y="2899.4" fill="#C19C49" width="154.8" height="40.5"/>
<rect x="3538.4" y="2914" fill="#E5B14A" width="154.8" height="13.9"/>
<rect x="3538.4" y="2910.2" fill="#F9D28C" width="154.8" height="3.9"/>
<rect x="3553.4" y="2899.4" fill="#B78A30" width="7.2" height="40.5"/>
<rect x="3575.5" y="2899.4" fill="#B78A30" width="7.2" height="40.5"/>
<rect x="3597.2" y="2899.4" fill="#B78A30" width="7.2" height="40.5"/>
<rect x="3619.4" y="2899.4" fill="#B78A30" width="7.2" height="40.5"/>
<rect x="3642.1" y="2899.4" fill="#B78A30" width="7.2" height="40.5"/>
<rect x="3663.8" y="2899.4" fill="#B78A30" width="7.2" height="40.5"/>
<rect x="3686" y="2899.4" fill="#B78A30" width="7.2" height="40.5"/>
</svg>
