<?xml version="1.0" encoding="utf-8"?>
<!-- Generator: Adobe Illustrator 17.1.0, SVG Export Plug-In . SVG Version: 6.00 Build 0)  -->
<!DOCTYPE svg PUBLIC "-//W3C//DTD SVG 1.1//EN" "http://www.w3.org/Graphics/SVG/1.1/DTD/svg11.dtd">
<svg version="1.1" id="Layer_1" xmlns="http://www.w3.org/2000/svg" xmlns:xlink="http://www.w3.org/1999/xlink" x="0px" y="0px"
	 viewBox="0 0 5000 5000" enable-background="new 0 0 5000 5000" xml:space="preserve">
<polygon fill="#999998" points="3139.2,3252.6 1883.7,3252.6 1906.5,3116.3 3113.4,3116.3 "/>
<g>
	<path fill="#C6C6C4" d="M1882.4,3252.6c0,0-22,91.9-18.9,145.8c0,0-5,98.5,101.4,135.5c22.8,9.4,39.5,7.4,58.5,9.5
		c5.4,0.6,10.9,0.8,16.4,0.8h471.5l-1.3-291.6H1882.4z"/>
</g>
<g>
	<path fill="#C6C6C4" d="M1882.4,3252.6c0,0-22,91.9-18.9,145.8c0,0-5,98.5,101.4,135.5c22.8,9.4,39.5,7.4,58.5,9.5
		c5.4,0.6,10.9,0.8,16.4,0.8h471.5l-1.3-291.6H1882.4z"/>
</g>
<g>
	<path fill="#C6C6C4" d="M3140,3252.6c0,0,22.4,91.9,19.2,145.8c0,0,5.1,98.5-103.3,135.5c-32.9,10.3-44.7,10.3-65.7,10.3h-490.9
		l1.3-291.6H3140z"/>
</g>
<path fill="#C6C6C4" d="M4299.1,3094.2H698.2c-44.5,0-84-30.8-97.8-76.4L107.2,1562.5c-3.7-12.1-36.6-82.3-41.2-94.1
	c0,0-53.2-161,221.5-143.1h4449.1c34.1,0,173.8,0,196.5,57.7c23.5,59.6,23.5,59.6-10.5,150.4c-14.5,38.6-25.9-26.9-13.9,25.5
	l-463.2,1477.3C4413,3052.2,4359.5,3094.2,4299.1,3094.2z"/>
<path d="M4336.4,3138.2H660.2c-45.4,0-85.7-30.8-99.8-76.4L90.9,1545.3c-3.8-12.1-7.7-24.2-12.3-36c-38.7-97.3-12.3-170.2,129-170.2
	h4610.6c81.9,0,163.5,40.1,121.5,161.3c-2.2,6.4-4.5,12.7-6.4,19.2l-461.7,1514.6C4452.8,3096.2,4398.1,3138.2,4336.4,3138.2z"/>
<g>
	<path fill="#AFAFB0" d="M560.4,3061.8c14.1,45.6,54.4,76.4,99.8,76.4h3676.1c61.7,0,116.4-42,135.3-104l48.2-158.2h-4017
		L560.4,3061.8z"/>
</g>
<polygon fill="#161616" points="4304.5,2779.6 715,2779.6 304.6,1453.6 4709.1,1453.6 "/>
<g>
	<polygon fill="#0D0D0D" points="309.2,1453.6 2684.9,1453.6 3760,2779.6 713.8,2779.6 	"/>
</g>
<ellipse fill="#2CB14A" cx="2510.5" cy="1394.5" rx="18" ry="11.7"/>
<g>
	<path fill="#E2E4E0" d="M1925.9,3493.6c-42.1-33.6-50.9-78.6-62.4-117.8c-0.3,8-0.4,15.6,0.1,22.6c0,0-5,98.5,101.4,135.5
		c22.8,9.4,39.5,7.4,58.5,9.5c5.4,0.6,10.9,0.8,16.4,0.8h38.8c-54.6-8.2-90.8-18.5-114.9-28.1
		C1959.7,3514.6,1929.1,3496.2,1925.9,3493.6z"/>
</g>
<g>
	<path fill="#E2E4E0" d="M3096.9,3493.6c42.1-33.6,50.9-78.6,62.4-117.8c0.3,8,0.4,15.6-0.1,22.6c0,0,5,98.5-101.4,135.5
		c-22.8,9.4-39.5,7.4-58.5,9.5c-5.4,0.6-10.9,0.8-16.4,0.8h-38.8c54.6-8.2,90.8-18.5,114.9-28.1
		C3063,3514.6,3093.7,3496.2,3096.9,3493.6z"/>
</g>
</svg>
