<?xml version="1.0" encoding="utf-8"?>
<!-- Generator: Adobe Illustrator 17.1.0, SVG Export Plug-In . SVG Version: 6.00 Build 0)  -->
<!DOCTYPE svg PUBLIC "-//W3C//DTD SVG 1.1//EN" "http://www.w3.org/Graphics/SVG/1.1/DTD/svg11.dtd">
<svg version="1.1" id="Layer_3" xmlns="http://www.w3.org/2000/svg" xmlns:xlink="http://www.w3.org/1999/xlink" x="0px" y="0px"
	 viewBox="0 0 5000 5000" enable-background="new 0 0 5000 5000" xml:space="preserve">
<path fill="#141413" d="M3108.3,3367.1H1950.2c-38.9,0-70.4-28.1-70.4-62.7V1695.7c0-34.7,31.5-62.7,70.4-62.7h1158.1
	c38.9,0,70.4,28.1,70.4,62.7v1608.6C3178.7,3339,3147.2,3367.1,3108.3,3367.1z"/>
<path fill="#333330" d="M3093.9,3356.5H1967.1c-37.8,0-68.5-27.6-68.5-61.6V1714.4c0-34,30.7-61.6,68.5-61.6h1126.8
	c37.8,0,68.5,27.6,68.5,61.6v1580.4C3162.3,3328.9,3131.7,3356.5,3093.9,3356.5z"/>
<path fill="#1E1E1C" d="M3083.5,3352.3h-1113c-37.4,0-67.6-27.3-67.6-60.9V1729.3c0-33.7,30.3-60.9,67.6-60.9h1113
	c37.4,0,67.6,27.3,67.6,60.9v1562.1C3151.2,3325.1,3120.9,3352.3,3083.5,3352.3z"/>
<ellipse fill="#7F7F7A" cx="2018.3" cy="1733.8" rx="32.2" ry="30.9"/>
<ellipse fill="#FFFFFF" cx="2018.3" cy="1733.8" rx="28.1" ry="27"/>
<ellipse fill="#2A2A2B" cx="2018.3" cy="1733.8" rx="26.3" ry="25.3"/>
<ellipse fill="#EBEBED" cx="2031.7" cy="1724.6" rx="3.8" ry="3.6"/>
<polygon fill="#262623" points="2736,1672 2414,1672 3151.2,2664.7 3151.2,2240.3 "/>
<path fill-rule="evenodd" clip-rule="evenodd" fill="#141413" d="M2478,2355.7c8,0,17.6,1.6,29,4.7c11.3,3.2,18.9,4.7,22.6,4.7
	c4.8,0,12.6-1.8,23.5-5.4c10.9-3.6,20.3-5.4,28.2-5.4c13.1,0,24.7,3.4,35,10.1c5.7,3.9,11.4,9.1,17.1,15.8
	c-8.5,6.9-14.7,13.1-18.7,18.5c-7.1,9.8-10.7,20.6-10.7,32.4c0,13,3.8,24.6,11.3,35.1c7.6,10.4,16.2,17,25.9,19.7
	c-4,12.6-10.7,25.7-20.1,39.3c-14.2,20.5-28.2,30.8-42.1,30.8c-5.5,0-13.2-1.7-22.9-5.1c-9.7-3.4-18-5-24.7-5
	c-6.7,0-14.5,1.8-23.4,5.3c-8.9,3.5-16.1,5.3-21.6,5.3c-16.7,0-33.1-13.6-49.2-40.7c-16.1-26.8-24.1-53.2-24.1-79
	c0-24,6.1-43.5,18.4-58.6C2443.8,2363.3,2459.3,2355.7,2478,2355.7L2478,2355.7z"/>
<path fill-rule="evenodd" clip-rule="evenodd" fill="#262625" d="M2578.6,2295.4c0.4,1.3,0.7,2.5,0.8,3.5c0.1,1,0.2,2,0.2,3.1
	c0,6.5-1.6,13.7-4.8,21.4c-3.2,7.8-8.2,15-15.2,21.6c-6,5.6-11.9,9.4-17.7,11.3c-3.7,1.1-9.4,2-16.9,2.6
	c0.2-15.5,4.4-28.9,12.7-40.3C2545.9,2307.4,2559.5,2299.6,2578.6,2295.4L2578.6,2295.4z"/>
<g>
	<path fill="#262625" d="M2621,2525.5c9.4-13.7,16.1-26.8,20.1-39.3c-9.7-2.8-18.3-9.3-25.9-19.7c-7.6-10.4-11.3-22.1-11.3-35.1
		c0-11.8,3.6-22.7,10.7-32.4c3.9-5.4,10.2-11.6,18.7-18.5c-5.6-6.6-11.3-11.9-17.1-15.8c-10.2-6.7-21.9-10.1-35-10.1
		c-8,0-17.4,1.8-28.2,5.4c-10.9,3.6-18.7,5.4-23.5,5.4c-3.7,0-11.3-1.6-22.6-4.7c-10.9-3.1-20.3-4.6-28.1-4.7
		c38.9,54.3,95,133.3,130,184.7C2613,2536.3,2617,2531.3,2621,2525.5z"/>
	<path fill="#262625" d="M2478.9,2355.8c-0.3,0-0.6,0-0.9,0c-0.2,0-0.3,0-0.5,0l129.5,186.6c0.6-0.6,1.3-1.2,1.9-1.9
		C2573.9,2489.1,2517.8,2410.1,2478.9,2355.8z"/>
</g>
<g>
	<line fill="none" x1="3155.6" y1="1731.2" x2="3155.6" y2="2035.2"/>
</g>
</svg>
