<?xml version="1.0" encoding="utf-8"?>
<!-- Generator: Adobe Illustrator 17.1.0, SVG Export Plug-In . SVG Version: 6.00 Build 0)  -->
<!DOCTYPE svg PUBLIC "-//W3C//DTD SVG 1.1//EN" "http://www.w3.org/Graphics/SVG/1.1/DTD/svg11.dtd">
<svg version="1.1" id="Layer_3" xmlns="http://www.w3.org/2000/svg" xmlns:xlink="http://www.w3.org/1999/xlink" x="0px" y="0px"
	 viewBox="0 0 5000 5000" enable-background="new 0 0 5000 5000" xml:space="preserve">
<path fill="#D1AA95" d="M3102.2,3342.3H1978.9c-37.7,0-68.3-27.3-68.3-61V1716.7c0-33.7,30.6-61,68.3-61h1123.3
	c37.7,0,68.3,27.3,68.3,61v1564.6C3170.5,3315,3139.9,3342.3,3102.2,3342.3z"/>
<path fill="#FFFFFF" d="M3098.5,3336.7H1982.6c-37.5,0-67.8-27.1-67.8-60.4V1727c0-33.4,30.4-60.4,67.8-60.4h1115.9
	c37.5,0,67.8,27.1,67.8,60.4v1549.2C3166.3,3309.7,3136,3336.7,3098.5,3336.7z"/>
<rect x="1975.8" y="1800.3" fill="#272827" width="1129.5" height="1371.2"/>
<ellipse fill="#343434" cx="2527.6" cy="1737.4" rx="12.9" ry="12.4"/>
<ellipse fill="#EACAB5" cx="2527.6" cy="3261.9" rx="59" ry="56.5"/>
<ellipse fill="#DBB7A2" cx="2527.6" cy="3261.9" rx="52.2" ry="50"/>
<ellipse fill="#FFFFFF" cx="2527.6" cy="3261.9" rx="45" ry="43.2"/>
<g>
	<polygon fill="#333333" points="3105.3,1800.3 2012.4,1800.3 3105.3,3004.1 	"/>
</g>
</svg>
