<?xml version="1.0" encoding="utf-8"?>
<!-- Generator: Adobe Illustrator 17.1.0, SVG Export Plug-In . SVG Version: 6.00 Build 0)  -->
<!DOCTYPE svg PUBLIC "-//W3C//DTD SVG 1.1//EN" "http://www.w3.org/Graphics/SVG/1.1/DTD/svg11.dtd">
<svg version="1.1" id="Layer_2" xmlns="http://www.w3.org/2000/svg" xmlns:xlink="http://www.w3.org/1999/xlink" x="0px" y="0px"
	 viewBox="0 0 5000 5000" enable-background="new 0 0 5000 5000" xml:space="preserve">
<path fill="#D6D6D8" d="M3053.3,3353.9H2002.8c-35.3,0-63.8-27.8-63.8-62.1V1701.1c0-34.3,28.6-62.1,63.8-62.1h1050.5
	c35.3,0,63.8,27.8,63.8,62.1v1590.8C3117.2,3326.1,3088.6,3353.9,3053.3,3353.9z"/>
<path fill="#FFFFFF" d="M3049.9,3348.2H2006.3c-35,0-63.4-27.5-63.4-61.4V1711.6c0-33.9,28.4-61.4,63.4-61.4h1043.6
	c35,0,63.4,27.5,63.4,61.4v1575.1C3113.3,3320.7,3084.9,3348.2,3049.9,3348.2z"/>
<rect x="1999.9" y="1786" fill="#272827" width="1056.3" height="1394.1"/>
<ellipse fill="#343434" cx="2516" cy="1722.1" rx="12.1" ry="12.6"/>
<ellipse fill="#EDEDED" cx="2516" cy="3272.1" rx="55.1" ry="57.5"/>
<ellipse fill="#DBDBDB" cx="2516" cy="3272.1" rx="48.8" ry="50.9"/>
<ellipse fill="#FFFFFF" cx="2516" cy="3272.1" rx="40.1" ry="41.8"/>
<g>
	<polygon fill="#333333" points="3056.2,1786 2034.2,1786 3056.2,3010 	"/>
</g>
</svg>
