<?xml version="1.0" encoding="utf-8"?>
<!-- Generator: Adobe Illustrator 17.1.0, SVG Export Plug-In . SVG Version: 6.00 Build 0)  -->
<!DOCTYPE svg PUBLIC "-//W3C//DTD SVG 1.1//EN" "http://www.w3.org/Graphics/SVG/1.1/DTD/svg11.dtd">
<svg version="1.1" id="Layer_3" xmlns="http://www.w3.org/2000/svg" xmlns:xlink="http://www.w3.org/1999/xlink" x="0px" y="0px"
	 viewBox="0 0 5000 5000" enable-background="new 0 0 5000 5000" xml:space="preserve">
<path fill="#E2E2E2" d="M3050.4,3358.3H1998c-35.3,0-64-27.9-64-62.2V1701.2c0-34.4,28.6-62.2,64-62.2h1052.4
	c35.3,0,64,27.9,64,62.2V3296C3114.4,3330.4,3085.7,3358.3,3050.4,3358.3z"/>
<path fill="#F4F4F4" d="M3031.7,3343.7H2016.7c-34.1,0-61.7-27.4-61.7-61.1V1715.6c0-33.8,27.6-61.1,61.7-61.1h1014.9
	c34.1,0,61.7,27.4,61.7,61.1v1566.9C3093.3,3316.3,3065.7,3343.7,3031.7,3343.7z"/>
<ellipse fill="#D6D6D6" cx="2059.8" cy="1740" rx="29.3" ry="30.5"/>
<ellipse fill="#FFFFFF" cx="2059.8" cy="1740" rx="25.6" ry="26.7"/>
<ellipse fill="#2A2A2B" cx="2059.8" cy="1740" rx="23.9" ry="25"/>
<ellipse fill="#EBEBED" cx="2072" cy="1730.9" rx="3.4" ry="3.6"/>
<polygon fill="#FFFFFF" points="2720.6,1656.5 2419.4,1656.5 3093.3,2659.8 3093.3,2220.6 "/>
<path fill-rule="evenodd" clip-rule="evenodd" fill="#434445" d="M2477.6,2354.5c7.3,0,16,1.6,26.3,4.7c10.3,3.1,17.1,4.7,20.5,4.7
	c4.4,0,11.5-1.8,21.3-5.3c9.9-3.5,18.4-5.3,25.7-5.3c11.9,0,22.5,3.3,31.8,10c5.2,3.8,10.4,9,15.5,15.6c-7.7,6.9-13.4,13-17,18.3
	c-6.5,9.7-9.7,20.4-9.7,32.1c0,12.8,3.4,24.3,10.3,34.6c6.9,10.3,14.7,16.8,23.5,19.5c-3.7,12.4-9.8,25.4-18.3,38.9
	c-12.9,20.3-25.6,30.4-38.3,30.4c-5,0-12-1.7-20.8-5c-8.8-3.3-16.3-5-22.4-5c-6.1,0-13.2,1.7-21.2,5.2c-8.1,3.5-14.6,5.2-19.7,5.2
	c-15.2,0-30.1-13.4-44.7-40.2c-14.6-26.5-21.9-52.5-21.9-78c0-23.7,5.6-43,16.7-57.9C2446.5,2361.9,2460.6,2354.5,2477.6,2354.5
	L2477.6,2354.5z"/>
<path fill-rule="evenodd" clip-rule="evenodd" fill="#6C6E70" d="M2569,2294.9c0.4,1.3,0.6,2.5,0.7,3.5c0.1,1,0.1,2,0.1,3
	c0,6.5-1.5,13.5-4.4,21.2c-2.9,7.7-7.5,14.8-13.8,21.3c-5.4,5.5-10.8,9.3-16.1,11.2c-3.4,1.1-8.5,2-15.4,2.6
	c0.2-15.3,4-28.6,11.5-39.8C2539.3,2306.7,2551.7,2299,2569,2294.9L2569,2294.9z"/>
<g>
	<path fill="#6C6E70" d="M2607.6,2522.2c8.5-13.5,14.6-26.5,18.3-38.9c-8.8-2.7-16.6-9.2-23.5-19.5c-6.9-10.3-10.3-21.8-10.3-34.6
		c0-11.7,3.2-22.4,9.7-32.1c3.6-5.3,9.2-11.4,17-18.3c-5.1-6.6-10.3-11.7-15.5-15.6c-9.3-6.7-19.9-10-31.8-10
		c-7.3,0-15.8,1.8-25.7,5.3c-9.9,3.5-17,5.3-21.3,5.3c-3.4,0-10.2-1.6-20.5-4.7c-9.9-3-18.4-4.5-25.5-4.6
		c35.3,53.7,86.3,131.7,118.2,182.4C2600.3,2532.8,2603.9,2528,2607.6,2522.2z"/>
	<path fill="#6C6E70" d="M2478.4,2354.5c-0.3,0-0.6,0-0.8,0c-0.2,0-0.3,0-0.5,0l117.7,184.3c0.6-0.6,1.1-1.2,1.7-1.9
		C2564.8,2486.2,2513.8,2408.2,2478.4,2354.5z"/>
</g>
<g>
	<line fill="none" x1="3093.3" y1="1737.4" x2="3093.3" y2="2037.8"/>
</g>
</svg>
