<?xml version="1.0" encoding="utf-8"?>
<!-- Generator: Adobe Illustrator 17.1.0, SVG Export Plug-In . SVG Version: 6.00 Build 0)  -->
<!DOCTYPE svg PUBLIC "-//W3C//DTD SVG 1.1//EN" "http://www.w3.org/Graphics/SVG/1.1/DTD/svg11.dtd">
<svg version="1.1" id="Layer_2" xmlns="http://www.w3.org/2000/svg" xmlns:xlink="http://www.w3.org/1999/xlink" x="0px" y="0px"
	 viewBox="0 0 5000 5000" enable-background="new 0 0 5000 5000" xml:space="preserve">
<path fill="#141413" d="M3087.2,3337.1H1970.8c-37.5,0-67.8-27.2-67.8-60.7v-1555c0-33.5,30.4-60.7,67.8-60.7h1116.4
	c37.5,0,67.8,27.2,67.8,60.7v1555C3155.1,3310,3124.7,3337.1,3087.2,3337.1z"/>
<path fill="#1E1E1C" d="M3083.6,3331.6H1974.5c-37.2,0-67.4-26.9-67.4-60.1V1731.8c0-33.2,30.2-60.1,67.4-60.1h1109.1
	c37.2,0,67.4,26.9,67.4,60.1v1539.7C3151,3304.7,3120.8,3331.6,3083.6,3331.6z"/>
<g>
	<path fill="#282826" d="M3151,1731.8c0-33.2-30.2-60.1-67.4-60.1H1974.5c-27.2,0-56.8,39.4-67.4,60.1L3151,3089.7V1731.8z"/>
</g>
<rect x="1967.7" y="1817.6" fill="#0C0C0C" width="1122.6" height="1362.7"/>
<ellipse cx="2516.2" cy="1742.1" rx="12.8" ry="12.3"/>
<ellipse fill="#3A3A39" cx="2529" cy="3258.5" rx="54.6" ry="52.3"/>
<ellipse fill="#282828" cx="2529" cy="3258.5" rx="48.3" ry="46.3"/>
<ellipse fill="#1E1E1C" cx="2529" cy="3258.5" rx="41.3" ry="39.6"/>
<g>
	<polygon fill="#161616" points="3090.3,1817.6 2004.1,1817.6 3090.3,3030 	"/>
</g>
</svg>
