<?xml version="1.0" encoding="utf-8"?>
<!-- Generator: Adobe Illustrator 17.1.0, SVG Export Plug-In . SVG Version: 6.00 Build 0)  -->
<!DOCTYPE svg PUBLIC "-//W3C//DTD SVG 1.1//EN" "http://www.w3.org/Graphics/SVG/1.1/DTD/svg11.dtd">
<svg version="1.1" id="Layer_2" xmlns="http://www.w3.org/2000/svg" xmlns:xlink="http://www.w3.org/1999/xlink" x="0px" y="0px"
	 viewBox="0 0 5000 5000" enable-background="new 0 0 5000 5000" xml:space="preserve">
<path fill="#CCB5AA" d="M3082.7,3389.2H1974.6c-38.3,0-69.4-31.1-69.4-69.4V1786.7c0-38.3,31.1-69.4,69.4-69.4h1108.1
	c38.3,0,69.4,31.1,69.4,69.4v1533.1C3152.2,3358.2,3121.1,3389.2,3082.7,3389.2z"/>
<path fill="#ECD6C7" d="M3065,3374.3H1992.3c-36,0-65.2-26.6-65.2-59.4V1791.6c0-32.8,29.2-59.4,65.2-59.4H3065
	c36,0,65.2,26.6,65.2,59.4v1523.3C3130.2,3347.7,3101.1,3374.3,3065,3374.3z"/>
<ellipse fill="#FFE7DC" cx="2037.9" cy="1815.3" rx="30.9" ry="29.7"/>
<ellipse fill="#FFFFFF" cx="2037.9" cy="1815.3" rx="27" ry="25.9"/>
<ellipse fill="#2A2A2B" cx="2037.9" cy="1815.3" rx="25.3" ry="24.3"/>
<ellipse fill="#EBEBED" cx="2050.8" cy="1806.4" rx="3.6" ry="3.5"/>
<polygon fill="#EFE3DF" points="2736.3,1734.1 2417.9,1734.1 3130.2,2709.5 3130.2,2282.5 "/>
<path fill-rule="evenodd" clip-rule="evenodd" fill="#AF968C" d="M2479.5,2412.7c7.7,0,16.9,1.5,27.8,4.6c10.9,3,18.1,4.6,21.7,4.6
	c4.6,0,12.1-1.7,22.5-5.1c10.4-3.4,19.5-5.1,27.1-5.1c12.6,0,23.8,3.2,33.6,9.7c5.5,3.7,11,8.8,16.4,15.1
	c-8.2,6.7-14.2,12.6-17.9,17.8c-6.9,9.4-10.3,19.8-10.3,31.2c0,12.5,3.6,23.7,10.9,33.7c7.3,10,15.5,16.3,24.8,19
	c-3.9,12.1-10.3,24.7-19.3,37.8c-13.6,19.7-27.1,29.5-40.5,29.5c-5.3,0-12.6-1.6-22-4.9c-9.4-3.2-17.2-4.8-23.7-4.8
	s-13.9,1.7-22.5,5.1c-8.5,3.4-15.5,5.1-20.8,5.1c-16,0-31.8-13-47.2-39.1c-15.4-25.8-23.1-51.1-23.1-75.9c0-23,5.9-41.8,17.7-56.3
	C2446.6,2419.9,2461.5,2412.7,2479.5,2412.7L2479.5,2412.7z"/>
<path fill-rule="evenodd" clip-rule="evenodd" fill="#EFE3DF" d="M2576,2354.7c0.4,1.3,0.7,2.4,0.8,3.4c0.1,1,0.2,2,0.2,2.9
	c0,6.3-1.5,13.1-4.6,20.6c-3.1,7.5-7.9,14.4-14.6,20.7c-5.7,5.4-11.4,9-17,10.9c-3.6,1.1-9,1.9-16.2,2.5
	c0.2-14.9,4.3-27.8,12.2-38.7C2544.6,2366.2,2557.7,2358.8,2576,2354.7L2576,2354.7z"/>
<g>
	<g>
		<g>
			<path fill="#EFE3DF" d="M2616.8,2575.7c9-13.1,15.4-25.7,19.3-37.8c-9.3-2.6-17.6-9-24.8-19c-7.3-10-10.9-21.2-10.9-33.7
				c0-11.4,3.4-21.8,10.3-31.2c3.8-5.2,9.8-11.1,17.9-17.8c-5.4-6.4-10.9-11.4-16.4-15.1c-9.8-6.5-21-9.7-33.6-9.7
				c-7.7,0-16.7,1.7-27.1,5.1c-10.4,3.4-17.9,5.1-22.5,5.1c-3.6,0-10.8-1.5-21.7-4.6c-10.5-2.9-19.5-4.4-27-4.5
				c37.3,52.2,91.3,128.1,124.9,177.4C2609.1,2586,2612.9,2581.3,2616.8,2575.7z"/>
		</g>
		<path fill="#EFE3DF" d="M2480.3,2412.7c-0.3,0-0.6,0-0.9,0c-0.2,0-0.3,0-0.5,0l124.4,179.2c0.6-0.6,1.2-1.2,1.8-1.8
			C2571.6,2540.8,2517.6,2464.9,2480.3,2412.7z"/>
	</g>
</g>
<g>
	<line fill="none" x1="3130.2" y1="1812.8" x2="3130.2" y2="2104.8"/>
</g>
</svg>
