<?xml version="1.0" encoding="utf-8"?>
<!-- Generator: Adobe Illustrator 17.1.0, SVG Export Plug-In . SVG Version: 6.00 Build 0)  -->
<!DOCTYPE svg PUBLIC "-//W3C//DTD SVG 1.1//EN" "http://www.w3.org/Graphics/SVG/1.1/DTD/svg11.dtd">
<svg version="1.1" id="Layer_2" xmlns="http://www.w3.org/2000/svg" xmlns:xlink="http://www.w3.org/1999/xlink" x="0px" y="0px"
	 viewBox="0 0 5000 5000" enable-background="new 0 0 5000 5000" xml:space="preserve">
<path fill="#BCBCBC" d="M2727.5,3088.4h-431.8c-35.3,0-63.9-29.8-63.9-66.7V1970.5c0-36.8,28.6-66.7,63.9-66.7h431.8
	c35.3,0,63.9,29.8,63.9,66.7v1051.3C2791.4,3058.6,2762.8,3088.4,2727.5,3088.4z"/>
<path fill="#EAEAEA" d="M2721,3081.9h-418.9c-34.3,0-62-29.5-62-65.9V1976.3c0-36.4,27.8-65.9,62-65.9H2721c34.3,0,62,29.5,62,65.9
	v1039.6C2783.1,3052.3,2755.3,3081.9,2721,3081.9z"/>
<g>
	<g>
		<line fill="#C9C7C9" x1="2783.1" y1="1984.7" x2="2783.1" y2="2000"/>
		<line fill="#C9C7C9" x1="2783.1" y1="3000.6" x2="2783.1" y2="3015.9"/>
		<g>
			<rect x="2240.1" y="3000.6" fill="#C9C7C9" width="543" height="15.3"/>
		</g>
		<g>
			<rect x="2240.1" y="1984.7" fill="#C9C7C9" width="543" height="15.3"/>
		</g>
	</g>
</g>
<g>
	<g>
		<path fill="#FFFDFF" d="M2747.8,3075l20.7-18.8C2763,3064,2756,3070.4,2747.8,3075z"/>
		<g>
			<path fill="#FFFDFF" d="M2743.8,1917.2l4.1,1157.8c8.1-4.6,15.2-11,20.7-18.8l-3.3-1122.1
				C2759.3,1927,2752.1,1921.1,2743.8,1917.2z"/>
		</g>
	</g>
</g>
<g>
	<g>
		<g>
			<path fill="#D3D1D3" d="M2756.8,3056.2c-16.1,12.4-34,16-53.6,16h-381.4c-28.8,0-38.1,2.4-58.6-16c-3.9-3.5-18.8-21.3-21.5-25.6
				c5.1,34,26.3,51.2,60.4,51.2H2721c28.8,0,52.9-20.9,59.9-49.1C2773.7,3040.9,2764.1,3050.6,2756.8,3056.2z"/>
		</g>
		<g>
			<path fill="#D3D1D3" d="M2321.8,1923.5h381.4c19.9,0,37.6,1.4,53.6,13.8c7.6,5.9,17.7,18.2,25.2,26.9
				c-5.4-30.6-22.4-53.8-60.9-53.8h-418.9c-47.9,0-55.8,31.1-60.5,51.5c2.8-4.4,2.8-4.4,2.8-4.4
				C2261.3,1933.1,2293,1923.5,2321.8,1923.5z"/>
		</g>
	</g>
</g>
<path fill-rule="evenodd" clip-rule="evenodd" fill="#F2F2F2" d="M2489.2,2228.4c3.7,0,8.1,0.8,13.3,2.4c5.2,1.6,8.7,2.4,10.4,2.4
	c2.2,0,5.8-0.9,10.8-2.7c5-1.8,9.3-2.7,13-2.7c6,0,11.4,1.7,16.1,5.1c2.6,1.9,5.3,4.6,7.9,7.9c-3.9,3.5-6.8,6.6-8.6,9.3
	c-3.3,4.9-4.9,10.3-4.9,16.3c0,6.5,1.7,12.3,5.2,17.6c3.5,5.2,7.4,8.5,11.9,9.9c-1.9,6.3-5,12.9-9.3,19.7
	c-6.5,10.3-13,15.4-19.4,15.4c-2.6,0-6.1-0.8-10.5-2.5c-4.5-1.7-8.3-2.5-11.4-2.5c-3.1,0-6.7,0.9-10.8,2.6c-4.1,1.8-7.4,2.6-10,2.6
	c-7.7,0-15.2-6.8-22.6-20.4c-7.4-13.4-11.1-26.6-11.1-39.6c0-12,2.8-21.8,8.5-29.4C2473.4,2232.2,2480.6,2228.4,2489.2,2228.4
	L2489.2,2228.4z"/>
<path fill-rule="evenodd" clip-rule="evenodd" fill="#FFFDFF" d="M2535.5,2198.2c0.2,0.7,0.3,1.3,0.4,1.8c0,0.5,0.1,1,0.1,1.5
	c0,3.3-0.7,6.8-2.2,10.7c-1.5,3.9-3.8,7.5-7,10.8c-2.7,2.8-5.5,4.7-8.2,5.7c-1.7,0.6-4.3,1-7.8,1.3c0.1-7.8,2-14.5,5.8-20.2
	C2520.4,2204.2,2526.7,2200.3,2535.5,2198.2L2535.5,2198.2z"/>
<g>
	<g>
		<g>
			<path fill="#FFFDFF" d="M2555.1,2313.4c4.3-6.8,7.4-13.4,9.3-19.7c-4.5-1.4-8.4-4.7-11.9-9.9c-3.5-5.2-5.2-11.1-5.2-17.6
				c0-5.9,1.6-11.3,4.9-16.3c1.8-2.7,4.7-5.8,8.6-9.3c-2.6-3.3-5.2-6-7.9-7.9c-4.7-3.4-10.1-5.1-16.1-5.1c-3.7,0-8,0.9-13,2.7
				c-5,1.8-8.6,2.7-10.8,2.7c-1.7,0-5.2-0.8-10.4-2.4c-5-1.5-9.3-2.3-12.9-2.4c17.9,27.2,43.8,66.8,59.9,92.5
				C2551.3,2318.8,2553.2,2316.3,2555.1,2313.4z"/>
		</g>
		<path fill="#FFFDFF" d="M2489.6,2228.4c-0.1,0-0.3,0-0.4,0c-0.1,0-0.2,0-0.2,0l59.7,93.4c0.3-0.3,0.6-0.6,0.9-0.9
			C2533.4,2295.2,2507.5,2255.6,2489.6,2228.4z"/>
	</g>
</g>
<path fill="#EAEAEA" d="M2789.7,2233.7h-1.1v-67.2h1.8c1.9,0,3.5,2.4,3.5,5.5v55.2C2793.9,2230.8,2792,2233.7,2789.7,2233.7z"/>
<path fill="#EAEAEA" d="M2788.9,2314.9h-0.3v-67.2h1.3c2.2,0,4,2.8,4,6.1v53.3C2793.9,2311.4,2791.7,2314.9,2788.9,2314.9z"/>
<path fill="#EAEAEA" d="M2233.3,2231.8h1.1v-67.2h-1.8c-1.9,0-3.5,2.4-3.5,5.5v55.2C2229.1,2228.8,2231,2231.8,2233.3,2231.8z"/>
<path fill="#EAEAEA" d="M2790.3,2142.2h-0.8v-30.8h1.3c1.4,0,2.5,1.1,2.5,2.5v25.3C2793.3,2140.8,2791.9,2142.2,2790.3,2142.2z"/>
<ellipse fill="#4C4C4C" cx="2312.8" cy="1953.7" rx="25.7" ry="26.8"/>
<ellipse fill="#EAE9E8" cx="2312.8" cy="1953.7" rx="24.6" ry="25.7"/>
<ellipse fill="#FFFFFF" cx="2312.8" cy="1953.7" rx="22.1" ry="23.1"/>
<ellipse fill="#000005" cx="2312.8" cy="1953.7" rx="20.1" ry="21"/>
<ellipse fill="#36383A" cx="2312.8" cy="1953.7" rx="15.9" ry="16.6"/>
<ellipse fill="#2E5672" cx="2312.8" cy="1953.7" rx="11.6" ry="12.1"/>
<ellipse fill="#446D84" cx="2312.8" cy="1953.7" rx="9" ry="9.4"/>
<ellipse fill="#CEC4BE" cx="2319.4" cy="1962.8" rx="2.9" ry="3"/>
<ellipse fill="#EFEEED" cx="2356" cy="1955.1" rx="7.1" ry="7.4"/>
<ellipse fill="#545454" cx="2356" cy="1955.1" rx="5" ry="5.2"/>
<ellipse fill="#C9C9C9" cx="2384.5" cy="1953.7" rx="12" ry="12.5"/>
<ellipse fill="#EADCCD" cx="2384.5" cy="1953.7" rx="10.8" ry="11.2"/>
<g>
	<path fill="#F2E7DD" d="M2395.3,1953.7c0-6.2-4.8-11.2-10.8-11.2c-1.7,0-3.2,0.4-4.7,1.1l14.3,15.1
		C2394.9,1957.2,2395.3,1955.5,2395.3,1953.7z"/>
</g>
</svg>
