<?xml version="1.0" encoding="utf-8"?>
<!-- Generator: Adobe Illustrator 17.1.0, SVG Export Plug-In . SVG Version: 6.00 Build 0)  -->
<!DOCTYPE svg PUBLIC "-//W3C//DTD SVG 1.1//EN" "http://www.w3.org/Graphics/SVG/1.1/DTD/svg11.dtd">
<svg version="1.1" id="Layer_2" xmlns="http://www.w3.org/2000/svg" xmlns:xlink="http://www.w3.org/1999/xlink" x="0px" y="0px"
	 viewBox="0 0 5000 5000" enable-background="new 0 0 5000 5000" xml:space="preserve">
<path fill="#C1A595" d="M2737.9,3013h-443.1c-33.9,0-61.4-27.5-61.4-61.5v-1074c0-23.8,20.7-61.5,61.4-61.5h443.1
	c50.7,6.2,61.1,40.5,61.4,61.5v1074C2796.3,2989.2,2767.8,3013,2737.9,3013z"/>
<path fill="#ECD6C7" d="M2728,3006.9h-423.7c-34.6,0-62.7-29.8-62.7-66.7V1888.8c0-36.8,28.1-66.7,62.7-66.7H2728
	c34.6,0,62.7,29.8,62.7,66.7v1051.4C2790.7,2977,2762.6,3006.9,2728,3006.9z"/>
<g>
	<line fill="none" x1="2790.7" y1="1897.3" x2="2790.7" y2="1912.8"/>
	<line fill="none" x1="2790.7" y1="2924.7" x2="2790.7" y2="2940.2"/>
	<rect x="2241.6" y="2924.7" fill="#FCF2EB" width="549.1" height="15.5"/>
	<rect x="2241.6" y="1897.3" fill="#FCF2EB" width="549.1" height="15.5"/>
</g>
<g>
	<g>
		<path fill="#F2DFD3" d="M2757.3,2998.8l20.9-19C2772.7,2987.6,2765.6,2994.1,2757.3,2998.8z"/>
		<g>
			<path fill="#F2DFD3" d="M2753.2,1827.9l4.1,1170.9c8.2-4.7,15.4-11.1,20.9-19l-3.3-1134.7
				C2768.9,1837.8,2761.6,1831.8,2753.2,1827.9z"/>
		</g>
	</g>
</g>
<g>
	<g>
		<g>
			<path fill="#F2E6DD" d="M2764.1,2981c-16.3,12.5-34.4,16.2-54.2,16.2h-385.7c-29.1,0-38.6,2.4-59.2-16.2
				c-3.9-3.5-19-21.5-21.7-25.9c10.1,33,26.6,51.8,61.1,51.8H2728c29.1,0,53.5-21.1,60.6-49.7
				C2781.3,2965.4,2771.5,2975.3,2764.1,2981z"/>
		</g>
		<g>
			<path fill="#F2E6DD" d="M2324.2,1835.4h385.7c20.2,0,38,1.4,54.2,14c7.7,6,17.9,18.4,25.4,27.2c-5.4-31-30.9-54.4-61.6-54.4
				h-423.7c-43.9,5.8-56.4,31.4-61.2,52c2.8-4.5,2.8-4.5,2.8-4.5C2263,1845.1,2295.1,1835.4,2324.2,1835.4z"/>
		</g>
	</g>
</g>
<path fill-rule="evenodd" clip-rule="evenodd" fill="#A08477" d="M2493.5,2143.8c3.7,0,8.2,0.8,13.5,2.4c5.3,1.6,8.8,2.4,10.5,2.4
	c2.2,0,5.9-0.9,10.9-2.7c5.1-1.8,9.4-2.7,13.2-2.7c6.1,0,11.5,1.7,16.3,5.1c2.7,2,5.3,4.6,8,8c-4,3.5-6.9,6.6-8.7,9.4
	c-3.3,5-5,10.4-5,16.4c0,6.6,1.8,12.5,5.3,17.8c3.5,5.3,7.5,8.6,12,10c-1.9,6.4-5,13-9.4,19.9c-6.6,10.4-13.1,15.6-19.6,15.6
	c-2.6,0-6.1-0.9-10.7-2.6c-4.5-1.7-8.4-2.6-11.5-2.6s-6.8,0.9-10.9,2.7c-4.1,1.8-7.5,2.7-10.1,2.7c-7.8,0-15.4-6.9-22.9-20.6
	c-7.5-13.6-11.2-26.9-11.2-40c0-12.1,2.9-22,8.6-29.7C2477.5,2147.6,2484.8,2143.8,2493.5,2143.8L2493.5,2143.8z"/>
<path fill-rule="evenodd" clip-rule="evenodd" fill="#F4E3D7" d="M2540.3,2113.2c0.2,0.7,0.3,1.3,0.4,1.8c0,0.5,0.1,1,0.1,1.6
	c0,3.3-0.7,6.9-2.2,10.9c-1.5,3.9-3.8,7.6-7.1,10.9c-2.8,2.8-5.5,4.8-8.3,5.7c-1.7,0.6-4.4,1-7.9,1.3c0.1-7.9,2.1-14.7,5.9-20.4
	C2525.1,2119.3,2531.5,2115.3,2540.3,2113.2L2540.3,2113.2z"/>
<g>
	<g>
		<g>
			<path fill="#F4E3D7" d="M2560.1,2229.7c4.4-6.9,7.5-13.6,9.4-19.9c-4.5-1.4-8.5-4.7-12-10c-3.5-5.3-5.3-11.2-5.3-17.8
				c0-6,1.7-11.5,5-16.4c1.8-2.7,4.7-5.9,8.7-9.4c-2.6-3.4-5.3-6-8-8c-4.8-3.4-10.2-5.1-16.3-5.1c-3.7,0-8.1,0.9-13.2,2.7
				c-5.1,1.8-8.7,2.7-10.9,2.7c-1.7,0-5.2-0.8-10.5-2.4c-5.1-1.5-9.4-2.3-13.1-2.4c18.1,27.5,44.3,67.5,60.6,93.5
				C2556.3,2235.2,2558.2,2232.7,2560.1,2229.7z"/>
		</g>
		<path fill="#F4E3D7" d="M2493.9,2143.8c-0.1,0-0.3,0-0.4,0c-0.1,0-0.2,0-0.2,0l60.3,94.5c0.3-0.3,0.6-0.6,0.9-1
			C2538.2,2211.3,2512,2171.3,2493.9,2143.8z"/>
	</g>
</g>
<path fill="#EACAB5" d="M2797.4,2149.1h-1.1v-68h1.8c2,0,3.6,2.5,3.6,5.5v55.8C2801.7,2146.2,2799.8,2149.1,2797.4,2149.1z"/>
<path fill="#EACAB5" d="M2796.6,2231.2h-0.3v-68h1.3c2.2,0,4,2.8,4,6.2v53.9C2801.7,2227.7,2799.4,2231.2,2796.6,2231.2z"/>
<path fill="#EACAB5" d="M2234.7,2147.2h1.1v-68h-1.8c-2,0-3.6,2.5-3.6,5.5v55.8C2230.5,2144.2,2232.4,2147.2,2234.7,2147.2z"/>
<path fill="#EACAB5" d="M2798,2056.6h-0.8v-31.2h1.3c1.4,0,2.5,1.1,2.5,2.5v25.6C2801,2055.2,2799.7,2056.6,2798,2056.6z"/>
<ellipse fill="#503C26" cx="2315.1" cy="1866" rx="26" ry="27.1"/>
<ellipse fill="#EEDAC8" cx="2315.1" cy="1866" rx="24.9" ry="26"/>
<ellipse fill="#FCF5F0" cx="2315.1" cy="1866" rx="22.4" ry="23.3"/>
<ellipse fill="#000005" cx="2315.1" cy="1866" rx="20.3" ry="21.2"/>
<ellipse fill="#36383A" cx="2315.1" cy="1866" rx="16.1" ry="16.8"/>
<ellipse fill="#2E5672" cx="2315.1" cy="1866" rx="11.8" ry="12.3"/>
<ellipse fill="#446D84" cx="2315.1" cy="1866" rx="9.1" ry="9.5"/>
<ellipse fill="#CEC4BE" cx="2321.8" cy="1875.2" rx="2.9" ry="3.1"/>
<ellipse fill="#FCF5F0" cx="2358.8" cy="1867.3" rx="7.2" ry="7.5"/>
<ellipse fill="#503C26" cx="2358.8" cy="1867.3" rx="5" ry="5.2"/>
<ellipse fill="#CCB09A" cx="2387.6" cy="1866" rx="12.1" ry="12.6"/>
<ellipse fill="#EADCCD" cx="2387.6" cy="1866" rx="10.9" ry="11.4"/>
<g>
	<path fill="#F2E7DD" d="M2398.5,1866c0-6.3-4.9-11.4-10.9-11.4c-1.7,0-3.3,0.4-4.7,1.2l14.4,15.3
		C2398.1,1869.5,2398.5,1867.8,2398.5,1866z"/>
</g>
</svg>
