<?xml version="1.0" encoding="utf-8"?>
<!-- Generator: Adobe Illustrator 17.1.0, SVG Export Plug-In . SVG Version: 6.00 Build 0)  -->
<!DOCTYPE svg PUBLIC "-//W3C//DTD SVG 1.1//EN" "http://www.w3.org/Graphics/SVG/1.1/DTD/svg11.dtd">
<svg version="1.1" id="Layer_3" xmlns="http://www.w3.org/2000/svg" xmlns:xlink="http://www.w3.org/1999/xlink" x="0px" y="0px"
	 viewBox="0 0 5000 5000" enable-background="new 0 0 5000 5000" xml:space="preserve">
<path fill="#494849" d="M2727,3087.7h-430.8c-35.2,0-63.8-29.8-63.8-66.5V1972.3c0-36.7,28.6-66.5,63.8-66.5H2727
	c35.2,0,63.8,29.8,63.8,66.5v1048.9C2790.8,3057.9,2762.2,3087.7,2727,3087.7z"/>
<path fill="#8C8B8C" d="M2720.5,3081.2h-418c-34.2,0-61.9-29.4-61.9-65.8V1978.1c0-36.3,27.7-65.8,61.9-65.8h418
	c34.2,0,61.9,29.4,61.9,65.8v1037.3C2782.4,3051.7,2754.7,3081.2,2720.5,3081.2z"/>
<g>
	<line fill="none" x1="2782.4" y1="1986.4" x2="2782.4" y2="2001.7"/>
	<line fill="none" x1="2782.4" y1="3000.1" x2="2782.4" y2="3015.4"/>
	<rect x="2240.7" y="3000.1" fill="#666666" width="541.8" height="15.3"/>
	<rect x="2240.7" y="1986.4" fill="#666666" width="541.8" height="15.3"/>
</g>
<g>
	<g>
		<path fill="#AAAAAA" d="M2747.3,3074.4l20.6-18.8C2762.5,3063.4,2755.4,3069.7,2747.3,3074.4z"/>
		<g>
			<path fill="#AAAAAA" d="M2743.2,1919.1l4.1,1155.3c8.1-4.6,15.2-11,20.6-18.8l-3.3-1119.6
				C2758.7,1928.9,2751.5,1923,2743.2,1919.1z"/>
		</g>
	</g>
</g>
<g>
	<g>
		<g>
			<path fill="#5D5B5E" d="M2756.2,3055.6c-16.1,12.3-33.9,16-53.5,16h-380.6c-28.7,0-38.1,2.4-58.4-16
				c-3.9-3.5-18.7-21.2-21.4-25.6c5,33.9,26.2,51.1,60.3,51.1h418c28.7,0,52.8-20.8,59.8-49
				C2773.1,3040.3,2763.5,3050,2756.2,3055.6z"/>
		</g>
		<g>
			<path fill="#5D5B5E" d="M2322.2,1925.4h380.6c19.9,0,37.5,1.4,53.5,13.8c7.6,5.9,17.6,18.2,25.1,26.8
				c-5.3-30.6-22.3-53.7-60.8-53.7h-418c-47.7,0-55.7,31-60.4,51.3c2.8-4.4,2.8-4.4,2.8-4.4
				C2261.8,1934.9,2293.4,1925.4,2322.2,1925.4z"/>
		</g>
	</g>
</g>
<path fill-rule="evenodd" clip-rule="evenodd" fill="#3D3B3D" d="M2489.2,2229.6c3.7,0,8.1,0.8,13.3,2.4c5.2,1.6,8.7,2.4,10.4,2.4
	c2.2,0,5.8-0.9,10.8-2.7c5-1.8,9.3-2.7,13-2.7c6,0,11.4,1.7,16.1,5c2.6,1.9,5.3,4.6,7.8,7.9c-3.9,3.5-6.8,6.6-8.6,9.3
	c-3.3,4.9-4.9,10.3-4.9,16.2c0,6.5,1.7,12.3,5.2,17.5c3.5,5.2,7.4,8.5,11.9,9.9c-1.9,6.3-4.9,12.8-9.2,19.7
	c-6.5,10.2-13,15.4-19.4,15.4c-2.5,0-6.1-0.8-10.5-2.5c-4.5-1.7-8.3-2.5-11.3-2.5c-3.1,0-6.7,0.9-10.7,2.6c-4.1,1.8-7.4,2.6-9.9,2.6
	c-7.7,0-15.2-6.8-22.6-20.3c-7.4-13.4-11.1-26.6-11.1-39.5c0-12,2.8-21.7,8.5-29.3C2473.5,2233.3,2480.6,2229.6,2489.2,2229.6
	L2489.2,2229.6z"/>
<path fill-rule="evenodd" clip-rule="evenodd" fill="#C1C1C1" d="M2535.4,2199.4c0.2,0.7,0.3,1.3,0.4,1.8c0,0.5,0.1,1,0.1,1.5
	c0,3.3-0.7,6.8-2.2,10.7c-1.5,3.9-3.8,7.5-7,10.8c-2.7,2.8-5.5,4.7-8.1,5.7c-1.7,0.6-4.3,1-7.8,1.3c0.1-7.7,2-14.5,5.8-20.1
	C2520.4,2205.4,2526.7,2201.5,2535.4,2199.4L2535.4,2199.4z"/>
<g>
	<g>
		<g>
			<path fill="#C1C1C1" d="M2554.9,2314.4c4.3-6.8,7.4-13.4,9.2-19.7c-4.5-1.4-8.4-4.7-11.9-9.9c-3.5-5.2-5.2-11-5.2-17.5
				c0-5.9,1.6-11.3,4.9-16.2c1.8-2.7,4.7-5.8,8.6-9.3c-2.6-3.3-5.2-5.9-7.8-7.9c-4.7-3.4-10-5-16.1-5c-3.7,0-8,0.9-13,2.7
				c-5,1.8-8.6,2.7-10.8,2.7c-1.7,0-5.2-0.8-10.4-2.4c-5-1.5-9.3-2.3-12.9-2.4c17.9,27.2,43.7,66.6,59.8,92.3
				C2551.2,2319.8,2553.1,2317.3,2554.9,2314.4z"/>
		</g>
		<path fill="#C1C1C1" d="M2489.6,2229.6c-0.1,0-0.3,0-0.4,0c-0.1,0-0.2,0-0.2,0l59.5,93.2c0.3-0.3,0.6-0.6,0.9-0.9
			C2533.3,2296.2,2507.5,2256.8,2489.6,2229.6z"/>
	</g>
</g>
<path fill="#C1C1C1" d="M2789.1,2234.9h-1.1v-67.1h1.8c1.9,0,3.5,2.4,3.5,5.5v55.1C2793.3,2232,2791.4,2234.9,2789.1,2234.9z"/>
<path fill="#C1C1C1" d="M2788.3,2315.9h-0.3v-67.1h1.3c2.2,0,4,2.7,4,6.1v53.2C2793.3,2312.4,2791,2315.9,2788.3,2315.9z"/>
<path fill="#8C8B8C" d="M2233.9,2233h1.1v-67.1h-1.8c-1.9,0-3.5,2.4-3.5,5.5v55.1C2229.7,2230,2231.6,2233,2233.9,2233z"/>
<path fill="#C1C1C1" d="M2789.6,2143.6h-0.8v-30.8h1.3c1.4,0,2.5,1.1,2.5,2.5v25.3C2792.6,2142.2,2791.3,2143.6,2789.6,2143.6z"/>
<ellipse fill="#4C4C4C" cx="2313.2" cy="1955.5" rx="25.6" ry="26.7"/>
<ellipse fill="#EAE9E8" cx="2313.2" cy="1955.5" rx="24.6" ry="25.6"/>
<ellipse fill="#FFFFFF" cx="2313.2" cy="1955.5" rx="22.1" ry="23"/>
<ellipse fill="#000005" cx="2313.2" cy="1955.5" rx="20" ry="20.9"/>
<ellipse fill="#36383A" cx="2313.2" cy="1955.5" rx="15.9" ry="16.5"/>
<ellipse fill="#2E5672" cx="2313.2" cy="1955.5" rx="11.6" ry="12.1"/>
<ellipse fill="#446D84" cx="2313.2" cy="1955.5" rx="9" ry="9.4"/>
<ellipse fill="#CEC4BE" cx="2319.8" cy="1964.6" rx="2.9" ry="3"/>
<ellipse fill="#EFEEED" cx="2356.4" cy="1956.9" rx="7.1" ry="7.4"/>
<ellipse fill="#545454" cx="2356.4" cy="1956.9" rx="5" ry="5.2"/>
<ellipse fill="#C9C9C9" cx="2384.8" cy="1955.5" rx="11.9" ry="12.4"/>
<ellipse fill="#EADCCD" cx="2384.8" cy="1955.5" rx="10.8" ry="11.2"/>
<g>
	<path fill="#F2E7DD" d="M2395.5,1955.5c0-6.2-4.8-11.2-10.8-11.2c-1.7,0-3.2,0.4-4.7,1.1l14.2,15.1
		C2395.1,1959,2395.5,1957.3,2395.5,1955.5z"/>
</g>
</svg>
