<?xml version="1.0" encoding="utf-8"?>
<!-- Generator: Adobe Illustrator 17.1.0, SVG Export Plug-In . SVG Version: 6.00 Build 0)  -->
<!DOCTYPE svg PUBLIC "-//W3C//DTD SVG 1.1//EN" "http://www.w3.org/Graphics/SVG/1.1/DTD/svg11.dtd">
<svg version="1.1" id="Layer_3" xmlns="http://www.w3.org/2000/svg" xmlns:xlink="http://www.w3.org/1999/xlink" x="0px" y="0px"
	 viewBox="0 0 5000 5000" enable-background="new 0 0 5000 5000" xml:space="preserve">
<path fill="#CEC8C4" d="M2731,2220L2731,2220l0.1-68.9l0.1,0c5,0,9.1,3.6,9,8l-0.2,53.1C2740.1,2216.5,2736,2220,2731,2220z"/>
<path fill="#CEC8C4" d="M2199.9,2210.8L2199.9,2210.8l0.3-68.9l-0.1,0c-5,0-9.1,3.5-9.1,7.9l-0.2,53.1
	C2190.9,2207.3,2194.9,2210.8,2199.9,2210.8z"/>
<path fill="#CEC8C4" d="M2199.6,2299.5L2199.6,2299.5l0.3-68.9l-0.1,0c-5,0-9.1,3.5-9.1,7.9l-0.2,53.1
	C2190.6,2295.9,2194.6,2299.5,2199.6,2299.5z"/>
<path fill="#CEC8C4" d="M2200.2,2131.5L2200.2,2131.5l0.2-46.2l-0.1,0c-5,0-9.1,2.4-9.1,5.3l-0.1,35.6
	C2191.1,2129.1,2195.2,2131.5,2200.2,2131.5z"/>
<path fill="#E5B893" d="M2655,3038.4l-381.9-1.3c-44.4-0.1-80.2-36.2-80.1-80.6l3.1-940.7c0.1-44.4,36.2-80.2,80.6-80.1l377.9,1.2
	c44.4,0.1,80.2,36.2,80.1,80.6l-3.1,944.7C2731.4,3004.4,2697.1,3038.5,2655,3038.4z"/>
<rect x="2196" y="2024.9" transform="matrix(1 3.294209e-003 -3.294209e-003 1 6.7112 -7.2436)" fill="#E0E0E2" width="12.4" height="17.6"/>
<rect x="2722.2" y="2026.6" transform="matrix(-1 -3.294136e-003 3.294136e-003 -1 5450.0859 4079.7544)" fill="#E0E0E2" width="12.4" height="17.6"/>
<rect x="2193" y="2932.1" transform="matrix(1 3.294209e-003 -3.294209e-003 1 9.6998 -7.2288)" fill="#E0E0E2" width="12.4" height="17.6"/>
<rect x="2719.2" y="2933.8" transform="matrix(-1 -3.294136e-003 3.294136e-003 -1 5441.1167 5894.1592)" fill="#E0E0E2" width="12.4" height="17.6"/>
<path fill="#EEEFF6" d="M2633.6,3031.6l-343.1-1.1c-63.8,2-91.4-42.1-89.2-91.5l3-905.5c-1.8-66.8,32.2-92,89.8-90.9l343.1,1.1
	c71.5,0,89.4,41.1,89.2,91.5l-3,905.5C2725.3,2992.4,2703.4,3031.7,2633.6,3031.6z"/>
<rect x="2235.2" y="2057.2" transform="matrix(1 3.294209e-003 -3.294209e-003 1 8.1772 -8.103)" fill="#2F3239" width="457.3" height="842"/>
<g>
	<polygon fill="#222428" points="2693.6,2804.8 2693.9,2898.5 2236.6,2900 2233.8,2058 2260.4,2057.9 	"/>
</g>
<circle fill="#D1D1D3" cx="2463.4" cy="2963" r="44"/>
<circle fill="#F5F5F7" cx="2463.4" cy="2963" r="40.6"/>
<circle fill="#DB9B63" cx="2463.4" cy="2963" r="38.3"/>
<circle fill="#EEEFF6" cx="2463.4" cy="2963" r="33.3"/>
<path fill="#2F3239" d="M2502.9,2000.7l-75-0.2c-2.4,0-4.3-1.2-4.3-2.7v-0.1c0-1.5,1.9-2.7,4.3-2.7l75,0.2c2.4,0,4.3,1.2,4.3,2.7
	l0,0.1C2507.2,1999.5,2505.3,2000.7,2502.9,2000.7z"/>
<circle fill="#2F3239" cx="2465.5" cy="1967.4" r="7.4"/>
<circle fill="#2F3239" cx="2403.5" cy="2003.1" r="2.7"/>
</svg>
