<?xml version="1.0" encoding="utf-8"?>
<!-- Generator: Adobe Illustrator 17.1.0, SVG Export Plug-In . SVG Version: 6.00 Build 0)  -->
<!DOCTYPE svg PUBLIC "-//W3C//DTD SVG 1.1//EN" "http://www.w3.org/Graphics/SVG/1.1/DTD/svg11.dtd">
<svg version="1.1" id="Layer_3" xmlns="http://www.w3.org/2000/svg" xmlns:xlink="http://www.w3.org/1999/xlink" x="0px" y="0px"
	 viewBox="0 0 5000 5000" enable-background="new 0 0 5000 5000" xml:space="preserve">
<g>
	<g opacity="0.2">
	</g>
	<path fill="#191919" d="M2641.3,2299.8c-4.1-4.4-8.8-8.2-13.6-11.8c-25.5-18.9-25.3-75.4-25.3-75.4v-440.7l4.9-7
		c22.8-32.2,21.1-76.7-4.2-106.9l-0.8-0.9v-107c0-3.7-0.2-7.3-0.5-11c-10.1-99.9-107.7-98.5-121.8-97.7c-1.5,0.1-2.9,0.1-4.4,0.1
		c-55,0.8-80.7,29.8-92.7,55.2c-7,14.9-10.4,31.5-10.4,48.1l0,109.9l-8.9,13.6c-18.2,27.7-17.8,64.3,0.8,91.7l8.1,11.8l-0.1,467.6
		c1.5,25.5-15.3,44.6-15.3,44.6c-31.3,28.9-43.9,50.2-43.9,50.2h354.1C2663,2324.2,2650,2309.2,2641.3,2299.8z M2601.3,1722.2
		c0,16.2-14.2,29.4-31.7,29.4h-165.8c-17.5,0-31.7-13.1-31.7-29.4v-21.4c0-16.2,14.2-29.4,31.7-29.4h165.8
		c17.5,0,31.7,13.1,31.7,29.4V1722.2z"/>
</g>
<g>
	<g>
		<g>
			<path fill="#161616" d="M2601.3,1700.8v21.4c0,14.2-10.8,26-25.2,28.7v454.3c0,30.1,11.3,59.1,31.5,80.6l45.4,48.4h14.4
				c-4.4-10-17.5-25.1-26.2-34.5c-4.1-4.4-8.8-8.2-13.6-11.8c-25.5-18.9-25.3-75.4-25.3-75.4v-440.7l4.9-7
				c22.8-32.2,21.1-76.7-4.2-106.9l-0.8-0.9v-107c0-3.7-0.2-7.3-0.5-11c-2.9-28.3-12.7-48.4-25.7-62.8v195.7
				C2590.5,1674.9,2601.3,1686.7,2601.3,1700.8z"/>
		</g>
	</g>
</g>
<g>
	<g>
		<g>
			<path fill="#161616" d="M2374.3,1700.8v21.4c0,14.2,10.8,26,25.2,28.7v454.3c0,30.1-11.3,59.1-31.5,80.6l-45.4,48.4l-10.4,24.6
				c4.4-10,13.5-49.7,22.2-59.1c4.1-4.4,8.8-8.2,13.6-11.8c25.5-18.9,25.3-75.4,25.3-75.4v-440.7l-4.9-7
				c-22.8-32.2-21.1-76.7,4.2-106.9l0.7-0.9v-107c0-3.7,0.2-7.3,0.5-11c2.9-28.3,12.7-48.4,25.7-62.8v195.7
				C2385.1,1674.9,2374.3,1686.7,2374.3,1700.8z"/>
		</g>
	</g>
</g>
<g>
	<path fill="#161616" d="M2314.7,2665.8c0,0,12.6,21.3,43.9,50.2c0,0,16.8,19.1,15.3,44.6l0.1,694.6c0,16.6,2.6,33.5,10.4,48.1
		c13.7,25.7,39.3,51.6,92.7,55.2c1.5,0.1,2.9,0,4.4,0.1c14.1,0.7,111.7,2.2,121.8-97.7c0.4-3.6,0.5-7.3,0.5-11v-662.4
		c0,0-0.2-56.5,25.3-75.4c4.8-3.6,9.5-7.4,13.6-11.8c8.7-9.4,21.7-24.4,26.2-34.5H2314.7z M2591.2,3430
		c0,51.2-29.6,106.3-77.6,111.9c-10.3,1.2-47.8,1.1-48.1,1c-55.8-5.3-78.9-56.6-78.9-116.1V2759c0-6.6,5.1-12,11.5-12H2576
		c8.4,0,15.2,7.1,15.2,15.8V3430z"/>
	<path fill="#191919" d="M2576,2747h-177.9c-6.3,0-11.5,5.4-11.5,12v667.9c0,59.5,23.1,110.7,78.9,116.1c0.3,0,37.8,0.1,48.1-1
		c48-5.5,77.6-60.7,77.6-111.9v-667.2C2591.2,2754.1,2584.4,2747,2576,2747z M2488.9,3027.5c7.3,0,13.3,6.2,13.3,13.8
		s-5.9,13.8-13.3,13.8c-7.3,0-13.3-6.2-13.3-13.8S2481.6,3027.5,2488.9,3027.5z M2488.9,3088.5c7.3,0,13.3,6.2,13.3,13.8
		c0,7.6-5.9,13.8-13.3,13.8c-7.3,0-13.3-6.2-13.3-13.8C2475.6,3094.7,2481.6,3088.5,2488.9,3088.5z M2488.9,3148.3
		c7.3,0,13.3,6.2,13.3,13.8c0,7.6-5.9,13.8-13.3,13.8c-7.3,0-13.3-6.2-13.3-13.8C2475.6,3154.5,2481.6,3148.3,2488.9,3148.3z
		 M2488.9,3213.1c7.3,0,13.3,6.2,13.3,13.8c0,7.6-5.9,13.8-13.3,13.8c-7.3,0-13.3-6.2-13.3-13.8
		C2475.6,3219.3,2481.6,3213.1,2488.9,3213.1z M2488.9,3274.1c7.3,0,13.3,6.2,13.3,13.8c0,7.6-5.9,13.8-13.3,13.8
		c-7.3,0-13.3-6.2-13.3-13.8C2475.6,3280.3,2481.6,3274.1,2488.9,3274.1z M2488.9,3333.8c7.3,0,13.3,6.2,13.3,13.8
		c0,7.6-5.9,13.8-13.3,13.8c-7.3,0-13.3-6.2-13.3-13.8C2475.6,3340,2481.6,3333.8,2488.9,3333.8z M2490.4,3422.1
		c-7.3,0-13.3-6.2-13.3-13.8c0-7.6,5.9-13.8,13.3-13.8c7.3,0,13.3,6.2,13.3,13.8C2503.7,3415.9,2497.7,3422.1,2490.4,3422.1z"/>
</g>
<path fill="#F4CD98" d="M2605.5,2730.5h-227.4c-38.1,0-69-32.2-69-71.9v-305.1c0-39.7,30.9-71.9,69-71.9h227.4
	c38.1,0,69,32.2,69,71.9v305.1C2674.5,2698.3,2643.6,2730.5,2605.5,2730.5z"/>
<path fill="#B58A61" d="M2601.3,2726.7h-221.9c-37.2,0-67.3-31.4-67.3-70.2v-297.6c0-38.8,30.1-70.2,67.3-70.2h221.9
	c37.2,0,67.3,31.4,67.3,70.2v297.6C2668.6,2695.3,2638.5,2726.7,2601.3,2726.7z"/>
<path fill="#F4CD98" d="M2600.1,2721.5h-217.7c-36.5,0-66-30.8-66-68.9v-292.1c0-38,29.6-68.9,66-68.9h217.7c36.5,0,66,30.8,66,68.9
	v292.1C2666.2,2690.7,2636.6,2721.5,2600.1,2721.5z"/>
<path fill="#FFE9CA" d="M2596.6,2714.5H2386c-35.3,0-63.9-29.8-63.9-66.6v-282.6c0-36.8,28.6-66.6,63.9-66.6h210.7
	c35.3,0,63.9,29.8,63.9,66.6v282.6C2660.5,2684.7,2631.9,2714.5,2596.6,2714.5z"/>
<path fill="#050505" d="M2593.9,2709.1h-205.2c-34.4,0-62.2-29.1-62.2-64.9V2369c0-35.8,27.9-64.9,62.2-64.9h205.2
	c34.4,0,62.2,29.1,62.2,64.9v275.3C2656.1,2680.1,2628.3,2709.1,2593.9,2709.1z"/>
<path fill="#3F3F3F" d="M2591.5,2704.4h-200.4c-33.6,0-60.8-28.4-60.8-63.4v-268.9c0-35,27.2-63.4,60.8-63.4h200.4
	c33.6,0,60.8,28.4,60.8,63.4v268.9C2652.3,2676.1,2625.1,2704.4,2591.5,2704.4z"/>
<path fill="#050505" d="M2589.5,2700.6H2393c-32.9,0-59.6-27.8-59.6-62.2v-263.6c0-34.3,26.7-62.2,59.6-62.2h196.5
	c32.9,0,59.6,27.8,59.6,62.2v263.6C2649.1,2672.8,2622.5,2700.6,2589.5,2700.6z"/>
<g>
	<path fill="#494849" d="M2649.1,2374.8c0-34.3-26.7-62.2-59.6-62.2H2393c-9.8,0-19,2.5-27.1,6.8l283.2,293.8V2374.8z"/>
</g>
<g>
	<path fill="#727172" d="M2636.3,2347l10,8.9c-7.7-25.1-30.2-43.2-56.8-43.2H2393c-9.8,0-19,2.5-27.1,6.8l2.6,2.7h202.9
		C2595.1,2322.2,2618.1,2331,2636.3,2347z"/>
</g>
<g>
	<g>
		<g>
			<path fill="#727172" d="M2627.2,2675.9c-10.8,9.3-24.4,14.4-38.5,14.4h-228.6c9.4,6.5,20.7,10.3,32.9,10.3h196.5
				c25.5,0,47.3-16.7,55.8-40.2L2627.2,2675.9z"/>
		</g>
	</g>
</g>
<path fill="#F4CD98" d="M2669.8,2626.5h-0.1v-112.6h4.1c4.9,0,8.9,4.2,8.9,9.3v89.9C2682.7,2620.5,2676.9,2626.5,2669.8,2626.5z"/>
<g>
	<g>
		<path fill="#DDB07A" d="M2676.2,2624.7l3.4-3C2678.6,2622.9,2677.5,2623.9,2676.2,2624.7z"/>
		<g>
			<path fill="#DDB07A" d="M2676.2,2514.2v110.5c1.3-0.8,2.5-1.8,3.4-3v-105.5C2678.6,2515.3,2677.5,2514.6,2676.2,2514.2z"/>
		</g>
	</g>
</g>
<g>
	<path fill="none" d="M2676.2,2624.7c-0.9,0.6-1.9,1-3,1.3L2676.2,2624.7z"/>
	<path fill="#FFF5EB" d="M2674.4,2513.9l-1.2,112.1c1.1-0.3,2.1-0.7,3-1.3v-110.5C2675.6,2514.1,2675,2513.9,2674.4,2513.9z"/>
</g>
<path fill="#B58A61" d="M2673,2392.4c-4.1,9.6-13.2,36.9-0.1,67.2c1,2.4,3.4,4,5.9,4h9.4c2.3,0,4.4-1.4,5.3-3.6
	c0.7-1.6,1.3-3.8,1.5-6.8v-54c0-3.4-1.4-6.7-4-8.8c0,0-0.1-0.1-0.1-0.1c-1.5-1.2-3.5-1.7-5.4-1.7h-7
	C2676.1,2388.7,2674,2390.1,2673,2392.4z"/>
<g>
	<g>
		<g>
			<path fill="#C69A75" d="M2693.4,2393c-0.6-0.9-1.3-1.8-2.1-2.5c0,0-0.1-0.1-0.1-0.1c-1.1-0.9-2.4-1.4-3.8-1.6
				c-4.9,0.5-12.8,2.1-16.7,9.9c-0.6,1.8-0.4,1.4-1.1,3.7C2673.4,2397.5,2680.9,2391.5,2693.4,2393z"/>
		</g>
	</g>
</g>
<g>
	<g>
		<g>
			<path fill="#C69A75" d="M2693.3,2459.5c-0.6,0.9-1.3,1.7-2.1,2.4c0,0-0.1,0.1-0.1,0.1c-1.1,0.9-2.4,1.4-3.7,1.6
				c-4.8-0.5-12.6-2-16.4-9.5c-0.6-1.7-0.7-1.3-1.3-3.5C2673.5,2455.2,2681.1,2460.9,2693.3,2459.5z"/>
		</g>
	</g>
</g>
<path fill="#C69A75" d="M2669.4,2412.4v27.3c0,3.9,2.6,7.5,6.6,8.8c2.9,0.9,6.5,1.1,10.6-0.6c1.4-0.6,2.5-1.5,3.5-2.6l2.6-3
	c1.5-1.7,2.2-3.7,2.2-5.9v-20.6c0-1.5-0.4-3-1.1-4.3l-1-1.7c-0.9-1.6-2.3-3-4.1-3.9c-2-1-4.8-2.1-7.9-2.7
	C2674.9,2402.1,2669.4,2406.7,2669.4,2412.4z"/>
<path fill="#E2C0A8" d="M2675,2414.2v23.7c0,3.4,2,6.6,5.1,7.6c2.2,0.8,5.1,1,8.3-0.5c1.1-0.5,2-1.3,2.7-2.2l2.1-2.6
	c1.1-1.4,1.8-3.3,1.8-5.1v-17.9c0-1.3-0.3-2.6-0.9-3.8l-0.8-1.5c-0.7-1.4-1.8-2.6-3.2-3.4c-1.5-0.8-3.7-1.9-6.1-2.4
	C2679.3,2405.3,2675,2409.2,2675,2414.2z"/>
<g>
	<g>
		<g>
			<path fill="#D6A885" d="M2691.6,2392.3c-0.6-0.8-1.3-1.4-2.1-2c0,0-0.1-0.1-0.1-0.1c-1.1-0.7-2.3-1.1-3.6-1.2
				c-4.5,0.6-11.9,2.4-15.2,9.2c-0.5,1.5-0.3,1.2-0.9,3.2C2673.2,2397,2680,2391.6,2691.6,2392.3z"/>
		</g>
	</g>
</g>
<g>
	<g>
		<g>
			<path fill="#D6A885" d="M2691.2,2459.8c-0.6,0.7-1.2,1.4-2,1.9c0,0-0.1,0.1-0.1,0.1c-1.1,0.7-2.3,1-3.5,1.2
				c-4.4-0.6-11.6-2.3-14.9-8.8c-0.5-1.5-0.3-1.1-0.8-3C2673.2,2455.3,2679.8,2460.4,2691.2,2459.8z"/>
		</g>
	</g>
</g>
<rect x="2686.1" y="2412.4" fill="#B58A61" width="8.9" height="1.4"/>
<rect x="2686.1" y="2419" fill="#B58A61" width="8.9" height="1.3"/>
<rect x="2686.1" y="2424.9" fill="#B58A61" width="8.9" height="1.5"/>
<rect x="2686.1" y="2430.9" fill="#B58A61" width="8.9" height="1.5"/>
<rect x="2686.1" y="2436.6" fill="#B58A61" width="8.9" height="1.5"/>
<rect x="2686.1" y="2406.7" fill="#B58A61" width="8.9" height="1.5"/>
<rect x="2686.1" y="2442.6" fill="#B58A61" width="8.9" height="1.6"/>
<rect x="2686.1" y="2400.9" fill="#AA7B55" width="8.9" height="1.1"/>
<rect x="2686.1" y="2449" fill="#AA7B55" width="8.9" height="1.5"/>
<ellipse fill="#999998" cx="2488.2" cy="1536.6" rx="38.6" ry="40.2"/>
<g>
	<path fill="#B2B2B2" d="M2526.8,1536.6c0-22.2-17.3-40.2-38.6-40.2c-8.6,0-16.6,3-23,8l50.5,60.5
		C2522.5,1557.6,2526.8,1547.7,2526.8,1536.6z"/>
</g>
<g>
	<path fill="none" d="M2526.1,1529.6l-13.4-24C2519.6,1511.5,2524.5,1520,2526.1,1529.6z"/>
	<path fill="#E2E2DC" d="M2512.7,1505.6l-25.2,25.5l7.4,8.9l31.3-10.4C2524.5,1520,2519.6,1511.5,2512.7,1505.6z"/>
</g>
<ellipse fill="#494948" cx="2489.2" cy="1536.6" rx="14.6" ry="15.2"/>
<ellipse fill="#D8D8D8" cx="2489.2" cy="1536.6" rx="13.3" ry="13.8"/>
<g>
	<path fill="#EAEAEA" d="M2502.4,1536.6c0-7.6-5.9-13.8-13.3-13.8c-2.6,0-5.1,0.8-7.2,2.2l17.3,20.5
		C2501.3,1543.1,2502.4,1540,2502.4,1536.6z"/>
</g>
<g>
	<path fill="none" d="M2502.4,1536.6c0,0.5-0.1,0.9-0.1,1.3l-7.7-13.9C2499.2,1526.2,2502.4,1531,2502.4,1536.6z"/>
	<path fill="#FFFFFD" d="M2502.4,1536.6c0-5.6-3.2-10.4-7.8-12.6l-6.9,7.7l7.1,8.4l7.5-2.2
		C2502.4,1537.5,2502.4,1537.1,2502.4,1536.6z"/>
</g>
</svg>
