<?xml version="1.0" encoding="utf-8"?>
<!-- Generator: Adobe Illustrator 17.1.0, SVG Export Plug-In . SVG Version: 6.00 Build 0)  -->
<!DOCTYPE svg PUBLIC "-//W3C//DTD SVG 1.1//EN" "http://www.w3.org/Graphics/SVG/1.1/DTD/svg11.dtd">
<svg version="1.1" id="Layer_2" xmlns="http://www.w3.org/2000/svg" xmlns:xlink="http://www.w3.org/1999/xlink" x="0px" y="0px"
	 viewBox="0 0 5000 5000" enable-background="new 0 0 5000 5000" xml:space="preserve">
<g>
	<g opacity="0.2">
	</g>
	<path fill="#EFEEED" d="M2641.9,2376.5c-4.1-4.4-8.8-8.2-13.7-11.8c-25.6-18.9-25.4-75.4-25.4-75.4v-441l4.9-7
		c22.9-32.3,21.2-76.7-4.2-106.9l-0.8-0.9v-107c0-3.7-0.2-7.3-0.5-11c-10.2-100-108.2-98.5-122.4-97.8c-1.5,0.1-2.9,0.1-4.4,0.1
		c-55.2,0.8-81.1,29.8-93.1,55.2c-7.1,14.9-10.4,31.5-10.4,48.1l0,110l-9,13.6c-18.3,27.7-17.9,64.4,0.8,91.7l8.1,11.8l-0.1,467.9
		c1.5,25.5-15.4,44.6-15.4,44.6c-31.5,29-44.1,50.2-44.1,50.2h355.8C2663.8,2400.9,2650.6,2385.9,2641.9,2376.5z M2601.8,1798.5
		c0,16.2-14.3,29.4-31.9,29.4h-166.5c-17.6,0-31.9-13.2-31.9-29.4v-21.4c0-16.2,14.3-29.4,31.9-29.4h166.5
		c17.6,0,31.9,13.2,31.9,29.4V1798.5z"/>
</g>
<g>
	<path fill="#CECECE" d="M2601.8,1777.2v21.4c0,14.2-10.9,26-25.3,28.8v454.6c0,30.2,11.4,59.1,31.7,80.7l45.6,48.4h14.5
		c-4.5-10-17.6-25.1-26.3-34.5c-4.1-4.4-8.8-8.2-13.7-11.8c-25.6-18.9-25.4-75.4-25.4-75.4v-441l4.9-7
		c22.9-32.3,21.2-76.7-4.2-106.9l-0.8-0.9v-107c0-3.7-0.2-7.3-0.5-11c-2.9-28.3-12.8-48.5-25.9-62.8v195.8
		C2590.9,1751.2,2601.8,1763,2601.8,1777.2z"/>
</g>
<g>
	<g>
		<g>
			<path fill="#CECECE" d="M2373.7,1777.2v21.4c0,14.2,10.9,26,25.3,28.8v454.6c0,30.2-11.4,59.1-31.7,80.7l-45.6,48.4l-10.4,24.7
				c4.5-10,13.5-49.7,22.3-59.1c4.1-4.4,8.8-8.2,13.7-11.8c25.6-18.9,25.4-75.4,25.4-75.4v-441l-4.9-7
				c-22.9-32.3-21.2-76.7,4.2-106.9l0.8-0.9v-107c0-3.7,0.2-7.3,0.5-11c2.9-28.3,12.8-48.5,25.9-62.8v195.8
				C2384.6,1751.2,2373.7,1763,2373.7,1777.2z"/>
		</g>
	</g>
</g>
<g>
	<path fill="#CECECE" d="M2313.9,2742.7c0,0,12.7,21.3,44.1,50.2c0,0,16.9,19.1,15.4,44.6l0.1,695c0,16.6,2.6,33.6,10.4,48.1
		c13.8,25.8,39.5,51.7,93.1,55.2c1.5,0.1,2.9,0,4.4,0.1c14.1,0.7,112.2,2.2,122.4-97.8c0.4-3.6,0.5-7.3,0.5-11v-662.8
		c0,0-0.2-56.5,25.4-75.4c4.9-3.6,9.6-7.4,13.7-11.8c8.7-9.4,21.8-24.4,26.3-34.5H2313.9z M2591.6,3507.4
		c0,51.2-29.7,106.4-77.9,111.9c-10.4,1.2-48,1.1-48.4,1c-56.1-5.3-79.3-56.6-79.3-116.1v-668.3c0-6.6,5.2-12,11.5-12h178.8
		c8.4,0,15.3,7.1,15.3,15.9V3507.4z"/>
	<path fill="#EFEEED" d="M2576.4,2824h-178.8c-6.4,0-11.5,5.4-11.5,12v668.3c0,59.5,23.2,110.8,79.3,116.1c0.3,0,38,0.1,48.4-1
		c48.2-5.5,77.9-60.7,77.9-111.9v-667.6C2591.6,2831.1,2584.8,2824,2576.4,2824z M2488.9,3104.7c7.4,0,13.3,6.2,13.3,13.8
		s-6,13.8-13.3,13.8s-13.3-6.2-13.3-13.8S2481.5,3104.7,2488.9,3104.7z M2488.9,3165.7c7.4,0,13.3,6.2,13.3,13.8
		c0,7.6-6,13.8-13.3,13.8s-13.3-6.2-13.3-13.8C2475.5,3171.9,2481.5,3165.7,2488.9,3165.7z M2488.9,3225.5c7.4,0,13.3,6.2,13.3,13.8
		c0,7.6-6,13.8-13.3,13.8s-13.3-6.2-13.3-13.8C2475.5,3231.7,2481.5,3225.5,2488.9,3225.5z M2488.9,3290.3c7.4,0,13.3,6.2,13.3,13.8
		c0,7.6-6,13.8-13.3,13.8s-13.3-6.2-13.3-13.8C2475.5,3296.5,2481.5,3290.3,2488.9,3290.3z M2488.9,3351.4c7.4,0,13.3,6.2,13.3,13.8
		s-6,13.8-13.3,13.8s-13.3-6.2-13.3-13.8S2481.5,3351.4,2488.9,3351.4z M2488.9,3411.1c7.4,0,13.3,6.2,13.3,13.8s-6,13.8-13.3,13.8
		s-13.3-6.2-13.3-13.8S2481.5,3411.1,2488.9,3411.1z M2490.4,3499.5c-7.4,0-13.3-6.2-13.3-13.8c0-7.6,6-13.8,13.3-13.8
		s13.3,6.2,13.3,13.8C2503.7,3493.3,2497.7,3499.5,2490.4,3499.5z"/>
</g>
<path fill="#F4CD98" d="M2606,2807.4h-228.4c-38.3,0-69.3-32.2-69.3-72v-305.3c0-39.7,31-72,69.3-72H2606c38.3,0,69.3,32.2,69.3,72
	v305.3C2675.3,2775.2,2644.2,2807.4,2606,2807.4z"/>
<path fill="#B58A61" d="M2601.8,2803.6h-222.9c-37.3,0-67.6-31.4-67.6-70.2v-297.8c0-38.8,30.3-70.2,67.6-70.2h222.9
	c37.3,0,67.6,31.4,67.6,70.2v297.8C2669.4,2772.2,2639.1,2803.6,2601.8,2803.6z"/>
<path fill="#F4CD98" d="M2600.6,2798.5h-218.7c-36.6,0-66.3-30.8-66.3-68.9v-292.3c0-38.1,29.7-68.9,66.3-68.9h218.7
	c36.6,0,66.3,30.8,66.3,68.9v292.3C2667,2767.6,2637.2,2798.5,2600.6,2798.5z"/>
<path fill="#FFE9CA" d="M2597.1,2791.5h-211.6c-35.5,0-64.2-29.8-64.2-66.7V2442c0-36.8,28.7-66.7,64.2-66.7h211.6
	c35.5,0,64.2,29.8,64.2,66.7v282.8C2661.3,2761.6,2632.5,2791.5,2597.1,2791.5z"/>
<path fill="#050505" d="M2594.3,2786.1h-206.1c-34.5,0-62.5-29.1-62.5-64.9v-275.4c0-35.9,28-64.9,62.5-64.9h206.1
	c34.5,0,62.5,29.1,62.5,64.9v275.4C2656.8,2757,2628.8,2786.1,2594.3,2786.1z"/>
<path fill="#3F3F3F" d="M2591.9,2781.4h-201.3c-33.7,0-61.1-28.4-61.1-63.4v-269.1c0-35,27.3-63.4,61.1-63.4h201.3
	c33.7,0,61.1,28.4,61.1,63.4v269.1C2653,2753,2625.6,2781.4,2591.9,2781.4z"/>
<path fill="#050505" d="M2590,2777.5h-197.4c-33.1,0-59.9-27.8-59.9-62.2v-263.8c0-34.3,26.8-62.2,59.9-62.2H2590
	c33.1,0,59.9,27.8,59.9,62.2v263.8C2649.8,2749.7,2623,2777.5,2590,2777.5z"/>
<g>
	<path fill="#494849" d="M2649.8,2451.5c0-34.3-26.8-62.2-59.9-62.2h-197.4c-9.8,0-19.1,2.5-27.3,6.8l284.5,294V2451.5z"/>
</g>
<g>
	<path fill="#727172" d="M2636.9,2423.7l10.1,8.9c-7.7-25.1-30.3-43.2-57-43.2h-197.4c-9.8,0-19.1,2.5-27.3,6.8l2.6,2.7h203.8
		C2595.6,2398.9,2618.7,2407.7,2636.9,2423.7z"/>
</g>
<g>
	<g>
		<g>
			<path fill="#727172" d="M2627.8,2752.8c-10.9,9.3-24.5,14.4-38.6,14.4h-229.7c9.5,6.5,20.8,10.3,33,10.3H2590
				c25.6,0,47.5-16.7,56-40.3L2627.8,2752.8z"/>
		</g>
	</g>
</g>
<path fill="#F4CD98" d="M2670.6,2703.3h-0.1v-112.7h4.1c5,0,9,4.2,9,9.3v90C2683.5,2697.3,2677.7,2703.3,2670.6,2703.3z"/>
<g>
	<g>
		<path fill="#DDB07A" d="M2677,2701.6l3.5-3C2679.5,2699.8,2678.3,2700.8,2677,2701.6z"/>
		<g>
			<path fill="#DDB07A" d="M2677,2591v110.5c1.3-0.8,2.5-1.8,3.5-3V2593C2679.5,2592.1,2678.3,2591.4,2677,2591z"/>
		</g>
	</g>
</g>
<g>
	<path fill="none" d="M2677,2701.6c-0.9,0.6-1.9,1-3,1.3L2677,2701.6z"/>
	<path fill="#FFF5EB" d="M2675.2,2590.7l-1.2,112.1c1.1-0.3,2.1-0.7,3-1.3V2591C2676.4,2590.9,2675.8,2590.8,2675.2,2590.7z"/>
</g>
<path fill="#B58A61" d="M2673.8,2469.1c-4.1,9.6-13.3,36.9-0.1,67.2c1.1,2.4,3.4,4,5.9,4h9.4c2.3,0,4.4-1.4,5.3-3.6
	c0.7-1.6,1.3-3.8,1.6-6.8v-54c0-3.4-1.4-6.7-4-8.8c0,0-0.1-0.1-0.1-0.1c-1.5-1.2-3.5-1.7-5.4-1.7h-7
	C2676.9,2465.4,2674.8,2466.8,2673.8,2469.1z"/>
<g>
	<g>
		<g>
			<path fill="#C69A75" d="M2694.2,2469.7c-0.6-0.9-1.3-1.8-2.1-2.5c0,0-0.1-0.1-0.1-0.1c-1.1-0.9-2.5-1.4-3.8-1.6
				c-4.9,0.5-12.9,2.1-16.8,9.9c-0.6,1.8-0.4,1.4-1.1,3.7C2674.2,2474.2,2681.8,2468.3,2694.2,2469.7z"/>
		</g>
	</g>
</g>
<g>
	<g>
		<g>
			<path fill="#C69A75" d="M2694.2,2536.3c-0.6,0.9-1.3,1.7-2.1,2.4c0,0-0.1,0.1-0.1,0.1c-1.1,0.9-2.4,1.4-3.8,1.6
				c-4.8-0.5-12.6-2-16.5-9.5c-0.6-1.7-0.7-1.3-1.3-3.5C2674.3,2532,2681.9,2537.7,2694.2,2536.3z"/>
		</g>
	</g>
</g>
<path fill="#C69A75" d="M2670.2,2489.1v27.3c0,3.9,2.6,7.5,6.6,8.8c2.9,0.9,6.6,1.1,10.6-0.6c1.4-0.6,2.6-1.5,3.5-2.6l2.7-3
	c1.5-1.7,2.3-3.7,2.3-5.9v-20.6c0-1.5-0.4-3-1.1-4.3l-1-1.7c-0.9-1.7-2.4-3-4.1-3.9c-2-1-4.8-2.2-7.9-2.7
	C2675.7,2478.9,2670.2,2483.4,2670.2,2489.1z"/>
<path fill="#E2C0A8" d="M2675.8,2491v23.8c0,3.4,2,6.6,5.2,7.6c2.3,0.8,5.1,1,8.3-0.5c1.1-0.5,2-1.3,2.7-2.2l2.1-2.6
	c1.1-1.4,1.8-3.3,1.8-5.1V2494c0-1.3-0.3-2.6-0.9-3.8l-0.8-1.5c-0.7-1.4-1.8-2.6-3.2-3.4c-1.5-0.8-3.8-1.9-6.2-2.4
	C2680.1,2482,2675.8,2486,2675.8,2491z"/>
<g>
	<g>
		<g>
			<path fill="#D6A885" d="M2692.5,2469c-0.6-0.8-1.3-1.4-2.1-2c0,0-0.1-0.1-0.1-0.1c-1.1-0.7-2.3-1.1-3.6-1.2
				c-4.5,0.6-11.9,2.4-15.3,9.2c-0.5,1.5-0.3,1.2-0.9,3.2C2674,2473.7,2680.8,2468.4,2692.5,2469z"/>
		</g>
	</g>
</g>
<g>
	<g>
		<g>
			<path fill="#D6A885" d="M2692,2536.6c-0.6,0.7-1.3,1.4-2.1,1.9c0,0-0.1,0.1-0.1,0.1c-1.1,0.7-2.3,1-3.6,1.2
				c-4.4-0.6-11.7-2.3-15-8.8c-0.5-1.5-0.3-1.1-0.8-3C2674,2532.1,2680.6,2537.2,2692,2536.6z"/>
		</g>
	</g>
</g>
<rect x="2687" y="2489.2" fill="#B58A61" width="8.9" height="1.4"/>
<rect x="2687" y="2495.7" fill="#B58A61" width="8.9" height="1.3"/>
<rect x="2687" y="2501.7" fill="#B58A61" width="8.9" height="1.5"/>
<rect x="2687" y="2507.7" fill="#B58A61" width="8.9" height="1.5"/>
<rect x="2687" y="2513.3" fill="#B58A61" width="8.9" height="1.5"/>
<rect x="2687" y="2483.4" fill="#B58A61" width="8.9" height="1.5"/>
<rect x="2687" y="2519.3" fill="#B58A61" width="8.9" height="1.6"/>
<rect x="2687" y="2477.6" fill="#AA7B55" width="8.9" height="1.1"/>
<rect x="2687" y="2525.8" fill="#AA7B55" width="8.9" height="1.5"/>
<ellipse fill="#999998" cx="2488.1" cy="1612.8" rx="38.8" ry="40.3"/>
<g>
	<path fill="#B2B2B2" d="M2526.9,1612.8c0-22.2-17.4-40.3-38.8-40.3c-8.7,0-16.7,3-23.1,8l50.7,60.6
		C2522.6,1633.9,2526.9,1623.9,2526.9,1612.8z"/>
</g>
<g>
	<path fill="none" d="M2526.2,1605.8l-13.5-24C2519.7,1587.7,2524.6,1596.2,2526.2,1605.8z"/>
	<path fill="#E2E2DC" d="M2512.8,1581.8l-25.3,25.6l7.4,8.9l31.4-10.4C2524.6,1596.2,2519.7,1587.7,2512.8,1581.8z"/>
</g>
<ellipse fill="#494948" cx="2489.1" cy="1612.8" rx="14.6" ry="15.2"/>
<ellipse fill="#D8D8D8" cx="2489.1" cy="1612.8" rx="13.3" ry="13.8"/>
<g>
	<path fill="#EAEAEA" d="M2502.4,1612.8c0-7.6-6-13.8-13.3-13.8c-2.7,0-5.1,0.8-7.2,2.2l17.4,20.5
		C2501.3,1619.3,2502.4,1616.2,2502.4,1612.8z"/>
</g>
<g>
	<path fill="none" d="M2502.4,1612.8c0,0.5-0.1,0.9-0.1,1.3l-7.7-13.9C2499.2,1602.4,2502.4,1607.3,2502.4,1612.8z"/>
	<path fill="#FFFFFD" d="M2502.4,1612.8c0-5.6-3.2-10.4-7.8-12.6l-7,7.7l7.2,8.4l7.5-2.2C2502.4,1613.7,2502.4,1613.3,2502.4,1612.8
		z"/>
</g>
</svg>
