<?xml version="1.0" encoding="utf-8"?>
<!-- Generator: Adobe Illustrator 17.1.0, SVG Export Plug-In . SVG Version: 6.00 Build 0)  -->
<!DOCTYPE svg PUBLIC "-//W3C//DTD SVG 1.1//EN" "http://www.w3.org/Graphics/SVG/1.1/DTD/svg11.dtd">
<svg version="1.1" id="Layer_2" xmlns="http://www.w3.org/2000/svg" xmlns:xlink="http://www.w3.org/1999/xlink" x="0px" y="0px"
	 viewBox="0 0 5000 5000" enable-background="new 0 0 5000 5000" xml:space="preserve">
<path fill="#B6B6B6" d="M3619,2176.2H1386.2v-81.6c0-26,20.2-47,45.1-47h2113.4c41,0,74.3,34.7,74.3,77.5V2176.2z"/>
<path fill="#949394" d="M3544.7,2047.6H1431.3c-20.6,0-37.7,14.4-43.1,34.1h2218.1C3592.9,2061.1,3570.3,2047.6,3544.7,2047.6z"/>
<polygon fill="#CDC9C9" points="3599.7,2073.1 1393.7,2068.8 1386.2,2094.6 3613,2094.6 "/>
<path fill="#E2DFDF" d="M3568.9,3093H1461.5c-41.6,0-75.3-33.6-75.3-75v-899.7c0-3.5,2.7-6.4,6.1-6.4h2218.1c4.8,0,8.7,4,8.7,9v922
	C3619,3070.6,3596.6,3093,3568.9,3093z"/>
<path fill="#BFBEBE" d="M1563.5,2285h-114.3c-4.4,0-7.9-2.9-7.9-6.5v-51.6c0-3.6,3.6-6.5,7.9-6.5h114.3c4.4,0,7.9,2.9,7.9,6.5v51.6
	C1571.5,2282.1,1567.9,2285,1563.5,2285z"/>
<path fill="#BFBEBE" d="M3565.4,2285h-114.3c-4.4,0-7.9-2.9-7.9-6.5v-51.6c0-3.6,3.6-6.5,7.9-6.5h114.3c4.4,0,7.9,2.9,7.9,6.5v51.6
	C3573.4,2282.1,3569.8,2285,3565.4,2285z"/>
<path fill="#BFBEBE" d="M3406.7,2285h-114.3c-4.4,0-7.9-2.9-7.9-6.5v-51.6c0-3.6,3.6-6.5,7.9-6.5h114.3c4.4,0,7.9,2.9,7.9,6.5v51.6
	C3414.6,2282.1,3411.1,2285,3406.7,2285z"/>
<path fill="#BFBEBE" d="M3255.9,2285h-114.3c-4.4,0-7.9-2.9-7.9-6.5v-51.6c0-3.6,3.6-6.5,7.9-6.5h114.3c4.4,0,7.9,2.9,7.9,6.5v51.6
	C3263.9,2282.1,3260.3,2285,3255.9,2285z"/>
<path fill="#BFBEBE" d="M3103.4,2285h-114.3c-4.4,0-7.9-2.9-7.9-6.5v-51.6c0-3.6,3.6-6.5,7.9-6.5h114.3c4.4,0,7.9,2.9,7.9,6.5v51.6
	C3111.3,2282.1,3107.8,2285,3103.4,2285z"/>
<path fill="#BFBEBE" d="M2948.1,2285h-114.3c-4.4,0-7.9-2.9-7.9-6.5v-51.6c0-3.6,3.6-6.5,7.9-6.5h114.3c4.4,0,7.9,2.9,7.9,6.5v51.6
	C2956,2282.1,2952.5,2285,2948.1,2285z"/>
<path fill="#BFBEBE" d="M2797.3,2285H2683c-4.4,0-7.9-2.9-7.9-6.5v-51.6c0-3.6,3.6-6.5,7.9-6.5h114.3c4.4,0,7.9,2.9,7.9,6.5v51.6
	C2805.3,2282.1,2801.7,2285,2797.3,2285z"/>
<path fill="#BFBEBE" d="M2644.9,2285h-114.3c-4.4,0-7.9-2.9-7.9-6.5v-51.6c0-3.6,3.6-6.5,7.9-6.5h114.3c4.4,0,7.9,2.9,7.9,6.5v51.6
	C2652.8,2282.1,2649.3,2285,2644.9,2285z"/>
<path fill="#BFBEBE" d="M2490.9,2285h-114.3c-4.4,0-7.9-2.9-7.9-6.5v-51.6c0-3.6,3.6-6.5,7.9-6.5h114.3c4.4,0,7.9,2.9,7.9,6.5v51.6
	C2498.9,2282.1,2495.3,2285,2490.9,2285z"/>
<path fill="#BFBEBE" d="M2333.8,2285h-114.3c-4.4,0-7.9-2.9-7.9-6.5v-51.6c0-3.6,3.6-6.5,7.9-6.5h114.3c4.4,0,7.9,2.9,7.9,6.5v51.6
	C2341.8,2282.1,2338.2,2285,2333.8,2285z"/>
<path fill="#BFBEBE" d="M2181.4,2285h-114.3c-4.4,0-7.9-2.9-7.9-6.5v-51.6c0-3.6,3.6-6.5,7.9-6.5h114.3c4.4,0,7.9,2.9,7.9,6.5v51.6
	C2189.4,2282.1,2185.8,2285,2181.4,2285z"/>
<path fill="#BFBEBE" d="M2024.3,2285H1910c-4.4,0-7.9-2.9-7.9-6.5v-51.6c0-3.6,3.6-6.5,7.9-6.5h114.3c4.4,0,7.9,2.9,7.9,6.5v51.6
	C2032.3,2282.1,2028.7,2285,2024.3,2285z"/>
<path fill="#BFBEBE" d="M1868.7,2285h-114.3c-4.4,0-7.9-2.9-7.9-6.5v-51.6c0-3.6,3.6-6.5,7.9-6.5h114.3c4.4,0,7.9,2.9,7.9,6.5v51.6
	C1876.7,2282.1,1873.1,2285,1868.7,2285z"/>
<path fill="#BFBEBE" d="M1716.4,2285h-114.3c-4.4,0-7.9-2.9-7.9-6.5v-51.6c0-3.6,3.6-6.5,7.9-6.5h114.3c4.4,0,7.9,2.9,7.9,6.5v51.6
	C1724.3,2282.1,1720.7,2285,1716.4,2285z"/>
<path fill="#BFBEBE" d="M1527,2428.5h-77.5c-9.2,0-16.6-7.8-16.6-17.3v-77.5c0-9.6,7.4-17.3,16.6-17.3h77.5
	c9.2,0,16.6,7.8,16.6,17.3v77.5C1543.6,2420.8,1536.2,2428.5,1527,2428.5z"/>
<path fill="#BFBEBE" d="M1670.9,2428.5h-77.5c-9.2,0-16.6-7.8-16.6-17.3v-77.5c0-9.6,7.4-17.3,16.6-17.3h77.5
	c9.2,0,16.6,7.8,16.6,17.3v77.5C1687.5,2420.8,1680.1,2428.5,1670.9,2428.5z"/>
<path fill="#BFBEBE" d="M3323.3,2428.5h-77.5c-9.2,0-16.6-7.8-16.6-17.3v-77.5c0-9.6,7.4-17.3,16.6-17.3h77.5
	c9.2,0,16.6,7.8,16.6,17.3v77.5C3339.9,2420.8,3332.5,2428.5,3323.3,2428.5z"/>
<path fill="#BFBEBE" d="M3171.5,2428.5H3094c-9.2,0-16.6-7.8-16.6-17.3v-77.5c0-9.6,7.4-17.3,16.6-17.3h77.5
	c9.2,0,16.6,7.8,16.6,17.3v77.5C3188.1,2420.8,3180.7,2428.5,3171.5,2428.5z"/>
<path fill="#BFBEBE" d="M3019.8,2428.5h-77.5c-9.2,0-16.6-7.8-16.6-17.3v-77.5c0-9.6,7.4-17.3,16.6-17.3h77.5
	c9.2,0,16.6,7.8,16.6,17.3v77.5C3036.4,2420.8,3028.9,2428.5,3019.8,2428.5z"/>
<path fill="#BFBEBE" d="M2875.9,2428.5h-77.5c-9.2,0-16.6-7.8-16.6-17.3v-77.5c0-9.6,7.4-17.3,16.6-17.3h77.5
	c9.2,0,16.6,7.8,16.6,17.3v77.5C2892.5,2420.8,2885,2428.5,2875.9,2428.5z"/>
<path fill="#BFBEBE" d="M2725.6,2428.5h-77.5c-9.2,0-16.6-7.8-16.6-17.3v-77.5c0-9.6,7.4-17.3,16.6-17.3h77.5
	c9.2,0,16.6,7.8,16.6,17.3v77.5C2742.2,2420.8,2734.8,2428.5,2725.6,2428.5z"/>
<path fill="#BFBEBE" d="M2573.8,2428.5h-77.5c-9.2,0-16.6-7.8-16.6-17.3v-77.5c0-9.6,7.4-17.3,16.6-17.3h77.5
	c9.2,0,16.6,7.8,16.6,17.3v77.5C2590.4,2420.8,2583,2428.5,2573.8,2428.5z"/>
<path fill="#BFBEBE" d="M2420.4,2428.5h-77.5c-9.2,0-16.6-7.8-16.6-17.3v-77.5c0-9.6,7.4-17.3,16.6-17.3h77.5
	c9.2,0,16.6,7.8,16.6,17.3v77.5C2437,2420.8,2429.6,2428.5,2420.4,2428.5z"/>
<path fill="#BFBEBE" d="M2263.9,2428.5h-77.5c-9.2,0-16.6-7.8-16.6-17.3v-77.5c0-9.6,7.4-17.3,16.6-17.3h77.5
	c9.2,0,16.6,7.8,16.6,17.3v77.5C2280.5,2420.8,2273,2428.5,2263.9,2428.5z"/>
<path fill="#BFBEBE" d="M2112,2428.5h-77.5c-9.2,0-16.6-7.8-16.6-17.3v-77.5c0-9.6,7.4-17.3,16.6-17.3h77.5
	c9.2,0,16.6,7.8,16.6,17.3v77.5C2128.7,2420.8,2121.2,2428.5,2112,2428.5z"/>
<path fill="#BFBEBE" d="M1814.8,2428.5h-77.5c-9.2,0-16.6-7.8-16.6-17.3v-77.5c0-9.6,7.4-17.3,16.6-17.3h77.5
	c9.2,0,16.6,7.8,16.6,17.3v77.5C1831.4,2420.8,1823.9,2428.5,1814.8,2428.5z"/>
<path fill="#BFBEBE" d="M1965,2428.5h-77.5c-9.2,0-16.6-7.8-16.6-17.3v-77.5c0-9.6,7.4-17.3,16.6-17.3h77.5
	c9.2,0,16.6,7.8,16.6,17.3v77.5C1981.6,2420.8,1974.2,2428.5,1965,2428.5z"/>
<path fill="#BFBEBE" d="M3569.2,2428.5h-173.9c-7,0-12.6-5.2-12.6-11.7v-84.7c0-6.4,5.7-11.7,12.6-11.7h173.9
	c7,0,12.6,5.2,12.6,11.7v84.7C3581.8,2423.3,3576.2,2428.5,3569.2,2428.5z"/>
<path fill="#BFBEBE" d="M3487.7,2567h77.5c9.2,0,16.6-7.8,16.6-17.3v-77.5c0-9.6-7.4-17.3-16.6-17.3h-77.5
	c-9.2,0-16.6,7.8-16.6,17.3v77.5C3471.1,2559.3,3478.5,2567,3487.7,2567z"/>
<path fill="#BFBEBE" d="M3343.8,2567h77.5c9.2,0,16.6-7.8,16.6-17.3v-77.5c0-9.6-7.4-17.3-16.6-17.3h-77.5
	c-9.2,0-16.6,7.8-16.6,17.3v77.5C3327.2,2559.3,3334.6,2567,3343.8,2567z"/>
<path fill="#BFBEBE" d="M1691.4,2567h77.5c9.2,0,16.6-7.8,16.6-17.3v-77.5c0-9.6-7.4-17.3-16.6-17.3h-77.5
	c-9.2,0-16.6,7.8-16.6,17.3v77.5C1674.8,2559.3,1682.2,2567,1691.4,2567z"/>
<path fill="#BFBEBE" d="M1843.2,2567h77.5c9.2,0,16.6-7.8,16.6-17.3v-77.5c0-9.6-7.4-17.3-16.6-17.3h-77.5
	c-9.2,0-16.6,7.8-16.6,17.3v77.5C1826.6,2559.3,1834,2567,1843.2,2567z"/>
<path fill="#BFBEBE" d="M1995,2567h77.5c9.2,0,16.6-7.8,16.6-17.3v-77.5c0-9.6-7.4-17.3-16.6-17.3H1995c-9.2,0-16.6,7.8-16.6,17.3
	v77.5C1978.3,2559.3,1985.8,2567,1995,2567z"/>
<path fill="#BFBEBE" d="M2138.8,2567h77.5c9.2,0,16.6-7.8,16.6-17.3v-77.5c0-9.6-7.4-17.3-16.6-17.3h-77.5
	c-9.2,0-16.6,7.8-16.6,17.3v77.5C2122.2,2559.3,2129.7,2567,2138.8,2567z"/>
<path fill="#BFBEBE" d="M2289.1,2567h77.5c9.2,0,16.6-7.8,16.6-17.3v-77.5c0-9.6-7.4-17.3-16.6-17.3h-77.5
	c-9.2,0-16.6,7.8-16.6,17.3v77.5C2272.5,2559.3,2279.9,2567,2289.1,2567z"/>
<path fill="#BFBEBE" d="M2440.9,2567h77.5c9.2,0,16.6-7.8,16.6-17.3v-77.5c0-9.6-7.4-17.3-16.6-17.3h-77.5
	c-9.2,0-16.6,7.8-16.6,17.3v77.5C2424.3,2559.3,2431.7,2567,2440.9,2567z"/>
<path fill="#BFBEBE" d="M2594.3,2567h77.5c9.2,0,16.6-7.8,16.6-17.3v-77.5c0-9.6-7.4-17.3-16.6-17.3h-77.5
	c-9.2,0-16.6,7.8-16.6,17.3v77.5C2577.7,2559.3,2585.1,2567,2594.3,2567z"/>
<path fill="#BFBEBE" d="M2750.9,2567h77.5c9.2,0,16.6-7.8,16.6-17.3v-77.5c0-9.6-7.4-17.3-16.6-17.3h-77.5
	c-9.2,0-16.6,7.8-16.6,17.3v77.5C2734.2,2559.3,2741.7,2567,2750.9,2567z"/>
<path fill="#BFBEBE" d="M2902.7,2567h77.5c9.2,0,16.6-7.8,16.6-17.3v-77.5c0-9.6-7.4-17.3-16.6-17.3h-77.5
	c-9.2,0-16.6,7.8-16.6,17.3v77.5C2886.1,2559.3,2893.5,2567,2902.7,2567z"/>
<path fill="#BFBEBE" d="M3199.9,2567h77.5c9.2,0,16.6-7.8,16.6-17.3v-77.5c0-9.6-7.4-17.3-16.6-17.3h-77.5
	c-9.2,0-16.6,7.8-16.6,17.3v77.5C3183.3,2559.3,3190.8,2567,3199.9,2567z"/>
<path fill="#BFBEBE" d="M3049.7,2567h77.5c9.2,0,16.6-7.8,16.6-17.3v-77.5c0-9.6-7.4-17.3-16.6-17.3h-77.5
	c-9.2,0-16.6,7.8-16.6,17.3v77.5C3033.1,2559.3,3040.5,2567,3049.7,2567z"/>
<path fill="#BFBEBE" d="M1445.5,2567h173.9c7,0,12.6-5.2,12.6-11.7v-84.7c0-6.4-5.7-11.7-12.6-11.7h-173.9c-7,0-12.6,5.2-12.6,11.7
	v84.7C1432.9,2561.8,1438.5,2567,1445.5,2567z"/>
<path fill="#BFBEBE" d="M3323.3,2716.6h-77.5c-9.2,0-16.6-7.8-16.6-17.3v-77.5c0-9.6,7.4-17.3,16.6-17.3h77.5
	c9.2,0,16.6,7.8,16.6,17.3v77.5C3339.9,2708.9,3332.5,2716.6,3323.3,2716.6z"/>
<path fill="#BFBEBE" d="M3171.5,2716.6H3094c-9.2,0-16.6-7.8-16.6-17.3v-77.5c0-9.6,7.4-17.3,16.6-17.3h77.5
	c9.2,0,16.6,7.8,16.6,17.3v77.5C3188.1,2708.9,3180.7,2716.6,3171.5,2716.6z"/>
<path fill="#BFBEBE" d="M3019.8,2716.6h-77.5c-9.2,0-16.6-7.8-16.6-17.3v-77.5c0-9.6,7.4-17.3,16.6-17.3h77.5
	c9.2,0,16.6,7.8,16.6,17.3v77.5C3036.4,2708.9,3028.9,2716.6,3019.8,2716.6z"/>
<path fill="#BFBEBE" d="M2875.9,2716.6h-77.5c-9.2,0-16.6-7.8-16.6-17.3v-77.5c0-9.6,7.4-17.3,16.6-17.3h77.5
	c9.2,0,16.6,7.8,16.6,17.3v77.5C2892.5,2708.9,2885,2716.6,2875.9,2716.6z"/>
<path fill="#BFBEBE" d="M2725.6,2716.6h-77.5c-9.2,0-16.6-7.8-16.6-17.3v-77.5c0-9.6,7.4-17.3,16.6-17.3h77.5
	c9.2,0,16.6,7.8,16.6,17.3v77.5C2742.2,2708.9,2734.8,2716.6,2725.6,2716.6z"/>
<path fill="#BFBEBE" d="M2573.8,2716.6h-77.5c-9.2,0-16.6-7.8-16.6-17.3v-77.5c0-9.6,7.4-17.3,16.6-17.3h77.5
	c9.2,0,16.6,7.8,16.6,17.3v77.5C2590.4,2708.9,2583,2716.6,2573.8,2716.6z"/>
<path fill="#BFBEBE" d="M2420.4,2716.6h-77.5c-9.2,0-16.6-7.8-16.6-17.3v-77.5c0-9.6,7.4-17.3,16.6-17.3h77.5
	c9.2,0,16.6,7.8,16.6,17.3v77.5C2437,2708.9,2429.6,2716.6,2420.4,2716.6z"/>
<path fill="#BFBEBE" d="M2263.9,2716.6h-77.5c-9.2,0-16.6-7.8-16.6-17.3v-77.5c0-9.6,7.4-17.3,16.6-17.3h77.5
	c9.2,0,16.6,7.8,16.6,17.3v77.5C2280.5,2708.9,2273,2716.6,2263.9,2716.6z"/>
<path fill="#BFBEBE" d="M2112,2716.6h-77.5c-9.2,0-16.6-7.8-16.6-17.3v-77.5c0-9.6,7.4-17.3,16.6-17.3h77.5
	c9.2,0,16.6,7.8,16.6,17.3v77.5C2128.7,2708.9,2121.2,2716.6,2112,2716.6z"/>
<path fill="#BFBEBE" d="M1814.8,2716.6h-77.5c-9.2,0-16.6-7.8-16.6-17.3v-77.5c0-9.6,7.4-17.3,16.6-17.3h77.5
	c9.2,0,16.6,7.8,16.6,17.3v77.5C1831.4,2708.9,1823.9,2716.6,1814.8,2716.6z"/>
<path fill="#BFBEBE" d="M1965,2716.6h-77.5c-9.2,0-16.6-7.8-16.6-17.3v-77.5c0-9.6,7.4-17.3,16.6-17.3h77.5
	c9.2,0,16.6,7.8,16.6,17.3v77.5C1981.6,2708.9,1974.2,2716.6,1965,2716.6z"/>
<path fill="#BFBEBE" d="M3569.2,2716.6h-173.9c-7,0-12.6-5.2-12.6-11.7v-84.7c0-6.4,5.7-11.7,12.6-11.7h173.9
	c7,0,12.6,5.2,12.6,11.7v84.7C3581.8,2711.4,3576.2,2716.6,3569.2,2716.6z"/>
<path fill="#BFBEBE" d="M1449,2716.6h222.3c8.9,0,16.1-5.4,16.1-12.1v-87.9c0-6.7-7.2-12.1-16.1-12.1H1449
	c-8.9,0-16.1,5.4-16.1,12.1v87.9C1432.9,2711.2,1440.1,2716.6,1449,2716.6z"/>
<path fill="#BFBEBE" d="M3222.1,2864.6h-77.5c-9.2,0-16.6-7.8-16.6-17.3v-77.5c0-9.6,7.4-17.3,16.6-17.3h77.5
	c9.2,0,16.6,7.8,16.6,17.3v77.5C3238.7,2856.9,3231.2,2864.6,3222.1,2864.6z"/>
<path fill="#BFBEBE" d="M3070.3,2864.6h-77.5c-9.2,0-16.6-7.8-16.6-17.3v-77.5c0-9.6,7.4-17.3,16.6-17.3h77.5
	c9.2,0,16.6,7.8,16.6,17.3v77.5C3086.9,2856.9,3079.5,2864.6,3070.3,2864.6z"/>
<path fill="#BFBEBE" d="M2926.4,2864.6h-77.5c-9.2,0-16.6-7.8-16.6-17.3v-77.5c0-9.6,7.4-17.3,16.6-17.3h77.5
	c9.2,0,16.6,7.8,16.6,17.3v77.5C2943,2856.9,2935.6,2864.6,2926.4,2864.6z"/>
<path fill="#BFBEBE" d="M2776.2,2864.6h-77.5c-9.2,0-16.6-7.8-16.6-17.3v-77.5c0-9.6,7.4-17.3,16.6-17.3h77.5
	c9.2,0,16.6,7.8,16.6,17.3v77.5C2792.8,2856.9,2785.4,2864.6,2776.2,2864.6z"/>
<path fill="#BFBEBE" d="M2624.3,2864.6h-77.5c-9.2,0-16.6-7.8-16.6-17.3v-77.5c0-9.6,7.4-17.3,16.6-17.3h77.5
	c9.2,0,16.6,7.8,16.6,17.3v77.5C2641,2856.9,2633.5,2864.6,2624.3,2864.6z"/>
<path fill="#BFBEBE" d="M2471,2864.6h-77.5c-9.2,0-16.6-7.8-16.6-17.3v-77.5c0-9.6,7.4-17.3,16.6-17.3h77.5
	c9.2,0,16.6,7.8,16.6,17.3v77.5C2487.6,2856.9,2480.1,2864.6,2471,2864.6z"/>
<path fill="#BFBEBE" d="M2314.4,2864.6h-77.5c-9.2,0-16.6-7.8-16.6-17.3v-77.5c0-9.6,7.4-17.3,16.6-17.3h77.5
	c9.2,0,16.6,7.8,16.6,17.3v77.5C2331,2856.9,2323.6,2864.6,2314.4,2864.6z"/>
<path fill="#BFBEBE" d="M2162.6,2864.6h-77.5c-9.2,0-16.6-7.8-16.6-17.3v-77.5c0-9.6,7.4-17.3,16.6-17.3h77.5
	c9.2,0,16.6,7.8,16.6,17.3v77.5C2179.2,2856.9,2171.8,2864.6,2162.6,2864.6z"/>
<path fill="#BFBEBE" d="M1865.3,2864.6h-77.5c-9.2,0-16.6-7.8-16.6-17.3v-77.5c0-9.6,7.4-17.3,16.6-17.3h77.5
	c9.2,0,16.6,7.8,16.6,17.3v77.5C1881.9,2856.9,1874.5,2864.6,1865.3,2864.6z"/>
<path fill="#BFBEBE" d="M2015.5,2864.6h-77.5c-9.2,0-16.6-7.8-16.6-17.3v-77.5c0-9.6,7.4-17.3,16.6-17.3h77.5
	c9.2,0,16.6,7.8,16.6,17.3v77.5C2032.2,2856.9,2024.7,2864.6,2015.5,2864.6z"/>
<path fill="#BFBEBE" d="M1452.3,2864.6h267.9c10.7,0,19.5-5.4,19.5-12.1v-87.9c0-6.7-8.7-12.1-19.5-12.1h-267.9
	c-10.7,0-19.5,5.4-19.5,12.1v87.9C1432.9,2859.2,1441.6,2864.6,1452.3,2864.6z"/>
<path fill="#BFBEBE" d="M3290,2864.6h280.9c11.3,0,20.4-5.4,20.4-12.1v-87.9c0-6.7-9.1-12.1-20.4-12.1H3290
	c-11.3,0-20.4,5.4-20.4,12.1v87.9C3269.6,2859.2,3278.7,2864.6,3290,2864.6z"/>
<path fill="#BFBEBE" d="M2803.1,3038.6h-714.7c-8.3,0-15-7-15-15.7v-100.5c0-8.7,6.7-15.7,15-15.7h714.7c8.3,0,15,7,15,15.7v100.5
	C2818.1,3031.6,2811.4,3038.6,2803.1,3038.6z"/>
<path fill="#BFBEBE" d="M3583.4,3037.2h-114.3c-4.4,0-7.9-2.9-7.9-6.5v-51.6c0-3.6,3.6-6.5,7.9-6.5h114.3c4.4,0,7.9,2.9,7.9,6.5
	v51.6C3591.3,3034.3,3587.7,3037.2,3583.4,3037.2z"/>
<path fill="#BFBEBE" d="M3295.8,3037.2h-114.3c-4.4,0-7.9-2.9-7.9-6.5v-51.6c0-3.6,3.6-6.5,7.9-6.5h114.3c4.4,0,7.9,2.9,7.9,6.5
	v51.6C3303.8,3034.3,3300.2,3037.2,3295.8,3037.2z"/>
<path fill="#BFBEBE" d="M1698.4,3042h-96.8c-8.4,0-15.2-7.1-15.2-15.9v-107c0-8.8,6.8-15.9,15.2-15.9h96.8c8.4,0,15.2,7.1,15.2,15.9
	v107C1713.6,3034.9,1706.8,3042,1698.4,3042z"/>
<path fill="#BFBEBE" d="M1851.8,3042h-96.8c-8.4,0-15.2-7.1-15.2-15.9v-107c0-8.8,6.8-15.9,15.2-15.9h96.8c8.4,0,15.2,7.1,15.2,15.9
	v107C1867,3034.9,1860.2,3042,1851.8,3042z"/>
<path fill="#BFBEBE" d="M3135.3,3042h-96.8c-8.4,0-15.2-7.1-15.2-15.9v-107c0-8.8,6.8-15.9,15.2-15.9h96.8c8.4,0,15.2,7.1,15.2,15.9
	v107C3150.6,3034.9,3143.8,3042,3135.3,3042z"/>
<path fill="#BFBEBE" d="M1545,3042h-96.8c-8.4,0-15.2-7.1-15.2-15.9v-107c0-8.8,6.8-15.9,15.2-15.9h96.8c8.4,0,15.2,7.1,15.2,15.9
	v107C1560.2,3034.9,1553.4,3042,1545,3042z"/>
<path fill="#BFBEBE" d="M3431,3042h-96.8c-8.4,0-15.2-7.1-15.2-15.9v-107c0-8.8,6.8-15.9,15.2-15.9h96.8c8.4,0,15.2,7.1,15.2,15.9
	v107C3446.3,3034.9,3439.5,3042,3431,3042z"/>
<path fill="#BFBEBE" d="M2026.5,3042h-116.1c-10.1,0-18.3-7.1-18.3-15.9v-107c0-8.8,8.2-15.9,18.3-15.9h116.1
	c10.1,0,18.3,7.1,18.3,15.9v107C2044.8,3034.9,2036.6,3042,2026.5,3042z"/>
<path fill="#BFBEBE" d="M2976.6,3042h-116.1c-10.1,0-18.3-7.1-18.3-15.9v-107c0-8.8,8.2-15.9,18.3-15.9h116.1
	c10.1,0,18.3,7.1,18.3,15.9v107C2994.9,3034.9,2986.7,3042,2976.6,3042z"/>
<path fill="#F4EFEF" d="M1554.8,2285h-114.3c-4.4,0-7.9-2.9-7.9-6.5v-51.6c0-3.6,3.6-6.5,7.9-6.5h114.3c4.4,0,7.9,2.9,7.9,6.5v51.6
	C1562.7,2282.1,1559.2,2285,1554.8,2285z"/>
<path fill="#F4EFEF" d="M3556.7,2285h-114.3c-4.4,0-7.9-2.9-7.9-6.5v-51.6c0-3.6,3.6-6.5,7.9-6.5h114.3c4.4,0,7.9,2.9,7.9,6.5v51.6
	C3564.6,2282.1,3561.1,2285,3556.7,2285z"/>
<path fill="#F4EFEF" d="M3398,2285h-114.3c-4.4,0-7.9-2.9-7.9-6.5v-51.6c0-3.6,3.6-6.5,7.9-6.5H3398c4.4,0,7.9,2.9,7.9,6.5v51.6
	C3405.9,2282.1,3402.4,2285,3398,2285z"/>
<path fill="#F4EFEF" d="M3247.2,2285h-114.3c-4.4,0-7.9-2.9-7.9-6.5v-51.6c0-3.6,3.6-6.5,7.9-6.5h114.3c4.4,0,7.9,2.9,7.9,6.5v51.6
	C3255.1,2282.1,3251.6,2285,3247.2,2285z"/>
<path fill="#F4EFEF" d="M3094.6,2285h-114.3c-4.4,0-7.9-2.9-7.9-6.5v-51.6c0-3.6,3.6-6.5,7.9-6.5h114.3c4.4,0,7.9,2.9,7.9,6.5v51.6
	C3102.6,2282.1,3099,2285,3094.6,2285z"/>
<path fill="#F4EFEF" d="M2939.4,2285h-114.3c-4.4,0-7.9-2.9-7.9-6.5v-51.6c0-3.6,3.6-6.5,7.9-6.5h114.3c4.4,0,7.9,2.9,7.9,6.5v51.6
	C2947.3,2282.1,2943.8,2285,2939.4,2285z"/>
<path fill="#F4EFEF" d="M2788.6,2285h-114.3c-4.4,0-7.9-2.9-7.9-6.5v-51.6c0-3.6,3.6-6.5,7.9-6.5h114.3c4.4,0,7.9,2.9,7.9,6.5v51.6
	C2796.5,2282.1,2793,2285,2788.6,2285z"/>
<path fill="#F4EFEF" d="M2636.2,2285h-114.3c-4.4,0-7.9-2.9-7.9-6.5v-51.6c0-3.6,3.6-6.5,7.9-6.5h114.3c4.4,0,7.9,2.9,7.9,6.5v51.6
	C2644.1,2282.1,2640.6,2285,2636.2,2285z"/>
<path fill="#F4EFEF" d="M2482.2,2285h-114.3c-4.4,0-7.9-2.9-7.9-6.5v-51.6c0-3.6,3.6-6.5,7.9-6.5h114.3c4.4,0,7.9,2.9,7.9,6.5v51.6
	C2490.2,2282.1,2486.6,2285,2482.2,2285z"/>
<path fill="#F4EFEF" d="M2325.1,2285h-114.3c-4.4,0-7.9-2.9-7.9-6.5v-51.6c0-3.6,3.6-6.5,7.9-6.5h114.3c4.4,0,7.9,2.9,7.9,6.5v51.6
	C2333,2282.1,2329.5,2285,2325.1,2285z"/>
<path fill="#F4EFEF" d="M2172.7,2285h-114.3c-4.4,0-7.9-2.9-7.9-6.5v-51.6c0-3.6,3.6-6.5,7.9-6.5h114.3c4.4,0,7.9,2.9,7.9,6.5v51.6
	C2180.7,2282.1,2177.1,2285,2172.7,2285z"/>
<path fill="#F4EFEF" d="M2015.6,2285h-114.3c-4.4,0-7.9-2.9-7.9-6.5v-51.6c0-3.6,3.6-6.5,7.9-6.5h114.3c4.4,0,7.9,2.9,7.9,6.5v51.6
	C2023.5,2282.1,2020,2285,2015.6,2285z"/>
<path fill="#F4EFEF" d="M1860,2285h-114.3c-4.4,0-7.9-2.9-7.9-6.5v-51.6c0-3.6,3.6-6.5,7.9-6.5H1860c4.4,0,7.9,2.9,7.9,6.5v51.6
	C1867.9,2282.1,1864.4,2285,1860,2285z"/>
<path fill="#F4EFEF" d="M1707.6,2285h-114.3c-4.4,0-7.9-2.9-7.9-6.5v-51.6c0-3.6,3.6-6.5,7.9-6.5h114.3c4.4,0,7.9,2.9,7.9,6.5v51.6
	C1715.6,2282.1,1712,2285,1707.6,2285z"/>
<path fill="#F4EFEF" d="M1518.3,2428.5h-77.5c-9.2,0-16.6-7.8-16.6-17.3v-77.5c0-9.6,7.4-17.3,16.6-17.3h77.5
	c9.2,0,16.6,7.8,16.6,17.3v77.5C1534.9,2420.8,1527.5,2428.5,1518.3,2428.5z"/>
<path fill="#F4EFEF" d="M1662.2,2428.5h-77.5c-9.2,0-16.6-7.8-16.6-17.3v-77.5c0-9.6,7.4-17.3,16.6-17.3h77.5
	c9.2,0,16.6,7.8,16.6,17.3v77.5C1678.8,2420.8,1671.4,2428.5,1662.2,2428.5z"/>
<path fill="#F4EFEF" d="M3314.6,2428.5h-77.5c-9.2,0-16.6-7.8-16.6-17.3v-77.5c0-9.6,7.4-17.3,16.6-17.3h77.5
	c9.2,0,16.6,7.8,16.6,17.3v77.5C3331.2,2420.8,3323.8,2428.5,3314.6,2428.5z"/>
<path fill="#F4EFEF" d="M3162.8,2428.5h-77.5c-9.2,0-16.6-7.8-16.6-17.3v-77.5c0-9.6,7.4-17.3,16.6-17.3h77.5
	c9.2,0,16.6,7.8,16.6,17.3v77.5C3179.4,2420.8,3172,2428.5,3162.8,2428.5z"/>
<path fill="#F4EFEF" d="M3011,2428.5h-77.5c-9.2,0-16.6-7.8-16.6-17.3v-77.5c0-9.6,7.4-17.3,16.6-17.3h77.5
	c9.2,0,16.6,7.8,16.6,17.3v77.5C3027.6,2420.8,3020.2,2428.5,3011,2428.5z"/>
<path fill="#F4EFEF" d="M2867.1,2428.5h-77.5c-9.2,0-16.6-7.8-16.6-17.3v-77.5c0-9.6,7.4-17.3,16.6-17.3h77.5
	c9.2,0,16.6,7.8,16.6,17.3v77.5C2883.7,2420.8,2876.3,2428.5,2867.1,2428.5z"/>
<path fill="#F4EFEF" d="M2716.9,2428.5h-77.5c-9.2,0-16.6-7.8-16.6-17.3v-77.5c0-9.6,7.4-17.3,16.6-17.3h77.5
	c9.2,0,16.6,7.8,16.6,17.3v77.5C2733.5,2420.8,2726.1,2428.5,2716.9,2428.5z"/>
<path fill="#F4EFEF" d="M2565.1,2428.5h-77.5c-9.2,0-16.6-7.8-16.6-17.3v-77.5c0-9.6,7.4-17.3,16.6-17.3h77.5
	c9.2,0,16.6,7.8,16.6,17.3v77.5C2581.7,2420.8,2574.2,2428.5,2565.1,2428.5z"/>
<path fill="#F4EFEF" d="M2411.7,2428.5h-77.5c-9.2,0-16.6-7.8-16.6-17.3v-77.5c0-9.6,7.4-17.3,16.6-17.3h77.5
	c9.2,0,16.6,7.8,16.6,17.3v77.5C2428.3,2420.8,2420.8,2428.5,2411.7,2428.5z"/>
<path fill="#F4EFEF" d="M2255.1,2428.5h-77.5c-9.2,0-16.6-7.8-16.6-17.3v-77.5c0-9.6,7.4-17.3,16.6-17.3h77.5
	c9.2,0,16.6,7.8,16.6,17.3v77.5C2271.7,2420.8,2264.3,2428.5,2255.1,2428.5z"/>
<path fill="#F4EFEF" d="M2103.3,2428.5h-77.5c-9.2,0-16.6-7.8-16.6-17.3v-77.5c0-9.6,7.4-17.3,16.6-17.3h77.5
	c9.2,0,16.6,7.8,16.6,17.3v77.5C2119.9,2420.8,2112.5,2428.5,2103.3,2428.5z"/>
<path fill="#F4EFEF" d="M1806,2428.5h-77.5c-9.2,0-16.6-7.8-16.6-17.3v-77.5c0-9.6,7.4-17.3,16.6-17.3h77.5
	c9.2,0,16.6,7.8,16.6,17.3v77.5C1822.6,2420.8,1815.2,2428.5,1806,2428.5z"/>
<path fill="#F4EFEF" d="M1956.3,2428.5h-77.5c-9.2,0-16.6-7.8-16.6-17.3v-77.5c0-9.6,7.4-17.3,16.6-17.3h77.5
	c9.2,0,16.6,7.8,16.6,17.3v77.5C1972.9,2420.8,1965.4,2428.5,1956.3,2428.5z"/>
<path fill="#F4EFEF" d="M3560.5,2428.5h-173.9c-7,0-12.6-5.2-12.6-11.7v-84.7c0-6.4,5.7-11.7,12.6-11.7h173.9
	c7,0,12.6,5.2,12.6,11.7v84.7C3573.1,2423.3,3567.4,2428.5,3560.5,2428.5z"/>
<path fill="#F4EFEF" d="M3479,2567h77.5c9.2,0,16.6-7.8,16.6-17.3v-77.5c0-9.6-7.4-17.3-16.6-17.3H3479c-9.2,0-16.6,7.8-16.6,17.3
	v77.5C3462.4,2559.3,3469.8,2567,3479,2567z"/>
<path fill="#F4EFEF" d="M3335.1,2567h77.5c9.2,0,16.6-7.8,16.6-17.3v-77.5c0-9.6-7.4-17.3-16.6-17.3h-77.5
	c-9.2,0-16.6,7.8-16.6,17.3v77.5C3318.5,2559.3,3325.9,2567,3335.1,2567z"/>
<path fill="#F4EFEF" d="M1682.7,2567h77.5c9.2,0,16.6-7.8,16.6-17.3v-77.5c0-9.6-7.4-17.3-16.6-17.3h-77.5
	c-9.2,0-16.6,7.8-16.6,17.3v77.5C1666.1,2559.3,1673.5,2567,1682.7,2567z"/>
<path fill="#F4EFEF" d="M1834.5,2567h77.5c9.2,0,16.6-7.8,16.6-17.3v-77.5c0-9.6-7.4-17.3-16.6-17.3h-77.5
	c-9.2,0-16.6,7.8-16.6,17.3v77.5C1817.9,2559.3,1825.3,2567,1834.5,2567z"/>
<path fill="#F4EFEF" d="M1986.2,2567h77.5c9.2,0,16.6-7.8,16.6-17.3v-77.5c0-9.6-7.4-17.3-16.6-17.3h-77.5
	c-9.2,0-16.6,7.8-16.6,17.3v77.5C1969.6,2559.3,1977.1,2567,1986.2,2567z"/>
<path fill="#F4EFEF" d="M2130.1,2567h77.5c9.2,0,16.6-7.8,16.6-17.3v-77.5c0-9.6-7.4-17.3-16.6-17.3h-77.5
	c-9.2,0-16.6,7.8-16.6,17.3v77.5C2113.5,2559.3,2120.9,2567,2130.1,2567z"/>
<path fill="#F4EFEF" d="M2280.3,2567h77.5c9.2,0,16.6-7.8,16.6-17.3v-77.5c0-9.6-7.4-17.3-16.6-17.3h-77.5
	c-9.2,0-16.6,7.8-16.6,17.3v77.5C2263.7,2559.3,2271.2,2567,2280.3,2567z"/>
<path fill="#F4EFEF" d="M2432.2,2567h77.5c9.2,0,16.6-7.8,16.6-17.3v-77.5c0-9.6-7.4-17.3-16.6-17.3h-77.5
	c-9.2,0-16.6,7.8-16.6,17.3v77.5C2415.6,2559.3,2423,2567,2432.2,2567z"/>
<path fill="#F4EFEF" d="M2585.6,2567h77.5c9.2,0,16.6-7.8,16.6-17.3v-77.5c0-9.6-7.4-17.3-16.6-17.3h-77.5
	c-9.2,0-16.6,7.8-16.6,17.3v77.5C2569,2559.3,2576.4,2567,2585.6,2567z"/>
<path fill="#F4EFEF" d="M2742.1,2567h77.5c9.2,0,16.6-7.8,16.6-17.3v-77.5c0-9.6-7.4-17.3-16.6-17.3h-77.5
	c-9.2,0-16.6,7.8-16.6,17.3v77.5C2725.5,2559.3,2733,2567,2742.1,2567z"/>
<path fill="#F4EFEF" d="M2893.9,2567h77.5c9.2,0,16.6-7.8,16.6-17.3v-77.5c0-9.6-7.4-17.3-16.6-17.3h-77.5
	c-9.2,0-16.6,7.8-16.6,17.3v77.5C2877.3,2559.3,2884.8,2567,2893.9,2567z"/>
<path fill="#F4EFEF" d="M3191.2,2567h77.5c9.2,0,16.6-7.8,16.6-17.3v-77.5c0-9.6-7.4-17.3-16.6-17.3h-77.5
	c-9.2,0-16.6,7.8-16.6,17.3v77.5C3174.6,2559.3,3182,2567,3191.2,2567z"/>
<path fill="#F4EFEF" d="M3041,2567h77.5c9.2,0,16.6-7.8,16.6-17.3v-77.5c0-9.6-7.4-17.3-16.6-17.3H3041c-9.2,0-16.6,7.8-16.6,17.3
	v77.5C3024.4,2559.3,3031.8,2567,3041,2567z"/>
<path fill="#F4EFEF" d="M1436.8,2567h173.9c7,0,12.6-5.2,12.6-11.7v-84.7c0-6.4-5.7-11.7-12.6-11.7h-173.9c-7,0-12.6,5.2-12.6,11.7
	v84.7C1424.2,2561.8,1429.8,2567,1436.8,2567z"/>
<path fill="#F4EFEF" d="M3314.6,2716.6h-77.5c-9.2,0-16.6-7.8-16.6-17.3v-77.5c0-9.6,7.4-17.3,16.6-17.3h77.5
	c9.2,0,16.6,7.8,16.6,17.3v77.5C3331.2,2708.9,3323.8,2716.6,3314.6,2716.6z"/>
<path fill="#F4EFEF" d="M3162.8,2716.6h-77.5c-9.2,0-16.6-7.8-16.6-17.3v-77.5c0-9.6,7.4-17.3,16.6-17.3h77.5
	c9.2,0,16.6,7.8,16.6,17.3v77.5C3179.4,2708.9,3172,2716.6,3162.8,2716.6z"/>
<path fill="#F4EFEF" d="M3011,2716.6h-77.5c-9.2,0-16.6-7.8-16.6-17.3v-77.5c0-9.6,7.4-17.3,16.6-17.3h77.5
	c9.2,0,16.6,7.8,16.6,17.3v77.5C3027.6,2708.9,3020.2,2716.6,3011,2716.6z"/>
<path fill="#F4EFEF" d="M2867.1,2716.6h-77.5c-9.2,0-16.6-7.8-16.6-17.3v-77.5c0-9.6,7.4-17.3,16.6-17.3h77.5
	c9.2,0,16.6,7.8,16.6,17.3v77.5C2883.7,2708.9,2876.3,2716.6,2867.1,2716.6z"/>
<path fill="#F4EFEF" d="M2716.9,2716.6h-77.5c-9.2,0-16.6-7.8-16.6-17.3v-77.5c0-9.6,7.4-17.3,16.6-17.3h77.5
	c9.2,0,16.6,7.8,16.6,17.3v77.5C2733.5,2708.9,2726.1,2716.6,2716.9,2716.6z"/>
<path fill="#F4EFEF" d="M2565.1,2716.6h-77.5c-9.2,0-16.6-7.8-16.6-17.3v-77.5c0-9.6,7.4-17.3,16.6-17.3h77.5
	c9.2,0,16.6,7.8,16.6,17.3v77.5C2581.7,2708.9,2574.2,2716.6,2565.1,2716.6z"/>
<path fill="#F4EFEF" d="M2411.7,2716.6h-77.5c-9.2,0-16.6-7.8-16.6-17.3v-77.5c0-9.6,7.4-17.3,16.6-17.3h77.5
	c9.2,0,16.6,7.8,16.6,17.3v77.5C2428.3,2708.9,2420.8,2716.6,2411.7,2716.6z"/>
<path fill="#F4EFEF" d="M2255.1,2716.6h-77.5c-9.2,0-16.6-7.8-16.6-17.3v-77.5c0-9.6,7.4-17.3,16.6-17.3h77.5
	c9.2,0,16.6,7.8,16.6,17.3v77.5C2271.7,2708.9,2264.3,2716.6,2255.1,2716.6z"/>
<path fill="#F4EFEF" d="M2103.3,2716.6h-77.5c-9.2,0-16.6-7.8-16.6-17.3v-77.5c0-9.6,7.4-17.3,16.6-17.3h77.5
	c9.2,0,16.6,7.8,16.6,17.3v77.5C2119.9,2708.9,2112.5,2716.6,2103.3,2716.6z"/>
<path fill="#F4EFEF" d="M1806,2716.6h-77.5c-9.2,0-16.6-7.8-16.6-17.3v-77.5c0-9.6,7.4-17.3,16.6-17.3h77.5
	c9.2,0,16.6,7.8,16.6,17.3v77.5C1822.6,2708.9,1815.2,2716.6,1806,2716.6z"/>
<path fill="#F4EFEF" d="M1956.3,2716.6h-77.5c-9.2,0-16.6-7.8-16.6-17.3v-77.5c0-9.6,7.4-17.3,16.6-17.3h77.5
	c9.2,0,16.6,7.8,16.6,17.3v77.5C1972.9,2708.9,1965.4,2716.6,1956.3,2716.6z"/>
<path fill="#F4EFEF" d="M3560.5,2716.6h-173.9c-7,0-12.6-5.2-12.6-11.7v-84.7c0-6.4,5.7-11.7,12.6-11.7h173.9
	c7,0,12.6,5.2,12.6,11.7v84.7C3573.1,2711.4,3567.4,2716.6,3560.5,2716.6z"/>
<path fill="#F4EFEF" d="M1440.3,2716.6h222.3c8.9,0,16.1-5.4,16.1-12.1v-87.9c0-6.7-7.2-12.1-16.1-12.1h-222.3
	c-8.9,0-16.1,5.4-16.1,12.1v87.9C1424.2,2711.2,1431.4,2716.6,1440.3,2716.6z"/>
<path fill="#F4EFEF" d="M3213.3,2864.6h-77.5c-9.2,0-16.6-7.8-16.6-17.3v-77.5c0-9.6,7.4-17.3,16.6-17.3h77.5
	c9.2,0,16.6,7.8,16.6,17.3v77.5C3230,2856.9,3222.5,2864.6,3213.3,2864.6z"/>
<path fill="#F4EFEF" d="M3061.6,2864.6h-77.5c-9.2,0-16.6-7.8-16.6-17.3v-77.5c0-9.6,7.4-17.3,16.6-17.3h77.5
	c9.2,0,16.6,7.8,16.6,17.3v77.5C3078.2,2856.9,3070.8,2864.6,3061.6,2864.6z"/>
<path fill="#F4EFEF" d="M2917.7,2864.6h-77.5c-9.2,0-16.6-7.8-16.6-17.3v-77.5c0-9.6,7.4-17.3,16.6-17.3h77.5
	c9.2,0,16.6,7.8,16.6,17.3v77.5C2934.3,2856.9,2926.9,2864.6,2917.7,2864.6z"/>
<path fill="#F4EFEF" d="M2767.5,2864.6H2690c-9.2,0-16.6-7.8-16.6-17.3v-77.5c0-9.6,7.4-17.3,16.6-17.3h77.5
	c9.2,0,16.6,7.8,16.6,17.3v77.5C2784.1,2856.9,2776.6,2864.6,2767.5,2864.6z"/>
<path fill="#F4EFEF" d="M2615.6,2864.6h-77.5c-9.2,0-16.6-7.8-16.6-17.3v-77.5c0-9.6,7.4-17.3,16.6-17.3h77.5
	c9.2,0,16.6,7.8,16.6,17.3v77.5C2632.2,2856.9,2624.8,2864.6,2615.6,2864.6z"/>
<path fill="#F4EFEF" d="M2462.2,2864.6h-77.5c-9.2,0-16.6-7.8-16.6-17.3v-77.5c0-9.6,7.4-17.3,16.6-17.3h77.5
	c9.2,0,16.6,7.8,16.6,17.3v77.5C2478.8,2856.9,2471.4,2864.6,2462.2,2864.6z"/>
<path fill="#F4EFEF" d="M2305.7,2864.6h-77.5c-9.2,0-16.6-7.8-16.6-17.3v-77.5c0-9.6,7.4-17.3,16.6-17.3h77.5
	c9.2,0,16.6,7.8,16.6,17.3v77.5C2322.3,2856.9,2314.9,2864.6,2305.7,2864.6z"/>
<path fill="#F4EFEF" d="M2153.9,2864.6h-77.5c-9.2,0-16.6-7.8-16.6-17.3v-77.5c0-9.6,7.4-17.3,16.6-17.3h77.5
	c9.2,0,16.6,7.8,16.6,17.3v77.5C2170.5,2856.9,2163.1,2864.6,2153.9,2864.6z"/>
<path fill="#F4EFEF" d="M1856.6,2864.6h-77.5c-9.2,0-16.6-7.8-16.6-17.3v-77.5c0-9.6,7.4-17.3,16.6-17.3h77.5
	c9.2,0,16.6,7.8,16.6,17.3v77.5C1873.2,2856.9,1865.8,2864.6,1856.6,2864.6z"/>
<path fill="#F4EFEF" d="M2006.8,2864.6h-77.5c-9.2,0-16.6-7.8-16.6-17.3v-77.5c0-9.6,7.4-17.3,16.6-17.3h77.5
	c9.2,0,16.6,7.8,16.6,17.3v77.5C2023.4,2856.9,2016,2864.6,2006.8,2864.6z"/>
<path fill="#F4EFEF" d="M1443.6,2864.6h267.9c10.7,0,19.5-5.4,19.5-12.1v-87.9c0-6.7-8.7-12.1-19.5-12.1h-267.9
	c-10.7,0-19.5,5.4-19.5,12.1v87.9C1424.2,2859.2,1432.9,2864.6,1443.6,2864.6z"/>
<path fill="#F4EFEF" d="M3281.3,2864.6h280.9c11.3,0,20.4-5.4,20.4-12.1v-87.9c0-6.7-9.1-12.1-20.4-12.1h-280.9
	c-11.3,0-20.4,5.4-20.4,12.1v87.9C3260.9,2859.2,3270,2864.6,3281.3,2864.6z"/>
<path fill="#F4EFEF" d="M2794.4,3038.6h-714.7c-8.3,0-15-7-15-15.7v-100.5c0-8.7,6.7-15.7,15-15.7h714.7c8.3,0,15,7,15,15.7v100.5
	C2809.4,3031.6,2802.7,3038.6,2794.4,3038.6z"/>
<path fill="#F4EFEF" d="M3574.6,3037.2h-114.3c-4.4,0-7.9-2.9-7.9-6.5v-51.6c0-3.6,3.6-6.5,7.9-6.5h114.3c4.4,0,7.9,2.9,7.9,6.5
	v51.6C3582.6,3034.3,3579,3037.2,3574.6,3037.2z"/>
<path fill="#F4EFEF" d="M3287.1,3037.2h-114.3c-4.4,0-7.9-2.9-7.9-6.5v-51.6c0-3.6,3.6-6.5,7.9-6.5h114.3c4.4,0,7.9,2.9,7.9,6.5
	v51.6C3295,3034.3,3291.5,3037.2,3287.1,3037.2z"/>
<path fill="#F4EFEF" d="M1689.6,3042h-96.8c-8.4,0-15.2-7.1-15.2-15.9v-107c0-8.8,6.8-15.9,15.2-15.9h96.8c8.4,0,15.2,7.1,15.2,15.9
	v107C1704.9,3034.9,1698.1,3042,1689.6,3042z"/>
<path fill="#F4EFEF" d="M1843,3042h-96.8c-8.4,0-15.2-7.1-15.2-15.9v-107c0-8.8,6.8-15.9,15.2-15.9h96.8c8.4,0,15.2,7.1,15.2,15.9
	v107C1858.3,3034.9,1851.5,3042,1843,3042z"/>
<path fill="#F4EFEF" d="M3126.6,3042h-96.8c-8.4,0-15.2-7.1-15.2-15.9v-107c0-8.8,6.8-15.9,15.2-15.9h96.8c8.4,0,15.2,7.1,15.2,15.9
	v107C3141.8,3034.9,3135,3042,3126.6,3042z"/>
<path fill="#F4EFEF" d="M1536.2,3042h-96.8c-8.4,0-15.2-7.1-15.2-15.9v-107c0-8.8,6.8-15.9,15.2-15.9h96.8c8.4,0,15.2,7.1,15.2,15.9
	v107C1551.5,3034.9,1544.6,3042,1536.2,3042z"/>
<path fill="#F4EFEF" d="M3422.3,3042h-96.8c-8.4,0-15.2-7.1-15.2-15.9v-107c0-8.8,6.8-15.9,15.2-15.9h96.8c8.4,0,15.2,7.1,15.2,15.9
	v107C3437.5,3034.9,3430.7,3042,3422.3,3042z"/>
<path fill="#F4EFEF" d="M2017.8,3042h-116.1c-10.1,0-18.3-7.1-18.3-15.9v-107c0-8.8,8.2-15.9,18.3-15.9h116.1
	c10.1,0,18.3,7.1,18.3,15.9v107C2036.1,3034.9,2027.9,3042,2017.8,3042z"/>
<path fill="#F4EFEF" d="M2967.9,3042h-116.1c-10.1,0-18.3-7.1-18.3-15.9v-107c0-8.8,8.2-15.9,18.3-15.9h116.1
	c10.1,0,18.3,7.1,18.3,15.9v107C2986.2,3034.9,2978,3042,2967.9,3042z"/>
</svg>
