<?xml version="1.0" encoding="utf-8"?>
<!-- Generator: Adobe Illustrator 17.1.0, SVG Export Plug-In . SVG Version: 6.00 Build 0)  -->
<!DOCTYPE svg PUBLIC "-//W3C//DTD SVG 1.1//EN" "http://www.w3.org/Graphics/SVG/1.1/DTD/svg11.dtd">
<svg version="1.1" id="Layer_2" xmlns="http://www.w3.org/2000/svg" xmlns:xlink="http://www.w3.org/1999/xlink" x="0px" y="0px"
	 viewBox="0 0 5000 5000" enable-background="new 0 0 5000 5000" xml:space="preserve">
<path fill="#E0E2E1" d="M4193.1,4335.5l-1300,3.9c-3.2,0-6.3-1-8.8-3l-26.7-20.7c-3-2.3-6.6-3.5-10.3-3.5l-489.4,0.2
	c-5.4,0-10.7,1.7-15.1,4.8l-22.2,15.7c-2.4,1.7-5.3,2.6-8.3,2.6H1009.6c-76.6,0-138.7-62.1-138.7-138.7V2048.5
	c0-76.6,62.1-138.7,138.7-138.7h3183.4c76.6,0,138.7,62.1,138.7,138.7v2148.3C4331.8,4273.4,4269.7,4335.5,4193.1,4335.5z"/>
<path fill="#D9DBDA" stroke="#7F7E7F" stroke-miterlimit="10" d="M3126.7,4224.8H2076c-20.2,0-36.6-16.4-36.6-36.6v-743.6
	c0-20.2,16.4-36.6,36.6-36.6h1050.7c20.2,0,36.6,16.4,36.6,36.6v743.6C3163.4,4208.4,3147,4224.8,3126.7,4224.8z"/>
<path fill="#FAFAFF" stroke="#C4C4C4" stroke-miterlimit="10" d="M4078.7,3303.7H1123c-19.4,0-35.1-15.7-35.1-35.1V2108.8
	c0-19.4,15.7-35.1,35.1-35.1h2955.7c19.4,0,35.1,15.7,35.1,35.1v1159.8C4113.8,3288,4098.1,3303.7,4078.7,3303.7z"/>
<path fill="#B8BCBA" d="M4713.2,989.1H496.3l-71.7-155.3c-12.4-26.8,7.2-57.4,36.7-57.4h4288.1c39.4,0,63.8,42.8,43.9,76.7
	L4713.2,989.1z"/>
<path fill="#E0E2E1" d="M4283.3,1891H933.9c-19,0-36.3-11.1-44.5-28.5L433.3,849.1c-3.5-7.9-4.6-16.7-2.4-25.1
	c6.2-22.7,29.5-22.7,49.7-22.7h4259.1c32.7,0,62,32.6,47.5,62.4l-455.2,996.6C4322.9,1879.1,4304,1891,4283.3,1891z"/>
<path fill="none" stroke="#272827" stroke-width="2" stroke-miterlimit="10" d="M4325.3,1836.2c-8.9,18.7-26.3,45.2-47,45.2H945.2
	c-0.6,0-16.3,0.7-26-7.3c-11-9.1-16-26.9-14.1-22.6L450,857.6c-19.1-33.6,5-43.5,18.3-43.5h4274.5c22.1,0.1,48.2,22.7,15.6,76.1
	L4325.3,1836.2z"/>
<polygon fill="#272827" points="4183.6,1801.2 1031.5,1801.2 638.7,889.3 4585.8,889.3 "/>
<g>
	<polygon fill="#333333" points="638.7,890.2 4585.8,890.2 4193.8,1800.2 3806.9,1800.2 2569.1,890.2 640.3,893.8 	"/>
</g>
<ellipse fill="#272827" cx="2612.3" cy="859.1" rx="23.4" ry="10.9"/>
<rect x="1229" y="1881.3" fill="#131516" width="2743.8" height="118.5"/>
<rect x="1229" y="1939" fill="#27292B" width="2743.8" height="28.1"/>
<path fill="#0B0C0C" d="M1294.4,2207.9h-134.1c-14.6,0-26.5-11.9-26.5-26.5v-37.4c0-14.6,11.9-26.5,26.5-26.5h134.1
	c14.6,0,26.5,11.9,26.5,26.5v37.4C1320.9,2196,1309.1,2207.9,1294.4,2207.9z"/>
<path fill="#0B0C0C" d="M1506.5,2207.9h-134.1c-14.6,0-26.5-11.9-26.5-26.5v-37.4c0-14.6,11.9-26.5,26.5-26.5h134.1
	c14.6,0,26.5,11.9,26.5,26.5v37.4C1533,2196,1521.1,2207.9,1506.5,2207.9z"/>
<path fill="#0B0C0C" d="M1718.5,2207.9h-134.1c-14.6,0-26.5-11.9-26.5-26.5v-37.4c0-14.6,11.9-26.5,26.5-26.5h134.1
	c14.6,0,26.5,11.9,26.5,26.5v37.4C1745,2196,1733.1,2207.9,1718.5,2207.9z"/>
<path fill="#0B0C0C" d="M1933.6,2207.9h-134.1c-14.6,0-26.5-11.9-26.5-26.5v-37.4c0-14.6,11.9-26.5,26.5-26.5h134.1
	c14.6,0,26.5,11.9,26.5,26.5v37.4C1960.1,2196,1948.3,2207.9,1933.6,2207.9z"/>
<path fill="#0B0C0C" d="M2139.4,2207.9h-134.1c-14.6,0-26.5-11.9-26.5-26.5v-37.4c0-14.6,11.9-26.5,26.5-26.5h134.1
	c14.6,0,26.5,11.9,26.5,26.5v37.4C2165.9,2196,2154,2207.9,2139.4,2207.9z"/>
<path fill="#0B0C0C" d="M2351.4,2207.9h-134.1c-14.6,0-26.5-11.9-26.5-26.5v-37.4c0-14.6,11.9-26.5,26.5-26.5h134.1
	c14.6,0,26.5,11.9,26.5,26.5v37.4C2377.9,2196,2366.1,2207.9,2351.4,2207.9z"/>
<path fill="#0B0C0C" d="M2563.4,2207.9h-134.1c-14.6,0-26.5-11.9-26.5-26.5v-37.4c0-14.6,11.9-26.5,26.5-26.5h134.1
	c14.6,0,26.5,11.9,26.5,26.5v37.4C2589.9,2196,2578.1,2207.9,2563.4,2207.9z"/>
<path fill="#0B0C0C" d="M2775.5,2207.9h-134.1c-14.6,0-26.5-11.9-26.5-26.5v-37.4c0-14.6,11.9-26.5,26.5-26.5h134.1
	c14.6,0,26.5,11.9,26.5,26.5v37.4C2802,2196,2790.1,2207.9,2775.5,2207.9z"/>
<path fill="#0B0C0C" d="M2984.4,2207.9h-134.1c-14.6,0-26.5-11.9-26.5-26.5v-37.4c0-14.6,11.9-26.5,26.5-26.5h134.1
	c14.6,0,26.5,11.9,26.5,26.5v37.4C3010.9,2196,2999,2207.9,2984.4,2207.9z"/>
<path fill="#0B0C0C" d="M3196.4,2207.9h-134.1c-14.6,0-26.5-11.9-26.5-26.5v-37.4c0-14.6,11.9-26.5,26.5-26.5h134.1
	c14.6,0,26.5,11.9,26.5,26.5v37.4C3222.9,2196,3211,2207.9,3196.4,2207.9z"/>
<path fill="#0B0C0C" d="M3411.5,2207.9h-134.1c-14.6,0-26.5-11.9-26.5-26.5v-37.4c0-14.6,11.9-26.5,26.5-26.5h134.1
	c14.6,0,26.5,11.9,26.5,26.5v37.4C3438,2196,3426.2,2207.9,3411.5,2207.9z"/>
<path fill="#0B0C0C" d="M3620.4,2207.9h-134.1c-14.6,0-26.5-11.9-26.5-26.5v-37.4c0-14.6,11.9-26.5,26.5-26.5h134.1
	c14.6,0,26.5,11.9,26.5,26.5v37.4C3646.9,2196,3635.1,2207.9,3620.4,2207.9z"/>
<path fill="#0B0C0C" d="M3829.3,2207.9h-134.1c-14.6,0-26.5-11.9-26.5-26.5v-37.4c0-14.6,11.9-26.5,26.5-26.5h134.1
	c14.6,0,26.5,11.9,26.5,26.5v37.4C3855.8,2196,3844,2207.9,3829.3,2207.9z"/>
<path fill="#0B0C0C" d="M4041.3,2207.9h-134.1c-14.6,0-26.5-11.9-26.5-26.5v-37.4c0-14.6,11.9-26.5,26.5-26.5h134.1
	c14.6,0,26.5,11.9,26.5,26.5v37.4C4067.9,2196,4056,2207.9,4041.3,2207.9z"/>
<path fill="#0B0C0C" d="M1283.5,2407.4h-124.7c-13.8,0-24.9-11.2-24.9-24.9v-112.2c0-13.8,11.2-24.9,24.9-24.9h124.7
	c13.8,0,24.9,11.2,24.9,24.9v112.2C1308.5,2396.2,1297.3,2407.4,1283.5,2407.4z"/>
<path fill="#0B0C0C" d="M2145.6,3021.1h-124.7c-13.8,0-24.9-11.2-24.9-24.9v-112.2c0-13.8,11.2-24.9,24.9-24.9h124.7
	c13.8,0,24.9,11.2,24.9,24.9v112.2C2170.6,3010,2159.4,3021.1,2145.6,3021.1z"/>
<path fill="#0B0C0C" d="M1939.9,3021.1h-124.7c-13.8,0-24.9-11.2-24.9-24.9v-112.2c0-13.8,11.2-24.9,24.9-24.9h124.7
	c13.8,0,24.9,11.2,24.9,24.9v112.2C1964.8,3010,1953.6,3021.1,1939.9,3021.1z"/>
<path fill="#0B0C0C" d="M1737.2,3021.1h-124.7c-13.8,0-24.9-11.2-24.9-24.9v-112.2c0-13.8,11.2-24.9,24.9-24.9h124.7
	c13.8,0,24.9,11.2,24.9,24.9v112.2C1762.1,3010,1751,3021.1,1737.2,3021.1z"/>
<path fill="#0B0C0C" d="M3670.3,2821.6h-124.7c-13.8,0-24.9-11.2-24.9-24.9v-112.2c0-13.8,11.2-24.9,24.9-24.9h124.7
	c13.8,0,24.9,11.2,24.9,24.9v112.2C3695.3,2810.4,3684.1,2821.6,3670.3,2821.6z"/>
<path fill="#0B0C0C" d="M3464.5,2821.6h-124.7c-13.8,0-24.9-11.2-24.9-24.9v-112.2c0-13.8,11.2-24.9,24.9-24.9h124.7
	c13.8,0,24.9,11.2,24.9,24.9v112.2C3489.5,2810.4,3478.3,2821.6,3464.5,2821.6z"/>
<path fill="#0B0C0C" d="M3261.9,2821.6h-124.7c-13.8,0-24.9-11.2-24.9-24.9v-112.2c0-13.8,11.2-24.9,24.9-24.9h124.7
	c13.8,0,24.9,11.2,24.9,24.9v112.2C3286.8,2810.4,3275.6,2821.6,3261.9,2821.6z"/>
<path fill="#0B0C0C" d="M3056.1,2821.6h-124.7c-13.8,0-24.9-11.2-24.9-24.9v-112.2c0-13.8,11.2-24.9,24.9-24.9h124.7
	c13.8,0,24.9,11.2,24.9,24.9v112.2C3081,2810.4,3069.9,2821.6,3056.1,2821.6z"/>
<path fill="#0B0C0C" d="M2856.5,2821.6h-124.7c-13.8,0-24.9-11.2-24.9-24.9v-112.2c0-13.8,11.2-24.9,24.9-24.9h124.7
	c13.8,0,24.9,11.2,24.9,24.9v112.2C2881.5,2810.4,2870.3,2821.6,2856.5,2821.6z"/>
<path fill="#0B0C0C" d="M2644.5,2821.6h-124.7c-13.8,0-24.9-11.2-24.9-24.9v-112.2c0-13.8,11.2-24.9,24.9-24.9h124.7
	c13.8,0,24.9,11.2,24.9,24.9v112.2C2669.5,2810.4,2658.3,2821.6,2644.5,2821.6z"/>
<path fill="#0B0C0C" d="M2248.5,2821.6h-124.7c-13.8,0-24.9-11.2-24.9-24.9v-112.2c0-13.8,11.2-24.9,24.9-24.9h124.7
	c13.8,0,24.9,11.2,24.9,24.9v112.2C2273.5,2810.4,2262.3,2821.6,2248.5,2821.6z"/>
<path fill="#0B0C0C" d="M2042.7,2821.6H1918c-13.8,0-24.9-11.2-24.9-24.9v-112.2c0-13.8,11.2-24.9,24.9-24.9h124.7
	c13.8,0,24.9,11.2,24.9,24.9v112.2C2067.7,2810.4,2056.5,2821.6,2042.7,2821.6z"/>
<path fill="#0B0C0C" d="M1840.1,2821.6h-124.7c-13.8,0-24.9-11.2-24.9-24.9v-112.2c0-13.8,11.2-24.9,24.9-24.9h124.7
	c13.8,0,24.9,11.2,24.9,24.9v112.2C1865,2810.4,1853.9,2821.6,1840.1,2821.6z"/>
<path fill="#0B0C0C" d="M1634.3,2821.6h-124.7c-13.8,0-24.9-11.2-24.9-24.9v-112.2c0-13.8,11.2-24.9,24.9-24.9h124.7
	c13.8,0,24.9,11.2,24.9,24.9v112.2C1659.2,2810.4,1648.1,2821.6,1634.3,2821.6z"/>
<path fill="#0B0C0C" d="M4030.4,2610.1h-124.7c-13.8,0-24.9-11.2-24.9-24.9v-112.2c0-13.8,11.2-24.9,24.9-24.9h124.7
	c13.8,0,24.9,11.2,24.9,24.9v112.2C4055.4,2598.9,4044.2,2610.1,4030.4,2610.1z"/>
<path fill="#0B0C0C" d="M3827.8,2610.1h-124.7c-13.8,0-24.9-11.2-24.9-24.9v-112.2c0-13.8,11.2-24.9,24.9-24.9h124.7
	c13.8,0,24.9,11.2,24.9,24.9v112.2C3852.7,2598.9,3841.5,2610.1,3827.8,2610.1z"/>
<path fill="#0B0C0C" d="M3625.1,2610.1h-124.7c-13.8,0-24.9-11.2-24.9-24.9v-112.2c0-13.8,11.2-24.9,24.9-24.9h124.7
	c13.8,0,24.9,11.2,24.9,24.9v112.2C3650,2598.9,3638.9,2610.1,3625.1,2610.1z"/>
<path fill="#0B0C0C" d="M3422.4,2610.1h-124.7c-13.8,0-24.9-11.2-24.9-24.9v-112.2c0-13.8,11.2-24.9,24.9-24.9h124.7
	c13.8,0,24.9,11.2,24.9,24.9v112.2C3447.4,2598.9,3436.2,2610.1,3422.4,2610.1z"/>
<path fill="#0B0C0C" d="M3219.8,2610.1h-124.7c-13.8,0-24.9-11.2-24.9-24.9v-112.2c0-13.8,11.2-24.9,24.9-24.9h124.7
	c13.8,0,24.9,11.2,24.9,24.9v112.2C3244.7,2598.9,3233.5,2610.1,3219.8,2610.1z"/>
<path fill="#0B0C0C" d="M3014,2610.1h-124.7c-13.8,0-24.9-11.2-24.9-24.9v-112.2c0-13.8,11.2-24.9,24.9-24.9H3014
	c13.8,0,24.9,11.2,24.9,24.9v112.2C3038.9,2598.9,3027.8,2610.1,3014,2610.1z"/>
<path fill="#0B0C0C" d="M2805.1,2610.1h-124.7c-13.8,0-24.9-11.2-24.9-24.9v-112.2c0-13.8,11.2-24.9,24.9-24.9h124.7
	c13.8,0,24.9,11.2,24.9,24.9v112.2C2830,2598.9,2818.9,2610.1,2805.1,2610.1z"/>
<path fill="#0B0C0C" d="M2605.5,2610.1h-124.7c-13.8,0-24.9-11.2-24.9-24.9v-112.2c0-13.8,11.2-24.9,24.9-24.9h124.7
	c13.8,0,24.9,11.2,24.9,24.9v112.2C2630.5,2598.9,2619.3,2610.1,2605.5,2610.1z"/>
<path fill="#0B0C0C" d="M2402.9,2610.1h-124.7c-13.8,0-24.9-11.2-24.9-24.9v-112.2c0-13.8,11.2-24.9,24.9-24.9h124.7
	c13.8,0,24.9,11.2,24.9,24.9v112.2C2427.8,2598.9,2416.6,2610.1,2402.9,2610.1z"/>
<path fill="#0B0C0C" d="M2197.1,2610.1h-124.7c-13.8,0-24.9-11.2-24.9-24.9v-112.2c0-13.8,11.2-24.9,24.9-24.9h124.7
	c13.8,0,24.9,11.2,24.9,24.9v112.2C2222,2598.9,2210.9,2610.1,2197.1,2610.1z"/>
<path fill="#0B0C0C" d="M1997.5,2610.1h-124.7c-13.8,0-24.9-11.2-24.9-24.9v-112.2c0-13.8,11.2-24.9,24.9-24.9h124.7
	c13.8,0,24.9,11.2,24.9,24.9v112.2C2022.5,2598.9,2011.3,2610.1,1997.5,2610.1z"/>
<path fill="#0B0C0C" d="M1794.9,2610.1h-124.7c-13.8,0-24.9-11.2-24.9-24.9v-112.2c0-13.8,11.2-24.9,24.9-24.9h124.7
	c13.8,0,24.9,11.2,24.9,24.9v112.2C1819.8,2598.9,1808.6,2610.1,1794.9,2610.1z"/>
<path fill="#0B0C0C" d="M1589.1,2610.1h-124.7c-13.8,0-24.9-11.2-24.9-24.9v-112.2c0-13.8,11.2-24.9,24.9-24.9h124.7
	c13.8,0,24.9,11.2,24.9,24.9v112.2C1614,2598.9,1602.9,2610.1,1589.1,2610.1z"/>
<path fill="#0B0C0C" d="M3724.9,2407.4h-124.7c-13.8,0-24.9-11.2-24.9-24.9v-112.2c0-13.8,11.2-24.9,24.9-24.9h124.7
	c13.8,0,24.9,11.2,24.9,24.9v112.2C3749.8,2396.2,3738.7,2407.4,3724.9,2407.4z"/>
<path fill="#0B0C0C" d="M3522.2,2407.4h-124.7c-13.8,0-24.9-11.2-24.9-24.9v-112.2c0-13.8,11.2-24.9,24.9-24.9h124.7
	c13.8,0,24.9,11.2,24.9,24.9v112.2C3547.2,2396.2,3536,2407.4,3522.2,2407.4z"/>
<path fill="#0B0C0C" d="M3322.7,2407.4h-124.7c-13.8,0-24.9-11.2-24.9-24.9v-112.2c0-13.8,11.2-24.9,24.9-24.9h124.7
	c13.8,0,24.9,11.2,24.9,24.9v112.2C3347.6,2396.2,3336.4,2407.4,3322.7,2407.4z"/>
<path fill="#0B0C0C" d="M3116.9,2407.4h-124.7c-13.8,0-24.9-11.2-24.9-24.9v-112.2c0-13.8,11.2-24.9,24.9-24.9h124.7
	c13.8,0,24.9,11.2,24.9,24.9v112.2C3141.8,2396.2,3130.7,2407.4,3116.9,2407.4z"/>
<path fill="#0B0C0C" d="M2914.2,2407.4h-124.7c-13.8,0-24.9-11.2-24.9-24.9v-112.2c0-13.8,11.2-24.9,24.9-24.9h124.7
	c13.8,0,24.9,11.2,24.9,24.9v112.2C2939.2,2396.2,2928,2407.4,2914.2,2407.4z"/>
<path fill="#0B0C0C" d="M2705.3,2407.4h-124.7c-13.8,0-24.9-11.2-24.9-24.9v-112.2c0-13.8,11.2-24.9,24.9-24.9h124.7
	c13.8,0,24.9,11.2,24.9,24.9v112.2C2730.3,2396.2,2719.1,2407.4,2705.3,2407.4z"/>
<path fill="#0B0C0C" d="M2502.6,2407.4h-124.7c-13.8,0-24.9-11.2-24.9-24.9v-112.2c0-13.8,11.2-24.9,24.9-24.9h124.7
	c13.8,0,24.9,11.2,24.9,24.9v112.2C2527.6,2396.2,2516.4,2407.4,2502.6,2407.4z"/>
<path fill="#0B0C0C" d="M2300,2407.4h-124.7c-13.8,0-24.9-11.2-24.9-24.9v-112.2c0-13.8,11.2-24.9,24.9-24.9H2300
	c13.8,0,24.9,11.2,24.9,24.9v112.2C2324.9,2396.2,2313.7,2407.4,2300,2407.4z"/>
<path fill="#0B0C0C" d="M2097.3,2407.4h-124.7c-13.8,0-24.9-11.2-24.9-24.9v-112.2c0-13.8,11.2-24.9,24.9-24.9h124.7
	c13.8,0,24.9,11.2,24.9,24.9v112.2C2122.3,2396.2,2111.1,2407.4,2097.3,2407.4z"/>
<path fill="#0B0C0C" d="M1894.6,2407.4h-124.7c-13.8,0-24.9-11.2-24.9-24.9v-112.2c0-13.8,11.2-24.9,24.9-24.9h124.7
	c13.8,0,24.9,11.2,24.9,24.9v112.2C1919.6,2396.2,1908.4,2407.4,1894.6,2407.4z"/>
<path fill="#0B0C0C" d="M1692,2407.4h-124.7c-13.8,0-24.9-11.2-24.9-24.9v-112.2c0-13.8,11.2-24.9,24.9-24.9H1692
	c13.8,0,24.9,11.2,24.9,24.9v112.2C1716.9,2396.2,1705.7,2407.4,1692,2407.4z"/>
<path fill="#0B0C0C" d="M1486.2,2407.4h-124.7c-13.8,0-24.9-11.2-24.9-24.9v-112.2c0-13.8,11.2-24.9,24.9-24.9h124.7
	c13.8,0,24.9,11.2,24.9,24.9v112.2C1511.1,2396.2,1500,2407.4,1486.2,2407.4z"/>
<path fill="#0B0C0C" d="M2451.2,2821.6h-124.7c-13.8,0-24.9-11.2-24.9-24.9v-112.2c0-13.8,11.2-24.9,24.9-24.9h124.7
	c13.8,0,24.9,11.2,24.9,24.9v112.2C2476.1,2810.4,2465,2821.6,2451.2,2821.6z"/>
<path fill="#0B0C0C" d="M3570.5,3021.1h-124.7c-13.8,0-24.9-11.2-24.9-24.9v-112.2c0-13.8,11.2-24.9,24.9-24.9h124.7
	c13.8,0,24.9,11.2,24.9,24.9v112.2C3595.5,3010,3584.3,3021.1,3570.5,3021.1z"/>
<path fill="#0B0C0C" d="M3364.8,3021.1H3240c-13.8,0-24.9-11.2-24.9-24.9v-112.2c0-13.8,11.2-24.9,24.9-24.9h124.7
	c13.8,0,24.9,11.2,24.9,24.9v112.2C3389.7,3010,3378.5,3021.1,3364.8,3021.1z"/>
<path fill="#0B0C0C" d="M3159,3021.1h-124.7c-13.8,0-24.9-11.2-24.9-24.9v-112.2c0-13.8,11.2-24.9,24.9-24.9H3159
	c13.8,0,24.9,11.2,24.9,24.9v112.2C3183.9,3010,3172.7,3021.1,3159,3021.1z"/>
<path fill="#0B0C0C" d="M2956.3,3021.1h-124.7c-13.8,0-24.9-11.2-24.9-24.9v-112.2c0-13.8,11.2-24.9,24.9-24.9h124.7
	c13.8,0,24.9,11.2,24.9,24.9v112.2C2981.2,3010,2970.1,3021.1,2956.3,3021.1z"/>
<path fill="#0B0C0C" d="M2753.6,3021.1h-124.7c-13.8,0-24.9-11.2-24.9-24.9v-112.2c0-13.8,11.2-24.9,24.9-24.9h124.7
	c13.8,0,24.9,11.2,24.9,24.9v112.2C2778.6,3010,2767.4,3021.1,2753.6,3021.1z"/>
<path fill="#0B0C0C" d="M2557.2,3021.1h-124.7c-13.8,0-24.9-11.2-24.9-24.9v-112.2c0-13.8,11.2-24.9,24.9-24.9h124.7
	c13.8,0,24.9,11.2,24.9,24.9v112.2C2582.1,3010,2571,3021.1,2557.2,3021.1z"/>
<path fill="#0B0C0C" d="M2348.3,3021.1h-124.7c-13.8,0-24.9-11.2-24.9-24.9v-112.2c0-13.8,11.2-24.9,24.9-24.9h124.7
	c13.8,0,24.9,11.2,24.9,24.9v112.2C2373.2,3010,2362.1,3021.1,2348.3,3021.1z"/>
<path fill="#0B0C0C" d="M2969.1,3259h-945.5c-12.7,0-23-10.3-23-23v-141.1c0-12.7,10.3-23,23-23h945.5c12.7,0,23,10.3,23,23V3236
	C2992.1,3248.7,2981.8,3259,2969.1,3259z"/>
<path fill="#0B0C0C" d="M1398.9,2614.2h-241.1c-10.3,0-18.7-8.4-18.7-18.7v-128.9c0-10.3,8.4-18.7,18.7-18.7h241.1
	c10.3,0,18.7,8.4,18.7,18.7v128.9C1417.6,2605.9,1409.2,2614.2,1398.9,2614.2z"/>
<path fill="#0B0C0C" d="M1446.1,2823.7h-283.6c-10.1,0-18.2-8.4-18.2-18.7v-128.9c0-10.3,8.2-18.7,18.2-18.7h283.6
	c10.1,0,18.2,8.4,18.2,18.7V2805C1464.4,2815.3,1456.2,2823.7,1446.1,2823.7z"/>
<path fill="#0B0C0C" d="M1546.5,3020.1h-388.7c-10.3,0-18.7-8.4-18.7-18.7v-122.6c0-10.3,8.4-18.7,18.7-18.7h388.7
	c10.3,0,18.7,8.4,18.7,18.7v122.6C1565.2,3011.7,1556.8,3020.1,1546.5,3020.1z"/>
<path fill="#0B0C0C" d="M1297,3260h-139.3c-10.3,0-18.7-8.4-18.7-18.7v-151.7c0-10.3,8.4-18.7,18.7-18.7H1297
	c10.3,0,18.7,8.4,18.7,18.7v151.7C1315.7,3251.6,1307.4,3260,1297,3260z"/>
<path fill="#0B0C0C" d="M1705.5,3260h-139.3c-10.3,0-18.7-8.4-18.7-18.7v-151.7c0-10.3,8.4-18.7,18.7-18.7h139.3
	c10.3,0,18.7,8.4,18.7,18.7v151.7C1724.2,3251.6,1715.8,3260,1705.5,3260z"/>
<path fill="#0B0C0C" d="M1499.7,3260h-139.3c-10.3,0-18.7-8.4-18.7-18.7v-151.7c0-10.3,8.4-18.7,18.7-18.7h139.3
	c10.3,0,18.7,8.4,18.7,18.7v151.7C1518.4,3251.6,1510,3260,1499.7,3260z"/>
<path fill="#0B0C0C" d="M1958,3260h-185c-10.3,0-18.7-8.4-18.7-18.7v-151.7c0-10.3,8.4-18.7,18.7-18.7h185
	c10.3,0,18.7,8.4,18.7,18.7v151.7C1976.7,3251.6,1968.4,3260,1958,3260z"/>
<path fill="#0B0C0C" d="M4043.7,2407.4h-238.5c-11.6,0-21.1-9.4-21.1-21.1v-120c0-11.6,9.4-21.1,21.1-21.1h238.5
	c11.6,0,21.1,9.4,21.1,21.1v120C4064.7,2398,4055.3,2407.4,4043.7,2407.4z"/>
<path fill="#0B0C0C" d="M4033.7,2821.6h-289.8c-12,0-21.6-9.4-21.6-21.1v-120c0-11.6,9.7-21.1,21.6-21.1h289.8
	c12,0,21.6,9.4,21.6,21.1v120C4055.4,2812.2,4045.7,2821.6,4033.7,2821.6z"/>
<path fill="#0B0C0C" d="M4034.3,3021.1h-391.3c-11.6,0-21.1-9.4-21.1-21.1v-120c0-11.6,9.4-21.1,21.1-21.1h391.3
	c11.6,0,21.1,9.4,21.1,21.1v120C4055.4,3011.7,4045.9,3021.1,4034.3,3021.1z"/>
<path fill="#0B0C0C" d="M3214.3,3257.4h-173c-11.6,0-21.1-9.4-21.1-21.1v-141.8c0-11.6,9.4-21.1,21.1-21.1h173
	c11.6,0,21.1,9.4,21.1,21.1v141.8C3235.4,3248,3225.9,3257.4,3214.3,3257.4z"/>
<path fill="#0B0C0C" d="M3426.3,3257.4h-138.7c-11.6,0-21.1-9.4-21.1-21.1v-141.8c0-11.6,9.4-21.1,21.1-21.1h138.7
	c11.6,0,21.1,9.4,21.1,21.1v141.8C3447.4,3248,3437.9,3257.4,3426.3,3257.4z"/>
<path fill="#0B0C0C" d="M4032.5,3247h-128.9c-11.5,0-20.8-9.3-20.8-20.8v-49.9c0-11.5,9.3-20.8,20.8-20.8h128.9
	c11.5,0,20.8,9.3,20.8,20.8v49.9C4053.3,3237.7,4044,3247,4032.5,3247z"/>
<path fill="#0B0C0C" d="M3626.1,3247h-128.9c-11.5,0-20.8-9.3-20.8-20.8v-49.9c0-11.5,9.3-20.8,20.8-20.8h128.9
	c11.5,0,20.8,9.3,20.8,20.8v49.9C3646.9,3237.7,3637.6,3247,3626.1,3247z"/>
<path fill="#0B0C0C" d="M3842.8,3265.9h-155.9c-5.7,0-10.4-4.7-10.4-10.4v-174.6c0-5.7,4.7-10.4,10.4-10.4h155.9
	c5.7,0,10.4,4.7,10.4,10.4v174.6C3853.2,3261.3,3848.6,3265.9,3842.8,3265.9z"/>
<path fill="#292B2C" d="M1294.9,2218.4h-134.1c-14.6,0-26.5-11.9-26.5-26.5v-37.4c0-14.6,11.9-26.5,26.5-26.5h134.1
	c14.6,0,26.5,11.9,26.5,26.5v37.4C1321.4,2206.6,1309.6,2218.4,1294.9,2218.4z"/>
<path fill="#292B2C" d="M1507,2218.4h-134.1c-14.6,0-26.5-11.9-26.5-26.5v-37.4c0-14.6,11.9-26.5,26.5-26.5H1507
	c14.6,0,26.5,11.9,26.5,26.5v37.4C1533.5,2206.6,1521.6,2218.4,1507,2218.4z"/>
<path fill="#292B2C" d="M1719,2218.4h-134.1c-14.6,0-26.5-11.9-26.5-26.5v-37.4c0-14.6,11.9-26.5,26.5-26.5H1719
	c14.6,0,26.5,11.9,26.5,26.5v37.4C1745.5,2206.6,1733.6,2218.4,1719,2218.4z"/>
<path fill="#292B2C" d="M1934.1,2218.4H1800c-14.6,0-26.5-11.9-26.5-26.5v-37.4c0-14.6,11.9-26.5,26.5-26.5h134.1
	c14.6,0,26.5,11.9,26.5,26.5v37.4C1960.6,2206.6,1948.7,2218.4,1934.1,2218.4z"/>
<path fill="#292B2C" d="M2139.9,2218.4h-134.1c-14.6,0-26.5-11.9-26.5-26.5v-37.4c0-14.6,11.9-26.5,26.5-26.5h134.1
	c14.6,0,26.5,11.9,26.5,26.5v37.4C2166.4,2206.6,2154.5,2218.4,2139.9,2218.4z"/>
<path fill="#292B2C" d="M2351.9,2218.4h-134.1c-14.6,0-26.5-11.9-26.5-26.5v-37.4c0-14.6,11.9-26.5,26.5-26.5h134.1
	c14.6,0,26.5,11.9,26.5,26.5v37.4C2378.4,2206.6,2366.6,2218.4,2351.9,2218.4z"/>
<path fill="#292B2C" d="M2563.9,2218.4h-134.1c-14.6,0-26.5-11.9-26.5-26.5v-37.4c0-14.6,11.9-26.5,26.5-26.5h134.1
	c14.6,0,26.5,11.9,26.5,26.5v37.4C2590.4,2206.6,2578.6,2218.4,2563.9,2218.4z"/>
<path fill="#292B2C" d="M2776,2218.4h-134.1c-14.6,0-26.5-11.9-26.5-26.5v-37.4c0-14.6,11.9-26.5,26.5-26.5H2776
	c14.6,0,26.5,11.9,26.5,26.5v37.4C2802.5,2206.6,2790.6,2218.4,2776,2218.4z"/>
<path fill="#292B2C" d="M2984.9,2218.4h-134.1c-14.6,0-26.5-11.9-26.5-26.5v-37.4c0-14.6,11.9-26.5,26.5-26.5h134.1
	c14.6,0,26.5,11.9,26.5,26.5v37.4C3011.4,2206.6,2999.5,2218.4,2984.9,2218.4z"/>
<path fill="#292B2C" d="M3196.9,2218.4h-134.1c-14.6,0-26.5-11.9-26.5-26.5v-37.4c0-14.6,11.9-26.5,26.5-26.5h134.1
	c14.6,0,26.5,11.9,26.5,26.5v37.4C3223.4,2206.6,3211.5,2218.4,3196.9,2218.4z"/>
<path fill="#292B2C" d="M3412,2218.4h-134.1c-14.6,0-26.5-11.9-26.5-26.5v-37.4c0-14.6,11.9-26.5,26.5-26.5H3412
	c14.6,0,26.5,11.9,26.5,26.5v37.4C3438.5,2206.6,3426.7,2218.4,3412,2218.4z"/>
<path fill="#292B2C" d="M3620.9,2218.4h-134.1c-14.6,0-26.5-11.9-26.5-26.5v-37.4c0-14.6,11.9-26.5,26.5-26.5h134.1
	c14.6,0,26.5,11.9,26.5,26.5v37.4C3647.4,2206.6,3635.6,2218.4,3620.9,2218.4z"/>
<path fill="#292B2C" d="M3829.8,2218.4h-134.1c-14.6,0-26.5-11.9-26.5-26.5v-37.4c0-14.6,11.9-26.5,26.5-26.5h134.1
	c14.6,0,26.5,11.9,26.5,26.5v37.4C3856.3,2206.6,3844.5,2218.4,3829.8,2218.4z"/>
<path fill="#292B2C" d="M4041.8,2218.4h-134.1c-14.6,0-26.5-11.9-26.5-26.5v-37.4c0-14.6,11.9-26.5,26.5-26.5h134.1
	c14.6,0,26.5,11.9,26.5,26.5v37.4C4068.3,2206.6,4056.5,2218.4,4041.8,2218.4z"/>
<path fill="#292B2C" d="M1284,2418h-124.7c-13.8,0-24.9-11.2-24.9-24.9v-112.2c0-13.8,11.2-24.9,24.9-24.9H1284
	c13.8,0,24.9,11.2,24.9,24.9V2393C1309,2406.8,1297.8,2418,1284,2418z"/>
<path fill="#292B2C" d="M2146.1,3031.7h-124.7c-13.8,0-24.9-11.2-24.9-24.9v-112.2c0-13.8,11.2-24.9,24.9-24.9h124.7
	c13.8,0,24.9,11.2,24.9,24.9v112.2C2171.1,3020.5,2159.9,3031.7,2146.1,3031.7z"/>
<path fill="#292B2C" d="M1940.3,3031.7h-124.7c-13.8,0-24.9-11.2-24.9-24.9v-112.2c0-13.8,11.2-24.9,24.9-24.9h124.7
	c13.8,0,24.9,11.2,24.9,24.9v112.2C1965.3,3020.5,1954.1,3031.7,1940.3,3031.7z"/>
<path fill="#292B2C" d="M1737.7,3031.7H1613c-13.8,0-24.9-11.2-24.9-24.9v-112.2c0-13.8,11.2-24.9,24.9-24.9h124.7
	c13.8,0,24.9,11.2,24.9,24.9v112.2C1762.6,3020.5,1751.5,3031.7,1737.7,3031.7z"/>
<path fill="#292B2C" d="M3670.8,2832.2h-124.7c-13.8,0-24.9-11.2-24.9-24.9V2695c0-13.8,11.2-24.9,24.9-24.9h124.7
	c13.8,0,24.9,11.2,24.9,24.9v112.2C3695.8,2821,3684.6,2832.2,3670.8,2832.2z"/>
<path fill="#292B2C" d="M3465,2832.2h-124.7c-13.8,0-24.9-11.2-24.9-24.9V2695c0-13.8,11.2-24.9,24.9-24.9H3465
	c13.8,0,24.9,11.2,24.9,24.9v112.2C3490,2821,3478.8,2832.2,3465,2832.2z"/>
<path fill="#292B2C" d="M3262.4,2832.2h-124.7c-13.8,0-24.9-11.2-24.9-24.9V2695c0-13.8,11.2-24.9,24.9-24.9h124.7
	c13.8,0,24.9,11.2,24.9,24.9v112.2C3287.3,2821,3276.1,2832.2,3262.4,2832.2z"/>
<path fill="#292B2C" d="M3056.6,2832.2h-124.7c-13.8,0-24.9-11.2-24.9-24.9V2695c0-13.8,11.2-24.9,24.9-24.9h124.7
	c13.8,0,24.9,11.2,24.9,24.9v112.2C3081.5,2821,3070.3,2832.2,3056.6,2832.2z"/>
<path fill="#292B2C" d="M2857,2832.2h-124.7c-13.8,0-24.9-11.2-24.9-24.9V2695c0-13.8,11.2-24.9,24.9-24.9H2857
	c13.8,0,24.9,11.2,24.9,24.9v112.2C2882,2821,2870.8,2832.2,2857,2832.2z"/>
<path fill="#292B2C" d="M2645,2832.2h-124.7c-13.8,0-24.9-11.2-24.9-24.9V2695c0-13.8,11.2-24.9,24.9-24.9H2645
	c13.8,0,24.9,11.2,24.9,24.9v112.2C2669.9,2821,2658.8,2832.2,2645,2832.2z"/>
<path fill="#292B2C" d="M2249,2832.2h-124.7c-13.8,0-24.9-11.2-24.9-24.9V2695c0-13.8,11.2-24.9,24.9-24.9H2249
	c13.8,0,24.9,11.2,24.9,24.9v112.2C2274,2821,2262.8,2832.2,2249,2832.2z"/>
<path fill="#292B2C" d="M2043.2,2832.2h-124.7c-13.8,0-24.9-11.2-24.9-24.9V2695c0-13.8,11.2-24.9,24.9-24.9h124.7
	c13.8,0,24.9,11.2,24.9,24.9v112.2C2068.2,2821,2057,2832.2,2043.2,2832.2z"/>
<path fill="#292B2C" d="M1840.6,2832.2h-124.7c-13.8,0-24.9-11.2-24.9-24.9V2695c0-13.8,11.2-24.9,24.9-24.9h124.7
	c13.8,0,24.9,11.2,24.9,24.9v112.2C1865.5,2821,1854.3,2832.2,1840.6,2832.2z"/>
<path fill="#292B2C" d="M1634.8,2832.2h-124.7c-13.8,0-24.9-11.2-24.9-24.9V2695c0-13.8,11.2-24.9,24.9-24.9h124.7
	c13.8,0,24.9,11.2,24.9,24.9v112.2C1659.7,2821,1648.6,2832.2,1634.8,2832.2z"/>
<path fill="#292B2C" d="M4030.9,2620.6h-124.7c-13.8,0-24.9-11.2-24.9-24.9v-112.2c0-13.8,11.2-24.9,24.9-24.9h124.7
	c13.8,0,24.9,11.2,24.9,24.9v112.2C4055.9,2609.5,4044.7,2620.6,4030.9,2620.6z"/>
<path fill="#292B2C" d="M3828.3,2620.6h-124.7c-13.8,0-24.9-11.2-24.9-24.9v-112.2c0-13.8,11.2-24.9,24.9-24.9h124.7
	c13.8,0,24.9,11.2,24.9,24.9v112.2C3853.2,2609.5,3842,2620.6,3828.3,2620.6z"/>
<path fill="#292B2C" d="M3625.6,2620.6h-124.7c-13.8,0-24.9-11.2-24.9-24.9v-112.2c0-13.8,11.2-24.9,24.9-24.9h124.7
	c13.8,0,24.9,11.2,24.9,24.9v112.2C3650.5,2609.5,3639.4,2620.6,3625.6,2620.6z"/>
<path fill="#292B2C" d="M3422.9,2620.6h-124.7c-13.8,0-24.9-11.2-24.9-24.9v-112.2c0-13.8,11.2-24.9,24.9-24.9h124.7
	c13.8,0,24.9,11.2,24.9,24.9v112.2C3447.9,2609.5,3436.7,2620.6,3422.9,2620.6z"/>
<path fill="#292B2C" d="M3220.3,2620.6h-124.7c-13.8,0-24.9-11.2-24.9-24.9v-112.2c0-13.8,11.2-24.9,24.9-24.9h124.7
	c13.8,0,24.9,11.2,24.9,24.9v112.2C3245.2,2609.5,3234,2620.6,3220.3,2620.6z"/>
<path fill="#292B2C" d="M3014.5,2620.6h-124.7c-13.8,0-24.9-11.2-24.9-24.9v-112.2c0-13.8,11.2-24.9,24.9-24.9h124.7
	c13.8,0,24.9,11.2,24.9,24.9v112.2C3039.4,2609.5,3028.3,2620.6,3014.5,2620.6z"/>
<path fill="#292B2C" d="M2805.6,2620.6h-124.7c-13.8,0-24.9-11.2-24.9-24.9v-112.2c0-13.8,11.2-24.9,24.9-24.9h124.7
	c13.8,0,24.9,11.2,24.9,24.9v112.2C2830.5,2609.5,2819.4,2620.6,2805.6,2620.6z"/>
<path fill="#292B2C" d="M2606,2620.6h-124.7c-13.8,0-24.9-11.2-24.9-24.9v-112.2c0-13.8,11.2-24.9,24.9-24.9H2606
	c13.8,0,24.9,11.2,24.9,24.9v112.2C2631,2609.5,2619.8,2620.6,2606,2620.6z"/>
<path fill="#292B2C" d="M2403.4,2620.6h-124.7c-13.8,0-24.9-11.2-24.9-24.9v-112.2c0-13.8,11.2-24.9,24.9-24.9h124.7
	c13.8,0,24.9,11.2,24.9,24.9v112.2C2428.3,2609.5,2417.1,2620.6,2403.4,2620.6z"/>
<path fill="#292B2C" d="M2197.6,2620.6h-124.7c-13.8,0-24.9-11.2-24.9-24.9v-112.2c0-13.8,11.2-24.9,24.9-24.9h124.7
	c13.8,0,24.9,11.2,24.9,24.9v112.2C2222.5,2609.5,2211.4,2620.6,2197.6,2620.6z"/>
<path fill="#292B2C" d="M1998,2620.6h-124.7c-13.8,0-24.9-11.2-24.9-24.9v-112.2c0-13.8,11.2-24.9,24.9-24.9H1998
	c13.8,0,24.9,11.2,24.9,24.9v112.2C2023,2609.5,2011.8,2620.6,1998,2620.6z"/>
<path fill="#292B2C" d="M1795.4,2620.6h-124.7c-13.8,0-24.9-11.2-24.9-24.9v-112.2c0-13.8,11.2-24.9,24.9-24.9h124.7
	c13.8,0,24.9,11.2,24.9,24.9v112.2C1820.3,2609.5,1809.1,2620.6,1795.4,2620.6z"/>
<path fill="#292B2C" d="M1589.6,2620.6h-124.7c-13.8,0-24.9-11.2-24.9-24.9v-112.2c0-13.8,11.2-24.9,24.9-24.9h124.7
	c13.8,0,24.9,11.2,24.9,24.9v112.2C1614.5,2609.5,1603.4,2620.6,1589.6,2620.6z"/>
<path fill="#292B2C" d="M3725.4,2418h-124.7c-13.8,0-24.9-11.2-24.9-24.9v-112.2c0-13.8,11.2-24.9,24.9-24.9h124.7
	c13.8,0,24.9,11.2,24.9,24.9V2393C3750.3,2406.8,3739.1,2418,3725.4,2418z"/>
<path fill="#292B2C" d="M3522.7,2418H3398c-13.8,0-24.9-11.2-24.9-24.9v-112.2c0-13.8,11.2-24.9,24.9-24.9h124.7
	c13.8,0,24.9,11.2,24.9,24.9V2393C3547.7,2406.8,3536.5,2418,3522.7,2418z"/>
<path fill="#292B2C" d="M3323.2,2418h-124.7c-13.8,0-24.9-11.2-24.9-24.9v-112.2c0-13.8,11.2-24.9,24.9-24.9h124.7
	c13.8,0,24.9,11.2,24.9,24.9V2393C3348.1,2406.8,3336.9,2418,3323.2,2418z"/>
<path fill="#292B2C" d="M3117.4,2418h-124.7c-13.8,0-24.9-11.2-24.9-24.9v-112.2c0-13.8,11.2-24.9,24.9-24.9h124.7
	c13.8,0,24.9,11.2,24.9,24.9V2393C3142.3,2406.8,3131.1,2418,3117.4,2418z"/>
<path fill="#292B2C" d="M2914.7,2418H2790c-13.8,0-24.9-11.2-24.9-24.9v-112.2c0-13.8,11.2-24.9,24.9-24.9h124.7
	c13.8,0,24.9,11.2,24.9,24.9V2393C2939.7,2406.8,2928.5,2418,2914.7,2418z"/>
<path fill="#292B2C" d="M2705.8,2418h-124.7c-13.8,0-24.9-11.2-24.9-24.9v-112.2c0-13.8,11.2-24.9,24.9-24.9h124.7
	c13.8,0,24.9,11.2,24.9,24.9V2393C2730.7,2406.8,2719.6,2418,2705.8,2418z"/>
<path fill="#292B2C" d="M2503.1,2418h-124.7c-13.8,0-24.9-11.2-24.9-24.9v-112.2c0-13.8,11.2-24.9,24.9-24.9h124.7
	c13.8,0,24.9,11.2,24.9,24.9V2393C2528.1,2406.8,2516.9,2418,2503.1,2418z"/>
<path fill="#292B2C" d="M2300.5,2418h-124.7c-13.8,0-24.9-11.2-24.9-24.9v-112.2c0-13.8,11.2-24.9,24.9-24.9h124.7
	c13.8,0,24.9,11.2,24.9,24.9V2393C2325.4,2406.8,2314.2,2418,2300.5,2418z"/>
<path fill="#292B2C" d="M2097.8,2418h-124.7c-13.8,0-24.9-11.2-24.9-24.9v-112.2c0-13.8,11.2-24.9,24.9-24.9h124.7
	c13.8,0,24.9,11.2,24.9,24.9V2393C2122.7,2406.8,2111.6,2418,2097.8,2418z"/>
<path fill="#292B2C" d="M1895.1,2418h-124.7c-13.8,0-24.9-11.2-24.9-24.9v-112.2c0-13.8,11.2-24.9,24.9-24.9h124.7
	c13.8,0,24.9,11.2,24.9,24.9V2393C1920.1,2406.8,1908.9,2418,1895.1,2418z"/>
<path fill="#292B2C" d="M1692.5,2418h-124.7c-13.8,0-24.9-11.2-24.9-24.9v-112.2c0-13.8,11.2-24.9,24.9-24.9h124.7
	c13.8,0,24.9,11.2,24.9,24.9V2393C1717.4,2406.8,1706.2,2418,1692.5,2418z"/>
<path fill="#292B2C" d="M1486.7,2418H1362c-13.8,0-24.9-11.2-24.9-24.9v-112.2c0-13.8,11.2-24.9,24.9-24.9h124.7
	c13.8,0,24.9,11.2,24.9,24.9V2393C1511.6,2406.8,1500.5,2418,1486.7,2418z"/>
<path fill="#292B2C" d="M2451.7,2832.2H2327c-13.8,0-24.9-11.2-24.9-24.9V2695c0-13.8,11.2-24.9,24.9-24.9h124.7
	c13.8,0,24.9,11.2,24.9,24.9v112.2C2476.6,2821,2465.5,2832.2,2451.7,2832.2z"/>
<path fill="#292B2C" d="M3571,3031.7h-124.7c-13.8,0-24.9-11.2-24.9-24.9v-112.2c0-13.8,11.2-24.9,24.9-24.9H3571
	c13.8,0,24.9,11.2,24.9,24.9v112.2C3596,3020.5,3584.8,3031.7,3571,3031.7z"/>
<path fill="#292B2C" d="M3365.3,3031.7h-124.7c-13.8,0-24.9-11.2-24.9-24.9v-112.2c0-13.8,11.2-24.9,24.9-24.9h124.7
	c13.8,0,24.9,11.2,24.9,24.9v112.2C3390.2,3020.5,3379,3031.7,3365.3,3031.7z"/>
<path fill="#292B2C" d="M3159.5,3031.7h-124.7c-13.8,0-24.9-11.2-24.9-24.9v-112.2c0-13.8,11.2-24.9,24.9-24.9h124.7
	c13.8,0,24.9,11.2,24.9,24.9v112.2C3184.4,3020.5,3173.2,3031.7,3159.5,3031.7z"/>
<path fill="#292B2C" d="M2956.8,3031.7h-124.7c-13.8,0-24.9-11.2-24.9-24.9v-112.2c0-13.8,11.2-24.9,24.9-24.9h124.7
	c13.8,0,24.9,11.2,24.9,24.9v112.2C2981.7,3020.5,2970.6,3031.7,2956.8,3031.7z"/>
<path fill="#292B2C" d="M2754.1,3031.7h-124.7c-13.8,0-24.9-11.2-24.9-24.9v-112.2c0-13.8,11.2-24.9,24.9-24.9h124.7
	c13.8,0,24.9,11.2,24.9,24.9v112.2C2779.1,3020.5,2767.9,3031.7,2754.1,3031.7z"/>
<path fill="#292B2C" d="M2557.7,3031.7H2433c-13.8,0-24.9-11.2-24.9-24.9v-112.2c0-13.8,11.2-24.9,24.9-24.9h124.7
	c13.8,0,24.9,11.2,24.9,24.9v112.2C2582.6,3020.5,2571.5,3031.7,2557.7,3031.7z"/>
<path fill="#292B2C" d="M2348.8,3031.7h-124.7c-13.8,0-24.9-11.2-24.9-24.9v-112.2c0-13.8,11.2-24.9,24.9-24.9h124.7
	c13.8,0,24.9,11.2,24.9,24.9v112.2C2373.7,3020.5,2362.6,3031.7,2348.8,3031.7z"/>
<path fill="#292B2C" d="M2969.6,3269.5h-945.5c-12.7,0-23-10.3-23-23v-141.1c0-12.7,10.3-23,23-23h945.5c12.7,0,23,10.3,23,23v141.1
	C2992.6,3259.3,2982.3,3269.5,2969.6,3269.5z"/>
<path fill="#292B2C" d="M1399.4,2624.8h-241.1c-10.3,0-18.7-8.4-18.7-18.7v-128.9c0-10.3,8.4-18.7,18.7-18.7h241.1
	c10.3,0,18.7,8.4,18.7,18.7v128.9C1418.1,2616.4,1409.7,2624.8,1399.4,2624.8z"/>
<path fill="#292B2C" d="M1446.6,2834.2H1163c-10.1,0-18.2-8.4-18.2-18.7v-128.9c0-10.3,8.2-18.7,18.2-18.7h283.6
	c10.1,0,18.2,8.4,18.2,18.7v128.9C1464.9,2825.9,1456.7,2834.2,1446.6,2834.2z"/>
<path fill="#292B2C" d="M1547,3030.7h-388.7c-10.3,0-18.7-8.4-18.7-18.7v-122.6c0-10.3,8.4-18.7,18.7-18.7H1547
	c10.3,0,18.7,8.4,18.7,18.7V3012C1565.7,3022.3,1557.3,3030.7,1547,3030.7z"/>
<path fill="#292B2C" d="M1297.5,3270.6h-139.3c-10.3,0-18.7-8.4-18.7-18.7v-151.7c0-10.3,8.4-18.7,18.7-18.7h139.3
	c10.3,0,18.7,8.4,18.7,18.7v151.7C1316.2,3262.2,1307.9,3270.6,1297.5,3270.6z"/>
<path fill="#292B2C" d="M1706,3270.6h-139.3c-10.3,0-18.7-8.4-18.7-18.7v-151.7c0-10.3,8.4-18.7,18.7-18.7H1706
	c10.3,0,18.7,8.4,18.7,18.7v151.7C1724.7,3262.2,1716.3,3270.6,1706,3270.6z"/>
<path fill="#292B2C" d="M1500.2,3270.6h-139.3c-10.3,0-18.7-8.4-18.7-18.7v-151.7c0-10.3,8.4-18.7,18.7-18.7h139.3
	c10.3,0,18.7,8.4,18.7,18.7v151.7C1518.9,3262.2,1510.5,3270.6,1500.2,3270.6z"/>
<path fill="#292B2C" d="M1958.5,3270.6h-185c-10.3,0-18.7-8.4-18.7-18.7v-151.7c0-10.3,8.4-18.7,18.7-18.7h185
	c10.3,0,18.7,8.4,18.7,18.7v151.7C1977.2,3262.2,1968.9,3270.6,1958.5,3270.6z"/>
<path fill="#292B2C" d="M4044.2,2418h-238.5c-11.6,0-21.1-9.4-21.1-21.1v-120c0-11.6,9.4-21.1,21.1-21.1h238.5
	c11.6,0,21.1,9.4,21.1,21.1v120C4065.2,2408.5,4055.8,2418,4044.2,2418z"/>
<path fill="#292B2C" d="M4034.2,2832.2h-289.8c-12,0-21.6-9.4-21.6-21.1v-120c0-11.6,9.7-21.1,21.6-21.1h289.8
	c12,0,21.6,9.4,21.6,21.1v120C4055.9,2822.7,4046.2,2832.2,4034.2,2832.2z"/>
<path fill="#292B2C" d="M4034.8,3031.7h-391.3c-11.6,0-21.1-9.4-21.1-21.1v-120c0-11.6,9.4-21.1,21.1-21.1h391.3
	c11.6,0,21.1,9.4,21.1,21.1v120C4055.9,3022.3,4046.4,3031.7,4034.8,3031.7z"/>
<path fill="#292B2C" d="M3214.8,3268h-173c-11.6,0-21.1-9.4-21.1-21.1v-141.8c0-11.6,9.4-21.1,21.1-21.1h173
	c11.6,0,21.1,9.4,21.1,21.1v141.8C3235.9,3258.6,3226.4,3268,3214.8,3268z"/>
<path fill="#292B2C" d="M3426.8,3268h-138.7c-11.6,0-21.1-9.4-21.1-21.1v-141.8c0-11.6,9.4-21.1,21.1-21.1h138.7
	c11.6,0,21.1,9.4,21.1,21.1v141.8C3447.9,3258.6,3438.4,3268,3426.8,3268z"/>
<path fill="#292B2C" d="M4033,3257.6h-128.9c-11.5,0-20.8-9.3-20.8-20.8v-49.9c0-11.5,9.3-20.8,20.8-20.8H4033
	c11.5,0,20.8,9.3,20.8,20.8v49.9C4053.8,3248.3,4044.5,3257.6,4033,3257.6z"/>
<path fill="#292B2C" d="M3626.6,3257.6h-128.9c-11.5,0-20.8-9.3-20.8-20.8v-49.9c0-11.5,9.3-20.8,20.8-20.8h128.9
	c11.5,0,20.8,9.3,20.8,20.8v49.9C3647.4,3248.3,3638.1,3257.6,3626.6,3257.6z"/>
<path fill="#292B2C" d="M3836.6,3152.6h-143.4c-7.5,0-13.5-6-13.5-13.5v-54c0-7.5,6-13.5,13.5-13.5h143.4c7.5,0,13.5,6,13.5,13.5v54
	C3850.1,3146.6,3844,3152.6,3836.6,3152.6z"/>
<path fill="#292B2C" d="M3836.6,3260.7h-143.4c-7.5,0-13.5-6-13.5-13.5v-54c0-7.5,6-13.5,13.5-13.5h143.4c7.5,0,13.5,6,13.5,13.5v54
	C3850.1,3254.7,3844,3260.7,3836.6,3260.7z"/>
</svg>
