<?xml version="1.0" encoding="utf-8"?>
<!-- Generator: Adobe Illustrator 17.1.0, SVG Export Plug-In . SVG Version: 6.00 Build 0)  -->
<!DOCTYPE svg PUBLIC "-//W3C//DTD SVG 1.1//EN" "http://www.w3.org/Graphics/SVG/1.1/DTD/svg11.dtd">
<svg version="1.1" id="Layer_3" xmlns="http://www.w3.org/2000/svg" xmlns:xlink="http://www.w3.org/1999/xlink" x="0px" y="0px"
	 viewBox="0 0 5000 5000" enable-background="new 0 0 5000 5000" xml:space="preserve">
<path fill="#4E5151" d="M3255.3,2439.8v229.1c0,9.2-7.5,16.7-16.7,16.7h-734.9c-9.2,0-16.7-7.5-16.7-16.7v-229.1
	c0-9.2,7.5-16.7,16.7-16.7h734.9C3247.8,2423.1,3255.3,2430.5,3255.3,2439.8z"/>
<path fill="#5B5E5E" d="M2486.9,2668.8l-40.7-45.9c-3.8-4.3-8.8-7.4-14.3-9l-77.6-21.9c-10.2-2.9-20.7-4.3-31.3-4.3h-33
	c-5.3,0-9.5-4.3-9.5-9.5v-58.5c0-4,3.2-7.2,7.2-7.2h35.3c8.3,0,16.5-1,24.5-3.1l86.2-21.8c3.6-0.9,6.9-2.9,9.4-5.7l46.7-51.6v238.4"
	/>
<g>
	<g>
		<line fill="#4F5151" x1="2489.8" y1="2486.5" x2="2489.8" y2="2473.6"/>
	</g>
</g>
<path fill="#D6B425" d="M2280.5,2572.2h-44c-3.1,0-5.9-1.6-7.5-4.3l-19.8-32.9c-1.3-2.2-0.1-5.2,2.5-5.7l21-4.6
	c0.8-0.2,1.7-0.3,2.6-0.3h45.2V2572.2z"/>
<path fill="#EFCF30" d="M2280.5,2569.6h-41.6c-2.9,0-5.6-1.4-7.1-3.8l-18.7-29.3c-1.3-2-0.1-4.6,2.3-5.1l19.8-4.1
	c0.8-0.2,1.6-0.2,2.4-0.2h42.8V2569.6z"/>
<path fill="#EFCF30" d="M3255.3,2668.8h60.6c3.8,0,7.1-2.3,8.5-5.8l28.7-72.9c0,0,8.4-27.4,0-63.2l-18.1-71.7
	c-2.2-8.6-9.8-14.6-18.7-14.7l-61.1-0.7V2668.8z"/>
<g>
	<g>
		<line fill="#404242" x1="2486.9" y1="2491.1" x2="2486.9" y2="2457.6"/>
		<line fill="#404242" x1="3255.3" y1="2491.1" x2="3255.3" y2="2644.3"/>
		<g>
			<path fill="#383838" d="M2486.9,2668.8c0,9.2,7.5,16.7,16.7,16.7h735c9.2,0,16.7-7.5,16.7-16.7v-24.5h-768.4V2668.8z"/>
		</g>
		<g>
			<rect x="2486.9" y="2457.6" fill="#404242" width="768.3" height="33.5"/>
		</g>
	</g>
</g>
<g>
	<path fill="none" d="M3255.3,2440.6h50.8v-10.1h-53.6c1.8,2.7,2.8,5.8,2.8,9.3V2440.6z"/>
	<path fill="#707575" d="M2486.9,2439.8v0.8h768.3v-0.8c0-3.4-1-6.6-2.8-9.3h-762.7C2488,2433.1,2486.9,2436.3,2486.9,2439.8z"/>
</g>
<g>
	<path fill="#CCAA1D" d="M3347,2545.3c2.4,14.7,0.9,29.7-4.4,43.6l-30.3,79.9h3.5c3.8,0,7.1-2.3,8.5-5.8l28.7-72.9
		c0,0,8.4-27.4,0-63.2l-18.1-71.7c-0.8-3-2.2-5.7-4.1-7.9L3347,2545.3z"/>
</g>
<g>
	<path fill="#D6B425" d="M3271.2,2439.9l-15.9-0.2v229.1h60.6c3.8,0,7.1-2.3,8.5-5.8l3.8-9.7h-57V2439.9z"/>
</g>
<g>
	<path fill="#3D3F3F" d="M2479,2631c0,1.7-2.1,2.6-3.3,1.3l-14.2-14.9c-11.4-11.9-26.1-20.2-42.1-23.7l-90.7-20
		c-4.7-1-9.5-1.6-14.3-1.6h-33.7v6c0,5.3,4.3,9.5,9.5,9.5h33c10.6,0,21.1,1.5,31.3,4.3l77.6,21.9c5.5,1.6,10.5,4.7,14.3,9l40.7,45.9
		h2.8v-238.4l-10.8,11.9V2631z"/>
</g>
<path fill="#707575" d="M2489.8,2430.5v247.6l-0.5-0.7c-1.5-2.1-2.3-4.5-2.3-7.1v-1.5l-0.1-235.1L2489.8,2430.5z"/>
<g>
	<g>
		<g>
			<path fill="#4F5151" d="M2329.5,2530.1l55.6-12.6l53.3-12.1v-9.5l-110.2,24.2c-1.3,0.3-2.6,0.4-4,0.4l-43.7-0.6v11h42.4
				C2325.1,2530.8,2327.4,2530.6,2329.5,2530.1z"/>
		</g>
	</g>
</g>
<g>
	<g>
		<g>
			<path fill="#4F5151" d="M2329.5,2545.6l55.6-12.6l66.4-16.2l27.4-10v-11l-28,11.3l-122.7,28.5c-1.3,0.3-2.6,0.4-4,0.4l-43.7-0.6
				v11h42.4C2325.1,2546.3,2327.4,2546.1,2329.5,2545.6z"/>
		</g>
	</g>
</g>
<g>
	<g>
		<g>
			<polygon fill="#707575" points="2385.1,2522.5 2445.1,2508.5 2445.1,2503.6 2445.1,2493.7 2438.4,2495.8 2438.4,2505.4 
				2326.2,2531.3 2280.5,2530.8 2280.5,2535.9 2326.3,2535.9 			"/>
		</g>
	</g>
</g>
<path fill="#EFCF30" d="M1992.9,2649.9v29.8l-313.5-5.9c-3.2-0.1-6.2-1.6-8-4.3l-6.9-9.8c-4-5.7-6.2-12.5-6.5-19.5
	c-0.3-7.6-1.9-19.3-7.4-34.2c-1.7-4.6-2.9-9.3-3.5-14.1c-2.7-22.9-8.7-89.5,7-115l3.9-30c0.5-4,3.9-7,8-7h0.1l4-11.4
	c1.9-5.3,6.9-8.8,12.5-8.8h310.4v77.5l109.5,1.2c2.5,0,4.7,1.4,5.9,3.6c2,3.8,5.4,10.5,8.7,19.2c10.6,27.4,12.4,57.4,6.1,86
	c-3.1,14-7.7,30.4-13.3,38.8c-1.7,2.5-4.6,4-7.6,4H1992.9z"/>
<g>
	<line fill="#D6B425" x1="1992.9" y1="2480.4" x2="1992.9" y2="2497.2"/>
	<path fill="#D6B425" d="M1650.6,2606c-1.7-4.6-2.9-9.3-3.5-14.1c-2.1-17.8-6.2-61.8-0.6-92.6l-3,49l16.2,101.5
		c-1-3.1-1.6-6.4-1.7-9.7C1657.8,2632.6,1656.2,2620.9,1650.6,2606z"/>
	<path fill="#D6B425" d="M1664.6,2659.7l6.9,9.8c1.8,2.6,10.1,10.1,13.3,10.1h308.2v-29.8h-333.2
		C1660.8,2653.4,1662.4,2656.7,1664.6,2659.7z"/>
	<path fill="#D6B425" d="M1646.5,2499.3l346.4-2.1v-16.7h-340.7C1649.7,2485.7,1647.8,2492.1,1646.5,2499.3z"/>
	<g>
		<path fill="#D6B425" d="M1646.5,2499.3l346.4-2.1H1647C1646.8,2497.9,1646.7,2498.6,1646.5,2499.3z"/>
	</g>
</g>
<polygon fill="#BF9C08" points="2001,2655.8 2001,2649.9 1658.8,2649.9 1661.4,2655.8 "/>
<g>
	<path fill="#FFEFAE" d="M2118.4,2525l-5.8-14.3c1.4,3,2.9,6.5,4.4,10.4C2117.5,2522.3,2117.9,2523.7,2118.4,2525z"/>
	<line fill="#FFEFAE" x1="1992.9" y1="2432.7" x2="1992.9" y2="2447"/>
	<path fill="#FFEFAE" d="M1657.9,2447l-13,63.6c1.4-13.6,4.2-25.7,9.1-33.8L1657.9,2447z"/>
	<path fill="#FFEFAE" d="M1643.8,2533.1c0-2.7,0.1-5.4,0.2-8.1C1644,2525,1642.4,2532.1,1643.8,2533.1z"/>
	<path fill="#FFEFAE" d="M1660.6,2617.5c-0.6-1.4-1.2-2.9-1.7-4.4c-7.8-25.6-8.5-51.2-8-65.9c0.2-5.7-2.6-11-7.1-14.1
		c-0.3,23.5,2,46.9,3.4,58.8c0.6,4.8,1.8,9.6,3.5,14.1c5.6,14.9,7.1,26.6,7.4,34.2c0.1,1.6,0.2,3.2,0.5,4.8
		C1667,2635.1,1662.6,2622.1,1660.6,2617.5z"/>
	<path fill="#FFEFAE" d="M1644,2525h474.4c-0.5-1.3-0.9-2.6-1.4-4c-1.5-3.9-3-7.4-4.4-10.4h-467.6
		C1644.5,2515.3,1644.1,2520.1,1644,2525z"/>
	<path fill="#FFEFAE" d="M1666,2439.9L1666,2439.9c-4.1,0-7.5,3-8.1,7l0,0.1h335v-14.3h-324.4L1666,2439.9z"/>
</g>
</svg>
