<?xml version="1.0" encoding="utf-8"?>
<!-- Generator: Adobe Illustrator 17.1.0, SVG Export Plug-In . SVG Version: 6.00 Build 0)  -->
<!DOCTYPE svg PUBLIC "-//W3C//DTD SVG 1.1//EN" "http://www.w3.org/Graphics/SVG/1.1/DTD/svg11.dtd">
<svg version="1.1" id="Layer_2" xmlns="http://www.w3.org/2000/svg" xmlns:xlink="http://www.w3.org/1999/xlink" x="0px" y="0px"
	 viewBox="0 0 5000 5000" enable-background="new 0 0 5000 5000" xml:space="preserve">
<path fill="#BE1A21" d="M1980.4,2510.7h-26.4c-2.5,0-4.9-0.3-7.3-0.9l-45.3-11.7c-2.3-0.6-4.5-1.1-6.8-1.4
	c-4.9-0.7-14.4-2.6-15.1-5.7c0,0,5.9-4,16.4-5.7c1.7-0.3,3.3-0.5,5-0.9l47.1-11.1c1.5-0.4,3.1-0.5,4.6-0.5h27.7V2510.7z"/>
<g>
	<path fill="#8E0A1A" d="M1944.1,2500.5l-61.4-11.2c-2,1-3.1,1.7-3.1,1.7c0.7,3.1,10.2,5,15.1,5.7c2.3,0.4,4.6,0.8,6.8,1.4
		l45.3,11.7c2.4,0.6,4.8,0.9,7.3,0.9h26.4v-9.6h-30C1948.3,2501.1,1946.2,2500.9,1944.1,2500.5z"/>
</g>
<g>
	<g>
		<g>
			<path fill="#AA1520" d="M1882.5,2489.5c-1.5,0.7-2.4,1.3-2.7,1.5l71.4-4.8h29.3v-7.5h-28.3L1882.5,2489.5z"/>
		</g>
	</g>
</g>
<path fill="#F4F4F2" d="M2884.1,2425.1l-11.2,25.6c-10,27.9-11.5,55.8,0,82.1l11.2,25.6H2147l0.3-0.7c18.4-42.1,18.4-89.7,0-131.8
	l-0.3-0.7H2884.1z"/>
<path fill="#8A8A8A" d="M2152.9,2546.2h-57.7c-2.9,0-5.7-0.5-8.4-1.6l-52.6-21c-3-1.2-6.1-1.8-9.3-1.8h-42.7c0,0-21.3-33.8,0-61.9
	h45.2c2.2,0,4.4-0.4,6.4-1.1l55.1-20c2.5-0.9,5.2-1.4,7.9-1.4h56.1C2152.9,2437.3,2182,2489.9,2152.9,2546.2z"/>
<polygon fill="#B7B7B7" points="2157.9,2448.9 2161.4,2459.8 2091.8,2459.8 2091.8,2448.9 "/>
<polygon fill="#B7B7B7" points="2161.4,2522.9 2158.3,2533.9 2091.8,2533.9 2091.8,2522.9 "/>
<polygon fill="#BE1A21" points="3048.3,2522.8 3124,2522.8 3096.3,2467.9 3048.3,2467.9 "/>
<polygon fill="#B7B7B7" points="2027.1,2489.7 2027.1,2496.3 1976,2495.7 1976,2489.1 "/>
<g>
	<g>
		<path fill="#777676" d="M2088.9,2438.7c0.9-0.3,1.9-0.6,2.8-0.8l-64,21.9c2.1,0,4.1-0.4,6-1.1L2088.9,2438.7z"/>
		<path fill="#777676" d="M2026.5,2520.8l1.2,1.1c0,0-0.1,0-0.1,0L2026.5,2520.8z"/>
		<path fill="#777676" d="M2024.8,2521.8h-42.7c0,0-7-11.1-9-25.8l9,25.8l45.5,0.2l0,0C2026.7,2521.8,2025.8,2521.8,2024.8,2521.8z"
			/>
		<g>
			<path fill="#777676" d="M2027.8,2522c0.9,0-0.7-6.6,0.3-6.5l-0.3-19.5h-54.5c2,14.7,9,25.8,9,25.8L2027.8,2522z"/>
		</g>
		<g>
			<path fill="#777676" d="M2088.9,2438.7l-55.1,20c-1.9,0.7-4,1-6,1.1v62.1c2.2,0.3,4.4,0.8,6.4,1.6l52.6,21c1.6,0.6,3.3,1.1,5,1.3
				v-108C2090.8,2438.1,2089.8,2438.4,2088.9,2438.7z"/>
		</g>
	</g>
</g>
<g>
	<g>
		<g>
			<path fill="#686767" d="M2089,2535.6l-55.5-22.7c-3.5-1.4-7.4-2.1-11.2-1.8l-45.3-0.6c2,4.6,5.3,11.2,5.3,11.2h42.7
				c3.2,0,6.4,0.6,9.3,1.8l52.6,21c2.7,1.1,5.5,1.6,8.4,1.6h57.7c1.6-3.1,3-6.3,4.3-9.4h-62.4
				C2092.8,2536.8,2090.8,2536.4,2089,2535.6z"/>
		</g>
	</g>
</g>
<g>
	<path fill="none" d="M1984.3,2521.8c1.2,2.2,2.4,4.4,3.9,6.6h39.8v-6.4c-1.1-0.1-2.1-0.2-3.2-0.2H1984.3z"/>
	<path fill="#565656" d="M1983.6,2459.8h-1.4c-21.3,28.1,0,61.9,0,61.9h2.2C1969.6,2494.1,1977.6,2471,1983.6,2459.8z"/>
	<path fill="#565656" d="M2151.6,2539.6c-0.7,1.4-2.1,2.3-3.7,2.3h-55.3c-1.6,0-3.2-0.3-4.7-0.9l-57.3-23.4
		c-1.1-0.5-2.4,0.3-2.4,1.5v2.9c2.1,0.3,4.2,0.8,6.1,1.6l52.6,21c2.7,1.1,5.5,1.6,8.4,1.6h57.7c29.1-56.3,0-108.8,0-108.8h-3.2
		C2172,2489.6,2156.3,2529.7,2151.6,2539.6z"/>
</g>
<path fill="#F4F4F2" d="M2877.5,2548.8h57.7c2.9,0,5.7-0.5,8.4-1.6l52.6-21c3-1.2,6.1-1.8,9.3-1.8h42.7c0,0,21.3-33.8,0-61.9h-45.2
	c-2.2,0-4.4-0.4-6.4-1.1l-55.1-20c-2.5-0.9-5.2-1.4-7.9-1.4h-56.1C2877.5,2440,2848.4,2492.5,2877.5,2548.8z"/>
<polygon fill="#FFFFFD" points="2872.5,2451.5 2869,2462.5 2938.6,2462.5 2938.6,2451.5 "/>
<polygon fill="#FFFFFD" points="2869,2525.6 2872,2536.5 2938.6,2536.5 2938.6,2525.6 "/>
<polygon fill="#FFFFFD" points="3003.3,2492.3 3003.3,2498.9 3054.4,2498.4 3054.3,2491.7 "/>
<g>
	<path fill="#D6D6D2" d="M2941.5,2441.4c-0.9-0.3-1.9-0.6-2.8-0.8l64,21.9c-2.1,0-4.1-0.4-6-1.1L2941.5,2441.4z"/>
	<path fill="#D6D6D2" d="M3003.8,2523.5l-1.2,1.1c0,0,0.1,0,0.1,0L3003.8,2523.5z"/>
	<path fill="#D6D6D2" d="M3005.5,2524.4h42.7c0,0,7-11.1,9-25.8l-9,25.8l-45.5,0.2l0,0C3003.7,2524.5,3004.6,2524.4,3005.5,2524.4z"
		/>
	<path fill="#D6D6D2" d="M3002.6,2524.6c-0.9,0,0.7-6.6-0.3-6.5l0.3-19.5h54.5c-2,14.7-9,25.8-9,25.8L3002.6,2524.6z"/>
	<path fill="#D6D6D2" d="M2941.5,2441.4l55.1,20c1.9,0.7,4,1,6,1.1v62.1c-2.2,0.3-4.4,0.8-6.4,1.6l-52.6,21c-1.6,0.6-3.3,1.1-5,1.3
		v-108C2939.6,2440.8,2940.5,2441,2941.5,2441.4z"/>
</g>
<g>
	<g>
		<g>
			<path fill="#BCBCBB" d="M2941.4,2538.3l55.5-22.7c3.5-1.4,7.4-2.1,11.2-1.8l45.3-0.6c-2,4.6-5.3,11.2-5.3,11.2h-42.7
				c-3.2,0-6.4,0.6-9.3,1.8l-52.6,21c-2.7,1.1-5.5,1.6-8.4,1.6h-57.7c-1.6-3.1-3-6.3-4.3-9.4h62.4
				C2937.6,2539.4,2939.6,2539.1,2941.4,2538.3z"/>
		</g>
	</g>
</g>
<g>
	<path fill="none" d="M3046,2524.4c-1.2,2.2-2.4,4.4-3.9,6.6h-39.8v-6.4c1.1-0.1,2.1-0.2,3.2-0.2H3046z"/>
	<path fill="#B2B2B2" d="M2878.8,2542.3c0.7,1.4,2.1,2.3,3.7,2.3h55.3c1.6,0,3.2-0.3,4.7-0.9l57.3-23.4c1.1-0.5,2.4,0.3,2.4,1.5v2.9
		c-2.1,0.3-4.2,0.8-6.1,1.6l-52.6,21c-2.7,1.1-5.5,1.6-8.4,1.6h-57.7c-25.5-59.3,0-108.8,0-108.8h3.2
		C2858.4,2492.2,2874.1,2532.4,2878.8,2542.3z"/>
</g>
<g>
	<polygon fill="#AD121D" points="3048.3,2467.9 3048.3,2522.8 3124,2522.8 3122.3,2519.5 3101.4,2519.5 3074.5,2471.7 
		3098.2,2471.7 3096.3,2467.9 	"/>
</g>
<g>
	<path fill="#FFFFFF" d="M2151.1,2557.7l-0.3,0.7h733.3l-11.1-25.6c-1.7-3.9-3.1-7.8-4.3-11.8l-707.2,3.2
		C2159.3,2535.6,2155.8,2546.8,2151.1,2557.7z"/>
</g>
<g>
	<path fill="#D8D8D8" d="M2147.5,2557.7l-0.3,0.7h736.9l-9.5-21.8l-717.4,0.3C2155.1,2543.9,2150.6,2550.8,2147.5,2557.7z"/>
</g>
<g>
	<path fill="none" d="M2868.8,2462.5l35,0v-25.2h-24.9l-5.8,13.4C2871.4,2454.6,2870,2458.5,2868.8,2462.5z"/>
	<path fill="#FFFFFF" d="M2162,2462.5h706.8c1.2-4,2.6-7.9,4.3-11.8l5.8-13.4l-726,0C2155.7,2445.6,2160.5,2454,2162,2462.5z"/>
</g>
<path fill="#F4F4F2" d="M1806.2,2565.2c0,0,38.2-65.5-2.2-133l-281,15.6l-14.1,2.7c-8.7,1.7-15,8.9-15,17.3v57.1
	c0,9.7,7,18.1,17,20.3l8.1,1.8L1806.2,2565.2z"/>
<g>
	<path fill="#FFFFFF" d="M1590.2,2523.8l-96.3-6.4v7.9c0,9.4,6.7,17.6,16.2,19.7l8.9,2l287.2,18.2c0,0,6.9-10.5,11.2-30.2
		l-218.9-10.1C1595.7,2524.7,1592.9,2524.3,1590.2,2523.8z"/>
</g>
<g>
	<path fill="#D8D8D8" d="M1574.2,2531.1l-80.3-3.3v0.1c0,7.8,5.7,14.6,13.7,16.4l11.4,2.6l287.2,18.2c0,0,5-7.7,9.2-22.2
		l-232.9-10.7C1579.7,2532.1,1576.9,2531.7,1574.2,2531.1z"/>
</g>
<g>
	<path fill="none" d="M1812.7,2447l-3.6-11.6C1810.4,2439.4,1811.6,2443.2,1812.7,2447z"/>
	<path fill="#FFFFFF" d="M1531.7,2452.4c-1.6,0.1-3.1,0.3-4.6,0.6l-24.4,4.8c-5.1,1-8.8,5.3-8.8,10.4v0.1l34-5.2
		c0.9-0.1,1.9-0.2,2.8-0.3l280.1-15.6c-1.1-3.8-3.4-7.6-4.8-11.5L1531.7,2452.4z"/>
</g>
<g>
	<g>
		<path fill="#AA1520" d="M1516.3,2519.7v-49c0-3.9,1-7.7,3-11.1l7.2-12.2l-3.5,0.3l-13.3,2.5c-9.2,1.7-15.8,9.3-15.8,18.2v59.2
			c0,8,5.8,15,14.1,16.9l11.1,2.5l6.1,0.4l-4.9-10.4C1517.7,2531.6,1516.3,2525.7,1516.3,2519.7z"/>
	</g>
</g>
<g>
	<g>
		<path fill="#BE1A21" d="M1506.3,2451.2c-2.6,4.3-5.7,10-7,14.5c-0.4,1.4-0.5,2.8-0.5,4.3v47.8c0,8,5.3,15.2,13.3,17.6
			c0.7,0.2,1.4,0.4,2.2,0.5c0,0-4.7-12.7-4.1-18.5V2472c0-2.5,0.5-5,1.4-7.3l6.1-16l-8,1.5
			C1508.5,2450.5,1507.4,2450.8,1506.3,2451.2z"/>
	</g>
</g>
<path fill="#F4F4F2" d="M3205.4,2559.2c0,0-38.2-65.5,2.2-133l281,15.6l14.1,2.7c8.7,1.7,15,8.9,15,17.3v57.1c0,9.7-7,18.1-17,20.3
	l-8.1,1.8L3205.4,2559.2z"/>
<g>
	<path fill="#FFFFFF" d="M3421.4,2517.8l96.3-6.4v8.9c0,8.8-6.3,16.5-15.2,18.5l-10,2.2l-287.2,18.2c0,0-6.9-10.5-11.2-30.2
		l218.9-10.1C3415.9,2518.7,3418.7,2518.4,3421.4,2517.8z"/>
</g>
<g>
	<path fill="#D8D8D8" d="M3437.4,2525.2l80.3-3.3v0.1c0,7.8-5.7,14.6-13.7,16.4l-11.4,2.6l-287.2,18.2c0,0-5-7.7-9.2-22.2
		l232.9-10.7C3431.9,2526.1,3434.6,2525.7,3437.4,2525.2z"/>
</g>
<g>
	<path fill="none" d="M3198.9,2441.1l3.6-11.6C3201.2,2433.4,3200,2437.3,3198.9,2441.1z"/>
	<path fill="#FFFFFF" d="M3479.9,2446.4c1.6,0.1,3.1,0.3,4.6,0.6l24.4,4.8c5.1,1,8.8,5.3,8.8,10.4v0.1l-34-5.2
		c-0.9-0.1-1.9-0.2-2.8-0.3l-280.1-15.6c1.1-3.8,3.3-7.3,4.7-11.3L3479.9,2446.4z"/>
</g>
<g>
	<g>
		<path fill="#AA1520" d="M3495.3,2513.8v-49c0-3.9-1-7.7-3-11.1l-7.2-12.2l3.5,0.3l13.3,2.5c9.2,1.7,15.8,9.3,15.8,18.2v59.2
			c0,8-5.8,15-14.1,16.9l-11.1,2.5l-6.1,0.4l4.9-10.4C3493.9,2525.6,3495.3,2519.7,3495.3,2513.8z"/>
	</g>
</g>
<g>
	<g>
		<path fill="#BE1A21" d="M3505.3,2445.3c2.6,4.3,5.7,10,7,14.5c0.4,1.4,0.5,2.8,0.5,4.3v47.8c0,8-5.3,15.2-13.3,17.6
			c-0.7,0.2-1.4,0.4-2.2,0.5c0,0,4.7-12.7,4.1-18.5V2466c0-2.5-0.5-5-1.4-7.3l-6.1-16l8,1.5
			C3503.1,2444.5,3504.2,2444.8,3505.3,2445.3z"/>
	</g>
</g>
</svg>
