<?xml version="1.0" encoding="utf-8"?>
<!-- Generator: Adobe Illustrator 17.1.0, SVG Export Plug-In . SVG Version: 6.00 Build 0)  -->
<!DOCTYPE svg PUBLIC "-//W3C//DTD SVG 1.1//EN" "http://www.w3.org/Graphics/SVG/1.1/DTD/svg11.dtd">
<svg version="1.1" id="Layer_2" xmlns="http://www.w3.org/2000/svg" xmlns:xlink="http://www.w3.org/1999/xlink" x="0px" y="0px"
	 viewBox="0 0 5000 5000" enable-background="new 0 0 5000 5000" xml:space="preserve">
<path fill="#4E5151" d="M3008.4,2376.9v225c0,9.1-7.3,16.4-16.4,16.4h-721.8c-9.1,0-16.4-7.3-16.4-16.4v-225
	c0-9.1,7.3-16.4,16.4-16.4H2992C3001,2360.5,3008.4,2367.8,3008.4,2376.9z"/>
<path fill="#5B5E5E" d="M2253.7,2601.9l-39.9-45.1c-3.8-4.2-8.6-7.3-14.1-8.8l-76.2-21.5c-10-2.8-20.3-4.3-30.7-4.3h-32.4
	c-5.2,0-9.4-4.2-9.4-9.4v-57.4c0-3.9,3.1-7,7-7h34.6c8.1,0,16.2-1,24.1-3l84.6-21.4c3.6-0.9,6.8-2.8,9.3-5.6l45.9-50.6v234.1"/>
<g>
	<g>
		<line fill="#4F5151" x1="2256.5" y1="2422.8" x2="2256.5" y2="2410.1"/>
	</g>
</g>
<path fill="#D6B425" d="M2051,2507h-43.2c-3,0-5.8-1.6-7.4-4.2l-19.4-32.3c-1.3-2.2-0.1-5.1,2.4-5.6l20.6-4.5
	c0.8-0.2,1.7-0.3,2.5-0.3h44.4V2507z"/>
<path fill="#EFCF30" d="M2051,2504.4h-40.9c-2.9,0-5.5-1.4-7-3.7l-18.4-28.8c-1.3-2-0.1-4.5,2.3-5l19.5-4c0.8-0.2,1.6-0.2,2.4-0.2
	h42.1V2504.4z"/>
<path fill="#EFCF30" d="M3008.4,2601.9h59.5c3.7,0,7-2.3,8.4-5.7l28.2-71.6c0,0,8.2-27,0-62.1l-17.7-70.4
	c-2.1-8.4-9.7-14.4-18.4-14.5l-60-0.7V2601.9z"/>
<g>
	<g>
		<line fill="#404242" x1="2253.7" y1="2427.3" x2="2253.7" y2="2394.4"/>
		<line fill="#404242" x1="3008.4" y1="2427.3" x2="3008.4" y2="2577.8"/>
		<g>
			<path fill="#383838" d="M2253.7,2601.9c0,9.1,7.3,16.4,16.4,16.4h721.9c9.1,0,16.4-7.3,16.4-16.4v-24.1h-754.7V2601.9z"/>
		</g>
		<g>
			<rect x="2253.7" y="2394.4" fill="#404242" width="754.6" height="32.9"/>
		</g>
	</g>
</g>
<g>
	<path fill="none" d="M3008.4,2377.7h49.9v-9.9h-52.6c1.7,2.6,2.8,5.7,2.8,9.1V2377.7z"/>
	<path fill="#707575" d="M2253.7,2376.9v0.8h754.6v-0.8c0-3.4-1-6.5-2.8-9.1h-749.1C2254.8,2370.4,2253.7,2373.5,2253.7,2376.9z"/>
</g>
<g>
	<path fill="#CCAA1D" d="M3098.5,2480.6c2.4,14.4,0.9,29.2-4.3,42.8l-29.8,78.5h3.4c3.7,0,7-2.3,8.4-5.7l28.2-71.6
		c0,0,8.2-27,0-62.1l-17.7-70.4c-0.7-2.9-2.2-5.6-4-7.8L3098.5,2480.6z"/>
</g>
<g>
	<path fill="#D6B425" d="M3024,2377.1l-15.6-0.2v225h59.5c3.7,0,7-2.3,8.4-5.7l3.8-9.5h-56V2377.1z"/>
</g>
<g>
	<path fill="#3D3F3F" d="M2245.9,2564.8c0,1.7-2.1,2.5-3.3,1.3l-14-14.6c-11.2-11.7-25.6-19.8-41.4-23.3l-89.1-19.7
		c-4.6-1-9.3-1.5-14.1-1.5H2051v5.9c0,5.2,4.2,9.4,9.4,9.4h32.4c10.4,0,20.7,1.4,30.7,4.3l76.2,21.5c5.4,1.5,10.3,4.6,14.1,8.8
		l39.9,45.1h2.8v-234.1l-10.6,11.7V2564.8z"/>
</g>
<path fill="#707575" d="M2256.5,2367.8V2611l-0.5-0.7c-1.5-2-2.2-4.5-2.2-6.9v-1.4l-0.1-231L2256.5,2367.8z"/>
<g>
	<g>
		<g>
			<path fill="#4F5151" d="M2099.2,2465.6l54.6-12.4l52.3-11.9v-9.4l-108.2,23.8c-1.3,0.3-2.6,0.4-3.9,0.4l-42.9-0.6v10.8h41.6
				C2094.8,2466.4,2097,2466.1,2099.2,2465.6z"/>
		</g>
	</g>
</g>
<g>
	<g>
		<g>
			<path fill="#4F5151" d="M2099.2,2480.9l54.6-12.4l65.2-15.9l26.9-9.8V2432l-27.5,11.1l-120.5,28c-1.3,0.3-2.6,0.4-3.9,0.4
				l-42.9-0.6v10.8h41.6C2094.8,2481.6,2097,2481.3,2099.2,2480.9z"/>
		</g>
	</g>
</g>
<g>
	<g>
		<g>
			<polygon fill="#707575" points="2153.8,2458.2 2212.7,2444.4 2212.7,2439.6 2212.7,2429.9 2206.1,2432 2206.1,2441.4 
				2095.8,2466.8 2051,2466.4 2051,2471.3 2095.9,2471.3 			"/>
		</g>
	</g>
</g>
<path fill="#EFCF30" d="M2259.8,2587.8v29.3l-307.9-5.8c-3.1-0.1-6.1-1.6-7.9-4.2l-6.8-9.7c-3.9-5.6-6.1-12.3-6.4-19.2
	c-0.3-7.4-1.9-18.9-7.3-33.6c-1.7-4.5-2.9-9.1-3.4-13.9c-2.6-22.5-8.6-87.9,6.8-112.9l3.8-29.4c0.5-3.9,3.9-6.9,7.9-6.9h0.1l4-11.2
	c1.8-5.2,6.8-8.7,12.3-8.7h304.8v76.2l107.5,1.1c2.4,0,4.6,1.4,5.8,3.5c2,3.7,5.3,10.3,8.6,18.8c10.4,26.9,12.2,56.3,6,84.5
	c-3.1,13.8-7.5,29.8-13.1,38.1c-1.7,2.5-4.5,3.9-7.5,3.9H2259.8z"/>
<g>
	<line fill="#D6B425" x1="2259.8" y1="2421.4" x2="2259.8" y2="2437.8"/>
	<path fill="#D6B425" d="M1923.6,2544.8c-1.7-4.5-2.9-9.1-3.4-13.9c-2-17.5-6.1-60.7-0.6-90.9l-2.8,36.5l15.7,111.4
		c-1-3.1-1.5-6.3-1.7-9.5C1930.6,2570.9,1929.1,2559.4,1923.6,2544.8z"/>
	<path fill="#D6B425" d="M1937.3,2597.5l6.8,9.7c1.8,2.6,9.9,9.9,13,10h302.7v-29.3h-327.2
		C1933.7,2591.3,1935.3,2594.5,1937.3,2597.5z"/>
	<path fill="#D6B425" d="M1919.6,2439.9l340.2-2.1v-16.4h-334.7C1922.7,2426.6,1920.9,2432.9,1919.6,2439.9z"/>
	<g>
		<path fill="#D6B425" d="M1919.6,2439.9l340.2-2.1h-339.8C1919.9,2438.5,1919.8,2439.2,1919.6,2439.9z"/>
	</g>
</g>
<polygon fill="#BF9C08" points="2259.8,2593.9 2259.8,2587.8 1932.6,2587.8 1935,2593.9 "/>
<g>
	<path fill="#FFEFAE" d="M2383,2465.2l-5.7-14.1c1.4,3,2.8,6.4,4.3,10.2C2382.1,2462.6,2382.6,2463.9,2383,2465.2z"/>
	<line fill="#FFEFAE" x1="2259.8" y1="2374.6" x2="2259.8" y2="2388.6"/>
	<path fill="#FFEFAE" d="M1930.8,2388.6l-12.8,62.5c1.4-13.3,4.1-25.3,9-33.2L1930.8,2388.6z"/>
	<path fill="#FFEFAE" d="M1916.9,2473.1c0-2.7,0.1-5.3,0.2-8C1917.1,2465.2,1915.5,2472.2,1916.9,2473.1z"/>
	<path fill="#FFEFAE" d="M1933.4,2556c-0.6-1.4-1.2-2.9-1.7-4.3c-7.7-25.1-8.3-50.2-7.9-64.7c0.2-5.6-2.6-10.8-7-13.8
		c-0.3,23,2,46.1,3.3,57.7c0.6,4.8,1.7,9.4,3.4,13.9c5.5,14.7,7,26.2,7.3,33.6c0.1,1.6,0.2,3.1,0.5,4.7
		C1939.8,2573.3,1935.4,2560.6,1933.4,2556z"/>
	<path fill="#FFEFAE" d="M1917.1,2465.2h466c-0.5-1.3-0.9-2.6-1.4-3.9c-1.5-3.8-2.9-7.2-4.3-10.2h-459.3
		C1917.6,2455.7,1917.3,2460.4,1917.1,2465.2z"/>
	<path fill="#FFEFAE" d="M1938.8,2381.6L1938.8,2381.6c-4.1,0-7.4,3-7.9,6.9l0,0.1h329v-14.1h-318.6L1938.8,2381.6z"/>
</g>
</svg>
