<?xml version="1.0" encoding="utf-8"?>
<!-- Generator: Adobe Illustrator 17.1.0, SVG Export Plug-In . SVG Version: 6.00 Build 0)  -->
<!DOCTYPE svg PUBLIC "-//W3C//DTD SVG 1.1//EN" "http://www.w3.org/Graphics/SVG/1.1/DTD/svg11.dtd">
<svg version="1.1" id="Layer_2" xmlns="http://www.w3.org/2000/svg" xmlns:xlink="http://www.w3.org/1999/xlink" x="0px" y="0px"
	 viewBox="0 0 5000 5000" enable-background="new 0 0 5000 5000" xml:space="preserve">
<path fill="#3A3B3D" d="M3190.6,3614.5l-1416.5,0.8c-33.4,0-60.5-29-60.5-64.8l-1.3-2128.4c0-26,19.7-47.2,43.9-47.2l1441.2-0.9
	c82.1,0,148.6,71.2,148.7,159.2l1.1,1913.1C3347.3,3539.1,3277.2,3614.4,3190.6,3614.5z"/>
<rect x="1710.9" y="3155.7" fill="#2B2B2B" width="1636.5" height="18"/>
<rect x="1820" y="1374.8" fill="#2B2C2D" width="67.5" height="2240.5"/>
<rect x="2925.1" y="1374.1" fill="#2B2C2D" width="112.5" height="2240.4"/>
<rect x="1710.9" y="2445.3" fill="#F4973B" width="1636.5" height="710.4"/>
<polygon fill="#FFBB7D" points="3347.5,2467.8 1710.9,2445.3 3347.5,2445.3 "/>
<path fill="#57595B" d="M3059.7,3645.4l-87.8,0.1c-7.5,0-13.6-6.1-13.6-13.6l-1.4-2266.1c0-6.9,5.6-12.5,12.5-12.5l81.1,0
	c10.4,0,18.9,8.4,18.9,18.9l1.3,2262.2C3070.8,3640.5,3065.8,3645.4,3059.7,3645.4z"/>
<line fill="none" stroke="#191A1C" stroke-miterlimit="10" x1="2997.5" y1="1354.9" x2="3004.6" y2="3647.1"/>
<line fill="none" stroke="#191A1C" stroke-miterlimit="10" x1="3024.7" y1="1353.3" x2="3036.2" y2="3645.4"/>
<line fill="none" stroke="#191A1C" stroke-miterlimit="10" x1="2973.4" y1="1354.7" x2="2982.6" y2="3647.4"/>
<line fill="none" stroke="#191A1C" stroke-miterlimit="10" x1="3051.2" y1="1356.6" x2="3059.7" y2="3645.4"/>
<rect x="2925" y="2445" fill="#E5852E" width="31" height="711"/>
<path fill="#3A3B3D" d="M1773.9,2681.8v234.4c0,3.1,2.5,5.6,5.6,5.6H2083c3.1,0,5.6-2.5,5.6-5.6v-234.3c0-3.9-3.4-7-7.3-6.7
	l-150.1,12.9l-150.2-12.9C1777.2,2674.9,1773.9,2677.9,1773.9,2681.8z"/>
<path fill="#D4D5D6" d="M1786.2,2677.2v230.2c0,3,2.3,5.5,5.2,5.5H2071c2.9,0,5.2-2.5,5.2-5.5v-230.1c0-3.9-3.1-6.9-6.7-6.6
	l-138.3,12.6l-138.4-12.6C1789.3,2670.4,1786.2,2673.4,1786.2,2677.2z"/>
<polygon fill="#A7A7A8" points="1927,2913 1931,2913 1931,2683.3 1927,2682.9 "/>
<path fill="#818182" d="M1921,2682.4c0,0-14.1,49.5,13.7,82.3c5.3,6.3,9.1,13.4,13.3,20.5c11.7,19.8,19.4,65.1-5.8,87.7
	c0,0-32.3,24.3-24.4,62.5l0,0c0,0,13.5-45.8,26.2-58.4c0,0,34.2-43,13.6-90.6c-4-9.1-11.3-16.1-17.1-24.2
	c-6.2-8.7-19.1-28.4-13.7-79.2L1921,2682.4z"/>
</svg>
