<?xml version="1.0" encoding="utf-8"?>
<!-- Generator: Adobe Illustrator 17.1.0, SVG Export Plug-In . SVG Version: 6.00 Build 0)  -->
<!DOCTYPE svg PUBLIC "-//W3C//DTD SVG 1.1//EN" "http://www.w3.org/Graphics/SVG/1.1/DTD/svg11.dtd">
<svg version="1.1" id="Layer_2" xmlns="http://www.w3.org/2000/svg" xmlns:xlink="http://www.w3.org/1999/xlink" x="0px" y="0px"
	 viewBox="0 0 5000 5000" enable-background="new 0 0 5000 5000" xml:space="preserve">
<path d="M3221.6,2986.5h-1401c-24.1,0-43.6-20.3-43.6-45.4V1843.7c0-25.1,19.5-45.4,43.6-45.4h1401c24.1,0,43.6,20.3,43.6,45.4V2941
	C3265.2,2966.1,3245.6,2986.5,3221.6,2986.5z"/>
<path fill="#DDDAD7" d="M3186.5,2956.7H1855.6c-22.9,0-41.4-19.3-41.4-43.2V1871.2c0-23.8,18.5-43.2,41.4-43.2h1330.8
	c22.9,0,41.4,19.3,41.4,43.2v1042.4C3227.9,2937.4,3209.4,2956.7,3186.5,2956.7z"/>
<g>
	<path fill="#E9E8E7" d="M1855.6,1828c-22.9,0-41.4,19.3-41.4,43.2v1042.4c0,23.8,18.5,43.2,41.4,43.2h665.4V1828H1855.6z"/>
</g>
<rect x="2521.1" y="1828" fill="#828282" width="0" height="1128.7"/>
<path fill="#BEBCB9" d="M2714.4,1828c41.9,40.9,95,115.9,87.7,344.7c0,0,0.4,376.4-460.6,720.6c-2.5,1.8-5.8,1.7-8.1-0.4l-13.8-12.3
	c-2.4-2.2-2.2-6.1,0.4-8c14.3-10.1,61.2-45.7,185.2-154.6c41.3-36.3,80.7-82.5,130.7-149.8c38.5-51.9,75.8-112,109.8-196.9
	c26.4-66.1,34.5-69,48.4-171.7c0,0,19.4-186.8-14.5-291.2c0,0-3.4-26.6-44.9-80.5c0,0-1.3-0.8-6.9,0S2714.4,1828,2714.4,1828z"/>
<path fill="#372930" d="M2512.8,1826.1h17.8c0,0,5-15.8,17.5-30.6c24.6-29.4,68.2-30.8,95.5-4.1c41.9,40.9,126.7,152.6,119.4,381.5
	c0,0,0.4,376.4-460.6,720.6c-2.5,1.8-5.8,1.7-8.1-0.4l-13.8-12.3c-2.4-2.2-2.2-6.1,0.4-8c14.3-10.1,61.2-45.7,185.2-154.6
	c41.3-36.3,80.7-82.5,130.7-149.8c38.5-51.9,75.8-112,109.8-196.9c26.4-66.1,34.5-69,48.4-171.7c0,0,19.4-186.8-14.5-291.2
	c0,0-23.2-64.2-60-108.9c-23.9-29.1-60.3-44.6-96.7-39.1c-13.5,2-27.9,7-41.8,16.8C2541.8,1777.3,2517.6,1797.5,2512.8,1826.1z"/>
</svg>
