<?xml version="1.0" encoding="utf-8"?>
<!-- Generator: Adobe Illustrator 17.1.0, SVG Export Plug-In . SVG Version: 6.00 Build 0)  -->
<!DOCTYPE svg PUBLIC "-//W3C//DTD SVG 1.1//EN" "http://www.w3.org/Graphics/SVG/1.1/DTD/svg11.dtd">
<svg version="1.1" id="Layer_2" xmlns="http://www.w3.org/2000/svg" xmlns:xlink="http://www.w3.org/1999/xlink" x="0px" y="0px"
	 viewBox="0 0 5000 5000" enable-background="new 0 0 5000 5000" xml:space="preserve">
<g>
	<g>
		<path fill="#EFEEEE" d="M2339.4,2733.8l0.3-471.4c0,0,3.1-134.1,180.9-128l-0.5,710.1C2520.1,2844.4,2353,2863.4,2339.4,2733.8z"
			/>
		<path fill="#EFEEEE" d="M2688.9,2733.9l0.3-471.4c0,0-3-134.1-180.7-128.3l-0.5,710.1C2508,2844.2,2667,2865.5,2688.9,2733.9z"/>
	</g>
</g>
<g>
	<path fill="#FFFDFD" d="M2395.1,2733.8l0.3-471.4c0,0,2.3-134.1,129.6-128.1l-0.5,710.1C2524.5,2844.4,2404.8,2863.4,2395.1,2733.8
		z"/>
	<path fill="#FFFDFD" d="M2645.3,2733.9l0.3-471.4c0,0-2.1-134.1-129.4-128.3l-0.5,710.1C2515.8,2844.2,2629.7,2865.4,2645.3,2733.9
		z"/>
</g>
</svg>
