<?xml version="1.0" encoding="utf-8"?>
<!-- Generator: Adobe Illustrator 17.1.0, SVG Export Plug-In . SVG Version: 6.00 Build 0)  -->
<!DOCTYPE svg PUBLIC "-//W3C//DTD SVG 1.1//EN" "http://www.w3.org/Graphics/SVG/1.1/DTD/svg11.dtd">
<svg version="1.1" xmlns="http://www.w3.org/2000/svg" xmlns:xlink="http://www.w3.org/1999/xlink" x="0px" y="0px"
	 viewBox="0 0 5000 5000" enable-background="new 0 0 5000 5000" xml:space="preserve">
<g id="Layer_2">
</g>
<g id="Layer_3">
	<path fill="#757570" d="M2531.4,1887.4c0,0-15.8,132.7-16.2,290.3l0.2,321.1c0,0-8.4,411.9-1,484.1c0.7,6.4,1.4,10.1,2.3,10.7
		c11.2,6.6,40.8,15.2,66.1-0.2l-1.3-494.8c0,0,15.5-521.2-12.2-611.3L2531.4,1887.4z"/>
	<path fill="#D0CECD" d="M2534.9,1887.4c0,0-12.6,219.9-9.1,290.3l0.3,321.1c0,0-6.3,411.9-0.5,484.1c0.5,6.4,1.7,15.3,1.7,15.3
		c8.8,6.6,30.8,13.3,50.5-2.1l-0.2-497.5c0,0,11.8-521.2-9.8-611.3L2534.9,1887.4z"/>
	<path fill="#757570" d="M2547.4,1887.4c0,0-1.9,222.1-1.1,293.1l0.8,324.2c0,0-0.3,415.9,1,488.9c0.1,6.5,0.2,10.2,0.4,10.8
		c1.6,6.7,6,15.5,9.6,0l-1.3-499.7c0,0,1.1-526.3-3.2-617.4L2547.4,1887.4z"/>
	<path fill="#EAEAEA" d="M2555.1,1892.2c0,0-0.1,215,1.1,285.4l0.7,321.1c0,0-1.1,411.9,0.7,484.1c0.2,6.4,0.6,10.1,0.6,10.7
		c-0.1,7.8-3.2,22,2.6,6.6l3.2-497.4c0,0-1.6-521.4-8.2-611.5L2555.1,1892.2z"/>
	<polygon fill="#F9E280" stroke="#757570" stroke-miterlimit="10" points="2579.8,2532.2 2517,2532.5 2516.9,2498.8 2579.7,2498.6 	
		"/>
	<path fill="none" stroke="#987C53" stroke-miterlimit="10" d="M2568.9,2527l-41,0.1c-2.6,0-4.7-2.2-4.7-4.9l0-13.3
		c0-2.7,2.1-4.9,4.7-4.9l41-0.1c2.6,0,4.7,2.2,4.7,4.9l0,13.3C2573.6,2524.8,2571.5,2527,2568.9,2527z"/>
	<polygon fill="#84847F" points="2556.5,2532.3 2547.5,2532.4 2547.4,2498.7 2556.4,2498.7 	"/>
	<path fill="#AFB1B2" d="M2542.1,1784.7c0,0-0.3-22.3,6-30.2c0.9-1.2,2.4-1,3.4,0.1c2.2,2.4,7.8,9.6,8.1,30.4L2542.1,1784.7z"/>
	<path fill="#C7C8C9" d="M2544.3,1784.5c0,0-0.5-22.3,4-30.1c0.7-1.1,1.7-1,2.5,0.1c1.7,2.5,6,9.7,6.4,30.5L2544.3,1784.5z"/>
	<path fill="#E8E8E8" d="M2549.5,1781.7c-0.7,2.3-2.1-13.4,0.5-27.3c0.2-1.1-0.1-1.1,0,0c0.3,2.6,3,5.9,3.1,27.3L2549.5,1781.7z"/>
	<path fill="#939596" d="M2549.1,1781.7c-0.7,2.3-2.6-13.5,0-27.4c0.2-1.1,0.8-1.1,1,0.1c0.3,2.6,2.5,5.9,2.6,27.3L2549.1,1781.7z"
		/>
	<path fill="#EAEAEA" d="M2542.1,1781.2c0,0,7.8-4.6,17.4-0.2l0,3.9l-17.4,0.1L2542.1,1781.2"/>
	<path fill="#A5876D" d="M2528.4,1916l46.6-0.2l-12.3-131.7c0,0-10.9-8.8-23,0.1L2528.4,1916z"/>
	<path fill="#FDEB9F" d="M2533.2,1915.9l36-0.1l-9.1-133.3c0,0-8.8-5.2-18.2,0.2L2533.2,1915.9z"/>
	<path fill="#A5876D" d="M2528.7,1905.6c0,0,21.3,1,45-0.2"/>
	<path fill="#A5876D" d="M2530.2,1897.4c0,0,20.3,1,42.9-0.2"/>
	<path fill="#A5876D" d="M2529,1909c0,0,21.3,1,45-0.2"/>
	<path fill="#AA9B8F" d="M2547.2,1915.9l7.2,0l-1.7-135.5c0,0-1.3-0.6-4.3,0.1L2547.2,1915.9z"/>
	<path fill="#987C53" d="M2515.3,2989.8c0,0,39.1,14.9,67.4-0.2c0,0,3.5,29.5-35,27.7C2547.7,3017.2,2516.9,3019,2515.3,2989.8z"/>
	<path fill="#F4E298" d="M2519.2,2992.5c0,0,13.9,4.4,29.9,5.3c10.4,0.6,21.1-0.5,31.2-5.9c0,0,4.2,25.4-31.7,24.1
		C2548.5,3015.9,2520.7,3018.7,2519.2,2992.5z"/>
	<path fill="#FFF7D4" d="M2557.1,2997.8l1.7-0.1c0,0,2.2,14.7,7.3,16c0,0-4.5,1.4-7.2,1.7c-2.7,0.3,0,0,0,0
		S2554.4,3001.7,2557.1,2997.8"/>
	<path fill="#987C53" d="M2548.1,2997c0,0,0.8,19.4-8.4,19c0,0,11,3.4,23.9-0.9c0,0-7.1-6.2-6.5-18c0.2-3.4,0,0,0,0L2548.1,2997"/>
	<path fill="#987C53" d="M2551.6,2594.2c-3,9.2-11.5,35.5-13.8,49.2c-0.3,2,0,4.1,0.9,6l4.4,8.7c1.3,2.6,2,5.6,1.9,8.6l-3.6,157.3
		c-0.1,2.5-0.5,5.1-1.3,7.5l-10.3,32c-0.7,2.2-1,4.4-1,6.7l0.3,108.7c0,2.4,0.5,4.8,1.4,7.1l3.8,9.7c1.6,3.9,5.3,6.5,9.4,6.5
		l15.8-0.1c3.4,0,6.5-2,8-5.2l5.4-11.7c0.8-1.8,1.3-3.8,1.3-5.8l-0.3-109.7c0-1.6-0.2-3.1-0.7-4.6l-10.5-34.4
		c-0.6-1.9-0.9-3.9-0.9-6l-1.7-157.1c0-3.6,0.8-7.1,2.5-10.2l5-9.3c1-1.8,1.2-3.9,0.6-5.9l-14.4-47.8
		C2553.3,2593.2,2551.9,2593.2,2551.6,2594.2z"/>
	<path fill="#F8ECAE" d="M2551.3,2594.2c-2.4,9.2-9,35.5-10.7,49.2c-0.3,2,0,4.1,0.7,6l3.4,8.7c1,2.6,1.6,5.6,1.5,8.6l-2.7,157.3
		c0,2.5-0.4,5.1-1,7.5l-10.4,34c-0.5,2.2-0.1,3.8-0.1,6l0.1,107.2c0,1.5,0.1,3.3,0.4,5c0.3,1.7,0.8,3.3,1.7,4.8l3.8,7.1
		c1.2,3.9,4.1,6.5,7.3,6.5l12.3,0c2.6,0,5-2,6.2-5.2l4.6-9.1c0.3-0.5,0.5-1.1,0.7-1.6c0.6-2.1,1.4-5.6,1.4-7.3l0.9-107.2
		c0-1.6-1-5.4-1.3-6.9l-10.1-34.1c-0.5-1.9-0.7-3.9-0.7-6l-1.5-157.1c0-3.6,0.6-7.1,1.9-10.2l3.9-9.3c0.8-1.8,0.9-3.9,0.5-5.9
		l-11.2-47.8C2552.7,2593.4,2551.6,2593.3,2551.3,2594.2z"/>
	<path fill="#776042" d="M2550.7,2594.2c-0.4,9.2-1.7,35.5-2,49.1c0,2,0,4.1,0.2,6l0.7,8.7c0.2,2.7,0.3,5.6,0.3,8.6l-0.2,157.3
		c0,2.5-0.1,5.1-0.2,7.5l-1.5,32c-0.1,2.2-0.2,4.4-0.1,6.7l0.3,108.7c0,2.4,0.1,4.8,0.2,7.1l0.6,9.7c0.3,3.9,0.8,6.5,1.5,6.5l2.4,0
		c0.5,0,1-2,1.2-5.2l0.8-11.7c0.1-1.8,0.2-3.8,0.2-5.8l-0.3-109.7c0-1.6,0-3.1-0.1-4.6l-1.7-34.4c-0.1-1.9-0.1-3.9-0.2-6l-0.6-157.1
		c0-3.6,0.1-7.1,0.4-10.2l0.7-9.3c0.1-1.8,0.2-3.9,0.1-5.9l-2.3-47.9C2551,2593.2,2550.8,2593.2,2550.7,2594.2z"/>
	<path fill="#776042" d="M2554.9,2946.1c0,0-1.1,51.9,12.3,44.1c0,0-2.6,11.4-6.1,11.6l-8.4,0.2
		C2552.8,3002,2551,2948.7,2554.9,2946.1z"/>
	<path fill="#776042" d="M2549.9,2944.7c0,0-1.2,53.4-14.7,45.6c0,0,2.7,11.4,6.2,11.6l8.4,0.2
		C2549.7,3002,2553.9,2947.2,2549.9,2944.7z"/>
	<g>
		<path fill="#987C53" d="M2560.6,2857.9c0,0,0.2,0.5,0.6,1.5c0.4,0.9,1,2.3,1.6,3.9c0.6,1.6,1.4,3.5,2.2,5.5c0.8,2,1.6,4.2,2.4,6.4
			c0.8,2.2,1.6,4.4,2.3,6.4c0.7,2.1,1.3,4,1.9,5.6c0.6,1.6,1,3,1.3,4c0.3,1,0.5,1.5,0.5,1.5s-0.2-0.5-0.6-1.5
			c-0.4-0.9-1-2.3-1.6-3.9c-0.6-1.6-1.4-3.5-2.2-5.5c-0.8-2-1.6-4.2-2.4-6.4c-0.8-2.2-1.6-4.4-2.3-6.4c-0.7-2.1-1.3-4-1.9-5.6
			c-0.6-1.6-1-3-1.3-4C2560.8,2858.4,2560.6,2857.9,2560.6,2857.9z"/>
	</g>
	<g>
		<path fill="#987C53" d="M2559.6,2875.3c0,0,0.2,0.5,0.6,1.5c0.4,0.9,1,2.3,1.6,3.9c0.6,1.6,1.4,3.5,2.2,5.5c0.8,2,1.6,4.2,2.4,6.4
			c0.8,2.2,1.6,4.4,2.3,6.4c0.7,2,1.3,4,1.9,5.6c0.6,1.6,1,3,1.3,4c0.3,1,0.5,1.5,0.5,1.5s-0.2-0.5-0.6-1.5c-0.4-0.9-1-2.3-1.6-3.9
			c-0.6-1.6-1.4-3.5-2.2-5.5c-0.8-2-1.6-4.2-2.4-6.4c-0.8-2.2-1.6-4.4-2.3-6.4c-0.7-2.1-1.3-4-1.9-5.6c-0.6-1.6-1-3-1.3-4
			C2559.7,2875.9,2559.6,2875.3,2559.6,2875.3z"/>
	</g>
	<g>
		<path fill="#987C53" d="M2559.6,2896c0,0,0.2,0.5,0.6,1.5c0.4,0.9,1,2.3,1.6,3.9c0.6,1.6,1.4,3.5,2.2,5.5c0.8,2,1.6,4.2,2.4,6.4
			c0.8,2.2,1.6,4.4,2.3,6.4c0.7,2.1,1.3,4,1.9,5.6c0.6,1.6,1,3,1.3,4c0.3,1,0.5,1.5,0.5,1.5s-0.2-0.5-0.6-1.5
			c-0.4-0.9-1-2.3-1.6-3.9c-0.6-1.6-1.4-3.5-2.2-5.5c-0.8-2-1.6-4.2-2.4-6.4c-0.8-2.2-1.6-4.4-2.3-6.4c-0.7-2.1-1.3-4-1.9-5.6
			c-0.6-1.6-1-3-1.3-4C2559.8,2896.5,2559.6,2896,2559.6,2896z"/>
	</g>
	<g>
		<path fill="#987C53" d="M2559.7,2915.8c0,0,0.2,0.5,0.6,1.5c0.4,0.9,1,2.3,1.6,3.9c0.6,1.6,1.4,3.5,2.2,5.5c0.8,2,1.6,4.2,2.4,6.4
			c0.8,2.2,1.6,4.4,2.3,6.4c0.7,2.1,1.3,4,1.9,5.6c0.6,1.6,1,3,1.3,4c0.3,1,0.5,1.5,0.5,1.5s-0.2-0.5-0.6-1.5
			c-0.4-0.9-1-2.3-1.6-3.9c-0.6-1.6-1.4-3.5-2.2-5.5c-0.8-2-1.6-4.2-2.4-6.4c-0.8-2.2-1.6-4.4-2.3-6.4c-0.7-2.1-1.3-4-1.9-5.6
			c-0.6-1.6-1-3-1.3-4C2559.8,2916.3,2559.7,2915.8,2559.7,2915.8z"/>
	</g>
	<g>
		<path fill="#987C53" d="M2559.7,2936.7c0,0,0.2,0.5,0.6,1.5c0.4,0.9,1,2.3,1.6,3.9c0.6,1.6,1.4,3.5,2.2,5.5c0.8,2,1.6,4.2,2.4,6.4
			c0.8,2.2,1.6,4.4,2.3,6.4c0.7,2,1.3,4,1.9,5.6c0.6,1.6,1,3,1.3,4c0.3,1,0.5,1.5,0.5,1.5s-0.2-0.5-0.6-1.5c-0.4-0.9-1-2.3-1.6-3.9
			c-0.6-1.6-1.4-3.5-2.2-5.5c-0.8-2-1.6-4.2-2.4-6.4c-0.8-2.2-1.6-4.4-2.3-6.4c-0.7-2.1-1.3-4-1.9-5.6c-0.6-1.6-1-3-1.3-4
			C2559.9,2937.3,2559.7,2936.7,2559.7,2936.7z"/>
	</g>
	<g>
		<path fill="#987C53" d="M2557.5,2954.2c0,0,0.2,0.5,0.6,1.5c0.4,0.9,1,2.3,1.6,3.9c0.6,1.6,1.4,3.5,2.2,5.5c0.8,2,1.6,4.2,2.4,6.4
			c0.8,2.2,1.6,4.4,2.3,6.4c0.7,2,1.3,4,1.9,5.6c0.6,1.6,1,3,1.3,4c0.3,1,0.5,1.5,0.5,1.5s-0.2-0.5-0.6-1.5c-0.4-0.9-1-2.3-1.6-3.9
			c-0.6-1.6-1.4-3.5-2.2-5.5c-0.8-2-1.6-4.2-2.4-6.4c-0.8-2.2-1.6-4.4-2.3-6.4c-0.7-2.1-1.3-4-1.9-5.6c-0.6-1.6-1-3-1.3-4
			C2557.7,2954.7,2557.5,2954.2,2557.5,2954.2z"/>
	</g>
	<g>
		<path fill="#987C53" d="M2541.7,2858c0,0-0.2,0.6-0.5,1.5c-0.3,1-0.7,2.4-1.3,4c-0.5,1.7-1.2,3.6-1.9,5.6
			c-0.7,2.1-1.5,4.2-2.3,6.4c-0.8,2.2-1.6,4.4-2.4,6.4c-0.8,2-1.5,3.9-2.2,5.5c-0.6,1.6-1.2,3-1.6,3.9c-0.4,0.9-0.6,1.5-0.6,1.5
			s0.2-0.6,0.4-1.5c0.3-1,0.7-2.4,1.3-4c0.5-1.7,1.2-3.6,1.9-5.6c0.7-2.1,1.5-4.2,2.3-6.4c0.8-2.2,1.6-4.4,2.4-6.4
			c0.8-2,1.5-3.9,2.2-5.5c0.6-1.6,1.2-3,1.6-3.9C2541.5,2858.5,2541.7,2858,2541.7,2858z"/>
	</g>
	<g>
		<path fill="#987C53" d="M2542.8,2875.4c0,0-0.2,0.6-0.5,1.5c-0.3,1-0.7,2.4-1.3,4c-0.5,1.7-1.2,3.6-1.9,5.6
			c-0.7,2.1-1.5,4.2-2.3,6.4c-0.8,2.2-1.6,4.4-2.4,6.4c-0.8,2-1.5,3.9-2.2,5.5c-0.6,1.6-1.2,3-1.6,3.9c-0.4,0.9-0.6,1.5-0.6,1.5
			s0.2-0.6,0.4-1.5c0.3-1,0.7-2.4,1.3-4c0.5-1.7,1.2-3.6,1.9-5.6c0.7-2.1,1.5-4.2,2.3-6.4c0.8-2.2,1.6-4.4,2.4-6.4
			c0.8-2,1.5-3.9,2.2-5.5c0.6-1.6,1.2-3,1.6-3.9C2542.6,2875.9,2542.8,2875.4,2542.8,2875.4z"/>
	</g>
	<g>
		<path fill="#987C53" d="M2542.9,2896c0,0-0.2,0.6-0.5,1.5c-0.3,1-0.7,2.4-1.3,4c-0.5,1.7-1.2,3.6-1.9,5.6
			c-0.7,2.1-1.5,4.2-2.3,6.4c-0.8,2.2-1.6,4.4-2.4,6.4c-0.8,2-1.5,3.9-2.2,5.5c-0.6,1.6-1.2,3-1.6,3.9c-0.4,0.9-0.6,1.5-0.6,1.5
			s0.2-0.6,0.4-1.5c0.3-1,0.7-2.4,1.3-4c0.5-1.7,1.2-3.6,1.9-5.6c0.7-2.1,1.5-4.2,2.3-6.4c0.8-2.2,1.6-4.4,2.4-6.4
			c0.8-2,1.5-3.9,2.2-5.5c0.6-1.6,1.2-3,1.6-3.9C2542.6,2896.6,2542.9,2896,2542.9,2896z"/>
	</g>
	<g>
		<path fill="#987C53" d="M2542.9,2915.8c0,0-0.2,0.6-0.5,1.5c-0.3,1-0.7,2.4-1.3,4c-0.5,1.7-1.2,3.6-1.9,5.6
			c-0.7,2.1-1.5,4.2-2.3,6.4c-0.8,2.2-1.6,4.4-2.4,6.4c-0.8,2-1.5,3.9-2.2,5.5c-0.6,1.6-1.2,3-1.6,3.9c-0.4,0.9-0.6,1.5-0.6,1.5
			s0.2-0.6,0.4-1.5c0.3-1,0.7-2.4,1.3-4c0.5-1.7,1.2-3.6,1.9-5.6c0.7-2.1,1.5-4.2,2.3-6.4c0.8-2.2,1.6-4.4,2.4-6.4
			c0.8-2,1.5-3.9,2.2-5.5c0.6-1.6,1.2-3,1.6-3.9C2542.7,2916.4,2542.9,2915.8,2542.9,2915.8z"/>
	</g>
	<g>
		<path fill="#987C53" d="M2543,2936.8c0,0-0.2,0.6-0.5,1.5c-0.3,1-0.7,2.4-1.3,4c-0.5,1.7-1.2,3.6-1.9,5.6
			c-0.7,2.1-1.5,4.2-2.3,6.4c-0.8,2.2-1.6,4.4-2.4,6.4c-0.8,2-1.5,3.9-2.2,5.5c-0.6,1.6-1.2,3-1.6,3.9c-0.4,0.9-0.6,1.5-0.6,1.5
			s0.2-0.6,0.4-1.5c0.3-1,0.7-2.4,1.3-4c0.5-1.7,1.2-3.6,1.9-5.6c0.7-2.1,1.5-4.2,2.3-6.4c0.8-2.2,1.6-4.4,2.4-6.4
			c0.8-2,1.5-3.9,2.2-5.5c0.6-1.6,1.2-3,1.6-3.9C2542.7,2937.3,2543,2936.8,2543,2936.8z"/>
	</g>
	<g>
		<path fill="#987C53" d="M2545.2,2954.2c0,0-0.2,0.6-0.5,1.5c-0.3,1-0.7,2.4-1.3,4c-0.5,1.7-1.2,3.6-1.9,5.6
			c-0.7,2.1-1.5,4.2-2.3,6.4c-0.8,2.2-1.6,4.4-2.4,6.4c-0.8,2-1.5,3.9-2.2,5.5c-0.6,1.6-1.2,3-1.6,3.9c-0.4,0.9-0.6,1.5-0.6,1.5
			s0.2-0.6,0.4-1.5c0.3-1,0.7-2.4,1.3-4c0.5-1.7,1.2-3.6,1.9-5.6c0.7-2.1,1.5-4.2,2.3-6.4c0.8-2.2,1.6-4.4,2.4-6.4
			c0.8-2,1.5-3.9,2.2-5.5c0.6-1.6,1.2-3,1.6-3.9C2545,2954.7,2545.2,2954.2,2545.2,2954.2z"/>
	</g>
</g>
</svg>
