<?xml version="1.0" encoding="utf-8"?>
<!-- Generator: Adobe Illustrator 17.1.0, SVG Export Plug-In . SVG Version: 6.00 Build 0)  -->
<!DOCTYPE svg PUBLIC "-//W3C//DTD SVG 1.1//EN" "http://www.w3.org/Graphics/SVG/1.1/DTD/svg11.dtd">
<svg version="1.1" id="Layer_2" xmlns="http://www.w3.org/2000/svg" xmlns:xlink="http://www.w3.org/1999/xlink" x="0px" y="0px"
	 viewBox="0 0 5000 5000" enable-background="new 0 0 5000 5000" xml:space="preserve">
<path fill="#191937" d="M2457.3,2990.7h27.5v-179.5h-25.7c-3.4,0-6.1,3-6.1,6.6V2986C2453.1,2988.6,2455,2990.7,2457.3,2990.7z"/>
<rect x="2453.6" y="2097.6" fill="#181A1C" width="92.7" height="920.1"/>
<rect x="2453.6" y="2097.6" fill="#020202" width="17.7" height="920.1"/>
<rect x="2523.2" y="2097.6" fill="#3D3D3D" width="15.5" height="920.1"/>
<path fill="#3D3D3D" d="M2476.4,3086.8h48c3.3,0,6-2.9,6-6.5v-56.7h-60.7v55.9C2469.6,3083.6,2472.6,3086.8,2476.4,3086.8z"/>
<rect x="2516" y="3024.3" fill="#676767" width="7.2" height="62"/>
<path fill="#181A1C" d="M2475.3,3086.8L2475.3,3086.8l0.1-63.2h-7.5v54.2C2467.8,3082.8,2471.1,3086.8,2475.3,3086.8z"/>
<rect x="2469.6" y="3023.7" fill="#181A1C" width="60.7" height="13.1"/>
<rect x="2453.6" y="3017.7" fill="#3D3D3D" width="92.7" height="11.9"/>
<rect x="2453.6" y="2813.6" width="92.7" height="2.2"/>
<rect x="2498.5" y="1856.5" fill="#095C87" width="2.8" height="38.1"/>
<path fill="#676767" d="M2494.8,1902.2h10.7v-27.8c0-0.4-0.2-0.8-0.5-0.8h-10.2V1902.2z"/>
<rect x="2502.4" y="1873.6" fill="#8B8D8D" width="2" height="21.1"/>
<path fill="#49494A" d="M2494.3,1892.6h3.5v-19.1h-2.6c-0.5,0-0.9,0.6-0.9,1.4V1892.6z"/>
<path fill="#636463" d="M2527.6,1952.1c0,0,14.2,78.1,12.6,125.9c0,0-0.6,9.5-6.2,11C2534,2089,2528.8,1974,2527.6,1952.1z"/>
<path fill="#181A1C" d="M2546.4,2097.6c0,0,7.7-80.2-29.8-203.2c-0.3-1.1-1.3-1.8-2.3-1.8h-27.7c-1.2,0-2.3,0.8-2.7,2.1
	c-5,15.9-37,120.9-30.3,202.9H2546.4z"/>
<path fill="#676767" d="M2540.2,2077.9c0.4-26.6-1.6-93.6-26.3-184.8c-0.1-0.3-0.3-0.5-0.6-0.5h-26c-0.3,0-0.5,0.2-0.5,0.4
	c-2.1,7.4-31.2,110.3-26.6,192.4c0.2,2.8,2.4,5,5,5h63.2C2534.9,2090.5,2540.1,2084.9,2540.2,2077.9z"/>
<path fill="#3D3D3D" d="M2500,1928.4c0,0-11.1-3.7-25.1,13.3c5.7-26.8,11-45.6,11.9-48.7c0.1-0.3,0.3-0.4,0.5-0.4h26
	c0.3,0,0.5,0.2,0.6,0.5c5.7,21,10.2,40.7,13.7,59C2520,1938.3,2510.4,1927.2,2500,1928.4z"/>
<path fill="#020202" d="M2468.9,2992.3h58.8c3.6,0,6.5-2.9,6.5-6.5v-323.9c0-3.6-2.9-6.5-6.5-6.5h-58.8c-3.6,0-6.5,2.9-6.5,6.5
	v323.9C2462.5,2989.4,2465.4,2992.3,2468.9,2992.3z"/>
<path fill="#232627" d="M2471.7,2988.3h53.4c3.3,0,5.9-2.8,5.9-6.4v-316.2c0-3.5-2.6-6.4-5.9-6.4h-53.4c-3.3,0-5.9,2.8-5.9,6.4V2982
	C2465.8,2985.5,2468.4,2988.3,2471.7,2988.3z"/>
<path fill="#232627" d="M2442,2989.1h27.6v-178.7h-25.8c-3.4,0-6.1,2.9-6.1,6.6v167.5C2437.7,2987.1,2439.6,2989.1,2442,2989.1z"/>
<path fill="#676767" d="M2529.6,2787.3l-4.6-117.9c-0.1-3-2.3-5.4-5-5.6l-55.3-4.4h57.9c5.4,0,9.7,4.8,9.6,10.6L2529.6,2787.3z"/>
<path fill="#676767" d="M2437.7,2817h25v-6.6h-20.4c-2.5,0-4.6,2.2-4.6,5V2817z"/>
</svg>
