<?xml version="1.0" encoding="utf-8"?>
<!-- Generator: Adobe Illustrator 17.1.0, SVG Export Plug-In . SVG Version: 6.00 Build 0)  -->
<!DOCTYPE svg PUBLIC "-//W3C//DTD SVG 1.1//EN" "http://www.w3.org/Graphics/SVG/1.1/DTD/svg11.dtd">
<svg version="1.1" id="Layer_3" xmlns="http://www.w3.org/2000/svg" xmlns:xlink="http://www.w3.org/1999/xlink" x="0px" y="0px"
	 viewBox="0 0 5000 5000" enable-background="new 0 0 5000 5000" xml:space="preserve">
<rect x="2456.6" y="2069.3" fill="#F4F5F5" width="95.7" height="917.1"/>
<rect x="2534.1" y="2069.3" fill="#CBCAC8" width="18.2" height="917.1"/>
<rect x="2464.6" y="2069.3" fill="#FFFFFF" width="15.9" height="917.1"/>
<path fill="#4D4C4D" d="M2528.9,3055.2h-49.6c-3.4,0-6.2-2.9-6.2-6.4v-56.5h62.7v55.7C2535.8,3052,2532.7,3055.2,2528.9,3055.2z"/>
<rect x="2480.5" y="2992.9" fill="#676665" width="7.4" height="61.8"/>
<path fill="#444444" d="M2530,3055.2L2530,3055.2l-0.1-63h7.8v54C2537.7,3051.2,2534.2,3055.2,2530,3055.2z"/>
<rect x="2473.1" y="2992.3" fill="#2D2D2D" width="62.7" height="13.1"/>
<rect x="2456.6" y="2986.3" fill="#444444" width="95.7" height="11.9"/>
<rect x="2456.6" y="2782.9" fill="#444444" width="95.7" height="2.2"/>
<rect x="2503.2" y="1828.9" fill="#3A3A3A" width="2.8" height="38"/>
<path fill="#DCDBD8" d="M2509.9,1874.4h-11v-27.7c0-0.4,0.2-0.8,0.5-0.8h10.5V1874.4z"/>
<rect x="2499.9" y="1845.9" fill="#FFFAF6" width="2.1" height="21"/>
<path fill="#B6B3B2" d="M2510.4,1864.9h-3.6v-19h2.7c0.5,0,0.9,0.6,0.9,1.4V1864.9z"/>
<path fill="#636463" d="M2475.9,1924.2c0,0-14.6,77.9-13,125.5c0,0,0.7,9.5,6.4,11C2469.4,2060.6,2474.8,1946,2475.9,1924.2z"/>
<path fill="#2D2D2D" d="M2456.6,2069.3c0,0-7.9-80,30.8-202.5c0.3-1.1,1.3-1.8,2.4-1.8h28.6c1.2,0,2.4,0.8,2.8,2
	c5.2,15.9,38.2,120.5,31.2,202.3H2456.6z"/>
<path fill="#4D4C4D" d="M2462.9,2049.6c-0.4-26.5,1.6-93.3,27.2-184.2c0.1-0.3,0.3-0.5,0.6-0.5h26.9c0.3,0,0.5,0.2,0.6,0.4
	c2.2,7.4,32.1,110,27.5,191.8c-0.2,2.8-2.4,5-5.1,5h-65.3C2468.5,2062.1,2463.1,2056.6,2462.9,2049.6z"/>
<path fill="#3A3A3A" d="M2504.5,1900.6c0,0,11.5-3.7,25.9,13.3c-5.9-26.7-11.4-45.5-12.3-48.5c-0.1-0.3-0.3-0.4-0.6-0.4h-26.9
	c-0.3,0-0.5,0.2-0.6,0.5c-5.9,20.9-10.5,40.6-14.2,58.8C2483.9,1910.4,2493.7,1899.4,2504.5,1900.6z"/>
<path fill="#9E9D9E" d="M2536.5,2961h-60.7c-3.7,0-6.7-2.9-6.7-6.5v-322.8c0-3.6,3-6.5,6.7-6.5h60.7c3.7,0,6.7,2.9,6.7,6.5v322.8
	C2543.2,2958.1,2540.2,2961,2536.5,2961z"/>
<path fill="#E7E7E7" d="M2537.1,2957.8H2482c-3.4,0-6.1-2.8-6.1-6.3v-315.2c0-3.5,2.7-6.3,6.1-6.3h55.1c3.4,0,6.1,2.8,6.1,6.3v315.2
	C2543.2,2955,2540.5,2957.8,2537.1,2957.8z"/>
<path fill="#E7E7E7" d="M2564.3,2957.8h-28.4v-178.1h26.6c3.5,0,6.3,2.9,6.3,6.5v167C2568.7,2955.8,2566.8,2957.8,2564.3,2957.8z"/>
<path fill="#FFFFFF" d="M2475.9,2757.5l4.8-117.6c0.1-3,2.4-5.4,5.2-5.6l57.1-4.4h-59.7c-5.6,0-10,4.8-9.9,10.5L2475.9,2757.5z"/>
<path fill="#FFFFFF" d="M2568.7,2786.3H2543v-6.5h21c2.6,0,4.8,2.2,4.8,5V2786.3z"/>
</svg>
