<?xml version="1.0" encoding="utf-8"?>
<!-- Generator: Adobe Illustrator 17.1.0, SVG Export Plug-In . SVG Version: 6.00 Build 0)  -->
<!DOCTYPE svg PUBLIC "-//W3C//DTD SVG 1.1//EN" "http://www.w3.org/Graphics/SVG/1.1/DTD/svg11.dtd">
<svg version="1.1" id="Layer_3" xmlns="http://www.w3.org/2000/svg" xmlns:xlink="http://www.w3.org/1999/xlink" x="0px" y="0px"
	 viewBox="0 0 5000 5000" enable-background="new 0 0 5000 5000" xml:space="preserve">
<rect x="1832.6" y="2455" fill="#BB5D30" width="1381.9" height="70.7"/>
<polygon fill="#B55530" points="1851.6,2478.1 1832.6,2478.1 1832.6,2455 3214.5,2455 3214.5,2478.1 "/>
<rect x="1832.6" y="2502.6" fill="#A04124" width="1381.9" height="23.1"/>
<path fill="#BC9679" d="M1832.7,2455.1l-138.8,34.4c-2,0.5-3.5,2.8-3.5,5.4v0.1c0,1.9,1.1,3.5,2.6,3.8l139.7,26.8l12.1-19.8
	c0.5-0.8,0.4-2-0.2-2.6l-11-11.8c-0.5-0.6-0.6-1.6-0.1-2.2l10.9-15.5c0.7-1,0.7-2.6-0.1-3.6L1832.7,2455.1z"/>
<path fill="#D3AF90" d="M1833.8,2457.8l-142.3,35.3c-0.6,0.1-1,0.8-1,1.6v0c0,0.8,0.4-1.7,1-1.6l141.5,25.6c0.4,0.1,3.6,0.6,1.6,3.9
	l10.3-16.3c0.5-0.8,0.4-2-0.2-2.7l-10-10.8c-1.1-1.2-1.2-3.2-0.2-4.5l10-14.5c0.7-1,0.7-2.7-0.1-3.6l-9.5-12
	C1834.6,2457.9,1834.2,2457.7,1833.8,2457.8z"/>
<g>
	<path fill="#3D3A39" d="M1713,2484.6l-27.3,5.5c-1.3,0.3-2.2,1.4-2.2,2.7v3.3c0,1.4,1,2.6,2.3,2.8l24.9,3.9
		c1.2,0.2,2.4-0.5,2.9-1.6c2.9-6.6,3.3-11.2,2.5-14.5C1715.8,2485.2,1714.4,2484.3,1713,2484.6z"/>
</g>
<polygon fill="#FCF3EB" points="3211.1,2525.7 3214.5,2502.6 3214.5,2478.1 3211.1,2455 3228,2455 3232.2,2478.1 3232.2,2502.6 
	3228.6,2525.7 "/>
<g>
	<polygon fill="#F7E9DF" points="3232.2,2478.1 3228,2455 3211.1,2455 3214.5,2478.1 3214.5,2478.1 3232.2,2478.1 	"/>
</g>
<g>
	<polygon fill="#EFDCD0" points="3228.6,2525.7 3232.2,2502.6 3214.5,2502.6 3211.1,2525.7 	"/>
</g>
<polygon fill="#8D5844" points="3233.4,2525.1 3231.6,2502.6 3231.6,2478.1 3228,2455 3288.2,2455 3306,2478.1 3306,2502.6 
	3299.9,2526.4 "/>
<g>
	<polygon fill="#7F4738" points="3306,2478.1 3300.2,2455 3228,2455 3231.6,2478.1 3231.6,2478.1 3306,2478.1 	"/>
</g>
<g>
	<polygon fill="#5F2925" points="3299.9,2526.4 3306,2502.6 3231.6,2502.6 3228.6,2525.7 	"/>
</g>
<path fill="#ECC7AE" d="M3299.6,2455v71.6c0,0,8.8-0.9,14.1-17.5c3.7-11.7,3.8-24.3,0.1-36C3311.3,2465.3,3307,2457.4,3299.6,2455z"
	/>
</svg>
