<?xml version="1.0" encoding="utf-8"?>
<!-- Generator: Adobe Illustrator 17.1.0, SVG Export Plug-In . SVG Version: 6.00 Build 0)  -->
<!DOCTYPE svg PUBLIC "-//W3C//DTD SVG 1.1//EN" "http://www.w3.org/Graphics/SVG/1.1/DTD/svg11.dtd">
<svg version="1.1" id="Layer_2" xmlns="http://www.w3.org/2000/svg" xmlns:xlink="http://www.w3.org/1999/xlink" x="0px" y="0px"
	 viewBox="0 0 5000 5000" enable-background="new 0 0 5000 5000" xml:space="preserve">
<rect x="2026.5" y="2448" fill="#E0BF34" width="988.2" height="55.9"/>
<polygon fill="#D3B32A" points="2040.1,2466.3 2026.5,2466.3 2026.5,2448 3014.7,2448 3014.7,2466.3 "/>
<rect x="2026.5" y="2485.6" fill="#CCAB23" width="988.2" height="18.3"/>
<path fill="#BC9679" d="M2026.6,2448.1l-99.2,27.2c-1.4,0.4-2.5,2.2-2.5,4.3v0.1c0,1.5,0.8,2.8,1.8,3l99.9,21.2l8.7-15.7
	c0.4-0.6,0.3-1.6-0.2-2.1l-7.8-9.3c-0.4-0.5-0.4-1.3-0.1-1.8l7.8-12.2c0.5-0.8,0.5-2.1-0.1-2.9L2026.6,2448.1z"/>
<path fill="#D3AF90" d="M2027.4,2450.2l-101.8,27.9c-0.4,0.1-0.7,0.6-0.7,1.2v0c0,0.6,0.3-1.3,0.7-1.3l101.2,20.3
	c0.3,0.1,2.6,0.5,1.1,3.1l7.4-12.8c0.4-0.6,0.3-1.6-0.2-2.1l-7.1-8.6c-0.8-0.9-0.8-2.5-0.2-3.6l7.2-11.4c0.5-0.8,0.5-2.1-0.1-2.9
	l-6.8-9.5C2028,2450.3,2027.7,2450.2,2027.4,2450.2z"/>
<g>
	<path fill="#3D3A39" d="M1941,2471.4l-19.5,4.3c-0.9,0.2-1.6,1.1-1.6,2.2v2.6c0,1.1,0.7,2,1.6,2.2l17.8,3.1c0.9,0.1,1.7-0.4,2-1.3
		c2.1-5.2,2.3-8.9,1.8-11.4C1943,2471.8,1942,2471.2,1941,2471.4z"/>
</g>
<path fill="#C66698" d="M3056.4,2503.9H3017V2448h40.7c12.4,0,22.5,7.1,22.5,15.9v23.3C3080.1,2496.4,3069.5,2503.9,3056.4,2503.9z"
	/>
<polygon fill="#FCF3EB" points="3012.3,2503.9 3014.7,2485.6 3014.7,2466.3 3012.3,2448 3024.4,2448 3027.4,2466.3 3027.4,2485.6 
	3024.8,2503.9 "/>
<g>
	<polygon fill="#F7E9DF" points="3027.4,2466.3 3024.4,2448 3012.3,2448 3014.7,2466.3 3014.7,2466.3 3027.4,2466.3 	"/>
</g>
<g>
	<polygon fill="#EFDCD0" points="3024.8,2503.9 3027.4,2485.6 3014.7,2485.6 3012.3,2503.9 	"/>
</g>
</svg>
