<?xml version="1.0" encoding="utf-8"?>
<!-- Generator: Adobe Illustrator 17.1.0, SVG Export Plug-In . SVG Version: 6.00 Build 0)  -->
<!DOCTYPE svg PUBLIC "-//W3C//DTD SVG 1.1//EN" "http://www.w3.org/Graphics/SVG/1.1/DTD/svg11.dtd">
<svg version="1.1" id="Layer_2" xmlns="http://www.w3.org/2000/svg" xmlns:xlink="http://www.w3.org/1999/xlink" x="0px" y="0px"
	 viewBox="0 0 5000 5000" enable-background="new 0 0 5000 5000" xml:space="preserve">
<path fill="#CCC8C4" d="M2820.8,2844.2l-581.3-236.1c-3.5-1.4-5.3-5.6-3.9-9.3l260.3-696.7c1.4-3.7,5.4-5.5,8.9-4.1l581.3,236.1
	c3.5,1.4,5.3,5.6,3.9,9.3l-260.3,696.7C2828.3,2843.8,2824.3,2845.6,2820.8,2844.2z"/>
<polygon fill="#060708" points="2864.2,2747.6 2270.1,2506.3 2474,1960.7 3068.1,2202 "/>
<polygon fill="#191B1D" points="2849.4,2711.6 2304.8,2490.4 2489.2,1996.7 3033.8,2218 "/>
<path fill="#397499" d="M3067.7,2203l-594.1-241.3l21.6-57.7c3.2-8.6,12.4-12.8,20.7-9.5l564.4,229.3c8.2,3.3,12.2,12.9,9,21.5
	L3067.7,2203z"/>
<polygon fill="#D2C6D2" points="2549.2,1974.7 2506.5,1957.4 2523.1,1912.8 2565.9,1930.2 "/>
<path fill="#7AA3BB" d="M2483,1936.5l15.2-31.4c3.2-6.7,10.8-9.8,17.5-7.1l206.7,80.5l-209.2-85c-6.8-2.8-14.4,0.7-17.1,7.8
	L2483,1936.5"/>
<path fill="#E5E5E4" d="M2257.9,2539.1l-21.5,57.5c-1.8,4.9,0.5,10.4,5.2,12.3l80.7,32.8l-75.6-33.1c-6.3-2.8-9.4-10.2-7.1-16.9
	L2257.9,2539.1"/>
<path opacity="0.28" fill="none" stroke="#E8E7E7" stroke-miterlimit="10" d="M2570.4,1975.1l10.5-28.2c0.4-1.1,1.4-1.3,1.6-0.4
	l3.2,13.6c0.5,2,2.2,2.7,3.8,1.4l11.5-8.7c0.3-0.3,0.6,0.1,0.4,0.6l-11.1,29.7"/>
<line opacity="0.28" fill="none" stroke="#E8E7E7" stroke-miterlimit="10" x1="2597.6" y1="1986.1" x2="2608.9" y2="1955.9"/>
<path opacity="0.28" fill="none" stroke="#E8E7E7" stroke-miterlimit="10" d="M2606.1,1963.4c0,0,13.1-6.4,16.7,2.4
	c1.2,2.9,0.5,6.3-1.5,8.6c-3.1,3.6-9.1,7-18-3.3"/>
<line opacity="0.28" fill="none" stroke="#E8E7E7" stroke-miterlimit="10" x1="2602.3" y1="1973.7" x2="2615.2" y2="1993.3"/>
<path opacity="0.28" fill="#E8E7E7" d="M2630.7,1996.5c-0.7,1.9-2.8,2.9-4.7,2.2c-1.9-0.8-2.8-3-2.1-4.9c0.7-1.9,2.8-2.9,4.7-2.2
	C2630.5,1992.3,2631.4,1994.5,2630.7,1996.5z"/>
<path opacity="0.28" fill="none" stroke="#E8E7E7" stroke-miterlimit="10" d="M2649.1,2007.3l10.1-27.2c0.3-0.8,1.5-0.7,1.6,0.2
	l4.7,32.5"/>
<line opacity="0.28" fill="none" stroke="#E8E7E7" stroke-miterlimit="10" x1="2676.4" y1="1983.7" x2="2665.2" y2="2013.9"/>
<polygon fill="#222425" points="3038.7,2221.2 2898.2,2597.7 2545.3,2021 "/>
<path fill="#CCC8C4" d="M2877.8,2585.1l-551.7,303.6c-3.3,1.8-7.5,0.5-9.3-3l-334.7-661.2c-1.8-3.5-0.5-7.8,2.9-9.7l551.7-303.6
	c3.3-1.8,7.5-0.5,9.3,3l334.7,661.2C2882.4,2578.9,2881.1,2583.2,2877.8,2585.1z"/>
<polygon fill="#060708" points="2836.2,2487.6 2272.4,2797.9 2010.2,2280.1 2574,1969.8 "/>
<polygon fill="#191B1D" points="2800.3,2475.7 2283.5,2760.2 2046.3,2291.7 2563.2,2007.2 "/>
<path fill="#397499" d="M2574.5,1970.7L2010.7,2281l-27.7-54.7c-4.1-8.1-1.1-18.2,6.7-22.5l535.7-294.8c7.8-4.3,17.4-1.2,21.5,6.9
	L2574.5,1970.7z"/>
<polygon opacity="0.67" fill="#D2C6D2" points="2069.6,2230 2029.1,2252.3 2007.7,2210 2048.2,2187.7 "/>
<path fill="#7AA3BB" d="M1998.6,2257.1l-12.8-32.5c-2.7-6.9,0-14.9,6.3-18.5l193.7-110.3l-198.6,109.3c-6.4,3.5-8.9,11.8-5.5,18.6
	L1998.6,2257.1"/>
<path fill="#E5E5E4" d="M2288.1,2829.1l27.6,54.5c2.4,4.7,7.9,6.4,12.4,4l76.6-42.2l-73.4,37.9c-6.1,3.2-13.6,0.8-16.9-5.5
	L2288.1,2829.1"/>
<path opacity="0.28" fill="none" stroke="#E8E7E7" stroke-miterlimit="10" d="M2083.7,2213.6l-13.5-26.7c-0.5-1,0-2,0.8-1.5
	l11.9,6.4c1.8,1,3.4,0,3.5-2.1l1.2-14.7c0-0.4,0.5-0.4,0.7,0.1l14.3,28.2"/>
<line opacity="0.28" fill="none" stroke="#E8E7E7" stroke-miterlimit="10" x1="2109.6" y1="2199.3" x2="2095.1" y2="2170.7"/>
<path opacity="0.28" fill="none" stroke="#E8E7E7" stroke-miterlimit="10" d="M2098.7,2177.7c0,0,3.9-14.5,12.7-11.6
	c2.8,0.9,4.8,3.7,5.2,6.8c0.6,4.8-0.8,11.8-14.2,12"/>
<line opacity="0.28" fill="none" stroke="#E8E7E7" stroke-miterlimit="10" x1="2103.6" y1="2187.5" x2="2126.3" y2="2190.1"/>
<path opacity="0.28" fill="#E8E7E7" d="M2138.7,2180c0.9,1.9,0.3,4.1-1.5,5.1c-1.8,1-4,0.3-4.9-1.6s-0.3-4.1,1.5-5.1
	C2135.6,2177.4,2137.8,2178.1,2138.7,2180z"/>
<path opacity="0.28" fill="none" stroke="#E8E7E7" stroke-miterlimit="10" d="M2148,2178l-13-25.8c-0.4-0.8,0.5-1.6,1.2-1.1
	l26.6,17.6"/>
<line opacity="0.28" fill="none" stroke="#E8E7E7" stroke-miterlimit="10" x1="2148.7" y1="2140.9" x2="2163.2" y2="2169.6"/>
<polygon fill="#222425" points="2554,2015.2 2735,2372.3 2085.9,2273.1 "/>
<path fill="#CCC8C4" d="M2787.6,2956h-623.9c-3.8,0-6.9-3.2-6.9-7.2v-747.7c0-3.9,3.1-7.2,6.9-7.2h623.9c3.8,0,6.9,3.2,6.9,7.2
	v747.7C2794.5,2952.8,2791.4,2956,2787.6,2956z"/>
<rect x="2156.9" y="2264" fill="#060708" width="637.6" height="585.6"/>
<rect x="2183.7" y="2291.8" fill="#191B1D" width="584.4" height="529.7"/>
<path fill="#397499" d="M2794.5,2265.1h-637.6v-61.9c0-9.2,7.1-16.6,16-16.6h605.7c8.8,0,15.9,7.4,15.9,16.6V2265.1z"/>
<rect x="2186.1" y="2200.8" fill="#D2C6D2" width="45.8" height="47.8"/>
<path fill="#7AA3BB" d="M2156.9,2238l3.2-35c0.7-7.5,6.7-13.2,13.8-13.3l220.6-3.2h-224.6c-7.3,0-13.2,6.1-13.2,13.7V2238"/>
<path fill="#E5E5E4" d="M2156.9,2884.8v61.7c0,5.3,4.1,9.5,9.1,9.5h86.7l-81.9-2.2c-6.8-0.2-12.4-5.9-12.5-13.1L2156.9,2884.8"/>
<path fill="none" stroke="#E8E7E7" stroke-miterlimit="10" d="M2251.7,2240.9v-30.2c0-1.1,0.9-1.7,1.4-0.9l7.7,11.5
	c1.1,1.7,3,1.7,4.1-0.1l7.7-12.4c0.2-0.4,0.6-0.1,0.6,0.4v31.8"/>
<line fill="none" stroke="#E8E7E7" stroke-miterlimit="10" x1="2281" y1="2240.9" x2="2281" y2="2208.5"/>
<path fill="none" stroke="#E8E7E7" stroke-miterlimit="10" d="M2281,2216.5c0,0,10-10.9,16.4-4.1c2.1,2.2,2.6,5.7,1.6,8.6
	c-1.6,4.5-6,10-17.9,3.7"/>
<line fill="none" stroke="#E8E7E7" stroke-miterlimit="10" x1="2281" y1="2227.6" x2="2299.8" y2="2240.9"/>
<ellipse fill="#E8E7E7" cx="2311.7" cy="2238" rx="3.6" ry="3.8"/>
<path fill="none" stroke="#E8E7E7" stroke-miterlimit="10" d="M2325.2,2242.5v-29.1c0-0.9,1.1-1.2,1.6-0.4l15.7,28.5"/>
<line fill="none" stroke="#E8E7E7" stroke-miterlimit="10" x1="2342.5" y1="2209.1" x2="2342.5" y2="2241.5"/>
<polygon fill="#222425" points="2760.3,2309.4 2760.3,2713.4 2230.9,2309.4 "/>
</svg>
