<?xml version="1.0" encoding="utf-8"?>
<!-- Generator: Adobe Illustrator 17.1.0, SVG Export Plug-In . SVG Version: 6.00 Build 0)  -->
<!DOCTYPE svg PUBLIC "-//W3C//DTD SVG 1.1//EN" "http://www.w3.org/Graphics/SVG/1.1/DTD/svg11.dtd">
<svg version="1.1" id="Layer_2" xmlns="http://www.w3.org/2000/svg" xmlns:xlink="http://www.w3.org/1999/xlink" x="0px" y="0px"
	 viewBox="0 0 5000 5000" enable-background="new 0 0 5000 5000" xml:space="preserve">
<ellipse fill="#E2E0DF" cx="2480.3" cy="2427.3" rx="514" ry="536"/>
<ellipse fill="#D8D1D3" cx="2483.9" cy="2418.9" rx="467.8" ry="493.6"/>
<ellipse fill="#BBBABA" cx="2491.7" cy="2427.3" rx="344.4" ry="364.5"/>
<ellipse fill="#AFACAC" cx="2502.4" cy="2418.9" rx="336.7" ry="328"/>
<path fill="#BEB5B2" d="M2935.6,2371.6c0,0,7.8,41.1-146.5,47.3v-21.1c0,0,35.1-17.3,55.7-21.1
	C2844.7,2376.6,2898,2360.2,2935.6,2371.6z"/>
<g>
	<g>
		<g>
			<path fill="#C3BBB9" d="M2901,2371.6c-29.2-0.1-56.3,5-56.3,5c-20.6,3.8-55.7,21.1-55.7,21.1v15c23.8-1.4,75.5-6.3,100.2-23.5
				C2889.2,2389.3,2897.5,2384.1,2901,2371.6z"/>
		</g>
	</g>
</g>
<path fill="#F3EEEC" d="M2835.9,2382.3c0,0-9.7,15.1,9.1,19.5C2845,2401.8,2811.7,2405,2835.9,2382.3z"/>
<ellipse fill="#F3EEEC" cx="2846.7" cy="2395.2" rx="1.7" ry="1.8"/>
<path fill="#AAA9A9" d="M2808.1,2283.1c0,0,99.3-26,119.6,3c0,0,57.7,73.2-13.9,104.2c-71.6,31.1,0,0,0,0l-97.4-85L2808.1,2283.1"/>
<path fill="#E2E0DF" d="M2767.9,2316.7c0,0,91.4-31.5,140.4-23.8c3.7,0.6,7,2.5,9.4,5.5c8,10,25.9,35.9,24.8,67.4
	c-0.4,10.1-9.2,17.4-18.8,15.9c-26.2-4.1-81.7-7.4-140.5,22.2L2767.9,2316.7z"/>
<path fill="#DBD8D6" d="M2770.8,2332.9c0,0,61.1-33.8,111.7-26.6c8.4,1.2,16.6,3.3,21.4,10.5c4.6,7,11,15.8,14.7,26.4
	c4.6,13.2-4.9,27.2-18.4,28c-27.1,1.7-65.1-2.4-118.4,24L2770.8,2332.9z"/>
<path fill="#D5CCC8" d="M2770.8,2332.9l9.6-4.6c5.5-2.6,11.8,0.7,13.2,6.7c3.1,13.7,8.8,37.1,16.1,57.4l-26.5,11.3L2770.8,2332.9z"
	/>
<path fill="#FCFDFF" d="M2857.7,2370.3l27.2,2.2c6.9,0.6,11.8-4.4,9-9.2l-0.1-0.2c-2-3.5-7.4-5.2-11.9-3.9l-25.1,7.5
	C2854.3,2367.4,2855,2370.1,2857.7,2370.3z"/>
<ellipse fill="#E5E5E4" cx="2480.3" cy="2427.3" rx="312.4" ry="325.8"/>
<ellipse fill="#BFB1AE" cx="2480.3" cy="2427.3" rx="276.1" ry="295.4"/>
<ellipse fill="#A9572D" cx="2480.3" cy="2427.3" rx="267" ry="278.4"/>
<ellipse fill="#AF5D2E" cx="2480.3" cy="2427.3" rx="241" ry="251.3"/>
<path fill="#F0C0AC" d="M2302.3,2248c0,0,60.5-63.1,116.2-73.2C2418.5,2174.8,2337.6,2190.8,2302.3,2248z"/>
<path fill="#F0C0AC" d="M2692.9,2287c3.4,6.2,8.5,16.6,15.7,33.7c0.7,1.8-1.6,3.2-2.7,1.6l-30.6-43.9c-0.1-0.1,0-0.2,0.1-0.2h3
	C2684.4,2278.3,2689.9,2281.6,2692.9,2287z"/>
<path fill="#F0C0AC" d="M2711.8,2338.5c0.1,0.6,0.2,1.2,0.4,1.8c1,4.4,7.6,2.9,6.6-1.5c-0.5-1.9-1.5-3.9-3.8-5.3l0,0
	C2712.8,2334.1,2711.4,2336.3,2711.8,2338.5z"/>
<path fill="#BB724D" d="M2255,2427.3c0,0,14.6-120.2,102.1-186.1c10.2-7.7,21.5-13.7,33.3-18.2c31.8-11.9,103.3-32.3,180.6-11.6
	c0,0-55.2-20.9-125.5-13.1c-67.9,7.6-128.3,49-159.7,112.2C2271.1,2340.3,2258.9,2378.8,2255,2427.3z"/>
<path fill="#BB724D" d="M2382.5,2657.7c0,0,109.7,39.9,205.3-12.4c11.2-6.1,21.4-13.9,30.5-23c24.4-24.4,73.8-82.1,90.5-163.4
	c0,0-6.6,60.9-44.7,123c-36.8,60-99.2,97.9-167.5,99C2464.3,2681.5,2425.9,2675.8,2382.5,2657.7z"/>
<path fill="#FDF7FA" d="M2600.1,2131.8c0,0,78.8,36,121.1,99.1C2721.2,2231,2699.4,2164,2600.1,2131.8z"/>
<path fill="#FDF7FA" d="M2332.1,2155.6c0,0-74.8,44.3-110.6,111.7C2221.5,2267.2,2236.6,2198.3,2332.1,2155.6z"/>
<path fill="#FDF7FA" d="M2362.8,2714.8c0,0-78.8-36-121.1-99.1C2241.7,2615.7,2263.5,2682.6,2362.8,2714.8z"/>
<path fill="#FDF7FA" d="M2641.4,2695.9c0,0,71-50.6,101.4-120.8C2742.7,2575.1,2733.2,2645.1,2641.4,2695.9z"/>
<path fill="#FDF7FA" d="M2069.8,2722.7c0,0,112.6,151.5,207.1,174.2C2276.8,2897,2131.5,2862.9,2069.8,2722.7z"/>
<path fill="#FDF7FA" d="M2896.2,2714.8c0,0-112.6,151.5-207.1,174.2C2689.1,2889,2834.5,2854.9,2896.2,2714.8z"/>
<path fill="#FDF7FA" d="M2069.8,2123.9c0,0,112.6-151.5,207.1-174.2C2276.8,1949.6,2131.5,1983.7,2069.8,2123.9z"/>
<path fill="#FDF7FA" d="M2896.2,2131.8c0,0-112.6-151.5-207.1-174.2C2689.1,1957.6,2834.5,1991.7,2896.2,2131.8z"/>
</svg>
