<?xml version="1.0" encoding="utf-8"?>
<!-- Generator: Adobe Illustrator 17.1.0, SVG Export Plug-In . SVG Version: 6.00 Build 0)  -->
<!DOCTYPE svg PUBLIC "-//W3C//DTD SVG 1.1//EN" "http://www.w3.org/Graphics/SVG/1.1/DTD/svg11.dtd">
<svg version="1.1" id="Layer_2" xmlns="http://www.w3.org/2000/svg" xmlns:xlink="http://www.w3.org/1999/xlink" x="0px" y="0px"
	 viewBox="0 0 5000 5000" enable-background="new 0 0 5000 5000" xml:space="preserve">
<path fill="#EFEFEF" d="M3023.7,1966.3h-51.2l-10.3,1043.5h61.5c34.8,1.4,41.9-4.9,41.9-43.5v-956.5
	C3064.6,1984.8,3045.7,1965.3,3023.7,1966.3z"/>
<path fill="#878788" d="M2997.7,3007.4h-980.5c-22.6,0-41-19.4-41-43.4v-954.3c0-24,18.4-43.4,41-43.4h980.5c22.6,0,41,19.4,41,43.4
	v954.3C3038.7,2988,3020.4,3007.4,2997.7,3007.4z"/>
<path fill="#EFEFEF" d="M2998,3010h-972.6c-22.5,0-40.7-19.4-40.7-43.3l0-939.3c0-8,1.4-19.9,4.7-27.1c4.4-9.7,10.9-16.7,18.4-21.6
	c7.9-5.2,17.4-7.3,26.7-7.3l963.4,0c22.5,0,40.7,19.4,40.7,43.3v952C3039.8,3004.1,3029.6,3010,2998,3010z"/>
<path fill="#C2C3C6" d="M3014.2,3010h-982.9c-22.7,0-41.1-19.4-41.1-43.3v-952c0-23.9,18.4-43.3,41.1-43.3h982.9
	c22.7,0,41.1,19.4,41.1,43.3v952C3056.5,3004.1,3046.1,3010,3014.2,3010z"/>
<path fill="#CDCFD1" d="M3056.1,2139.8H1995.7v-118c0-30.7,23.8-55.5,53.3-55.5h964.8c23.4,0,42.4,19.8,42.4,44.2V2139.8z"/>
<path fill="#ACAEAF" d="M3023.7,1966.3l-992.4,5c-17.4,0.2-28.6,9-35.6,18.6l1059.4,21.2C3053.5,1988.9,3055.2,1971.3,3023.7,1966.3
	z"/>
<path fill="#EAEAE9" d="M1991.4,1999.5l1064.4,17.6l-0.2,17.6l-1065.4-15.2C1990.2,2019.4,1989.4,2006.4,1991.4,1999.5z"/>
<path fill="#DDDDDC" d="M1990,2048.6h1065.1l0.7-22.1c0.2-7-0.1-13.9-0.9-20.9l-0.5-4.2l-1059-11.5
	C1995.6,1989.9,1986.6,1992.9,1990,2048.6"/>
<rect x="1989.5" y="2139.8" fill="#AEAEAE" width="1066.7" height="16.4"/>
<rect x="1989.5" y="2146.7" fill="#807F7F" width="1066.7" height="3.9"/>
</svg>
