<?xml version="1.0" encoding="utf-8"?>
<!-- Generator: Adobe Illustrator 17.1.0, SVG Export Plug-In . SVG Version: 6.00 Build 0)  -->
<!DOCTYPE svg PUBLIC "-//W3C//DTD SVG 1.1//EN" "http://www.w3.org/Graphics/SVG/1.1/DTD/svg11.dtd">
<svg version="1.1" id="Layer_2" xmlns="http://www.w3.org/2000/svg" xmlns:xlink="http://www.w3.org/1999/xlink" x="0px" y="0px"
	 viewBox="0 0 5000 5000" enable-background="new 0 0 5000 5000" xml:space="preserve">
<path fill="#E2E2E2" d="M2699.5,2547.4l-197.3-1.7l0.9-102.8l206,1.8c12.4,0.1,22.3,10.2,22.2,22.6l-0.4,49.4
	C2730.6,2533.7,2716.6,2547.5,2699.5,2547.4z"/>
<path fill="#303030" d="M2332.4,2542l-14.7-0.1c-1.3,0-2.4-1.1-2.4-2.4l0.8-93.8c0-1.2,1-2.2,2.2-2.2l14.9,0.1L2332.4,2542z"/>
<rect x="2327.7" y="2443.7" transform="matrix(1 8.808804e-003 -8.808804e-003 1 22.0507 -20.4834)" fill="#232322" width="17.1" height="98.5"/>
<path fill="#303030" d="M2546.6,2554.6l-211.7-1.9c-1.4,0-2.6-1.2-2.6-2.6l1-114.7c0-1.4,1.2-2.6,2.6-2.6l211.7,1.9
	c1.4,0,2.6,1.2,2.6,2.6l-1,114.7C2549.2,2553.4,2548,2554.6,2546.6,2554.6z"/>
<path fill="#232322" d="M2429.9,2493.4c0,0-3.6,50.9,40.2,60.5l79.1,0.7l0.9-103.7l0.1-10.2l-65.1,1c-15.7,0.2-31,6.4-41.7,18
	C2436,2467.5,2430.1,2478.5,2429.9,2493.4z"/>
<path fill="#232322" d="M2545.1,2553l-209.2,0c-1.4,0-2.6-0.1-2.6-0.1l0-5.4c0-0.1,1.1-0.1,2.6-0.1l209.2,0c1.4,0,2.6,0.1,2.6,0.1
	l0,5.4C2547.7,2552.9,2546.5,2553,2545.1,2553z"/>
<path fill="#E2E2E2" d="M2558.6,2546.1l-72.8-0.6c-24.8-0.2-44.8-20-44.6-44.1l0.1-15.3c0.2-24.2,20.5-43.6,45.3-43.3l72.8,0.6
	c24.8,0.2,44.8,20,44.6,44.1l-0.1,15.3C2603.7,2526.9,2583.4,2546.3,2558.6,2546.1z"/>
<circle fill="#FFFFFF" cx="2495.4" cy="2495.3" r="37.5"/>
<circle fill="#C6C5C4" cx="2495.4" cy="2495.3" r="34.5"/>
<circle fill="#232322" cx="2495.3" cy="2495.4" r="33.3"/>
<path fill="#FFFFFF" d="M2315.4,2522.6l-54.4-0.5c-1.1,0-1.9-0.9-1.9-2l0.5-53.5c0-2.5,2-4.5,4.5-4.4l51.9,0.5L2315.4,2522.6z"/>
<path fill="#E1DFE0" d="M2312.2,2522.5l-48.8-0.4c-1.8,0-3.2-1.5-3.2-3.2l0.5-51.2c0-1.8,1.5-3.2,3.2-3.2l48.8,0.4
	c1.8,0,3.2,1.5,3.2,3.2l-0.5,51.2C2315.4,2521.1,2314,2522.6,2312.2,2522.5z"/>
<rect x="2310.7" y="2462.7" transform="matrix(1 8.813639e-003 -8.813639e-003 1 22.059 -20.2906)" fill="#AFACAE" width="4.9" height="59.9"/>
<rect x="2286.1" y="2472" transform="matrix(1 8.808804e-003 -8.808804e-003 1 21.9058 -20.1087)" fill="#FFFFFF" width="15.2" height="9.4"/>
<rect x="2285.8" y="2503.4" transform="matrix(1 8.808804e-003 -8.808804e-003 1 22.1823 -20.105)" fill="#FFFFFF" width="15.2" height="9.4"/>
<rect x="2286.7" y="2472.4" transform="matrix(1 8.808804e-003 -8.808804e-003 1 21.9058 -20.1087)" fill="#1A1A1A" width="13.9" height="8.6"/>
<rect x="2286.5" y="2503.8" transform="matrix(1 8.808804e-003 -8.808804e-003 1 22.1823 -20.105)" fill="#1A1A1A" width="13.9" height="8.6"/>
<path fill="#FFFFFF" d="M2726.1,2452.7l-16.4-2.8c-2.2-0.4-4.4-0.6-6.6-0.6l-33.4,0c-0.1,0-0.2,0-0.3,0l-143.8-1.3
	c-1.9,0-3.7,0-5.6,0.2l-31.6-0.2c-2.5,0-5,0.2-7.4,0.6l-23.7,4.3l3.3-1.6c0.4-0.2,0.9-0.3,1.3-0.4l17.6-4.4c3.4-0.9,7-1.3,10.5-1.2
	l29.9,0.5c2.1-0.1,4.2-0.2,6.3-0.3l140.6,1.3c1.7,0.1,3.4,0.1,5.1,0.2l32.7,0.2c1.8,0,3.5,0.2,5.3,0.6l12.3,2.8
	c0.7,0.1,1.4,0.3,1.9,0.7L2726.1,2452.7z"/>
<rect x="2288.1" y="2473.3" transform="matrix(1 8.808804e-003 -8.808804e-003 1 21.9058 -20.1087)" fill="#303030" width="11.1" height="6.9"/>
<rect x="2287.9" y="2504.7" transform="matrix(1 8.808804e-003 -8.808804e-003 1 22.1823 -20.105)" fill="#303030" width="11.1" height="6.9"/>
<polygon fill="#AFACAE" points="2315.3,2522.8 2261,2522.1 2259.6,2521.5 2259,2520.1 2315.3,2520.6 "/>
<path fill="#636363" d="M2315.3,2539.4l1.9-92.7c0-1.4,1.1-2.5,2.5-2.6l8.5-0.5l-9.7-0.2c-1.3,0-2.3,1-2.3,2.3L2315.3,2539.4z"/>
<polygon fill="#232322" points="2332.3,2539.4 2332.2,2542.1 2316.4,2541.7 2315.3,2538.9 "/>
<path fill="#636363" d="M2332.3,2550.1l0.2-113.3c0-2.6,2.2-4.7,4.9-4.5l8.3,0.6l-9.1,1.7c-1.3,0.3-2.3,1.8-2.3,3.2L2332.3,2550.1z"
	/>
<path fill="#BCBBBB" d="M2441.2,2498.1c0,0,1.2,5.9,5.2,13.3c8.9,16.5,26.4,26.6,45.2,26.8l204.4,2.2c8.5,0.1,16.8-2.7,23.1-8.3
	c4.6-4.1,9.1-10,11.8-18.7c0,0,0.7,24.2-21.1,32.1c-2.5,0.9-5.3,1.3-8,1.3l-213.5-1.6c-7.2-0.1-14.4-1.6-20.9-4.8
	C2455.6,2534.6,2440.6,2522.4,2441.2,2498.1z"/>
</svg>
