<?xml version="1.0" encoding="utf-8"?>
<!-- Generator: Adobe Illustrator 17.1.0, SVG Export Plug-In . SVG Version: 6.00 Build 0)  -->
<!DOCTYPE svg PUBLIC "-//W3C//DTD SVG 1.1//EN" "http://www.w3.org/Graphics/SVG/1.1/DTD/svg11.dtd">
<svg version="1.1" id="Layer_2" xmlns="http://www.w3.org/2000/svg" xmlns:xlink="http://www.w3.org/1999/xlink" x="0px" y="0px"
	 viewBox="0 0 5000 5000" enable-background="new 0 0 5000 5000" xml:space="preserve">
<path fill="#2F3134" stroke="#111314" stroke-width="2" stroke-miterlimit="10" d="M2499.9,3237.8l64.7,1.5
	c18.8,0.4,34.2-13.2,34.2-30.2c0-180.6,0.2-1096.7,2.3-1273.7c0.1-8.6,8.8-50.3,10.6-81.8c1.1-19.5-12.9-35.9-12.9-35.9l-127.2-2.3
	c0,0-11.9,19.6-10.7,40.1c1.6,29.9,10.4,64.1,10.5,69c1,122.3,8.3,1104-0.3,1285.3C2470.3,3224.9,2483.3,3237.5,2499.9,3237.8z"/>
<path fill="#111215" d="M2497.5,3206.5c0,0-8.6,50.7,7.4,81.9c12.9,25,48.9,24.3,60.8-1.2c7-15.1,11.3-39.6,6.7-79L2497.5,3206.5z"
	/>
<path fill="#090A0E" d="M2576.7,3239.6l-85.6-2c-11.2-0.3-20.2-8.7-19.9-18.9l0.5-23.6l128.1,2.9l-0.5,22
	C2599,3231.2,2588.9,3239.9,2576.7,3239.6z"/>
<path fill="#111215" d="M2528.4,1672c0,0-0.5-19.1,4.7-28.1c2.2-3.7,12.7-5,13.7,6.4c0.5,5.5,1.9,9.7,1.2,22.5l-16-0.7L2528.4,1672z
	"/>
<rect x="2537.2" y="3199.9" transform="matrix(0.9997 2.279442e-002 -2.279442e-002 0.9997 74.0124 -57.2257)" fill="#4F5156" width="20" height="36.1"/>
<polygon fill="#5A5B5E" points="2608.1,1865.7 2463.1,1862.4 2462.9,1857.2 2608.5,1860.8 "/>
<path fill="#111314" d="M2500.4,1919.6l-8.6-36.9c-3.1-13.4-2.8-27.5,0.9-40.8l6.9-24.8l55.7,1.3l9.5,36.3
	c1.4,5.4,1.6,11.1,0.4,16.6l-10.4,49.5L2500.4,1919.6"/>
<polygon fill="#111314" points="2500.4,1919.6 2495.8,3195.7 2548.7,3196.9 2554.8,1920.8 "/>
<path fill="#4F5156" d="M2554.7,3239.1c0,0-2.7,39.5-8,52.5c-0.7,1.7,0.4,3.6,1.9,3.3c0,0,0.1,0,0.1,0c1.6-0.3,3-1.8,3.6-3.6
	c2.4-6.7,9.1-28.1,8.8-52L2554.7,3239.1z"/>
<path fill="#4F5156" d="M2541.7,1646c0.5,3.4,1.7,12.4,1.8,15.3l1.8,0c0,0-0.1-12.5-1.1-16.3c-0.1-0.5-0.6-0.9-1.1-0.8l0,0
	C2542.2,1644.3,2541.6,1645.1,2541.7,1646z"/>
<path fill="#4F5156" d="M2529.9,1660.9l1.7,0c0,0,1-8.9,3.4-14.8c0.5-1.2-0.6-2.5-1.4-1.6c0,0,0,0,0,0.1
	C2533.5,1644.6,2530.5,1653.1,2529.9,1660.9z"/>
<rect x="2528.7" y="1662.9" transform="matrix(0.9997 2.279442e-002 -2.279442e-002 0.9997 38.6227 -57.4284)" width="19.5" height="5.1"/>
<path fill="#111215" d="M2469.8,1816.4l29-82.3l1.4,0l0.6-2l-1.4,0l22.4-62c0.9-2.4,3.2-4,5.8-4l21.3,0.5c2.8,0.1,5.2,1.9,6,4.5
	l18.9,62.7l-2.2,0l0.9,1.9l1.7,0.2l26.5,83.5L2469.8,1816.4z"/>
<path fill="#4F5156" d="M2542.2,1805.8l-0.2,10.1c0,0.6,0.4,1.1,0.9,1.1l34.2,0.8c0.4,0,0.7-0.5,0.6-1l-1.7-10.3L2542.2,1805.8"/>
<path fill="#4F5156" d="M2512.1,1734.5l-15.1,66.9c-0.3,1.2-1.3,2-2.5,2l-9.3-0.2c-0.7,0-1.2-0.7-1-1.4l22.1-67.4L2512.1,1734.5"/>
<path fill="#4F5156" d="M2530.7,1666.2l-16.5,64.4c-0.1,0.4-0.5,0.7-0.9,0.7l-6-0.1c-0.7,0-1.1-0.7-0.9-1.3l22-63.6L2530.7,1666.2"
	/>
<rect x="2477.4" y="2754.8" transform="matrix(0.9999 -1.126461e-002 1.126461e-002 0.9999 -30.8836 28.756)" fill="#111314" stroke="#252628" stroke-miterlimit="10" width="119.7" height="2.4"/>
<path fill="#4F5156" d="M2567.6,1735.7l12.4,68c0.2,0.9,0.9,1.6,1.8,1.6l5.5,0.1c0.5,0,0.9-0.5,0.8-1l-17.2-68.7L2567.6,1735.7"/>
<path fill="#4F5156" d="M2545.1,1666.5l-0.7,61.7c-0.2,2,0.8,3.8,2.2,3.8l16.4,0.4c0.8,0,1.5-1.2,1.3-2.4l-14.3-63.3L2545.1,1666.5z
	"/>
<path fill="#4F5156" d="M2545.7,1735.2l-3.4,67.6c0,0.9,0.5,1.6,1.2,1.6l29.6,0.7c1.1,0,2-1.3,1.8-2.7l-10.6-66.9L2545.7,1735.2"/>
<path fill="#4F5156" d="M2568.4,1732.5l1.8,0c0.3,0,0.5-0.3,0.5-0.6l-18.3-64.3l-0.7-0.4l15.9,64.6
	C2567.7,1732.2,2568,1732.5,2568.4,1732.5z"/>
<polygon fill="#1E2023" points="2596.5,1805.7 2474.6,1802.9 2474.1,1804.3 2596.9,1807.1 "/>
<polyline fill="#0A0B0C" points="2500.8,1732.2 2571.7,1733.8 2572.6,1735.7 2500.2,1734.2 2500.8,1732.2 "/>
<path fill="#4F5156" d="M2581.3,1806.7l2.9,9.9c0.2,0.9,1,1.4,1.9,1.5l4.4,0.1c0.8,0,1.5-0.8,1.2-1.6l-2.7-9.7L2581.3,1806.7z"/>
<path fill="#4F5156" d="M2495.5,1804.8l-2.2,9.3c-0.2,0.8-0.9,1.3-1.7,1.3l-9.4-0.2c-0.9,0-1.5-0.9-1.2-1.7l3-8.9L2495.5,1804.8z"/>
<path fill="#4F5156" d="M2513.5,3238.2c0,0,0.1,36.9,2.2,49.2c0.3,1.6-0.3,3.3-1.1,3c0,0,0,0,0,0c-0.8-0.4-1.4-1.7-1.7-3.5
	c-0.9-6.3-3.6-26.5-2.6-48.8L2513.5,3238.2z"/>
<rect x="2568.3" y="3200.4" transform="matrix(0.9997 2.279442e-002 -2.279442e-002 0.9997 74.0218 -57.7568)" fill="#4F5156" width="4.5" height="35.3"/>
<polygon fill="#5A5B5E" points="2600.7,1822.9 2471.2,1819.9 2473,1817.4 2598.3,1820.3 "/>
<rect x="2489.8" y="1858.7" transform="matrix(0.9997 2.279442e-002 -2.279442e-002 0.9997 43.0839 -57.1395)" fill="#303435" width="76.2" height="5.3"/>
<path d="M2550.9,2326.4l-16.2-0.1c-8.3,0-15-8.3-15-18.4l1.2-236.3c0.1-10.1,6.8-18.2,15.2-18.2l16.2,0.1c8.3,0,15,8.3,15,18.4
	l-1.2,236.3C2566.1,2318.3,2559.3,2326.5,2550.9,2326.4z"/>
<path fill="#2F3134" stroke="#111314" stroke-width="2" stroke-miterlimit="10" d="M2544.5,2309.4l-3.2,0c-4.5,0-8.9-1.6-11.9-4.9
	c-2.7-2.8-4.4-6.7-4.3-12l1.1-216.8c0-9.3,5.3-16.7,11.8-16.7l12.5,0.1c6.5,0,11.6,7.6,11.6,16.8l-1.1,216.8c0,5.3-1.8,9.1-4.5,11.9
	C2553.4,2307.9,2549,2309.4,2544.5,2309.4z"/>
<polygon fill="#06070B" points="2561.7,2149 2525.8,2148.2 2525.8,2140.8 2561.7,2141.7 "/>
<polygon fill="#57585B" points="2561.8,2144.6 2525.8,2143.7 2525.8,2138 2561.9,2138.8 "/>
<g>
	<path fill="#4B4C4F" d="M2525.4,2295.5c0.1,1.1,0.3,2.1,0.6,3.1c0.3,1,0.7,1.9,1.3,2.8c0.5,0.9,1.1,1.7,1.8,2.5
		c0.3,0.4,0.7,0.7,1.1,1.1c0.4,0.3,0.8,0.6,1.2,0.9c0.4,0.3,0.9,0.6,1.3,0.8c0.4,0.3,0.9,0.5,1.4,0.7c0.9,0.4,1.9,0.7,2.9,0.9
		c0.5,0.1,1,0.2,1.5,0.3c0.5,0.1,1,0.1,1.5,0.2l1.5,0.1l1.6,0l0,0l0,0c1,0.1,2,0,3,0c1-0.1,2-0.2,3-0.4c1-0.2,1.9-0.5,2.9-0.9
		c0.9-0.4,1.8-0.8,2.7-1.3c0.4-0.3,0.8-0.6,1.2-0.9c0.4-0.3,0.8-0.6,1.1-1c0.3-0.4,0.7-0.7,1-1.1c0.3-0.4,0.6-0.8,0.8-1.2
		c0.2-0.4,0.5-0.9,0.7-1.3c0.2-0.5,0.4-0.9,0.6-1.4c0.2-0.5,0.3-1,0.4-1.5c0.1-0.5,0.2-1,0.3-1.5c-0.1,1-0.2,2-0.5,3
		c-0.1,0.5-0.3,1-0.5,1.5c-0.2,0.5-0.4,1-0.6,1.4c-1,1.8-2.4,3.5-4.1,4.7c-1.7,1.2-3.7,2-5.8,2.5c-1,0.2-2.1,0.4-3.1,0.5
		c-1,0.1-2.1,0.1-3.2,0.1l0,0l-1.6-0.1l-1.6-0.1c-0.5-0.1-1.1-0.1-1.6-0.2c-0.5-0.1-1.1-0.2-1.6-0.3c-1-0.3-2.1-0.6-3.1-1
		c-0.5-0.2-1-0.4-1.4-0.7c-0.5-0.3-0.9-0.6-1.4-0.9c-0.4-0.3-0.9-0.7-1.2-1c-0.4-0.4-0.8-0.8-1.1-1.2c-0.7-0.8-1.3-1.7-1.8-2.7
		c-0.5-1-0.8-2-1.1-3C2525.5,2297.6,2525.3,2296.5,2525.4,2295.5z"/>
</g>
<path fill="#111314" d="M2525.8,2138l36.1,0.8l0.1-60.5c0,0,2.4-19.8-17.6-20.2c0,0-17.8-2-18.3,18c0,0.5,0,0.9,0,1.4
	C2526,2099.7,2525.8,2138,2525.8,2138z"/>
<path fill="none" stroke="#3E3F43" stroke-miterlimit="10" d="M2548.8,2322.1l-11.9-0.1c-6.1,0-11-8-11-17.7l1.2-228.6
	c0.1-9.8,5-17.7,11.2-17.6l11.9,0.1c6.1,0,11,8,11,17.7l-1.2,228.6C2559.9,2314.2,2554.9,2322.1,2548.8,2322.1z"/>
<path fill="#77787A" d="M2560.3,2159.7L2560.3,2159.7c-0.7,0-1.2-1-1.2-2.1l0.1-6.5c0-1.2,0.6-2.1,1.3-2.1l0,0c0.7,0,1.2,1,1.2,2.1
	l-0.1,6.5C2561.6,2158.8,2561,2159.7,2560.3,2159.7z"/>
<path fill="#77787A" d="M2560.7,2082.1L2560.7,2082.1c-0.7,0-1.3-0.7-1.3-1.6l0.1-6c0-0.9,0.6-1.6,1.3-1.6l0,0
	c0.7,0,1.3,0.7,1.3,1.6l-0.1,6C2562,2081.4,2561.4,2082.1,2560.7,2082.1z"/>
</svg>
