<?xml version="1.0" encoding="utf-8"?>
<!-- Generator: Adobe Illustrator 17.1.0, SVG Export Plug-In . SVG Version: 6.00 Build 0)  -->
<!DOCTYPE svg PUBLIC "-//W3C//DTD SVG 1.1//EN" "http://www.w3.org/Graphics/SVG/1.1/DTD/svg11.dtd">
<svg version="1.1" id="Layer_3" xmlns="http://www.w3.org/2000/svg" xmlns:xlink="http://www.w3.org/1999/xlink" x="0px" y="0px"
	 viewBox="0 0 5000 5000" enable-background="new 0 0 5000 5000" xml:space="preserve">
<path fill="#3A3B3D" d="M4520.1,3794.6l-3750.8,0.9c-53.4,0-96.8-43.3-96.8-96.8l-0.6-2401.2c0-53.4,43.3-96.8,96.8-96.8l3722.1-0.9
	c78,0,141.3,63.2,141.3,141.2l0.5,2341C4632.5,3744.2,4582.2,3794.5,4520.1,3794.6z"/>
<rect x="1391.4" y="1519.3" fill="#191A1C" width="2872" height="1972.2"/>
<rect x="671.9" y="1519.7" fill="#2B2C2D" width="719.3" height="8.8"/>
<rect x="672.4" y="3483.1" fill="#2B2C2D" width="719.3" height="8.8"/>
<circle fill="#363738" stroke="#515151" stroke-miterlimit="10" cx="1021.3" cy="2498" r="205.7"/>
<circle fill="#434344" stroke="#505151" stroke-miterlimit="10" cx="1021.3" cy="2498" r="97.6"/>
<path fill="#434344" stroke="#515151" stroke-miterlimit="10" d="M1115.6,2938.2l-167.4,0c-11.6,0-20.9-9.4-20.9-20.9l0-62.8
	c0-11.6,9.4-20.9,20.9-20.9l167.4,0c11.6,0,20.9,9.4,20.9,20.9l0,62.8C1136.5,2928.9,1127.1,2938.2,1115.6,2938.2z"/>
<path fill="#434344" stroke="#515151" stroke-miterlimit="10" d="M1115.6,3081.2l-167.4,0c-11.6,0-20.9-9.4-20.9-20.9l0-62.8
	c0-11.6,9.4-20.9,20.9-20.9l167.4,0c11.6,0,20.9,9.4,20.9,20.9l0,62.8C1136.5,3071.8,1127.2,3081.2,1115.6,3081.2z"/>
<path fill="#434344" stroke="#515151" stroke-miterlimit="10" d="M1115.3,1756.1l-167.4,0c-11.6,0-20.9-9.4-20.9-20.9l0-62.8
	c0-11.6,9.4-20.9,20.9-20.9l167.4,0c11.6,0,20.9,9.4,20.9,20.9l0,62.8C1136.2,1746.7,1126.9,1756.1,1115.3,1756.1z"/>
<path fill="#434344" stroke="#515151" stroke-miterlimit="10" d="M1115.3,1892.1l-167.4,0c-11.6,0-20.9-9.4-20.9-20.9l0-62.8
	c0-11.6,9.4-20.9,20.9-20.9l167.4,0c11.6,0,20.9,9.4,20.9,20.9l0,62.8C1136.3,1882.7,1126.9,1892.1,1115.3,1892.1z"/>
<path fill="#434344" stroke="#515151" stroke-miterlimit="10" d="M1115.4,2042l-167.4,0c-11.6,0-20.9-9.4-20.9-20.9l0-62.8
	c0-11.6,9.4-20.9,20.9-20.9l167.4,0c11.6,0,20.9,9.4,20.9,20.9l0,62.8C1136.3,2032.7,1126.9,2042,1115.4,2042z"/>
<path fill="#434344" stroke="#515151" stroke-miterlimit="10" d="M1115.4,2181.5l-167.4,0c-11.6,0-20.9-9.4-20.9-20.9l0-62.8
	c0-11.6,9.4-20.9,20.9-20.9l167.4,0c11.6,0,20.9,9.4,20.9,20.9l0,62.8C1136.3,2172.1,1127,2181.5,1115.4,2181.5z"/>
<path fill="#434344" stroke="#515151" stroke-miterlimit="10" d="M1115.7,3360.2l-167.4,0c-11.6,0-20.9-9.4-20.9-20.9l0-62.8
	c0-11.6,9.4-20.9,20.9-20.9l167.4,0c11.6,0,20.9,9.4,20.9,20.9l0,62.8C1136.6,3350.8,1127.2,3360.2,1115.7,3360.2z"/>
<path fill="#434344" stroke="#515151" stroke-miterlimit="10" d="M1115.6,3217.2l-167.4,0c-11.6,0-20.9-9.4-20.9-20.9l0-62.8
	c0-11.6,9.4-20.9,20.9-20.9l167.4,0c11.6,0,20.9,9.4,20.9,20.9l0,62.8C1136.6,3207.8,1127.2,3217.2,1115.6,3217.2z"/>
<path fill="#646466" stroke="#6F7070" stroke-miterlimit="10" d="M1072.6,3176.7l-78.7,0c-6.4,0-11.7-5.2-11.7-11.6l0-0.2
	c0-6.4,5.2-11.7,11.6-11.7l78.7,0c6.4,0,11.7,5.2,11.7,11.6l0,0.2C1084.2,3171.5,1079,3176.7,1072.6,3176.7z"/>
<circle fill="#646466" stroke="#6F7070" stroke-miterlimit="10" cx="1033.2" cy="3028.9" r="11.8"/>
<path fill="#646466" stroke="#6F7070" stroke-miterlimit="10" d="M1072.3,1830.2l-78.7,0c-6.4,0-11.6,5.2-11.6,11.7l0,0.2
	c0,6.4,5.2,11.6,11.7,11.6l78.7,0c6.4,0,11.6-5.2,11.6-11.7l0-0.2C1083.9,1835.4,1078.7,1830.2,1072.3,1830.2z"/>
<circle fill="#646466" stroke="#6F7070" stroke-miterlimit="10" cx="1033" cy="1989.7" r="11.8"/>
<circle fill="#DCDEE2" cx="851.8" cy="2292.3" r="13.9"/>
<polygon fill="#DCDEE2" points="1522.9,1801.9 1529.9,1801.9 1529.9,1779.8 1549.7,1779.8 1549.7,1772.8 1522.9,1772.8 "/>
<polygon fill="#DCDEE2" points="1509.9,3202.6 1516.9,3202.6 1516.9,3224.7 1536.6,3224.7 1536.6,3231.6 1509.9,3231.7 "/>
<polygon fill="#DCDEE2" points="3807.8,1804.9 3800.9,1804.9 3800.9,1782.8 3781.1,1782.8 3781.1,1775.8 3807.8,1775.8 "/>
<polygon fill="#DCDEE2" points="3821.5,3205.5 3814.6,3205.5 3814.6,3227.6 3794.8,3227.6 3794.8,3234.6 3821.5,3234.6 "/>
</svg>
