<?xml version="1.0" encoding="utf-8"?>
<!-- Generator: Adobe Illustrator 17.1.0, SVG Export Plug-In . SVG Version: 6.00 Build 0)  -->
<!DOCTYPE svg PUBLIC "-//W3C//DTD SVG 1.1//EN" "http://www.w3.org/Graphics/SVG/1.1/DTD/svg11.dtd">
<svg version="1.1" id="Layer_3" xmlns="http://www.w3.org/2000/svg" xmlns:xlink="http://www.w3.org/1999/xlink" x="0px" y="0px"
	 viewBox="0 0 5000 5000" enable-background="new 0 0 5000 5000" xml:space="preserve">
<path fill="#0E0E1C" d="M3091.4,2525.3l-24.4,0.5l-4.6-180.9l27.4-0.3c0,0,27.3,34.4,22.7,72.6
	C3112.6,2417.1,3110.3,2464.1,3091.4,2525.3z"/>
<path fill="#0E0E1C" d="M3074.1,2341.2c0,0,24,21.4,28.5,68.4c0.8,8.7,0.7,17.4,0.1,26c-1.3,18.2-5,54.9-14,69.5l-4.4,12.3
	c-1.6,4.4,2.2,8.8,6.6,7.8l12.4-2.7c0,0,8.2-22.2,15-47c9.9-35.8,9.2-74.1-4.1-108.8c-3.5-9.3-7.9-18.2-13.4-25.7H3074.1z"/>
<path fill="#E0E1DB" d="M3112.3,2328.8H1936.8v-830.5c0-6.8,5.3-12.2,11.7-12.2h1153.2c5.9,0,10.6,5,10.6,11.1V2328.8z"/>
<rect x="1956.7" y="2280.8" fill="#CCCDC7" width="1130.8" height="48.1"/>
<rect x="1956.7" y="2274.4" fill="#F6F7F7" width="1130.8" height="12.7"/>
<rect x="2707.8" y="1954.2" fill="#D4D5D1" width="387.6" height="12.3"/>
<rect x="1948.9" y="1954.2" fill="#D4D5D1" width="387.6" height="12.3"/>
<path fill="#F6F7F7" d="M1936.8,1498.3c0,0,0.3,6.1,0.9,17.2c5.6,108.8,23.8,650.7,19.3,811.8c0,0.9-0.9,1.5-1.7,1.5h-18.4"/>
<path fill="#F6F7F7" d="M3111.4,1498.3c0,0-0.4,6.1-1.1,17.2c-7,108.8-29.7,650.7-24.1,811.8c0,0.9,1.1,1.5,2.2,1.5h24
	L3111.4,1498.3z"/>
<path fill="#F6F7F7" d="M2697.7,2287.1h16.5c0,0,2.4-556.7-8.3-603.5C2706,1683.6,2700.1,2205.6,2697.7,2287.1z"/>
<path fill="#F6F7F7" d="M2343.2,2287.1h-16.5c0,0-2.4-556.7,8.3-603.5C2334.9,1683.6,2340.8,2205.6,2343.2,2287.1z"/>
<path fill="#D4D5D1" d="M2707.8,2287.1h16.5c0,0,2.4-556.7-8.3-603.5C2716.1,1683.6,2710.1,2205.6,2707.8,2287.1z"/>
<path fill="#D4D5D1" d="M2353.2,2287.1h-16.5c0,0-2.4-556.7,8.3-603.5C2344.9,1683.6,2350.8,2205.6,2353.2,2287.1z"/>
<rect x="2706.1" y="1941.9" fill="#F6F7F7" width="387.6" height="12.3"/>
<rect x="1947.2" y="1941.9" fill="#F6F7F7" width="387.6" height="12.3"/>
<rect x="1937.8" y="1502.6" fill="#D4D5D1" width="1173.5" height="13.5"/>
<rect x="2441.2" y="1504.1" fill="#D4D5D1" width="212.7" height="30.7"/>
<rect x="2427" y="1480.2" fill="#E0E1DB" width="212.7" height="36.3"/>
<rect x="2486.1" y="1498.3" fill="#E8E9E4" width="108.7" height="7.5"/>
<path fill="#E8E9E4" d="M3079.3,3325.4h-395.1c-4,0-7.2-3.4-7.2-7.5v-15.2h-309.6v13.1c0,5.4-4.2,9.7-9.3,9.7h-402.2
	c-12.1,0-21.9-10.2-21.9-22.8v-794.1h1176.3v784.5C3110.3,3310.9,3096.4,3325.4,3079.3,3325.4z"/>
<path fill="#BABBB4" d="M1955.2,3148.9L1955.2,3148.9c-2.3,0-4.2-4.1-4.2-9.1v-170.2c0-5.1,1.8-9.1,4.1-9.1h0.1
	c2.3,0,4.1,4.1,4.1,9.1v170.2C1959.3,3144.8,1957.5,3148.9,1955.2,3148.9z"/>
<path fill="#BABBB4" d="M3084.9,3148.9L3084.9,3148.9c-2.7,0-4.8-4.1-4.8-9.1v-170.2c0-5.1,2.1-9.1,4.7-9.1h0.1
	c2.6,0,4.7,4.1,4.7,9.1v170.2C3089.6,3144.8,3087.5,3148.9,3084.9,3148.9z"/>
<path fill="#F3F3F1" d="M1933.9,2503.9h18.9c0,0-16.6,730.6-18.9,794.1V2503.9z"/>
<path fill="#D0D0CA" d="M2367.3,3298h309.6v-337.6c0,0,0-149.9-109.9-183.2c-29.1-8.8-60.4-7.3-88.9,3.5
	c-44.3,16.8-107.8,61.5-110.9,179.7V3298z"/>
<path fill="#D7D7D7" d="M2367.3,2975.2c0,0,22.7-142.7,153.9-144.6c0,0,107.2-12.9,155.7,144.6c0,0,8.1-147-95.5-191.3
	c-35.8-15.3-79.1-15.2-114.6,1C2421.1,2805.8,2365.1,2857.1,2367.3,2975.2z"/>
<path fill="#E8E9E4" d="M3102.3,2511.4l-23.7,0.5l-4.4-179.4l26.7-0.3c0,0,26.5,34.2,22.1,72
	C3123,2404.1,3120.7,2450.7,3102.3,2511.4z"/>
<g>
	<path fill="#C2C3BF" d="M2427.7,2810.2c-33.3,29.4-62,79.8-60.4,165c0,0,8.6-53.4,45.2-95.3
		C2410.3,2853.1,2418.6,2828.4,2427.7,2810.2z"/>
	<g>
		<path fill="#C2C3BF" d="M2625.3,2813.8c32.5,45.1,53.3,79.8,51.7,165c0,0-8.7-51.4-45.3-93.3
			C2633.8,2858.7,2634.3,2832.1,2625.3,2813.8z"/>
	</g>
</g>
<path fill="#F5F6F4" d="M2372.6,3272.6l-8.4-209.9c-0.7-16.3,1.2-32.7,6.1-48.2c9.7-31.1,33-76.6,88.7-99.6
	c40.8-16.8,86.5-15.2,126.9,2.7c35.1,15.5,75,45,87.9,100.4c3.2,13.6,4.1,27.6,3.5,41.6l-9.9,216.6c-0.2,3.7-3.1,6.6-6.7,6.6h-277.9
	C2377.3,3282.9,2372.8,3278.4,2372.6,3272.6z"/>
<path fill="#E1E1DF" d="M2383,3266.6l-8.4-209.6c-0.2-6.1,0.2-12.1,1.2-18.1c4.6-25.3,22.7-87,90.7-113.1
	c35.9-13.8,75.6-12.6,111.1,2.2c35.8,15,78.6,45.5,87.9,106.6c1.2,8.1,1.5,16.2,1.2,24.4l-8.2,206c-0.1,2.7-2.3,4.9-4.9,4.9h-267.4
	C2384.5,3269.8,2383,3268.4,2383,3266.6z"/>
<path fill="#D2D2D0" d="M2381.4,3228.3h278.5l-1.3,32.1c0,0,1.9,9.4-7.5,9.4h-260.5c0,0-9.2,0.6-7.9-10L2381.4,3228.3z"/>
<line fill="#F5F6F4" x1="2367.3" y1="3312.8" x2="2367.3" y2="3315.7"/>
<line fill="#F5F6F4" x1="1943.4" y1="3315.7" x2="1943.4" y2="3312.8"/>
<line fill="#F5F6F4" x1="3101.4" y1="3311.3" x2="3101.4" y2="3314.2"/>
<line fill="#F5F6F4" x1="2677.5" y1="3314.2" x2="2677.5" y2="3311.3"/>
<rect x="2436.7" y="3282.9" fill="#EDEDE8" width="163.1" height="37"/>
<rect x="2436.7" y="3282.9" fill="#F5F6F4" width="5.3" height="37"/>
<rect x="2594.5" y="3282.9" fill="#F5F6F4" width="5.3" height="37"/>
<path fill="#E8E9E4" d="M1947.2,2508.5l23.7,0.5l4.4-170.8l-22.5-6.1c0,0-30.7,38.3-26.3,74.3
	C1926.6,2406.4,1926.1,2465,1947.2,2508.5z"/>
<path fill="#F5F6F4" d="M1961.5,2328.8c0,0-23.3,21.2-27.7,67.8c-0.8,8.6-0.7,17.2-0.1,25.8c1.3,18.1,4.8,54.4,13.6,69l4.3,12.2
	c1.5,4.3-2.1,8.7-6.4,7.7l-12-2.7c0,0-7.9-22-14.6-46.6c-9.6-35.5-8.9-73.5,4-107.9c3.4-9.2,7.7-18.1,13-25.5H1961.5z"/>
<path fill="#F5F6F4" d="M3085.5,2328.8c0,0,23.3,21.2,27.7,67.8c0.8,8.6,0.7,17.2,0.1,25.8c-1.3,18.1-4.8,54.4-13.6,69l-4.3,12.2
	c-1.5,4.3,2.1,8.7,6.4,7.7l12-2.7c0,0,7.9-22,14.6-46.6c9.6-35.5,8.9-73.5-4-107.9c-3.4-9.2-7.7-18.1-13-25.5H3085.5z"/>
<rect x="1961.5" y="2328.8" fill="#E8E9E4" width="1118.5" height="199.6"/>
<polygon fill="#F6F7F7" points="3095.8,2338.2 1952.6,2338.2 1956.6,2326 3089.3,2326 "/>
<rect x="1992.8" y="2351.3" fill="#CCCDC7" width="1063.5" height="137.8"/>
<rect x="1992.8" y="2424.9" fill="#DCDCD6" width="1063.5" height="20.3"/>
<rect x="1992.8" y="2351.3" fill="#BDBEBA" width="1063.5" height="28.1"/>
<rect x="2013.4" y="3077.9" fill="#D0D0CA" width="297.8" height="185.2"/>
<rect x="2013.4" y="2553" fill="#D0D0CA" width="297.8" height="185.2"/>
<rect x="2013.4" y="2823.5" fill="#D0D0CA" width="297.8" height="185.2"/>
<path fill="#D0D0CA" d="M2084.3,3077.9c0,0,11.2-10,31.3-19.4c31.4-14.6,67.8-11.7,97.5,6.4c6,3.6,12,7.9,17.7,13H2084.3z"/>
<rect x="2084.3" y="3077.9" fill="#F7F8EE" width="146.5" height="0"/>
<path fill="#D0D0CA" d="M2089,2824.5c0,0,11.2-10,31.3-19.4c31.4-14.6,67.8-11.7,97.5,6.4c6,3.6,12,7.9,17.7,13H2089z"/>
<rect x="2089" y="2824.5" fill="#F7F8EE" width="146.5" height="0"/>
<path fill="#D0D0CA" d="M2084.3,2553c0,0,11.2-10,31.3-19.4c31.4-14.6,67.8-11.7,97.5,6.4c6,3.6,12,7.9,17.7,13H2084.3z"/>
<rect x="2084.3" y="2553" fill="#F7F8EE" width="146.5" height="0"/>
<rect x="2724.5" y="3083.4" fill="#D0D0CA" width="297.8" height="185.2"/>
<path fill="#D0D0CA" d="M2795.4,3083.4c0,0,11.2-10,31.3-19.4c31.4-14.6,67.8-11.7,97.5,6.4c6,3.6,12,7.9,17.7,13H2795.4z"/>
<rect x="2795.4" y="3083.4" fill="#F7F8EE" width="146.5" height="0"/>
<rect x="2719.8" y="2825" fill="#D0D0CA" width="297.8" height="185.2"/>
<path fill="#D0D0CA" d="M2790.7,2825c0,0,11.2-10,31.3-19.4c31.4-14.6,67.8-11.7,97.5,6.4c6,3.6,12,7.9,17.7,13H2790.7z"/>
<rect x="2790.7" y="2825" fill="#F7F8EE" width="146.5" height="0"/>
<rect x="2715.1" y="2557.1" fill="#D0D0CA" width="297.8" height="185.2"/>
<path fill="#D0D0CA" d="M2786,2557.1c0,0,11.2-10,31.3-19.4c31.4-14.6,67.8-11.7,97.5,6.4c6,3.6,12,7.9,17.7,13H2786z"/>
<rect x="2786" y="2557.1" fill="#F7F8EE" width="146.5" height="0"/>
<rect x="2369.4" y="2557.1" fill="#D0D0CA" width="297.8" height="185.2"/>
<path fill="#D0D0CA" d="M2440.3,2557.1c0,0,11.2-10,31.3-19.4c31.4-14.6,67.8-11.7,97.5,6.4c6,3.6,12,7.9,17.7,13H2440.3z"/>
<rect x="2440.3" y="2557.1" fill="#F7F8EE" width="146.5" height="0"/>
<path fill="#E9D43E" d="M2153.4,2735.2h-128.8c-4.9,0-8.9-4-8.9-9v-161c0-5,4-9,8.9-9h128.8c4.9,0,8.9,4,8.9,9v161
	C2162.3,2731.2,2158.3,2735.2,2153.4,2735.2z"/>
<path fill="#E2A23A" d="M2300,2735.2h-128.8c-4.9,0-8.9-4-8.9-9v-161c0-5,4-9,8.9-9H2300c4.9,0,8.9,4,8.9,9v161
	C2308.8,2731.2,2304.9,2735.2,2300,2735.2z"/>
<path fill="#3C5082" d="M2153.4,3007.2h-128.8c-4.9,0-8.9-4-8.9-9v-161c0-5,4-9,8.9-9h128.8c4.9,0,8.9,4,8.9,9v161
	C2162.3,3003.1,2158.3,3007.2,2153.4,3007.2z"/>
<path fill="#83B3CD" d="M2300,3007.2h-128.8c-4.9,0-8.9-4-8.9-9v-161c0-5,4-9,8.9-9H2300c4.9,0,8.9,4,8.9,9v161
	C2308.8,3003.1,2304.9,3007.2,2300,3007.2z"/>
<path fill="#B48C2E" d="M2153.4,3260.1h-128.8c-4.9,0-8.9-4-8.9-9v-161c0-5,4-9,8.9-9h128.8c4.9,0,8.9,4,8.9,9v161
	C2162.3,3256,2158.3,3260.1,2153.4,3260.1z"/>
<path fill="#924436" d="M2300,3260.1h-128.8c-4.9,0-8.9-4-8.9-9v-161c0-5,4-9,8.9-9H2300c4.9,0,8.9,4,8.9,9v161
	C2308.8,3256,2304.9,3260.1,2300,3260.1z"/>
<path fill="#E5644E" d="M2511.8,2735.2H2383c-4.9,0-8.9-4-8.9-9v-161c0-5,4-9,8.9-9h128.8c4.9,0,8.9,4,8.9,9v161
	C2520.7,2731.2,2516.7,2735.2,2511.8,2735.2z"/>
<path fill="#D22D2C" d="M2658.3,2735.2h-128.8c-4.9,0-8.9-4-8.9-9v-161c0-5,4-9,8.9-9h128.8c4.9,0,8.9,4,8.9,9v161
	C2667.2,2731.2,2663.2,2735.2,2658.3,2735.2z"/>
<path fill="#B33738" d="M2855.1,2739.3h-128.8c-4.9,0-8.9-4-8.9-9v-161c0-5,4-9,8.9-9h128.8c4.9,0,8.9,4,8.9,9v161
	C2864,2735.2,2860,2739.3,2855.1,2739.3z"/>
<path fill="#8D4D75" d="M3001.6,2739.3h-128.8c-4.9,0-8.9-4-8.9-9v-161c0-5,4-9,8.9-9h128.8c4.9,0,8.9,4,8.9,9v161
	C3010.5,2735.2,3006.5,2739.3,3001.6,2739.3z"/>
<path fill="#378572" d="M2859.8,3005.7H2731c-4.9,0-8.9-4-8.9-9v-161c0-5,4-9,8.9-9h128.8c4.9,0,8.9,4,8.9,9v161
	C2868.7,3001.6,2864.7,3005.7,2859.8,3005.7z"/>
<path fill="#5D7F38" d="M3006.4,3005.7h-128.8c-4.9,0-8.9-4-8.9-9v-161c0-5,4-9,8.9-9h128.8c4.9,0,8.9,4,8.9,9v161
	C3015.2,3001.6,3011.3,3005.7,3006.4,3005.7z"/>
<path fill="#6A4A40" d="M2864.6,3265.5h-128.8c-4.9,0-8.9-4-8.9-9v-161c0-5,4-9,8.9-9h128.8c4.9,0,8.9,4,8.9,9v161
	C2873.4,3261.5,2869.5,3265.5,2864.6,3265.5z"/>
<path fill="#FFFFFF" d="M3011.1,3265.5h-128.8c-4.9,0-8.9-4-8.9-9v-161c0-5,4-9,8.9-9h128.8c4.9,0,8.9,4,8.9,9v161
	C3020,3261.5,3016,3265.5,3011.1,3265.5z"/>
<rect x="2158.4" y="2826.6" fill="#E8E9E4" width="7.8" height="179.1"/>
<rect x="2158.4" y="2552.6" fill="#E8E9E4" width="7.8" height="186.2"/>
<rect x="2158.4" y="3077.4" fill="#E8E9E4" width="7.8" height="186.2"/>
<rect x="2516.8" y="2552.6" fill="#E8E9E4" width="7.8" height="186.2"/>
<rect x="2855.4" y="2556.6" fill="#E8E9E4" width="7.8" height="186.2"/>
<rect x="2864.8" y="2824.5" fill="#E8E9E4" width="7.8" height="186.2"/>
<rect x="2869.6" y="3082.9" fill="#E8E9E4" width="7.8" height="186.2"/>
<polygon fill="#F5F6F4" points="3095.4,2503.6 3110.3,2615.3 3113.9,2508.7 "/>
<path fill="#DDDDDC" d="M3093.3,2338.2c0,0,33.5,54.3,2.2,165.5C3095.4,2503.6,3139.4,2406.4,3093.3,2338.2z"/>
<path fill="#DDDDDC" d="M1953.9,2337.8c0,0-33.5,54.3-2.2,165.5C1951.8,2503.3,1907.8,2406.1,1953.9,2337.8z"/>
<path fill="#CCCDC7" d="M1992.8,2351.3c0,0-14.4,75.4,0,137.8V2351.3z"/>
<path fill="#CCCDC7" d="M3056.3,2351.3c0,0,14.4,75.4,0,137.8V2351.3z"/>
<path fill="#F6F7F7" d="M3063.9,2359.6c2,13.8,5.6,41.6,4.8,57c-0.2,4.4,3.3,7.9,7.5,7.6l21.4-1.7c3.6-0.3,6.3-3.3,6.4-7.1
	c0.2-13-0.9-42.5-14.2-61.1c-1.3-1.9-3.4-3.1-5.7-3.1h-13.4C3066.6,2351.3,3063.3,2355.2,3063.9,2359.6z"/>
<path fill="#F6F7F7" d="M1981.6,2359.6c-2,13.8-5.6,41.6-4.8,57c0.2,4.4-3.3,7.9-7.5,7.6l-21.4-1.7c-3.6-0.3-6.3-3.3-6.4-7.1
	c-0.2-13,0.9-42.5,14.2-61.1c1.3-1.9,3.4-3.1,5.7-3.1h13.4C1978.9,2351.3,1982.2,2355.2,1981.6,2359.6z"/>
<path fill="#2E3133" d="M2459.6,2400.9c0,0-10.6,17.3-0.3,43.3c0,0,81.1-6.1,154.2-8.2c0,0,118.6-8,170.9-15.5
	c3.5-0.5,7-0.9,10.5-1.2c35.3-3.3,211.2-19.5,237-20.5c0,0,6.2,0.1,11.1-4.7c10.4-10,4.4-29.1-9.7-30.6c-0.8-0.1-1.6-0.1-2.5-0.1
	c-15.7-0.1-3.9,0-3.9,0l-247,11.5c0,0-146.5,6.2-170.2,9.1c-3.2,0.4-6.3,0.6-9.5,0.9C2575.9,2386.6,2494.9,2393.3,2459.6,2400.9z"/>
<g>
	<path fill="#1C1D1E" d="M3032.5,2363.4c-0.8-0.1-1.6-0.1-2.5-0.1c-1.6,0-2.8,0-3.9,0l-247,11.5c0,0-146.5,6.2-170.2,9.1
		c-3.2,0.4-6.3,0.6-9.5,0.9c-24.4,1.9-105.4,8.7-140.7,16.2c0,0-1.2,2-2.4,5.7c27.9-3.5,110.9-14,147.6-17.4c0,0,134.2-7.9,163-7.7
		c0,0,219.9-9.5,258.4-13.4c5.4-0.6,10.9,0.9,14.9,4.7c3.6,3.4,6.4,8.8,5.2,17.3C3050.9,2379.5,3044.8,2364.8,3032.5,2363.4z"/>
</g>
<path fill="#1C1D1E" d="M2456,2433.6c0,0,58.9-8.2,102.4-7.6c5.4,0.1,19.1,0,24.5-0.1c31.3-0.6,126.1-4.2,164.1-11.8
	c4-0.8,8-1.4,12.1-1.9c40.6-4.9,235.4-27.9,286.2-22.3l-2.2,4.1c0,0-129.2-1.3-291.4,25.4c0,0-134.3,12.4-180.3,11.2
	c0,0-48-1-113.9,8.3L2456,2433.6z"/>
<path fill="#E9A64E" d="M2473.6,2398.1c0,0-8.1,25.2,2.2,44.9c0,0-17.1,12.6-27.3-0.7l-265.8,10.9l-1.8-29.3l263.5-19.8
	C2444.5,2404,2456.4,2387.8,2473.6,2398.1z"/>
<g>
	<g>
		<g>
			<path fill="#F2AF5F" d="M2440.6,2430.1l-53.9,2.8l-66.2,3.4l-101.1,5.8l-37.9,3.2l1.1,7.9l265.8-10.9
				c10.2,13.3,27.3,0.7,27.3,0.7c-2.8-5.3-4.2-11.1-4.8-16.7L2440.6,2430.1z"/>
		</g>
	</g>
</g>
<path fill="#C87E29" d="M2470.9,2425.2c0,0,0.4,3.1,0.9,6.4c0,0-11.1,3.6-20.9,3c-1.8-0.1-3.6-0.2-5.3-0.2l-264,13.1l-0.2-4
	l259.3-13.5c3.6-0.2,7.3-0.7,10.8-1.7C2455.2,2427.4,2461.7,2426,2470.9,2425.2z"/>
<g>
	<g>
		<g>
			<path fill="#C87E29" d="M2473,2400.3c0.4-1.4,0.6-2.2,0.6-2.2c-17.2-10.3-29.2,5.9-29.2,5.9l-263.5,19.8l0.8,5.2l247.4-17.7
				c6.7-0.4,16.5-1.8,21.5-6.5C2455,2400.7,2462.3,2396.9,2473,2400.3z"/>
		</g>
	</g>
</g>
<g>
	<g>
		<g>
			<path fill="#B2AFAB" d="M2450.9,2443.2c-1.9-1.6-4.2-2.5-6.6-2.4l-261.8,10.4l0.3,1.9l265.8-10.9c10.2,13.3,27.3,0.7,27.3,0.7
				c-0.1-0.2-0.2-0.4-0.3-0.6C2462.9,2450.4,2454.7,2446.4,2450.9,2443.2z"/>
		</g>
	</g>
</g>
<path fill="#FFD6A6" d="M2444.5,2404c0,0-4,8.5-0.1,16.9C2444.3,2420.9,2443.2,2412.1,2444.5,2404z"/>
<path fill="#FFD6A6" d="M2448.4,2441.4c0,0-5.2-7.8-2.7-16.6C2445.7,2424.8,2445.9,2433.6,2448.4,2441.4z"/>
<path fill="#FFD6A6" d="M2454.8,2416.9c0,0,4.7-5.9,12.5-1.7C2467.3,2415.2,2461.3,2404.6,2454.8,2416.9z"/>
<path fill="#4B2813" d="M2182.8,2424.2c0,0,5.7,12.7,2.5,29c0,0-72.4,12.4-140.2-1.8c-0.8-0.2-0.9-1.5-0.1-1.8
	C2059.7,2444.3,2126,2421.9,2182.8,2424.2z"/>
<g>
	<path fill="#18110D" d="M2077.8,2439.2c-15.7,4.4-27.6,8.5-32.9,10.4c-0.8,0.3-0.7,1.6,0.1,1.8c12.9,2.7,26,4.5,38.7,5.5
		C2088.2,2447.5,2083.3,2442.1,2077.8,2439.2z"/>
</g>
<path opacity="0.47" fill="#DAD8D6" d="M2445.3,2445.5l-435.6,27.1c-3.7,0.2-6.8-2.7-7-6.5l-1.9-32.6c-0.2-3.8,2.6-7.1,6.2-7.3
	l435.6-27.1c3.7-0.2,6.8,2.7,7,6.5l1.9,32.6C2451.7,2442,2448.9,2445.3,2445.3,2445.5z"/>
</svg>
