<?xml version="1.0" encoding="utf-8"?>
<!-- Generator: Adobe Illustrator 16.0.0, SVG Export Plug-In . SVG Version: 6.00 Build 0)  -->
<!DOCTYPE svg PUBLIC "-//W3C//DTD SVG 1.1//EN" "http://www.w3.org/Graphics/SVG/1.1/DTD/svg11.dtd">
<svg version="1.1" xmlns="http://www.w3.org/2000/svg" xmlns:xlink="http://www.w3.org/1999/xlink" x="0px" y="0px" width="660px"
	 height="450px" viewBox="0 0 660 450" enable-background="new 0 0 660 450" xml:space="preserve">
<g id="Camera_Standing">
</g>
<g id="Camera_Lying">
</g>
<g id="Colours_1_">
</g>
<g id="Aquarell_1_">
</g>
<g id="Envelope_big_1_">
</g>
<g id="Envelope_small_1_">
</g>
<g id="Airmail_1_">
	<path id="background_11_" fill="#FFFFFF" d="M21.791,432.204c-4.419,0-8-3.582-8-8V26.203c0-4.418,3.581-8,8-8l614,0.001
		c4.419,0,8,3.581,8,8v398c0,4.418-3.581,8-8,8H21.791z"/>
	<g id="print">
		<defs>
			<path id="SVGID_3_" d="M635.791,18.204l-614-0.001c-4.419,0-8,3.582-8,8v398.001c0,4.418,3.581,8,8,8h614c4.419,0,8-3.582,8-8
				v-398C643.791,21.785,640.21,18.204,635.791,18.204z M627.791,409.204c0,4.418-3.581,8-8,8h-583c-4.419,0-8-3.582-8-8V41.203
				c0-4.418,3.581-8,8-8l583,0.001c4.419,0,8,3.581,8,8V409.204z"/>
		</defs>
		<clipPath id="SVGID_2_">
			<use xlink:href="#SVGID_3_"  overflow="visible"/>
		</clipPath>
		<g clip-path="url(#SVGID_2_)">
			<polygon fill="#BB4D67" points="338.194,216.236 -41.605,477.893 -41.605,520.39 338.194,256.496 			"/>
			<polygon fill="#BB4D67" points="338.194,216.236 338.194,256.496 722.165,-10.296 722.165,-48.293 			"/>
			<polygon fill="#456AC9" points="338.194,296.236 -41.605,557.893 -41.605,600.39 338.194,336.496 			"/>
			<polygon fill="#456AC9" points="338.194,296.236 338.194,336.496 722.165,69.704 722.165,31.707 			"/>
			<polygon fill="#BB4D67" points="338.194,66.236 -41.605,327.893 -41.605,370.39 338.194,106.496 			"/>
			<polygon fill="#BB4D67" points="338.194,66.236 338.194,106.496 722.165,-160.296 722.165,-198.293 			"/>
			<polygon fill="#456AC9" points="338.194,146.236 -41.605,407.893 -41.605,450.39 338.194,186.496 			"/>
			<polygon fill="#456AC9" points="338.194,146.236 338.194,186.496 722.165,-80.296 722.165,-118.293 			"/>
			<polygon fill="#BB4D67" points="338.194,-83.764 -41.605,177.893 -41.605,220.39 338.194,-43.504 			"/>
			<polygon fill="#456AC9" points="338.194,-3.764 -41.605,257.893 -41.605,300.39 338.194,36.496 			"/>
			<polygon fill="#456AC9" points="338.194,-3.764 338.194,36.496 722.165,-230.296 722.165,-268.293 			"/>
			<polygon fill="#BB4D67" points="338.194,-233.764 -41.605,27.893 -41.605,70.39 338.194,-193.504 			"/>
			<polygon fill="#456AC9" points="338.194,-153.764 -41.605,107.893 -41.605,150.39 338.194,-113.504 			"/>
			<polygon fill="#BB4D67" points="338.194,376.236 -41.605,637.893 -41.605,680.39 338.194,416.496 			"/>
			<polygon fill="#BB4D67" points="338.194,376.236 338.194,416.496 722.165,149.704 722.165,111.707 			"/>
			<polygon fill="#456AC9" points="338.194,456.236 338.194,496.496 722.165,229.704 722.165,191.707 			"/>
			<polygon fill="#BB4D67" points="338.194,537.732 338.194,577.992 722.165,311.2 722.165,273.203 			"/>
			<polygon fill="#456AC9" points="338.194,617.732 338.194,657.992 722.165,391.2 722.165,353.203 			"/>
		</g>
	</g>
	<g id="mask_1_">
		<defs>
			<path id="mask" d="M21.791,432.204c-4.419,0-8-3.582-8-8V26.203c0-4.418,3.581-8,8-8l614,0.001c4.419,0,8,3.581,8,8v398
				c0,4.418-3.581,8-8,8H21.791z"/>
		</defs>
		<clipPath id="mask_2_">
			<use xlink:href="#mask"  overflow="visible"/>
		</clipPath>
		<path id="border_31_" clip-path="url(#mask_2_)" fill="none" stroke="#E2E2E2" stroke-width="4" stroke-miterlimit="10" d="
			M671.136,18.203c-60.492,53.318-332.834,292.013-342.345,292.013c-9.512,0-291.647-250.986-351.712-304.273"/>
		
			<line id="border_30_" clip-path="url(#mask_2_)" fill="none" stroke="#E2E2E2" stroke-width="4" stroke-miterlimit="10" x1="13.791" y1="427" x2="234.174" y2="234.847"/>
		
			<line id="border_29_" clip-path="url(#mask_2_)" fill="none" stroke="#E2E2E2" stroke-width="4" stroke-miterlimit="10" x1="643.791" y1="427" x2="421.692" y2="234.847"/>
		<path id="Stamp" clip-path="url(#mask_2_)" fill-rule="evenodd" clip-rule="evenodd" fill="#BB4D67" d="M501.341,102.142
			l4.674-5.107l-4.931-4.871l3.12-6.178l-6.062-3.364l1.333-6.79l-6.744-1.607l-0.553-6.9l-6.927,0.27l-2.396-6.497l-6.596,2.126
			l-4.062-5.614l-5.775,3.824l-5.428-4.312l-4.526,5.238l-6.391-2.692l-2.94,6.265l-6.88-0.87l-1.138,6.827l-6.857,1.012
			l0.749,6.883l-6.328,2.823l2.58,6.427l-5.328,4.424l4.221,5.495l-3.934,5.696l5.549,4.156l-2.248,6.544l6.465,2.509l-0.396,6.91
			l6.902,0.674l1.486,6.763l6.826-1.209l3.26,6.112l6.242-3.002l4.79,5.009l5.199-4.574l5.965,3.535l3.769-5.806l6.697,1.798
			l2.06-6.607l6.933-0.071l0.197-6.918l6.655-1.938l-1.682-6.717l5.883-3.656L501.341,102.142z M495.476,103.482
			c-3.102,16.889-19.31,28.067-36.199,24.964c-16.888-3.102-28.065-19.311-24.963-36.199c3.103-16.89,19.312-28.066,36.198-24.964
			C487.402,70.386,498.579,86.593,495.476,103.482z M468.859,76.278c-11.921-2.189-23.362,5.697-25.552,17.62
			c-2.191,11.924,5.699,23.364,17.621,25.554c11.922,2.191,23.362-5.698,25.553-17.622C488.671,89.907,480.782,78.47,468.859,76.278
			z"/>
		<path id="Icon" clip-path="url(#mask_2_)" fill="#FFFFFF" d="M474.652,91.82c1.2-1.196,1.796-2.994,0.599-4.19
			c-1.196-1.2-2.994-0.602-4.19,0.6c-1.654,1.652-2.928,2.926-4.02,4.018l-10.349-2.824l-3.591,2.397l9.58,4.788l0,0
			c-1.52,1.52-3.28,3.761-4.518,5.352l-4.462-1.162l-1.798,1.795l4.345,2.414c0.004,0.443,0.149,0.885,0.443,1.182
			c0.296,0.294,0.738,0.439,1.182,0.443l2.412,4.344l1.795-1.795l-1.181-4.448c1.59-1.239,3.845-3.007,5.372-4.534l4.788,9.579
			l2.396-3.589l-2.823-10.35C471.726,94.748,472.999,93.474,474.652,91.82z"/>
		<g id="Airmail" clip-path="url(#mask_2_)">
			<g>
				<path fill="#456AC9" d="M521.042,86.279c-0.013-0.332-0.018-0.498-0.03-0.83c0.326,0.082,0.489,0.119,0.815,0.197
					c0.485,0.116,0.582-0.056,0.564-0.536c-0.093-2.494-0.138-3.744-0.23-6.238c-1.142,2.805-1.715,4.196-2.858,6.948
					c-0.393-0.108-0.59-0.163-0.982-0.276c-1.39-3.461-2.083-5.203-3.475-8.722c0.091,2.442,0.139,3.663,0.229,6.106
					c0.018,0.48,0.242,0.866,0.715,1.02c0.289,0.094,0.436,0.141,0.725,0.231c0.013,0.332,0.017,0.499,0.029,0.831
					c-1.541-0.482-2.312-0.745-3.855-1.315c-0.013-0.332-0.017-0.5-0.029-0.832c0.29,0.106,0.433,0.161,0.723,0.265
					c0.476,0.17,0.678-0.068,0.66-0.549c-0.086-2.312-0.131-3.469-0.217-5.78c-0.018-0.467-0.229-0.842-0.716-1.017
					c-0.29-0.104-0.433-0.156-0.723-0.264c-0.013-0.333-0.021-0.497-0.033-0.83c1.549,0.572,2.323,0.834,3.869,1.318
					c1.173,2.957,1.757,4.426,2.929,7.344c0.943-2.334,1.416-3.51,2.358-5.881c1.518,0.365,2.278,0.525,3.793,0.815
					c0.013,0.333,0.019,0.498,0.031,0.831c-0.312-0.06-0.467-0.09-0.778-0.152c-0.482-0.098-0.574,0.08-0.557,0.547
					c0.09,2.4,0.134,3.603,0.224,6.003c0.018,0.48,0.12,0.698,0.603,0.796c0.312,0.062,0.471,0.094,0.782,0.153
					c0.013,0.332,0.016,0.499,0.028,0.831C523.8,86.943,522.882,86.741,521.042,86.279z"/>
				<path fill="#456AC9" d="M532.035,88.261c-0.013-0.332-0.017-0.498-0.029-0.83c0.353,0.04,0.527,0.061,0.88,0.097
					c0.565,0.058,0.629-0.134,0.436-0.596c-0.207-0.509-0.31-0.766-0.517-1.276c-1.519-0.156-2.278-0.252-3.8-0.477
					c-0.167,0.44-0.25,0.663-0.417,1.103c-0.203,0.528-0.104,0.684,0.498,0.772c0.325,0.048,0.486,0.07,0.811,0.115
					c0.013,0.332,0.018,0.498,0.03,0.83c-1.488-0.205-2.232-0.326-3.723-0.6c-0.013-0.332-0.017-0.499-0.029-0.831
					c0.104,0.019,0.157,0.029,0.261,0.048c0.647,0.117,0.819,0.043,1.065-0.592c1.068-2.76,1.602-4.152,2.669-6.955
					c0.726,0.096,1.088,0.139,1.812,0.219c1.285,3.068,1.927,4.592,3.211,7.62c0.294,0.688,0.489,0.866,1.042,0.903
					c0.141,0.01,0.211,0.015,0.352,0.023c0.013,0.332,0.017,0.496,0.029,0.828C534.784,88.55,533.87,88.469,532.035,88.261z
					 M530.729,80.572c-0.575,1.53-0.863,2.293-1.438,3.812c1.262,0.182,1.892,0.261,3.151,0.396
					C531.756,83.103,531.415,82.261,530.729,80.572z"/>
				<path fill="#456AC9" d="M537.122,88.694c-0.013-0.332-0.017-0.499-0.029-0.831c0.343,0.02,0.516,0.028,0.858,0.045
					c0.481,0.022,0.536-0.14,0.519-0.608c-0.09-2.4-0.135-3.602-0.225-6.002c-0.018-0.479-0.132-0.715-0.602-0.737
					c-0.329-0.016-0.493-0.023-0.822-0.042c-0.013-0.333-0.021-0.498-0.033-0.831c1.864,0.105,2.795,0.134,4.656,0.149
					c0.013,0.333,0.019,0.499,0.031,0.832c-0.332-0.003-0.498-0.002-0.83-0.008c-0.47-0.008-0.534,0.186-0.517,0.652
					c0.089,2.4,0.134,3.599,0.224,5.999c0.018,0.48,0.13,0.683,0.6,0.69c0.318,0.006,0.479,0.009,0.797,0.012
					c0.013,0.332,0.017,0.498,0.029,0.83C539.918,88.829,538.986,88.8,537.122,88.694z"/>
				<path fill="#456AC9" d="M542.601,88.849c-0.013-0.332-0.018-0.498-0.03-0.83c0.328,0,0.492-0.004,0.82-0.006
					c0.469-0.004,0.566-0.201,0.549-0.682c-0.089-2.4-0.134-3.6-0.224-6c-0.018-0.467-0.127-0.662-0.596-0.658
					c-0.328,0.002-0.492,0.002-0.82,0.002c-0.013-0.333-0.021-0.501-0.034-0.834c1.987,0.002,2.98-0.021,4.964-0.111
					c0.013,0.333,0.019,0.497,0.031,0.83c-0.449,0.021-0.671,0.029-1.12,0.045c-0.48,0.018-0.57,0.219-0.553,0.686
					c0.089,2.4,0.134,3.602,0.224,6.002c0.02,0.527,0.096,0.678,0.67,0.657c0.631-0.022,0.946-0.038,1.577-0.069
					c1.356-0.068,1.896-0.686,1.885-2.256c-0.003-0.332-0.007-0.496-0.01-0.828c0.364-0.024,0.547-0.039,0.911-0.066
					c0.057,1.521,0.085,2.28,0.142,3.801C547.637,88.779,545.96,88.851,542.601,88.849z"/>
				<path fill="#456AC9" d="M558.869,86.563c-1.398,0.186-2.57-0.814-2.622-2.207c-0.053-1.404,1.037-2.668,2.436-2.854
					s2.57,0.778,2.623,2.183C561.357,85.077,560.268,86.378,558.869,86.563z"/>
				<path fill="#456AC9" d="M572.354,85.384c-0.013-0.332-0.017-0.498-0.029-0.83c0.35-0.072,0.523-0.109,0.872-0.182
					c0.557-0.116,0.62-0.329,0.429-0.737c-0.204-0.452-0.308-0.68-0.512-1.132c-1.502,0.314-2.252,0.466-3.755,0.756
					c-0.163,0.502-0.244,0.755-0.407,1.257c-0.2,0.604-0.102,0.728,0.49,0.613c0.321-0.062,0.483-0.093,0.805-0.156
					c0.013,0.332,0.014,0.496,0.026,0.828c-1.47,0.289-2.202,0.431-3.673,0.693c-0.013-0.332-0.017-0.499-0.029-0.831
					c0.103-0.019,0.151-0.026,0.254-0.045c0.641-0.115,0.81-0.254,1.052-0.982c1.053-3.173,1.581-4.765,2.634-7.953
					c0.716-0.143,1.073-0.213,1.789-0.361c1.271,2.698,1.904,4.041,3.175,6.727c0.292,0.609,0.488,0.734,1.033,0.614
					c0.14-0.03,0.209-0.048,0.349-0.079c0.013,0.332,0.017,0.499,0.029,0.831C575.074,84.816,574.167,85.011,572.354,85.384z
					 M571.062,78.022c-0.567,1.736-0.852,2.604-1.42,4.335c1.246-0.242,1.868-0.368,3.114-0.627
					C572.079,80.249,571.741,79.508,571.062,78.022z"/>
				<path fill="#456AC9" d="M577.386,84.302c-0.013-0.332-0.017-0.498-0.029-0.83c0.339-0.076,0.509-0.115,0.848-0.191
					c0.477-0.107,0.528-0.282,0.511-0.751c-0.089-2.399-0.132-3.601-0.222-6c-0.018-0.478-0.132-0.687-0.597-0.582
					c-0.325,0.073-0.487,0.108-0.812,0.182c-0.013-0.333-0.02-0.5-0.032-0.833c1.845-0.412,2.769-0.625,4.612-1.06
					c0.013,0.333,0.019,0.498,0.031,0.831c-0.33,0.078-0.494,0.116-0.824,0.193c-0.463,0.108-0.529,0.324-0.512,0.79
					c0.089,2.399,0.134,3.599,0.224,5.999c0.018,0.48,0.131,0.657,0.594,0.549c0.316-0.074,0.476-0.111,0.792-0.187
					c0.013,0.332,0.015,0.499,0.027,0.831C580.152,83.678,579.23,83.89,577.386,84.302z"/>
				<path fill="#456AC9" d="M590.917,81.29c-0.916,0.227-1.792,0.048-1.926-1.119c-0.035-0.31-0.127-0.795-0.185-1.133
					c-0.156-0.924-0.668-1.312-1.655-1.07c-0.506,0.123-0.756,0.186-1.262,0.309c0.036,0.978,0.053,1.466,0.089,2.443
					c0.018,0.48,0.2,0.685,0.677,0.568c0.302-0.073,0.452-0.111,0.754-0.186c0.013,0.332,0.017,0.499,0.029,0.831
					c-1.852,0.452-2.776,0.677-4.629,1.116c-0.013-0.332-0.02-0.498-0.032-0.83c0.298-0.07,0.446-0.106,0.744-0.178
					c0.477-0.113,0.629-0.433,0.611-0.901c-0.086-2.302-0.13-3.453-0.216-5.755c-0.021-0.549-0.189-0.801-0.666-0.687
					c-0.298,0.071-0.444,0.104-0.742,0.175c-0.013-0.333-0.021-0.497-0.034-0.83c2.09-0.496,3.136-0.75,5.225-1.262
					c2.066-0.506,3.434,0.063,3.49,1.596c0.052,1.403-2.3,2.831-2.3,2.831c0.004,0.016,1.748,0.681,1.823,1.761
					c0.011,0.172,0.018,0.257,0.028,0.429c0.052,0.755,0.247,0.944,0.584,0.861c0.382-0.095,0.533-0.407,0.508-1.086
					c-0.006-0.168-0.008-0.252-0.014-0.42c0.302-0.075,0.452-0.11,0.754-0.185c0.006,0.163,0.01,0.244,0.016,0.407
					C592.634,80.194,592.065,81.007,590.917,81.29z M587.121,73.737c-0.297,0.072-0.443,0.109-0.74,0.182
					c-0.488,0.119-0.64,0.402-0.621,0.916c0.038,1.029,0.058,1.545,0.096,2.574c0.524-0.127,0.789-0.19,1.313-0.318
					c1.197-0.293,2.036-0.938,1.99-2.166C589.115,73.753,588.236,73.464,587.121,73.737z"/>
				<path fill="#456AC9" d="M601.506,78.478c-0.013-0.332-0.018-0.496-0.03-0.828c0.32-0.076,0.479-0.117,0.8-0.193
					c0.477-0.113,0.573-0.336,0.556-0.816c-0.093-2.494-0.14-3.742-0.232-6.236c-1.12,3.391-1.682,5.089-2.802,8.486
					c-0.385,0.094-0.578,0.14-0.963,0.233c-1.363-2.788-2.042-4.179-3.405-6.964c0.091,2.442,0.136,3.664,0.227,6.106
					c0.018,0.48,0.238,0.743,0.701,0.63c0.283-0.07,0.427-0.102,0.71-0.172c0.013,0.332,0.015,0.494,0.027,0.826
					c-1.509,0.371-2.263,0.559-3.771,0.932c-0.013-0.332-0.017-0.496-0.029-0.828c0.283-0.07,0.425-0.105,0.708-0.176
					c0.465-0.115,0.662-0.481,0.645-0.962c-0.086-2.312-0.127-3.47-0.213-5.78c-0.018-0.467-0.227-0.721-0.703-0.604
					c-0.283,0.07-0.424,0.105-0.707,0.176c-0.013-0.333-0.021-0.499-0.034-0.832c1.514-0.375,2.271-0.562,3.785-0.934
					c1.151,2.361,1.725,3.543,2.876,5.908c0.924-2.869,1.386-4.302,2.31-7.166c1.491-0.355,2.236-0.531,3.728-0.875
					c0.013,0.333,0.02,0.498,0.032,0.831c-0.307,0.071-0.459,0.105-0.766,0.177c-0.475,0.11-0.562,0.33-0.545,0.797
					c0.089,2.4,0.135,3.601,0.224,6.001c0.018,0.48,0.118,0.657,0.593,0.547c0.307-0.071,0.46-0.104,0.767-0.175
					c0.013,0.332,0.017,0.495,0.029,0.827C604.214,77.83,603.312,78.044,601.506,78.478z"/>
				<path fill="#456AC9" d="M612.33,76.021c-0.013-0.332-0.019-0.499-0.031-0.831c0.349-0.073,0.523-0.107,0.872-0.18
					c0.559-0.115,0.621-0.329,0.43-0.738c-0.204-0.453-0.309-0.68-0.513-1.133c-1.501,0.311-2.25,0.473-3.75,0.803
					c-0.164,0.508-0.246,0.762-0.41,1.27c-0.2,0.611-0.1,0.73,0.493,0.6c0.32-0.07,0.479-0.104,0.799-0.174
					c0.013,0.332,0.017,0.494,0.029,0.826c-1.468,0.319-2.2,0.484-3.667,0.82c-0.013-0.332-0.019-0.496-0.031-0.828
					c0.103-0.023,0.153-0.035,0.256-0.059c0.638-0.146,0.81-0.289,1.052-1.028c1.052-3.219,1.574-4.827,2.626-8.034
					c0.716-0.154,1.075-0.229,1.791-0.379c1.271,2.695,1.906,4.045,3.178,6.754c0.29,0.615,0.485,0.743,1.032,0.638
					c0.14-0.026,0.209-0.042,0.349-0.068c0.013,0.332,0.017,0.499,0.029,0.831C615.05,75.456,614.143,75.641,612.33,76.021z
					 M611.034,68.667c-0.566,1.744-0.85,2.617-1.416,4.365c1.244-0.273,1.87-0.406,3.115-0.665
					C612.056,70.886,611.712,70.145,611.034,68.667z"/>
				<path fill="#456AC9" d="M617.363,75.015c-0.013-0.332-0.017-0.498-0.029-0.83c0.34-0.064,0.509-0.096,0.849-0.158
					c0.478-0.088,0.531-0.26,0.514-0.729c-0.089-2.4-0.135-3.598-0.224-5.998c-0.018-0.479-0.13-0.696-0.596-0.61
					c-0.326,0.06-0.488,0.092-0.814,0.153c-0.013-0.333-0.021-0.5-0.033-0.833c1.847-0.348,2.771-0.512,4.62-0.814
					c0.013,0.333,0.02,0.497,0.032,0.83c-0.33,0.054-0.495,0.083-0.825,0.139c-0.466,0.079-0.532,0.29-0.515,0.756
					c0.089,2.399,0.135,3.601,0.224,6.001c0.018,0.48,0.132,0.66,0.598,0.582c0.316-0.053,0.475-0.081,0.791-0.133
					c0.013,0.332,0.017,0.497,0.029,0.829C620.135,74.502,619.21,74.667,617.363,75.015z"/>
				<path fill="#456AC9" d="M622.799,74.068c-0.013-0.332-0.017-0.499-0.029-0.831c0.326-0.052,0.49-0.074,0.816-0.125
					c0.467-0.072,0.562-0.288,0.545-0.769c-0.089-2.4-0.135-3.599-0.224-5.999c-0.018-0.467-0.129-0.65-0.596-0.578
					c-0.326,0.051-0.487,0.075-0.813,0.127c-0.013-0.333-0.021-0.497-0.033-0.83c1.976-0.314,2.963-0.459,4.94-0.712
					c0.013,0.333,0.021,0.498,0.034,0.831c-0.447,0.057-0.673,0.088-1.12,0.148c-0.479,0.064-0.566,0.277-0.549,0.744
					c0.089,2.4,0.136,3.601,0.225,6.001c0.02,0.526,0.096,0.666,0.668,0.589c0.629-0.085,0.941-0.124,1.571-0.202
					c1.353-0.168,1.893-0.798,1.879-2.371c-0.003-0.333-0.006-0.499-0.009-0.832c0.364-0.04,0.548-0.06,0.912-0.097
					c0.057,1.52,0.083,2.279,0.14,3.8C627.81,73.309,626.139,73.537,622.799,74.068z"/>
				<path fill="#456AC9" d="M639.051,71.263c-1.403,0.053-2.578-1.013-2.63-2.404c-0.053-1.403,1.04-2.609,2.443-2.663
					s2.578,1.068,2.631,2.472C641.547,70.06,640.454,71.21,639.051,71.263z"/>
				<path fill="#456AC9" d="M652.636,72.778c-0.013-0.332-0.018-0.498-0.03-0.83c0.354,0.035,0.528,0.053,0.882,0.092
					c0.563,0.062,0.629-0.127,0.436-0.592c-0.206-0.513-0.312-0.77-0.519-1.281c-1.521-0.167-2.279-0.234-3.797-0.336
					c-0.165,0.455-0.246,0.683-0.411,1.139c-0.202,0.549-0.103,0.693,0.495,0.734c0.324,0.021,0.487,0.033,0.812,0.059
					c0.013,0.332,0.016,0.498,0.028,0.83c-1.485-0.113-2.228-0.155-3.711-0.21c-0.013-0.332-0.017-0.497-0.029-0.829
					c0.104,0.004,0.156,0.005,0.26,0.009c0.646,0.025,0.815-0.067,1.061-0.733c1.063-2.897,1.598-4.338,2.662-7.197
					c0.724,0.061,1.084,0.092,1.809,0.166c1.285,3.06,1.928,4.599,3.215,7.699c0.296,0.705,0.49,0.895,1.045,0.978
					c0.141,0.021,0.213,0.032,0.354,0.054c0.013,0.332,0.017,0.5,0.029,0.832C655.388,73.077,654.47,72.962,652.636,72.778z
					 M651.332,65.114c-0.575,1.554-0.861,2.334-1.436,3.898c1.259,0.09,1.888,0.144,3.148,0.277
					C652.359,67.614,652.017,66.779,651.332,65.114z"/>
				<path fill="#456AC9" d="M657.732,73.44c-0.013-0.332-0.016-0.501-0.028-0.833c0.345,0.056,0.517,0.083,0.861,0.142
					c0.484,0.082,0.535-0.064,0.518-0.533c-0.09-2.4-0.131-3.604-0.221-6.003c-0.018-0.478-0.133-0.735-0.605-0.815
					c-0.33-0.057-0.496-0.082-0.826-0.135c-0.013-0.333-0.019-0.499-0.031-0.832c1.871,0.3,2.807,0.477,4.682,0.888
					c0.013,0.333,0.019,0.499,0.031,0.832c-0.335-0.073-0.502-0.11-0.837-0.181c-0.473-0.099-0.536,0.088-0.519,0.555
					c0.09,2.4,0.133,3.6,0.223,6c0.018,0.48,0.131,0.702,0.604,0.801c0.32,0.066,0.482,0.101,0.803,0.171
					c0.013,0.332,0.018,0.499,0.03,0.831C660.54,73.915,659.604,73.74,657.732,73.44z"/>
				<path fill="#456AC9" d="M518.772,99.564c-0.013-0.333-0.019-0.498-0.031-0.831c0.355,0.103,0.533,0.154,0.888,0.252
					c0.569,0.158,0.634-0.024,0.439-0.516c-0.208-0.543-0.312-0.814-0.521-1.358c-1.528-0.424-2.291-0.655-3.822-1.162
					c-0.168,0.406-0.253,0.61-0.421,1.015c-0.205,0.484-0.106,0.658,0.499,0.859c0.327,0.108,0.489,0.161,0.816,0.266
					c0.013,0.333,0.019,0.497,0.031,0.83c-1.498-0.479-2.246-0.736-3.747-1.297c-0.013-0.333-0.021-0.499-0.033-0.832
					c0.104,0.039,0.156,0.059,0.261,0.097c0.652,0.241,0.827,0.196,1.075-0.384c1.077-2.537,1.616-3.817,2.691-6.406
					c0.73,0.227,1.092,0.337,1.821,0.545c1.293,3.276,1.941,4.9,3.233,8.129c0.295,0.732,0.491,0.943,1.047,1.072
					c0.142,0.033,0.211,0.047,0.353,0.079c0.013,0.333,0.021,0.499,0.034,0.832C521.544,100.335,520.619,100.099,518.772,99.564z
					 M517.46,91.689c-0.579,1.415-0.867,2.12-1.446,3.521c1.271,0.415,1.903,0.607,3.172,0.965
					C518.496,94.389,518.15,93.491,517.46,91.689z"/>
				<path fill="#456AC9" d="M523.896,100.869c-0.013-0.333-0.021-0.5-0.033-0.833c0.345,0.076,0.519,0.113,0.863,0.186
					c0.484,0.102,0.536-0.053,0.519-0.52c-0.09-2.4-0.133-3.601-0.223-6.001c-0.018-0.48-0.133-0.733-0.605-0.832
					c-0.331-0.069-0.496-0.106-0.827-0.179c-0.013-0.332-0.02-0.496-0.032-0.828c1.875,0.413,2.811,0.588,4.682,0.89
					c0.013,0.332,0.021,0.495,0.034,0.827c-0.334-0.054-0.503-0.08-0.837-0.137c-0.473-0.081-0.537,0.104-0.52,0.572
					c0.09,2.4,0.136,3.6,0.226,6c0.018,0.479,0.132,0.701,0.604,0.781c0.32,0.055,0.478,0.082,0.798,0.134
					c0.013,0.333,0.021,0.499,0.033,0.832C526.707,101.46,525.772,101.282,523.896,100.869z"/>
				<path fill="#456AC9" d="M537.618,102.944c-0.927-0.053-1.813-0.51-1.948-1.707c-0.036-0.316-0.126-0.83-0.184-1.184
					c-0.157-0.961-0.678-1.506-1.679-1.604c-0.513-0.05-0.769-0.077-1.281-0.135c0.036,0.979,0.056,1.467,0.092,2.445
					c0.018,0.479,0.204,0.744,0.687,0.795c0.306,0.031,0.456,0.048,0.762,0.077c0.013,0.333,0.019,0.499,0.031,0.832
					c-1.876-0.18-2.815-0.294-4.695-0.577c-0.013-0.333-0.02-0.499-0.032-0.832c0.302,0.045,0.454,0.067,0.756,0.11
					c0.483,0.068,0.641-0.19,0.623-0.657c-0.086-2.303-0.128-3.451-0.214-5.754c-0.021-0.551-0.199-0.868-0.683-0.937
					c-0.302-0.043-0.453-0.063-0.755-0.108c-0.013-0.332-0.02-0.496-0.032-0.828c2.121,0.32,3.182,0.445,5.298,0.633
					c2.093,0.186,3.474,1.139,3.53,2.672c0.053,1.404-2.321,2.091-2.321,2.091c-0.001,0.018,1.766,1.216,1.842,2.306
					c0.011,0.174,0.016,0.26,0.026,0.434c0.052,0.761,0.25,1.01,0.591,1.027c0.386,0.02,0.54-0.242,0.515-0.92
					c-0.006-0.169-0.01-0.254-0.016-0.423c0.306,0.015,0.458,0.021,0.764,0.032c0.006,0.164,0.011,0.246,0.017,0.41
					C539.355,102.36,538.78,103.011,537.618,102.944z M533.782,94.263c-0.301-0.029-0.449-0.045-0.75-0.076
					c-0.494-0.052-0.655,0.176-0.636,0.691c0.038,1.029,0.06,1.545,0.098,2.574c0.531,0.06,0.797,0.088,1.328,0.139
					c1.212,0.117,2.064-0.256,2.019-1.484C535.798,94.937,534.912,94.371,533.782,94.263z"/>
				<path fill="#456AC9" d="M548.309,102.768c-0.013-0.333-0.021-0.499-0.033-0.832c0.322-0.015,0.481-0.022,0.804-0.04
					c0.479-0.025,0.581-0.234,0.563-0.713c-0.093-2.494-0.143-3.742-0.235-6.236c-1.128,3.172-1.688,4.75-2.816,7.888
					c-0.389,0.013-0.585,0.02-0.974,0.028c-1.374-3.064-2.061-4.606-3.437-7.709c0.091,2.443,0.134,3.666,0.225,6.109
					c0.018,0.48,0.242,0.797,0.711,0.797c0.285,0,0.428-0.002,0.713-0.004c0.013,0.333,0.019,0.499,0.031,0.832
					c-1.521,0.01-2.282,0-3.807-0.048c-0.013-0.333-0.019-0.497-0.031-0.83c0.286,0.009,0.431,0.012,0.717,0.019
					c0.468,0.012,0.665-0.3,0.647-0.78c-0.086-2.312-0.128-3.469-0.214-5.78c-0.018-0.469-0.229-0.775-0.708-0.787
					c-0.286-0.007-0.431-0.01-0.717-0.019c-0.013-0.332-0.02-0.498-0.032-0.83c1.529,0.048,2.294,0.057,3.82,0.047
					c1.161,2.612,1.744,3.913,2.904,6.499c0.931-2.652,1.394-3.982,2.324-6.658c1.502-0.082,2.251-0.136,3.751-0.264
					c0.013,0.332,0.02,0.497,0.032,0.829c-0.309,0.026-0.463,0.038-0.771,0.062c-0.478,0.038-0.565,0.242-0.548,0.711
					c0.089,2.4,0.136,3.604,0.225,6.005c0.018,0.479,0.119,0.67,0.597,0.632c0.309-0.024,0.463-0.035,0.771-0.062
					c0.013,0.333,0.019,0.497,0.031,0.83C551.036,102.618,550.128,102.682,548.309,102.768z"/>
				<path fill="#456AC9" d="M559.189,101.774c-0.013-0.333-0.019-0.499-0.031-0.832c0.351-0.046,0.524-0.071,0.874-0.119
					c0.559-0.076,0.623-0.285,0.432-0.703c-0.204-0.465-0.305-0.699-0.509-1.165c-1.506,0.206-2.261,0.302-3.769,0.47
					c-0.164,0.488-0.248,0.73-0.412,1.218c-0.201,0.584-0.102,0.718,0.492,0.652c0.322-0.036,0.483-0.054,0.806-0.091
					c0.013,0.333,0.019,0.497,0.031,0.83c-1.475,0.173-2.212,0.25-3.688,0.382c-0.013-0.333-0.019-0.499-0.031-0.832
					c0.103-0.009,0.154-0.015,0.257-0.024c0.643-0.059,0.812-0.182,1.056-0.886c1.057-3.073,1.586-4.618,2.642-7.716
					c0.719-0.087,1.076-0.135,1.794-0.23c1.275,2.783,1.915,4.17,3.189,6.932c0.293,0.625,0.485,0.762,1.031,0.675
					c0.14-0.022,0.211-0.033,0.351-0.056c0.013,0.333,0.019,0.497,0.031,0.83C561.918,101.399,561.008,101.535,559.189,101.774z
					 M557.896,94.334c-0.569,1.688-0.855,2.53-1.426,4.212c1.251-0.143,1.875-0.22,3.124-0.389
					C558.915,96.632,558.577,95.866,557.896,94.334z"/>
				<path fill="#456AC9" d="M564.235,101.029c-0.013-0.333-0.018-0.499-0.03-0.832c0.34-0.056,0.51-0.083,0.85-0.141
					c0.478-0.08,0.528-0.254,0.511-0.721c-0.09-2.4-0.133-3.603-0.222-6.003c-0.018-0.48-0.13-0.696-0.597-0.618
					c-0.326,0.055-0.488,0.081-0.814,0.135c-0.013-0.332-0.02-0.497-0.032-0.829c1.849-0.301,2.771-0.463,4.618-0.81
					c0.013,0.332,0.021,0.494,0.033,0.826c-0.331,0.062-0.495,0.094-0.826,0.154c-0.464,0.085-0.527,0.297-0.51,0.766
					c0.09,2.4,0.137,3.601,0.226,6.001c0.018,0.479,0.128,0.66,0.592,0.575c0.316-0.058,0.474-0.087,0.79-0.146
					c0.013,0.333,0.02,0.499,0.032,0.832C567.009,100.565,566.085,100.728,564.235,101.029z"/>
				<path fill="#456AC9" d="M569.67,100.061c-0.013-0.333-0.021-0.499-0.033-0.832c0.326-0.062,0.49-0.092,0.816-0.155
					c0.466-0.091,0.565-0.311,0.548-0.789c-0.09-2.4-0.137-3.602-0.226-6.002c-0.018-0.469-0.129-0.646-0.595-0.556
					c-0.326,0.063-0.489,0.093-0.815,0.155c-0.013-0.332-0.021-0.494-0.033-0.826c1.972-0.378,2.958-0.58,4.929-0.998
					c0.013,0.332,0.021,0.496,0.033,0.828c-0.446,0.095-0.669,0.143-1.115,0.235c-0.477,0.099-0.562,0.317-0.545,0.786
					c0.09,2.4,0.137,3.602,0.226,6.002c0.02,0.525,0.093,0.664,0.663,0.545c0.628-0.131,0.939-0.197,1.566-0.332
					c1.348-0.289,1.884-0.986,1.87-2.563c-0.003-0.335-0.001-0.502-0.004-0.837c0.362-0.08,0.542-0.122,0.905-0.203
					c0.057,1.521,0.086,2.285,0.143,3.807C574.672,99.071,573.005,99.422,569.67,100.061z"/>
				<path fill="#456AC9" d="M585.843,95.345c-1.393,0.337-2.562-0.533-2.613-1.925c-0.053-1.403,1.033-2.807,2.426-3.144
					s2.557,0.523,2.609,1.927C588.316,93.595,587.235,95.008,585.843,95.345z"/>
				<path fill="#456AC9" d="M599.292,93.185c-0.013-0.333-0.02-0.503-0.032-0.836c0.348-0.085,0.521-0.125,0.868-0.209
					c0.558-0.136,0.622-0.352,0.432-0.753c-0.204-0.446-0.306-0.669-0.51-1.114c-1.499,0.364-2.249,0.549-3.748,0.918
					c-0.164,0.512-0.249,0.771-0.413,1.283c-0.2,0.615-0.1,0.73,0.493,0.584c0.32-0.079,0.479-0.119,0.799-0.197
					c0.013,0.333,0.018,0.499,0.03,0.832c-1.466,0.361-2.197,0.543-3.663,0.905c-0.013-0.333-0.019-0.498-0.031-0.831
					c0.103-0.025,0.153-0.041,0.256-0.066c0.637-0.158,0.805-0.305,1.047-1.048c1.05-3.244,1.576-4.864,2.626-8.106
					c0.715-0.176,1.073-0.264,1.788-0.438c1.27,2.656,1.906,3.984,3.176,6.645c0.29,0.602,0.479,0.721,1.025,0.591
					c0.14-0.033,0.211-0.049,0.351-0.082c0.013,0.333,0.02,0.5,0.032,0.833C602.007,92.523,601.103,92.743,599.292,93.185z
					 M597.999,85.861c-0.566,1.763-0.85,2.644-1.416,4.407c1.243-0.307,1.865-0.457,3.108-0.76
					C599.014,88.05,598.677,87.319,597.999,85.861z"/>
				<path fill="#456AC9" d="M604.317,91.975c-0.013-0.333-0.02-0.498-0.032-0.831c0.339-0.08,0.507-0.121,0.847-0.201
					c0.477-0.111,0.529-0.285,0.512-0.752c-0.09-2.4-0.132-3.603-0.221-6.003c-0.018-0.48-0.131-0.69-0.596-0.581
					c-0.325,0.076-0.489,0.111-0.814,0.188c-0.013-0.332-0.02-0.494-0.032-0.826c1.844-0.435,2.766-0.649,4.61-1.062
					c0.013,0.332,0.019,0.496,0.031,0.828c-0.329,0.074-0.493,0.111-0.822,0.186c-0.465,0.105-0.53,0.32-0.513,0.789
					c0.089,2.4,0.136,3.604,0.225,6.005c0.018,0.479,0.128,0.651,0.593,0.546c0.315-0.071,0.474-0.107,0.789-0.179
					c0.013,0.333,0.02,0.5,0.032,0.833C607.081,91.327,606.161,91.54,604.317,91.975z"/>
				<path fill="#456AC9" d="M617.859,89.276c-0.92,0.174-1.795-0.047-1.93-1.219c-0.036-0.311-0.126-0.806-0.184-1.146
					c-0.156-0.93-0.67-1.341-1.657-1.139c-0.507,0.104-0.762,0.156-1.269,0.262c0.036,0.979,0.057,1.469,0.093,2.447
					c0.018,0.479,0.199,0.686,0.675,0.587c0.303-0.062,0.453-0.093,0.756-0.154c0.013,0.333,0.02,0.5,0.032,0.833
					c-1.854,0.379-2.782,0.578-4.636,0.988c-0.013-0.333-0.02-0.502-0.032-0.835c0.297-0.065,0.445-0.099,0.742-0.163
					c0.477-0.104,0.629-0.418,0.611-0.885c-0.086-2.303-0.128-3.453-0.214-5.756c-0.021-0.551-0.193-0.81-0.67-0.705
					c-0.297,0.064-0.445,0.1-0.742,0.165c-0.013-0.332-0.02-0.499-0.032-0.831c2.09-0.463,3.137-0.686,5.229-1.106
					c2.069-0.417,3.439,0.239,3.497,1.771c0.052,1.403-2.3,2.701-2.3,2.701c0.003,0.017,1.751,0.771,1.826,1.852
					c0.011,0.173,0.019,0.261,0.029,0.433c0.052,0.755,0.244,0.953,0.582,0.891c0.385-0.072,0.535-0.373,0.51-1.05
					c-0.006-0.169-0.01-0.251-0.017-0.42c0.302-0.056,0.456-0.083,0.758-0.138c0.006,0.164,0.009,0.248,0.015,0.412
					C619.577,88.288,619.01,89.06,617.859,89.276z M614.059,81.547c-0.298,0.062-0.446,0.092-0.744,0.153
					c-0.486,0.101-0.642,0.381-0.622,0.896c0.038,1.029,0.06,1.546,0.098,2.575c0.525-0.11,0.787-0.165,1.312-0.272
					c1.196-0.244,2.041-0.846,1.995-2.074C616.054,81.655,615.174,81.319,614.059,81.547z"/>
				<path fill="#456AC9" d="M628.482,87.371c-0.013-0.333-0.02-0.498-0.032-0.831c0.322-0.041,0.484-0.061,0.807-0.1
					c0.479-0.058,0.576-0.268,0.559-0.746c-0.093-2.494-0.14-3.744-0.232-6.238c-1.126,3.242-1.688,4.873-2.812,8.142
					c-0.388,0.054-0.58,0.082-0.968,0.138c-1.369-2.912-2.052-4.365-3.42-7.254c0.091,2.443,0.135,3.664,0.226,6.107
					c0.018,0.48,0.24,0.76,0.706,0.686c0.284-0.045,0.427-0.068,0.71-0.112c0.013,0.333,0.017,0.501,0.029,0.834
					c-1.514,0.234-2.27,0.358-3.782,0.625c-0.013-0.333-0.02-0.501-0.032-0.834c0.283-0.05,0.427-0.073,0.71-0.122
					c0.466-0.08,0.665-0.426,0.647-0.906c-0.086-2.312-0.13-3.47-0.216-5.781c-0.018-0.469-0.228-0.742-0.705-0.659
					c-0.283,0.049-0.424,0.074-0.707,0.124c-0.013-0.332-0.021-0.496-0.034-0.828c1.518-0.268,2.277-0.393,3.796-0.628
					c1.155,2.456,1.732,3.69,2.889,6.164c0.928-2.761,1.391-4.14,2.319-6.884c1.497-0.181,2.248-0.263,3.746-0.402
					c0.013,0.332,0.02,0.498,0.032,0.83c-0.308,0.029-0.463,0.044-0.771,0.074c-0.479,0.047-0.566,0.256-0.549,0.725
					c0.09,2.4,0.135,3.604,0.224,6.004c0.018,0.479,0.118,0.664,0.598,0.616c0.308-0.03,0.463-0.046,0.771-0.074
					c0.013,0.333,0.021,0.5,0.033,0.833C631.206,87.041,630.296,87.142,628.482,87.371z"/>
				<path fill="#456AC9" d="M639.369,86.446c-0.013-0.333-0.02-0.5-0.032-0.833c0.351-0.015,0.527-0.021,0.878-0.032
					c0.562-0.018,0.625-0.215,0.433-0.653c-0.206-0.485-0.307-0.729-0.513-1.214c-1.511,0.049-2.269,0.085-3.778,0.184
					c-0.165,0.479-0.248,0.721-0.413,1.2c-0.201,0.575-0.102,0.708,0.495,0.669c0.322-0.021,0.482-0.031,0.805-0.051
					c0.013,0.333,0.02,0.5,0.032,0.833c-1.477,0.087-2.213,0.141-3.688,0.271c-0.013-0.333-0.021-0.498-0.034-0.831
					c0.103-0.01,0.154-0.016,0.257-0.024c0.641-0.056,0.812-0.172,1.056-0.87c1.058-3.048,1.589-4.566,2.647-7.586
					c0.721-0.039,1.079-0.053,1.8-0.08c1.279,2.895,1.922,4.347,3.202,7.272c0.293,0.663,0.486,0.823,1.038,0.823
					c0.141,0,0.21,0,0.351,0c0.013,0.333,0.02,0.501,0.032,0.834C642.108,86.354,641.194,86.373,639.369,86.446z M638.067,78.923
					c-0.57,1.641-0.856,2.463-1.427,4.111c1.252-0.078,1.88-0.109,3.134-0.154C639.092,81.292,638.749,80.502,638.067,78.923z"/>
				<path fill="#456AC9" d="M644.44,86.359c-0.013-0.333-0.02-0.498-0.032-0.831c0.342,0.002,0.511,0.004,0.853,0.01
					c0.481,0.008,0.536-0.152,0.519-0.619c-0.089-2.4-0.135-3.604-0.224-6.004c-0.018-0.48-0.132-0.717-0.602-0.724
					c-0.328-0.005-0.49-0.005-0.818-0.008c-0.013-0.332-0.021-0.499-0.034-0.831c1.86,0.014,2.791,0.041,4.654,0.144
					c0.013,0.332,0.02,0.497,0.032,0.829c-0.333-0.019-0.499-0.027-0.832-0.043c-0.47-0.021-0.534,0.178-0.517,0.646
					c0.089,2.4,0.134,3.602,0.224,6.002c0.018,0.479,0.13,0.678,0.6,0.699c0.318,0.015,0.479,0.023,0.798,0.041
					c0.013,0.333,0.02,0.501,0.032,0.834C647.229,86.402,646.3,86.373,644.44,86.359z"/>
				<path fill="#456AC9" d="M649.915,86.553c-0.013-0.333-0.019-0.5-0.031-0.833c0.329,0.021,0.493,0.035,0.822,0.059
					c0.471,0.034,0.569-0.156,0.552-0.635c-0.089-2.4-0.134-3.602-0.224-6.002c-0.018-0.469-0.128-0.677-0.599-0.711
					c-0.329-0.023-0.496-0.035-0.825-0.056c-0.013-0.332-0.019-0.498-0.031-0.83c1.991,0.128,2.986,0.218,4.982,0.457
					c0.013,0.332,0.021,0.495,0.034,0.827c-0.452-0.055-0.679-0.076-1.13-0.125c-0.482-0.052-0.571,0.137-0.554,0.605
					c0.089,2.4,0.136,3.604,0.225,6.004c0.02,0.525,0.095,0.682,0.672,0.743c0.636,0.068,0.953,0.106,1.589,0.187
					c1.365,0.172,1.91-0.307,1.899-1.867c-0.004-0.332-0.003-0.494-0.007-0.826c0.368,0.055,0.552,0.081,0.92,0.141
					c0.057,1.521,0.085,2.281,0.142,3.802C654.972,86.946,653.283,86.768,649.915,86.553z"/>
				<path fill="#456AC9" d="M513.732,111.774c-0.013-0.332-0.016-0.5-0.028-0.832c0.348,0.129,0.52,0.189,0.866,0.313
					c0.487,0.174,0.544,0.028,0.526-0.438c-0.09-2.399-0.137-3.599-0.227-5.999c-0.018-0.48-0.133-0.751-0.608-0.921
					c-0.333-0.118-0.501-0.18-0.834-0.303c-0.013-0.332-0.016-0.494-0.028-0.826c1.886,0.696,2.826,1.009,4.707,1.575
					c0.013,0.332,0.02,0.498,0.032,0.83c-0.336-0.102-0.507-0.152-0.843-0.258c-0.475-0.148-0.537,0.027-0.52,0.495
					c0.09,2.399,0.133,3.6,0.223,5.999c0.018,0.479,0.134,0.713,0.608,0.861c0.322,0.101,0.483,0.146,0.805,0.244
					c0.013,0.332,0.018,0.502,0.03,0.834C516.562,112.784,515.618,112.471,513.732,111.774z"/>
				<path fill="#456AC9" d="M519.271,113.596c-0.013-0.333-0.017-0.499-0.029-0.832c0.332,0.097,0.499,0.144,0.831,0.235
					c0.474,0.132,0.57-0.039,0.553-0.517c-0.09-2.399-0.132-3.599-0.222-5.999c-0.018-0.469-0.133-0.695-0.606-0.827
					c-0.332-0.093-0.499-0.142-0.831-0.237c-0.013-0.332-0.018-0.497-0.03-0.829c2.008,0.582,3.012,0.839,5.015,1.283
					c0.013,0.332,0.02,0.496,0.032,0.828c-0.453-0.101-0.682-0.153-1.135-0.261c-0.485-0.115-0.572,0.061-0.555,0.529
					c0.09,2.4,0.137,3.6,0.226,5.999c0.02,0.524,0.097,0.696,0.677,0.833c0.639,0.15,0.955,0.223,1.593,0.36
					c1.369,0.294,1.916-0.179,1.905-1.737c-0.004-0.331-0.008-0.495-0.012-0.826c0.368,0.07,0.553,0.103,0.921,0.168
					c0.057,1.521,0.083,2.281,0.14,3.802C524.361,114.968,522.668,114.58,519.271,113.596z"/>
				<path fill="#456AC9" d="M535.694,115.47c-1.41-0.117-2.593-1.386-2.645-2.777c-0.053-1.403,1.047-2.405,2.457-2.288
					s2.592,1.311,2.644,2.714C538.202,114.51,537.104,115.587,535.694,115.47z"/>
				<path fill="#456AC9" d="M549.273,116.784c-0.013-0.333-0.018-0.501-0.03-0.834c0.351-0.018,0.526-0.026,0.877-0.047
					c0.562-0.033,0.625-0.236,0.433-0.668c-0.205-0.479-0.31-0.719-0.515-1.199c-1.51,0.088-2.265,0.12-3.776,0.158
					c-0.165,0.473-0.247,0.709-0.412,1.18c-0.202,0.564-0.102,0.703,0.494,0.688c0.323-0.008,0.485-0.011,0.809-0.021
					c0.013,0.333,0.017,0.498,0.029,0.831c-1.479,0.048-2.22,0.062-3.7,0.058c-0.013-0.333-0.017-0.499-0.029-0.832
					c0.104,0,0.155-0.003,0.259-0.003c0.646,0,0.814-0.104,1.059-0.784c1.061-2.969,1.591-4.464,2.65-7.465
					c0.721-0.027,1.081-0.041,1.802-0.08c1.278,2.876,1.917,4.305,3.194,7.151c0.292,0.646,0.484,0.792,1.034,0.745
					c0.141-0.012,0.21-0.018,0.351-0.029c0.013,0.333,0.017,0.501,0.029,0.834C552.009,116.628,551.097,116.69,549.273,116.784z
					 M547.976,109.263c-0.572,1.637-0.858,2.452-1.431,4.079c1.254-0.035,1.882-0.063,3.134-0.133
					C548.998,111.634,548.657,110.847,547.976,109.263z"/>
				<path fill="#456AC9" d="M554.333,116.417c-0.013-0.333-0.017-0.499-0.029-0.832c0.342-0.031,0.512-0.045,0.853-0.078
					c0.479-0.047,0.532-0.221,0.515-0.687c-0.09-2.399-0.137-3.599-0.227-5.999c-0.018-0.48-0.129-0.705-0.597-0.658
					c-0.327,0.032-0.494,0.049-0.821,0.079c-0.013-0.332-0.015-0.497-0.027-0.829c1.854-0.172,2.781-0.277,4.633-0.512
					c0.013,0.332,0.015,0.499,0.027,0.831c-0.331,0.042-0.493,0.062-0.824,0.103c-0.467,0.057-0.53,0.262-0.513,0.73
					c0.089,2.4,0.134,3.6,0.223,6c0.018,0.479,0.132,0.667,0.599,0.61c0.316-0.038,0.477-0.061,0.793-0.101
					c0.013,0.333,0.015,0.501,0.027,0.834C557.112,116.144,556.187,116.245,554.333,116.417z"/>
				<path fill="#456AC9" d="M567.919,114.736c-0.918,0.165-1.797-0.075-1.932-1.249c-0.035-0.312-0.126-0.809-0.184-1.15
					c-0.156-0.933-0.672-1.355-1.663-1.196c-0.508,0.081-0.762,0.122-1.27,0.2c0.036,0.979,0.061,1.468,0.097,2.446
					c0.018,0.479,0.199,0.694,0.678,0.62c0.303-0.047,0.451-0.069,0.754-0.118c0.013,0.333,0.019,0.498,0.031,0.831
					c-1.858,0.3-2.788,0.438-4.648,0.683c-0.013-0.333-0.017-0.5-0.029-0.833c0.299-0.039,0.448-0.06,0.747-0.101
					c0.479-0.065,0.629-0.367,0.611-0.834c-0.086-2.302-0.127-3.452-0.213-5.755c-0.021-0.551-0.195-0.819-0.674-0.754
					c-0.299,0.041-0.448,0.061-0.747,0.1c-0.013-0.332-0.018-0.496-0.03-0.828c2.099-0.277,3.146-0.436,5.242-0.78
					c2.073-0.341,3.446,0.307,3.503,1.839c0.053,1.404-2.303,2.67-2.303,2.67c0.003,0.017,1.752,0.797,1.827,1.878
					c0.011,0.173,0.02,0.261,0.03,0.433c0.052,0.756,0.243,0.956,0.581,0.895c0.383-0.07,0.536-0.371,0.511-1.049
					c-0.006-0.169-0.01-0.251-0.017-0.42c0.303-0.057,0.455-0.084,0.758-0.142c0.006,0.164,0.01,0.246,0.016,0.41
					C569.641,113.747,569.07,114.528,567.919,114.736z M564.114,106.924c-0.298,0.048-0.448,0.069-0.746,0.116
					c-0.49,0.076-0.64,0.349-0.62,0.864c0.038,1.029,0.054,1.543,0.092,2.572c0.526-0.081,0.788-0.122,1.314-0.207
					c1.201-0.192,2.046-0.776,2-2.004C566.11,107.097,565.233,106.743,564.114,106.924z"/>
				<path fill="#456AC9" d="M578.522,112.363c-0.013-0.333-0.017-0.5-0.029-0.833c0.32-0.072,0.48-0.108,0.801-0.181
					c0.477-0.108,0.574-0.329,0.557-0.808c-0.093-2.494-0.14-3.742-0.232-6.235c-1.12,3.379-1.682,5.065-2.802,8.433
					c-0.386,0.084-0.579,0.126-0.965,0.209c-1.365-2.824-2.046-4.238-3.411-7.078c0.091,2.442,0.136,3.664,0.227,6.106
					c0.018,0.479,0.243,0.749,0.707,0.654c0.284-0.059,0.422-0.089,0.706-0.147c0.013,0.333,0.017,0.5,0.029,0.833
					c-1.511,0.315-2.268,0.468-3.779,0.759c-0.013-0.333-0.016-0.499-0.028-0.832c0.284-0.055,0.426-0.083,0.71-0.139
					c0.466-0.091,0.665-0.447,0.647-0.928c-0.086-2.312-0.133-3.467-0.219-5.778c-0.018-0.469-0.227-0.729-0.704-0.636
					c-0.284,0.056-0.426,0.081-0.71,0.136c-0.013-0.332-0.016-0.499-0.028-0.831c1.517-0.291,2.273-0.445,3.789-0.761
					c1.152,2.399,1.728,3.596,2.88,5.985c0.924-2.843,1.388-4.264,2.312-7.114c1.491-0.337,2.236-0.511,3.728-0.862
					c0.013,0.332,0.017,0.499,0.029,0.831c-0.307,0.072-0.459,0.108-0.766,0.18c-0.475,0.11-0.56,0.329-0.542,0.798
					c0.089,2.4,0.131,3.602,0.221,6.002c0.018,0.479,0.122,0.654,0.597,0.543c0.307-0.072,0.459-0.107,0.766-0.18
					c0.013,0.333,0.017,0.5,0.029,0.833C581.233,111.747,580.329,111.959,578.522,112.363z"/>
				<path fill="#456AC9" d="M589.343,109.804c-0.013-0.333-0.015-0.5-0.027-0.833c0.348-0.085,0.521-0.13,0.868-0.216
					c0.558-0.137,0.62-0.351,0.43-0.751c-0.204-0.445-0.306-0.669-0.51-1.114c-1.499,0.369-2.249,0.553-3.748,0.916
					c-0.164,0.512-0.247,0.766-0.411,1.277c-0.2,0.613-0.099,0.732,0.494,0.589c0.32-0.077,0.48-0.118,0.801-0.196
					c0.013,0.333,0.015,0.502,0.027,0.835c-1.467,0.356-2.201,0.53-3.668,0.878c-0.013-0.333-0.015-0.5-0.027-0.833
					c0.103-0.024,0.152-0.032,0.255-0.057c0.638-0.151,0.807-0.299,1.049-1.04c1.05-3.234,1.577-4.854,2.627-8.094
					c0.715-0.174,1.072-0.26,1.787-0.436c1.27,2.653,1.903,3.978,3.173,6.629c0.29,0.6,0.483,0.715,1.029,0.58
					c0.14-0.035,0.21-0.051,0.35-0.086c0.013,0.333,0.015,0.501,0.027,0.834C592.058,109.134,591.153,109.359,589.343,109.804z
					 M588.051,102.481c-0.565,1.762-0.849,2.643-1.414,4.404c1.243-0.301,1.865-0.454,3.108-0.76
					C589.067,104.669,588.729,103.94,588.051,102.481z"/>
				<path fill="#456AC9" d="M594.368,108.563c-0.013-0.333-0.017-0.501-0.029-0.834c0.339-0.084,0.51-0.125,0.849-0.209
					c0.477-0.117,0.53-0.295,0.513-0.762c-0.09-2.4-0.137-3.601-0.227-6.001c-0.018-0.48-0.13-0.688-0.595-0.573
					c-0.325,0.08-0.489,0.123-0.814,0.203c-0.013-0.332-0.018-0.501-0.03-0.833c1.843-0.456,2.765-0.685,4.607-1.136
					c0.013,0.332,0.019,0.499,0.031,0.831c-0.329,0.081-0.496,0.121-0.825,0.202c-0.465,0.114-0.526,0.33-0.509,0.799
					c0.09,2.4,0.132,3.6,0.222,5.999c0.018,0.478,0.132,0.65,0.597,0.536c0.315-0.078,0.477-0.114,0.792-0.191
					c0.013,0.333,0.015,0.5,0.027,0.833C597.134,107.879,596.211,108.107,594.368,108.563z"/>
				<path fill="#456AC9" d="M599.788,107.228c-0.013-0.333-0.015-0.501-0.027-0.834c0.325-0.08,0.489-0.116,0.814-0.195
					c0.465-0.113,0.559-0.338,0.541-0.816c-0.09-2.4-0.133-3.598-0.223-5.998c-0.018-0.469-0.131-0.643-0.596-0.53
					c-0.325,0.079-0.489,0.116-0.814,0.196c-0.013-0.332-0.015-0.497-0.027-0.829c1.969-0.48,2.95-0.718,4.919-1.183
					c0.013,0.332,0.019,0.498,0.031,0.83c-0.445,0.105-0.667,0.16-1.112,0.266c-0.477,0.113-0.562,0.334-0.544,0.803
					c0.09,2.4,0.132,3.598,0.222,5.998c0.02,0.525,0.097,0.66,0.666,0.524c0.627-0.149,0.94-0.225,1.567-0.372
					c1.347-0.316,1.882-1.012,1.868-2.589c-0.003-0.335-0.003-0.502-0.006-0.837c0.362-0.084,0.543-0.127,0.905-0.209
					c0.057,1.521,0.083,2.281,0.14,3.803C604.781,106.013,603.116,106.415,599.788,107.228z"/>
				<path fill="#456AC9" d="M615.962,102.427c-1.395,0.278-2.565-0.617-2.617-2.009c-0.053-1.403,1.033-2.775,2.428-3.054
					s2.567,0.643,2.62,2.046C618.444,100.802,617.356,102.148,615.962,102.427z"/>
				<path fill="#456AC9" d="M629.449,101.354c-0.013-0.332-0.017-0.5-0.029-0.833c0.351-0.043,0.525-0.062,0.876-0.104
					c0.559-0.065,0.619-0.272,0.428-0.695c-0.204-0.47-0.305-0.704-0.509-1.173c-1.507,0.176-2.261,0.274-3.767,0.489
					c-0.164,0.493-0.244,0.741-0.408,1.234c-0.201,0.593-0.104,0.718,0.489,0.633c0.322-0.046,0.482-0.069,0.805-0.113
					c0.013,0.333,0.017,0.501,0.029,0.834c-1.474,0.202-2.208,0.312-3.681,0.548c-0.013-0.332-0.019-0.5-0.031-0.833
					c0.103-0.017,0.154-0.024,0.257-0.041c0.642-0.102,0.813-0.231,1.057-0.949c1.054-3.134,1.579-4.696,2.634-7.809
					c0.718-0.096,1.075-0.143,1.794-0.229c1.275,2.797,1.915,4.199,3.192,7.021c0.294,0.639,0.484,0.786,1.032,0.735
					c0.14-0.014,0.21-0.018,0.351-0.03c0.013,0.333,0.019,0.497,0.031,0.83C632.178,101.032,631.269,101.13,629.449,101.354z
					 M628.155,93.917c-0.569,1.691-0.856,2.537-1.426,4.234c1.249-0.176,1.876-0.257,3.126-0.406
					C629.175,96.21,628.836,95.446,628.155,93.917z"/>
				<path fill="#456AC9" d="M634.503,100.824c-0.013-0.333-0.017-0.499-0.029-0.831c0.341-0.029,0.512-0.045,0.853-0.071
					c0.479-0.038,0.532-0.204,0.515-0.671c-0.09-2.399-0.137-3.6-0.227-5.999c-0.018-0.479-0.132-0.706-0.6-0.669
					c-0.326,0.025-0.488,0.039-0.815,0.067c-0.013-0.332-0.019-0.5-0.031-0.832c1.854-0.159,2.78-0.221,4.637-0.308
					c0.013,0.332,0.019,0.498,0.031,0.83c-0.333,0.016-0.497,0.023-0.829,0.041c-0.467,0.025-0.529,0.227-0.512,0.695
					c0.09,2.4,0.133,3.603,0.223,6.002c0.018,0.479,0.133,0.668,0.6,0.644c0.318-0.017,0.477-0.022,0.795-0.038
					c0.013,0.332,0.016,0.498,0.028,0.831C637.284,100.603,636.357,100.665,634.503,100.824z"/>
				<path fill="#456AC9" d="M648.145,100.682c-0.926-0.036-1.81-0.443-1.945-1.636c-0.036-0.316-0.127-0.824-0.185-1.174
					c-0.156-0.953-0.676-1.477-1.671-1.479c-0.511-0.002-0.767-0.001-1.276,0.004c0.036,0.979,0.057,1.469,0.093,2.447
					c0.018,0.479,0.202,0.719,0.681,0.717c0.305-0.001,0.457,0,0.762,0.001c0.013,0.333,0.017,0.501,0.029,0.833
					c-1.87-0.008-2.803,0.012-4.67,0.086c-0.013-0.332-0.017-0.5-0.029-0.832c0.299-0.012,0.449-0.018,0.748-0.027
					c0.48-0.016,0.629-0.301,0.611-0.767c-0.086-2.302-0.125-3.453-0.211-5.755c-0.021-0.551-0.197-0.838-0.678-0.822
					c-0.299,0.01-0.446,0.014-0.745,0.025c-0.013-0.332-0.019-0.496-0.031-0.828c2.104-0.084,3.161-0.102,5.27-0.081
					c2.087,0.021,3.468,0.992,3.524,2.524c0.053,1.403-2.32,2.168-2.32,2.168c0,0.018,1.765,1.15,1.841,2.239
					c0.011,0.173,0.015,0.259,0.026,0.433c0.052,0.76,0.247,1,0.588,1.015c0.386,0.017,0.541-0.241,0.516-0.919
					c-0.006-0.169-0.008-0.253-0.014-0.422c0.306,0.016,0.46,0.021,0.766,0.039c0.006,0.164,0.007,0.246,0.013,0.41
					C649.882,100.098,649.306,100.728,648.145,100.682z M644.317,92.196c-0.301-0.001-0.453-0.001-0.754,0
					c-0.49,0.002-0.645,0.248-0.625,0.763c0.038,1.029,0.058,1.544,0.096,2.573c0.529-0.005,0.795-0.006,1.324-0.004
					c1.206,0.004,2.056-0.405,2.01-1.633C646.325,92.727,645.441,92.2,644.317,92.196z"/>
				<path fill="#456AC9" d="M658.873,101.531c-0.013-0.333-0.018-0.499-0.03-0.831c0.325,0.053,0.487,0.079,0.812,0.135
					c0.484,0.083,0.582-0.098,0.564-0.575c-0.093-2.493-0.14-3.739-0.232-6.233c-1.14,2.873-1.708,4.323-2.846,7.244
					c-0.391-0.055-0.587-0.082-0.978-0.133c-1.382-3.255-2.07-4.869-3.45-8.078c0.091,2.442,0.135,3.662,0.226,6.104
					c0.018,0.479,0.243,0.813,0.712,0.86c0.287,0.029,0.43,0.042,0.717,0.073c0.013,0.333,0.019,0.501,0.031,0.833
					c-1.529-0.166-2.293-0.233-3.82-0.333c-0.013-0.333-0.017-0.499-0.029-0.832c0.287,0.019,0.43,0.03,0.717,0.052
					c0.471,0.035,0.672-0.262,0.654-0.742c-0.086-2.311-0.131-3.469-0.217-5.779c-0.018-0.469-0.231-0.786-0.714-0.821
					c-0.287-0.021-0.429-0.032-0.716-0.051c-0.013-0.332-0.019-0.497-0.031-0.829c1.531,0.1,2.298,0.164,3.832,0.33
					c1.165,2.734,1.749,4.111,2.916,6.879c0.938-2.475,1.409-3.703,2.349-6.146c1.515,0.259,2.27,0.406,3.786,0.739
					c0.013,0.332,0.017,0.498,0.029,0.83c-0.312-0.068-0.467-0.102-0.779-0.167c-0.482-0.101-0.566,0.079-0.549,0.548
					c0.09,2.4,0.132,3.601,0.222,6c0.018,0.479,0.118,0.693,0.601,0.795c0.312,0.065,0.471,0.099,0.782,0.167
					c0.013,0.333,0.016,0.499,0.028,0.832C661.622,101.999,660.707,101.827,658.873,101.531z"/>
			</g>
		</g>
	</g>
	<path id="Border_26_" fill="none" stroke="#333333" stroke-width="4" stroke-miterlimit="10" d="M21.791,432.204
		c-4.419,0-8-3.582-8-8V26.203c0-4.418,3.581-8,8-8l614,0.001c4.419,0,8,3.581,8,8v398c0,4.418-3.581,8-8,8H21.791z"/>
</g>
<g id="Highlighters_Closed_1_">
</g>
<g id="Highlighters_Open_1_">
</g>
<g id="USB_Stick_1_">
</g>
<g id="Pencil_Small">
</g>
<g id="Pencil_Large">
</g>
<g id="Brush_3_">
</g>
<g id="Notepad_1_">
</g>
<g id="Moleskine_Large_Open">
</g>
<g id="Moleskine_Small_Open_1_">
</g>
<g id="Moleskine_Large">
</g>
<g id="Moleskine_Small_1_">
</g>
<g id="iPad_Mini">
</g>
<g id="MacBook_13_x22_">
</g>
<g id="iMac_1_">
</g>
<g id="Wallet_2_">
</g>
<g id="iPhone_6_Grey">
</g>
<g id="iPhone_6_Silver_1_">
</g>
<g id="iPhone_6_Gold_1_">
</g>
<g id="Wallet_1_">
</g>
<g id="Bills">
</g>
<g id="Coins_1_">
</g>
<g id="Passport_Red_1_">
</g>
<g id="Passport_Blue_1_">
</g>
<g id="Credit_Card_Red">
</g>
<g id="Credit_Card_Blue">
</g>
<g id="Aeroplane_1_">
</g>
<g id="Magic_Mouse_1_">
</g>
<g id="Keyboard">
</g>
<g id="Ruler_1_">
</g>
<g id="Charger_1_">
</g>
<g id="Macbook_13_x22_">
</g>
<g id="Brushes">
</g>
<g id="Pencils">
</g>
<g id="Can">
</g>
<g id="Coffee">
</g>
<g id="Stylus">
</g>
<g id="Wacom_1_">
</g>
<g id="Paperclips_1_">
</g>
<g id="Earbuds_1_">
</g>
<g id="Glasses">
</g>
<g id="Sunglasses">
</g>
<g id="Case_1_">
</g>
<g id="Donut_1_">
</g>
</svg>
