<?xml version="1.0" encoding="utf-8"?>
<!-- Generator: Adobe Illustrator 16.0.0, SVG Export Plug-In . SVG Version: 6.00 Build 0)  -->
<!DOCTYPE svg PUBLIC "-//W3C//DTD SVG 1.1//EN" "http://www.w3.org/Graphics/SVG/1.1/DTD/svg11.dtd">
<svg version="1.1" xmlns="http://www.w3.org/2000/svg" xmlns:xlink="http://www.w3.org/1999/xlink" x="0px" y="0px" width="570px"
	 height="540px" viewBox="0 0 570 540" enable-background="new 0 0 570 540" xml:space="preserve">
<g id="Camera_Standing">
</g>
<g id="Camera_Lying">
</g>
<g id="Colours_1_">
</g>
<g id="Aquarell_1_">
	<path id="Background_32_" fill="#535454" stroke="#333333" stroke-width="4" stroke-miterlimit="10" d="M551.918,477.38
		c0,15.656-12.691,28.348-28.347,28.348H48.296c-15.655,0-28.347-12.691-28.347-28.348V295.61c0-15.656,12.691-28.348,28.347-28.348
		h475.275c15.655,0,28.347,12.691,28.347,28.348V477.38z"/>
	<path id="Lid" fill="#FFFFFF" stroke="#333333" stroke-width="4" stroke-miterlimit="10" d="M551.918,228.915
		c0,15.656-12.691,28.348-28.347,28.348H48.296c-15.655,0-28.347-12.691-28.347-28.348V47.146c0-15.656,12.691-28.348,28.347-28.348
		h475.275c15.655,0,28.347,12.691,28.347,28.348V228.915z"/>
	<path id="Shadow_8_" fill="#E2E2E2" d="M58.296,117.263h108.275c15.655,0,28.347-12.691,28.347-28.348v-31.77
		c0-15.656-12.691-28.348-28.347-28.348H58.296c-15.655,0-28.347,12.691-28.347,28.348v31.77
		C29.95,104.571,42.641,117.263,58.296,117.263z M511.572,126.798H58.296c-15.655,0-28.347,12.691-28.347,28.348v61.77
		c0,15.656,12.691,28.348,28.347,28.348h453.275c15.655,0,28.347-12.691,28.347-28.348v-61.77
		C539.918,139.489,527.227,126.798,511.572,126.798z M231.296,117.263h108.275c15.655,0,28.347-12.691,28.347-28.348v-31.77
		c0-15.656-12.691-28.348-28.347-28.348H231.296c-15.655,0-28.347,12.691-28.347,28.348v31.77
		C202.95,104.571,215.641,117.263,231.296,117.263z M512.572,28.798H404.296c-15.655,0-28.347,12.691-28.347,28.348v31.77
		c0,15.656,12.691,28.348,28.347,28.348h108.275c15.655,0,28.347-12.691,28.347-28.348v-31.77
		C540.918,41.489,528.227,28.798,512.572,28.798z"/>
	<g id="Brush">
		<path id="Wood" fill="#FCC865" stroke="#333333" stroke-width="4" stroke-miterlimit="10" d="M146.278,380.152
			c0,0,33.992-2.367,63.333-2.367c28.659,0,283.334-2.813,283.334,8.611c0,10.596-254.472,9.008-283.502,9.056
			c-29.019,0.047-50.713-2.321-63.127-2.812C135.947,392.23,136.27,380.547,146.278,380.152z"/>
		<path id="Tip" fill="#F77F5B" stroke="#333333" stroke-width="4" stroke-miterlimit="10" d="M86.063,383.874
			c2.248,4.974-1.991,10.95-14.622,9.226c-12.629-1.725-17.446-6.706-21.694-6.316c-4.247,0.394,8.813-6,19.083-6.484
			C79.095,379.812,84.732,380.929,86.063,383.874z"/>
		<path id="Metal_1_" fill="#D6D6D6" stroke="#333333" stroke-width="4" stroke-miterlimit="10" d="M146.278,380.152
			c7.326,0,7.542,12.488,0.038,12.488c-5.059,0-60.705-3-60.705-3v-6.488C85.611,383.152,141.32,380.152,146.278,380.152z"/>
	</g>
	<path id="Color_Borders" fill="#111111" stroke="#FFFFFF" stroke-width="12" stroke-miterlimit="10" d="M88.498,280.264H47.632
		c-7.828,0-14.173,6.346-14.173,14.173v50.865c0,7.827,6.346,14.173,14.173,14.173h40.866c7.828,0,14.173-6.346,14.173-14.173
		v-50.865C102.671,286.609,96.326,280.264,88.498,280.264z M168.498,280.264h-40.866c-7.828,0-14.173,6.346-14.173,14.173v50.865
		c0,7.827,6.346,14.173,14.173,14.173h40.866c7.828,0,14.173-6.346,14.173-14.173v-50.865
		C182.671,286.609,176.326,280.264,168.498,280.264z M248.498,280.264h-40.866c-7.828,0-14.173,6.346-14.173,14.173v50.865
		c0,7.827,6.346,14.173,14.173,14.173h40.866c7.828,0,14.173-6.346,14.173-14.173v-50.865
		C262.671,286.609,256.326,280.264,248.498,280.264z M328.498,280.264h-40.866c-7.828,0-14.173,6.346-14.173,14.173v50.865
		c0,7.827,6.346,14.173,14.173,14.173h40.866c7.828,0,14.173-6.346,14.173-14.173v-50.865
		C342.671,286.609,336.326,280.264,328.498,280.264z M408.498,280.264h-40.866c-7.828,0-14.173,6.346-14.173,14.173v50.865
		c0,7.827,6.346,14.173,14.173,14.173h40.866c7.828,0,14.173-6.346,14.173-14.173v-50.865
		C422.671,286.609,416.326,280.264,408.498,280.264z M488.498,280.264h-40.866c-7.828,0-14.173,6.346-14.173,14.173v50.865
		c0,7.827,6.346,14.173,14.173,14.173h40.866c7.828,0,14.173-6.346,14.173-14.173v-50.865
		C502.671,286.609,496.326,280.264,488.498,280.264z M88.498,410.264H47.632c-7.828,0-14.173,6.346-14.173,14.173v50.865
		c0,7.827,6.346,14.173,14.173,14.173h40.866c7.828,0,14.173-6.346,14.173-14.173v-50.865
		C102.671,416.609,96.326,410.264,88.498,410.264z M168.498,410.264h-40.866c-7.828,0-14.173,6.346-14.173,14.173v50.865
		c0,7.827,6.346,14.173,14.173,14.173h40.866c7.828,0,14.173-6.346,14.173-14.173v-50.865
		C182.671,416.609,176.326,410.264,168.498,410.264z M248.498,410.264h-40.866c-7.828,0-14.173,6.346-14.173,14.173v50.865
		c0,7.827,6.346,14.173,14.173,14.173h40.866c7.828,0,14.173-6.346,14.173-14.173v-50.865
		C262.671,416.609,256.326,410.264,248.498,410.264z M328.498,410.264h-40.866c-7.828,0-14.173,6.346-14.173,14.173v50.865
		c0,7.827,6.346,14.173,14.173,14.173h40.866c7.828,0,14.173-6.346,14.173-14.173v-50.865
		C342.671,416.609,336.326,410.264,328.498,410.264z M408.498,410.264h-40.866c-7.828,0-14.173,6.346-14.173,14.173v50.865
		c0,7.827,6.346,14.173,14.173,14.173h40.866c7.828,0,14.173-6.346,14.173-14.173v-50.865
		C422.671,416.609,416.326,410.264,408.498,410.264z M488.498,410.264h-40.866c-7.828,0-14.173,6.346-14.173,14.173v50.865
		c0,7.827,6.346,14.173,14.173,14.173h40.866c7.828,0,14.173-6.346,14.173-14.173v-50.865
		C502.671,416.609,496.326,410.264,488.498,410.264z"/>
	<path id="_x31__2_" fill="#FCC865" stroke="#333333" stroke-width="4" stroke-miterlimit="10" d="M102.671,345.302
		c0,7.827-6.346,14.173-14.173,14.173H47.632c-7.828,0-14.173-6.346-14.173-14.173v-50.865c0-7.827,6.346-14.173,14.173-14.173
		h40.866c7.828,0,14.173,6.346,14.173,14.173V345.302z"/>
	<path id="_x32__2_" fill="#F77F5B" stroke="#333333" stroke-width="4" stroke-miterlimit="10" d="M182.671,345.302
		c0,7.827-6.346,14.173-14.173,14.173h-40.866c-7.828,0-14.173-6.346-14.173-14.173v-50.865c0-7.827,6.346-14.173,14.173-14.173
		h40.866c7.828,0,14.173,6.346,14.173,14.173V345.302z"/>
	<path id="_x33__2_" fill="#E23B3B" stroke="#333333" stroke-width="4" stroke-miterlimit="10" d="M262.671,345.302
		c0,7.827-6.346,14.173-14.173,14.173h-40.866c-7.828,0-14.173-6.346-14.173-14.173v-50.865c0-7.827,6.346-14.173,14.173-14.173
		h40.866c7.828,0,14.173,6.346,14.173,14.173V345.302z"/>
	<path id="_x34_" fill="#BB4D67" stroke="#333333" stroke-width="4" stroke-miterlimit="10" d="M342.671,345.302
		c0,7.827-6.346,14.173-14.173,14.173h-40.866c-7.828,0-14.173-6.346-14.173-14.173v-50.865c0-7.827,6.346-14.173,14.173-14.173
		h40.866c7.828,0,14.173,6.346,14.173,14.173V345.302z"/>
	<path id="_x35_" fill="#704B9B" stroke="#333333" stroke-width="4" stroke-miterlimit="10" d="M422.671,345.302
		c0,7.827-6.346,14.173-14.173,14.173h-40.866c-7.828,0-14.173-6.346-14.173-14.173v-50.865c0-7.827,6.346-14.173,14.173-14.173
		h40.866c7.828,0,14.173,6.346,14.173,14.173V345.302z"/>
	<path id="_x36_" fill="#456AC9" stroke="#333333" stroke-width="4" stroke-miterlimit="10" d="M502.671,345.302
		c0,7.827-6.346,14.173-14.173,14.173h-40.866c-7.828,0-14.173-6.346-14.173-14.173v-50.865c0-7.827,6.346-14.173,14.173-14.173
		h40.866c7.828,0,14.173,6.346,14.173,14.173V345.302z"/>
	<path id="_x37_" fill="#4F8699" stroke="#333333" stroke-width="4" stroke-miterlimit="10" d="M102.671,475.302
		c0,7.827-6.346,14.173-14.173,14.173H47.632c-7.828,0-14.173-6.346-14.173-14.173v-50.865c0-7.827,6.346-14.173,14.173-14.173
		h40.866c7.828,0,14.173,6.346,14.173,14.173V475.302z"/>
	<path id="_x38_" fill="#58B6B4" stroke="#333333" stroke-width="4" stroke-miterlimit="10" d="M182.671,475.302
		c0,7.827-6.346,14.173-14.173,14.173h-40.866c-7.828,0-14.173-6.346-14.173-14.173v-50.865c0-7.827,6.346-14.173,14.173-14.173
		h40.866c7.828,0,14.173,6.346,14.173,14.173V475.302z"/>
	<path id="_x39_" fill="#8DB559" stroke="#333333" stroke-width="4" stroke-miterlimit="10" d="M262.671,475.302
		c0,7.827-6.346,14.173-14.173,14.173h-40.866c-7.828,0-14.173-6.346-14.173-14.173v-50.865c0-7.827,6.346-14.173,14.173-14.173
		h40.866c7.828,0,14.173,6.346,14.173,14.173V475.302z"/>
	<path id="_x31_0" fill="#FEF7CE" stroke="#333333" stroke-width="4" stroke-miterlimit="10" d="M342.671,475.302
		c0,7.827-6.346,14.173-14.173,14.173h-40.866c-7.828,0-14.173-6.346-14.173-14.173v-50.865c0-7.827,6.346-14.173,14.173-14.173
		h40.866c7.828,0,14.173,6.346,14.173,14.173V475.302z"/>
	<path id="_x31_1" fill="#96754A" stroke="#333333" stroke-width="4" stroke-miterlimit="10" d="M422.671,475.302
		c0,7.827-6.346,14.173-14.173,14.173h-40.866c-7.828,0-14.173-6.346-14.173-14.173v-50.865c0-7.827,6.346-14.173,14.173-14.173
		h40.866c7.828,0,14.173,6.346,14.173,14.173V475.302z"/>
	<path id="_x31_2" fill="#111111" stroke="#333333" stroke-width="4" stroke-miterlimit="10" d="M502.671,475.302
		c0,7.827-6.346,14.173-14.173,14.173h-40.866c-7.828,0-14.173-6.346-14.173-14.173v-50.865c0-7.827,6.346-14.173,14.173-14.173
		h40.866c7.828,0,14.173,6.346,14.173,14.173V475.302z"/>
	<path id="Border_27_" fill="#333333" d="M94.167,251.677H71.974c-4.697,0-8.504,3.807-8.504,8.504v3.992
		c0,4.697,3.807,8.504,8.504,8.504h22.194c4.697,0,8.504-3.807,8.504-8.504v-3.992C102.671,255.483,98.864,251.677,94.167,251.677z
		 M504.167,251.677h-22.194c-4.697,0-8.504,3.807-8.504,8.504v3.992c0,4.697,3.807,8.504,8.504,8.504h22.194
		c4.697,0,8.504-3.807,8.504-8.504v-3.992C512.671,255.483,508.864,251.677,504.167,251.677z"/>
</g>
<g id="Envelope_big_1_">
</g>
<g id="Envelope_small_1_">
</g>
<g id="Airmail_1_">
</g>
<g id="Highlighters_Closed_1_">
</g>
<g id="Highlighters_Open_1_">
</g>
<g id="USB_Stick_1_">
</g>
<g id="Pencil_Small">
</g>
<g id="Pencil_Large">
</g>
<g id="Brush_3_">
</g>
<g id="Notepad_1_">
</g>
<g id="Moleskine_Large_Open">
</g>
<g id="Moleskine_Small_Open_1_">
</g>
<g id="Moleskine_Large">
</g>
<g id="Moleskine_Small_1_">
</g>
<g id="iPad_Mini">
</g>
<g id="MacBook_13_x22_">
</g>
<g id="iMac_1_">
</g>
<g id="Wallet_2_">
</g>
<g id="iPhone_6_Grey">
</g>
<g id="iPhone_6_Silver_1_">
</g>
<g id="iPhone_6_Gold_1_">
</g>
<g id="Wallet_1_">
</g>
<g id="Bills">
</g>
<g id="Coins_1_">
</g>
<g id="Passport_Red_1_">
</g>
<g id="Passport_Blue_1_">
</g>
<g id="Credit_Card_Red">
</g>
<g id="Credit_Card_Blue">
</g>
<g id="Aeroplane_1_">
</g>
<g id="Magic_Mouse_1_">
</g>
<g id="Keyboard">
</g>
<g id="Ruler_1_">
</g>
<g id="Charger_1_">
</g>
<g id="Macbook_13_x22_">
</g>
<g id="Brushes">
</g>
<g id="Pencils">
</g>
<g id="Can">
</g>
<g id="Coffee">
</g>
<g id="Stylus">
</g>
<g id="Wacom_1_">
</g>
<g id="Paperclips_1_">
</g>
<g id="Earbuds_1_">
</g>
<g id="Glasses">
</g>
<g id="Sunglasses">
</g>
<g id="Case_1_">
</g>
<g id="Donut_1_">
</g>
</svg>
