<?xml version="1.0" encoding="utf-8"?>
<!-- Generator: Adobe Illustrator 16.0.0, SVG Export Plug-In . SVG Version: 6.00 Build 0)  -->
<!DOCTYPE svg PUBLIC "-//W3C//DTD SVG 1.1//EN" "http://www.w3.org/Graphics/SVG/1.1/DTD/svg11.dtd">
<svg version="1.1" xmlns="http://www.w3.org/2000/svg" xmlns:xlink="http://www.w3.org/1999/xlink" x="0px" y="0px" width="40px"
	 height="490px" viewBox="0 0 40 490" enable-background="new 0 0 40 490" xml:space="preserve">
<g id="Camera_Standing">
</g>
<g id="Camera_Lying">
</g>
<g id="Colours_1_">
</g>
<g id="Aquarell_1_">
</g>
<g id="Envelope_big_1_">
</g>
<g id="Envelope_small_1_">
</g>
<g id="Airmail_1_">
</g>
<g id="Highlighters_Closed_1_">
</g>
<g id="Highlighters_Open_1_">
</g>
<g id="USB_Stick_1_">
</g>
<g id="Pencil_Small">
</g>
<g id="Pencil_Large">
</g>
<g id="Brush_3_">
	<path id="background_4_" fill="#FCC865" stroke="#333333" stroke-width="4" stroke-miterlimit="10" d="M14.209,376.01
		c0,0-2.367-33.993-2.367-63.334c0-28.659-2.813-283.334,8.611-283.334c10.596,0,9.008,254.472,9.056,283.502
		c0.047,29.019-2.321,50.713-2.812,63.127C26.288,386.34,14.604,386.017,14.209,376.01z"/>
	<path id="tip" fill="#F77F5B" stroke="#333333" stroke-width="4" stroke-miterlimit="10" d="M17.931,436.224
		c4.974-2.248,10.95,1.991,9.226,14.622c-1.725,12.629-6.707,17.446-6.316,21.694c0.392,4.247-6.001-8.813-6.485-19.083
		C13.87,443.191,14.984,437.555,17.931,436.224z"/>
	<path id="metal" fill="#D6D6D6" stroke="#333333" stroke-width="4" stroke-miterlimit="10" d="M14.209,376.01
		c0-7.327,12.488-7.543,12.488-0.039c0,5.059-3,60.705-3,60.705h-6.488C17.209,436.676,14.209,380.967,14.209,376.01z"/>
</g>
<g id="Notepad_1_">
</g>
<g id="Moleskine_Large_Open">
</g>
<g id="Moleskine_Small_Open_1_">
</g>
<g id="Moleskine_Large">
</g>
<g id="Moleskine_Small_1_">
</g>
<g id="iPad_Mini">
</g>
<g id="MacBook_13_x22_">
</g>
<g id="iMac_1_">
</g>
<g id="Wallet_2_">
</g>
<g id="iPhone_6_Grey">
</g>
<g id="iPhone_6_Silver_1_">
</g>
<g id="iPhone_6_Gold_1_">
</g>
<g id="Wallet_1_">
</g>
<g id="Bills">
</g>
<g id="Coins_1_">
</g>
<g id="Passport_Red_1_">
</g>
<g id="Passport_Blue_1_">
</g>
<g id="Credit_Card_Red">
</g>
<g id="Credit_Card_Blue">
</g>
<g id="Aeroplane_1_">
</g>
<g id="Magic_Mouse_1_">
</g>
<g id="Keyboard">
</g>
<g id="Ruler_1_">
</g>
<g id="Charger_1_">
</g>
<g id="Macbook_13_x22_">
</g>
<g id="Brushes">
</g>
<g id="Pencils">
</g>
<g id="Can">
</g>
<g id="Coffee">
</g>
<g id="Stylus">
</g>
<g id="Wacom_1_">
</g>
<g id="Paperclips_1_">
</g>
<g id="Earbuds_1_">
</g>
<g id="Glasses">
</g>
<g id="Sunglasses">
</g>
<g id="Case_1_">
</g>
<g id="Donut_1_">
</g>
</svg>
