<?xml version="1.0" encoding="utf-8"?>
<!-- Generator: Adobe Illustrator 16.0.0, SVG Export Plug-In . SVG Version: 6.00 Build 0)  -->
<!DOCTYPE svg PUBLIC "-//W3C//DTD SVG 1.1//EN" "http://www.w3.org/Graphics/SVG/1.1/DTD/svg11.dtd">
<svg version="1.1" xmlns="http://www.w3.org/2000/svg" xmlns:xlink="http://www.w3.org/1999/xlink" x="0px" y="0px" width="350px"
	 height="350px" viewBox="0 0 350 350" enable-background="new 0 0 350 350" xml:space="preserve">
<g id="Camera_Standing">
</g>
<g id="Camera_Lying">
</g>
<g id="Colours_1_">
</g>
<g id="Aquarell_1_">
</g>
<g id="Envelope_big_1_">
</g>
<g id="Envelope_small_1_">
</g>
<g id="Airmail_1_">
</g>
<g id="Highlighters_Closed_1_">
</g>
<g id="Highlighters_Open_1_">
</g>
<g id="USB_Stick_1_">
</g>
<g id="Pencil_Small">
</g>
<g id="Pencil_Large">
</g>
<g id="Brush_3_">
</g>
<g id="Notepad_1_">
</g>
<g id="Moleskine_Large_Open">
</g>
<g id="Moleskine_Small_Open_1_">
</g>
<g id="Moleskine_Large">
</g>
<g id="Moleskine_Small_1_">
</g>
<g id="iPad_Mini">
</g>
<g id="MacBook_13_x22_">
</g>
<g id="iMac_1_">
</g>
<g id="Wallet_2_">
</g>
<g id="iPhone_6_Grey">
</g>
<g id="iPhone_6_Silver_1_">
</g>
<g id="iPhone_6_Gold_1_">
</g>
<g id="Wallet_1_">
</g>
<g id="Bills">
</g>
<g id="Coins_1_">
</g>
<g id="Passport_Red_1_">
</g>
<g id="Passport_Blue_1_">
</g>
<g id="Credit_Card_Red">
</g>
<g id="Credit_Card_Blue">
</g>
<g id="Aeroplane_1_">
</g>
<g id="Magic_Mouse_1_">
</g>
<g id="Keyboard">
</g>
<g id="Ruler_1_">
</g>
<g id="Charger_1_">
</g>
<g id="Macbook_13_x22_">
</g>
<g id="Brushes">
	<g id="background_1_">
		<circle fill="#333333" cx="176.169" cy="191.198" r="85.04"/>
	</g>
	<g id="glass_1_">
		<path fill="#4F8699" d="M176.169,291.198c-55.141,0-100-44.859-100-100c0-55.14,44.859-100,100-100s100,44.86,100,100
			C276.169,246.339,231.31,291.198,176.169,291.198z M176.169,118.332c-40.178,0-72.865,32.688-72.865,72.866
			s32.688,72.866,72.865,72.866c40.179,0,72.866-32.688,72.866-72.866S216.348,118.332,176.169,118.332z"/>
		<path fill="#333333" d="M176.169,93.198c54.037,0,98,43.962,98,98c0,54.037-43.963,98-98,98s-98-43.963-98-98
			C78.169,137.161,122.132,93.198,176.169,93.198 M176.169,266.064c41.281,0,74.866-33.585,74.866-74.866
			s-33.585-74.866-74.866-74.866c-41.28,0-74.865,33.585-74.865,74.866S134.889,266.064,176.169,266.064 M176.169,89.198
			c-56.333,0-102,45.667-102,102s45.667,102,102,102c56.332,0,102-45.667,102-102S232.501,89.198,176.169,89.198L176.169,89.198z
			 M176.169,262.064c-39.138,0-70.865-31.729-70.865-70.866s31.728-70.866,70.865-70.866s70.866,31.729,70.866,70.866
			S215.307,262.064,176.169,262.064L176.169,262.064z"/>
	</g>
	<g id="brush_4_">
		<polygon fill="#FCC865" stroke="#333333" stroke-width="4" stroke-miterlimit="10" points="181.127,184.809 150.792,20.749 
			130.627,23.309 172.627,191.198 		"/>
		<path fill="#FEF7CE" stroke="#333333" stroke-width="4" stroke-miterlimit="10" d="M150.792,20.749
			c-1.165-6.94-5.415-8.44-12.165-6.94s-9.75,4.355-8.5,8.75s7,7.645,11.75,6.5S151.568,25.375,150.792,20.749z"/>
	</g>
	<g id="brush_3_">
		<path fill="#FCC865" stroke="#333333" stroke-width="4" stroke-miterlimit="10" d="M102.489,236.67
			c0,0,44.665-34.668,63.998-47.334s36.333-23.333,36.333-23.333l5,5c0,0-33.935,31.063-57.935,47.397s-31.731,22.898-42.396,29.271
			C101.478,251.263,95.323,243.836,102.489,236.67z"/>
		<path fill="#F77F5B" stroke="#333333" stroke-width="4" stroke-miterlimit="10" d="M65.824,272.005
			c3.937,2.248,4,8.333-5.333,13.333s-15.001,3.999-17.667,6.333s3-8.332,9.667-13.666S63.49,270.672,65.824,272.005z"/>
		<path fill="#D6D6D6" stroke="#333333" stroke-width="4" stroke-miterlimit="10" d="M100.155,239.004
			c5.667-4.667,11.668,4.334,7.334,8.667s-39.16,28.33-39.16,28.33l-3.84-5.331L100.155,239.004z"/>
	</g>
	<g id="brush_2_">
		<path fill="#535454" stroke="#333333" stroke-width="4" stroke-miterlimit="10" d="M125.434,146.094
			c0,0,21.389,28.712,31.438,39.563c10.049,10.853,17.283,10.853,19.996,9.043c2.713-1.809-12.545-35.685-24.971-68.195
			C139.471,93.993,125.434,146.094,125.434,146.094z"/>
		<path fill="#D6D6D6" stroke="#333333" stroke-width="4" stroke-miterlimit="10" d="M101.355,110.486
			c0,0,17.296,30.181,24.078,35.607c6.782,5.426,19.33,3.392,22.721,0c3.392-3.392,8.163-11.869,3.742-21.364
			c-4.42-9.496-23.75-60.024-23.75-60.024L101.355,110.486z"/>
		<path fill="none" stroke="#616263" stroke-width="2" stroke-miterlimit="10" d="M120.722,140.831c0,0,8.74,3.357,16.129,2.55
			c6.332-0.692,11.056-3.513,14.458-19.956"/>
		<path fill="none" stroke="#616263" stroke-width="2" stroke-miterlimit="10" d="M118.688,137.439c0,0,8.74,3.357,16.128,2.55
			c6.332-0.691,11.056-3.512,14.458-19.955"/>
		<path fill="none" stroke="#333333" stroke-width="4" stroke-miterlimit="10" d="M101.355,110.486c0,0,17.296,30.181,24.078,35.607
			c6.782,5.426,19.33,3.392,22.721,0c3.392-3.392,8.163-11.869,3.742-21.364c-4.42-9.496-23.75-60.024-23.75-60.024L101.355,110.486
			z"/>
		<path fill="#FCC865" d="M128.146,64.705c0,0-8.816-33.233-11.191-39.338c-2.373-6.104-38.135,45.199-35.006,53.29
			c3.129,8.09,16.016,29.115,19.406,31.829c3.392,2.713,12.521-3.392,18.087-15.261C125.01,83.356,129.377,69.304,128.146,64.705z"
			/>
		<path fill="#FEF7CE" d="M87.113,47.071c8.7-18.74,27.808-33.234,29.842-21.704c2.035,11.53-2.034,23.06-6.781,33.233
			c-4.748,10.174-18.312,24.417-25.096,22.382C78.296,78.948,78.296,66.062,87.113,47.071z"/>
		<path fill="none" stroke="#333333" stroke-width="4" stroke-miterlimit="10" d="M128.146,64.705c0,0-8.816-33.233-11.191-39.338
			c-2.034-11.53-21.142,2.964-29.842,21.704c-7.133,15.361-8.493,26.727-5.164,31.586c3.131,8.092,16.016,29.115,19.406,31.829
			c3.392,2.713,11.16-4.131,18.087-15.261C126.677,83.603,129.219,68.715,128.146,64.705z"/>
	</g>
	<g id="brush_1_">
		<path fill="#535454" stroke="#333333" stroke-width="4" stroke-miterlimit="10" d="M170.408,258.44
			c0-10.813,3.508-39.304,3.508-39.304c0.657-8.985,8.449-9.828,12.054,0.657c2.411,7.014,8.654,29.62,9.855,36.63
			S170.408,258.44,170.408,258.44z"/>
		<path fill="#D6D6D6" stroke="#333333" stroke-width="4" stroke-miterlimit="10" d="M175.814,290.438
			c0,0-7.014-26.152-5.406-31.997c1.606-5.845,3.36-10.082,11.542-10.812c8.182-0.729,13.296,6.284,14.465,10.374
			c1.169,4.091,0.731,23.085,0.876,27.468C197.438,289.854,175.814,290.438,175.814,290.438z"/>
		<path fill="#FCC865" stroke="#333333" stroke-width="4" stroke-miterlimit="10" d="M185.604,278.021
			c11.479-2.121,14.024,9.789,12.856,17.971s-5.553,20.747-8.767,21.478s-13.588-16.51-13.441-24.107
			S176.107,279.774,185.604,278.021z"/>
	</g>
	<g id="brush">
		<polygon fill="#FCC865" stroke="#333333" stroke-width="4" stroke-miterlimit="10" points="198.93,201.779 35.662,172.705 
			28.145,201.822 199.629,211.539 		"/>
		<path fill="#FEF7CE" stroke="#333333" stroke-width="4" stroke-miterlimit="10" d="M35.662,172.705
			c-10.329-2.018-14.868,3.225-16.494,13.57c-1.607,10.256,0.816,15.747,7.667,15.913c6.685,0.165,14.1-6.242,15.134-13.188
			C43.014,182.01,42.321,174.006,35.662,172.705z"/>
	</g>
	<g id="Brush_2_">
		<path fill="#BB4D67" stroke="#333333" stroke-width="4" stroke-miterlimit="10" d="M238.181,165.956
			c0,0-65.1,37.966-66.888,39.166c-4.998,3.354-12.783,10.01-8.476,14.58s9.821,2.02,16.525-1.06
			c6.705-3.078,66.795-33.113,66.795-33.113L238.181,165.956z"/>
		<path fill="#D6D6D6" stroke="#333333" stroke-width="4" stroke-miterlimit="10" d="M295.004,130.57l-10.314,5.987l-46.509,29.398
			c0,0-2.402,7.367,0.229,12.671c2.631,5.305,7.729,6.902,7.729,6.902l40.674-24.956l8.689-2.408L295.004,130.57z"/>
		<path fill="none" stroke="#616263" stroke-width="2" stroke-miterlimit="10" d="M251.737,182.094c0,0-7.393-1.301-8.205-7.915
			c-0.814-6.614-0.207-11.474-0.207-11.474"/>
		<path fill="none" stroke="#616263" stroke-width="2" stroke-miterlimit="10" d="M254.226,179.514c0,0-7.392-1.301-8.206-7.914
			c-0.813-6.614-0.206-11.475-0.206-11.475"/>
		<path fill="none" stroke="#333333" stroke-width="4" stroke-miterlimit="10" d="M295.004,130.57l-10.314,5.987l-46.509,29.398
			c0,0-2.402,7.367,0.229,12.671c2.631,5.305,7.729,6.902,7.729,6.902l40.674-24.956l8.689-2.408L295.004,130.57z"/>
		<path fill="#FCC865" stroke="#333333" stroke-width="4" stroke-miterlimit="10" d="M330.761,114.154
			c0,0-4.703,20.364-5.758,24.327c-1.056,3.961-27.782,21.343-29.502,19.684s-4.378-24.145-0.497-27.595
			C298.885,127.121,327.895,111.39,330.761,114.154z"/>
	</g>
	<g id="Brush_1_">
		<path fill="#535454" stroke="#333333" stroke-width="4" stroke-miterlimit="10" d="M203.733,158.742
			c0,0-20.266,18.516-25.34,22.161c-5.075,3.646-1.016,18.396,7.612,18.38c8.629-0.016,34.722,8.565,41.469,10.238
			C234.221,211.193,203.733,158.742,203.733,158.742z"/>
		<path fill="#FCC865" d="M216.28,143.506c-5.738,5.196-14.034,12.934-12.131,21.089c1.903,8.154,22.458,45.457,24.741,46.599
			c2.284,1.143,12.435,6.344,17.51,8.375c5.076,2.031,11.285,6.332,13.029,6.611c1.744,0.278-2.752-19.702-11.506-38.279
			C239.168,169.323,223.371,137.085,216.28,143.506z"/>
		<path fill="#FEF7CE" d="M229.652,135.32c-5.469-0.639-12.605,6.189-12.605,10.158c0,3.97,21.234,64.447,34.43,76.121
			c13.195,11.672,20.809-0.508,21.315-6.091S239.989,136.527,229.652,135.32z"/>
		<path fill="none" stroke="#333333" stroke-width="4" stroke-miterlimit="10" d="M229.652,135.32
			c-5.768-0.705-13.879,8.36-18.502,14.07c-5.738,5.195-8.904,7.049-7.001,15.204c1.903,8.154,22.458,45.457,24.741,46.599
			c2.284,1.143,12.435,6.344,17.51,8.375c2.178,0.871,4.562,2.159,6.715,3.369c2.108,1.609,4.062,2.604,5.854,3.111
			c0.098,0.035,0.184,0.059,0.267,0.08c0.048,0.013,0.097,0.025,0.146,0.037c0.014,0.004,0.034,0.012,0.049,0.014
			c0.002,0,0.004-0.002,0.006-0.002c8.27,1.996,12.963-6.328,13.356-10.669C273.299,209.926,239.982,136.583,229.652,135.32z"/>
	</g>
</g>
<g id="Pencils">
</g>
<g id="Can">
</g>
<g id="Coffee">
</g>
<g id="Stylus">
</g>
<g id="Wacom_1_">
</g>
<g id="Paperclips_1_">
</g>
<g id="Earbuds_1_">
</g>
<g id="Glasses">
</g>
<g id="Sunglasses">
</g>
<g id="Case_1_">
</g>
<g id="Donut_1_">
</g>
</svg>
