<?xml version="1.0" encoding="utf-8"?>
<!-- Generator: Adobe Illustrator 16.0.0, SVG Export Plug-In . SVG Version: 6.00 Build 0)  -->
<!DOCTYPE svg PUBLIC "-//W3C//DTD SVG 1.1//EN" "http://www.w3.org/Graphics/SVG/1.1/DTD/svg11.dtd">
<svg version="1.1" xmlns="http://www.w3.org/2000/svg" xmlns:xlink="http://www.w3.org/1999/xlink" x="0px" y="0px" width="460px"
	 height="400px" viewBox="0 0 460 400" enable-background="new 0 0 460 400" xml:space="preserve">
<g id="Camera_Standing">
</g>
<g id="Camera_Lying">
	<g id="Wheel">
		<path fill="#616263" stroke="#333333" stroke-width="4" stroke-miterlimit="10" d="M350.333,83.98
			c0.248-0.912,17.097-0.584,32.856,3.588c15.952,4.225,30.813,12.312,30.311,14.743c-1,4.833-2.667,7.999-1.667,9.833
			s-56.167-10.499-61.5-18.666S350.333,83.98,350.333,83.98z"/>
		
			<line fill="#616263" stroke="#333333" stroke-width="2" stroke-miterlimit="10" x1="409.755" y1="97.945" x2="406.501" y2="110.477"/>
		
			<line fill="#616263" stroke="#333333" stroke-width="2" stroke-miterlimit="10" x1="405.755" y1="95.945" x2="402.501" y2="108.477"/>
		
			<line fill="#616263" stroke="#333333" stroke-width="2" stroke-miterlimit="10" x1="401.755" y1="95.945" x2="398.501" y2="108.477"/>
		
			<line fill="#616263" stroke="#333333" stroke-width="2" stroke-miterlimit="10" x1="397.755" y1="93.945" x2="394.501" y2="106.477"/>
		
			<line fill="#616263" stroke="#333333" stroke-width="2" stroke-miterlimit="10" x1="393.755" y1="92.945" x2="390.501" y2="105.477"/>
		
			<line fill="#616263" stroke="#333333" stroke-width="2" stroke-miterlimit="10" x1="390.501" y1="89.785" x2="386.501" y2="104.477"/>
		
			<line fill="#616263" stroke="#333333" stroke-width="2" stroke-miterlimit="10" x1="386.501" y1="88.506" x2="382.501" y2="103.477"/>
		
			<line fill="#616263" stroke="#333333" stroke-width="2" stroke-miterlimit="10" x1="381.755" y1="88.945" x2="378.501" y2="101.477"/>
		
			<line fill="#616263" stroke="#333333" stroke-width="2" stroke-miterlimit="10" x1="377.755" y1="87.945" x2="374.501" y2="100.477"/>
		
			<line fill="#616263" stroke="#333333" stroke-width="2" stroke-miterlimit="10" x1="374.501" y1="84.785" x2="370.501" y2="99.477"/>
		
			<line fill="#616263" stroke="#333333" stroke-width="2" stroke-miterlimit="10" x1="370.501" y1="83.506" x2="366.501" y2="98.477"/>
		
			<line fill="#616263" stroke="#333333" stroke-width="2" stroke-miterlimit="10" x1="365.501" y1="85.785" x2="361.501" y2="100.477"/>
		
			<line fill="#616263" stroke="#333333" stroke-width="2" stroke-miterlimit="10" x1="361.501" y1="84.506" x2="357.501" y2="99.477"/>
	</g>
	<path id="Buttons_1_" fill="#535454" stroke="#333333" stroke-width="4" stroke-miterlimit="10" d="M102.75,98.743
		c-4.75,0.763-5,5.237-5,5.237l0.499,5.084l12.417-3.416c0,0-0.167-2.75-0.5-4.107S107.5,97.98,102.75,98.743z M131.75,94.743
		c-4.75,0.763-5,5.237-5,5.237l0.499,5.084l12.417-3.416c0,0-0.167-2.75-0.5-4.107S136.5,93.98,131.75,94.743z M160.75,91.743
		c-4.75,0.763-5,5.237-5,5.237l0.499,5.084l12.417-3.416c0,0-0.167-2.75-0.5-4.107S165.5,90.98,160.75,91.743z M193.166,90.541
		c-0.333-1.357-2.666-3.561-7.416-2.798s-5,5.237-5,5.237l0.499,5.084l12.417-3.416C193.666,94.648,193.499,91.898,193.166,90.541z"
		/>
	<path id="Background_35_" fill="#616263" stroke="#333333" stroke-width="4" stroke-miterlimit="10" d="M410,348.48
		c14.5-1,25.25-7.5,25.25-27.5c0-3,2-0.75,2.25-6.75s4-29.084,4-73s-1.666-85.418-4-89s-1-30.5-14.75-36.5s-41-8-62-23.75
		s-30.5-49-46-55s-61.75-5.5-75.5,0s-23.75,53.25-58.5,56s-36,3.75-83,10s-68.8,8.5-74.3,51.75c0,0-2.45,1.5-2.7,5.5
		s-2.25,39.75-2.25,81s2.501,86.418,2.668,88.418s2.083,3.916,2.083,3.916c0,14.584,2.751,18.417,20.084,20.917
		c8.331,1.201,36.592,1.973,65.501,1.973c14.999,0,10.929-7.261,25.318-7.416c25.854-0.278,59.974,1.443,96.596,1.443
		C340.5,350.481,410,348.48,410,348.48z"/>
	<path id="Shadow_10_" fill="#535454" d="M23.457,154.652c-0.004,0.049-0.006,0.078-0.006,0.078S23.454,154.691,23.457,154.652z
		 M108.349,101.556c-2.368,0.321-34.368,4.804-58.28,10.983c-23.347,6.033-26.477,40.488-26.612,42.113
		c0.118-1.381,2.147-21.846,19.524-30.922c19.27-10.064,38.02-10.75,49.77-14.25C104.014,106.125,110.717,101.234,108.349,101.556z
		 M357.568,87.5c0,0-8.049-5.203-12.446-10.854c-5.587-7.18-19.699-29.641-19.699-29.641s13.417,26.765,9.667,40.099
		s-7.875,16.542-7.875,16.542s12.499-0.238,22.083,10.881s16.778,35.953,16.778,35.953S360.922,98.354,357.568,87.5z
		 M209.926,76.646c-4.397,5.65-12.446,10.854-12.446,10.854c-3.354,10.854-8.508,62.98-8.508,62.98s7.194-24.834,16.778-35.953
		s22.083-10.881,22.083-10.881s-4.125-3.208-7.875-16.542s9.667-40.099,9.667-40.099S215.513,69.467,209.926,76.646z
		 M113.835,111.859C102,115.23,98.556,156.496,96.468,156.767v181.219c6.653-0.589,3.274,0.577,6.653-0.589
		s7.588-7.139,17.108-7.152V150.48C115.833,150.48,117.243,110.889,113.835,111.859z"/>
	<path id="Border_34_" fill="none" stroke="#333333" stroke-width="4" stroke-miterlimit="10" d="M21.75,154.73
		c0,0,19.639,4,39.42,4c18.292,0,36.707-1.5,39.83-3c5.859-2.814,7-5.25,16-5.25s73.75,0,73.75,0h171.5c0,0,23.25,1,42.5,1.75
		s32.75,0,32.75,0"/>
	<path id="Border_33_" fill="none" stroke="#333333" stroke-width="4" stroke-miterlimit="10" d="M22.626,331.234
		c0,0,8.249,5.916,35.749,6.666s41-1.25,47.5-4s2.75-6,15-6s14.25,0,22.5,0s13.5-1.75,17.75-5.75s14-7.75,25.75-7.75
		s207.25,5,219,4.25s30.75-0.75,30.75-0.75"/>
	<path id="Border_32_" fill="none" stroke="#333333" stroke-width="4" stroke-miterlimit="10" d="M410,348.48
		c14.5-1,25.25-7.5,25.25-27.5c0-3,2-0.75,2.25-6.75s4-29.084,4-73s-1.666-85.418-4-89s-1-30.5-14.75-36.5s-41-8-62-23.75
		s-30.5-49-46-55s-61.75-5.5-75.5,0s-23.75,53.25-58.5,56s-36,3.75-83,10s-68.8,8.5-74.3,51.75c0,0-2.45,1.5-2.7,5.5
		s-2.25,39.75-2.25,81s2.501,86.418,2.668,88.418s2.083,3.916,2.083,3.916c0,14.584,2.751,18.417,20.084,20.917
		c8.331,1.201,36.592,1.973,65.501,1.973c14.999,0,10.929-7.261,25.318-7.416c25.854-0.278,59.974,1.443,96.596,1.443
		C340.5,350.481,410,348.48,410,348.48z"/>
	<path id="Border_31_" fill="#535454" stroke="#333333" stroke-width="4" stroke-miterlimit="10" d="M180.75,179.313
		c0,0,5.583-20.333,14-48.333s48.69-31,53.554-31h55.871c4.863,0,45.137,3,53.554,31s14,48.333,14,48.333H180.75z"/>
	
		<circle id="Border_30_" fill="#535454" stroke="#333333" stroke-width="4" stroke-miterlimit="10" cx="364.75" cy="233.98" r="38.5"/>
	<g id="Lens">
		<path fill="#535454" stroke="#333333" stroke-width="4" stroke-miterlimit="10" d="M393.25,241.23
			c0,64.891-52.606,117.5-117.5,117.5s-117.5-52.609-117.5-117.5c0-64.893,52.606-117.5,117.5-117.5S393.25,176.338,393.25,241.23z"
			/>
		<path fill="#535454" stroke="#333333" stroke-width="4" stroke-miterlimit="10" d="M275.75,336.23c-52.465,0-95-42.537-95-95
			c0-52.465,42.535-95,95-95c52.466,0,95,42.535,95,95C370.75,293.693,328.216,336.23,275.75,336.23z"/>
		<path fill="#535454" stroke="#333333" stroke-width="2" stroke-miterlimit="10" d="M275.75,330.23c-49.15,0-89-39.851-89-89
			c0-49.15,39.85-89,89-89c49.151,0,89,39.85,89,89C364.75,290.38,324.901,330.23,275.75,330.23z"/>
		<path fill="#535454" stroke="#333333" stroke-width="2" stroke-miterlimit="10" d="M275.75,326.23c-46.941,0-85-38.06-85-85
			c0-46.941,38.059-85,85-85c46.942,0,85,38.059,85,85C360.75,288.171,322.692,326.23,275.75,326.23z"/>
		<path fill="#535454" stroke="#333333" stroke-width="2" stroke-miterlimit="10" d="M275.75,322.23c-44.732,0-81-36.268-81-81
			c0-44.729,36.268-81,81-81c44.734,0,81,36.271,81,81C356.75,285.963,320.484,322.23,275.75,322.23z"/>
		<path fill="#535454" stroke="#333333" stroke-width="2" stroke-miterlimit="10" d="M275.75,318.23c-42.523,0-77-34.479-77-77
			s34.477-77,77-77c42.525,0,77,34.479,77,77S318.275,318.23,275.75,318.23z"/>
		<path fill="#535454" stroke="#333333" stroke-width="2" stroke-miterlimit="10" d="M275.75,314.23c-40.316,0-73-32.688-73-73
			c0-40.311,32.684-73,73-73c40.317,0,73,32.689,73,73C348.75,281.543,316.067,314.23,275.75,314.23z"/>
		<path fill="#535454" stroke="#333333" stroke-miterlimit="10" d="M275.75,311.23c-38.659,0-70-31.346-70-70s31.341-70,70-70
			c38.66,0,70,31.346,70,70S314.41,311.23,275.75,311.23z"/>
		<path fill="#535454" stroke="#333333" stroke-miterlimit="10" d="M275.75,309.23c-37.554,0-68-30.451-68-68
			c0-37.551,30.446-68,68-68c37.555,0,68,30.449,68,68C343.75,278.779,313.305,309.23,275.75,309.23z"/>
		<path fill="#535454" stroke="#333333" stroke-miterlimit="10" d="M275.75,307.23c-36.448,0-66-29.555-66-66
			c0-36.447,29.552-66,66-66c36.449,0,66,29.553,66,66C341.75,277.676,312.199,307.23,275.75,307.23z"/>
		<path display="none" fill="#616263" stroke="#333333" stroke-width="4" stroke-miterlimit="10" d="M275.75,123.73
			c-64.894,0-117.5,52.607-117.5,117.5c0,64.891,52.606,117.5,117.5,117.5s117.5-52.609,117.5-117.5
			C393.25,176.338,340.644,123.73,275.75,123.73z M275.75,343.73c-56.61,0-102.5-45.896-102.5-102.5
			c0-56.608,45.89-102.5,102.5-102.5c56.609,0,102.5,45.892,102.5,102.5C378.25,297.834,332.359,343.73,275.75,343.73z"/>
		<g>
			<path fill="#616263" d="M275.484,358.753l-1.477-0.022c-0.892-0.014-1.784-0.038-2.672-0.069l-1.475-0.053l-0.001,0.01
				l-0.303-0.021l-0.23-0.009v-0.007l-1.469-0.101c-0.889-0.061-1.776-0.129-2.66-0.206l-1.459-0.127l-0.001,0.005l-0.183-0.021
				l-0.365-0.032l0.001-0.011l-1.457-0.173c-0.887-0.105-1.769-0.221-2.65-0.345l-2.002-0.282l0.003-0.018l-1.434-0.241
				c-0.88-0.148-1.757-0.313-2.632-0.482l-1.998-0.387l0.002-0.009l-1.417-0.323c-0.873-0.199-1.742-0.409-2.607-0.631l-1.374-0.354
				l-0.005,0.02l-0.86-0.241l-0.194-0.05l0.002-0.004l-0.918-0.258c-0.861-0.242-1.716-0.499-2.569-0.761l-0.665-0.204v0.029
				l-0.882-0.3l-0.704-0.216l0.01-0.021l-1.069-0.364c-0.846-0.289-1.688-0.585-2.524-0.892l-2.101-0.771l0.009-0.018L232,350.331
				c-0.825-0.332-1.649-0.673-2.466-1.021l-1.962-0.836l0.01-0.021l-1.225-0.566c-0.81-0.374-1.613-0.758-2.414-1.148l-1.813-0.887
				l0.007-0.015l-1.296-0.686c-0.79-0.417-1.572-0.846-2.35-1.281l-1.264-0.708l-0.008,0.014l-1.742-1.045
				c-0.763-0.458-1.52-0.924-2.272-1.396l-1.234-0.774l-0.005,0.009l-0.261-0.176l-0.211-0.132l0.004-0.007l-1.216-0.818
				c-0.742-0.499-1.476-1.005-2.203-1.521l-1.191-0.844l-0.008,0.011l-0.443-0.331l-1.17-0.879
				c-0.714-0.535-1.423-1.078-2.125-1.633l-1.153-0.91l-0.005,0.007l-0.237-0.199l-0.185-0.146l0.004-0.006l-1.12-0.938
				c-0.683-0.572-1.36-1.148-2.031-1.733l-1.113-0.972l-0.003,0.004l-0.109-0.102l-0.288-0.252l0.008-0.009l-1.079-1.003
				c-0.653-0.608-1.298-1.22-1.938-1.838l-1.441-1.395l0.012-0.012l-1.027-1.054c-0.622-0.639-1.238-1.288-1.846-1.944l-1-1.078
				l-0.01,0.009l-1.32-1.51c-0.585-0.67-1.164-1.349-1.736-2.031l-0.94-1.123l-0.01,0.008l-0.339-0.425l0.003-0.002l-0.911-1.158
				c-0.551-0.701-1.092-1.408-1.628-2.121l-0.879-1.171l-0.004,0.003l-0.1-0.142l-0.23-0.307l0.009-0.007l-0.841-1.192
				c-0.514-0.728-1.021-1.461-1.518-2.202l-0.816-1.216l-0.005,0.003l-0.105-0.167l-0.2-0.297l0.009-0.007l-0.777-1.236
				c-0.475-0.755-0.942-1.513-1.4-2.279l-0.747-1.251l-0.008,0.005l-0.171-0.306l-0.112-0.188l0.005-0.004l-0.708-1.268
				c-0.434-0.776-0.86-1.562-1.276-2.348l-0.68-1.284l-0.013,0.007l-0.196-0.401l-0.062-0.117l0.004-0.002l-0.639-1.304
				c-0.392-0.799-0.774-1.604-1.149-2.41l-0.217-0.466l-0.032,0.032l-0.539-1.261l-0.071-0.153l0.005-0.002l-0.567-1.328
				c-0.351-0.82-0.69-1.646-1.022-2.473l-0.466-1.162l-0.018,0.01l-0.769-2.093c-0.307-0.835-0.603-1.676-0.892-2.521l-0.362-1.056
				l-0.011,0.006l-0.126-0.408l-0.407-1.189h0.039l-0.205-0.661c-0.264-0.85-0.519-1.707-0.764-2.567l-0.723-2.547h0.037
				l-0.206-0.815c-0.218-0.863-0.426-1.73-0.624-2.603l-0.323-1.425l-0.06,0.013l-0.333-1.993c-0.172-0.873-0.333-1.747-0.487-2.627
				l-0.251-1.447l-0.045,0.007l-0.242-2.004c-0.124-0.882-0.24-1.764-0.345-2.652l-0.171-1.455l-0.039,0.004l-0.15-2.008
				c-0.077-0.888-0.149-1.776-0.206-2.668l-0.129-1.995l0.056-0.004l-0.106-1.468c-0.034-0.886-0.056-1.778-0.07-2.672l-0.023-1.479
				h-0.008l0.004-0.262l-0.004-0.262h0.008l0.023-1.479c0.014-0.894,0.036-1.786,0.07-2.677l0.056-1.468l-0.006-0.001l0.015-0.229
				l0.012-0.305h0.008l0.095-1.462c0.057-0.892,0.129-1.779,0.207-2.666l0.128-1.465l-0.003-0.001l0.05-0.54l0.013,0.001
				l0.171-1.458c0.104-0.888,0.221-1.772,0.345-2.652l0.204-1.443l-0.012-0.002l0.067-0.389l0.023-0.166l0.005,0.001l0.25-1.443
				c0.153-0.88,0.315-1.758,0.487-2.628l0.19-0.962h-0.026l0.203-0.896l0.025-0.128l0.003,0.001l0.321-1.419
				c0.197-0.869,0.406-1.736,0.624-2.602l0.38-1.513h0.791l-0.677-0.452l0.399-1.401c0.244-0.858,0.5-1.714,0.763-2.564l0.204-0.659
				h-0.036l0.386-1.13l0.141-0.454l0.012,0.006l0.366-1.069c0.29-0.846,0.585-1.688,0.893-2.523l0.671-1.823l0.013,0.004
				l0.567-1.421c0.331-0.829,0.672-1.654,1.023-2.477l0.837-1.96l0.469,0.236l-0.292-0.578l0.407-0.878
				c0.375-0.808,0.76-1.609,1.149-2.406l0.548-1.122h0.46l-0.374-0.19l0.953-1.795c0.417-0.785,0.842-1.567,1.276-2.346l0.708-1.267
				l-0.008-0.005l0.163-0.272l0.124-0.222l0.007,0.004l0.749-1.251c0.458-0.767,0.925-1.529,1.401-2.28l0.779-1.23l-0.019-0.012
				l1.135-1.681c0.498-0.736,1.002-1.467,1.514-2.194l0.841-1.194l-0.009-0.007l0.228-0.303l0.106-0.149l0.004,0.003l0.877-1.167
				c0.535-0.711,1.077-1.419,1.626-2.118l1.243-1.582l0.013,0.011l0.94-1.127c0.57-0.684,1.149-1.363,1.736-2.034l1.318-1.508
				l0.011,0.01l1.002-1.082c0.606-0.655,1.222-1.303,1.843-1.942l1.027-1.059l-0.006-0.007l0.222-0.215l0.155-0.16l0.005,0.005
				l1.055-1.024c0.64-0.62,1.288-1.236,1.942-1.844l1.076-0.997l-0.01-0.011l1.516-1.321c0.671-0.585,1.347-1.162,2.029-1.732
				l1.125-0.943l-0.005-0.007l0.246-0.194l0.176-0.146l0.004,0.005l1.154-0.909c0.699-0.552,1.407-1.093,2.119-1.629l1.166-0.878
				l-0.002-0.003l0.454-0.337l0.008,0.012l1.191-0.841c0.727-0.513,1.459-1.019,2.2-1.519l1.689-1.139l0.01,0.016l1.222-0.77
				c0.753-0.475,1.511-0.941,2.275-1.399l1.74-1.045l0.252,0.436v-0.562l1.026-0.575c0.776-0.433,1.558-0.857,2.346-1.274
				l0.638-0.338l-0.031-0.032l1.194-0.585l1.304-0.633c0.8-0.39,1.6-0.773,2.408-1.148l1.75-0.813l1.43-0.608
				c0.816-0.348,1.641-0.689,2.467-1.021l0.877-0.353l-0.019-0.028l0.964-0.353l0.312-0.125l0.003,0.011l1.112-0.407
				c0.835-0.305,1.675-0.6,2.517-0.89l1.229-0.423l-0.002-0.005l0.162-0.05l0.267-0.092l0.004,0.008l1.656-0.513
				c0.849-0.262,1.7-0.516,2.558-0.762l0.944-0.271l-0.003-0.006l0.2-0.051l0.699-0.2l0.007,0.021l1.52-0.385
				c0.775-0.196,1.553-0.385,2.336-0.566l-0.037-0.036l1.477-0.294l1.271-0.292v0.038l0.958-0.191
				c0.875-0.174,1.751-0.334,2.63-0.487l1.437-0.25l-0.001-0.005l0.159-0.022l0.407-0.071l0.002,0.014l1.44-0.203
				c0.881-0.124,1.766-0.24,2.653-0.345l1.456-0.171l-0.001-0.014l2.005-0.175c0.885-0.077,1.773-0.147,2.662-0.206l1.468-0.099
				v-0.009l0.28-0.01l0.254-0.018l0,0.008l1.474-0.053c0.887-0.031,1.775-0.056,2.667-0.069l1.472-0.022v-0.009l0.27,0.005
				l0.265-0.005l0,0.009l1.474,0.022c0.892,0.014,1.782,0.038,2.668,0.069l1.474,0.053l0-0.008l0.255,0.018l0.277,0.01l0,0.009
				l1.471,0.099c0.89,0.06,1.779,0.127,2.665,0.206l1.455,0.131l0.001-0.011l0.358,0.043l0.184,0.017l0,0.005l1.459,0.173
				c0.888,0.105,1.771,0.223,2.652,0.347l1.44,0.203l0.573,0.081l-0.002,0.014l1.424,0.241c0.883,0.149,1.762,0.312,2.64,0.486
				l-0.193,1.962l1.15,0.003v-1.799l2.446,0.549c0.873,0.199,1.739,0.408,2.602,0.627l1.509,0.382l0.005-0.017l0.567,0.161
				l0.312,0.079l-0.004,0.009l0.971,0.275c0.86,0.244,1.714,0.5,2.565,0.763l1.4,0.431l0.004-0.011l1.904,0.651
				c0.846,0.29,1.686,0.586,2.521,0.892l1.693,0.619l-0.001,0.004l1.562,0.632c0.826,0.335,1.651,0.674,2.467,1.024l0.968,0.415
				l0.006-0.025l0.748,0.349l0.227,0.098l-0.003,0.007l1.235,0.576c0.81,0.378,1.61,0.76,2.41,1.152l1.274,0.626l0.004-0.01
				l0.298,0.158l0.91,0.447l-0.023,0.023l0.637,0.338c0.788,0.417,1.569,0.844,2.345,1.276l1.172,0.654l0.006-0.012l0.367,0.219
				l5.175,2.886h-0.47l0.269,0.169l0.008-0.013l1.686,1.133c0.743,0.5,1.478,1.007,2.206,1.523l1.177,0.835l0.009-0.013l1.623,1.218
				c0.712,0.534,1.419,1.078,2.121,1.628l1.156,0.907l0.002-0.003l0.084,0.071l0.349,0.272l-0.009,0.012l1.121,0.938
				c0.683,0.571,1.359,1.148,2.029,1.733l1.515,1.322l-0.011,0.012l1.075,0.994c0.655,0.605,1.302,1.222,1.943,1.843l1.055,1.022
				l0.004-0.005l0.145,0.148l0.241,0.233l-0.007,0.008l1.022,1.054c0.622,0.64,1.236,1.287,1.842,1.942l0.998,1.078l0.009-0.009
				l1.322,1.51c0.587,0.671,1.166,1.35,1.738,2.034l0.935,1.118l0.009-0.007l0.256,0.325l0.092,0.109l-0.003,0.003l0.904,1.147
				c0.55,0.698,1.091,1.409,1.627,2.122l0.871,1.158l0.006-0.004l0.137,0.195l0.205,0.271l-0.009,0.007l0.836,1.187
				c0.513,0.728,1.019,1.46,1.517,2.199l0.815,1.209l0.005-0.004l0.105,0.168l0.213,0.315l-0.011,0.007l0.771,1.229
				c0.471,0.752,0.938,1.511,1.396,2.274l0.748,1.249l0.008-0.005l0.15,0.27l0.135,0.227l-0.007,0.004l0.709,1.272
				c0.433,0.777,0.859,1.559,1.275,2.344l0.562,1.058l0.005-0.003l0.112,0.226l0.88,1.657h-0.057l0.082,0.164
				c0.393,0.8,0.775,1.602,1.151,2.41l0.571,1.229l0.012-0.007l0.838,1.958c0.351,0.82,0.691,1.646,1.022,2.475l0.416,1.036
				l0.021-0.012l0.816,2.217c0.308,0.837,0.604,1.683,0.894,2.528l0.462,1.352l0.004-0.002l0.048,0.154l0.166,0.484l-0.014,0.004
				l0.406,1.312c0.263,0.852,0.52,1.709,0.764,2.569l0.563,1.982l-0.015,0.004l0.345,1.379c0.194,0.776,0.383,1.553,0.562,2.333
				l0.046-0.047l0.362,1.842l0.208,0.915h-0.028l0.19,0.964c0.17,0.872,0.333,1.747,0.486,2.628l0.249,1.434l0.049-0.008l0.24,2.015
				c0.124,0.879,0.24,1.764,0.345,2.651l0.171,1.456l0.037-0.004l0.151,2.011c0.078,0.887,0.149,1.775,0.207,2.666l0.129,1.998
				l-0.06,0.003l0.109,1.467c0.033,0.888,0.056,1.78,0.07,2.673l0.022,1.464h0.009l-0.004,0.275l0.004,0.275h-0.009l-0.022,1.464
				c-0.014,0.894-0.036,1.786-0.07,2.674l-0.056,1.469h0.007l-0.017,0.255l-0.011,0.28l-0.007-0.001l-0.095,1.466
				c-0.057,0.891-0.129,1.778-0.206,2.666l-0.175,2.006l-0.014-0.002l-0.171,1.457c-0.104,0.889-0.221,1.771-0.345,2.651
				l-0.156,1.103h0.018l-0.101,0.591l-0.044,0.312l-0.009-0.002l-0.247,1.439c-0.152,0.88-0.314,1.753-0.485,2.626l-0.188,0.964
				h0.022l-0.551,2.44c-0.197,0.872-0.406,1.741-0.623,2.604l-0.609,2.424l-0.018-0.009l-0.267,0.946
				c-0.243,0.861-0.5,1.719-0.763,2.571l-0.407,1.313l0.02,0.005l-0.687,1.991c-0.291,0.844-0.585,1.688-0.893,2.523l-0.509,1.384
				l0.005,0.002l-0.066,0.165l-0.51,1.385l-0.034-0.034l-0.137,0.342c-0.333,0.828-0.673,1.651-1.023,2.472l-0.832,1.945
				l-0.014-0.007l-0.577,1.239c-0.375,0.808-0.758,1.613-1.152,2.414l-0.55,1.116h-1.086l0.536,1.071l-0.481,0.91
				c-0.417,0.787-0.843,1.571-1.277,2.348l-0.708,1.268l0.005,0.003l-0.112,0.188l-0.174,0.311l-0.008-0.005l-0.744,1.246
				c-0.458,0.767-0.925,1.524-1.4,2.279l-0.772,1.228l0.009,0.007l-0.204,0.304l-0.108,0.171l-0.005-0.003l-0.815,1.214
				c-0.498,0.741-1.004,1.476-1.519,2.203l-0.84,1.188l0.008,0.006l-0.213,0.284l-0.118,0.168l-0.005-0.004l-0.875,1.169
				c-0.535,0.714-1.078,1.425-1.629,2.125l-0.91,1.153l0.004,0.004l-0.121,0.144l-0.224,0.284l-0.008-0.007l-0.938,1.121
				c-0.569,0.68-1.146,1.357-1.731,2.029l-1.319,1.517l-0.015-0.014l-0.998,1.078c-0.608,0.657-1.224,1.304-1.845,1.942
				l-1.025,1.056l0.009,0.009l-1.442,1.397c-0.639,0.619-1.286,1.231-1.939,1.838l-1.08,1.002l0.009,0.011l-1.514,1.321
				c-0.671,0.586-1.349,1.163-2.035,1.734l-1.116,0.931l0.011,0.014l-1.589,1.249c-0.701,0.552-1.41,1.096-2.124,1.631l-1.621,1.215
				l-0.01-0.014l-1.176,0.836c-0.728,0.517-1.463,1.023-2.205,1.522L340,339.657l0.002,0.005l-0.129,0.081l-0.341,0.229
				l-0.007-0.011l-1.234,0.774c-0.751,0.473-1.508,0.938-2.272,1.396l-1.253,0.752l0.004,0.007l-0.214,0.119l-0.275,0.165
				l-0.005-0.009l-1.274,0.711c-0.776,0.433-1.559,0.858-2.346,1.275l-1.31,0.693l0.007,0.014l-0.409,0.199l-0.097,0.052
				l-0.002-0.003l-1.292,0.632c-0.802,0.392-1.604,0.775-2.417,1.148l-1.236,0.567l0.011,0.022l-0.974,0.42l-0.971,0.412
				c-0.82,0.351-1.644,0.69-2.471,1.022l-1.039,0.417l0.014,0.023l-2.224,0.813c-0.836,0.307-1.677,0.603-2.522,0.891l-1.362,0.464
				l0.006,0.017l-0.63,0.196l-0.001-0.004l-1.327,0.403c-0.85,0.259-1.702,0.516-2.56,0.758l-0.95,0.27l0.006,0.014l-0.488,0.123
				l-0.403,0.114l-0.004-0.012l-1.523,0.384c-0.862,0.217-1.726,0.426-2.597,0.626l-1.917,0.44l-0.004-0.017l-1.493,0.293
				c-0.874,0.171-1.75,0.334-2.629,0.484l-1.429,0.244l0.002,0.013l-0.44,0.062l-0.129,0.022l0-0.004l-1.441,0.203
				c-0.881,0.124-1.764,0.239-2.651,0.345l-1.454,0.172l0.001,0.012l-0.371,0.032l-0.182,0.022l0-0.006l-1.457,0.127
				c-0.884,0.077-1.772,0.146-2.66,0.206l-1.474,0.101v0.007l-0.219,0.008l-0.308,0.021l0-0.01l-1.478,0.053
				c-0.887,0.031-1.777,0.056-2.669,0.069l-1.48,0.022v0.009l-0.262-0.005l-0.264,0.005V358.753z M275.75,140.73
				c-55.416,0-100.5,45.084-100.5,100.5s45.084,100.5,100.5,100.5s100.5-45.084,100.5-100.5S331.166,140.73,275.75,140.73z"/>
			<path fill="#333333" d="M277.457,125.73c0.879,0.014,1.755,0.037,2.628,0.068c-0.037,0.936,0.682,1.727,1.617,1.779
				c0.03,0.002,0.061,0.002,0.09,0.002c0.9,0,1.65-0.7,1.708-1.605c0.875,0.059,1.749,0.125,2.62,0.203
				c-0.087,0.936,0.589,1.767,1.523,1.863c0.062,0.007,0.123,0.01,0.183,0.01c0.856,0,1.597-0.649,1.694-1.521
				c0.873,0.104,1.742,0.219,2.608,0.341c-0.146,0.929,0.488,1.803,1.421,1.952c0.09,0.014,0.18,0.021,0.268,0.021
				c0.827,0,1.558-0.6,1.691-1.443v-0.002c0.864,0.148,1.725,0.308,2.583,0.479c-0.001,0-0.002,0.002-0.002,0.004
				c-0.197,0.922,0.396,1.83,1.319,2.027c0.121,0.025,0.241,0.038,0.359,0.038c0.79,0,1.499-0.55,1.671-1.355
				c0-0.006,0-0.009,0-0.012c0.857,0.196,1.709,0.401,2.558,0.616c-0.001,0.002-0.002,0.004-0.003,0.006
				c-0.245,0.914,0.295,1.854,1.208,2.097c0.148,0.04,0.297,0.058,0.443,0.058c0.756,0,1.448-0.502,1.651-1.266
				c0.002-0.006,0.002-0.014,0.004-0.02c0.846,0.24,1.686,0.492,2.522,0.75c-0.001,0.005-0.005,0.009-0.007,0.015
				c-0.291,0.896,0.2,1.863,1.099,2.157c0.176,0.057,0.354,0.084,0.529,0.084c0.721,0,1.39-0.461,1.624-1.182
				c0.002-0.008,0.002-0.016,0.004-0.021c0.833,0.285,1.66,0.576,2.482,0.877c-0.002,0.008-0.006,0.014-0.008,0.02
				c-0.338,0.881,0.104,1.871,0.985,2.212c0.201,0.077,0.407,0.114,0.61,0.114c0.688,0,1.337-0.42,1.6-1.101
				c0.002-0.004,0.002-0.01,0.004-0.014c0.813,0.329,1.625,0.663,2.429,1.008c-0.001,0.002-0.004,0.005-0.006,0.009
				c-0.382,0.868,0.004,1.877,0.868,2.262c0.226,0.1,0.461,0.146,0.693,0.146c0.656,0,1.283-0.378,1.567-1.016
				c0.001-0.002,0.001-0.004,0.002-0.008c0.798,0.372,1.586,0.748,2.373,1.135c-0.002,0.002-0.004,0.004-0.005,0.008
				c-0.429,0.841-0.096,1.87,0.747,2.303c0.248,0.125,0.511,0.184,0.771,0.184c0.624,0,1.227-0.34,1.53-0.934
				c0.001-0.002,0.001-0.004,0.002-0.006c0.775,0.411,1.544,0.831,2.308,1.257c0,0-0.002,0-0.002,0.003
				c-0.474,0.816-0.19,1.863,0.627,2.336c0.269,0.156,0.563,0.23,0.854,0.23c0.591,0,1.167-0.307,1.484-0.855l0.001-0.002
				c0.752,0.451,1.497,0.91,2.237,1.377c-0.512,0.793-0.288,1.847,0.505,2.363c0.287,0.187,0.61,0.275,0.929,0.275
				c0.56,0,1.108-0.273,1.436-0.778c0.729,0.49,1.45,0.988,2.165,1.495c-0.553,0.763-0.382,1.83,0.382,2.383
				c0.304,0.221,0.655,0.327,1.003,0.327c0.527,0,1.046-0.243,1.38-0.702c0.7,0.525,1.396,1.061,2.086,1.602
				c-0.59,0.734-0.476,1.807,0.256,2.402c0.316,0.256,0.696,0.38,1.074,0.38c0.495,0,0.985-0.214,1.324-0.624
				c0.672,0.562,1.338,1.131,1.998,1.707c-0.622,0.705-0.562,1.775,0.137,2.402c0.325,0.294,0.734,0.438,1.142,0.438
				c0.462,0,0.922-0.187,1.259-0.551c0.644,0.595,1.279,1.2,1.909,1.811c-0.655,0.669-0.655,1.741,0.011,2.403
				c0.334,0.336,0.771,0.503,1.209,0.503c0.432,0,0.864-0.163,1.196-0.489c0.61,0.629,1.214,1.265,1.81,1.908
				c-0.689,0.631-0.741,1.705-0.114,2.402c0.338,0.375,0.803,0.566,1.271,0.566c0.403,0,0.809-0.143,1.136-0.431
				c0.577,0.659,1.146,1.327,1.709,2c-0.725,0.597-0.837,1.665-0.247,2.396c0.34,0.416,0.835,0.633,1.333,0.633
				c0.376,0,0.755-0.123,1.071-0.377c0.541,0.687,1.072,1.385,1.6,2.086c-0.76,0.555-0.929,1.621-0.376,2.387
				c0.334,0.459,0.855,0.703,1.383,0.703c0.348,0,0.7-0.105,1.003-0.326c0.505,0.717,1.003,1.438,1.493,2.165
				c-0.001,0-0.001,0-0.001,0c-0.792,0.514-1.016,1.575-0.502,2.366c0.327,0.505,0.876,0.779,1.437,0.779
				c0.319,0,0.642-0.089,0.93-0.275c0.464,0.739,0.924,1.486,1.374,2.238c-0.818,0.475-1.099,1.52-0.627,2.34
				c0.318,0.547,0.894,0.852,1.485,0.852c0.291,0,0.585-0.073,0.854-0.229c0.427,0.766,0.846,1.535,1.256,2.308
				c-0.002,0-0.004,0-0.006,0.002c-0.841,0.43-1.177,1.46-0.748,2.305c0.301,0.591,0.903,0.933,1.527,0.933
				c0.261,0,0.526-0.061,0.775-0.188c0.003-0.002,0.006-0.004,0.009-0.006c0.387,0.787,0.763,1.576,1.133,2.372
				c-0.003,0.002-0.007,0.002-0.011,0.006c-0.863,0.384-1.25,1.395-0.868,2.258c0.284,0.636,0.911,1.016,1.566,1.016
				c0.232,0,0.468-0.048,0.694-0.148c0.005-0.002,0.01-0.006,0.014-0.008c0.345,0.806,0.679,1.616,1.005,2.431
				c-0.003,0.002-0.007,0.002-0.011,0.004c-0.884,0.34-1.325,1.328-0.987,2.211c0.262,0.68,0.913,1.098,1.602,1.098
				c0.204,0,0.41-0.037,0.611-0.113c0.007-0.002,0.011-0.006,0.018-0.01c0.303,0.822,0.594,1.653,0.878,2.484
				c-0.007,0.002-0.013,0.002-0.019,0.004c-0.9,0.291-1.393,1.258-1.098,2.156c0.234,0.721,0.904,1.181,1.625,1.181
				c0.175,0,0.354-0.026,0.529-0.084c0.006-0.002,0.011-0.006,0.017-0.008c0.259,0.836,0.511,1.679,0.751,2.524
				c-0.008,0.002-0.014,0.002-0.02,0.004c-0.912,0.242-1.453,1.184-1.212,2.098c0.206,0.762,0.897,1.266,1.653,1.266
				c0.146,0,0.294-0.019,0.441-0.058c0.005-0.004,0.009-0.006,0.014-0.006c0.213,0.851,0.419,1.702,0.613,2.558
				c-0.002,0-0.006,0-0.009,0.002c-0.926,0.196-1.515,1.104-1.318,2.027c0.17,0.804,0.884,1.357,1.676,1.357
				c0.117,0,0.235-0.012,0.353-0.036l0.002-0.002c0.168,0.857,0.328,1.719,0.479,2.585c-0.002,0-0.003,0-0.004,0
				c-0.934,0.146-1.57,1.022-1.422,1.953c0.133,0.842,0.861,1.447,1.688,1.447c0.088,0,0.177-0.008,0.266-0.021
				c0.122,0.863,0.236,1.732,0.339,2.604c-0.936,0.101-1.613,0.942-1.515,1.878c0.092,0.881,0.834,1.533,1.702,1.533
				c0.055,0,0.11-0.002,0.167-0.008c0.076,0.872,0.146,1.746,0.203,2.621c-0.936,0.06-1.654,0.857-1.604,1.795
				c0.05,0.913,0.806,1.619,1.708,1.619c0.024,0,0.048,0,0.072-0.001c0.032,0.873,0.055,1.751,0.068,2.63
				c-0.936,0.008-1.693,0.77-1.693,1.709s0.758,1.699,1.693,1.707c-0.014,0.879-0.035,1.756-0.068,2.629
				c-0.024-0.001-0.047-0.002-0.071-0.002c-0.904,0-1.661,0.707-1.709,1.623c-0.05,0.938,0.669,1.736,1.604,1.795
				c-0.057,0.875-0.127,1.748-0.203,2.621c-0.055-0.006-0.109-0.008-0.164-0.008c-0.868,0-1.613,0.65-1.705,1.53
				c-0.097,0.937,0.581,1.775,1.515,1.879c-0.103,0.873-0.217,1.74-0.339,2.605c-0.089-0.014-0.177-0.021-0.264-0.021
				c-0.828,0-1.558,0.6-1.692,1.444c-0.146,0.932,0.49,1.811,1.424,1.958c0.001,0,0.002,0,0.003,0
				c-0.149,0.865-0.31,1.725-0.478,2.583c-0.002,0-0.002-0.002-0.004-0.002c-0.12-0.025-0.239-0.038-0.356-0.038
				c-0.791,0-1.501,0.553-1.673,1.356c-0.196,0.924,0.393,1.834,1.316,2.03c0.004,0.001,0.009,0.001,0.012,0.001
				c-0.193,0.856-0.399,1.71-0.612,2.558c-0.004-0.002-0.007-0.004-0.01-0.004c-0.149-0.039-0.298-0.059-0.445-0.059
				c-0.756,0-1.447,0.502-1.652,1.267c-0.243,0.912,0.301,1.852,1.212,2.097c0.006,0.002,0.011,0.002,0.017,0.005
				c-0.238,0.845-0.49,1.687-0.749,2.522c-0.006-0.001-0.01-0.005-0.016-0.007c-0.176-0.058-0.354-0.085-0.53-0.085
				c-0.721,0-1.392,0.459-1.625,1.185c-0.293,0.897,0.199,1.862,1.097,2.153c0.006,0.002,0.013,0.002,0.02,0.004
				c-0.286,0.83-0.576,1.661-0.879,2.484c-0.006-0.006-0.011-0.01-0.017-0.012c-0.201-0.076-0.407-0.113-0.61-0.113
				c-0.688,0-1.338,0.418-1.602,1.099c-0.337,0.881,0.103,1.87,0.984,2.209c0.004,0.002,0.01,0.002,0.015,0.004
				c-0.328,0.815-0.662,1.626-1.007,2.433c-0.004-0.002-0.006-0.004-0.01-0.006c-0.227-0.102-0.463-0.148-0.696-0.148
				c-0.655,0-1.28,0.378-1.565,1.014c-0.382,0.862,0.006,1.875,0.868,2.26c0.002,0,0.004,0,0.006,0.002
				c-0.369,0.794-0.745,1.586-1.133,2.373c-0.002,0-0.004-0.002-0.006-0.004c-0.249-0.127-0.514-0.188-0.776-0.188
				c-0.623,0-1.223,0.342-1.524,0.935c-0.43,0.84-0.096,1.874,0.746,2.3c0.001,0,0.003,0,0.004,0.002
				c-0.41,0.774-0.829,1.545-1.256,2.309c-0.001,0-0.001-0.002-0.002-0.002c-0.268-0.154-0.562-0.229-0.851-0.229
				c-0.591,0-1.168,0.308-1.486,0.857c-0.472,0.817-0.192,1.861,0.626,2.335c-0.449,0.753-0.908,1.497-1.375,2.239
				c-0.289-0.186-0.611-0.273-0.931-0.273c-0.559,0-1.106,0.271-1.433,0.776c-0.513,0.794-0.288,1.854,0.501,2.366
				c-0.489,0.729-0.986,1.449-1.491,2.163c-0.303-0.218-0.653-0.323-1-0.323c-0.528,0-1.05,0.244-1.385,0.707
				c-0.555,0.761-0.385,1.827,0.373,2.383c-0.525,0.701-1.058,1.398-1.6,2.086c-0.315-0.254-0.694-0.377-1.069-0.377
				c-0.499,0-0.993,0.217-1.333,0.635c-0.59,0.729-0.479,1.799,0.243,2.396c-0.561,0.67-1.13,1.338-1.706,2
				c-0.328-0.288-0.733-0.43-1.137-0.43c-0.466,0-0.93,0.189-1.268,0.564c-0.624,0.694-0.573,1.768,0.114,2.4
				c-0.597,0.645-1.201,1.279-1.812,1.907c-0.333-0.325-0.765-0.487-1.198-0.487c-0.437,0-0.873,0.166-1.207,0.499
				c-0.662,0.665-0.666,1.737-0.012,2.407c-0.629,0.609-1.266,1.212-1.908,1.809c-0.337-0.365-0.797-0.551-1.258-0.551
				c-0.408,0-0.816,0.145-1.143,0.438c-0.699,0.628-0.758,1.7-0.137,2.405c-0.66,0.576-1.326,1.144-2,1.705
				c-0.339-0.408-0.829-0.621-1.322-0.621c-0.377,0-0.756,0.123-1.072,0.379c-0.73,0.593-0.844,1.668-0.256,2.399
				c-0.689,0.542-1.386,1.077-2.087,1.603c-0.334-0.458-0.853-0.701-1.379-0.701c-0.349,0-0.701,0.107-1.005,0.328
				c-0.761,0.554-0.931,1.621-0.381,2.38c-0.715,0.508-1.437,1.005-2.164,1.495c-0.328-0.504-0.876-0.775-1.435-0.775
				c-0.319,0-0.643,0.088-0.93,0.273c-0.791,0.516-1.016,1.572-0.506,2.365c-0.74,0.465-1.485,0.924-2.237,1.375
				c-0.318-0.547-0.892-0.854-1.482-0.854c-0.29,0-0.584,0.074-0.854,0.229c-0.815,0.473-1.097,1.519-0.627,2.337
				c-0.764,0.426-1.533,0.845-2.308,1.255l-0.001-0.002c-0.302-0.593-0.902-0.935-1.524-0.935c-0.262,0-0.527,0.061-0.776,0.188
				c-0.842,0.428-1.178,1.459-0.748,2.299c0.001,0.004,0.003,0.006,0.004,0.008c-0.787,0.385-1.575,0.762-2.373,1.128
				c0,0-0.001-0.004-0.002-0.006c-0.283-0.635-0.908-1.013-1.563-1.013c-0.233,0-0.47,0.047-0.696,0.148
				c-0.862,0.383-1.25,1.396-0.866,2.259c0.001,0.004,0.004,0.008,0.006,0.012c-0.806,0.345-1.615,0.679-2.429,1.005
				c-0.002-0.004-0.002-0.006-0.003-0.008c-0.263-0.683-0.912-1.102-1.599-1.102c-0.204,0-0.411,0.037-0.612,0.114
				c-0.882,0.339-1.323,1.33-0.985,2.211c0.002,0.006,0.004,0.01,0.008,0.017c-0.822,0.301-1.649,0.592-2.48,0.875
				c-0.002-0.007-0.002-0.011-0.004-0.017c-0.235-0.722-0.905-1.182-1.625-1.182c-0.176,0-0.354,0.027-0.531,0.085
				c-0.897,0.291-1.389,1.258-1.098,2.154c0.002,0.006,0.005,0.01,0.007,0.016c-0.838,0.255-1.678,0.508-2.522,0.747
				c-0.002-0.006-0.001-0.012-0.003-0.016c-0.205-0.765-0.896-1.269-1.652-1.269c-0.146,0-0.295,0.02-0.444,0.059
				c-0.912,0.244-1.454,1.182-1.211,2.093c0.001,0.004,0.004,0.01,0.004,0.01c-0.849,0.214-1.699,0.419-2.557,0.616
				c-0.001-0.004,0-0.006-0.001-0.008c-0.171-0.805-0.88-1.356-1.669-1.356c-0.119,0-0.239,0.013-0.36,0.038
				c-0.923,0.197-1.515,1.105-1.319,2.029c-0.857,0.168-1.718,0.328-2.581,0.476c-0.133-0.842-0.862-1.442-1.688-1.442
				c-0.089,0-0.18,0.007-0.271,0.021c-0.931,0.147-1.567,1.022-1.422,1.952c-0.866,0.122-1.735,0.235-2.607,0.339
				c-0.095-0.873-0.836-1.523-1.698-1.523c-0.06,0-0.12,0.004-0.18,0.01c-0.935,0.098-1.613,0.935-1.523,1.867
				c-0.871,0.076-1.746,0.144-2.621,0.203c-0.06-0.907-0.809-1.604-1.708-1.604c-0.029,0-0.058,0-0.087,0.002
				c-0.936,0.049-1.655,0.846-1.619,1.777c-0.874,0.031-1.75,0.055-2.629,0.068c-0.012-0.936-0.771-1.689-1.709-1.689
				c-0.001,0-0.002,0-0.003,0s-0.002,0-0.003,0c-0.102,0-0.2,0.012-0.296,0.028c-0.015,0.002-0.029,0.002-0.044,0.004
				c-0.772,0.159-1.354,0.839-1.365,1.657c-0.879-0.014-1.757-0.037-2.632-0.068c0.038-0.934-0.683-1.729-1.616-1.777
				c-0.03-0.002-0.061-0.002-0.091-0.002c-0.897,0-1.647,0.697-1.706,1.604c-0.876-0.06-1.75-0.127-2.621-0.203
				c0.089-0.933-0.589-1.77-1.522-1.865c-0.062-0.007-0.124-0.01-0.186-0.01c-0.859,0-1.599,0.65-1.694,1.521
				c-0.872-0.104-1.74-0.217-2.606-0.339c0.142-0.932-0.493-1.805-1.424-1.952c-0.09-0.014-0.179-0.021-0.268-0.021
				c-0.825,0-1.554,0.6-1.688,1.44c-0.864-0.146-1.726-0.308-2.584-0.474c0.196-0.928-0.394-1.832-1.317-2.029
				c-0.12-0.025-0.239-0.037-0.357-0.037c-0.79,0-1.502,0.551-1.672,1.357c0,0,0,0.002-0.001,0.004
				c-0.855-0.195-1.707-0.4-2.555-0.618c0,0,0.001-0.002,0.002-0.004c0.242-0.913-0.297-1.851-1.211-2.093
				c-0.149-0.041-0.3-0.061-0.448-0.061c-0.753,0-1.443,0.506-1.647,1.269c-0.001,0.004-0.001,0.01-0.002,0.014
				c-0.846-0.237-1.686-0.49-2.522-0.747c0.002-0.004,0.005-0.008,0.007-0.012c0.29-0.898-0.202-1.865-1.1-2.156
				c-0.175-0.057-0.353-0.084-0.528-0.084c-0.722,0-1.393,0.459-1.629,1.181c-0.002,0.004-0.002,0.01-0.002,0.015
				c-0.831-0.283-1.658-0.574-2.48-0.876c0.002-0.004,0.004-0.008,0.008-0.012c0.336-0.884-0.104-1.874-0.985-2.213
				c-0.202-0.077-0.409-0.113-0.612-0.113c-0.689,0-1.338,0.417-1.601,1.101c-0.001,0.002-0.001,0.004-0.002,0.006
				c-0.812-0.326-1.623-0.662-2.428-1.005c0.002-0.004,0.004-0.006,0.006-0.01c0.383-0.862-0.004-1.876-0.868-2.259
				c-0.226-0.102-0.462-0.149-0.695-0.149c-0.654,0-1.28,0.378-1.562,1.014c-0.001,0.002-0.001,0.004-0.002,0.006
				c-0.797-0.368-1.587-0.745-2.374-1.13c0.001-0.002,0.001-0.004,0.001-0.004c0.432-0.842,0.095-1.873-0.747-2.299
				c-0.249-0.128-0.515-0.188-0.777-0.188c-0.621,0-1.22,0.341-1.522,0.934c-0.775-0.41-1.544-0.831-2.308-1.259
				c0.469-0.816,0.188-1.86-0.631-2.331c-0.269-0.155-0.563-0.229-0.853-0.229c-0.589,0-1.163,0.305-1.479,0.852
				c-0.752-0.451-1.497-0.91-2.238-1.375c0.51-0.795,0.285-1.85-0.506-2.363c-0.287-0.188-0.609-0.276-0.928-0.276
				c-0.559,0-1.107,0.274-1.435,0.776c-0.729-0.49-1.449-0.987-2.163-1.493c0.548-0.763,0.377-1.83-0.386-2.382
				c-0.303-0.219-0.655-0.325-1.002-0.325c-0.526,0-1.045,0.241-1.38,0.696c-0.7-0.525-1.396-1.059-2.085-1.603
				c0.586-0.731,0.472-1.805-0.259-2.394c-0.316-0.257-0.696-0.381-1.073-0.381c-0.492,0-0.981,0.212-1.32,0.619
				c-0.673-0.563-1.34-1.131-2-1.707c0.619-0.703,0.559-1.773-0.137-2.401c-0.326-0.294-0.735-0.439-1.142-0.439
				c-0.461,0-0.921,0.187-1.258,0.55c-0.644-0.599-1.279-1.201-1.909-1.811c0.651-0.67,0.647-1.74-0.016-2.403
				c-0.333-0.332-0.769-0.498-1.205-0.498c-0.43,0-0.861,0.161-1.194,0.482c-0.61-0.626-1.215-1.264-1.812-1.907
				c0.687-0.635,0.736-1.704,0.109-2.396c-0.336-0.375-0.802-0.565-1.271-0.565c-0.401,0-0.804,0.141-1.129,0.426
				c-0.576-0.659-1.146-1.327-1.708-1.999c0.722-0.6,0.832-1.667,0.24-2.393c-0.337-0.419-0.831-0.636-1.328-0.636
				c-0.375,0-0.753,0.124-1.069,0.376c-0.542-0.689-1.074-1.385-1.601-2.086c0.759-0.558,0.923-1.621,0.37-2.383
				c-0.335-0.459-0.857-0.703-1.386-0.703c-0.345,0-0.693,0.104-0.994,0.319c-0.505-0.716-1.003-1.437-1.492-2.165
				c0.786-0.517,1.009-1.572,0.498-2.362c-0.329-0.505-0.876-0.778-1.436-0.778c-0.317,0-0.638,0.088-0.924,0.271
				c-0.467-0.742-0.926-1.486-1.375-2.239c0.814-0.472,1.095-1.517,0.622-2.333c-0.316-0.551-0.891-0.856-1.483-0.856
				c-0.29,0-0.583,0.073-0.852,0.228c-0.427-0.764-0.846-1.536-1.255-2.309c0.839-0.428,1.173-1.46,0.743-2.3
				c-0.3-0.592-0.899-0.933-1.522-0.933c-0.262,0-0.529,0.061-0.778,0.188c-0.386-0.787-0.763-1.579-1.132-2.373
				c0,0,0.001,0,0.002,0c0.863-0.383,1.252-1.397,0.866-2.262c-0.283-0.635-0.908-1.012-1.562-1.012
				c-0.233,0-0.47,0.047-0.696,0.148c-0.002,0-0.004,0.002-0.006,0.004c-0.345-0.807-0.679-1.617-1.005-2.431
				c0.003-0.002,0.005-0.002,0.008-0.002c0.882-0.341,1.324-1.33,0.985-2.209c-0.26-0.682-0.91-1.1-1.599-1.1
				c-0.204,0-0.412,0.036-0.613,0.114c-0.005,0-0.009,0.004-0.013,0.006c-0.302-0.821-0.593-1.648-0.877-2.479
				c0.005,0,0.009,0,0.013-0.002c0.9-0.293,1.393-1.259,1.098-2.158c-0.234-0.721-0.904-1.181-1.625-1.181
				c-0.175,0-0.354,0.026-0.529,0.084c-0.004,0-0.008,0.002-0.012,0.004c-0.259-0.835-0.51-1.677-0.75-2.522
				c0.006,0,0.01,0,0.014-0.002c0.914-0.245,1.454-1.185,1.211-2.097c-0.205-0.763-0.896-1.267-1.653-1.267
				c-0.147,0-0.296,0.02-0.445,0.059c-0.001,0.002-0.002,0.002-0.004,0.002c-0.214-0.848-0.419-1.699-0.613-2.556
				c0.002-0.001,0.004,0,0.007-0.001c0.924-0.196,1.515-1.106,1.316-2.028c-0.168-0.806-0.881-1.357-1.673-1.357
				c-0.117,0-0.235,0.013-0.354,0.037c-0.169-0.858-0.328-1.718-0.479-2.583c0.934-0.149,1.568-1.024,1.42-1.956
				c-0.134-0.843-0.86-1.443-1.689-1.443c-0.085,0-0.172,0.007-0.259,0.02c-0.122-0.867-0.236-1.734-0.339-2.607
				c0.934-0.105,1.607-0.943,1.509-1.878c-0.091-0.877-0.834-1.529-1.7-1.529c-0.054,0-0.108,0.002-0.163,0.008
				c-0.076-0.873-0.146-1.746-0.203-2.623c0.935-0.061,1.649-0.857,1.6-1.793c-0.046-0.916-0.805-1.623-1.71-1.623
				c-0.021,0-0.043,0.001-0.065,0.002c-0.033-0.871-0.055-1.748-0.068-2.627c0.934-0.014,1.688-0.773,1.688-1.709
				c-0.002-0.938-0.756-1.695-1.688-1.709c0.014-0.879,0.035-1.757,0.068-2.632c0.023,0.001,0.046,0.001,0.069,0.001
				c0.903,0,1.657-0.705,1.706-1.617c0.047-0.936-0.666-1.734-1.6-1.795c0.057-0.877,0.127-1.749,0.203-2.621
				c0.055,0.006,0.109,0.008,0.163,0.008c0.866,0,1.61-0.652,1.701-1.533c0.102-0.934-0.576-1.773-1.51-1.878
				c0.103-0.872,0.217-1.741,0.339-2.606c0.087,0.014,0.173,0.02,0.258,0.02c0.828,0,1.555-0.601,1.69-1.443
				c0.148-0.929-0.488-1.806-1.42-1.955c0.15-0.865,0.31-1.728,0.479-2.583c0.119,0.024,0.237,0.037,0.354,0.037
				c0.791,0,1.502-0.552,1.673-1.356c0.196-0.924-0.393-1.831-1.319-2.029c-0.002-0.002-0.002,0-0.003-0.002
				c0.193-0.854,0.398-1.705,0.612-2.556c0.002,0,0.004,0.002,0.007,0.002c0.149,0.04,0.299,0.06,0.447,0.06
				c0.755,0,1.446-0.502,1.65-1.266c0.245-0.912-0.299-1.854-1.212-2.098c-0.005,0-0.009,0-0.015-0.004
				c0.24-0.844,0.491-1.685,0.75-2.521c0.004,0.002,0.008,0.004,0.012,0.006c0.176,0.058,0.354,0.084,0.529,0.084
				c0.722,0,1.392-0.46,1.626-1.185c0.291-0.896-0.2-1.861-1.098-2.154c-0.005-0.002-0.01-0.002-0.015-0.002
				c0.284-0.831,0.575-1.66,0.877-2.48c0.006,0.002,0.01,0.006,0.014,0.008c0.201,0.076,0.407,0.113,0.61,0.113
				c0.689,0,1.339-0.419,1.601-1.1c0.339-0.881-0.104-1.87-0.986-2.209c-0.002,0-0.004,0-0.007-0.002
				c0.325-0.814,0.66-1.625,1.005-2.433c0.004,0.002,0.006,0.004,0.01,0.006c0.227,0.101,0.463,0.149,0.696,0.149
				c0.655,0,1.28-0.379,1.562-1.015c0.386-0.861-0.003-1.876-0.866-2.26c-0.002,0-0.004,0-0.006-0.004
				c0.369-0.796,0.748-1.585,1.132-2.37c0.002,0,0.002,0,0.003,0c0.25,0.128,0.515,0.188,0.777,0.188
				c0.623,0,1.223-0.342,1.524-0.933c0.429-0.843,0.095-1.873-0.747-2.303c0.41-0.772,0.828-1.542,1.256-2.308
				c0.27,0.154,0.563,0.229,0.854,0.229c0.591,0,1.165-0.307,1.481-0.855c0.47-0.814,0.193-1.861-0.623-2.334
				c0.45-0.752,0.908-1.501,1.375-2.238c0.287,0.184,0.607,0.271,0.925,0.271c0.561,0,1.11-0.274,1.437-0.779
				c0.516-0.787,0.29-1.847-0.499-2.364c0.49-0.726,0.987-1.446,1.492-2.163c0.302,0.218,0.651,0.322,0.998,0.322
				c0.528,0,1.05-0.244,1.384-0.705c0.552-0.762,0.387-1.826-0.372-2.384c0.526-0.7,1.06-1.396,1.601-2.085
				c0.317,0.252,0.695,0.375,1.07,0.375c0.498,0,0.99-0.217,1.328-0.633c0.591-0.732,0.48-1.797-0.239-2.395
				c0.561-0.672,1.13-1.34,1.706-1.999c0.327,0.286,0.732,0.429,1.135,0.429c0.467,0,0.931-0.19,1.268-0.564
				c0.628-0.695,0.576-1.769-0.11-2.402c0.596-0.644,1.2-1.279,1.811-1.908c0.332,0.324,0.762,0.486,1.193,0.486
				c0.437,0,0.875-0.168,1.208-0.502c0.661-0.662,0.666-1.73,0.014-2.401c0.629-0.61,1.266-1.216,1.909-1.812
				c0.337,0.366,0.796,0.552,1.258,0.552c0.407,0,0.815-0.145,1.141-0.439c0.697-0.627,0.757-1.697,0.138-2.4
				c0.661-0.576,1.327-1.145,1.999-1.707c0.338,0.408,0.829,0.621,1.322,0.621c0.377,0,0.756-0.123,1.072-0.379
				c0.734-0.592,0.846-1.666,0.26-2.4c0.688-0.542,1.384-1.074,2.084-1.602c0.335,0.457,0.854,0.699,1.38,0.699
				c0.349,0,0.701-0.106,1.005-0.328c0.762-0.553,0.932-1.62,0.382-2.381c0.716-0.505,1.437-1.003,2.166-1.495
				c0.328,0.505,0.875,0.779,1.433,0.779c0.319,0,0.642-0.09,0.929-0.276c0.791-0.515,1.016-1.57,0.506-2.361
				c0.741-0.467,1.486-0.926,2.238-1.377c0.318,0.549,0.892,0.855,1.482,0.855c0.29,0,0.584-0.074,0.854-0.23
				c0.817-0.47,1.101-1.518,0.628-2.336c0,0,0,0,0-0.003c0.764-0.426,1.533-0.844,2.309-1.255c0.301,0.595,0.901,0.936,1.524,0.936
				c0.262,0,0.528-0.061,0.777-0.188c0.841-0.429,1.177-1.457,0.747-2.301c-0.001-0.002-0.002-0.002-0.004-0.004
				c0.789-0.385,1.577-0.763,2.374-1.133c0.001,0.002,0.001,0.004,0.002,0.006c0.283,0.637,0.908,1.016,1.563,1.016
				c0.232,0,0.469-0.047,0.695-0.148c0.862-0.383,1.252-1.395,0.867-2.26c-0.001-0.004-0.004-0.005-0.005-0.009
				c0.804-0.343,1.615-0.679,2.429-1.006c0.001,0.004,0.002,0.01,0.002,0.01c0.263,0.683,0.911,1.102,1.598,1.102
				c0.205,0,0.412-0.037,0.614-0.115c0.882-0.335,1.322-1.329,0.985-2.21c-0.002-0.006-0.006-0.012-0.01-0.018
				c0.823-0.301,1.651-0.592,2.48-0.877c0.003,0.006,0.003,0.012,0.005,0.018c0.235,0.723,0.905,1.182,1.626,1.182
				c0.175,0,0.354-0.027,0.53-0.084c0.897-0.292,1.39-1.259,1.099-2.156c-0.002-0.007-0.003-0.009-0.005-0.014
				c0.836-0.258,1.675-0.508,2.52-0.75c0.002,0.006,0.002,0.014,0.003,0.018c0.205,0.766,0.896,1.27,1.651,1.27
				c0.147,0,0.296-0.02,0.445-0.06c0.912-0.245,1.454-1.183,1.211-2.095c-0.001-0.004-0.002-0.006-0.003-0.008
				c0.848-0.215,1.699-0.42,2.556-0.616c0,0.003,0,0.006,0,0.012c0.173,0.802,0.883,1.355,1.673,1.355
				c0.118,0,0.238-0.013,0.357-0.038c0.924-0.195,1.516-1.105,1.32-2.029l-0.002-0.002c0.859-0.171,1.72-0.328,2.583-0.479
				c0.133,0.843,0.862,1.443,1.688,1.443c0.089,0,0.18-0.007,0.271-0.021c0.93-0.147,1.566-1.02,1.422-1.95
				c0.866-0.122,1.735-0.236,2.607-0.339c0.096,0.873,0.835,1.521,1.697,1.521c0.06,0,0.12-0.004,0.181-0.01
				c0.934-0.099,1.611-0.932,1.523-1.865c0.871-0.076,1.746-0.145,2.621-0.203c0.058,0.902,0.805,1.604,1.702,1.604
				c0.031,0,0.062,0,0.094-0.002c0.937-0.047,1.656-0.844,1.618-1.777c0.873-0.031,1.748-0.055,2.627-0.068
				c0.012,0.938,0.771,1.691,1.709,1.691c0.236,0,0.462-0.049,0.667-0.136C277.022,127.029,277.449,126.428,277.457,125.73
				 M275.75,343.73c56.609,0,102.5-45.896,102.5-102.5c0-56.608-45.891-102.5-102.5-102.5c-56.61,0-102.5,45.892-102.5,102.5
				C173.25,297.834,219.14,343.73,275.75,343.73 M273.502,121.668l-0.001,0.071c-0.589,0.011-1.176,0.026-1.763,0.046l-0.004-0.07
				l-2.219,0.149l-2.264,0.081l0.003,0.071c-0.579,0.041-1.158,0.086-1.736,0.134l-0.007-0.062l-2.085,0.245l-2.41,0.211
				l0.007,0.073c-0.57,0.069-1.139,0.144-1.706,0.222l-0.013-0.079l-2.377,0.414l-2.135,0.302l0.011,0.069
				c-0.249,0.045-0.498,0.09-0.747,0.135v-0.109l-3.539,0.803l-5.321,1.059l0.15,0.146l-1.085,0.312l-2.6,0.659l0.042,0.082
				c-0.404,0.121-0.806,0.243-1.208,0.367l-0.037,0.012l-0.028-0.057l-1.819,0.626l-2.268,0.7l0.029,0.072
				c-0.271,0.094-0.543,0.189-0.814,0.286l-0.021-0.087l-2.426,0.977l-3.313,1.21l0.069,0.104c-0.286,0.118-0.571,0.239-0.856,0.359
				l-0.028-0.055l-1.741,0.81l-1.621,0.69l0.014,0.056l-0.121,0.056c-0.662,0.308-1.318,0.62-1.973,0.938l-0.033-0.063l-1.846,0.979
				l-3.579,1.746l0.109,0.11c-0.074,0.041-0.148,0.082-0.223,0.123l-0.038-0.064l-1.979,1.188l-0.48,0.268V138l-1.022,0.613
				c-0.625,0.375-1.245,0.755-1.862,1.141l-0.045-0.07l-2.167,1.462l-1.658,1.044l0.034,0.053c-0.472,0.321-0.941,0.646-1.408,0.973
				l-0.046-0.062l-1.962,1.477l-1.712,1.208l0.039,0.054c-0.46,0.349-0.918,0.699-1.374,1.055l-0.042-0.051l-1.695,1.418
				l-1.803,1.422l0.043,0.054c-0.445,0.375-0.888,0.753-1.329,1.135l-0.043-0.048l-1.502,1.394l-1.844,1.607l0.05,0.058
				c-0.43,0.402-0.857,0.808-1.28,1.215l-0.048-0.046l-1.529,1.575l-1.639,1.591l0.048,0.05c-0.413,0.428-0.822,0.859-1.229,1.295
				l-0.055-0.049l-1.642,1.879l-1.346,1.455l0.042,0.039c-0.385,0.443-0.767,0.891-1.145,1.341l-0.06-0.047l-1.58,2.011
				l-1.241,1.486l0.044,0.037c-0.356,0.457-0.71,0.918-1.06,1.381l-0.055-0.04l-1.252,1.778l-1.424,1.895l0.06,0.043
				c-0.329,0.471-0.655,0.943-0.978,1.418l-0.045-0.029l-0.957,1.512L174.215,178l0.069,0.047c-0.287,0.459-0.583,0.941-0.894,1.457
				l-0.06-0.035l-1.096,1.962l-1.19,1.987l0.061,0.035c-0.354,0.641-0.702,1.285-1.044,1.93l-0.491,0.924h-0.028l-0.341,0.695
				l-1.047,1.971l0.066,0.034c-0.216,0.444-0.43,0.89-0.641,1.338l-0.076-0.038l-1.674,3.923c-0.313,0.733-0.618,1.468-0.915,2.206
				l-0.063-0.021l-0.822,2.236l-0.439,1.101l0.027,0.02l-0.099,0.27c-0.183,0.498-0.362,0.998-0.539,1.5l-0.066-0.031l-0.769,2.458
				l-1.345,3.935h0.138c-0.065,0.225-0.13,0.451-0.195,0.676l-0.114,0.401h-0.034l-0.259,1.032l-0.391,1.372l0.039,0.026
				l-0.149,0.594c-0.18,0.715-0.353,1.43-0.519,2.146l-0.059-0.012l-0.785,3.973c-0.143,0.725-0.28,1.455-0.41,2.188l-0.069-0.01
				l-0.301,2.134l-0.409,2.354l0.076,0.013c-0.079,0.57-0.153,1.142-0.223,1.715l-0.073-0.007l-0.21,2.407l-0.244,2.078l0.063,0.006
				c-0.049,0.582-0.096,1.164-0.136,1.748l-0.062-0.003l-0.086,2.284l-0.142,2.193l0.06,0.004c-0.02,0.594-0.035,1.188-0.046,1.783
				h-0.07l0.035,2.232l-0.035,2.232h0.07c0.011,0.596,0.026,1.189,0.046,1.781l-0.06,0.004l0.143,2.209l0.085,2.254l0.061-0.002
				c0.041,0.588,0.087,1.176,0.137,1.764l-0.062,0.006l0.241,2.049l0.212,2.436l0.074-0.008c0.07,0.573,0.145,1.144,0.223,1.714
				l-0.077,0.013l0.407,2.34l0.302,2.146l0.07-0.01c0.13,0.731,0.267,1.46,0.41,2.188l0.07,0.357l-0.042,0.021l0.35,1.54
				l0.405,2.059l0.06-0.014c0.037,0.158,0.074,0.316,0.111,0.475h-0.129l1.045,3.678l0.256,1.018h0.032l0.113,0.397
				c0.064,0.228,0.13,0.456,0.196,0.683h-0.141l1.302,3.805l0.814,2.627l0.077-0.038c0.172,0.489,0.348,0.978,0.526,1.464l0.1,0.273
				l-0.032,0.021l0.475,1.185l0.692,1.884h-0.117l1.834,3.949l1.709,3.999l0.071-0.073l0.906,1.711l1.076,2.195l0.069-0.036
				c0.265,0.495,0.533,0.989,0.804,1.48l-0.055,0.032l1.138,1.907l1.141,2.042l0.059-0.033c0.295,0.488,0.595,0.975,0.897,1.46
				l-0.06,0.039l1.309,1.949l1.163,1.849l0.056-0.035c0.323,0.477,0.65,0.949,0.979,1.42l-0.058,0.043l1.424,1.896l1.245,1.766
				l0.053-0.037c0.353,0.466,0.708,0.93,1.067,1.391l-0.051,0.042l1.356,1.62l1.479,1.881l0.058-0.047
				c0.376,0.447,0.755,0.891,1.138,1.332l-0.045,0.042l1.403,1.513l1.592,1.822l0.054-0.048c0.414,0.442,0.824,0.874,1.224,1.289
				l-0.053,0.054l1.845,1.785l1.315,1.35l0.04-0.039c0.431,0.414,0.865,0.826,1.302,1.234l-0.05,0.057l1.776,1.551l1.555,1.446
				l0.046-0.05c0.441,0.382,0.885,0.76,1.332,1.137l-0.04,0.049l1.739,1.375l1.756,1.47l0.042-0.051
				c0.441,0.345,0.901,0.698,1.391,1.068l-0.033,0.046l1.646,1.166l2.007,1.506l0.042-0.055c0.472,0.33,0.947,0.658,1.426,0.983
				l-0.04,0.062l1.895,1.188l1.917,1.29l0.041-0.062c0.479,0.299,0.961,0.594,1.445,0.887l-0.031,0.053l1.751,0.981l2.193,1.316
				l0.039-0.067c0.499,0.277,1,0.551,1.504,0.82l-0.036,0.072l2.247,1.1l1.81,0.957l0.03-0.059c0.45,0.217,0.9,0.432,1.353,0.645
				l-0.04,0.079l2.638,1.124l1.507,0.695l0.023-0.044c0.458,0.194,0.917,0.386,1.376,0.573l-0.041,0.081l2.703,0.992l1.657,0.665
				l0.024-0.049c0.426,0.156,0.853,0.309,1.281,0.459l-0.045,0.09l2.952,0.906l3.505,1.195v-0.09l1.733,0.447l2.933,0.822
				l0.016-0.065c0.506,0.126,1.028,0.253,1.56,0.376l-0.016,0.076l2.233,0.432l1.348,0.309l0.021-0.043l0.394,0.076
				c0.722,0.139,1.446,0.275,2.172,0.403l-0.011,0.072l2.645,0.372l1.848,0.312l0.008-0.051c0.569,0.078,1.14,0.152,1.712,0.223
				l-0.007,0.072l2.34,0.205l2.158,0.256l0.007-0.066c0.578,0.048,1.156,0.092,1.736,0.134l-0.003,0.071l2.213,0.08l2.267,0.153
				l0.005-0.073c0.591,0.02,1.184,0.035,1.777,0.046l0.001,0.071l2.239-0.035l2.232,0.034l0.001-0.069
				c0.597-0.012,1.192-0.027,1.786-0.047l0.005,0.074l2.27-0.155l2.197-0.079l-0.002-0.07c0.58-0.042,1.161-0.086,1.74-0.135
				l0.007,0.067l2.159-0.257l2.348-0.205l-0.007-0.073c0.567-0.069,1.134-0.144,1.699-0.221l0.01,0.062l2.098-0.358l2.42-0.342
				l-0.011-0.071c0.596-0.105,1.191-0.216,1.785-0.331l0.02,0.079l2.4-0.552l1.941-0.381l-0.014-0.064
				c0.626-0.146,1.25-0.297,1.872-0.452l0.021,0.063l2.205-0.625l2.885-0.727l-0.044-0.088c0.202-0.061,0.404-0.121,0.605-0.182
				l0.02,0.069l2.057-0.701l2.475-0.753l-0.027-0.082c0.639-0.221,1.276-0.446,1.91-0.678l0.022,0.045l1.5-0.602l3.046-1.114
				l-0.052-0.092c0.078-0.032,0.156-0.064,0.234-0.097l0.018,0.071l2.269-1.041l2.792-1.194l-0.036-0.074
				c0.438-0.205,0.875-0.412,1.311-0.623l0.03,0.061l1.878-0.992l2.263-1.107l-0.037-0.072c0.497-0.266,0.992-0.535,1.485-0.808
				l0.038,0.064l1.985-1.19l1.957-1.092l-0.036-0.062c0.485-0.293,0.966-0.59,1.446-0.889l0.043,0.065l2-1.347l1.813-1.14
				l-0.038-0.059c0.489-0.332,0.953-0.653,1.403-0.969l0.041,0.056l2.116-1.586l1.57-1.115l-0.029-0.041
				c0.459-0.347,0.916-0.697,1.369-1.052l0.036,0.043l1.476-1.229l2.044-1.607l-0.047-0.059c0.444-0.373,0.884-0.748,1.321-1.127
				l0.043,0.047l1.502-1.394l1.838-1.604l-0.05-0.057c0.431-0.402,0.858-0.808,1.283-1.216l0.045,0.044l1.451-1.492l1.728-1.674
				l-0.051-0.053c0.409-0.424,0.816-0.852,1.22-1.283l0.062,0.054l1.721-1.978l1.269-1.371l-0.043-0.039
				c0.379-0.438,0.754-0.879,1.126-1.32l0.054,0.043l1.455-1.846l1.393-1.665l-0.05-0.041c0.338-0.433,0.688-0.89,1.059-1.382
				l0.05,0.035l1.265-1.787l1.41-1.883l-0.053-0.039c0.328-0.467,0.652-0.938,0.974-1.412l0.056,0.035l1.166-1.853l1.321-1.967
				l-0.061-0.039c0.389-0.622,0.771-1.247,1.148-1.878l0.604-1.012h0.021l0.316-0.566l1.135-1.903l-0.055-0.032
				c0.354-0.641,0.704-1.287,1.047-1.935l0.486-0.917h0.024l0.316-0.643l0.147-0.277l-0.005-0.01l0.642-1.303
				c0.298-0.605,0.589-1.213,0.876-1.822l0.074,0.037l1.023-2.394l0.378-0.812l-0.021-0.021l0.29-0.678
				c0.009-0.021,0.019-0.043,0.027-0.064l0.126,0.125l1.579-4.293l0.802-1.992l-0.062-0.025c0.255-0.705,0.502-1.414,0.747-2.122
				l0.017-0.048l0.045,0.007l0.424-1.37l0.888-2.576l-0.085-0.024c0.062-0.201,0.121-0.398,0.179-0.593l0.093,0.047l0.769-3.061
				l0.439-1.557l-0.043-0.021l0.053-0.211c0.221-0.879,0.434-1.764,0.635-2.651l0.052-0.229h0.044l0.292-1.489l0.714-3.163h-0.103
				c0.046-0.251,0.092-0.502,0.136-0.753l0.07,0.01l0.313-2.221l0.513-2.967h-0.099c0.045-0.346,0.09-0.691,0.132-1.037l0.074,0.006
				l0.212-2.426l0.242-2.062l-0.062-0.006c0.049-0.582,0.095-1.162,0.136-1.744l0.062,0.002l0.086-2.258l0.144-2.227l-0.061-0.003
				c0.02-0.582,0.034-1.165,0.045-1.749l0.071-0.001l-0.035-2.258l0.035-2.259h-0.071c-0.011-0.584-0.026-1.169-0.046-1.751
				l0.061-0.004l-0.139-2.147l-0.086-2.339l-0.066,0.003c-0.04-0.576-0.085-1.152-0.134-1.727l0.063-0.007l-0.246-2.095
				l-0.211-2.412l-0.073,0.007c-0.042-0.343-0.086-0.687-0.131-1.028h0.1l-0.521-3.012l-0.31-2.191l-0.069,0.011
				c-0.044-0.247-0.089-0.495-0.134-0.741h0.111l-0.748-3.293l-1.095-5.586l-0.171,0.176l-0.202-0.711l-0.286-1.144h-0.039
				l-0.113-0.396c-0.188-0.66-0.381-1.318-0.581-1.973l0.074-0.021l-0.837-2.448l-0.646-2.084l-0.062,0.021
				c-0.236-0.683-0.478-1.364-0.726-2.041l-0.093-0.251l0.031-0.021l-0.47-1.172l-1.104-2.999l-0.083,0.048
				c-0.195-0.474-0.393-0.946-0.594-1.417l-0.038-0.088l0.043-0.027l-0.685-1.473l-0.59-1.38h0.16l-2.286-4.305l-1.239-2.521
				l-0.077,0.052c-0.187-0.346-0.376-0.691-0.566-1.035l0.062-0.035l-1.163-1.942l-1.122-2.013l-0.063,0.036
				c-0.29-0.479-0.583-0.958-0.879-1.433l0.062-0.039l-1.288-1.916l-1.206-1.921l-0.061,0.04c-0.317-0.467-0.638-0.932-0.961-1.394
				l0.06-0.044l-1.406-1.869l-1.288-1.828l-0.057,0.041c-0.343-0.453-0.688-0.905-1.036-1.353l0.048-0.04l-1.363-1.631l-1.49-1.891
				l-0.055,0.044c-0.371-0.44-0.744-0.878-1.121-1.312l0.043-0.039l-1.408-1.521l-1.603-1.83l-0.051,0.045
				c-0.4-0.43-0.804-0.854-1.211-1.277l0.051-0.052l-1.664-1.612l-1.522-1.568l-0.049,0.048c-0.421-0.405-0.845-0.809-1.272-1.208
				l0.049-0.055l-1.925-1.68l-1.424-1.316l-0.038,0.041c-0.438-0.38-0.878-0.756-1.322-1.129l0.049-0.062l-1.914-1.502l-1.605-1.345
				l-0.042,0.053c-0.452-0.352-0.907-0.701-1.363-1.047l0.032-0.045l-1.623-1.15l-0.491-0.368h1.655l-11.819-6.59l-2.179-1.308
				l0.039-0.039l-3.412-1.676l-2.07-1.098l-0.033,0.066c-0.44-0.215-0.881-0.425-1.324-0.635l0.033-0.066l-2.148-0.921l-2.875-1.341
				l-0.027,0.104c-0.433-0.18-0.868-0.357-1.302-0.534l0.016-0.062l-1.779-0.65l-1.74-0.703l-0.028,0.057
				c-0.773-0.281-1.55-0.555-2.333-0.822l0.011-0.053l-1.647-0.508l-2.236-0.766l-0.023,0.07c-0.247-0.076-0.495-0.15-0.743-0.225
				l0.043-0.084l-2.749-0.695l-2.387-0.678l-0.022,0.068c-0.779-0.195-1.56-0.383-2.346-0.562l-4.893-1.12v0.12
				c-0.245-0.045-0.491-0.09-0.737-0.133l0.011-0.07l-2.271-0.32l-2.934-0.504v0.096c-0.346-0.046-0.693-0.09-1.041-0.133
				l0.006-0.062l-2.154-0.193l-2.332-0.277l-0.007,0.068c-0.58-0.049-1.162-0.094-1.743-0.135l0.003-0.07l-2.257-0.081l-2.221-0.149
				l-0.004,0.07c-0.588-0.02-1.178-0.035-1.769-0.046l-0.001-0.071l-2.241,0.035L273.502,121.668L273.502,121.668z M275.75,339.73
				c-54.313,0-98.5-44.188-98.5-98.5s44.187-98.5,98.5-98.5s98.5,44.188,98.5,98.5S330.063,339.73,275.75,339.73L275.75,339.73z"/>
		</g>
		<path fill="#4F8699" d="M335.75,241.23c0,33.133-26.866,60-60,60c-33.135,0-60-26.867-60-60s26.865-60,60-60
			C308.884,181.23,335.75,208.098,335.75,241.23z"/>
		<path fill="#4BA7AF" d="M329.75,241.23c0,29.822-24.178,54-54,54s-54-24.178-54-54c0-29.817,24.178-54,54-54
			S329.75,211.413,329.75,241.23z"/>
		<circle fill="#58B6B4" cx="275.75" cy="241.23" r="30"/>
		<circle fill="#4F8699" cx="275.75" cy="241.23" r="15"/>
		<circle fill="#F5F6CA" cx="295.838" cy="222.566" r="8.336"/>
		<g>
			<defs>
				<path id="SVGID_1_" d="M320.75,241.23c0,24.85-20.148,45-45,45c-24.851,0-45-20.15-45-45c0-24.849,20.149-45,45-45
					C300.602,196.23,320.75,216.382,320.75,241.23z"/>
			</defs>
			<clipPath id="SVGID_2_">
				<use xlink:href="#SVGID_1_"  overflow="visible"/>
			</clipPath>
			<polygon opacity="0.2" clip-path="url(#SVGID_2_)" fill="#FFFFFF" points="376.75,140.772 195.292,322.23 93.834,322.23 
				93.834,114.105 			"/>
		</g>
	</g>
	<circle id="Screw_1_" fill="#333333" cx="204.875" cy="133.355" r="4.875"/>
	<circle id="Screw" fill="#333333" cx="348.875" cy="133.355" r="4.875"/>
	
		<line id="Border_29_" fill="none" stroke="#333333" stroke-width="4" stroke-miterlimit="10" x1="144" y1="330.23" x2="144" y2="349.02"/>
	<path id="Logo_14_" fill="#E2E2E2" d="M318,75.48c0,4.694-3.806,8.5-8.5,8.5H245c-4.694,0-8.5-3.806-8.5-8.5l0,0
		c0-4.694,3.806-8.5,8.5-8.5h64.5C314.194,66.98,318,70.786,318,75.48L318,75.48z"/>
	
		<circle id="light_5_" fill="#BB4D67" stroke="#333333" stroke-width="4" stroke-miterlimit="10" cx="142.25" cy="174.48" r="9.25"/>
	<path id="trigger" fill="#616263" stroke="#333333" stroke-width="4" stroke-miterlimit="10" d="M72,117.605
		c7.496-3.229,15.25-1.125,17.5,2.875s0.75,12.75-11.75,14.875s-14.375-0.375-15.5-3.875S63.875,121.105,72,117.605z"/>
	<path id="light_4_" fill="none" stroke="#E2E2E2" stroke-width="2" stroke-linecap="round" stroke-miterlimit="10" d="
		M80.125,119.48c-4.125,0.75-9.5,2.955-11.875,6.604"/>
	<path id="name_border" fill="#616263" stroke="#333333" stroke-width="4" stroke-miterlimit="10" d="M426.999,193.396
		c0,1.564-1.269,2.834-2.835,2.834h-22.828c-1.566,0-2.835-1.27-2.835-2.834v-28.414c0-1.564,1.269-2.834,2.835-2.834h22.828
		c1.566,0,2.835,1.27,2.835,2.834V193.396z"/>
	<path id="wheel_border" fill="#616263" stroke="#333333" stroke-width="4" stroke-miterlimit="10" d="M60.321,114.787
		c12.737-3.797,24.271-4.877,32.429-7.307c0.68-0.202,1.34-0.41,1.985-0.623c-3.839-2.4-8.373-3.793-13.234-3.793
		C72.574,103.064,64.744,107.747,60.321,114.787z"/>
	<path id="wheel" fill="#535454" d="M92.877,107.441c-0.267-0.498-0.283-1.113,0.011-1.639c-0.152-0.078-0.31-0.152-0.466-0.227
		c-0.37,0.837-1.34,1.238-2.197,0.893c-0.856-0.347-1.275-1.309-0.958-2.171c-0.165-0.052-0.331-0.099-0.496-0.151
		c-0.236,0.883-1.132,1.429-2.03,1.221c-0.899-0.207-1.464-1.086-1.288-1.983c-0.171-0.028-0.342-0.052-0.514-0.075
		c-0.098,0.908-0.894,1.586-1.813,1.521c-0.918-0.063-1.613-0.847-1.582-1.758c-0.173-0.001-0.348-0.001-0.519,0.003
		c0.046,0.912-0.636,1.707-1.554,1.788c-0.919,0.081-1.727-0.583-1.84-1.494c-0.171,0.026-0.342,0.051-0.513,0.081
		c0.193,0.896-0.355,1.791-1.252,2.016s-1.8-0.309-2.052-1.19c-0.164,0.056-0.33,0.105-0.492,0.161
		c0.332,0.857-0.07,1.827-0.922,2.189c-0.851,0.362-1.826-0.023-2.213-0.855c-0.154,0.078-0.306,0.161-0.458,0.242
		c0.456,0.793,0.211,1.812-0.571,2.299c-0.783,0.49-1.804,0.264-2.316-0.492c-0.141,0.1-0.277,0.207-0.415,0.311
		c0.573,0.711,0.489,1.754-0.205,2.357c-0.696,0.605-1.738,0.542-2.364-0.125c-0.124,0.123-0.247,0.242-0.367,0.366
		c0.68,0.616,0.76,1.66,0.17,2.365c-0.595,0.708-1.638,0.808-2.357,0.246c-0.102,0.139-0.205,0.28-0.306,0.421
		c0.263,0.17,0.458,0.401,0.592,0.662c12.231-3.5,23.275-4.593,31.161-6.941C92.793,107.468,92.833,107.453,92.877,107.441z"/>
	<path fill="none" d="M169.75,242.903c0-51.465,40.41-106,103.196-106c67.109,0,108.804,50.327,108.804,106"/>
	<text id="Text_3_" transform="matrix(0.7385 -0.6743 0.6743 0.7385 203.1743 164.9678)"><tspan x="0" y="0" fill="#FFFFFF" font-family="'Helvetica-Bold'" font-size="8">C</tspan><tspan x="5.719" y="-0.003" fill="#FFFFFF" font-family="'Helvetica-Bold'" font-size="8" rotate="3.169">R</tspan><tspan x="11.391" y="0.314" fill="#FFFFFF" font-family="'Helvetica-Bold'" font-size="8" rotate="6.242">E</tspan><tspan x="16.626" y="0.879" fill="#FFFFFF" font-family="'Helvetica-Bold'" font-size="8" rotate="9.374">A</tspan><tspan x="22.265" y="1.819" fill="#FFFFFF" font-family="'Helvetica-Bold'" font-size="8" rotate="12.418">T</tspan><tspan x="26.973" y="2.853" fill="#FFFFFF" font-family="'Helvetica-Bold'" font-size="8" rotate="15.225">T</tspan><tspan x="31.63" y="4.145" fill="#FFFFFF" font-family="'Helvetica-Bold'" font-size="8" rotate="17.277">I</tspan><tspan x="33.702" y="4.75" fill="#FFFFFF" font-family="'Helvetica-Bold'" font-size="8" rotate="19.588">C</tspan><tspan x="39.063" y="6.648" fill="#FFFFFF" font-family="'Helvetica-Bold'" font-size="8" rotate="23.065">O</tspan><tspan x="44.733" y="9.069" fill="#FFFFFF" font-family="'Helvetica-Bold'" font-size="8" rotate="26.552">N</tspan><tspan x="49.827" y="11.652" fill="#FFFFFF" font-family="'Helvetica-Bold'" font-size="8" rotate="28.848"> </tspan><tspan x="51.733" y="12.702" fill="#FFFFFF" font-family="'Helvetica-Bold'" font-size="8" rotate="30.109"> </tspan><tspan x="53.626" y="13.799" fill="#FFFFFF" font-family="'Helvetica-Bold'" font-size="8" rotate="31.372"> </tspan><tspan x="55.506" y="14.946" fill="#FFFFFF" font-family="'Helvetica-Bold'" font-size="8" rotate="32.635"> </tspan><tspan x="57.369" y="16.109" fill="#FFFFFF" font-family="'Helvetica-Bold'" font-size="8" rotate="34.639">L</tspan><tspan x="61.327" y="18.837" fill="#FFFFFF" font-family="'Helvetica-Bold'" font-size="8" rotate="37.454">E</tspan><tspan x="65.51" y="22.031" fill="#FFFFFF" font-family="'Helvetica-Bold'" font-size="8" rotate="40.449">N</tspan><tspan x="69.834" y="25.725" fill="#FFFFFF" font-family="'Helvetica-Bold'" font-size="8" rotate="43.262">S</tspan><tspan x="73.709" y="29.396" fill="#FFFFFF" font-family="'Helvetica-Bold'" font-size="8" rotate="44.833"> </tspan><tspan x="75.24" y="30.918" fill="#FFFFFF" font-family="'Helvetica-Bold'" font-size="8" rotate="45.795"> </tspan><tspan x="76.799" y="32.521" fill="#FFFFFF" font-family="'Helvetica-Bold'" font-size="8" rotate="46.807"> </tspan><tspan x="78.285" y="34.103" fill="#FFFFFF" font-family="'Helvetica-Bold'" font-size="8" rotate="47.803"> </tspan><tspan x="79.768" y="35.703" fill="#FFFFFF" font-family="'Helvetica-Bold'" font-size="8" rotate="49.549">E</tspan><tspan x="83.195" y="39.727" fill="#FFFFFF" font-family="'Helvetica-Bold'" font-size="8" rotate="51.974">F</tspan><tspan x="86.152" y="43.54" fill="#FFFFFF" font-family="'Helvetica-Bold'" font-size="8" rotate="53.687"> </tspan><tspan x="87.457" y="45.314" fill="#FFFFFF" font-family="'Helvetica-Bold'" font-size="8" rotate="54.783"> </tspan><tspan x="88.744" y="47.139" fill="#FFFFFF" font-family="'Helvetica-Bold'" font-size="8" rotate="55.905"> </tspan><tspan x="89.962" y="48.938" fill="#FFFFFF" font-family="'Helvetica-Bold'" font-size="8" rotate="57.009"> </tspan><tspan x="91.166" y="50.76" fill="#FFFFFF" font-family="'Helvetica-Bold'" font-size="8" rotate="58.706">5</tspan><tspan x="93.45" y="54.514" fill="#FFFFFF" font-family="'Helvetica-Bold'" font-size="8" rotate="61.002">0</tspan><tspan x="95.605" y="58.325" fill="#FFFFFF" font-family="'Helvetica-Bold'" font-size="8" rotate="64.042">m</tspan><tspan x="98.679" y="64.63" fill="#FFFFFF" font-family="'Helvetica-Bold'" font-size="8" rotate="67.851">m</tspan><tspan x="101.296" y="71.201" fill="#FFFFFF" font-family="'Helvetica-Bold'" font-size="8" rotate="70.402"> </tspan><tspan x="102.019" y="73.229" fill="#FFFFFF" font-family="'Helvetica-Bold'" font-size="8" rotate="71.597"> </tspan><tspan x="102.723" y="75.342" fill="#FFFFFF" font-family="'Helvetica-Bold'" font-size="8" rotate="72.839"> </tspan><tspan x="103.365" y="77.421" fill="#FFFFFF" font-family="'Helvetica-Bold'" font-size="8" rotate="74.055"> </tspan><tspan x="103.973" y="79.546" fill="#FFFFFF" font-family="'Helvetica-Bold'" font-size="8" rotate="75.294"> </tspan><tspan x="104.545" y="81.656" fill="#FFFFFF" font-family="'Helvetica-Bold'" font-size="8" rotate="77.149">1</tspan><tspan x="105.505" y="85.928" fill="#FFFFFF" font-family="'Helvetica-Bold'" font-size="8" rotate="79.115">:</tspan><tspan x="106.016" y="88.493" fill="#FFFFFF" font-family="'Helvetica-Bold'" font-size="8" rotate="81.098">1</tspan><tspan x="106.68" y="92.851" fill="#FFFFFF" font-family="'Helvetica-Bold'" font-size="8" rotate="82.962">.</tspan><tspan x="106.963" y="95" fill="#FFFFFF" font-family="'Helvetica-Bold'" font-size="8" rotate="84.818">4</tspan></text>
	<path fill="none" d="M381.751,239.902c0,51.465-40.41,106-103.196,106c-67.109,0-108.804-50.327-108.804-106"/>
	<text id="Text_2_" transform="matrix(-0.7156 0.6985 -0.6985 -0.7156 350.7935 315.377)"><tspan x="0" y="0" fill="#FFFFFF" font-family="'Helvetica-Bold'" font-size="8">C</tspan><tspan x="5.708" y="-0.003" fill="#FFFFFF" font-family="'Helvetica-Bold'" font-size="8" rotate="3.134">R</tspan><tspan x="11.406" y="0.315" fill="#FFFFFF" font-family="'Helvetica-Bold'" font-size="8" rotate="6.193">E</tspan><tspan x="16.627" y="0.872" fill="#FFFFFF" font-family="'Helvetica-Bold'" font-size="8" rotate="9.287">A</tspan><tspan x="22.248" y="1.801" fill="#FFFFFF" font-family="'Helvetica-Bold'" font-size="8" rotate="12.298">T</tspan><tspan x="26.977" y="2.83" fill="#FFFFFF" font-family="'Helvetica-Bold'" font-size="8" rotate="15.1">T</tspan><tspan x="31.622" y="4.104" fill="#FFFFFF" font-family="'Helvetica-Bold'" font-size="8" rotate="17.133">I</tspan><tspan x="33.711" y="4.712" fill="#FFFFFF" font-family="'Helvetica-Bold'" font-size="8" rotate="19.449">C</tspan><tspan x="39.082" y="6.598" fill="#FFFFFF" font-family="'Helvetica-Bold'" font-size="8" rotate="22.928">O</tspan><tspan x="44.716" y="8.985" fill="#FFFFFF" font-family="'Helvetica-Bold'" font-size="8" rotate="26.395">N</tspan><tspan x="49.826" y="11.561" fill="#FFFFFF" font-family="'Helvetica-Bold'" font-size="8" rotate="28.708"> </tspan><tspan x="51.754" y="12.615" fill="#FFFFFF" font-family="'Helvetica-Bold'" font-size="8" rotate="29.991"> </tspan><tspan x="53.671" y="13.721" fill="#FFFFFF" font-family="'Helvetica-Bold'" font-size="8" rotate="31.276"> </tspan><tspan x="55.534" y="14.853" fill="#FFFFFF" font-family="'Helvetica-Bold'" font-size="8" rotate="32.538"> </tspan><tspan x="57.366" y="15.994" fill="#FFFFFF" font-family="'Helvetica-Bold'" font-size="8" rotate="34.543">L</tspan><tspan x="61.357" y="18.733" fill="#FFFFFF" font-family="'Helvetica-Bold'" font-size="8" rotate="37.413">E</tspan><tspan x="65.525" y="21.91" fill="#FFFFFF" font-family="'Helvetica-Bold'" font-size="8" rotate="40.446">N</tspan><tspan x="69.887" y="25.644" fill="#FFFFFF" font-family="'Helvetica-Bold'" font-size="8" rotate="43.312">S</tspan><tspan x="73.695" y="29.277" fill="#FFFFFF" font-family="'Helvetica-Bold'" font-size="8" rotate="45.193"> </tspan><tspan x="75.236" y="30.828" fill="#FFFFFF" font-family="'Helvetica-Bold'" font-size="8" rotate="46.146"> </tspan><tspan x="76.771" y="32.425" fill="#FFFFFF" font-family="'Helvetica-Bold'" font-size="8" rotate="47.126"> </tspan><tspan x="78.267" y="34.036" fill="#FFFFFF" font-family="'Helvetica-Bold'" font-size="8" rotate="48.114"> </tspan><tspan x="79.748" y="35.627" fill="#FFFFFF" font-family="'Helvetica-Bold'" font-size="8" rotate="50.125">M</tspan><tspan x="83.98" y="40.707" fill="#FFFFFF" font-family="'Helvetica-Bold'" font-size="8" rotate="53.042">A</tspan><tspan x="87.399" y="45.248" fill="#FFFFFF" font-family="'Helvetica-Bold'" font-size="8" rotate="55.818">D</tspan><tspan x="90.607" y="49.977" fill="#FFFFFF" font-family="'Helvetica-Bold'" font-size="8" rotate="58.58">E</tspan><tspan x="93.349" y="54.513" fill="#FFFFFF" font-family="'Helvetica-Bold'" font-size="8" rotate="60.501"> </tspan><tspan x="94.425" y="56.412" fill="#FFFFFF" font-family="'Helvetica-Bold'" font-size="8" rotate="61.636"> </tspan><tspan x="95.475" y="58.359" fill="#FFFFFF" font-family="'Helvetica-Bold'" font-size="8" rotate="62.798"> </tspan><tspan x="96.481" y="60.315" fill="#FFFFFF" font-family="'Helvetica-Bold'" font-size="8" rotate="63.961"> </tspan><tspan x="97.442" y="62.279" fill="#FFFFFF" font-family="'Helvetica-Bold'" font-size="8" rotate="65.126">I</tspan><tspan x="98.39" y="64.245" fill="#FFFFFF" font-family="'Helvetica-Bold'" font-size="8" rotate="67.257">N</tspan><tspan x="100.564" y="69.511" fill="#FFFFFF" font-family="'Helvetica-Bold'" font-size="8" rotate="69.392"> </tspan><tspan x="101.344" y="71.588" fill="#FFFFFF" font-family="'Helvetica-Bold'" font-size="8" rotate="70.61"> </tspan><tspan x="102.065" y="73.631" fill="#FFFFFF" font-family="'Helvetica-Bold'" font-size="8" rotate="71.806"> </tspan><tspan x="102.751" y="75.719" fill="#FFFFFF" font-family="'Helvetica-Bold'" font-size="8" rotate="73.024"> </tspan><tspan x="103.391" y="77.814" fill="#FFFFFF" font-family="'Helvetica-Bold'" font-size="8" rotate="74.241"> </tspan><tspan x="103.999" y="79.902" fill="#FFFFFF" font-family="'Helvetica-Bold'" font-size="8" rotate="76.078">J</tspan><tspan x="105.074" y="84.165" fill="#FFFFFF" font-family="'Helvetica-Bold'" font-size="8" rotate="78.921">A</tspan><tspan x="106.171" y="89.786" fill="#FFFFFF" font-family="'Helvetica-Bold'" font-size="8" rotate="82.028">P</tspan><tspan x="106.906" y="94.981" fill="#FFFFFF" font-family="'Helvetica-Bold'" font-size="8" rotate="85.12">A</tspan><tspan x="107.393" y="100.635" fill="#FFFFFF" font-family="'Helvetica-Bold'" font-size="8" rotate="88.329">N</tspan></text>
</g>
<g id="Colours_1_">
</g>
<g id="Aquarell_1_">
</g>
<g id="Envelope_big_1_">
</g>
<g id="Envelope_small_1_">
</g>
<g id="Airmail_1_">
</g>
<g id="Highlighters_Closed_1_">
</g>
<g id="Highlighters_Open_1_">
</g>
<g id="USB_Stick_1_">
</g>
<g id="Pencil_Small">
</g>
<g id="Pencil_Large">
</g>
<g id="Brush_3_">
</g>
<g id="Notepad_1_">
</g>
<g id="Moleskine_Large_Open">
</g>
<g id="Moleskine_Small_Open_1_">
</g>
<g id="Moleskine_Large">
</g>
<g id="Moleskine_Small_1_">
</g>
<g id="iPad_Mini">
</g>
<g id="MacBook_13_x22_">
</g>
<g id="iMac_1_">
</g>
<g id="Wallet_2_">
</g>
<g id="iPhone_6_Grey">
</g>
<g id="iPhone_6_Silver_1_">
</g>
<g id="iPhone_6_Gold_1_">
</g>
<g id="Wallet_1_">
</g>
<g id="Bills">
</g>
<g id="Coins_1_">
</g>
<g id="Passport_Red_1_">
</g>
<g id="Passport_Blue_1_">
</g>
<g id="Credit_Card_Red">
</g>
<g id="Credit_Card_Blue">
</g>
<g id="Aeroplane_1_">
</g>
<g id="Magic_Mouse_1_">
</g>
<g id="Keyboard">
</g>
<g id="Ruler_1_">
</g>
<g id="Charger_1_">
</g>
<g id="Macbook_13_x22_">
</g>
<g id="Brushes">
</g>
<g id="Pencils">
</g>
<g id="Can">
</g>
<g id="Coffee">
</g>
<g id="Stylus">
</g>
<g id="Wacom_1_">
</g>
<g id="Paperclips_1_">
</g>
<g id="Earbuds_1_">
</g>
<g id="Glasses">
</g>
<g id="Sunglasses">
</g>
<g id="Case_1_">
</g>
<g id="Donut_1_">
</g>
</svg>
