<?xml version="1.0" encoding="utf-8"?>
<!-- Generator: Adobe Illustrator 16.0.0, SVG Export Plug-In . SVG Version: 6.00 Build 0)  -->
<!DOCTYPE svg PUBLIC "-//W3C//DTD SVG 1.1//EN" "http://www.w3.org/Graphics/SVG/1.1/DTD/svg11.dtd">
<svg version="1.1" xmlns="http://www.w3.org/2000/svg" xmlns:xlink="http://www.w3.org/1999/xlink" x="0px" y="0px" width="240px"
	 height="240px" viewBox="0 0 240 240" enable-background="new 0 0 240 240" xml:space="preserve">
<g id="Camera_Standing">
</g>
<g id="Camera_Lying">
</g>
<g id="Colours_1_">
</g>
<g id="Aquarell_1_">
</g>
<g id="Envelope_big_1_">
</g>
<g id="Envelope_small_1_">
</g>
<g id="Airmail_1_">
</g>
<g id="Highlighters_Closed_1_">
</g>
<g id="Highlighters_Open_1_">
</g>
<g id="USB_Stick_1_">
</g>
<g id="Pencil_Small">
</g>
<g id="Pencil_Large">
</g>
<g id="Brush_3_">
</g>
<g id="Notepad_1_">
</g>
<g id="Moleskine_Large_Open">
</g>
<g id="Moleskine_Small_Open_1_">
</g>
<g id="Moleskine_Large">
</g>
<g id="Moleskine_Small_1_">
</g>
<g id="iPad_Mini">
</g>
<g id="MacBook_13_x22_">
</g>
<g id="iMac_1_">
</g>
<g id="Wallet_2_">
</g>
<g id="iPhone_6_Grey">
</g>
<g id="iPhone_6_Silver_1_">
</g>
<g id="iPhone_6_Gold_1_">
</g>
<g id="Wallet_1_">
</g>
<g id="Bills">
</g>
<g id="Coins_1_">
</g>
<g id="Passport_Red_1_">
</g>
<g id="Passport_Blue_1_">
</g>
<g id="Credit_Card_Red">
</g>
<g id="Credit_Card_Blue">
</g>
<g id="Aeroplane_1_">
</g>
<g id="Magic_Mouse_1_">
</g>
<g id="Keyboard">
</g>
<g id="Ruler_1_">
</g>
<g id="Charger_1_">
</g>
<g id="Macbook_13_x22_">
</g>
<g id="Brushes">
</g>
<g id="Pencils">
</g>
<g id="Can">
	<g id="Can_1_">
		<path fill="#BB4D67" d="M123.161,218.387c-27.512,0-53.378-10.715-72.832-30.169C10.17,148.059,10.169,82.714,50.327,42.554
			C69.782,23.1,95.647,12.385,123.16,12.385s53.379,10.715,72.834,30.169c40.158,40.16,40.158,105.504,0,145.664
			C176.539,207.672,150.674,218.387,123.161,218.387z"/>
		<path fill="#333333" d="M123.16,14.386c26.979,0,52.343,10.506,71.42,29.582c39.379,39.38,39.379,103.456,0,142.836
			c-19.077,19.076-44.44,29.582-71.419,29.582s-52.342-10.506-71.418-29.582c-39.379-39.38-39.38-103.455-0.001-142.836
			C70.818,24.892,96.183,14.386,123.16,14.386 M123.16,10.386c-26.872,0-53.744,10.251-74.247,30.754
			C7.91,82.145,7.91,148.627,48.915,189.632c20.502,20.503,47.374,30.754,74.246,30.754s53.744-10.251,74.247-30.754
			c41.004-41.005,41.004-107.487,0-148.492C176.904,20.637,150.032,10.386,123.16,10.386L123.16,10.386z"/>
	</g>
	<g id="Background_2_">
		<path fill="#D6D6D6" d="M123.161,200.886c-22.839,0-44.31-8.894-60.459-25.042c-16.148-16.149-25.041-37.62-25.041-60.458
			s8.893-44.309,25.041-60.457c16.15-16.149,37.621-25.043,60.459-25.043s44.309,8.894,60.458,25.043
			c16.148,16.148,25.041,37.619,25.042,60.457c0,22.838-8.894,44.31-25.042,60.458C167.47,191.992,145.999,200.886,123.161,200.886z
			"/>
		<g>
			<path fill="#333333" d="M123.161,31.886c22.304,0,43.272,8.686,59.044,24.457c32.557,32.557,32.557,85.53,0,118.087
				c-15.771,15.771-36.74,24.456-59.045,24.456c-22.304,0-43.272-8.686-59.043-24.456c-15.771-15.771-24.456-36.74-24.456-59.044
				s8.686-43.272,24.456-59.043C79.889,40.571,100.857,31.886,123.161,31.886 M123.161,27.886c-22.394,0-44.787,8.543-61.873,25.629
				c-34.17,34.17-34.17,89.572,0,123.743c17.086,17.085,39.479,25.628,61.873,25.628s44.786-8.543,61.872-25.628
				c34.171-34.171,34.169-89.574,0-123.743C167.947,36.429,145.555,27.886,123.161,27.886L123.161,27.886z"/>
		</g>
	</g>
	<g id="Light_2_">
		<path fill="#E2E2E2" d="M174.674,166.898c-28.449,28.447-74.578,28.446-103.024,0C43.2,138.45,43.2,92.321,71.649,63.874
			c28.447-28.448,74.575-28.448,103.024,0C203.12,92.32,203.121,138.45,174.674,166.898z"/>
	</g>
	<path id="Shadow_1_" fill="#D6D6D6" d="M129.831,169.831c-12.475,12.476-35.654,8.292-52.531-8.584
		c-16.875-16.878-21.172-39.945-8.584-52.531c12.59-12.59,53.562-37.542,64.894-44.98c11.331-7.435,24.032-5.589,35.412,5.791
		c11.379,11.377,13.112,24.195,5.79,35.41C167.485,116.155,142.309,157.356,129.831,169.831z"/>
	
		<ellipse id="Hole" transform="matrix(0.7071 0.7071 -0.7071 0.7071 127.5561 -29.4058)" fill="#333333" cx="99.274" cy="139.273" rx="37.874" ry="27.236"/>
	<path id="Opener" fill="#FFFFFF" stroke="#333333" stroke-width="2" stroke-miterlimit="10" d="M159.533,76.955
		c-7.556-7.554-22.664-14.077-32.965-3.776c-10.299,10.299-19.054,22.146-23.174,28.325c-4.121,6.181-5.664,20.085,2.918,28.67
		c8.584,8.585,22.489,7.038,28.67,2.918s18.024-12.874,28.325-23.176C173.609,99.616,167.086,84.507,159.533,76.955z
		 M128.431,125.309c-1.162-1.161-1.162-3.042,0.001-4.204c3.604-3.604,3.602-9.446-0.001-13.047
		c-3.604-3.604-9.444-3.604-13.046-0.004c-1.162,1.164-3.047,1.163-4.206,0c-1.162-1.159-1.163-3.043-0.001-4.205
		c5.925-5.926,15.533-5.926,21.459,0c5.927,5.928,5.926,15.534,0,21.461C131.474,126.47,129.594,126.47,128.431,125.309z
		 M149.271,107.71c-3.736-1.053-8.33-5.4-11.714-8.779c-3.723-3.723-7.49-8.08-8.371-12.147c-0.914-4.222,1.177-8.128,3.737-10.688
		c5.024-5.024,15.247-2.948,22.831,4.636c7.586,7.586,9.66,17.807,4.636,22.834C157.605,106.349,153.916,109.014,149.271,107.71z"/>
</g>
<g id="Coffee">
</g>
<g id="Stylus">
</g>
<g id="Wacom_1_">
</g>
<g id="Paperclips_1_">
</g>
<g id="Earbuds_1_">
</g>
<g id="Glasses">
</g>
<g id="Sunglasses">
</g>
<g id="Case_1_">
</g>
<g id="Donut_1_">
</g>
</svg>
