<?xml version="1.0" encoding="utf-8"?>
<!-- Generator: Adobe Illustrator 16.0.0, SVG Export Plug-In . SVG Version: 6.00 Build 0)  -->
<!DOCTYPE svg PUBLIC "-//W3C//DTD SVG 1.1//EN" "http://www.w3.org/Graphics/SVG/1.1/DTD/svg11.dtd">
<svg version="1.1" xmlns="http://www.w3.org/2000/svg" xmlns:xlink="http://www.w3.org/1999/xlink" x="0px" y="0px" width="350px"
	 height="350px" viewBox="0 0 350 350" enable-background="new 0 0 350 350" xml:space="preserve">
<g id="Camera_Standing">
</g>
<g id="Camera_Lying">
</g>
<g id="Colours_1_">
</g>
<g id="Aquarell_1_">
</g>
<g id="Envelope_big_1_">
</g>
<g id="Envelope_small_1_">
</g>
<g id="Airmail_1_">
</g>
<g id="Highlighters_Closed_1_">
</g>
<g id="Highlighters_Open_1_">
</g>
<g id="USB_Stick_1_">
</g>
<g id="Pencil_Small">
</g>
<g id="Pencil_Large">
</g>
<g id="Brush_3_">
</g>
<g id="Notepad_1_">
</g>
<g id="Moleskine_Large_Open">
</g>
<g id="Moleskine_Small_Open_1_">
</g>
<g id="Moleskine_Large">
</g>
<g id="Moleskine_Small_1_">
</g>
<g id="iPad_Mini">
</g>
<g id="MacBook_13_x22_">
</g>
<g id="iMac_1_">
</g>
<g id="Wallet_2_">
</g>
<g id="iPhone_6_Grey">
</g>
<g id="iPhone_6_Silver_1_">
</g>
<g id="iPhone_6_Gold_1_">
</g>
<g id="Wallet_1_">
</g>
<g id="Bills">
</g>
<g id="Coins_1_">
</g>
<g id="Passport_Red_1_">
</g>
<g id="Passport_Blue_1_">
</g>
<g id="Credit_Card_Red">
</g>
<g id="Credit_Card_Blue">
</g>
<g id="Aeroplane_1_">
</g>
<g id="Magic_Mouse_1_">
</g>
<g id="Keyboard">
</g>
<g id="Ruler_1_">
</g>
<g id="Charger_1_">
</g>
<g id="Macbook_13_x22_">
</g>
<g id="Brushes">
</g>
<g id="Pencils">
</g>
<g id="Can">
</g>
<g id="Coffee">
	<path id="plate" fill="#FFFFFF" stroke="#333333" stroke-width="4" stroke-miterlimit="10" d="M335.16,174.156
		c0,89.236-72.337,161.575-161.575,161.575S12.01,263.392,12.01,174.156c0-89.235,72.337-161.574,161.575-161.574
		S335.16,84.921,335.16,174.156z"/>
	<circle id="shadow_2_" fill="#E2E2E2" cx="173.585" cy="174.156" r="142.043"/>
	<path id="Cup_1_" fill="#FFFFFF" stroke="#333333" stroke-width="4" stroke-miterlimit="10" d="M268.788,203.894
		c0,0,31.838,21.692,36.595,24.605c4.774,2.912,4.692,7.065,3.831,8.711l-8.099,15.469c-0.856,1.644-4.228,4.081-9.336,1.823
		c-5.113-2.258-41.076-16.043-41.076-16.043L268.788,203.894z"/>
	
		<circle id="Cup" fill="#FFFFFF" stroke="#333333" stroke-width="4" stroke-miterlimit="10" cx="173.585" cy="174.156" r="100.612"/>
	<path id="Cup_shadow" fill="#E2E2E2" d="M264.141,174.156c0,50.016-40.543,90.556-90.556,90.556s-90.557-40.541-90.557-90.556
		s40.544-90.552,90.557-90.552S264.141,124.141,264.141,174.156z"/>
	<path id="Coffee_1_" fill="#261C0B" d="M255.261,174.156c0,45.113-36.572,81.673-81.676,81.673s-81.674-36.56-81.674-81.673
		s36.57-81.674,81.674-81.674S255.261,129.043,255.261,174.156z"/>
	<path id="Cream_1_" fill="#FCC865" d="M249.671,184.469c0.562-3.747,0.854-7.577,0.854-11.479c0-42.499-34.45-76.939-76.94-76.939
		c-42.489,0-76.939,34.441-76.939,76.939c0,14.241,3.885,27.57,10.628,39.007c1.144-1.893,2.491-4.284,2.38-7.042
		c-0.188-4.831-0.188-2.972-0.188-4.831c0-1.858-1.486-8.736,0-11.522c1.484-2.792,4.467-4.849,4.095-9.583
		c-0.375-4.732-2.233-6.588-0.375-10.861c1.858-4.278-1.3-8.177-2.235-9.849c-0.924-1.673-1.367-7.476-0.924-9.665
		c1.578-7.809,11.52-3.903,13.941-6.321c2.409-2.414,1.113-6.872,0.365-10.963c-0.739-4.089-2.505-12.361,3.719-13.567
		c6.223-1.207,9.661-2.787,9.661-2.787c4.468-3.158,7.065-0.372,9.674-1.116c2.595-0.742,7.052-7.806,12.257-9.106
		c5.205-1.305,10.75,3.383,12.343,3.454c8.176,0.372,7.729-4.01,12.196-3.08c4.457,0.927,10.223,4.114,13.754,4.75
		c3.521,0.637,9.1,1.008,12.633,3.796c3.533,2.792,14.13,9.667,18.212,14.499c4.092,4.832,5.949,7.801,5.949,11.334
		s-0.185,5.765,1.488,7.618c1.675,1.859-0.56,4.836,1.675,8.367c1.482,2.348,1.971,2.553,2.144,2.433
		c0.048-0.132,0.079-0.207,0.079-0.207s-0.002,0.146-0.079,0.207c-0.343,0.856-1.533,4.25,0.079,6.67
		c1.859,2.788,5.349,4.415,6.112,7.038c0.765,2.626,4.484,5.414,3.737,8.944C249.771,181.527,249.695,182.915,249.671,184.469z
		 M99.707,189.158c-1.297-0.928-0.288-4.581,1.021-4.461c1.027,0.095,2.515,0.746,2.701,2.418
		C103.613,188.789,101.007,190.089,99.707,189.158z M106.025,191.295c0.372,1.394-2.046,2.51-3.251,2.51
		c-1.207,0-0.385-4.039,0.559-4.276C104.445,189.251,105.651,189.902,106.025,191.295z M106.586,184.792
		c2.411,0,2.044,1.393,1.578,2.786c-0.466,1.398-2.046,1.857-2.513-0.092C105.194,185.537,105.671,184.792,106.586,184.792z
		 M103.43,195.573c1.017-0.466,1.95-0.933,3.718-1.21c1.757-0.276,0.551,2.23,0.458,4.738c-0.095,2.51-2.319-0.185-4.457-0.555
		C101.009,198.173,102.622,195.934,103.43,195.573z M107.241,206.162c-1.027,0.747-2.982-3.065-3.076-4.644
		c-0.094-1.58,2.143-0.188,3.814,0.187C109.651,202.076,109.333,204.642,107.241,206.162z M107.792,179.678
		c-1.3,2.789-5.577,2.789-7.522,2.694c-1.952-0.089-3.53-5.294-2.887-9.104c0.651-3.811,4.558-5.298,4.558-5.298
		c2.225-0.558,2.786,0.652,5.57,2.787C110.306,172.895,109.091,176.892,107.792,179.678z M111.886,167.597
		c0.374,0.655-1.215,1.953-2.42,1.953s-0.072-2.335,0.561-2.693C111.326,166.114,111.51,166.951,111.886,167.597z M110.026,163.139
		c0,1.766-3.064,5.112-4,4.18c-0.922-0.927-3.156,0.372-4.734-3.067c-1.58-3.438-1.207-5.065,1.578-7.061
		c0.654-0.463,1.297-0.555,2.605-0.648C106.775,156.449,110.026,161.374,110.026,163.139z M112.439,140.835
		c-1.491,0.748-3.164-6.343-1.021-6.875c0.748-0.187,2.97,1.206,4.092,2.79C116.623,138.329,113.933,140.094,112.439,140.835z
		 M117.462,136.192c-1.951-0.281-3.903-3.439-3.998-5.486c-0.092-2.042,3.814-2.97,4.83-3.623c1.018-0.646,2.784,5.203,2.513,6.603
		C120.528,135.077,118.838,136.387,117.462,136.192z M123.78,137.584c0.646,0.375-0.28,3.067-2.141,4.272
		c-1.858,1.213-2.551-2.603-2.689-4.367c-0.093-1.11,1.486-0.926,1.578-1.392C120.622,135.633,123.128,137.211,123.78,137.584z
		 M148.708,110.613c-2.3,1.047-5.229,0.907-5.925,0c-0.697-0.903,0.559-5.086,0.559-5.086c2.784-2.506,9.611-5.574,9.756-2.506
		C153.234,106.085,151.002,109.57,148.708,110.613z M154.626,104.413c-1.324,0.629,0-1.953,0.417-3.345c0,0,1.536-0.418,2.231,0.666
		C157.973,102.821,155.95,103.786,154.626,104.413z M174.562,97.026c1.256-0.136,0.831,0.834,0,2.227
		c-0.843,1.397-2.298,0.011-2.298-1.113C172.265,97.163,173.304,97.163,174.562,97.026z M167.312,102.746
		c-1.528-1.664,1.188-4.607,1.815-4.607c2.369,0,1.111,1.393,2.504,2.848c1.393,1.457,0.137,2.448,0,3.522
		C171.497,105.582,168.849,104.413,167.312,102.746z M172.608,105.943c-1.809-0.417-0.218-1.527,0.977-3.197
		c1.162-1.623,1.953-3.494,3.346-4.607c1.392-1.113,2.233,3.486,2.369,6.209C179.444,107.069,174.419,106.366,172.608,105.943z
		 M185.709,103.786c-0.829,0.279-2.72,0.136-4.243-0.56c-1.539-0.696-2.608-3.542-1.682-4.391c0.839-0.764,2.725-0.417,3.77-0.627
		c1.044-0.204,2.648,1.745,3.48,2.58C187.874,101.625,186.55,103.505,185.709,103.786z M193.843,105.992
		c-1.484,0-3.621-2.906-2.047-3.625c3.251-1.486,5.018,0.654,5.298,1.489C197.375,104.693,195.328,105.992,193.843,105.992z
		 M206.061,106.018c0.417-0.075,0.696-0.352,1.605-0.352c0.908,0,0.481,0.557,1.111,1.464s-1.528,0.908-1.953,0.908
		C206.409,108.038,205.446,106.119,206.061,106.018z M203.479,109.43c-0.696,0.839-1.179-0.347-2.223-0.837
		c-1.044-0.487-0.709-3.307,0.483-3.273c2.368,0.069,3.142,1.53,3.692,2.159C205.993,108.105,204.185,108.593,203.479,109.43z
		 M207.036,110.966c-1.46-0.281-1.774-1.705-1.604-1.883c1.046-1.045,0.696-0.418,1.817-0.49c1.111-0.071,2.37,0.77,2.302,1.118
		C209.472,110.059,208.497,111.242,207.036,110.966z M236.676,143.722c-0.739-1.768-0.739-4.959,1.028-5.483
		c1.849-0.561,3.156,0.37,4.549,2.69c0.853,1.419,0.748,3.813-0.832,4.558C239.833,146.227,237.423,145.488,236.676,143.722z
		 M237.974,152.178c-0.737-2.885,1.18-5.007,2.047-5.299c1.122-0.372,0.747,0.094,2.327,0.094c1.579,0,3.439,3.251,3.53,4.739
		c0.094,1.487-0.466,4.087-2.23,4.645C241.879,156.915,238.721,155.058,237.974,152.178z M246.255,167.228
		c-0.938,0.838-3.813-1.67-4.934-3.994c-1.113-2.326,0.553-4.418,2.604-4.646c0.839-0.092,1.205,0,2.329,0.557
		c1.111,0.558,2.035,2.23,2.316,3.903C248.85,164.719,247.178,166.393,246.255,167.228z"/>
</g>
<g id="Stylus">
</g>
<g id="Wacom_1_">
</g>
<g id="Paperclips_1_">
</g>
<g id="Earbuds_1_">
</g>
<g id="Glasses">
</g>
<g id="Sunglasses">
</g>
<g id="Case_1_">
</g>
<g id="Donut_1_">
</g>
</svg>
