<?xml version="1.0" encoding="utf-8"?>
<!-- Generator: Adobe Illustrator 16.0.0, SVG Export Plug-In . SVG Version: 6.00 Build 0)  -->
<!DOCTYPE svg PUBLIC "-//W3C//DTD SVG 1.1//EN" "http://www.w3.org/Graphics/SVG/1.1/DTD/svg11.dtd">
<svg version="1.1" xmlns="http://www.w3.org/2000/svg" xmlns:xlink="http://www.w3.org/1999/xlink" x="0px" y="0px" width="660px"
	 height="430px" viewBox="0 0 660 430" enable-background="new 0 0 660 430" xml:space="preserve">
<g id="Camera_Standing">
</g>
<g id="Camera_Lying">
</g>
<g id="Colours_1_">
	<path id="Background_34_" fill="#FFFFFF" stroke="#333333" stroke-width="4" stroke-miterlimit="10" d="M12.292,48.913
		c0-15.656,12.691-28.348,28.346-28.348h255.276c15.655,0,28.347,12.691,28.347,28.348v331.77c0,15.656-12.691,28.348-28.347,28.348
		H40.638c-15.654,0-28.346-12.691-28.346-28.348V48.913z"/>
	<path id="Shadow_9_" fill="#E2E2E2" d="M22.292,58.913c0-15.656,12.691-28.348,28.346-28.348h235.276
		c15.655,0,28.347,12.691,28.347,28.348v311.77c0,15.656-12.691,28.348-28.347,28.348H50.638c-15.654,0-28.346-12.691-28.346-28.348
		V58.913z"/>
	<path id="Background_33_" fill="#535454" stroke="#333333" stroke-width="4" stroke-miterlimit="10" d="M644.261,48.913
		c0-15.656-12.691-28.348-28.346-28.348H360.639c-15.655,0-28.347,12.691-28.347,28.348v331.77
		c0,15.656,12.691,28.348,28.347,28.348h255.276c15.654,0,28.346-12.691,28.346-28.348V48.913z"/>
	<path id="Border_28_" fill="#333333" d="M329.288,45.194h-3.992c-4.697,0-8.504,3.808-8.504,8.504v22.194
		c0,4.696,3.807,8.504,8.504,8.504h3.992c4.697,0,8.504-3.808,8.504-8.504V53.698C337.792,49.002,333.985,45.194,329.288,45.194z
		 M329.288,335.194h-3.992c-4.697,0-8.504,3.808-8.504,8.504v22.194c0,4.696,3.807,8.504,8.504,8.504h3.992
		c4.697,0,8.504-3.808,8.504-8.504v-22.194C337.792,339.002,333.985,335.194,329.288,335.194z"/>
	<g id="Pencils_1_">
		<g id="Pencil_large_1_">
			<g>
				<polygon fill="#FEF7CE" points="353.888,394.13 347.863,390.066 347.863,61.773 357.168,39.062 366.151,61.763 366.151,390.04 
					359.812,394.13 				"/>
				<path fill="#333333" d="M357.136,44.417l7.016,17.726V388.95l-4.928,3.18h-4.725l-4.636-3.127V62.167L357.136,44.417
					 M357.2,33.709L345.863,61.38v329.75l7.413,5h7.125l7.75-5V61.38L357.2,33.709L357.2,33.709z"/>
			</g>
			<path fill="#F77F5B" d="M357.2,36.709l5.951,15.287c0,0-1.584,3.713-5.951,3.713c-4.299,0-6.049-3.713-6.049-3.713L357.2,36.709z
				"/>
			<g>
				<path fill="#F77F5B" d="M368.151,389.13V61.38c0,0-3.757,1.068-4.531,1.902c-0.851,0.916-1.969,5.098-1.969,5.098
					s-3.25-1.918-4.332-1.949c-1.012-0.03-4.043,1.699-4.043,1.699s-1.752-3.849-2.684-4.696c-0.922-0.839-4.729-2.054-4.729-2.054
					v327.75l7.413,5h7.125L368.151,389.13z"/>
			</g>
			<g>
				<path fill="#333333" d="M357.136,44.417l7.016,17.726V388.95l-4.928,3.18h-4.725l-4.636-3.127V62.167L357.136,44.417
					 M357.2,33.709L345.863,61.38v329.75l7.413,5h7.125l7.75-5V61.38L357.2,33.709L357.2,33.709z"/>
			</g>
			<path fill="none" stroke="#333333" stroke-width="2" stroke-miterlimit="10" d="M367.151,61.38c-3.73,0.324-4.811,3.785-5.5,7
				c-3.125-2.5-5.125-2.625-8.375-0.25c-1.625-4.375-2.751-5.214-6.375-6.919"/>
			
				<line fill="none" stroke="#333333" stroke-width="2" stroke-linecap="round" stroke-miterlimit="10" x1="353.276" y1="394.13" x2="353.276" y2="122.13"/>
			
				<line fill="none" stroke="#333333" stroke-width="2" stroke-linecap="round" stroke-miterlimit="10" x1="360.276" y1="394.13" x2="360.276" y2="122.13"/>
		</g>
		<g id="Pencil_large_2_">
			<g>
				<polygon fill="#FEF7CE" points="379.888,394.13 373.863,390.066 373.863,61.773 383.168,39.062 392.151,61.763 392.151,390.04 
					385.812,394.13 				"/>
				<path fill="#333333" d="M383.136,44.417l7.016,17.726V388.95l-4.929,3.18h-4.724l-4.636-3.127V62.167L383.136,44.417
					 M383.2,33.709L371.863,61.38v329.75l7.413,5h7.125l7.75-5V61.38L383.2,33.709L383.2,33.709z"/>
			</g>
			<path fill="#E23B3B" d="M383.2,36.709l5.951,15.287c0,0-1.584,3.713-5.951,3.713c-4.299,0-6.049-3.713-6.049-3.713L383.2,36.709z
				"/>
			<g>
				<path fill="#E23B3B" d="M394.151,389.13V61.38c0,0-3.757,1.068-4.531,1.902c-0.851,0.916-1.969,5.098-1.969,5.098
					s-3.25-1.918-4.332-1.949c-1.012-0.03-4.043,1.699-4.043,1.699s-1.752-3.849-2.684-4.696c-0.922-0.839-4.729-2.054-4.729-2.054
					v327.75l7.413,5h7.125L394.151,389.13z"/>
			</g>
			<g>
				<path fill="#333333" d="M383.136,44.417l7.016,17.726V388.95l-4.929,3.18h-4.724l-4.636-3.127V62.167L383.136,44.417
					 M383.2,33.709L371.863,61.38v329.75l7.413,5h7.125l7.75-5V61.38L383.2,33.709L383.2,33.709z"/>
			</g>
			<path fill="none" stroke="#333333" stroke-width="2" stroke-miterlimit="10" d="M393.151,61.38c-3.73,0.324-4.811,3.785-5.5,7
				c-3.125-2.5-5.125-2.625-8.375-0.25c-1.625-4.375-2.751-5.214-6.375-6.919"/>
			
				<line fill="none" stroke="#333333" stroke-width="2" stroke-linecap="round" stroke-miterlimit="10" x1="379.276" y1="394.13" x2="379.276" y2="122.13"/>
			
				<line fill="none" stroke="#333333" stroke-width="2" stroke-linecap="round" stroke-miterlimit="10" x1="386.276" y1="394.13" x2="386.276" y2="122.13"/>
		</g>
		<g id="Pencil_large_3_">
			<g>
				<polygon fill="#FEF7CE" points="405.888,394.13 399.863,390.066 399.863,61.773 409.168,39.062 418.151,61.763 418.151,390.04 
					411.812,394.13 				"/>
				<path fill="#333333" d="M409.136,44.417l7.016,17.726V388.95l-4.929,3.18h-4.724l-4.636-3.127V62.167L409.136,44.417
					 M409.2,33.709L397.863,61.38v329.75l7.413,5h7.125l7.75-5V61.38L409.2,33.709L409.2,33.709z"/>
			</g>
			<path fill="#BB4D67" d="M409.2,36.709l5.951,15.287c0,0-1.584,3.713-5.951,3.713c-4.299,0-6.049-3.713-6.049-3.713L409.2,36.709z
				"/>
			<g>
				<path fill="#BB4D67" d="M420.151,389.13V61.38c0,0-3.757,1.068-4.531,1.902c-0.851,0.916-1.969,5.098-1.969,5.098
					s-3.25-1.918-4.332-1.949c-1.012-0.03-4.043,1.699-4.043,1.699s-1.752-3.849-2.684-4.696c-0.922-0.839-4.729-2.054-4.729-2.054
					v327.75l7.413,5h7.125L420.151,389.13z"/>
			</g>
			<g>
				<path fill="#333333" d="M409.136,44.417l7.016,17.726V388.95l-4.929,3.18h-4.724l-4.636-3.127V62.167L409.136,44.417
					 M409.2,33.709L397.863,61.38v329.75l7.413,5h7.125l7.75-5V61.38L409.2,33.709L409.2,33.709z"/>
			</g>
			<path fill="none" stroke="#333333" stroke-width="2" stroke-miterlimit="10" d="M419.151,61.38c-3.73,0.324-4.811,3.785-5.5,7
				c-3.125-2.5-5.125-2.625-8.375-0.25c-1.625-4.375-2.751-5.214-6.375-6.919"/>
			
				<line fill="none" stroke="#333333" stroke-width="2" stroke-linecap="round" stroke-miterlimit="10" x1="405.276" y1="394.13" x2="405.276" y2="122.13"/>
			
				<line fill="none" stroke="#333333" stroke-width="2" stroke-linecap="round" stroke-miterlimit="10" x1="412.276" y1="394.13" x2="412.276" y2="122.13"/>
		</g>
		<g id="Pencil_large_4_">
			<g>
				<polygon fill="#FEF7CE" points="432.888,394.13 426.863,390.066 426.863,61.773 436.168,39.062 445.151,61.763 445.151,390.04 
					438.812,394.13 				"/>
				<path fill="#333333" d="M436.136,44.417l7.016,17.726V388.95l-4.929,3.18h-4.724l-4.636-3.127V62.167L436.136,44.417
					 M436.2,33.709L424.863,61.38v329.75l7.413,5h7.125l7.75-5V61.38L436.2,33.709L436.2,33.709z"/>
			</g>
			<path fill="#704B9B" d="M436.2,36.709l5.951,15.287c0,0-1.584,3.713-5.951,3.713c-4.299,0-6.049-3.713-6.049-3.713L436.2,36.709z
				"/>
			<g>
				<path fill="#704B9B" d="M447.151,389.13V61.38c0,0-3.757,1.068-4.531,1.902c-0.851,0.916-1.969,5.098-1.969,5.098
					s-3.25-1.918-4.332-1.949c-1.012-0.03-4.043,1.699-4.043,1.699s-1.752-3.849-2.684-4.696c-0.922-0.839-4.729-2.054-4.729-2.054
					v327.75l7.413,5h7.125L447.151,389.13z"/>
			</g>
			<g>
				<path fill="#333333" d="M436.136,44.417l7.016,17.726V388.95l-4.929,3.18h-4.724l-4.636-3.127V62.167L436.136,44.417
					 M436.2,33.709L424.863,61.38v329.75l7.413,5h7.125l7.75-5V61.38L436.2,33.709L436.2,33.709z"/>
			</g>
			<path fill="none" stroke="#333333" stroke-width="2" stroke-miterlimit="10" d="M446.151,61.38c-3.73,0.324-4.811,3.785-5.5,7
				c-3.125-2.5-5.125-2.625-8.375-0.25c-1.625-4.375-2.751-5.214-6.375-6.919"/>
			
				<line fill="none" stroke="#333333" stroke-width="2" stroke-linecap="round" stroke-miterlimit="10" x1="432.276" y1="394.13" x2="432.276" y2="122.13"/>
			
				<line fill="none" stroke="#333333" stroke-width="2" stroke-linecap="round" stroke-miterlimit="10" x1="439.276" y1="394.13" x2="439.276" y2="122.13"/>
		</g>
		<g id="Pencil_large_8_">
			<g>
				<polygon fill="#FEF7CE" points="459.888,394.13 453.863,390.066 453.863,61.773 463.168,39.062 472.151,61.763 472.151,390.04 
					465.812,394.13 				"/>
				<path fill="#333333" d="M463.136,44.417l7.016,17.726V388.95l-4.929,3.18h-4.724l-4.636-3.127V62.167L463.136,44.417
					 M463.2,33.709L451.863,61.38v329.75l7.413,5h7.125l7.75-5V61.38L463.2,33.709L463.2,33.709z"/>
			</g>
			<path fill="#456AC9" d="M463.2,36.709l5.951,15.287c0,0-1.584,3.713-5.951,3.713c-4.299,0-6.049-3.713-6.049-3.713L463.2,36.709z
				"/>
			<g>
				<path fill="#456AC9" d="M474.151,389.13V61.38c0,0-3.757,1.068-4.531,1.902c-0.851,0.916-1.969,5.098-1.969,5.098
					s-3.25-1.918-4.332-1.949c-1.012-0.03-4.043,1.699-4.043,1.699s-1.752-3.849-2.684-4.696c-0.922-0.839-4.729-2.054-4.729-2.054
					v327.75l7.413,5h7.125L474.151,389.13z"/>
			</g>
			<g>
				<path fill="#333333" d="M463.136,44.417l7.016,17.726V388.95l-4.929,3.18h-4.724l-4.636-3.127V62.167L463.136,44.417
					 M463.2,33.709L451.863,61.38v329.75l7.413,5h7.125l7.75-5V61.38L463.2,33.709L463.2,33.709z"/>
			</g>
			<path fill="none" stroke="#333333" stroke-width="2" stroke-miterlimit="10" d="M473.151,61.38c-3.73,0.324-4.811,3.785-5.5,7
				c-3.125-2.5-5.125-2.625-8.375-0.25c-1.625-4.375-2.751-5.214-6.375-6.919"/>
			
				<line fill="none" stroke="#333333" stroke-width="2" stroke-linecap="round" stroke-miterlimit="10" x1="459.276" y1="394.13" x2="459.276" y2="122.13"/>
			
				<line fill="none" stroke="#333333" stroke-width="2" stroke-linecap="round" stroke-miterlimit="10" x1="466.276" y1="394.13" x2="466.276" y2="122.13"/>
		</g>
		<g id="Pencil_large_7_">
			<g>
				<polygon fill="#FEF7CE" points="485.888,394.13 479.863,390.066 479.863,61.773 489.168,39.062 498.151,61.763 498.151,390.04 
					491.812,394.13 				"/>
				<path fill="#333333" d="M489.136,44.417l7.016,17.726V388.95l-4.929,3.18h-4.724l-4.636-3.127V62.167L489.136,44.417
					 M489.2,33.709L477.863,61.38v329.75l7.413,5h7.125l7.75-5V61.38L489.2,33.709L489.2,33.709z"/>
			</g>
			<path fill="#4F8699" d="M489.2,36.709l5.951,15.287c0,0-1.584,3.713-5.951,3.713c-4.299,0-6.049-3.713-6.049-3.713L489.2,36.709z
				"/>
			<g>
				<path fill="#4F8699" d="M500.151,389.13V61.38c0,0-3.757,1.068-4.531,1.902c-0.851,0.916-1.969,5.098-1.969,5.098
					s-3.25-1.918-4.332-1.949c-1.012-0.03-4.043,1.699-4.043,1.699s-1.752-3.849-2.684-4.696c-0.922-0.839-4.729-2.054-4.729-2.054
					v327.75l7.413,5h7.125L500.151,389.13z"/>
			</g>
			<g>
				<path fill="#333333" d="M489.136,44.417l7.016,17.726V388.95l-4.929,3.18h-4.724l-4.636-3.127V62.167L489.136,44.417
					 M489.2,33.709L477.863,61.38v329.75l7.413,5h7.125l7.75-5V61.38L489.2,33.709L489.2,33.709z"/>
			</g>
			<path fill="none" stroke="#333333" stroke-width="2" stroke-miterlimit="10" d="M499.151,61.38c-3.73,0.324-4.811,3.785-5.5,7
				c-3.125-2.5-5.125-2.625-8.375-0.25c-1.625-4.375-2.751-5.214-6.375-6.919"/>
			
				<line fill="none" stroke="#333333" stroke-width="2" stroke-linecap="round" stroke-miterlimit="10" x1="485.276" y1="394.13" x2="485.276" y2="122.13"/>
			
				<line fill="none" stroke="#333333" stroke-width="2" stroke-linecap="round" stroke-miterlimit="10" x1="492.276" y1="394.13" x2="492.276" y2="122.13"/>
		</g>
		<g id="Pencil_large_6_">
			<g>
				<polygon fill="#FEF7CE" points="511.888,394.13 505.863,390.066 505.863,61.773 515.168,39.062 524.151,61.763 524.151,390.04 
					517.812,394.13 				"/>
				<path fill="#333333" d="M515.136,44.417l7.016,17.726V388.95l-4.929,3.18h-4.724l-4.636-3.127V62.167L515.136,44.417
					 M515.2,33.709L503.863,61.38v329.75l7.413,5h7.125l7.75-5V61.38L515.2,33.709L515.2,33.709z"/>
			</g>
			<path fill="#4BA7AF" d="M515.2,36.709l5.951,15.287c0,0-1.584,3.713-5.951,3.713c-4.299,0-6.049-3.713-6.049-3.713L515.2,36.709z
				"/>
			<g>
				<path fill="#4BA7AF" d="M526.151,389.13V61.38c0,0-3.757,1.068-4.531,1.902c-0.851,0.916-1.969,5.098-1.969,5.098
					s-3.25-1.918-4.332-1.949c-1.012-0.03-4.043,1.699-4.043,1.699s-1.752-3.849-2.684-4.696c-0.922-0.839-4.729-2.054-4.729-2.054
					v327.75l7.413,5h7.125L526.151,389.13z"/>
			</g>
			<g>
				<path fill="#333333" d="M515.136,44.417l7.016,17.726V388.95l-4.929,3.18h-4.724l-4.636-3.127V62.167L515.136,44.417
					 M515.2,33.709L503.863,61.38v329.75l7.413,5h7.125l7.75-5V61.38L515.2,33.709L515.2,33.709z"/>
			</g>
			<path fill="none" stroke="#333333" stroke-width="2" stroke-miterlimit="10" d="M525.151,61.38c-3.73,0.324-4.811,3.785-5.5,7
				c-3.125-2.5-5.125-2.625-8.375-0.25c-1.625-4.375-2.751-5.214-6.375-6.919"/>
			
				<line fill="none" stroke="#333333" stroke-width="2" stroke-linecap="round" stroke-miterlimit="10" x1="511.276" y1="394.13" x2="511.276" y2="122.13"/>
			
				<line fill="none" stroke="#333333" stroke-width="2" stroke-linecap="round" stroke-miterlimit="10" x1="518.276" y1="394.13" x2="518.276" y2="122.13"/>
		</g>
		<g id="Pencil_large_5_">
			<g>
				<polygon fill="#FEF7CE" points="538.888,394.13 532.863,390.066 532.863,61.773 542.168,39.062 551.151,61.763 551.151,390.04 
					544.812,394.13 				"/>
				<path fill="#333333" d="M542.136,44.417l7.016,17.726V388.95l-4.929,3.18h-4.724l-4.636-3.127V62.167L542.136,44.417
					 M542.2,33.709L530.863,61.38v329.75l7.413,5h7.125l7.75-5V61.38L542.2,33.709L542.2,33.709z"/>
			</g>
			<path fill="#8DB559" d="M542.2,36.709l5.951,15.287c0,0-1.584,3.713-5.951,3.713c-4.299,0-6.049-3.713-6.049-3.713L542.2,36.709z
				"/>
			<g>
				<path fill="#8DB559" d="M553.151,389.13V61.38c0,0-3.757,1.068-4.531,1.902c-0.851,0.916-1.969,5.098-1.969,5.098
					s-3.25-1.918-4.332-1.949c-1.012-0.03-4.043,1.699-4.043,1.699s-1.752-3.849-2.684-4.696c-0.922-0.839-4.729-2.054-4.729-2.054
					v327.75l7.413,5h7.125L553.151,389.13z"/>
			</g>
			<g>
				<path fill="#333333" d="M542.136,44.417l7.016,17.726V388.95l-4.929,3.18h-4.724l-4.636-3.127V62.167L542.136,44.417
					 M542.2,33.709L530.863,61.38v329.75l7.413,5h7.125l7.75-5V61.38L542.2,33.709L542.2,33.709z"/>
			</g>
			<path fill="none" stroke="#333333" stroke-width="2" stroke-miterlimit="10" d="M552.151,61.38c-3.73,0.324-4.811,3.785-5.5,7
				c-3.125-2.5-5.125-2.625-8.375-0.25c-1.625-4.375-2.751-5.214-6.375-6.919"/>
			
				<line fill="none" stroke="#333333" stroke-width="2" stroke-linecap="round" stroke-miterlimit="10" x1="538.276" y1="394.13" x2="538.276" y2="122.13"/>
			
				<line fill="none" stroke="#333333" stroke-width="2" stroke-linecap="round" stroke-miterlimit="10" x1="545.276" y1="394.13" x2="545.276" y2="122.13"/>
		</g>
		<g id="Pencil_large_11_">
			<g>
				<polygon fill="#FEF7CE" points="565.888,394.13 559.863,390.066 559.863,61.773 569.168,39.062 578.151,61.763 578.151,390.04 
					571.812,394.13 				"/>
				<path fill="#333333" d="M569.136,44.417l7.016,17.726V388.95l-4.929,3.18h-4.724l-4.636-3.127V62.167L569.136,44.417
					 M569.2,33.709L557.863,61.38v329.75l7.413,5h7.125l7.75-5V61.38L569.2,33.709L569.2,33.709z"/>
			</g>
			<path fill="#333333" d="M569.2,36.709l5.951,15.287c0,0-1.584,3.713-5.951,3.713c-4.299,0-6.049-3.713-6.049-3.713L569.2,36.709z
				"/>
			<g>
				<path fill="#FEF7CE" d="M580.151,389.13V61.38c0,0-3.757,1.068-4.531,1.902c-0.851,0.916-1.969,5.098-1.969,5.098
					s-3.25-1.918-4.332-1.949c-1.012-0.03-4.043,1.699-4.043,1.699s-1.752-3.849-2.684-4.696c-0.922-0.839-4.729-2.054-4.729-2.054
					v327.75l7.413,5h7.125L580.151,389.13z"/>
			</g>
			<g>
				<path fill="#333333" d="M569.136,44.417l7.016,17.726V388.95l-4.929,3.18h-4.724l-4.636-3.127V62.167L569.136,44.417
					 M569.2,33.709L557.863,61.38v329.75l7.413,5h7.125l7.75-5V61.38L569.2,33.709L569.2,33.709z"/>
			</g>
			<path fill="none" stroke="#333333" stroke-width="2" stroke-miterlimit="10" d="M579.151,61.38c-3.73,0.324-4.811,3.785-5.5,7
				c-3.125-2.5-5.125-2.625-8.375-0.25c-1.625-4.375-2.751-5.214-6.375-6.919"/>
			
				<line fill="none" stroke="#333333" stroke-width="2" stroke-linecap="round" stroke-miterlimit="10" x1="565.276" y1="394.13" x2="565.276" y2="122.13"/>
			
				<line fill="none" stroke="#333333" stroke-width="2" stroke-linecap="round" stroke-miterlimit="10" x1="572.276" y1="394.13" x2="572.276" y2="122.13"/>
		</g>
		<g id="Pencil_large_10_">
			<g>
				<polygon fill="#FEF7CE" points="591.888,394.13 585.863,390.066 585.863,61.773 595.168,39.062 604.151,61.763 604.151,390.04 
					597.812,394.13 				"/>
				<path fill="#333333" d="M595.136,44.417l7.016,17.726V388.95l-4.929,3.18h-4.724l-4.636-3.127V62.167L595.136,44.417
					 M595.2,33.709L583.863,61.38v329.75l7.413,5h7.125l7.75-5V61.38L595.2,33.709L595.2,33.709z"/>
			</g>
			<path fill="#96754A" d="M595.2,36.709l5.951,15.287c0,0-1.584,3.713-5.951,3.713c-4.299,0-6.049-3.713-6.049-3.713L595.2,36.709z
				"/>
			<g>
				<path fill="#96754A" d="M606.151,389.13V61.38c0,0-3.757,1.068-4.531,1.902c-0.851,0.916-1.969,5.098-1.969,5.098
					s-3.25-1.918-4.332-1.949c-1.012-0.03-4.043,1.699-4.043,1.699s-1.752-3.849-2.684-4.696c-0.922-0.839-4.729-2.054-4.729-2.054
					v327.75l7.413,5h7.125L606.151,389.13z"/>
			</g>
			<g>
				<path fill="#333333" d="M595.136,44.417l7.016,17.726V388.95l-4.929,3.18h-4.724l-4.636-3.127V62.167L595.136,44.417
					 M595.2,33.709L583.863,61.38v329.75l7.413,5h7.125l7.75-5V61.38L595.2,33.709L595.2,33.709z"/>
			</g>
			<path fill="none" stroke="#333333" stroke-width="2" stroke-miterlimit="10" d="M605.151,61.38c-3.73,0.324-4.811,3.785-5.5,7
				c-3.125-2.5-5.125-2.625-8.375-0.25c-1.625-4.375-2.751-5.214-6.375-6.919"/>
			
				<line fill="none" stroke="#333333" stroke-width="2" stroke-linecap="round" stroke-miterlimit="10" x1="591.276" y1="394.13" x2="591.276" y2="122.13"/>
			
				<line fill="none" stroke="#333333" stroke-width="2" stroke-linecap="round" stroke-miterlimit="10" x1="598.276" y1="394.13" x2="598.276" y2="122.13"/>
		</g>
		<g id="Pencil_large_9_">
			<g>
				<polygon fill="#FEF7CE" points="618.888,394.13 612.863,390.066 612.863,61.773 622.168,39.062 631.151,61.763 631.151,390.04 
					624.812,394.13 				"/>
				<path fill="#333333" d="M622.136,44.417l7.016,17.726V388.95l-4.929,3.18h-4.724l-4.636-3.127V62.167L622.136,44.417
					 M622.2,33.709L610.863,61.38v329.75l7.413,5h7.125l7.75-5V61.38L622.2,33.709L622.2,33.709z"/>
			</g>
			<path fill="#616263" d="M622.2,36.709l5.951,15.287c0,0-1.584,3.713-5.951,3.713c-4.299,0-6.049-3.713-6.049-3.713L622.2,36.709z
				"/>
			<g>
				<path fill="#616263" d="M633.151,389.13V61.38c0,0-3.757,1.068-4.531,1.902c-0.851,0.916-1.969,5.098-1.969,5.098
					s-3.25-1.918-4.332-1.949c-1.012-0.03-4.043,1.699-4.043,1.699s-1.752-3.849-2.684-4.696c-0.922-0.839-4.729-2.054-4.729-2.054
					v327.75l7.413,5h7.125L633.151,389.13z"/>
			</g>
			<g>
				<path fill="#333333" d="M622.136,44.417l7.016,17.726V388.95l-4.929,3.18h-4.724l-4.636-3.127V62.167L622.136,44.417
					 M622.2,33.709L610.863,61.38v329.75l7.413,5h7.125l7.75-5V61.38L622.2,33.709L622.2,33.709z"/>
			</g>
			<path fill="none" stroke="#333333" stroke-width="2" stroke-miterlimit="10" d="M632.151,61.38c-3.73,0.324-4.811,3.785-5.5,7
				c-3.125-2.5-5.125-2.625-8.375-0.25c-1.625-4.375-2.751-5.214-6.375-6.919"/>
			
				<line fill="none" stroke="#333333" stroke-width="2" stroke-linecap="round" stroke-miterlimit="10" x1="618.276" y1="394.13" x2="618.276" y2="122.13"/>
			
				<line fill="none" stroke="#333333" stroke-width="2" stroke-linecap="round" stroke-miterlimit="10" x1="625.276" y1="394.13" x2="625.276" y2="122.13"/>
		</g>
	</g>
</g>
<g id="Aquarell_1_">
</g>
<g id="Envelope_big_1_">
</g>
<g id="Envelope_small_1_">
</g>
<g id="Airmail_1_">
</g>
<g id="Highlighters_Closed_1_">
</g>
<g id="Highlighters_Open_1_">
</g>
<g id="USB_Stick_1_">
</g>
<g id="Pencil_Small">
</g>
<g id="Pencil_Large">
</g>
<g id="Brush_3_">
</g>
<g id="Notepad_1_">
</g>
<g id="Moleskine_Large_Open">
</g>
<g id="Moleskine_Small_Open_1_">
</g>
<g id="Moleskine_Large">
</g>
<g id="Moleskine_Small_1_">
</g>
<g id="iPad_Mini">
</g>
<g id="MacBook_13_x22_">
</g>
<g id="iMac_1_">
</g>
<g id="Wallet_2_">
</g>
<g id="iPhone_6_Grey">
</g>
<g id="iPhone_6_Silver_1_">
</g>
<g id="iPhone_6_Gold_1_">
</g>
<g id="Wallet_1_">
</g>
<g id="Bills">
</g>
<g id="Coins_1_">
</g>
<g id="Passport_Red_1_">
</g>
<g id="Passport_Blue_1_">
</g>
<g id="Credit_Card_Red">
</g>
<g id="Credit_Card_Blue">
</g>
<g id="Aeroplane_1_">
</g>
<g id="Magic_Mouse_1_">
</g>
<g id="Keyboard">
</g>
<g id="Ruler_1_">
</g>
<g id="Charger_1_">
</g>
<g id="Macbook_13_x22_">
</g>
<g id="Brushes">
</g>
<g id="Pencils">
</g>
<g id="Can">
</g>
<g id="Coffee">
</g>
<g id="Stylus">
</g>
<g id="Wacom_1_">
</g>
<g id="Paperclips_1_">
</g>
<g id="Earbuds_1_">
</g>
<g id="Glasses">
</g>
<g id="Sunglasses">
</g>
<g id="Case_1_">
</g>
<g id="Donut_1_">
</g>
</svg>
