<?xml version="1.0" encoding="utf-8"?>
<!-- Generator: Adobe Illustrator 16.0.0, SVG Export Plug-In . SVG Version: 6.00 Build 0)  -->
<!DOCTYPE svg PUBLIC "-//W3C//DTD SVG 1.1//EN" "http://www.w3.org/Graphics/SVG/1.1/DTD/svg11.dtd">
<svg version="1.1" xmlns="http://www.w3.org/2000/svg" xmlns:xlink="http://www.w3.org/1999/xlink" x="0px" y="0px" width="285px"
	 height="160px" viewBox="0 0 285 160" enable-background="new 0 0 285 160" xml:space="preserve">
<g id="Camera_Standing">
</g>
<g id="Camera_Lying">
</g>
<g id="Colours_1_">
</g>
<g id="Aquarell_1_">
</g>
<g id="Envelope_big_1_">
</g>
<g id="Envelope_small_1_">
</g>
<g id="Airmail_1_">
</g>
<g id="Highlighters_Closed_1_">
</g>
<g id="Highlighters_Open_1_">
</g>
<g id="USB_Stick_1_">
</g>
<g id="Pencil_Small">
</g>
<g id="Pencil_Large">
</g>
<g id="Brush_3_">
</g>
<g id="Notepad_1_">
</g>
<g id="Moleskine_Large_Open">
</g>
<g id="Moleskine_Small_Open_1_">
</g>
<g id="Moleskine_Large">
</g>
<g id="Moleskine_Small_1_">
</g>
<g id="iPad_Mini">
</g>
<g id="MacBook_13_x22_">
</g>
<g id="iMac_1_">
</g>
<g id="Wallet_2_">
</g>
<g id="iPhone_6_Grey">
</g>
<g id="iPhone_6_Silver_1_">
</g>
<g id="iPhone_6_Gold_1_">
</g>
<g id="Wallet_1_">
</g>
<g id="Bills">
</g>
<g id="Coins_1_">
</g>
<g id="Passport_Red_1_">
</g>
<g id="Passport_Blue_1_">
</g>
<g id="Credit_Card_Red">
	<g id="Background_8_">
		<path fill="#BB4D67" d="M259.497,148.211c0,4.696-3.807,8.504-8.504,8.504H25.355c-4.696,0-8.504-3.808-8.504-8.504V12.148
			c0-4.697,3.808-8.504,8.504-8.504h225.638c4.697,0,8.504,3.807,8.504,8.504V148.211z"/>
	</g>
	<g id="Light_10_">
		<path fill="#CF627C" d="M16.852,14.13v131.126c4.652,4.337,9.767,8.184,15.261,11.459h91.64
			c26.225-15.633,43.797-44.273,43.797-77.027c0-32.078-16.864-60.214-42.205-76.043H30.521
			C25.628,6.701,21.052,10.216,16.852,14.13z"/>
	</g>
	<g id="Shadow_4_">
		<path fill="#BB4D67" d="M259.497,145.762V13.955c-4.154-3.844-8.674-7.3-13.499-10.311h-94.913
			c-25.412,15.855-42.324,44.059-42.324,76.214c0,32.592,17.371,61.128,43.361,76.856h92.84
			C250.179,153.557,255.046,149.881,259.497,145.762z"/>
	</g>
	<g id="Light_9_">
		<g>
			<path fill="#CF627C" d="M163.729,53.811H73.962v10.105h92.166C165.515,60.471,164.722,57.099,163.729,53.811z M73.963,43.707
				h86.04c-1.529-3.487-3.264-6.861-5.215-10.104H73.963V43.707z M138.229,13.402H73.962v10.096h73.76
				C144.818,19.896,141.652,16.514,138.229,13.402z M73.963,124.531h81.549c1.879-3.249,3.579-6.616,5.047-10.104H73.963V124.531z
				 M167.35,74.016H73.963v10.109h93.473c0.066-1.476,0.113-2.949,0.113-4.438C167.549,77.782,167.467,75.897,167.35,74.016z
				 M73.962,104.321h90.13c0.941-3.294,1.704-6.659,2.264-10.104H73.962V104.321z M73.963,144.729h65.581
				c3.295-3.121,6.362-6.506,9.154-10.094H73.963V144.729z"/>
		</g>
	</g>
	<g id="Chip">
		<g>
			<path fill="#FCC865" d="M40.2,83.269c-2.261,0-4.101-1.839-4.101-4.1v-25.51c0-2.261,1.84-4.101,4.101-4.101h30.977
				c2.261,0,4.101,1.84,4.101,4.101v25.51c0,2.261-1.84,4.1-4.101,4.1H40.2z"/>
			<path fill="#333333" d="M71.177,50.559c1.712,0,3.101,1.389,3.101,3.101v25.51c0,1.712-1.389,3.1-3.101,3.1H40.2
				c-1.712,0-3.101-1.388-3.101-3.1v-25.51c0-1.712,1.389-3.101,3.101-3.101H71.177 M71.177,48.559H40.2
				c-2.812,0-5.101,2.288-5.101,5.101v25.51c0,2.812,2.288,5.1,5.101,5.1h30.977c2.812,0,5.101-2.288,5.101-5.1v-25.51
				C76.277,50.847,73.989,48.559,71.177,48.559L71.177,48.559z"/>
		</g>
		<path fill="#FEF7CE" d="M51.861,55.204c0,1.712-1.388,3.1-3.1,3.1h-7.469c-1.712,0-3.1-1.388-3.1-3.1v-0.36
			c0-1.713,1.388-3.101,3.1-3.101h7.469c1.712,0,3.1,1.388,3.1,3.101V55.204z"/>
		<path fill="#FEF7CE" d="M51.861,62.858c0,1.712-1.388,3.1-3.1,3.1h-7.469c-1.712,0-3.1-1.388-3.1-3.1v-0.361
			c0-1.712,1.388-3.1,3.1-3.1h7.469c1.712,0,3.1,1.388,3.1,3.1V62.858z"/>
		<path fill="#FEF7CE" d="M51.861,70.512c0,1.712-1.388,3.101-3.1,3.101h-7.469c-1.712,0-3.1-1.389-3.1-3.101v-0.36
			c0-1.712,1.388-3.1,3.1-3.1h7.469c1.712,0,3.1,1.388,3.1,3.1V70.512z"/>
		<path fill="#FEF7CE" d="M51.861,78.166c0,1.712-1.388,3.101-3.1,3.101h-7.469c-1.712,0-3.1-1.389-3.1-3.101v-0.36
			c0-1.712,1.388-3.101,3.1-3.101h7.469c1.712,0,3.1,1.389,3.1,3.101V78.166z"/>
		<path fill="#FEF7CE" d="M72.637,70.512c0,1.712-1.388,3.101-3.1,3.101h-7.469c-1.712,0-3.1-1.389-3.1-3.101v-0.36
			c0-1.712,1.388-3.1,3.1-3.1h7.469c1.712,0,3.1,1.388,3.1,3.1V70.512z"/>
		<path fill="#FEF7CE" d="M72.637,78.166c0,1.712-1.388,3.101-3.1,3.101h-7.469c-1.712,0-3.1-1.389-3.1-3.101v-0.36
			c0-1.712,1.388-3.101,3.1-3.101h7.469c1.712,0,3.1,1.389,3.1,3.101V78.166z"/>
	</g>
	<g id="Border_12_">
		<g>
			<path fill="#333333" d="M250.993,7.645c2.483,0,4.504,2.021,4.504,4.504v136.062c0,2.483-2.021,4.504-4.504,4.504H25.355
				c-2.483,0-4.504-2.021-4.504-4.504V12.148c0-2.483,2.021-4.504,4.504-4.504H250.993 M250.993,3.645H25.355
				c-4.696,0-8.504,3.807-8.504,8.504v136.062c0,4.696,3.808,8.504,8.504,8.504h225.638c4.697,0,8.504-3.808,8.504-8.504V12.148
				C259.497,7.451,255.69,3.645,250.993,3.645L250.993,3.645z"/>
		</g>
	</g>
	<path id="Border_11_" fill="#CF627C" d="M249.331,73.215c0,12.523-10.152,22.677-22.677,22.677h-17.98
		c-12.524,0-22.677-10.153-22.677-22.677V35.236c0-12.524,10.152-22.678,22.677-22.678h17.98c12.524,0,22.677,10.153,22.677,22.678
		V73.215z"/>
	<path id="Logo_5_" fill-rule="evenodd" clip-rule="evenodd" fill="#E30520" d="M222.593,35.678c0,8.904-7.221,16.128-16.133,16.128
		c-8.906,0-16.129-7.224-16.129-16.128c0-8.91,7.223-16.131,16.129-16.131C215.372,19.547,222.593,26.768,222.593,35.678z"/>
	<circle id="Logo_4_" fill-rule="evenodd" clip-rule="evenodd" fill="#F9B421" cx="228.171" cy="35.707" r="16.16"/>
	<path id="Logo_3_" fill="#E30520" d="M222.554,34.654h-16.807v1.816h16.822c0.018-0.26,0.023-0.529,0.023-0.793
		C222.593,35.334,222.573,34.99,222.554,34.654z M205.747,47.385h11.803c0.594-0.564,1.147-1.172,1.648-1.82h-13.451V47.385z
		 M217.314,23.742h-11.567v1.822h13.274C218.499,24.912,217.929,24.303,217.314,23.742z M220.296,27.381h-14.549v1.816h15.488
		C220.958,28.572,220.646,27.961,220.296,27.381z M221.907,31.016h-16.16v1.82h16.592C222.228,32.219,222.085,31.609,221.907,31.016
		z M205.747,43.744h14.678c0.338-0.584,0.646-1.187,0.912-1.816h-15.59V43.744z M205.747,40.111h16.223
		c0.168-0.596,0.307-1.201,0.408-1.818h-16.631V40.111z"/>
	<path id="Hologram" fill="#F77F5B" d="M244.331,73.706c0,8.925-7.234,16.159-16.159,16.159H206.49
		c-8.925,0-16.159-7.234-16.159-16.159l0,0c0-8.925,7.234-16.159,16.159-16.159h21.682
		C237.097,57.547,244.331,64.781,244.331,73.706L244.331,73.706z"/>
	<text id="Number" transform="matrix(1 0 0 1 36.3311 107.5342)" fill="#FCC865" font-family="'Belizio-Medium'" font-size="16">9682  1286  9523  4235</text>
	<text id="Date" transform="matrix(1 0 0 1 38.1934 129.5342)" fill="#FCC865" font-family="'Belizio-Medium'" font-size="13">12/22</text>
</g>
<g id="Credit_Card_Blue">
</g>
<g id="Aeroplane_1_">
</g>
<g id="Magic_Mouse_1_">
</g>
<g id="Keyboard">
</g>
<g id="Ruler_1_">
</g>
<g id="Charger_1_">
</g>
<g id="Macbook_13_x22_">
</g>
<g id="Brushes">
</g>
<g id="Pencils">
</g>
<g id="Can">
</g>
<g id="Coffee">
</g>
<g id="Stylus">
</g>
<g id="Wacom_1_">
</g>
<g id="Paperclips_1_">
</g>
<g id="Earbuds_1_">
</g>
<g id="Glasses">
</g>
<g id="Sunglasses">
</g>
<g id="Case_1_">
</g>
<g id="Donut_1_">
</g>
</svg>
