<?xml version="1.0" encoding="utf-8"?>
<!-- Generator: Adobe Illustrator 16.0.0, SVG Export Plug-In . SVG Version: 6.00 Build 0)  -->
<!DOCTYPE svg PUBLIC "-//W3C//DTD SVG 1.1//EN" "http://www.w3.org/Graphics/SVG/1.1/DTD/svg11.dtd">
<svg version="1.1" xmlns="http://www.w3.org/2000/svg" xmlns:xlink="http://www.w3.org/1999/xlink" x="0px" y="0px" width="285px"
	 height="160px" viewBox="0 0 285 160" enable-background="new 0 0 285 160" xml:space="preserve">
<g id="Camera_Standing">
</g>
<g id="Camera_Lying">
</g>
<g id="Colours_1_">
</g>
<g id="Aquarell_1_">
</g>
<g id="Envelope_big_1_">
</g>
<g id="Envelope_small_1_">
</g>
<g id="Airmail_1_">
</g>
<g id="Highlighters_Closed_1_">
</g>
<g id="Highlighters_Open_1_">
</g>
<g id="USB_Stick_1_">
</g>
<g id="Pencil_Small">
</g>
<g id="Pencil_Large">
</g>
<g id="Brush_3_">
</g>
<g id="Notepad_1_">
</g>
<g id="Moleskine_Large_Open">
</g>
<g id="Moleskine_Small_Open_1_">
</g>
<g id="Moleskine_Large">
</g>
<g id="Moleskine_Small_1_">
</g>
<g id="iPad_Mini">
</g>
<g id="MacBook_13_x22_">
</g>
<g id="iMac_1_">
</g>
<g id="Wallet_2_">
</g>
<g id="iPhone_6_Grey">
</g>
<g id="iPhone_6_Silver_1_">
</g>
<g id="iPhone_6_Gold_1_">
</g>
<g id="Wallet_1_">
</g>
<g id="Bills">
</g>
<g id="Coins_1_">
</g>
<g id="Passport_Red_1_">
</g>
<g id="Passport_Blue_1_">
</g>
<g id="Credit_Card_Red">
</g>
<g id="Credit_Card_Blue">
	<g id="Background_9_">
		<path fill="#4F8699" d="M259.495,148.571c0,4.696-3.807,8.504-8.504,8.504H25.354c-4.696,0-8.504-3.808-8.504-8.504V12.509
			c0-4.697,3.808-8.504,8.504-8.504h225.638c4.697,0,8.504,3.807,8.504,8.504V148.571z"/>
	</g>
	<g id="Light_12_">
		<path fill="#58B6B4" d="M16.85,14.49v131.126c4.652,4.337,9.767,8.184,15.261,11.459h91.64
			c26.225-15.633,43.797-44.273,43.797-77.027c0-32.078-16.864-60.214-42.205-76.043H30.519C25.626,7.062,21.05,10.576,16.85,14.49z
			"/>
	</g>
	<g id="Shadow_5_">
		<path fill="#4F8699" d="M259.495,146.122V14.315c-4.154-3.844-8.674-7.3-13.499-10.311h-94.913
			c-25.412,15.855-42.324,44.059-42.324,76.214c0,32.592,17.371,61.128,43.361,76.856h92.84
			C250.177,153.917,255.044,150.241,259.495,146.122z"/>
	</g>
	<g id="Light_11_">
		<g>
			<path fill="#58B6B4" d="M163.727,54.171H73.96v10.105h92.166C165.513,60.831,164.72,57.459,163.727,54.171z M73.961,44.067h86.04
				c-1.529-3.487-3.264-6.861-5.215-10.104H73.961V44.067z M138.228,13.763H73.96v10.096h73.76
				C144.816,20.256,141.65,16.874,138.228,13.763z M73.961,124.892h81.549c1.879-3.249,3.579-6.616,5.047-10.104H73.961V124.892z
				 M167.348,74.376H73.961v10.109h93.473c0.066-1.476,0.113-2.949,0.113-4.438C167.547,78.143,167.465,76.258,167.348,74.376z
				 M73.96,104.682h90.13c0.941-3.294,1.704-6.659,2.264-10.104H73.96V104.682z M73.961,145.089h65.581
				c3.295-3.121,6.362-6.506,9.154-10.094H73.961V145.089z"/>
		</g>
	</g>
	<g id="Chip_1_">
		<g>
			<path fill="#FCC865" d="M40.198,83.629c-2.261,0-4.101-1.839-4.101-4.1V54.02c0-2.261,1.84-4.101,4.101-4.101h30.977
				c2.261,0,4.101,1.84,4.101,4.101v25.51c0,2.261-1.84,4.1-4.101,4.1H40.198z"/>
			<path fill="#333333" d="M71.175,50.919c1.712,0,3.101,1.389,3.101,3.101v25.51c0,1.712-1.389,3.1-3.101,3.1H40.198
				c-1.712,0-3.101-1.388-3.101-3.1V54.02c0-1.712,1.389-3.101,3.101-3.101H71.175 M71.175,48.919H40.198
				c-2.812,0-5.101,2.288-5.101,5.101v25.51c0,2.812,2.288,5.1,5.101,5.1h30.977c2.812,0,5.101-2.287,5.101-5.1V54.02
				C76.275,51.207,73.987,48.919,71.175,48.919L71.175,48.919z"/>
		</g>
		<path fill="#FEF7CE" d="M51.859,55.564c0,1.712-1.388,3.1-3.1,3.1h-7.469c-1.712,0-3.1-1.388-3.1-3.1v-0.36
			c0-1.713,1.388-3.101,3.1-3.101h7.469c1.712,0,3.1,1.388,3.1,3.101V55.564z"/>
		<path fill="#FEF7CE" d="M51.859,63.219c0,1.712-1.388,3.1-3.1,3.1h-7.469c-1.712,0-3.1-1.388-3.1-3.1v-0.361
			c0-1.712,1.388-3.1,3.1-3.1h7.469c1.712,0,3.1,1.388,3.1,3.1V63.219z"/>
		<path fill="#FEF7CE" d="M51.859,70.872c0,1.712-1.388,3.101-3.1,3.101h-7.469c-1.712,0-3.1-1.389-3.1-3.101v-0.36
			c0-1.712,1.388-3.1,3.1-3.1h7.469c1.712,0,3.1,1.388,3.1,3.1V70.872z"/>
		<path fill="#FEF7CE" d="M51.859,78.526c0,1.712-1.388,3.101-3.1,3.101h-7.469c-1.712,0-3.1-1.389-3.1-3.101v-0.36
			c0-1.712,1.388-3.101,3.1-3.101h7.469c1.712,0,3.1,1.389,3.1,3.101V78.526z"/>
		<path fill="#FEF7CE" d="M72.635,70.872c0,1.712-1.388,3.101-3.1,3.101h-7.469c-1.712,0-3.1-1.389-3.1-3.101v-0.36
			c0-1.712,1.388-3.1,3.1-3.1h7.469c1.712,0,3.1,1.388,3.1,3.1V70.872z"/>
		<path fill="#FEF7CE" d="M72.635,78.526c0,1.712-1.388,3.101-3.1,3.101h-7.469c-1.712,0-3.1-1.389-3.1-3.101v-0.36
			c0-1.712,1.388-3.101,3.1-3.101h7.469c1.712,0,3.1,1.389,3.1,3.101V78.526z"/>
	</g>
	<g id="Border_14_">
		<g>
			<path fill="#333333" d="M250.991,8.005c2.483,0,4.504,2.021,4.504,4.504v136.062c0,2.483-2.021,4.504-4.504,4.504H25.354
				c-2.483,0-4.504-2.021-4.504-4.504V12.509c0-2.483,2.021-4.504,4.504-4.504H250.991 M250.991,4.005H25.354
				c-4.696,0-8.504,3.807-8.504,8.504v136.062c0,4.696,3.808,8.504,8.504,8.504h225.638c4.697,0,8.504-3.808,8.504-8.504V12.509
				C259.495,7.812,255.688,4.005,250.991,4.005L250.991,4.005z"/>
		</g>
	</g>
	<path id="Border_13_" fill="#58B6B4" d="M249.329,73.575c0,12.523-10.152,22.677-22.677,22.677h-17.98
		c-12.524,0-22.677-10.153-22.677-22.677V35.597c0-12.524,10.152-22.678,22.677-22.678h17.98c12.524,0,22.677,10.153,22.677,22.678
		V73.575z"/>
	<path id="Logo_8_" fill-rule="evenodd" clip-rule="evenodd" fill="#E30520" d="M222.591,36.038c0,8.904-7.221,16.128-16.133,16.128
		c-8.906,0-16.129-7.224-16.129-16.128c0-8.91,7.223-16.131,16.129-16.131C215.37,19.907,222.591,27.128,222.591,36.038z"/>
	<circle id="Logo_7_" fill-rule="evenodd" clip-rule="evenodd" fill="#F9B421" cx="228.169" cy="36.067" r="16.16"/>
	<path id="Logo_6_" fill="#E30520" d="M222.552,35.015h-16.807v1.816h16.822c0.018-0.26,0.023-0.529,0.023-0.793
		C222.591,35.694,222.571,35.351,222.552,35.015z M205.745,47.745h11.803c0.594-0.564,1.147-1.172,1.648-1.82h-13.451V47.745z
		 M217.312,24.103h-11.567v1.822h13.274C218.497,25.272,217.927,24.663,217.312,24.103z M220.294,27.741h-14.549v1.816h15.488
		C220.956,28.933,220.644,28.321,220.294,27.741z M221.905,31.376h-16.16v1.82h16.592C222.226,32.579,222.083,31.97,221.905,31.376z
		 M205.745,44.104h14.678c0.338-0.584,0.646-1.187,0.912-1.816h-15.59V44.104z M205.745,40.472h16.223
		c0.168-0.596,0.307-1.201,0.408-1.818h-16.631V40.472z"/>
	<path id="Hologram_1_" fill="#D6D6D6" d="M244.329,74.066c0,8.925-7.234,16.159-16.159,16.159h-21.682
		c-8.925,0-16.159-7.234-16.159-16.159l0,0c0-8.925,7.234-16.159,16.159-16.159h21.682
		C237.095,57.907,244.329,65.142,244.329,74.066L244.329,74.066z"/>
	<text id="Number_1_" transform="matrix(1 0 0 1 36.3296 107.8945)" fill="#333333" font-family="'Belizio-Medium'" font-size="16">5843  2948  2174  6392</text>
	<text id="Date_1_" transform="matrix(1 0 0 1 38.1919 129.8945)" fill="#333333" font-family="'Belizio-Medium'" font-size="13">10/19</text>
</g>
<g id="Aeroplane_1_">
</g>
<g id="Magic_Mouse_1_">
</g>
<g id="Keyboard">
</g>
<g id="Ruler_1_">
</g>
<g id="Charger_1_">
</g>
<g id="Macbook_13_x22_">
</g>
<g id="Brushes">
</g>
<g id="Pencils">
</g>
<g id="Can">
</g>
<g id="Coffee">
</g>
<g id="Stylus">
</g>
<g id="Wacom_1_">
</g>
<g id="Paperclips_1_">
</g>
<g id="Earbuds_1_">
</g>
<g id="Glasses">
</g>
<g id="Sunglasses">
</g>
<g id="Case_1_">
</g>
<g id="Donut_1_">
</g>
</svg>
