<?xml version="1.0" encoding="utf-8"?>
<!-- Generator: Adobe Illustrator 16.0.0, SVG Export Plug-In . SVG Version: 6.00 Build 0)  -->
<!DOCTYPE svg PUBLIC "-//W3C//DTD SVG 1.1//EN" "http://www.w3.org/Graphics/SVG/1.1/DTD/svg11.dtd">
<svg version="1.1" xmlns="http://www.w3.org/2000/svg" xmlns:xlink="http://www.w3.org/1999/xlink" x="0px" y="0px" width="700px"
	 height="900px" viewBox="0 0 700 900" enable-background="new 0 0 700 900" xml:space="preserve">
<g id="Camera_Standing">
</g>
<g id="Camera_Lying">
</g>
<g id="Colours_1_">
</g>
<g id="Aquarell_1_">
</g>
<g id="Envelope_big_1_">
	<path id="background_13_" fill="#FCD17A" stroke="#333333" stroke-width="4" stroke-miterlimit="10" d="M31.294,883.889
		c-4.42,0-8-3.582-8-8V23.148c0-4.418,3.58-8,8-8h644.314c4.418,0,8,3.582,8,8v852.74c0,4.418-3.582,8-8,8H31.294z"/>
	<path id="lash_1_" fill="#FCD17A" stroke="#333333" stroke-width="4" stroke-miterlimit="10" d="M675.608,15.148H31.294
		c-3.689,0-6.786,2.499-7.711,5.895c9.954,27.399,26.96,74.419,28.833,80.976c2.667,9.334,5.333,15.334,20,15.334
		s281.035,0,281.035,0s265.368,0,280.035,0s17.333-6,20-15.334c1.904-6.666,19.452-55.158,29.326-82.332
		C681.521,17.005,678.784,15.148,675.608,15.148z"/>
	<path id="twine_1_" fill="none" stroke="#333333" stroke-width="4" stroke-linecap="round" stroke-miterlimit="10" d="M340,68.353
		c0-13.727,5.784-14.727,14.726-14.727s13.5,5.941,13.5,13.5s-29.893,85.227-29.893,99.227s9.783,17.391,17.392,17.391
		s13.946-6.834,13.946-13.946s-34.004-89.11-34.004-101.444s3.902-19.668,17.784-19.668s19.607,8.215,19.607,19.607
		s-5.104,15.393-19.607,15.393S331,80.353,331,68.353s3.815-26,22.451-26s27.636,28.579,49.926,31.289"/>
	<path id="Button_6_" fill="#E2E2E2" stroke="#333333" stroke-width="4" stroke-miterlimit="10" d="M353.451,37.353
		c-17.121,0-31,13.878-31,31c0,17.12,13.879,31,31,31s31-13.88,31-31C384.451,51.23,370.572,37.353,353.451,37.353z M353.451,74.853
		c-3.591,0-6.5-2.912-6.5-6.5s2.909-6.5,6.5-6.5c3.588,0,6.5,2.912,6.5,6.5S357.039,74.853,353.451,74.853z"/>
	<path id="Button_5_" fill="#E2E2E2" stroke="#333333" stroke-width="4" stroke-miterlimit="10" d="M353.451,137.353
		c-17.121,0-31,13.878-31,31c0,17.12,13.879,31,31,31s31-13.88,31-31C384.451,151.23,370.572,137.353,353.451,137.353z
		 M353.451,174.853c-3.591,0-6.5-2.912-6.5-6.5s2.909-6.5,6.5-6.5c3.588,0,6.5,2.912,6.5,6.5S357.039,174.853,353.451,174.853z"/>
</g>
<g id="Envelope_small_1_">
</g>
<g id="Airmail_1_">
	<g id="print">
		<defs>
			<path id="SVGID_3_" d="M562.655,1049.687l-614-0.001c-4.419,0-8,3.582-8,8v398.001c0,4.418,3.581,8,8,8h614c4.419,0,8-3.582,8-8
				v-398C570.655,1053.268,567.074,1049.687,562.655,1049.687z M554.655,1440.687c0,4.418-3.581,8-8,8h-583c-4.419,0-8-3.582-8-8
				v-368.001c0-4.418,3.581-8,8-8l583,0.001c4.419,0,8,3.581,8,8V1440.687z"/>
		</defs>
		<clipPath id="SVGID_2_">
			<use xlink:href="#SVGID_3_"  overflow="visible"/>
		</clipPath>
		<g clip-path="url(#SVGID_2_)">
			<polygon fill="#BB4D67" points="265.059,1097.719 265.059,1137.979 649.029,871.187 649.029,833.189 			"/>
			<polygon fill="#BB4D67" points="265.059,947.719 265.059,987.979 649.029,721.187 649.029,683.189 			"/>
			<polygon fill="#456AC9" points="265.059,1027.719 265.059,1067.979 649.029,801.187 649.029,763.189 			"/>
			<polygon fill="#BB4D67" points="265.059,797.719 -114.741,1059.375 -114.741,1101.872 265.059,837.979 			"/>
			<polygon fill="#BB4D67" points="265.059,797.719 265.059,837.979 649.029,571.187 649.029,533.189 			"/>
			<polygon fill="#456AC9" points="265.059,877.719 -114.741,1139.375 -114.741,1181.872 265.059,917.979 			"/>
			<polygon fill="#456AC9" points="265.059,877.719 265.059,917.979 649.029,651.187 649.029,613.189 			"/>
		</g>
	</g>
</g>
<g id="Highlighters_Closed_1_">
</g>
<g id="Highlighters_Open_1_">
</g>
<g id="USB_Stick_1_">
</g>
<g id="Pencil_Small">
</g>
<g id="Pencil_Large">
</g>
<g id="Brush_3_">
</g>
<g id="Notepad_1_">
</g>
<g id="Moleskine_Large_Open">
</g>
<g id="Moleskine_Small_Open_1_">
</g>
<g id="Moleskine_Large">
</g>
<g id="Moleskine_Small_1_">
</g>
<g id="iPad_Mini">
</g>
<g id="MacBook_13_x22_">
</g>
<g id="iMac_1_">
</g>
<g id="Wallet_2_">
</g>
<g id="iPhone_6_Grey">
</g>
<g id="iPhone_6_Silver_1_">
</g>
<g id="iPhone_6_Gold_1_">
</g>
<g id="Wallet_1_">
</g>
<g id="Bills">
</g>
<g id="Coins_1_">
</g>
<g id="Passport_Red_1_">
</g>
<g id="Passport_Blue_1_">
</g>
<g id="Credit_Card_Red">
</g>
<g id="Credit_Card_Blue">
</g>
<g id="Aeroplane_1_">
</g>
<g id="Magic_Mouse_1_">
</g>
<g id="Keyboard">
</g>
<g id="Ruler_1_">
</g>
<g id="Charger_1_">
</g>
<g id="Macbook_13_x22_">
</g>
<g id="Brushes">
</g>
<g id="Pencils">
</g>
<g id="Can">
</g>
<g id="Coffee">
</g>
<g id="Stylus">
</g>
<g id="Wacom_1_">
</g>
<g id="Paperclips_1_">
</g>
<g id="Earbuds_1_">
</g>
<g id="Glasses">
</g>
<g id="Sunglasses">
</g>
<g id="Case_1_">
</g>
<g id="Donut_1_">
</g>
</svg>
