<?xml version="1.0" encoding="utf-8"?>
<!-- Generator: Adobe Illustrator 16.0.0, SVG Export Plug-In . SVG Version: 6.00 Build 0)  -->
<!DOCTYPE svg PUBLIC "-//W3C//DTD SVG 1.1//EN" "http://www.w3.org/Graphics/SVG/1.1/DTD/svg11.dtd">
<svg version="1.1" xmlns="http://www.w3.org/2000/svg" xmlns:xlink="http://www.w3.org/1999/xlink" x="0px" y="0px" width="90px"
	 height="340px" viewBox="0 0 90 340" enable-background="new 0 0 90 340" xml:space="preserve">
<g id="Camera_Standing">
</g>
<g id="Camera_Lying">
</g>
<g id="Colours_1_">
</g>
<g id="Aquarell_1_">
</g>
<g id="Envelope_big_1_">
</g>
<g id="Envelope_small_1_">
</g>
<g id="Airmail_1_">
</g>
<g id="Highlighters_Closed_1_">
	<g id="_x33__1_">
		<path id="background_10_" fill="#4BA7AF" d="M64.514,326.436c3.131,0,5.67-2.539,5.67-5.67c0,0,10.781-96.986,9.654-193.136
			C79.16,69.79,66.514,23.109,66.184,21.947c-0.879-3.096-1.264-4.126-5.67-5.669c-3.828-1.341-27.446-1.341-31.918,0
			c-4.471,1.341-4.791,2.573-5.668,5.669C22.598,23.109,9.951,69.79,9.271,127.63c-1.127,96.149,9.656,193.136,9.656,193.136
			c0,3.131,2.537,5.67,5.668,5.67C27.436,326.436,67.592,326.436,64.514,326.436z"/>
		<path id="border_28_" fill="#333333" d="M44.555,121.793c13.459,0,26.674,3.545,35.289,6.446
			c-0.002-0.202-0.004-0.407-0.006-0.609c-0.074-6.392-0.297-12.647-0.631-18.721c-7.936-2.833-19.891-5.866-34.652-5.866
			s-26.717,3.033-34.651,5.866c-0.335,6.073-0.556,12.329-0.632,18.721c-0.002,0.202-0.004,0.407-0.006,0.609
			C17.881,125.338,31.098,121.793,44.555,121.793z"/>
		<path id="clip_background_2_" fill="#4BA7AF" d="M55.227,29.627c-0.5-2.167-1-4-2.166-4c-1.168,0-8.334,0-8.334,0
			s-7.166,0-8.332,0c-1.168,0-1.668,1.833-2.168,4c-0.499,2.167-3.166,67.834-3.166,73.834s7,10.333,13.666,10.333
			c6.668,0,13.668-4.333,13.668-10.333S55.727,31.794,55.227,29.627z"/>
		<path id="light_3_" fill="#58B6B4" d="M44.727,25.627c0,0-7.166,0-8.332,0c-1.168,0-1.668,1.833-2.168,4
			c-0.233,1.016-0.943,4.007-1.633,18.141c3.217,0.59,7.238,1.025,12.133,1.025c5.252,0,9.201-0.498,12.129-1.154
			c-0.688-14.084-1.395-16.999-1.629-18.012c-0.5-2.167-1-4-2.166-4C51.893,25.627,44.727,25.627,44.727,25.627z"/>
		<path id="clip_border_2_" fill="none" stroke="#333333" stroke-width="4" stroke-miterlimit="10" d="M55.227,29.627
			c-0.5-2.167-1-4-2.166-4c-1.168,0-8.334,0-8.334,0s-7.166,0-8.332,0c-1.168,0-1.668,1.833-2.168,4
			c-0.499,2.167-3.166,67.834-3.166,73.834s7,10.333,13.666,10.333c6.668,0,13.668-4.333,13.668-10.333S55.727,31.794,55.227,29.627
			z"/>
		<path id="border_27_" fill="none" stroke="#333333" stroke-width="4" stroke-miterlimit="10" d="M64.514,326.436
			c3.131,0,5.67-2.539,5.67-5.67c0,0,10.781-96.986,9.654-193.136C79.16,69.79,66.514,23.109,66.184,21.947
			c-0.879-3.096-1.264-4.126-5.67-5.669c-3.828-1.341-27.446-1.341-31.918,0c-4.471,1.341-4.791,2.573-5.668,5.669
			C22.598,23.109,9.951,69.79,9.271,127.63c-1.127,96.149,9.656,193.136,9.656,193.136c0,3.131,2.537,5.67,5.668,5.67
			C27.436,326.436,67.592,326.436,64.514,326.436z"/>
	</g>
</g>
<g id="Highlighters_Open_1_">
</g>
<g id="USB_Stick_1_">
</g>
<g id="Pencil_Small">
</g>
<g id="Pencil_Large">
</g>
<g id="Brush_3_">
</g>
<g id="Notepad_1_">
</g>
<g id="Moleskine_Large_Open">
</g>
<g id="Moleskine_Small_Open_1_">
</g>
<g id="Moleskine_Large">
</g>
<g id="Moleskine_Small_1_">
</g>
<g id="iPad_Mini">
</g>
<g id="MacBook_13_x22_">
</g>
<g id="iMac_1_">
</g>
<g id="Wallet_2_">
</g>
<g id="iPhone_6_Grey">
</g>
<g id="iPhone_6_Silver_1_">
</g>
<g id="iPhone_6_Gold_1_">
</g>
<g id="Wallet_1_">
</g>
<g id="Bills">
</g>
<g id="Coins_1_">
</g>
<g id="Passport_Red_1_">
</g>
<g id="Passport_Blue_1_">
</g>
<g id="Credit_Card_Red">
</g>
<g id="Credit_Card_Blue">
</g>
<g id="Aeroplane_1_">
</g>
<g id="Magic_Mouse_1_">
</g>
<g id="Keyboard">
</g>
<g id="Ruler_1_">
</g>
<g id="Charger_1_">
</g>
<g id="Macbook_13_x22_">
</g>
<g id="Brushes">
</g>
<g id="Pencils">
</g>
<g id="Can">
</g>
<g id="Coffee">
</g>
<g id="Stylus">
</g>
<g id="Wacom_1_">
</g>
<g id="Paperclips_1_">
</g>
<g id="Earbuds_1_">
</g>
<g id="Glasses">
</g>
<g id="Sunglasses">
</g>
<g id="Case_1_">
</g>
<g id="Donut_1_">
</g>
</svg>
