<?xml version="1.0" encoding="utf-8"?>
<!-- Generator: Adobe Illustrator 16.0.0, SVG Export Plug-In . SVG Version: 6.00 Build 0)  -->
<!DOCTYPE svg PUBLIC "-//W3C//DTD SVG 1.1//EN" "http://www.w3.org/Graphics/SVG/1.1/DTD/svg11.dtd">
<svg version="1.1" xmlns="http://www.w3.org/2000/svg" xmlns:xlink="http://www.w3.org/1999/xlink" x="0px" y="0px" width="90px"
	 height="470px" viewBox="0 0 90 470" enable-background="new 0 0 90 470" xml:space="preserve">
<g id="Camera_Standing">
</g>
<g id="Camera_Lying">
</g>
<g id="Colours_1_">
</g>
<g id="Aquarell_1_">
</g>
<g id="Envelope_big_1_">
</g>
<g id="Envelope_small_1_">
</g>
<g id="Airmail_1_">
</g>
<g id="Highlighters_Closed_1_">
</g>
<g id="Highlighters_Open_1_">
	<g id="_x31__1_">
		<polygon id="tip_8_" fill="#FCC865" stroke="#333333" stroke-width="4" stroke-miterlimit="10" points="39.187,177.481 
			39.187,162.826 53.187,155.155 53.187,177.481 		"/>
		<path id="tip_7_" fill="#616263" stroke="#333333" stroke-width="4" stroke-miterlimit="10" d="M11.318,234.525
			c0.034-5.037,13.202-14.369,18.368-27.703s5-22.333,5-26s1.666-3.333,2.333-3.333s8.833,0,8.833,0s8.166,0,8.833,0
			s2.333-0.334,2.333,3.333s-0.166,12.666,5,26s18.334,22.666,18.368,27.703H11.318z"/>
		<path id="background_7_" fill="#F77F5B" d="M80.623,234.525c-7.936-2.833-19.891-5.866-34.652-5.866s-26.717,3.033-34.652,5.866
			c-0.334,6.073-0.556,12.329-0.631,18.721c-1.127,96.149,9.655,193.136,9.655,193.136c0,3.131,2.538,5.67,5.669,5.67
			c2.63,0,37.248,0,39.918,0c3.131,0,5.669-2.539,5.669-5.67c0,0,10.782-96.986,9.655-193.136
			C81.179,246.854,80.957,240.599,80.623,234.525z"/>
		<path id="border_22_" fill="#333333" d="M45.971,247.409c13.458,0,26.674,3.545,35.289,6.446
			c-0.002-0.202-0.004-0.407-0.006-0.609c-0.075-6.392-0.297-12.647-0.631-18.721c-7.936-2.833-19.891-5.866-34.652-5.866
			s-26.717,3.033-34.652,5.866c-0.334,6.073-0.556,12.329-0.631,18.721c-0.002,0.202-0.004,0.407-0.006,0.609
			C19.297,250.954,32.513,247.409,45.971,247.409z"/>
		<path id="border_19_" fill="none" stroke="#333333" stroke-width="4" stroke-miterlimit="10" d="M80.623,234.525
			c-7.936-2.833-19.891-5.866-34.652-5.866s-26.717,3.033-34.652,5.866c-0.334,6.073-0.556,12.329-0.631,18.721
			c-1.127,96.149,9.655,193.136,9.655,193.136c0,3.131,2.538,5.67,5.669,5.67c2.63,0,37.248,0,39.918,0
			c3.131,0,5.669-2.539,5.669-5.67c0,0,10.782-96.986,9.655-193.136C81.179,246.854,80.957,240.599,80.623,234.525z"/>
		<g id="Cap_2_">
			<path fill="#333333" stroke="#333333" stroke-width="4" stroke-miterlimit="10" d="M11.22,117.649c0,0,8.57,7.967,34.633,7.967
				s34.634-8.43,34.634-8.43s-1.233-22.855-3.989-40.117s-58.635-17.751-61.263,0C13.454,89.093,11.22,117.649,11.22,117.649z"/>
			<path fill="#F77F5B" d="M45.866,109.87c10.208,0,24.283,2.708,34.62,5.316c-2.737-48.607-12.7-85.383-12.992-86.412
				c-0.878-3.096-1.264-4.126-5.669-5.669c-3.828-1.341-27.447-1.341-31.918,0s-4.791,2.573-5.669,5.669
				c-0.294,1.033-10.319,38.037-13.019,86.875C20.3,112.962,34.041,109.87,45.866,109.87z"/>
			<path fill="none" stroke="#333333" stroke-width="4" stroke-miterlimit="10" d="M45.866,109.87
				c10.208,0,24.283,2.708,34.62,5.316c-2.737-48.607-12.7-85.383-12.992-86.412c-0.878-3.096-1.264-4.126-5.669-5.669
				c-3.828-1.341-27.447-1.341-31.918,0s-4.791,2.573-5.669,5.669c-0.294,1.033-10.319,38.037-13.019,86.875
				C20.3,112.962,34.041,109.87,45.866,109.87z"/>
			<path fill="#F77F5B" d="M56.538,36.454c-0.5-2.167-1-4-2.166-4c-1.168,0-8.334,0-8.334,0s-7.166,0-8.332,0
				c-1.168,0-1.668,1.833-2.168,4s-3.166,67.834-3.166,73.834s7,10.333,13.666,10.333c6.668,0,13.667-4.333,13.667-10.333
				S57.038,38.621,56.538,36.454z"/>
			<path fill="#FCC865" d="M46.038,32.454c0,0-7.166,0-8.332,0c-1.168,0-1.668,1.833-2.168,4c-0.234,1.016-0.944,4.007-1.633,18.141
				c3.217,0.59,7.237,1.025,12.133,1.025c5.252,0,9.201-0.498,12.128-1.154c-0.687-14.084-1.394-16.999-1.628-18.012
				c-0.5-2.167-1-4-2.166-4C53.204,32.454,46.038,32.454,46.038,32.454z"/>
			<path fill="none" stroke="#333333" stroke-width="4" stroke-miterlimit="10" d="M56.538,36.454c-0.5-2.167-1-4-2.166-4
				c-1.168,0-8.334,0-8.334,0s-7.166,0-8.332,0c-1.168,0-1.668,1.833-2.168,4s-3.166,67.834-3.166,73.834s7,10.333,13.666,10.333
				c6.668,0,13.667-4.333,13.667-10.333S57.038,38.621,56.538,36.454z"/>
		</g>
	</g>
</g>
<g id="USB_Stick_1_">
</g>
<g id="Pencil_Small">
</g>
<g id="Pencil_Large">
</g>
<g id="Brush_3_">
</g>
<g id="Notepad_1_">
</g>
<g id="Moleskine_Large_Open">
</g>
<g id="Moleskine_Small_Open_1_">
</g>
<g id="Moleskine_Large">
</g>
<g id="Moleskine_Small_1_">
</g>
<g id="iPad_Mini">
</g>
<g id="MacBook_13_x22_">
</g>
<g id="iMac_1_">
</g>
<g id="Wallet_2_">
</g>
<g id="iPhone_6_Grey">
</g>
<g id="iPhone_6_Silver_1_">
</g>
<g id="iPhone_6_Gold_1_">
</g>
<g id="Wallet_1_">
</g>
<g id="Bills">
</g>
<g id="Coins_1_">
</g>
<g id="Passport_Red_1_">
</g>
<g id="Passport_Blue_1_">
</g>
<g id="Credit_Card_Red">
</g>
<g id="Credit_Card_Blue">
</g>
<g id="Aeroplane_1_">
</g>
<g id="Magic_Mouse_1_">
</g>
<g id="Keyboard">
</g>
<g id="Ruler_1_">
</g>
<g id="Charger_1_">
</g>
<g id="Macbook_13_x22_">
</g>
<g id="Brushes">
</g>
<g id="Pencils">
</g>
<g id="Can">
</g>
<g id="Coffee">
</g>
<g id="Stylus">
</g>
<g id="Wacom_1_">
</g>
<g id="Paperclips_1_">
</g>
<g id="Earbuds_1_">
</g>
<g id="Glasses">
</g>
<g id="Sunglasses">
</g>
<g id="Case_1_">
</g>
<g id="Donut_1_">
</g>
</svg>
