<?xml version="1.0" encoding="utf-8"?>
<!-- Generator: Adobe Illustrator 16.0.0, SVG Export Plug-In . SVG Version: 6.00 Build 0)  -->
<!DOCTYPE svg PUBLIC "-//W3C//DTD SVG 1.1//EN" "http://www.w3.org/Graphics/SVG/1.1/DTD/svg11.dtd">
<svg version="1.1" xmlns="http://www.w3.org/2000/svg" xmlns:xlink="http://www.w3.org/1999/xlink" x="0px" y="0px" width="2500px"
	 height="720px" viewBox="0 0 2500 720" enable-background="new 0 0 2500 720" xml:space="preserve">
<g id="Camera_Standing">
</g>
<g id="Camera_Lying">
</g>
<g id="Colours_1_">
</g>
<g id="Aquarell_1_">
</g>
<g id="Envelope_big_1_">
</g>
<g id="Envelope_small_1_">
</g>
<g id="Airmail_1_">
</g>
<g id="Highlighters_Closed_1_">
</g>
<g id="Highlighters_Open_1_">
</g>
<g id="USB_Stick_1_">
</g>
<g id="Pencil_Small">
</g>
<g id="Pencil_Large">
</g>
<g id="Brush_3_">
</g>
<g id="Notepad_1_">
</g>
<g id="Moleskine_Large_Open">
</g>
<g id="Moleskine_Small_Open_1_">
</g>
<g id="Moleskine_Large">
</g>
<g id="Moleskine_Small_1_">
</g>
<g id="iPad_Mini">
</g>
<g id="MacBook_13_x22_">
</g>
<g id="iMac_1_">
	<path id="Base_Background" fill="#D6D6D6" stroke="#333333" stroke-width="4" stroke-miterlimit="10" d="M1501.04,629.119
		c-2-26-13-115-13-115h-483c0,0-11,89-13,115s24,71,78,71c49.037,0,303.963,0,353,0
		C1477.04,700.119,1503.04,655.119,1501.04,629.119z"/>
	<path id="Base_light" fill="#E2E2E2" d="M1476.442,618.006c-1.807-23.488-11.741-103.887-11.741-103.887H1028.38
		c0,0-9.938,80.398-11.744,103.887c-1.806,23.486,21.681,64.139,70.462,64.139c44.298,0,274.587,0,318.886,0
		C1454.764,682.145,1478.25,641.492,1476.442,618.006z"/>
	<g id="Display_Background">
		<path fill="#D6D6D6" d="M436.374,532.451c-52.62,0-63.992-7.88-77.396-25.861C345.507,488.518,48.665,89.885,44.011,83.635
			c-7.515-11.287-7.316-18.035-7.065-26.576c0.047-1.581,0.095-3.216,0.095-4.939c0-8.523,25.857-16,55.334-16h2314.867
			c29.477,0,55.334,7.477,55.334,16c0,1.724,0.048,3.359,0.095,4.939c0.251,8.541,0.449,15.289-7.064,26.576
			c-4.655,6.25-301.495,404.883-314.968,422.955c-13.405,17.981-24.777,25.861-77.396,25.861H436.374z"/>
		<path fill="#333333" d="M2407.241,38.119c32.062,0,53.334,8.426,53.334,14c0,1.753,0.049,3.402,0.096,4.999
			c0.249,8.491,0.43,14.634-6.7,25.362c-5.786,7.77-301.491,404.877-314.937,422.914c-6.689,8.973-12.555,14.938-22.733,18.867
			c-11.09,4.281-27.454,6.189-53.06,6.189H436.374c-25.605,0-41.97-1.908-53.06-6.189c-10.18-3.93-16.044-9.895-22.733-18.867
			C347.137,487.359,51.468,90.301,45.646,82.483c-7.132-10.73-6.951-16.872-6.702-25.365c0.047-1.597,0.096-3.246,0.096-4.999
			c0-5.574,21.271-14,53.334-14H2407.241 M2407.241,34.119H92.374c-28,0-57.334,7-57.334,18s-2,18.666,7.334,32.666
			c0,0,301.334,404.666,315,423c13.666,18.332,25.334,26.666,79,26.666h1626.867c53.667,0,65.333-8.334,79-26.666
			c13.667-18.334,315-423,315-423c9.334-14,7.334-21.666,7.334-32.666S2435.241,34.119,2407.241,34.119L2407.241,34.119z"/>
	</g>
	<path id="Display_Border" fill="#111111" d="M2407.241,51.119H92.374c-26.696,0-54.584,6.365-57.126,16.492
		c0.698,4.961,2.546,10.305,7.126,17.174c0,0,233.819,314,298.861,401.334H2158.38c65.042-87.334,298.861-401.334,298.861-401.334
		c4.58-6.869,6.428-12.213,7.126-17.174C2461.825,57.484,2433.937,51.119,2407.241,51.119z"/>
	<polygon id="Display_3_" fill="#333333" points="142.04,93.119 2352.04,93.119 2099.04,463.119 398.04,463.119 	"/>
	<path id="Logo_12_" fill-rule="evenodd" clip-rule="evenodd" fill="#111111" d="M1277.246,505.627
		c-3.184-1.783-8.531-2.85-14.016-2.85c-7.27,0-10.464,1.242-15.404,1.242c-5.097,0-9.108-1.229-15.396-1.229
		c-6.167,0-12.188,1.32-15.232,3.48c-3.949,2.803-0.504,7.436,8.75,10.826c3.027,1.105,6.808,2.297,11.21,2.309
		c3.91,0.008,4.96-0.678,10.34-0.697c5.381,0.006,6.283,0.703,10.199,0.699c4.404-0.01,8.487-1.332,11.59-2.459
		c2.314-0.82,3.251-1.264,5.3-2.248C1263.817,513.408,1263.566,507.994,1277.246,505.627z M1258.104,500.609
		c3.022-1.342,5.638-3.326,5.366-5.482c-4.849,0.117-10.596,1.35-13.9,2.883c-2.883,1.33-5.157,3.225-4.244,4.961
		C1250.014,503.023,1255.001,502.002,1258.104,500.609z"/>
</g>
<g id="Wallet_2_">
</g>
<g id="iPhone_6_Grey">
</g>
<g id="iPhone_6_Silver_1_">
</g>
<g id="iPhone_6_Gold_1_">
</g>
<g id="Wallet_1_">
</g>
<g id="Bills">
</g>
<g id="Coins_1_">
</g>
<g id="Passport_Red_1_">
</g>
<g id="Passport_Blue_1_">
</g>
<g id="Credit_Card_Red">
</g>
<g id="Credit_Card_Blue">
</g>
<g id="Aeroplane_1_">
</g>
<g id="Magic_Mouse_1_">
</g>
<g id="Keyboard">
</g>
<g id="Ruler_1_">
</g>
<g id="Charger_1_">
</g>
<g id="Macbook_13_x22_">
</g>
<g id="Brushes">
</g>
<g id="Pencils">
</g>
<g id="Can">
</g>
<g id="Coffee">
</g>
<g id="Stylus">
</g>
<g id="Wacom_1_">
</g>
<g id="Paperclips_1_">
</g>
<g id="Earbuds_1_">
</g>
<g id="Glasses">
</g>
<g id="Sunglasses">
</g>
<g id="Case_1_">
</g>
<g id="Donut_1_">
</g>
</svg>
