<?xml version="1.0" encoding="utf-8"?>
<!-- Generator: Adobe Illustrator 16.0.0, SVG Export Plug-In . SVG Version: 6.00 Build 0)  -->
<!DOCTYPE svg PUBLIC "-//W3C//DTD SVG 1.1//EN" "http://www.w3.org/Graphics/SVG/1.1/DTD/svg11.dtd">
<svg version="1.1" xmlns="http://www.w3.org/2000/svg" xmlns:xlink="http://www.w3.org/1999/xlink" x="0px" y="0px" width="420px"
	 height="600px" viewBox="0 0 420 600" enable-background="new 0 0 420 600" xml:space="preserve">
<g id="Camera_Standing">
</g>
<g id="Camera_Lying">
</g>
<g id="Colours_1_">
</g>
<g id="Aquarell_1_">
</g>
<g id="Envelope_big_1_">
</g>
<g id="Envelope_small_1_">
</g>
<g id="Airmail_1_">
</g>
<g id="Highlighters_Closed_1_">
</g>
<g id="Highlighters_Open_1_">
</g>
<g id="USB_Stick_1_">
</g>
<g id="Pencil_Small">
</g>
<g id="Pencil_Large">
</g>
<g id="Brush_3_">
</g>
<g id="Notepad_1_">
</g>
<g id="Moleskine_Large_Open">
</g>
<g id="Moleskine_Small_Open_1_">
</g>
<g id="Moleskine_Large">
</g>
<g id="Moleskine_Small_1_">
</g>
<g id="iPad_Mini">
	<g id="Front_3_">
		<g id="Backbround">
			<path fill-rule="evenodd" clip-rule="evenodd" fill="#F4F4F4" d="M55.98,585.431c-20.589,0-33.379-12.787-33.379-33.372V48.431
				c0-20.585,12.79-33.372,33.379-33.372h318.963c20.589,0,33.379,12.787,33.379,33.372v503.628
				c0,20.585-12.79,33.372-33.379,33.372H55.98z"/>
			<path fill="#333333" d="M374.943,17.059c19.551,0,31.379,11.825,31.379,31.372v503.628c0,19.441-11.828,31.372-31.379,31.372
				h-0.678H55.98c-19.551,0-31.379-11.931-31.379-31.372V48.431c0-19.547,11.828-31.372,31.379-31.372H374.943 M374.943,13.059
				H55.98c-21.822,0-35.379,13.554-35.379,35.372v503.628c0,10.634,3.294,19.556,9.526,25.802c6.247,6.261,15.187,9.57,25.853,9.57
				h318.285h0.678c10.666,0,19.605-3.31,25.853-9.57c6.232-6.246,9.526-15.168,9.526-25.802V48.431
				C410.322,26.612,396.766,13.059,374.943,13.059L374.943,13.059z"/>
		</g>
		<path id="Home_Button_3_" fill-rule="evenodd" clip-rule="evenodd" fill="#FCC865" d="M215.289,540.433
			c-8.459,0-15.314,6.856-15.314,15.312c0,8.458,6.855,15.313,15.314,15.313c8.457,0,15.312-6.855,15.312-15.313
			C230.602,547.289,223.746,540.433,215.289,540.433z M215.289,569.553c-7.627,0-13.809-6.182-13.809-13.808
			s6.182-13.806,13.809-13.806c7.625,0,13.807,6.18,13.807,13.806S222.914,569.553,215.289,569.553z"/>
		<rect id="Display_5_" x="39.602" y="72.059" fill-rule="evenodd" clip-rule="evenodd" fill="#333333" width="344" height="453"/>
		<path id="Camera_6_" fill-rule="evenodd" clip-rule="evenodd" fill="#333333" d="M215.601,42.059c1.658,0,3.001,1.344,3.001,2.996
			c0,1.659-1.343,3.004-3.001,3.004c-1.656,0-2.999-1.345-2.999-3.004C212.602,43.402,213.944,42.059,215.601,42.059z"/>
		<g id="Light_23_" opacity="0.1">
			<path fill-rule="evenodd" clip-rule="evenodd" fill="#FFFFFF" d="M138.602,17.059L24.381,131.279v53L191.602,17.059H138.602z
				 M208.602,17.059L24.381,201.279v157L365.602,17.059H208.602z"/>
		</g>
	</g>
</g>
<g id="MacBook_13_x22_">
</g>
<g id="iMac_1_">
</g>
<g id="Wallet_2_">
</g>
<g id="iPhone_6_Grey">
</g>
<g id="iPhone_6_Silver_1_">
</g>
<g id="iPhone_6_Gold_1_">
</g>
<g id="Wallet_1_">
</g>
<g id="Bills">
</g>
<g id="Coins_1_">
</g>
<g id="Passport_Red_1_">
</g>
<g id="Passport_Blue_1_">
</g>
<g id="Credit_Card_Red">
</g>
<g id="Credit_Card_Blue">
</g>
<g id="Aeroplane_1_">
</g>
<g id="Magic_Mouse_1_">
</g>
<g id="Keyboard">
</g>
<g id="Ruler_1_">
</g>
<g id="Charger_1_">
</g>
<g id="Macbook_13_x22_">
</g>
<g id="Brushes">
</g>
<g id="Pencils">
</g>
<g id="Can">
</g>
<g id="Coffee">
</g>
<g id="Stylus">
</g>
<g id="Wacom_1_">
</g>
<g id="Paperclips_1_">
</g>
<g id="Earbuds_1_">
</g>
<g id="Glasses">
</g>
<g id="Sunglasses">
</g>
<g id="Case_1_">
</g>
<g id="Donut_1_">
</g>
</svg>
