<?xml version="1.0" encoding="utf-8"?>
<!-- Generator: Adobe Illustrator 16.0.0, SVG Export Plug-In . SVG Version: 6.00 Build 0)  -->
<!DOCTYPE svg PUBLIC "-//W3C//DTD SVG 1.1//EN" "http://www.w3.org/Graphics/SVG/1.1/DTD/svg11.dtd">
<svg version="1.1" xmlns="http://www.w3.org/2000/svg" xmlns:xlink="http://www.w3.org/1999/xlink" x="0px" y="0px" width="420px"
	 height="600px" viewBox="0 0 420 600" enable-background="new 0 0 420 600" xml:space="preserve">
<g id="Camera_Standing">
</g>
<g id="Camera_Lying">
</g>
<g id="Colours_1_">
</g>
<g id="Aquarell_1_">
</g>
<g id="Envelope_big_1_">
</g>
<g id="Envelope_small_1_">
</g>
<g id="Airmail_1_">
</g>
<g id="Highlighters_Closed_1_">
</g>
<g id="Highlighters_Open_1_">
</g>
<g id="USB_Stick_1_">
</g>
<g id="Pencil_Small">
</g>
<g id="Pencil_Large">
</g>
<g id="Brush_3_">
</g>
<g id="Notepad_1_">
</g>
<g id="Moleskine_Large_Open">
</g>
<g id="Moleskine_Small_Open_1_">
</g>
<g id="Moleskine_Large">
</g>
<g id="Moleskine_Small_1_">
</g>
<g id="iPad_Mini">
	<g id="Back_3_">
		<g id="Background_27_">
			<path fill-rule="evenodd" clip-rule="evenodd" fill="#FCC865" d="M49.821,585.431c-20.589,0-33.379-12.787-33.379-33.372V48.431
				c0-20.585,12.79-33.372,33.379-33.372h318.963c20.589,0,33.379,12.787,33.379,33.372v503.628
				c0,20.585-12.79,33.372-33.379,33.372H49.821z"/>
			<path fill="#333333" d="M368.784,17.059c19.551,0,31.379,11.825,31.379,31.372v503.628c0,19.441-11.828,31.372-31.379,31.372
				h-0.678H49.821c-19.551,0-31.379-11.931-31.379-31.372V48.431c0-19.547,11.828-31.372,31.379-31.372H368.784 M368.784,13.059
				H49.821c-21.822,0-35.379,13.554-35.379,35.372v503.628c0,10.634,3.294,19.556,9.526,25.802c6.247,6.261,15.187,9.57,25.853,9.57
				h318.285h0.678c10.666,0,19.605-3.31,25.853-9.57c6.232-6.246,9.526-15.168,9.526-25.802V48.431
				C404.163,26.612,390.606,13.059,368.784,13.059L368.784,13.059z"/>
		</g>
		<g id="Light_Background">
			<g>
				<path fill-rule="evenodd" clip-rule="evenodd" fill="#FCD17A" d="M357.841,27.687H60.163c-19.551,0-31.379,11.825-31.379,31.372
					v482.628c0,19.441,11.828,31.372,31.379,31.372h297h0.678c19.551,0,31.379-11.931,31.379-31.372V59.059
					C389.22,39.512,377.392,27.687,357.841,27.687z"/>
			</g>
		</g>
		<path id="Camera_7_" fill-rule="evenodd" clip-rule="evenodd" fill="#333333" d="M56.878,40.059c4.816,0,8.719,3.902,8.719,8.717
			c0,4.813-3.902,8.715-8.719,8.715c-4.812,0-8.715-3.901-8.715-8.715C48.163,43.961,52.065,40.059,56.878,40.059z"/>
		<path id="Logo_13_" fill-rule="evenodd" clip-rule="evenodd" fill="#333333" d="M251.422,275.519
			c-4.848-6.046-11.643-9.544-18.061-9.544c-8.485,0-12.07,4.04-17.963,4.04c-6.065,0-10.679-4.029-18.022-4.029
			c-7.208,0-14.876,4.387-19.739,11.878c-6.836,10.549-5.681,30.383,5.413,47.288c3.961,6.037,9.261,12.838,16.189,12.906
			c6.149,0.06,7.896-3.939,16.251-3.982c8.346-0.051,9.93,4.021,16.086,3.965c6.924-0.072,12.512-7.593,16.477-13.644
			c2.847-4.323,3.899-6.51,6.11-11.409C238.125,306.92,235.553,284.233,251.422,275.519z M226.923,259.223
			c3.083-3.961,5.423-9.559,4.579-15.276c-5.04,0.346-10.93,3.561-14.369,7.734c-3.125,3.803-5.704,9.439-4.7,14.914
			C217.933,266.759,223.623,263.466,226.923,259.223z"/>
		<g id="Light_24_" opacity="0.3">
			<path fill-rule="evenodd" clip-rule="evenodd" fill="#FFFFFF" d="M202.663,17.059L18.442,201.279v157L359.663,17.059H202.663z
				 M132.663,17.059L18.442,131.279v53L185.663,17.059H132.663z"/>
		</g>
	</g>
</g>
<g id="MacBook_13_x22_">
</g>
<g id="iMac_1_">
</g>
<g id="Wallet_2_">
</g>
<g id="iPhone_6_Grey">
</g>
<g id="iPhone_6_Silver_1_">
</g>
<g id="iPhone_6_Gold_1_">
</g>
<g id="Wallet_1_">
</g>
<g id="Bills">
</g>
<g id="Coins_1_">
</g>
<g id="Passport_Red_1_">
</g>
<g id="Passport_Blue_1_">
</g>
<g id="Credit_Card_Red">
</g>
<g id="Credit_Card_Blue">
</g>
<g id="Aeroplane_1_">
</g>
<g id="Magic_Mouse_1_">
</g>
<g id="Keyboard">
</g>
<g id="Ruler_1_">
</g>
<g id="Charger_1_">
</g>
<g id="Macbook_13_x22_">
</g>
<g id="Brushes">
</g>
<g id="Pencils">
</g>
<g id="Can">
</g>
<g id="Coffee">
</g>
<g id="Stylus">
</g>
<g id="Wacom_1_">
</g>
<g id="Paperclips_1_">
</g>
<g id="Earbuds_1_">
</g>
<g id="Glasses">
</g>
<g id="Sunglasses">
</g>
<g id="Case_1_">
</g>
<g id="Donut_1_">
</g>
</svg>
