<?xml version="1.0" encoding="utf-8"?>
<!-- Generator: Adobe Illustrator 16.0.0, SVG Export Plug-In . SVG Version: 6.00 Build 0)  -->
<!DOCTYPE svg PUBLIC "-//W3C//DTD SVG 1.1//EN" "http://www.w3.org/Graphics/SVG/1.1/DTD/svg11.dtd">
<svg version="1.1" xmlns="http://www.w3.org/2000/svg" xmlns:xlink="http://www.w3.org/1999/xlink" x="0px" y="0px" width="210px"
	 height="420px" viewBox="0 0 210 420" enable-background="new 0 0 210 420" xml:space="preserve">
<g id="Camera_Standing">
</g>
<g id="Camera_Lying">
</g>
<g id="Colours_1_">
</g>
<g id="Aquarell_1_">
</g>
<g id="Envelope_big_1_">
</g>
<g id="Envelope_small_1_">
</g>
<g id="Airmail_1_">
</g>
<g id="Highlighters_Closed_1_">
</g>
<g id="Highlighters_Open_1_">
</g>
<g id="USB_Stick_1_">
</g>
<g id="Pencil_Small">
</g>
<g id="Pencil_Large">
</g>
<g id="Brush_3_">
</g>
<g id="Notepad_1_">
</g>
<g id="Moleskine_Large_Open">
</g>
<g id="Moleskine_Small_Open_1_">
</g>
<g id="Moleskine_Large">
</g>
<g id="Moleskine_Small_1_">
</g>
<g id="iPad_Mini">
</g>
<g id="MacBook_13_x22_">
</g>
<g id="iMac_1_">
</g>
<g id="Wallet_2_">
</g>
<g id="iPhone_6_Grey">
</g>
<g id="iPhone_6_Silver_1_">
	<g id="Front_1_">
		<g id="Background_15_">
			<path fill-rule="evenodd" clip-rule="evenodd" fill="#E2E2E2" d="M41.593,409.47c-20.588,0-33.378-12.787-33.378-33.372V47.66
				c0-20.585,12.79-33.372,33.378-33.372h126.963c20.589,0,33.379,12.787,33.379,33.372v328.438
				c0,20.585-12.79,33.372-33.379,33.372H41.593z"/>
			<path fill="#333333" d="M168.557,16.288c19.551,0,31.379,11.825,31.379,31.372v328.438c0,19.441-11.828,31.372-31.379,31.372
				h-0.678H41.593c-19.55,0-31.378-11.931-31.378-31.372V47.66c0-19.547,11.828-31.372,31.378-31.372H168.557 M168.557,12.288
				H41.593c-21.822,0-35.378,13.554-35.378,35.372v328.438c0,10.634,3.294,19.556,9.526,25.802c6.247,6.261,15.186,9.57,25.852,9.57
				h126.286h0.678c10.666,0,19.605-3.31,25.853-9.57c6.232-6.246,9.526-15.168,9.526-25.802V47.66
				C203.936,25.842,190.379,12.288,168.557,12.288L168.557,12.288z"/>
		</g>
		<g id="Light_18_">
			<g>
				<path fill-rule="evenodd" clip-rule="evenodd" fill="#F4F4F4" d="M164.557,20.288H45.593c-19.55,0-31.378,11.825-31.378,31.372
					v320.438c0,19.441,11.828,31.372,31.378,31.372h118.286h0.678c19.551,0,31.379-11.931,31.379-31.372V51.66
					C195.936,32.113,184.107,20.288,164.557,20.288z"/>
			</g>
		</g>
		<path id="Home_Button_1_" fill-rule="evenodd" clip-rule="evenodd" fill="#D6D6D6" d="M102.132,368.566
			c-8.458,0-15.313,6.856-15.313,15.312c0,8.458,6.855,15.313,15.313,15.313c8.457,0,15.313-6.855,15.313-15.313
			C117.445,375.423,110.589,368.566,102.132,368.566z M102.132,397.687c-7.626,0-13.808-6.182-13.808-13.808
			s6.182-13.806,13.808-13.806c7.625,0,13.807,6.18,13.807,13.806S109.757,397.687,102.132,397.687z"/>
		<path id="Speaker_1_" fill-rule="evenodd" clip-rule="evenodd" fill="#333333" d="M91.295,41.161h26.667
			c0.92,0,1.667,0.746,1.667,1.667c0,0.92-0.747,1.667-1.667,1.667H91.295c-0.92,0-1.667-0.747-1.667-1.667
			C89.629,41.907,90.375,41.161,91.295,41.161z"/>
		<path id="Camera_2_" fill-rule="evenodd" clip-rule="evenodd" fill="#333333" d="M74.007,40.828c1.658,0,3.001,1.344,3.001,2.996
			c0,1.659-1.343,3.004-3.001,3.004c-1.655,0-2.999-1.345-2.999-3.004C71.009,42.172,72.352,40.828,74.007,40.828z"/>
		
			<rect id="Display_1_" x="21.075" y="64.452" fill-rule="evenodd" clip-rule="evenodd" fill="#333333" width="168" height="297.333"/>
		<path id="Light_17_" opacity="0.1" fill="#FFFFFF" d="M71.566,16.288L10.215,77.64v28.723l90.075-90.074H71.566z M168.557,16.288
			h-61.99L10.215,112.64v98.723L194.049,27.529C188.713,20.31,179.949,16.288,168.557,16.288z"/>
	</g>
</g>
<g id="iPhone_6_Gold_1_">
</g>
<g id="Wallet_1_">
</g>
<g id="Bills">
</g>
<g id="Coins_1_">
</g>
<g id="Passport_Red_1_">
</g>
<g id="Passport_Blue_1_">
</g>
<g id="Credit_Card_Red">
</g>
<g id="Credit_Card_Blue">
</g>
<g id="Aeroplane_1_">
</g>
<g id="Magic_Mouse_1_">
</g>
<g id="Keyboard">
</g>
<g id="Ruler_1_">
</g>
<g id="Charger_1_">
</g>
<g id="Macbook_13_x22_">
</g>
<g id="Brushes">
</g>
<g id="Pencils">
</g>
<g id="Can">
</g>
<g id="Coffee">
</g>
<g id="Stylus">
</g>
<g id="Wacom_1_">
</g>
<g id="Paperclips_1_">
</g>
<g id="Earbuds_1_">
</g>
<g id="Glasses">
</g>
<g id="Sunglasses">
</g>
<g id="Case_1_">
</g>
<g id="Donut_1_">
</g>
</svg>
