<?xml version="1.0" encoding="utf-8"?>
<!-- Generator: Adobe Illustrator 16.0.0, SVG Export Plug-In . SVG Version: 6.00 Build 0)  -->
<!DOCTYPE svg PUBLIC "-//W3C//DTD SVG 1.1//EN" "http://www.w3.org/Graphics/SVG/1.1/DTD/svg11.dtd">
<svg version="1.1" xmlns="http://www.w3.org/2000/svg" xmlns:xlink="http://www.w3.org/1999/xlink" x="0px" y="0px" width="210px"
	 height="420px" viewBox="0 0 210 420" enable-background="new 0 0 210 420" xml:space="preserve">
<g id="Camera_Standing">
</g>
<g id="Camera_Lying">
</g>
<g id="Colours_1_">
</g>
<g id="Aquarell_1_">
</g>
<g id="Envelope_big_1_">
</g>
<g id="Envelope_small_1_">
</g>
<g id="Airmail_1_">
</g>
<g id="Highlighters_Closed_1_">
</g>
<g id="Highlighters_Open_1_">
</g>
<g id="USB_Stick_1_">
</g>
<g id="Pencil_Small">
</g>
<g id="Pencil_Large">
</g>
<g id="Brush_3_">
</g>
<g id="Notepad_1_">
</g>
<g id="Moleskine_Large_Open">
</g>
<g id="Moleskine_Small_Open_1_">
</g>
<g id="Moleskine_Large">
</g>
<g id="Moleskine_Small_1_">
</g>
<g id="iPad_Mini">
</g>
<g id="MacBook_13_x22_">
</g>
<g id="iMac_1_">
</g>
<g id="Wallet_2_">
</g>
<g id="iPhone_6_Grey">
	<g id="Front_2_">
		<g id="Background_17_">
			<path fill-rule="evenodd" clip-rule="evenodd" fill="#333333" d="M40.533,408.47c-20.588,0-33.377-12.787-33.377-33.372V46.66
				c0-20.585,12.789-33.372,33.377-33.372h126.964c20.589,0,33.379,12.787,33.379,33.372v328.438
				c0,20.585-12.79,33.372-33.379,33.372H40.533z"/>
			<path fill="#111111" d="M167.497,15.288c19.551,0,31.379,11.825,31.379,31.372v328.438c0,19.441-11.828,31.372-31.379,31.372
				h-0.678H40.533c-19.549,0-31.377-11.931-31.377-31.372V46.66c0-19.547,11.828-31.372,31.377-31.372H167.497 M167.497,11.288
				H40.533c-21.821,0-35.377,13.554-35.377,35.372v328.438c0,10.634,3.294,19.556,9.526,25.802c6.246,6.261,15.186,9.57,25.851,9.57
				h126.286h0.678c10.666,0,19.605-3.31,25.853-9.57c6.232-6.246,9.526-15.168,9.526-25.802V46.66
				C202.876,24.842,189.319,11.288,167.497,11.288L167.497,11.288z"/>
		</g>
		<path id="Home_Button_2_" fill-rule="evenodd" clip-rule="evenodd" fill="#111111" d="M101.072,367.566
			c-8.457,0-15.312,6.856-15.312,15.312c0,8.458,6.855,15.313,15.312,15.313s15.313-6.855,15.313-15.313
			C116.386,374.423,109.529,367.566,101.072,367.566z M101.072,396.687c-7.625,0-13.807-6.182-13.807-13.808
			s6.182-13.806,13.807-13.806s13.807,6.18,13.807,13.806S108.697,396.687,101.072,396.687z"/>
		
			<rect id="Display_2_" x="20.016" y="63.452" fill-rule="evenodd" clip-rule="evenodd" fill="#111111" width="168" height="297.333"/>
		<path id="Light_20_" opacity="0.1" fill="#FFFFFF" d="M70.507,15.288L9.156,76.64v28.723L99.23,15.288H70.507z M167.497,15.288
			h-61.99L9.156,111.64v98.723L192.989,26.529C187.653,19.31,178.89,15.288,167.497,15.288z"/>
		<path id="Speaker_2_" fill-rule="evenodd" clip-rule="evenodd" fill="#333333" d="M90.236,40.161h26.666
			c0.92,0,1.667,0.746,1.667,1.667c0,0.92-0.747,1.667-1.667,1.667H90.236c-0.921,0-1.667-0.747-1.667-1.667
			C88.569,40.907,89.315,40.161,90.236,40.161z"/>
		<path id="Camera_4_" fill-rule="evenodd" clip-rule="evenodd" fill="#333333" d="M72.947,39.828c1.658,0,3.002,1.344,3.002,2.996
			c0,1.659-1.344,3.004-3.002,3.004c-1.654,0-2.998-1.345-2.998-3.004C69.949,41.172,71.293,39.828,72.947,39.828z"/>
	</g>
</g>
<g id="iPhone_6_Silver_1_">
</g>
<g id="iPhone_6_Gold_1_">
</g>
<g id="Wallet_1_">
</g>
<g id="Bills">
</g>
<g id="Coins_1_">
</g>
<g id="Passport_Red_1_">
</g>
<g id="Passport_Blue_1_">
</g>
<g id="Credit_Card_Red">
</g>
<g id="Credit_Card_Blue">
</g>
<g id="Aeroplane_1_">
</g>
<g id="Magic_Mouse_1_">
</g>
<g id="Keyboard">
</g>
<g id="Ruler_1_">
</g>
<g id="Charger_1_">
</g>
<g id="Macbook_13_x22_">
</g>
<g id="Brushes">
</g>
<g id="Pencils">
</g>
<g id="Can">
</g>
<g id="Coffee">
</g>
<g id="Stylus">
</g>
<g id="Wacom_1_">
</g>
<g id="Paperclips_1_">
</g>
<g id="Earbuds_1_">
</g>
<g id="Glasses">
</g>
<g id="Sunglasses">
</g>
<g id="Case_1_">
</g>
<g id="Donut_1_">
</g>
</svg>
