<?xml version="1.0" encoding="utf-8"?>
<!-- Generator: Adobe Illustrator 16.0.0, SVG Export Plug-In . SVG Version: 6.00 Build 0)  -->
<!DOCTYPE svg PUBLIC "-//W3C//DTD SVG 1.1//EN" "http://www.w3.org/Graphics/SVG/1.1/DTD/svg11.dtd">
<svg version="1.1" xmlns="http://www.w3.org/2000/svg" xmlns:xlink="http://www.w3.org/1999/xlink" x="0px" y="0px" width="210px"
	 height="420px" viewBox="0 0 210 420" enable-background="new 0 0 210 420" xml:space="preserve">
<g id="Camera_Standing">
</g>
<g id="Camera_Lying">
</g>
<g id="Colours_1_">
</g>
<g id="Aquarell_1_">
</g>
<g id="Envelope_big_1_">
</g>
<g id="Envelope_small_1_">
</g>
<g id="Airmail_1_">
</g>
<g id="Highlighters_Closed_1_">
</g>
<g id="Highlighters_Open_1_">
</g>
<g id="USB_Stick_1_">
</g>
<g id="Pencil_Small">
</g>
<g id="Pencil_Large">
</g>
<g id="Brush_3_">
</g>
<g id="Notepad_1_">
</g>
<g id="Moleskine_Large_Open">
</g>
<g id="Moleskine_Small_Open_1_">
</g>
<g id="Moleskine_Large">
</g>
<g id="Moleskine_Small_1_">
</g>
<g id="iPad_Mini">
</g>
<g id="MacBook_13_x22_">
</g>
<g id="iMac_1_">
</g>
<g id="Wallet_2_">
</g>
<g id="iPhone_6_Grey">
</g>
<g id="iPhone_6_Silver_1_">
</g>
<g id="iPhone_6_Gold_1_">
	<g id="Back">
		<g id="Background_14_">
			<path fill-rule="evenodd" clip-rule="evenodd" fill="#FCC865" d="M41.933,408.47c-20.588,0-33.378-12.787-33.378-33.372V46.66
				c0-20.585,12.79-33.372,33.378-33.372h126.964c20.588,0,33.378,12.787,33.378,33.372v328.438
				c0,20.585-12.79,33.372-33.378,33.372H41.933z"/>
			<path fill="#333333" d="M168.897,15.288c19.55,0,31.378,11.825,31.378,31.372v328.438c0,19.441-11.828,31.372-31.378,31.372
				h-0.679H41.933c-19.55,0-31.378-11.931-31.378-31.372V46.66c0-19.547,11.828-31.372,31.378-31.372H168.897 M168.897,11.288
				H41.933c-21.822,0-35.378,13.554-35.378,35.372v328.438c0,10.634,3.294,19.556,9.526,25.802c6.247,6.261,15.186,9.57,25.852,9.57
				h126.285h0.679c10.666,0,19.605-3.31,25.852-9.57c6.232-6.246,9.526-15.168,9.526-25.802V46.66
				C204.275,24.842,190.719,11.288,168.897,11.288L168.897,11.288z"/>
		</g>
		<path id="Antenna" fill-rule="evenodd" clip-rule="evenodd" fill="#FEF7CE" d="M14.416,370.995c-1.904,0-3.86-0.724-3.86-0.724
			v5.551c0,0,0.126,0.304,0.965,0.481c0.84,0.18,1.62,0.815,1.689,2.173c0.071,1.357,0.771,25.579,29.207,25.579H167.93
			c28.438,0,29.137-24.222,29.207-25.579c0.071-1.357,0.85-1.993,1.689-2.173c0.839-0.178,0.965-0.481,0.965-0.481v-5.551
			c0,0-1.958,0.724-3.861,0.724H14.416z M167.93,399.23H42.417c-24.379,0-24.138-19.437-24.138-20.513
			c0-1.077,0.652-2.171,1.931-2.171h169.929c1.277,0,1.93,1.094,1.93,2.171C192.068,379.794,192.31,399.23,167.93,399.23z
			 M198.827,44.971c-0.84-0.179-1.618-0.813-1.689-2.172c-0.07-1.359-0.77-25.58-29.207-25.58H42.417
			c-28.436,0-29.136,24.221-29.207,25.58c-0.069,1.358-0.85,1.993-1.689,2.172c-0.839,0.178-0.965,0.482-0.965,0.482v5.552
			c0,0,1.956-0.726,3.86-0.726H195.93c1.903,0,3.861,0.726,3.861,0.726v-5.552C199.792,45.453,199.666,45.148,198.827,44.971z
			 M190.138,44.729H20.209c-1.278,0-1.931-1.095-1.931-2.171c0-1.077-0.241-20.514,24.138-20.514H167.93
			c24.38,0,24.138,19.437,24.138,20.514C192.068,43.635,191.416,44.729,190.138,44.729z"/>
		<path id="Micro" fill-rule="evenodd" clip-rule="evenodd" fill="#333333" d="M62.602,32.544c1.067,0,1.932,0.864,1.932,1.931
			c0,1.067-0.864,1.932-1.932,1.932c-1.066,0-1.931-0.864-1.931-1.932C60.671,33.408,61.536,32.544,62.602,32.544z"/>
		<path id="Camera_1_" fill-rule="evenodd" clip-rule="evenodd" fill="#333333" d="M45.409,25.396c4.816,0,8.718,3.902,8.718,8.717
			c0,4.813-3.901,8.715-8.718,8.715c-4.813,0-8.715-3.901-8.715-8.715C36.694,29.299,40.595,25.396,45.409,25.396z"/>
		<path id="Flash" fill-rule="evenodd" clip-rule="evenodd" fill="#FFFFFF" d="M74.572,29.146c2.942,0,5.328,2.386,5.328,5.329
			c0,2.942-2.386,5.328-5.328,5.328s-5.33-2.386-5.33-5.328C69.242,31.531,71.629,29.146,74.572,29.146z"/>
		<path id="Logo_9_" fill-rule="evenodd" clip-rule="evenodd" fill="#333333" d="M122.417,115.005
			c-2.221-2.77-5.333-4.372-8.272-4.372c-3.887,0-5.53,1.851-8.229,1.851c-2.779,0-4.892-1.846-8.256-1.846
			c-3.302,0-6.815,2.01-9.042,5.441c-3.132,4.832-2.603,13.918,2.48,21.662c1.814,2.766,4.242,5.881,7.416,5.912
			c2.817,0.027,3.617-1.805,7.444-1.824c3.824-0.023,4.549,1.842,7.369,1.816c3.172-0.033,5.731-3.479,7.548-6.25
			c1.303-1.98,1.786-2.982,2.798-5.227C116.327,129.39,115.148,118.997,122.417,115.005z M111.196,107.54
			c1.411-1.814,2.484-4.379,2.097-6.998c-2.309,0.158-5.007,1.631-6.583,3.543c-1.432,1.742-2.612,4.324-2.153,6.832
			C107.077,110.992,109.684,109.483,111.196,107.54z"/>
		<path id="Light_16_" opacity="0.3" fill="#FFFFFF" d="M71.906,15.288L10.555,76.64v28.723l90.075-90.074H71.906z M168.897,15.288
			h-61.991L10.555,111.64v98.723L194.389,26.529C189.053,19.31,180.29,15.288,168.897,15.288z"/>
	</g>
</g>
<g id="Wallet_1_">
</g>
<g id="Bills">
</g>
<g id="Coins_1_">
</g>
<g id="Passport_Red_1_">
</g>
<g id="Passport_Blue_1_">
</g>
<g id="Credit_Card_Red">
</g>
<g id="Credit_Card_Blue">
</g>
<g id="Aeroplane_1_">
</g>
<g id="Magic_Mouse_1_">
</g>
<g id="Keyboard">
</g>
<g id="Ruler_1_">
</g>
<g id="Charger_1_">
</g>
<g id="Macbook_13_x22_">
</g>
<g id="Brushes">
</g>
<g id="Pencils">
</g>
<g id="Can">
</g>
<g id="Coffee">
</g>
<g id="Stylus">
</g>
<g id="Wacom_1_">
</g>
<g id="Paperclips_1_">
</g>
<g id="Earbuds_1_">
</g>
<g id="Glasses">
</g>
<g id="Sunglasses">
</g>
<g id="Case_1_">
</g>
<g id="Donut_1_">
</g>
</svg>
