<?xml version="1.0" encoding="utf-8"?>
<!-- Generator: Adobe Illustrator 16.0.0, SVG Export Plug-In . SVG Version: 6.00 Build 0)  -->
<!DOCTYPE svg PUBLIC "-//W3C//DTD SVG 1.1//EN" "http://www.w3.org/Graphics/SVG/1.1/DTD/svg11.dtd">
<svg version="1.1" xmlns="http://www.w3.org/2000/svg" xmlns:xlink="http://www.w3.org/1999/xlink" x="0px" y="0px" width="210px"
	 height="420px" viewBox="0 0 210 420" enable-background="new 0 0 210 420" xml:space="preserve">
<g id="Camera_Standing">
</g>
<g id="Camera_Lying">
</g>
<g id="Colours_1_">
</g>
<g id="Aquarell_1_">
</g>
<g id="Envelope_big_1_">
</g>
<g id="Envelope_small_1_">
</g>
<g id="Airmail_1_">
</g>
<g id="Highlighters_Closed_1_">
</g>
<g id="Highlighters_Open_1_">
</g>
<g id="USB_Stick_1_">
</g>
<g id="Pencil_Small">
</g>
<g id="Pencil_Large">
</g>
<g id="Brush_3_">
</g>
<g id="Notepad_1_">
</g>
<g id="Moleskine_Large_Open">
</g>
<g id="Moleskine_Small_Open_1_">
</g>
<g id="Moleskine_Large">
</g>
<g id="Moleskine_Small_1_">
</g>
<g id="iPad_Mini">
</g>
<g id="MacBook_13_x22_">
</g>
<g id="iMac_1_">
</g>
<g id="Wallet_2_">
</g>
<g id="iPhone_6_Grey">
	<g id="Back_2_">
		<g id="Background_18_">
			<path fill-rule="evenodd" clip-rule="evenodd" fill="#E2E2E2" d="M41.533,408.47c-20.588,0-33.377-12.787-33.377-33.372V46.66
				c0-20.585,12.789-33.372,33.377-33.372h126.965c20.588,0,33.377,12.787,33.377,33.372v328.438
				c0,20.585-12.789,33.372-33.377,33.372H41.533z"/>
			<path fill="#333333" d="M168.498,15.288c19.549,0,31.377,11.825,31.377,31.372v328.438c0,19.441-11.828,31.372-31.377,31.372
				h-0.68H41.533c-19.549,0-31.377-11.931-31.377-31.372V46.66c0-19.547,11.828-31.372,31.377-31.372H168.498 M168.498,11.288
				H41.533c-21.821,0-35.377,13.554-35.377,35.372v328.438c0,10.634,3.294,19.556,9.526,25.802c6.246,6.261,15.186,9.57,25.851,9.57
				h126.285h0.68c10.665,0,19.604-3.31,25.851-9.57c6.232-6.246,9.526-15.168,9.526-25.802V46.66
				C203.875,24.842,190.319,11.288,168.498,11.288L168.498,11.288z"/>
		</g>
		<path id="Antenna_2_" fill-rule="evenodd" clip-rule="evenodd" fill="#B2B2B2" d="M14.016,370.995
			c-1.904,0-3.859-0.724-3.859-0.724v5.551c0,0,0.125,0.304,0.965,0.481c0.84,0.18,1.619,0.815,1.689,2.173
			s0.771,25.579,29.207,25.579h125.514c28.438,0,29.137-24.222,29.207-25.579s0.85-1.993,1.689-2.173
			c0.838-0.178,0.965-0.481,0.965-0.481v-5.551c0,0-1.959,0.724-3.861,0.724H14.016z M167.531,399.23H42.018
			c-24.379,0-24.139-19.437-24.139-20.513c0-1.077,0.652-2.171,1.932-2.171h169.928c1.277,0,1.93,1.094,1.93,2.171
			C191.668,379.794,191.91,399.23,167.531,399.23z M198.428,44.971c-0.84-0.179-1.619-0.813-1.689-2.172
			c-0.07-1.359-0.77-25.58-29.207-25.58H42.018c-28.436,0-29.137,24.221-29.207,25.58c-0.07,1.358-0.85,1.993-1.689,2.172
			c-0.84,0.178-0.965,0.482-0.965,0.482v5.552c0,0,1.955-0.726,3.859-0.726h181.516c1.902,0,3.861,0.726,3.861,0.726v-5.552
			C199.393,45.453,199.266,45.148,198.428,44.971z M189.738,44.729H19.811c-1.279,0-1.932-1.095-1.932-2.171
			c0-1.077-0.24-20.514,24.139-20.514h125.514c24.379,0,24.137,19.437,24.137,20.514C191.668,43.635,191.016,44.729,189.738,44.729z
			"/>
		<path id="Micro_2_" fill-rule="evenodd" clip-rule="evenodd" fill="#333333" d="M62.203,32.544c1.066,0,1.932,0.864,1.932,1.931
			c0,1.067-0.865,1.932-1.932,1.932s-1.932-0.864-1.932-1.932C60.271,33.408,61.137,32.544,62.203,32.544z"/>
		<path id="Camera_5_" fill-rule="evenodd" clip-rule="evenodd" fill="#333333" d="M45.01,25.396c4.816,0,8.717,3.902,8.717,8.717
			c0,4.813-3.9,8.715-8.717,8.715c-4.814,0-8.715-3.901-8.715-8.715C36.295,29.299,40.195,25.396,45.01,25.396z"/>
		<path id="Flash_2_" fill-rule="evenodd" clip-rule="evenodd" fill="#FFFFFF" d="M74.172,29.146c2.943,0,5.328,2.386,5.328,5.329
			c0,2.942-2.385,5.328-5.328,5.328c-2.941,0-5.33-2.386-5.33-5.328C68.842,31.531,71.23,29.146,74.172,29.146z"/>
		<path id="Logo_11_" fill-rule="evenodd" clip-rule="evenodd" fill="#616263" d="M122.018,115.005
			c-2.221-2.77-5.332-4.372-8.271-4.372c-3.888,0-5.531,1.851-8.229,1.851c-2.779,0-4.893-1.846-8.257-1.846
			c-3.302,0-6.815,2.01-9.042,5.441c-3.133,4.832-2.604,13.918,2.48,21.662c1.814,2.766,4.241,5.881,7.415,5.912
			c2.817,0.027,3.616-1.805,7.444-1.824c3.824-0.023,4.549,1.842,7.369,1.816c3.172-0.033,5.73-3.479,7.549-6.25
			c1.303-1.98,1.785-2.982,2.797-5.227C115.928,129.39,114.748,118.997,122.018,115.005z M110.797,107.54
			c1.41-1.814,2.484-4.379,2.097-6.998c-2.309,0.158-5.007,1.631-6.583,3.543c-1.432,1.742-2.611,4.324-2.152,6.832
			C106.678,110.992,109.284,109.483,110.797,107.54z"/>
		<path id="Light_21_" opacity="0.3" fill="#FFFFFF" d="M71.507,15.288L10.156,76.64v28.723l90.074-90.074H71.507z M168.498,15.288
			h-61.991L10.156,111.64v98.723L193.989,26.529C188.654,19.31,179.891,15.288,168.498,15.288z"/>
	</g>
</g>
<g id="iPhone_6_Silver_1_">
</g>
<g id="iPhone_6_Gold_1_">
</g>
<g id="Wallet_1_">
</g>
<g id="Bills">
</g>
<g id="Coins_1_">
</g>
<g id="Passport_Red_1_">
</g>
<g id="Passport_Blue_1_">
</g>
<g id="Credit_Card_Red">
</g>
<g id="Credit_Card_Blue">
</g>
<g id="Aeroplane_1_">
</g>
<g id="Magic_Mouse_1_">
</g>
<g id="Keyboard">
</g>
<g id="Ruler_1_">
</g>
<g id="Charger_1_">
</g>
<g id="Macbook_13_x22_">
</g>
<g id="Brushes">
</g>
<g id="Pencils">
</g>
<g id="Can">
</g>
<g id="Coffee">
</g>
<g id="Stylus">
</g>
<g id="Wacom_1_">
</g>
<g id="Paperclips_1_">
</g>
<g id="Earbuds_1_">
</g>
<g id="Glasses">
</g>
<g id="Sunglasses">
</g>
<g id="Case_1_">
</g>
<g id="Donut_1_">
</g>
</svg>
