<?xml version="1.0" encoding="utf-8"?>
<!-- Generator: Adobe Illustrator 16.0.0, SVG Export Plug-In . SVG Version: 6.00 Build 0)  -->
<!DOCTYPE svg PUBLIC "-//W3C//DTD SVG 1.1//EN" "http://www.w3.org/Graphics/SVG/1.1/DTD/svg11.dtd">
<svg version="1.1" xmlns="http://www.w3.org/2000/svg" xmlns:xlink="http://www.w3.org/1999/xlink" x="0px" y="0px" width="840px"
	 height="420px" viewBox="0 0 840 420" enable-background="new 0 0 840 420" xml:space="preserve">
<g id="Camera_Standing">
</g>
<g id="Camera_Lying">
</g>
<g id="Colours_1_">
</g>
<g id="Aquarell_1_">
</g>
<g id="Envelope_big_1_">
</g>
<g id="Envelope_small_1_">
</g>
<g id="Airmail_1_">
</g>
<g id="Highlighters_Closed_1_">
</g>
<g id="Highlighters_Open_1_">
</g>
<g id="USB_Stick_1_">
</g>
<g id="Pencil_Small">
</g>
<g id="Pencil_Large">
</g>
<g id="Brush_3_">
</g>
<g id="Notepad_1_">
</g>
<g id="Moleskine_Large_Open">
</g>
<g id="Moleskine_Small_Open_1_">
</g>
<g id="Moleskine_Large">
</g>
<g id="Moleskine_Small_1_">
</g>
<g id="iPad_Mini">
</g>
<g id="MacBook_13_x22_">
</g>
<g id="iMac_1_">
</g>
<g id="Wallet_2_">
</g>
<g id="iPhone_6_Grey">
</g>
<g id="iPhone_6_Silver_1_">
</g>
<g id="iPhone_6_Gold_1_">
</g>
<g id="Wallet_1_">
</g>
<g id="Bills">
</g>
<g id="Coins_1_">
</g>
<g id="Passport_Red_1_">
</g>
<g id="Passport_Blue_1_">
</g>
<g id="Credit_Card_Red">
</g>
<g id="Credit_Card_Blue">
</g>
<g id="Aeroplane_1_">
</g>
<g id="Magic_Mouse_1_">
</g>
<g id="Keyboard">
	<path id="Background_4_" fill="#D6D6D6" d="M815.233,382.704c0,7.828-6.346,14.174-14.174,14.174H32.871
		c-7.827,0-14.173-6.346-14.173-14.174V51.208c0-7.827-1.654-34.173,6.173-34.173H809.06c7.828,0,6.174,26.346,6.174,34.173V382.704
		z"/>
	<path id="Light_5_" fill="#E2E2E2" d="M815.233,382.704c0,7.828-6.346,14.174-14.174,14.174H32.871
		c-7.827,0-14.173-6.346-14.173-14.174V71.208c0-7.827-1.654-34.173,6.173-34.173H809.06c7.828,0,6.174,26.346,6.174,34.173V382.704
		z"/>
	<path id="Border_8_" fill="none" stroke="#333333" stroke-width="4" stroke-miterlimit="10" d="M815.233,382.704
		c0,7.828-6.346,14.174-14.174,14.174H32.871c-7.827,0-14.173-6.346-14.173-14.174V51.208c0-7.827-0.654-34.173,7.173-34.173H808.06
		c7.828,0,7.174,26.346,7.174,34.173V382.704z"/>
	<path id="Keys" fill="#FFFFFF" d="M752.646,80.244v21.677c0,1.954,1.58,3.538,3.538,3.538h38.489c1.957,0,3.541-1.584,3.541-3.538
		V80.244c0-1.96-1.584-3.541-3.541-3.541h-38.489C754.226,76.703,752.646,78.284,752.646,80.244z M76.204,112.094H37.718
		c-1.957,0-3.541,1.584-3.541,3.538v39.379c0,1.953,1.584,3.537,3.541,3.537h38.486c1.956,0,3.54-1.584,3.54-3.537v-39.379
		C79.744,113.678,78.16,112.094,76.204,112.094z M129.292,112.094H90.803c-1.952,0-3.536,1.584-3.536,3.538v39.379
		c0,1.953,1.584,3.537,3.536,3.537h38.489c1.957,0,3.541-1.584,3.541-3.537v-39.379
		C132.833,113.678,131.249,112.094,129.292,112.094z M182.382,112.094h-38.49c-1.953,0-3.537,1.584-3.537,3.538v39.379
		c0,1.953,1.584,3.537,3.537,3.537h38.49c1.957,0,3.541-1.584,3.541-3.537v-39.379C185.923,113.678,184.339,112.094,182.382,112.094
		z M235.472,112.094h-38.49c-1.957,0-3.537,1.584-3.537,3.538v39.379c0,1.953,1.58,3.537,3.537,3.537h38.49
		c1.957,0,3.541-1.584,3.541-3.537v-39.379C239.013,113.678,237.429,112.094,235.472,112.094z M288.56,112.094h-38.488
		c-1.957,0-3.539,1.584-3.539,3.538v39.379c0,1.953,1.582,3.537,3.539,3.537h38.488c1.958,0,3.541-1.584,3.541-3.537v-39.379
		C292.101,113.678,290.518,112.094,288.56,112.094z M341.649,112.094H303.16c-1.958,0-3.542,1.584-3.542,3.538v39.379
		c0,1.953,1.584,3.537,3.542,3.537h38.489c1.957,0,3.537-1.584,3.537-3.537v-39.379
		C345.187,113.678,343.606,112.094,341.649,112.094z M394.739,112.094h-38.49c-1.957,0-3.541,1.584-3.541,3.538v39.379
		c0,1.953,1.584,3.537,3.541,3.537h38.49c1.957,0,3.537-1.584,3.537-3.537v-39.379C398.276,113.678,396.696,112.094,394.739,112.094
		z M447.828,112.094h-38.489c-1.957,0-3.541,1.584-3.541,3.538v39.379c0,1.953,1.584,3.537,3.541,3.537h38.489
		c1.953,0,3.537-1.584,3.537-3.537v-39.379C451.365,113.678,449.781,112.094,447.828,112.094z M500.913,112.094h-38.484
		c-1.958,0-3.542,1.584-3.542,3.538v39.379c0,1.953,1.584,3.537,3.542,3.537h38.484c1.957,0,3.541-1.584,3.541-3.537v-39.379
		C504.454,113.678,502.87,112.094,500.913,112.094z M554.003,112.094h-38.49c-1.953,0-3.537,1.584-3.537,3.538v39.379
		c0,1.953,1.584,3.537,3.537,3.537h38.49c1.957,0,3.541-1.584,3.541-3.537v-39.379C557.544,113.678,555.96,112.094,554.003,112.094z
		 M607.092,112.094h-38.489c-1.957,0-3.537,1.584-3.537,3.538v39.379c0,1.953,1.58,3.537,3.537,3.537h38.489
		c1.958,0,3.542-1.584,3.542-3.537v-39.379C610.634,113.678,609.05,112.094,607.092,112.094z M660.181,112.094h-38.488
		c-1.958,0-3.537,1.584-3.537,3.538v39.379c0,1.953,1.579,3.537,3.537,3.537h38.488c1.957,0,3.541-1.584,3.541-3.537v-39.379
		C663.722,113.678,662.138,112.094,660.181,112.094z M713.271,112.094h-38.49c-1.957,0-3.541,1.584-3.541,3.538v39.379
		c0,1.953,1.584,3.537,3.541,3.537h38.49c1.957,0,3.537-1.584,3.537-3.537v-39.379C716.808,113.678,715.228,112.094,713.271,112.094
		z M157.61,165.183h-38.49c-1.957,0-3.541,1.585-3.541,3.536V208.1c0,1.953,1.584,3.538,3.541,3.538h38.49
		c1.952,0,3.536-1.585,3.536-3.538v-39.381C161.146,166.768,159.562,165.183,157.61,165.183z M104.521,165.183H37.718
		c-1.957,0-3.541,1.585-3.541,3.536V208.1c0,1.953,1.584,3.538,3.541,3.538h66.803c1.953,0,3.537-1.585,3.537-3.538v-39.381
		C108.058,166.768,106.474,165.183,104.521,165.183z M210.694,165.183h-38.488c-1.954,0-3.538,1.585-3.538,3.536V208.1
		c0,1.953,1.584,3.538,3.538,3.538h38.488c1.958,0,3.542-1.585,3.542-3.538v-39.381
		C214.236,166.768,212.652,165.183,210.694,165.183z M263.784,165.183h-38.489c-1.953,0-3.537,1.585-3.537,3.536V208.1
		c0,1.953,1.584,3.538,3.537,3.538h38.489c1.957,0,3.541-1.585,3.541-3.538v-39.381
		C267.325,166.768,265.741,165.183,263.784,165.183z M316.874,165.183h-38.49c-1.956,0-3.537,1.585-3.537,3.536V208.1
		c0,1.953,1.581,3.538,3.537,3.538h38.49c1.957,0,3.541-1.585,3.541-3.538v-39.381C320.415,166.768,318.831,165.183,316.874,165.183
		z M369.963,165.183h-38.489c-1.958,0-3.537,1.585-3.537,3.536V208.1c0,1.953,1.579,3.538,3.537,3.538h38.489
		c1.958,0,3.542-1.585,3.542-3.538v-39.381C373.505,166.768,371.921,165.183,369.963,165.183z M423.052,165.183h-38.488
		c-1.958,0-3.539,1.585-3.539,3.536V208.1c0,1.953,1.581,3.538,3.539,3.538h38.488c1.957,0,3.541-1.585,3.541-3.538v-39.381
		C426.593,166.768,425.009,165.183,423.052,165.183z M476.142,165.183h-38.49c-1.957,0-3.541,1.585-3.541,3.536V208.1
		c0,1.953,1.584,3.538,3.541,3.538h38.49c1.957,0,3.537-1.585,3.537-3.538v-39.381C479.679,166.768,478.099,165.183,476.142,165.183
		z M529.23,165.183h-38.489c-1.957,0-3.541,1.585-3.541,3.536V208.1c0,1.953,1.584,3.538,3.541,3.538h38.489
		c1.956,0,3.537-1.585,3.537-3.538v-39.381C532.768,166.768,531.187,165.183,529.23,165.183z M582.317,165.183H543.83
		c-1.957,0-3.541,1.585-3.541,3.536V208.1c0,1.953,1.584,3.538,3.541,3.538h38.487c1.955,0,3.539-1.585,3.539-3.538v-39.381
		C585.856,166.768,584.272,165.183,582.317,165.183z M635.405,165.183h-38.486c-1.956,0-3.54,1.585-3.54,3.536V208.1
		c0,1.953,1.584,3.538,3.54,3.538h38.486c1.957,0,3.541-1.585,3.541-3.538v-39.381C638.946,166.768,637.362,165.183,635.405,165.183
		z M688.494,165.183h-38.489c-1.953,0-3.537,1.585-3.537,3.536V208.1c0,1.953,1.584,3.538,3.537,3.538h38.489
		c1.958,0,3.542-1.585,3.542-3.538v-39.381C692.036,166.768,690.452,165.183,688.494,165.183z M741.584,165.183h-38.489
		c-1.957,0-3.537,1.585-3.537,3.536V208.1c0,1.953,1.58,3.538,3.537,3.538h38.489c1.957,0,3.541-1.585,3.541-3.538v-39.381
		C745.125,166.768,743.541,165.183,741.584,165.183z M794.894,165.183h-38.494c-1.953,0-3.537,1.585-3.537,3.536V208.1
		c0,1.953,1.584,3.538,3.537,3.538h38.494c1.953,0,3.537-1.585,3.537-3.538v-39.381
		C798.431,166.768,796.847,165.183,794.894,165.183z M143.449,271.361H104.96c-1.953,0-3.537,1.584-3.537,3.537v39.381
		c0,1.952,1.584,3.536,3.537,3.536h38.489c1.957,0,3.541-1.584,3.541-3.536v-39.381C146.99,272.945,145.406,271.361,143.449,271.361
		z M90.364,271.361H37.718c-1.957,0-3.541,1.584-3.541,3.537v39.381c0,1.952,1.584,3.536,3.541,3.536h52.646
		c1.953,0,3.537-1.584,3.537-3.536v-39.381C93.901,272.945,92.317,271.361,90.364,271.361z M196.538,271.361h-38.49
		c-1.952,0-3.536,1.584-3.536,3.537v39.381c0,1.952,1.584,3.536,3.536,3.536h38.49c1.957,0,3.541-1.584,3.541-3.536v-39.381
		C200.079,272.945,198.495,271.361,196.538,271.361z M249.628,271.361h-38.49c-1.955,0-3.537,1.584-3.537,3.537v39.381
		c0,1.952,1.582,3.536,3.537,3.536h38.49c1.957,0,3.541-1.584,3.541-3.536v-39.381C253.169,272.945,251.585,271.361,249.628,271.361
		z M140.354,327.987v43.324c0,1.952,1.584,3.536,3.537,3.536h38.49c1.957,0,3.541-1.584,3.541-3.536v-43.324
		c0-1.953-1.584-3.537-3.541-3.537h-38.49C141.938,324.45,140.354,326.034,140.354,327.987z M193.444,327.987v43.324
		c0,1.952,1.58,3.536,3.537,3.536h52.646c1.957,0,3.541-1.584,3.541-3.536v-43.324c0-1.953-1.584-3.537-3.541-3.537h-52.646
		C195.024,324.45,193.444,326.034,193.444,327.987z M87.267,327.987v43.324c0,1.952,1.584,3.536,3.536,3.536h38.489
		c1.957,0,3.541-1.584,3.541-3.536v-43.324c0-1.953-1.584-3.537-3.541-3.537H90.803C88.851,324.45,87.267,326.034,87.267,327.987z
		 M646.024,324.45h-38.489c-1.957,0-3.54,1.584-3.54,3.537v43.324c0,1.952,1.583,3.536,3.54,3.536h38.489
		c1.957,0,3.537-1.584,3.537-3.536v-43.324C649.562,326.034,647.981,324.45,646.024,324.45z M592.936,324.45h-52.646
		c-1.958,0-3.54,1.584-3.54,3.537v43.324c0,1.952,1.582,3.536,3.54,3.536h52.646c1.957,0,3.541-1.584,3.541-3.536v-43.324
		C596.477,326.034,594.893,324.45,592.936,324.45z M260.69,327.987v43.324c0,1.952,1.58,3.536,3.537,3.536H525.69
		c1.956,0,3.54-1.584,3.54-3.536v-43.324c0-1.953-1.584-3.537-3.54-3.537H264.228C262.271,324.45,260.69,326.034,260.69,327.987z
		 M34.177,327.987v43.324c0,1.952,1.584,3.536,3.541,3.536h38.486c1.956,0,3.54-1.584,3.54-3.536v-43.324
		c0-1.953-1.584-3.537-3.54-3.537H37.718C35.761,324.45,34.177,326.034,34.177,327.987z M302.717,271.361h-38.489
		c-1.957,0-3.537,1.584-3.537,3.537v39.381c0,1.952,1.58,3.536,3.537,3.536h38.489c1.958,0,3.542-1.584,3.542-3.536v-39.381
		C306.259,272.945,304.675,271.361,302.717,271.361z M355.806,271.361h-38.489c-1.957,0-3.54,1.584-3.54,3.537v39.381
		c0,1.952,1.583,3.536,3.54,3.536h38.489c1.957,0,3.541-1.584,3.541-3.536v-39.381C359.347,272.945,357.763,271.361,355.806,271.361
		z M408.896,271.361h-38.49c-1.957,0-3.541,1.584-3.541,3.537v39.381c0,1.952,1.584,3.536,3.541,3.536h38.49
		c1.957,0,3.537-1.584,3.537-3.536v-39.381C412.433,272.945,410.853,271.361,408.896,271.361z M461.985,271.361h-38.49
		c-1.957,0-3.541,1.584-3.541,3.537v39.381c0,1.952,1.584,3.536,3.541,3.536h38.49c1.957,0,3.536-1.584,3.536-3.536v-39.381
		C465.521,272.945,463.942,271.361,461.985,271.361z M515.074,271.361h-38.489c-1.957,0-3.541,1.584-3.541,3.537v39.381
		c0,1.952,1.584,3.536,3.541,3.536h38.489c1.952,0,3.536-1.584,3.536-3.536v-39.381C518.61,272.945,517.026,271.361,515.074,271.361
		z M568.159,271.361h-38.486c-1.956,0-3.541,1.584-3.541,3.537v39.381c0,1.952,1.585,3.536,3.541,3.536h38.486
		c1.957,0,3.541-1.584,3.541-3.536v-39.381C571.7,272.945,570.116,271.361,568.159,271.361z M621.249,271.361h-38.49
		c-1.953,0-3.537,1.584-3.537,3.537v39.381c0,1.952,1.584,3.536,3.537,3.536h38.49c1.957,0,3.541-1.584,3.541-3.536v-39.381
		C624.79,272.945,623.206,271.361,621.249,271.361z M674.337,271.361h-38.488c-1.957,0-3.537,1.584-3.537,3.537v39.381
		c0,1.952,1.58,3.536,3.537,3.536h38.488c1.958,0,3.542-1.584,3.542-3.536v-39.381C677.879,272.945,676.295,271.361,674.337,271.361
		z M794.673,271.361H688.938c-1.958,0-3.537,1.584-3.537,3.537v39.381c0,1.952,1.579,3.536,3.537,3.536h105.735
		c1.957,0,3.541-1.584,3.541-3.536v-39.381C798.214,272.945,796.63,271.361,794.673,271.361z M168.225,218.272h-38.489
		c-1.957,0-3.537,1.584-3.537,3.536v39.375c0,1.959,1.58,3.543,3.537,3.543h38.489c1.958,0,3.542-1.584,3.542-3.543v-39.375
		C171.767,219.856,170.183,218.272,168.225,218.272z M115.136,218.272H37.718c-1.957,0-3.541,1.584-3.541,3.536v39.375
		c0,1.959,1.584,3.543,3.541,3.543h77.418c1.957,0,3.541-1.584,3.541-3.543v-39.375
		C118.677,219.856,117.093,218.272,115.136,218.272z M221.314,218.272h-38.489c-1.958,0-3.537,1.584-3.537,3.536v39.375
		c0,1.959,1.579,3.543,3.537,3.543h38.489c1.958,0,3.542-1.584,3.542-3.543v-39.375
		C224.856,219.856,223.272,218.272,221.314,218.272z M274.403,218.272h-38.488c-1.958,0-3.542,1.584-3.542,3.536v39.375
		c0,1.959,1.584,3.543,3.542,3.543h38.488c1.957,0,3.537-1.584,3.537-3.543v-39.375C277.94,219.856,276.36,218.272,274.403,218.272z
		 M327.493,218.272h-38.49c-1.957,0-3.541,1.584-3.541,3.536v39.375c0,1.959,1.584,3.543,3.541,3.543h38.49
		c1.957,0,3.537-1.584,3.537-3.543v-39.375C331.03,219.856,329.45,218.272,327.493,218.272z M380.583,218.272h-38.49
		c-1.957,0-3.541,1.584-3.541,3.536v39.375c0,1.959,1.584,3.543,3.541,3.543h38.49c1.953,0,3.537-1.584,3.537-3.543v-39.375
		C384.12,219.856,382.536,218.272,380.583,218.272z M433.667,218.272h-38.484c-1.958,0-3.542,1.584-3.542,3.536v39.375
		c0,1.959,1.584,3.543,3.542,3.543h38.484c1.957,0,3.542-1.584,3.542-3.543v-39.375
		C437.209,219.856,435.624,218.272,433.667,218.272z M486.757,218.272h-38.489c-1.954,0-3.538,1.584-3.538,3.536v39.375
		c0,1.959,1.584,3.543,3.538,3.543h38.489c1.957,0,3.541-1.584,3.541-3.543v-39.375
		C490.298,219.856,488.714,218.272,486.757,218.272z M539.847,218.272h-38.49c-1.957,0-3.537,1.584-3.537,3.536v39.375
		c0,1.959,1.58,3.543,3.537,3.543h38.49c1.956,0,3.541-1.584,3.541-3.543v-39.375C543.388,219.856,541.803,218.272,539.847,218.272z
		 M592.936,218.272h-38.49c-1.956,0-3.536,1.584-3.536,3.536v39.375c0,1.959,1.58,3.543,3.536,3.543h38.49
		c1.957,0,3.541-1.584,3.541-3.543v-39.375C596.477,219.856,594.893,218.272,592.936,218.272z M646.024,218.272h-38.489
		c-1.957,0-3.54,1.584-3.54,3.536v39.375c0,1.959,1.583,3.543,3.54,3.543h38.489c1.957,0,3.537-1.584,3.537-3.543v-39.375
		C649.562,219.856,647.981,218.272,646.024,218.272z M699.114,218.272h-38.49c-1.957,0-3.541,1.584-3.541,3.536v39.375
		c0,1.959,1.584,3.543,3.541,3.543h38.49c1.957,0,3.537-1.584,3.537-3.543v-39.375C702.651,219.856,701.071,218.272,699.114,218.272
		z M795.64,218.272h-81.926c-1.957,0-3.541,1.584-3.541,3.536v39.375c0,1.959,1.584,3.543,3.541,3.543h81.926
		c1.953,0,3.537-1.584,3.537-3.543v-39.375C799.177,219.856,797.593,218.272,795.64,218.272z M794.673,112.094H727.87
		c-1.957,0-3.541,1.584-3.541,3.538v39.379c0,1.953,1.584,3.537,3.541,3.537h66.803c1.957,0,3.541-1.584,3.541-3.537v-39.379
		C798.214,113.678,796.63,112.094,794.673,112.094z M699.558,80.244v21.677c0,1.954,1.58,3.538,3.537,3.538h38.489
		c1.957,0,3.541-1.584,3.541-3.538V80.244c0-1.96-1.584-3.541-3.541-3.541h-38.489C701.138,76.703,699.558,78.284,699.558,80.244z
		 M752.646,353.176v18.136c0,1.952,1.58,3.536,3.538,3.536h38.489c1.957,0,3.541-1.584,3.541-3.536v-18.136
		c0-1.96-1.584-3.544-3.541-3.544h-38.489C754.226,349.632,752.646,351.216,752.646,353.176z M703.095,353.176v18.136
		c0,1.952,1.584,3.536,3.541,3.536h38.489c1.958,0,3.537-1.584,3.537-3.536v-18.136c0-1.96-1.579-3.544-3.537-3.544h-38.489
		C704.679,349.632,703.095,351.216,703.095,353.176z M703.095,328.397v18.138c0,1.961,1.584,3.545,3.541,3.545h38.489
		c1.958,0,3.537-1.584,3.537-3.545v-18.138c0-1.957-1.579-3.538-3.537-3.538h-38.489
		C704.679,324.859,703.095,326.44,703.095,328.397z M653.546,353.176v18.136c0,1.952,1.584,3.536,3.537,3.536h38.489
		c1.958,0,3.542-1.584,3.542-3.536v-18.136c0-1.96-1.584-3.544-3.542-3.544h-38.489C655.13,349.632,653.546,351.216,653.546,353.176
		z M646.468,80.244v21.677c0,1.954,1.584,3.538,3.537,3.538h38.489c1.958,0,3.542-1.584,3.542-3.538V80.244
		c0-1.96-1.584-3.541-3.542-3.541h-38.489C648.052,76.703,646.468,78.284,646.468,80.244z M593.379,80.244v21.677
		c0,1.954,1.584,3.538,3.54,3.538h38.486c1.957,0,3.541-1.584,3.541-3.538V80.244c0-1.96-1.584-3.541-3.541-3.541h-38.486
		C594.963,76.703,593.379,78.284,593.379,80.244z M540.289,80.244v21.677c0,1.954,1.584,3.538,3.541,3.538h38.487
		c1.955,0,3.539-1.584,3.539-3.538V80.244c0-1.96-1.584-3.541-3.539-3.541H543.83C541.873,76.703,540.289,78.284,540.289,80.244z
		 M487.2,80.244v21.677c0,1.954,1.584,3.538,3.541,3.538h38.489c1.956,0,3.537-1.584,3.537-3.538V80.244
		c0-1.96-1.581-3.541-3.537-3.541h-38.489C488.784,76.703,487.2,78.284,487.2,80.244z M430.573,80.244v21.677
		c0,1.954,1.582,3.538,3.537,3.538h42.031c1.957,0,3.537-1.584,3.537-3.538V80.244c0-1.96-1.58-3.541-3.537-3.541H434.11
		C432.155,76.703,430.573,78.284,430.573,80.244z M373.942,80.244v21.677c0,1.954,1.584,3.538,3.542,3.538h42.026
		c1.957,0,3.541-1.584,3.541-3.538V80.244c0-1.96-1.584-3.541-3.541-3.541h-42.026C375.526,76.703,373.942,78.284,373.942,80.244z
		 M317.316,80.244v21.677c0,1.954,1.585,3.538,3.54,3.538h42.027c1.958,0,3.537-1.584,3.537-3.538V80.244
		c0-1.96-1.579-3.541-3.537-3.541h-42.027C318.901,76.703,317.316,78.284,317.316,80.244z M260.69,80.244v21.677
		c0,1.954,1.58,3.538,3.537,3.538h42.031c1.952,0,3.536-1.584,3.536-3.538V80.244c0-1.96-1.584-3.541-3.536-3.541h-42.031
		C262.271,76.703,260.69,78.284,260.69,80.244z M204.06,80.244v21.677c0,1.954,1.584,3.538,3.541,3.538h42.027
		c1.957,0,3.541-1.584,3.541-3.538V80.244c0-1.96-1.584-3.541-3.541-3.541h-42.027C205.644,76.703,204.06,78.284,204.06,80.244z
		 M147.433,80.244v21.677c0,1.954,1.584,3.538,3.537,3.538h42.031c1.957,0,3.537-1.584,3.537-3.538V80.244
		c0-1.96-1.58-3.541-3.537-3.541H150.97C149.017,76.703,147.433,78.284,147.433,80.244z M90.803,80.244v21.677
		c0,1.954,1.584,3.538,3.542,3.538h42.025c1.957,0,3.541-1.584,3.541-3.538V80.244c0-1.96-1.584-3.541-3.541-3.541H94.345
		C92.387,76.703,90.803,78.284,90.803,80.244z M34.177,80.244v21.677c0,1.954,1.584,3.538,3.541,3.538h42.026
		c1.958,0,3.54-1.584,3.54-3.538V80.244c0-1.96-1.582-3.541-3.54-3.541H37.718C35.761,76.703,34.177,78.284,34.177,80.244z"/>
</g>
<g id="Ruler_1_">
</g>
<g id="Charger_1_">
</g>
<g id="Macbook_13_x22_">
</g>
<g id="Brushes">
</g>
<g id="Pencils">
</g>
<g id="Can">
</g>
<g id="Coffee">
</g>
<g id="Stylus">
</g>
<g id="Wacom_1_">
</g>
<g id="Paperclips_1_">
</g>
<g id="Earbuds_1_">
</g>
<g id="Glasses">
</g>
<g id="Sunglasses">
</g>
<g id="Case_1_">
</g>
<g id="Donut_1_">
</g>
</svg>
