<?xml version="1.0" encoding="utf-8"?>
<!-- Generator: Adobe Illustrator 16.0.0, SVG Export Plug-In . SVG Version: 6.00 Build 0)  -->
<!DOCTYPE svg PUBLIC "-//W3C//DTD SVG 1.1//EN" "http://www.w3.org/Graphics/SVG/1.1/DTD/svg11.dtd">
<svg version="1.1" xmlns="http://www.w3.org/2000/svg" xmlns:xlink="http://www.w3.org/1999/xlink" x="0px" y="0px" width="1250px"
	 height="900px" viewBox="0 0 1250 900" enable-background="new 0 0 1250 900" xml:space="preserve">
<g id="Camera_Standing">
</g>
<g id="Camera_Lying">
</g>
<g id="Colours_1_">
</g>
<g id="Aquarell_1_">
</g>
<g id="Envelope_big_1_">
</g>
<g id="Envelope_small_1_">
</g>
<g id="Airmail_1_">
</g>
<g id="Highlighters_Closed_1_">
</g>
<g id="Highlighters_Open_1_">
</g>
<g id="USB_Stick_1_">
</g>
<g id="Pencil_Small">
</g>
<g id="Pencil_Large">
</g>
<g id="Brush_3_">
</g>
<g id="Notepad_1_">
</g>
<g id="Moleskine_Large_Open">
</g>
<g id="Moleskine_Small_Open_1_">
</g>
<g id="Moleskine_Large">
</g>
<g id="Moleskine_Small_1_">
</g>
<g id="iPad_Mini">
</g>
<g id="MacBook_13_x22_">
	<g id="Background_26_">
		<path fill="#E2E2E2" d="M1074.58,857.173c0,12.854-10.42,23.275-23.273,23.275h-843.53c-12.854,0-23.275-10.422-23.275-23.275
			V282.977c0-12.855,10.421-23.275,23.275-23.275h843.53c12.854,0,23.273,10.42,23.273,23.275V857.173z"/>
	</g>
	<path id="Border_22_" fill="#616263" d="M554.943,880.448H706.99c-1.64-6.016-7.127-10.444-13.661-10.444H568.605
		C562.07,870.004,556.583,874.433,554.943,880.448z"/>
	<path id="Touchpad_1_" fill="#D6D6D6" d="M771.501,847.027c0,7.828-6.346,14.174-14.174,14.174H502.21
		c-7.828,0-14.174-6.346-14.174-14.174V662.775c0-7.827,6.346-14.173,14.174-14.173h255.117c7.828,0,14.174,6.346,14.174,14.173
		V847.027z"/>
	<path id="Shadow_7_" fill="#D6D6D6" d="M1023.689,613.414c0,11.875-7.312,19.188-19.188,19.188H254.69
		c-11.876,0-19.188-7.313-19.188-19.188V322.791c0-11.876,7.312-19.188,19.188-19.188h749.812c11.875,0,19.188,7.312,19.188,19.188
		V613.414z"/>
	<path id="Keys_1_" fill="#333333" d="M967.49,323.188v21.677c0,1.954,1.58,3.538,3.538,3.538h38.49
		c1.957,0,3.541-1.584,3.541-3.538v-21.677c0-1.96-1.584-3.541-3.541-3.541h-38.49C969.07,319.646,967.49,321.228,967.49,323.188z
		 M291.048,355.037h-38.486c-1.957,0-3.541,1.584-3.541,3.538v39.379c0,1.953,1.584,3.537,3.541,3.537h38.486
		c1.956,0,3.54-1.584,3.54-3.537v-39.379C294.588,356.621,293.004,355.037,291.048,355.037z M344.136,355.037h-38.489
		c-1.952,0-3.536,1.584-3.536,3.538v39.379c0,1.953,1.584,3.537,3.536,3.537h38.489c1.957,0,3.541-1.584,3.541-3.537v-39.379
		C347.677,356.621,346.093,355.037,344.136,355.037z M397.226,355.037h-38.49c-1.953,0-3.537,1.584-3.537,3.538v39.379
		c0,1.953,1.584,3.537,3.537,3.537h38.49c1.957,0,3.541-1.584,3.541-3.537v-39.379C400.767,356.621,399.183,355.037,397.226,355.037
		z M450.316,355.037h-38.49c-1.957,0-3.537,1.584-3.537,3.538v39.379c0,1.953,1.58,3.537,3.537,3.537h38.49
		c1.957,0,3.541-1.584,3.541-3.537v-39.379C453.857,356.621,452.273,355.037,450.316,355.037z M503.404,355.037h-38.488
		c-1.957,0-3.539,1.584-3.539,3.538v39.379c0,1.953,1.582,3.537,3.539,3.537h38.488c1.958,0,3.541-1.584,3.541-3.537v-39.379
		C506.945,356.621,505.362,355.037,503.404,355.037z M556.494,355.037h-38.489c-1.958,0-3.542,1.584-3.542,3.538v39.379
		c0,1.953,1.584,3.537,3.542,3.537h38.489c1.957,0,3.537-1.584,3.537-3.537v-39.379
		C560.031,356.621,558.451,355.037,556.494,355.037z M609.583,355.037h-38.49c-1.957,0-3.541,1.584-3.541,3.538v39.379
		c0,1.953,1.584,3.537,3.541,3.537h38.49c1.957,0,3.537-1.584,3.537-3.537v-39.379C613.121,356.621,611.541,355.037,609.583,355.037
		z M662.672,355.037h-38.489c-1.957,0-3.541,1.584-3.541,3.538v39.379c0,1.953,1.584,3.537,3.541,3.537h38.489
		c1.953,0,3.537-1.584,3.537-3.537v-39.379C666.209,356.621,664.625,355.037,662.672,355.037z M715.757,355.037h-38.484
		c-1.958,0-3.542,1.584-3.542,3.538v39.379c0,1.953,1.584,3.537,3.542,3.537h38.484c1.957,0,3.541-1.584,3.541-3.537v-39.379
		C719.298,356.621,717.714,355.037,715.757,355.037z M768.847,355.037h-38.49c-1.953,0-3.537,1.584-3.537,3.538v39.379
		c0,1.953,1.584,3.537,3.537,3.537h38.49c1.957,0,3.541-1.584,3.541-3.537v-39.379C772.388,356.621,770.804,355.037,768.847,355.037
		z M821.936,355.037h-38.489c-1.957,0-3.537,1.584-3.537,3.538v39.379c0,1.953,1.58,3.537,3.537,3.537h38.489
		c1.958,0,3.542-1.584,3.542-3.537v-39.379C825.478,356.621,823.894,355.037,821.936,355.037z M875.025,355.037h-38.488
		c-1.958,0-3.537,1.584-3.537,3.538v39.379c0,1.953,1.579,3.537,3.537,3.537h38.488c1.957,0,3.541-1.584,3.541-3.537v-39.379
		C878.566,356.621,876.982,355.037,875.025,355.037z M928.115,355.037h-38.49c-1.957,0-3.541,1.584-3.541,3.538v39.379
		c0,1.953,1.584,3.537,3.541,3.537h38.49c1.957,0,3.537-1.584,3.537-3.537v-39.379C931.652,356.621,930.072,355.037,928.115,355.037
		z M372.455,408.126h-38.49c-1.957,0-3.541,1.585-3.541,3.536v39.381c0,1.953,1.584,3.538,3.541,3.538h38.49
		c1.952,0,3.536-1.585,3.536-3.538v-39.381C375.991,409.711,374.407,408.126,372.455,408.126z M319.365,408.126h-66.803
		c-1.957,0-3.541,1.585-3.541,3.536v39.381c0,1.953,1.584,3.538,3.541,3.538h66.803c1.953,0,3.537-1.585,3.537-3.538v-39.381
		C322.902,409.711,321.318,408.126,319.365,408.126z M425.539,408.126H387.05c-1.954,0-3.538,1.585-3.538,3.536v39.381
		c0,1.953,1.584,3.538,3.538,3.538h38.488c1.958,0,3.542-1.585,3.542-3.538v-39.381
		C429.081,409.711,427.497,408.126,425.539,408.126z M478.628,408.126h-38.489c-1.953,0-3.537,1.585-3.537,3.536v39.381
		c0,1.953,1.584,3.538,3.537,3.538h38.489c1.957,0,3.541-1.585,3.541-3.538v-39.381
		C482.169,409.711,480.585,408.126,478.628,408.126z M531.718,408.126h-38.49c-1.956,0-3.537,1.585-3.537,3.536v39.381
		c0,1.953,1.581,3.538,3.537,3.538h38.49c1.957,0,3.541-1.585,3.541-3.538v-39.381C535.259,409.711,533.675,408.126,531.718,408.126
		z M584.807,408.126h-38.489c-1.958,0-3.537,1.585-3.537,3.536v39.381c0,1.953,1.579,3.538,3.537,3.538h38.489
		c1.958,0,3.542-1.585,3.542-3.538v-39.381C588.349,409.711,586.765,408.126,584.807,408.126z M637.896,408.126h-38.488
		c-1.958,0-3.539,1.585-3.539,3.536v39.381c0,1.953,1.581,3.538,3.539,3.538h38.488c1.957,0,3.541-1.585,3.541-3.538v-39.381
		C641.437,409.711,639.853,408.126,637.896,408.126z M690.986,408.126h-38.49c-1.957,0-3.541,1.585-3.541,3.536v39.381
		c0,1.953,1.584,3.538,3.541,3.538h38.49c1.957,0,3.537-1.585,3.537-3.538v-39.381C694.523,409.711,692.943,408.126,690.986,408.126
		z M744.075,408.126h-38.489c-1.957,0-3.541,1.585-3.541,3.536v39.381c0,1.953,1.584,3.538,3.541,3.538h38.489
		c1.956,0,3.537-1.585,3.537-3.538v-39.381C747.612,409.711,746.031,408.126,744.075,408.126z M797.162,408.126h-38.487
		c-1.957,0-3.541,1.585-3.541,3.536v39.381c0,1.953,1.584,3.538,3.541,3.538h38.487c1.955,0,3.539-1.585,3.539-3.538v-39.381
		C800.701,409.711,799.117,408.126,797.162,408.126z M850.25,408.126h-38.486c-1.956,0-3.54,1.585-3.54,3.536v39.381
		c0,1.953,1.584,3.538,3.54,3.538h38.486c1.957,0,3.541-1.585,3.541-3.538v-39.381C853.791,409.711,852.207,408.126,850.25,408.126z
		 M903.338,408.126h-38.489c-1.953,0-3.537,1.585-3.537,3.536v39.381c0,1.953,1.584,3.538,3.537,3.538h38.489
		c1.958,0,3.542-1.585,3.542-3.538v-39.381C906.88,409.711,905.296,408.126,903.338,408.126z M956.428,408.126h-38.489
		c-1.957,0-3.537,1.585-3.537,3.536v39.381c0,1.953,1.58,3.538,3.537,3.538h38.489c1.957,0,3.541-1.585,3.541-3.538v-39.381
		C959.969,409.711,958.385,408.126,956.428,408.126z M1009.738,408.126h-38.495c-1.953,0-3.537,1.585-3.537,3.536v39.381
		c0,1.953,1.584,3.538,3.537,3.538h38.495c1.953,0,3.537-1.585,3.537-3.538v-39.381
		C1013.275,409.711,1011.691,408.126,1009.738,408.126z M358.293,514.305h-38.489c-1.953,0-3.537,1.584-3.537,3.537v39.381
		c0,1.952,1.584,3.536,3.537,3.536h38.489c1.957,0,3.541-1.584,3.541-3.536v-39.381C361.834,515.889,360.25,514.305,358.293,514.305
		z M305.208,514.305h-52.646c-1.957,0-3.541,1.584-3.541,3.537v39.381c0,1.952,1.584,3.536,3.541,3.536h52.646
		c1.953,0,3.537-1.584,3.537-3.536v-39.381C308.746,515.889,307.162,514.305,305.208,514.305z M411.382,514.305h-38.49
		c-1.952,0-3.536,1.584-3.536,3.537v39.381c0,1.952,1.584,3.536,3.536,3.536h38.49c1.957,0,3.541-1.584,3.541-3.536v-39.381
		C414.923,515.889,413.339,514.305,411.382,514.305z M464.472,514.305h-38.49c-1.955,0-3.537,1.584-3.537,3.537v39.381
		c0,1.952,1.582,3.536,3.537,3.536h38.49c1.957,0,3.541-1.584,3.541-3.536v-39.381C468.013,515.889,466.429,514.305,464.472,514.305
		z M355.199,570.931v43.324c0,1.952,1.584,3.536,3.537,3.536h38.49c1.957,0,3.541-1.584,3.541-3.536v-43.324
		c0-1.953-1.584-3.537-3.541-3.537h-38.49C356.783,567.394,355.199,568.978,355.199,570.931z M408.289,570.931v43.324
		c0,1.952,1.58,3.536,3.537,3.536h52.646c1.957,0,3.541-1.584,3.541-3.536v-43.324c0-1.953-1.584-3.537-3.541-3.537h-52.646
		C409.869,567.394,408.289,568.978,408.289,570.931z M302.111,570.931v43.324c0,1.952,1.584,3.536,3.536,3.536h38.489
		c1.957,0,3.541-1.584,3.541-3.536v-43.324c0-1.953-1.584-3.537-3.541-3.537h-38.489
		C303.695,567.394,302.111,568.978,302.111,570.931z M860.869,567.394h-38.489c-1.957,0-3.54,1.584-3.54,3.537v43.324
		c0,1.952,1.583,3.536,3.54,3.536h38.489c1.957,0,3.537-1.584,3.537-3.536v-43.324C864.406,568.978,862.826,567.394,860.869,567.394
		z M807.78,567.394h-52.646c-1.958,0-3.54,1.584-3.54,3.537v43.324c0,1.952,1.582,3.536,3.54,3.536h52.646
		c1.957,0,3.541-1.584,3.541-3.536v-43.324C811.321,568.978,809.737,567.394,807.78,567.394z M475.535,570.931v43.324
		c0,1.952,1.58,3.536,3.537,3.536h261.463c1.956,0,3.54-1.584,3.54-3.536v-43.324c0-1.953-1.584-3.537-3.54-3.537H479.072
		C477.115,567.394,475.535,568.978,475.535,570.931z M249.021,570.931v43.324c0,1.952,1.584,3.536,3.541,3.536h38.486
		c1.956,0,3.54-1.584,3.54-3.536v-43.324c0-1.953-1.584-3.537-3.54-3.537h-38.486C250.605,567.394,249.021,568.978,249.021,570.931z
		 M517.561,514.305h-38.489c-1.957,0-3.537,1.584-3.537,3.537v39.381c0,1.952,1.58,3.536,3.537,3.536h38.489
		c1.958,0,3.542-1.584,3.542-3.536v-39.381C521.103,515.889,519.519,514.305,517.561,514.305z M570.65,514.305h-38.489
		c-1.957,0-3.54,1.584-3.54,3.537v39.381c0,1.952,1.583,3.536,3.54,3.536h38.489c1.957,0,3.541-1.584,3.541-3.536v-39.381
		C574.191,515.889,572.607,514.305,570.65,514.305z M623.74,514.305h-38.49c-1.957,0-3.541,1.584-3.541,3.537v39.381
		c0,1.952,1.584,3.536,3.541,3.536h38.49c1.957,0,3.537-1.584,3.537-3.536v-39.381C627.277,515.889,625.697,514.305,623.74,514.305z
		 M676.83,514.305h-38.49c-1.957,0-3.541,1.584-3.541,3.537v39.381c0,1.952,1.584,3.536,3.541,3.536h38.49
		c1.957,0,3.536-1.584,3.536-3.536v-39.381C680.366,515.889,678.787,514.305,676.83,514.305z M729.918,514.305h-38.489
		c-1.957,0-3.541,1.584-3.541,3.537v39.381c0,1.952,1.584,3.536,3.541,3.536h38.489c1.952,0,3.536-1.584,3.536-3.536v-39.381
		C733.455,515.889,731.871,514.305,729.918,514.305z M783.003,514.305h-38.486c-1.956,0-3.541,1.584-3.541,3.537v39.381
		c0,1.952,1.585,3.536,3.541,3.536h38.486c1.957,0,3.541-1.584,3.541-3.536v-39.381C786.544,515.889,784.96,514.305,783.003,514.305
		z M836.093,514.305h-38.49c-1.953,0-3.537,1.584-3.537,3.537v39.381c0,1.952,1.584,3.536,3.537,3.536h38.49
		c1.957,0,3.541-1.584,3.541-3.536v-39.381C839.634,515.889,838.05,514.305,836.093,514.305z M889.181,514.305h-38.488
		c-1.957,0-3.537,1.584-3.537,3.537v39.381c0,1.952,1.58,3.536,3.537,3.536h38.488c1.958,0,3.542-1.584,3.542-3.536v-39.381
		C892.723,515.889,891.139,514.305,889.181,514.305z M1009.518,514.305H903.782c-1.958,0-3.537,1.584-3.537,3.537v39.381
		c0,1.952,1.579,3.536,3.537,3.536h105.736c1.957,0,3.541-1.584,3.541-3.536v-39.381
		C1013.059,515.889,1011.475,514.305,1009.518,514.305z M383.069,461.216H344.58c-1.957,0-3.537,1.584-3.537,3.536v39.375
		c0,1.959,1.58,3.543,3.537,3.543h38.489c1.958,0,3.542-1.584,3.542-3.543v-39.375C386.611,462.8,385.027,461.216,383.069,461.216z
		 M329.98,461.216h-77.418c-1.957,0-3.541,1.584-3.541,3.536v39.375c0,1.959,1.584,3.543,3.541,3.543h77.418
		c1.957,0,3.541-1.584,3.541-3.543v-39.375C333.521,462.8,331.937,461.216,329.98,461.216z M436.159,461.216h-38.489
		c-1.958,0-3.537,1.584-3.537,3.536v39.375c0,1.959,1.579,3.543,3.537,3.543h38.489c1.958,0,3.542-1.584,3.542-3.543v-39.375
		C439.701,462.8,438.117,461.216,436.159,461.216z M489.248,461.216h-38.488c-1.958,0-3.542,1.584-3.542,3.536v39.375
		c0,1.959,1.584,3.543,3.542,3.543h38.488c1.957,0,3.537-1.584,3.537-3.543v-39.375C492.785,462.8,491.205,461.216,489.248,461.216z
		 M542.337,461.216h-38.49c-1.957,0-3.541,1.584-3.541,3.536v39.375c0,1.959,1.584,3.543,3.541,3.543h38.49
		c1.957,0,3.537-1.584,3.537-3.543v-39.375C545.875,462.8,544.294,461.216,542.337,461.216z M595.427,461.216h-38.49
		c-1.957,0-3.541,1.584-3.541,3.536v39.375c0,1.959,1.584,3.543,3.541,3.543h38.49c1.953,0,3.537-1.584,3.537-3.543v-39.375
		C598.964,462.8,597.38,461.216,595.427,461.216z M648.511,461.216h-38.484c-1.958,0-3.542,1.584-3.542,3.536v39.375
		c0,1.959,1.584,3.543,3.542,3.543h38.484c1.957,0,3.542-1.584,3.542-3.543v-39.375C652.053,462.8,650.468,461.216,648.511,461.216z
		 M701.601,461.216h-38.489c-1.954,0-3.538,1.584-3.538,3.536v39.375c0,1.959,1.584,3.543,3.538,3.543h38.489
		c1.957,0,3.541-1.584,3.541-3.543v-39.375C705.142,462.8,703.558,461.216,701.601,461.216z M754.691,461.216h-38.49
		c-1.957,0-3.537,1.584-3.537,3.536v39.375c0,1.959,1.58,3.543,3.537,3.543h38.49c1.956,0,3.541-1.584,3.541-3.543v-39.375
		C758.232,462.8,756.647,461.216,754.691,461.216z M807.78,461.216h-38.49c-1.956,0-3.536,1.584-3.536,3.536v39.375
		c0,1.959,1.58,3.543,3.536,3.543h38.49c1.957,0,3.541-1.584,3.541-3.543v-39.375C811.321,462.8,809.737,461.216,807.78,461.216z
		 M860.869,461.216h-38.489c-1.957,0-3.54,1.584-3.54,3.536v39.375c0,1.959,1.583,3.543,3.54,3.543h38.489
		c1.957,0,3.537-1.584,3.537-3.543v-39.375C864.406,462.8,862.826,461.216,860.869,461.216z M913.958,461.216h-38.49
		c-1.957,0-3.541,1.584-3.541,3.536v39.375c0,1.959,1.584,3.543,3.541,3.543h38.49c1.957,0,3.537-1.584,3.537-3.543v-39.375
		C917.496,462.8,915.916,461.216,913.958,461.216z M1010.484,461.216h-81.926c-1.957,0-3.541,1.584-3.541,3.536v39.375
		c0,1.959,1.584,3.543,3.541,3.543h81.926c1.953,0,3.537-1.584,3.537-3.543v-39.375
		C1014.021,462.8,1012.438,461.216,1010.484,461.216z M1009.518,355.037h-66.803c-1.957,0-3.541,1.584-3.541,3.538v39.379
		c0,1.953,1.584,3.537,3.541,3.537h66.803c1.957,0,3.541-1.584,3.541-3.537v-39.379
		C1013.059,356.621,1011.475,355.037,1009.518,355.037z M914.402,323.188v21.677c0,1.954,1.58,3.538,3.537,3.538h38.489
		c1.957,0,3.541-1.584,3.541-3.538v-21.677c0-1.96-1.584-3.541-3.541-3.541h-38.489
		C915.982,319.646,914.402,321.228,914.402,323.188z M967.49,596.119v18.136c0,1.952,1.58,3.536,3.538,3.536h38.49
		c1.957,0,3.541-1.584,3.541-3.536v-18.136c0-1.96-1.584-3.544-3.541-3.544h-38.49C969.07,592.575,967.49,594.159,967.49,596.119z
		 M917.939,596.119v18.136c0,1.952,1.584,3.536,3.541,3.536h38.489c1.958,0,3.537-1.584,3.537-3.536v-18.136
		c0-1.96-1.579-3.544-3.537-3.544H921.48C919.523,592.575,917.939,594.159,917.939,596.119z M917.939,571.341v18.138
		c0,1.961,1.584,3.545,3.541,3.545h38.489c1.958,0,3.537-1.584,3.537-3.545v-18.138c0-1.957-1.579-3.538-3.537-3.538H921.48
		C919.523,567.803,917.939,569.384,917.939,571.341z M868.39,596.119v18.136c0,1.952,1.584,3.536,3.537,3.536h38.489
		c1.958,0,3.542-1.584,3.542-3.536v-18.136c0-1.96-1.584-3.544-3.542-3.544h-38.489C869.974,592.575,868.39,594.159,868.39,596.119z
		 M861.312,323.188v21.677c0,1.954,1.584,3.538,3.537,3.538h38.489c1.958,0,3.542-1.584,3.542-3.538v-21.677
		c0-1.96-1.584-3.541-3.542-3.541h-38.489C862.896,319.646,861.312,321.228,861.312,323.188z M808.223,323.188v21.677
		c0,1.954,1.584,3.538,3.54,3.538h38.486c1.957,0,3.541-1.584,3.541-3.538v-21.677c0-1.96-1.584-3.541-3.541-3.541h-38.486
		C809.807,319.646,808.223,321.228,808.223,323.188z M755.133,323.188v21.677c0,1.954,1.584,3.538,3.541,3.538h38.487
		c1.955,0,3.539-1.584,3.539-3.538v-21.677c0-1.96-1.584-3.541-3.539-3.541h-38.487
		C756.717,319.646,755.133,321.228,755.133,323.188z M702.044,323.188v21.677c0,1.954,1.584,3.538,3.541,3.538h38.489
		c1.956,0,3.537-1.584,3.537-3.538v-21.677c0-1.96-1.581-3.541-3.537-3.541h-38.489
		C703.628,319.646,702.044,321.228,702.044,323.188z M645.417,323.188v21.677c0,1.954,1.582,3.538,3.537,3.538h42.031
		c1.957,0,3.537-1.584,3.537-3.538v-21.677c0-1.96-1.58-3.541-3.537-3.541h-42.031C647,319.646,645.417,321.228,645.417,323.188z
		 M588.787,323.188v21.677c0,1.954,1.584,3.538,3.542,3.538h42.026c1.957,0,3.541-1.584,3.541-3.538v-21.677
		c0-1.96-1.584-3.541-3.541-3.541h-42.026C590.371,319.646,588.787,321.228,588.787,323.188z M532.161,323.188v21.677
		c0,1.954,1.585,3.538,3.54,3.538h42.027c1.958,0,3.537-1.584,3.537-3.538v-21.677c0-1.96-1.579-3.541-3.537-3.541h-42.027
		C533.746,319.646,532.161,321.228,532.161,323.188z M475.535,323.188v21.677c0,1.954,1.58,3.538,3.537,3.538h42.031
		c1.952,0,3.536-1.584,3.536-3.538v-21.677c0-1.96-1.584-3.541-3.536-3.541h-42.031
		C477.115,319.646,475.535,321.228,475.535,323.188z M418.904,323.188v21.677c0,1.954,1.584,3.538,3.541,3.538h42.027
		c1.957,0,3.541-1.584,3.541-3.538v-21.677c0-1.96-1.584-3.541-3.541-3.541h-42.027
		C420.488,319.646,418.904,321.228,418.904,323.188z M362.277,323.188v21.677c0,1.954,1.584,3.538,3.537,3.538h42.031
		c1.957,0,3.537-1.584,3.537-3.538v-21.677c0-1.96-1.58-3.541-3.537-3.541h-42.031C363.861,319.646,362.277,321.228,362.277,323.188
		z M305.647,323.188v21.677c0,1.954,1.584,3.538,3.542,3.538h42.025c1.957,0,3.541-1.584,3.541-3.538v-21.677
		c0-1.96-1.584-3.541-3.541-3.541h-42.025C307.231,319.646,305.647,321.228,305.647,323.188z M249.021,323.188v21.677
		c0,1.954,1.584,3.538,3.541,3.538h42.026c1.958,0,3.54-1.584,3.54-3.538v-21.677c0-1.96-1.582-3.541-3.54-3.541h-42.026
		C250.605,319.646,249.021,321.228,249.021,323.188z"/>
	<g id="Background_25_">
		<path fill="#333333" d="M1051.307,263.701c10.627,0,19.273,8.647,19.273,19.275v574.196c0,10.629-8.646,19.275-19.273,19.275
			h-843.53c-10.629,0-19.275-8.646-19.275-19.275V282.977c0-10.628,8.646-19.275,19.275-19.275H1051.307 M1051.307,259.701h-843.53
			c-12.854,0-23.275,10.42-23.275,23.275v574.196c0,12.854,10.421,23.275,23.275,23.275h843.53
			c12.854,0,23.273-10.422,23.273-23.275V282.977C1074.58,270.121,1064.16,259.701,1051.307,259.701L1051.307,259.701z"/>
	</g>
	<rect id="Display_Bottom" x="306.501" y="239.603" fill="#333333" width="648" height="41"/>
	<g id="Display_Background_1_">
		<path fill="#D6D6D6" d="M226.594,262.448c-26.942,0-31.592-4.478-37.492-12.393c-6.654-8.926-152.98-205.43-155.861-209.298
			c-3.525-5.305-3.437-8.342-3.312-12.542c0.023-0.796,0.047-1.614,0.047-2.474c0-2.75,10.52-6.908,26.375-6.908h1145.626
			c15.854,0,26.373,4.158,26.373,6.908c0,0.859,0.023,1.679,0.047,2.476c0.125,4.198,0.213,7.235-3.312,12.539
			c-2.863,3.845-149.205,200.372-155.861,209.299c-5.898,7.915-10.549,12.393-37.492,12.393H226.594z"/>
		<path fill="#333333" d="M1201.977,20.834c13.859,0,23.061,3.287,24.375,5.145c0.004,0.809,0.025,1.564,0.047,2.298
			c0.117,3.96,0.193,6.584-2.951,11.331c-3.814,5.123-149.195,200.357-155.828,209.253c-5.674,7.614-9.85,11.588-35.889,11.588
			H226.594c-26.038,0-30.212-3.974-35.889-11.588c-6.632-8.896-152.03-204.153-155.828-209.254
			c-3.144-4.747-3.066-7.371-2.95-11.332c0.021-0.732,0.043-1.488,0.047-2.296c1.313-1.857,10.515-5.145,24.376-5.145H1201.977
			 M1201.977,16.834H56.35c-13.857,0-28.375,3.464-28.375,8.908c0,5.443-0.989,9.238,3.63,16.167
			c0,0,149.13,200.269,155.894,209.342s12.537,13.197,39.096,13.197h805.136c26.561,0,32.334-4.124,39.096-13.197
			c6.766-9.073,155.895-209.342,155.895-209.342c4.619-6.929,3.629-10.724,3.629-16.167
			C1230.35,20.298,1215.832,16.834,1201.977,16.834L1201.977,16.834z"/>
	</g>
	<g id="Display_Border_1_">
		<path fill="#111111" d="M1201.977,25.834H56.35c-13.006,0-26.593,3.051-28.213,7.928c0.382,2.357,1.309,4.908,3.468,8.147
			c0,0,149.13,200.269,155.894,209.342s12.537,13.197,39.096,13.197h805.136c26.561,0,32.334-4.124,39.096-13.197
			c6.766-9.073,155.895-209.342,155.895-209.342c2.158-3.238,3.086-5.789,3.467-8.146
			C1228.568,28.886,1214.982,25.834,1201.977,25.834z"/>
	</g>
	<g id="Border_21_">
		<path fill="#333333" d="M1201.977,20.834c13.859,0,23.061,3.287,24.375,5.145c0.004,0.809,0.025,1.564,0.047,2.298
			c0.117,3.96,0.193,6.584-2.951,11.331c-3.814,5.123-149.195,200.357-155.828,209.253c-5.674,7.614-9.85,11.588-35.889,11.588
			H226.594c-26.038,0-30.212-3.974-35.889-11.588c-6.632-8.896-152.03-204.153-155.828-209.254
			c-3.144-4.747-3.066-7.371-2.95-11.332c0.021-0.732,0.043-1.488,0.047-2.296c1.313-1.857,10.515-5.145,24.376-5.145H1201.977
			 M1201.977,16.834H56.35c-13.857,0-28.375,3.464-28.375,8.908c0,5.443-0.989,9.238,3.63,16.167
			c0,0,149.13,200.269,155.894,209.342s12.537,13.197,39.096,13.197h805.136c26.561,0,32.334-4.124,39.096-13.197
			c6.766-9.073,155.895-209.342,155.895-209.342c4.619-6.929,3.629-10.724,3.629-16.167
			C1230.35,20.298,1215.832,16.834,1201.977,16.834L1201.977,16.834z"/>
	</g>
	<polygon id="Display_4_" fill="#333333" points="88.886,59.448 1166.887,59.448 1043.477,239.928 213.759,239.928 	"/>
</g>
<g id="iMac_1_">
</g>
<g id="Wallet_2_">
</g>
<g id="iPhone_6_Grey">
</g>
<g id="iPhone_6_Silver_1_">
</g>
<g id="iPhone_6_Gold_1_">
</g>
<g id="Wallet_1_">
</g>
<g id="Bills">
</g>
<g id="Coins_1_">
</g>
<g id="Passport_Red_1_">
</g>
<g id="Passport_Blue_1_">
</g>
<g id="Credit_Card_Red">
</g>
<g id="Credit_Card_Blue">
</g>
<g id="Aeroplane_1_">
</g>
<g id="Magic_Mouse_1_">
</g>
<g id="Keyboard">
</g>
<g id="Ruler_1_">
</g>
<g id="Charger_1_">
</g>
<g id="Macbook_13_x22_">
</g>
<g id="Brushes">
</g>
<g id="Pencils">
</g>
<g id="Can">
</g>
<g id="Coffee">
</g>
<g id="Stylus">
</g>
<g id="Wacom_1_">
</g>
<g id="Paperclips_1_">
</g>
<g id="Earbuds_1_">
</g>
<g id="Glasses">
</g>
<g id="Sunglasses">
</g>
<g id="Case_1_">
</g>
<g id="Donut_1_">
</g>
</svg>
