<?xml version="1.0" encoding="utf-8"?>
<!-- Generator: Adobe Illustrator 16.0.0, SVG Export Plug-In . SVG Version: 6.00 Build 0)  -->
<!DOCTYPE svg PUBLIC "-//W3C//DTD SVG 1.1//EN" "http://www.w3.org/Graphics/SVG/1.1/DTD/svg11.dtd">
<svg version="1.1" xmlns="http://www.w3.org/2000/svg" xmlns:xlink="http://www.w3.org/1999/xlink" x="0px" y="0px" width="950px"
	 height="700px" viewBox="0 0 950 700" enable-background="new 0 0 950 700" xml:space="preserve">
<g id="Camera_Standing">
</g>
<g id="Camera_Lying">
</g>
<g id="Colours_1_">
</g>
<g id="Aquarell_1_">
</g>
<g id="Envelope_big_1_">
</g>
<g id="Envelope_small_1_">
</g>
<g id="Airmail_1_">
</g>
<g id="Highlighters_Closed_1_">
</g>
<g id="Highlighters_Open_1_">
</g>
<g id="USB_Stick_1_">
</g>
<g id="Pencil_Small">
</g>
<g id="Pencil_Large">
</g>
<g id="Brush_3_">
</g>
<g id="Notepad_1_">
</g>
<g id="Moleskine_Large_Open">
</g>
<g id="Moleskine_Small_Open_1_">
</g>
<g id="Moleskine_Large">
</g>
<g id="Moleskine_Small_1_">
</g>
<g id="iPad_Mini">
</g>
<g id="MacBook_13_x22_">
</g>
<g id="iMac_1_">
</g>
<g id="Wallet_2_">
</g>
<g id="iPhone_6_Grey">
</g>
<g id="iPhone_6_Silver_1_">
</g>
<g id="iPhone_6_Gold_1_">
</g>
<g id="Wallet_1_">
</g>
<g id="Bills">
</g>
<g id="Coins_1_">
</g>
<g id="Passport_Red_1_">
</g>
<g id="Passport_Blue_1_">
</g>
<g id="Credit_Card_Red">
</g>
<g id="Credit_Card_Blue">
</g>
<g id="Aeroplane_1_">
</g>
<g id="Magic_Mouse_1_">
</g>
<g id="Keyboard">
</g>
<g id="Ruler_1_">
</g>
<g id="Charger_1_">
</g>
<g id="Macbook_13_x22_">
	<g id="Background_3_">
		<path fill="#D6D6D6" d="M53.969,656.846c-11.731,0-21.275-9.544-21.275-21.275V61.374c0-11.731,9.544-21.275,21.275-21.275
			h843.529c11.73,0,21.274,9.544,21.274,21.275V635.57c0,11.731-9.544,21.275-21.274,21.275H53.969z"/>
		<path fill="#333333" d="M897.498,42.099c10.628,0,19.274,8.647,19.274,19.275V635.57c0,10.629-8.646,19.275-19.274,19.275H53.969
			c-10.628,0-19.275-8.646-19.275-19.275V61.374c0-10.628,8.646-19.275,19.275-19.275H897.498 M897.498,38.099H53.969
			c-12.854,0-23.275,10.42-23.275,23.275V635.57c0,12.854,10.42,23.275,23.275,23.275h843.529c12.854,0,23.274-10.422,23.274-23.275
			V61.374C920.772,48.519,910.353,38.099,897.498,38.099L897.498,38.099z"/>
	</g>
	<path id="Light_3_" fill="#E2E2E2" d="M902.437,616.351c0,11.875-7.313,19.188-19.188,19.188H68.219
		c-11.876,0-19.189-7.313-19.189-19.188V80.594c0-11.876,7.312-19.188,19.189-19.188h815.029c11.875,0,19.188,7.312,19.188,19.188
		V616.351z"/>
	<path id="Logo" fill-rule="evenodd" clip-rule="evenodd" fill="#FFFFFF" d="M522.085,318.182
		c-5.935-7.411-14.262-11.694-22.119-11.694c-10.4,0-14.794,4.947-22.006,4.947c-7.437,0-13.09-4.939-22.084-4.939
		c-8.833,0-18.224,5.372-24.181,14.555c-8.377,12.917-6.958,37.22,6.629,57.929c4.857,7.403,11.346,15.732,19.831,15.808
		c7.541,0.072,9.678-4.816,19.912-4.874c10.23-0.057,12.166,4.927,19.708,4.855c8.485-0.076,15.331-9.301,20.19-16.705
		c3.482-5.304,4.776-7.981,7.48-13.982C505.8,356.647,502.643,328.846,522.085,318.182z M492.076,298.214
		c3.776-4.857,6.648-11.71,5.607-18.716c-6.171,0.423-13.39,4.356-17.603,9.48c-3.827,4.652-6.984,11.553-5.753,18.258
		C481.06,307.445,488.031,303.414,492.076,298.214z"/>
</g>
<g id="Brushes">
</g>
<g id="Pencils">
</g>
<g id="Can">
</g>
<g id="Coffee">
</g>
<g id="Stylus">
</g>
<g id="Wacom_1_">
</g>
<g id="Paperclips_1_">
</g>
<g id="Earbuds_1_">
</g>
<g id="Glasses">
</g>
<g id="Sunglasses">
</g>
<g id="Case_1_">
</g>
<g id="Donut_1_">
</g>
</svg>
