<?xml version="1.0" encoding="utf-8"?>
<!-- Generator: Adobe Illustrator 16.0.0, SVG Export Plug-In . SVG Version: 6.00 Build 0)  -->
<!DOCTYPE svg PUBLIC "-//W3C//DTD SVG 1.1//EN" "http://www.w3.org/Graphics/SVG/1.1/DTD/svg11.dtd">
<svg version="1.1" xmlns="http://www.w3.org/2000/svg" xmlns:xlink="http://www.w3.org/1999/xlink" x="0px" y="0px" width="300px"
	 height="460px" viewBox="0 0 300 460" enable-background="new 0 0 300 460" xml:space="preserve">
<g id="Camera_Standing">
</g>
<g id="Camera_Lying">
</g>
<g id="Colours_1_">
</g>
<g id="Aquarell_1_">
</g>
<g id="Envelope_big_1_">
</g>
<g id="Envelope_small_1_">
</g>
<g id="Airmail_1_">
</g>
<g id="Highlighters_Closed_1_">
</g>
<g id="Highlighters_Open_1_">
</g>
<g id="USB_Stick_1_">
</g>
<g id="Pencil_Small">
</g>
<g id="Pencil_Large">
</g>
<g id="Brush_3_">
</g>
<g id="Notepad_1_">
</g>
<g id="Moleskine_Large_Open">
</g>
<g id="Moleskine_Small_Open_1_">
</g>
<g id="Moleskine_Large">
</g>
<g id="Moleskine_Small_1_">
	<g id="Marker">
		<polygon fill="#BB4D67" points="49.33,421.479 67.997,421.479 67.997,436.023 58.663,430.771 49.33,436.024 		"/>
		<path fill="#333333" d="M65.997,423.479v9.124l-7.334-4.127l-7.333,4.127v-9.124H65.997 M69.997,419.479h-4H51.33h-4v4v9.124
			v6.841l5.962-3.354l5.371-3.023l5.372,3.023l5.962,3.354v-6.841v-9.124V419.479L69.997,419.479z"/>
	</g>
	<path id="Background_28_" fill="#616263" stroke="#333333" stroke-width="4" stroke-miterlimit="10" d="M254.677,26.629H123.731
		H37.905H23.731v14.174v368.503v14.174h14.174h85.826h130.945c14.984,0,24.173-8.503,24.173-24.174V50.803
		C278.85,36.477,268.161,26.629,254.677,26.629z"/>
	
		<rect id="Label" x="21.731" y="194.596" fill="#F77F5B" stroke="#333333" stroke-width="4" stroke-miterlimit="10" width="259.913" height="137.619"/>
	<g id="Lash_1_">
		<path fill="#333333" d="M234.435,426.477c-0.306-0.042-0.982-0.408-1.802-1.001l0.967-0.001V24.602h-1.746
			c1.049-1.231,2.165-2.433,2.785-2.758h11.188c0.46,0,0.835,0.375,0.835,0.835v402.963c0,0.46-0.375,0.835-0.835,0.835H234.435z"/>
		<path fill="#111111" d="M244.661,23.844v400.633H235.6v-1V26.602v-2.758H244.661 M245.826,19.844h-11.392
			c-1.565,0-5.125,4.683-6.773,6.758h3.938v396.875l-3.938,0.003c1.895,2.401,5.208,4.997,6.773,4.997h11.392
			c1.565,0,2.835-1.27,2.835-2.835V22.679C248.661,21.113,247.392,19.844,245.826,19.844L245.826,19.844z"/>
	</g>
</g>
<g id="iPad_Mini">
</g>
<g id="MacBook_13_x22_">
</g>
<g id="iMac_1_">
</g>
<g id="Wallet_2_">
</g>
<g id="iPhone_6_Grey">
</g>
<g id="iPhone_6_Silver_1_">
</g>
<g id="iPhone_6_Gold_1_">
</g>
<g id="Wallet_1_">
</g>
<g id="Bills">
</g>
<g id="Coins_1_">
</g>
<g id="Passport_Red_1_">
</g>
<g id="Passport_Blue_1_">
</g>
<g id="Credit_Card_Red">
</g>
<g id="Credit_Card_Blue">
</g>
<g id="Aeroplane_1_">
</g>
<g id="Magic_Mouse_1_">
</g>
<g id="Keyboard">
</g>
<g id="Ruler_1_">
</g>
<g id="Charger_1_">
</g>
<g id="Macbook_13_x22_">
</g>
<g id="Brushes">
</g>
<g id="Pencils">
</g>
<g id="Can">
</g>
<g id="Coffee">
</g>
<g id="Stylus">
</g>
<g id="Wacom_1_">
</g>
<g id="Paperclips_1_">
</g>
<g id="Earbuds_1_">
</g>
<g id="Glasses">
</g>
<g id="Sunglasses">
</g>
<g id="Case_1_">
</g>
<g id="Donut_1_">
</g>
</svg>
