<?xml version="1.0" encoding="utf-8"?>
<!-- Generator: Adobe Illustrator 16.0.0, SVG Export Plug-In . SVG Version: 6.00 Build 0)  -->
<!DOCTYPE svg PUBLIC "-//W3C//DTD SVG 1.1//EN" "http://www.w3.org/Graphics/SVG/1.1/DTD/svg11.dtd">
<svg version="1.1" xmlns="http://www.w3.org/2000/svg" xmlns:xlink="http://www.w3.org/1999/xlink" x="0px" y="0px" width="420px"
	 height="660px" viewBox="0 0 420 660" enable-background="new 0 0 420 660" xml:space="preserve">
<g id="Camera_Standing">
</g>
<g id="Camera_Lying">
</g>
<g id="Colours_1_">
</g>
<g id="Aquarell_1_">
</g>
<g id="Envelope_big_1_">
</g>
<g id="Envelope_small_1_">
</g>
<g id="Airmail_1_">
</g>
<g id="Highlighters_Closed_1_">
</g>
<g id="Highlighters_Open_1_">
</g>
<g id="USB_Stick_1_">
</g>
<g id="Pencil_Small">
</g>
<g id="Pencil_Large">
</g>
<g id="Brush_3_">
</g>
<g id="Notepad_1_">
</g>
<g id="Moleskine_Large_Open">
</g>
<g id="Moleskine_Small_Open_1_">
</g>
<g id="Moleskine_Large">
	<g id="Marker_1_">
		<polygon fill="#BB4D67" points="54.053,618.82 72.72,618.82 72.72,633.364 63.386,628.112 54.053,633.365 		"/>
		<path fill="#333333" d="M70.72,620.82v9.124l-7.334-4.127l-7.333,4.127v-9.124H70.72 M74.72,616.82h-4H56.053h-4v4v9.124v6.841
			l5.962-3.355l5.371-3.022l5.372,3.023l5.962,3.354v-6.841v-9.124V616.82L74.72,616.82z"/>
	</g>
	<path id="Background_29_" fill="#616263" stroke="#333333" stroke-width="4" stroke-miterlimit="10" d="M369.399,26.97H128.454
		H42.628H28.454v14.174v565.503v14.174h14.174h85.826h240.945c14.984,0,24.173-8.503,24.173-24.174V51.144
		C393.572,36.817,382.884,26.97,369.399,26.97z"/>
	
		<rect id="Label_1_" x="26.454" y="391.937" fill="#58B6B4" stroke="#333333" stroke-width="4" stroke-miterlimit="10" width="369.913" height="137.619"/>
	<g id="Lash_2_">
		<path fill="#333333" d="M349.157,623.817c-0.306-0.042-0.982-0.408-1.801-1.001l0.966-0.001V21.942h-1.746
			c1.049-1.23,2.165-2.433,2.785-2.758h11.188c0.46,0,0.835,0.375,0.835,0.835v602.963c0,0.46-0.375,0.835-0.835,0.835H349.157z"/>
		<path fill="#111111" d="M359.384,21.185v600.633h-9.062v-1V23.942v-2.758H359.384 M360.549,17.185h-11.392
			c-1.565,0-5.125,4.683-6.773,6.758h3.938v596.875l-3.938,0.003c1.895,2.401,5.208,4.997,6.773,4.997h11.392
			c1.565,0,2.835-1.27,2.835-2.835V20.02C363.384,18.454,362.114,17.185,360.549,17.185L360.549,17.185z"/>
	</g>
</g>
<g id="Moleskine_Small_1_">
</g>
<g id="iPad_Mini">
</g>
<g id="MacBook_13_x22_">
</g>
<g id="iMac_1_">
</g>
<g id="Wallet_2_">
</g>
<g id="iPhone_6_Grey">
</g>
<g id="iPhone_6_Silver_1_">
</g>
<g id="iPhone_6_Gold_1_">
</g>
<g id="Wallet_1_">
</g>
<g id="Bills">
</g>
<g id="Coins_1_">
</g>
<g id="Passport_Red_1_">
</g>
<g id="Passport_Blue_1_">
</g>
<g id="Credit_Card_Red">
</g>
<g id="Credit_Card_Blue">
</g>
<g id="Aeroplane_1_">
</g>
<g id="Magic_Mouse_1_">
</g>
<g id="Keyboard">
</g>
<g id="Ruler_1_">
</g>
<g id="Charger_1_">
</g>
<g id="Macbook_13_x22_">
</g>
<g id="Brushes">
</g>
<g id="Pencils">
</g>
<g id="Can">
</g>
<g id="Coffee">
</g>
<g id="Stylus">
</g>
<g id="Wacom_1_">
</g>
<g id="Paperclips_1_">
</g>
<g id="Earbuds_1_">
</g>
<g id="Glasses">
</g>
<g id="Sunglasses">
</g>
<g id="Case_1_">
</g>
<g id="Donut_1_">
</g>
</svg>
