<?xml version="1.0" encoding="utf-8"?>
<!-- Generator: Adobe Illustrator 16.0.0, SVG Export Plug-In . SVG Version: 6.00 Build 0)  -->
<!DOCTYPE svg PUBLIC "-//W3C//DTD SVG 1.1//EN" "http://www.w3.org/Graphics/SVG/1.1/DTD/svg11.dtd">
<svg version="1.1" xmlns="http://www.w3.org/2000/svg" xmlns:xlink="http://www.w3.org/1999/xlink" x="0px" y="0px" width="560px"
	 height="460px" viewBox="0 0 560 460" enable-background="new 0 0 560 460" xml:space="preserve">
<g id="Camera_Standing">
</g>
<g id="Camera_Lying">
</g>
<g id="Colours_1_">
</g>
<g id="Aquarell_1_">
</g>
<g id="Envelope_big_1_">
</g>
<g id="Envelope_small_1_">
</g>
<g id="Airmail_1_">
</g>
<g id="Highlighters_Closed_1_">
</g>
<g id="Highlighters_Open_1_">
</g>
<g id="USB_Stick_1_">
</g>
<g id="Pencil_Small">
</g>
<g id="Pencil_Large">
</g>
<g id="Brush_3_">
</g>
<g id="Notepad_1_">
</g>
<g id="Moleskine_Large_Open">
</g>
<g id="Moleskine_Small_Open_1_">
	<path id="Background_30_" fill="#616263" stroke="#333333" stroke-width="4" stroke-miterlimit="10" d="M508.834,26.629H377.889
		h-85.826h-14.019h-0.155H263.87h-85.826H47.099c-13.484,0-24.173,9.848-24.173,24.174v348.503c0,15.671,9.188,24.174,24.173,24.174
		h130.945h85.826h14.019h0.155h14.019h85.826h130.945c14.984,0,24.173-8.503,24.173-24.174V50.803
		C533.007,36.477,522.318,26.629,508.834,26.629z"/>
	<path id="Label_2_" fill="#F77F5B" stroke="#333333" stroke-width="4" stroke-miterlimit="10" d="M17.889,332.215h8.037V194.596
		h-8.037V332.215z M528.988,194.596v137.619h8.037V194.596H528.988z"/>
	<g id="Paper">
		<path fill="#FFFFFF" d="M53.147,417.636c-15.793,0-25.222-9.429-25.222-25.222V57.631c0-14.379,10.843-25.223,25.222-25.223
			h449.558c14.378,0,25.221,10.844,25.221,25.223v334.783c0,15.793-9.429,25.222-25.221,25.222H53.147z"/>
		<path fill="#333333" d="M502.705,34.408c12.954,0,23.221,9.461,23.221,23.223v334.783c0,15.054-8.828,23.222-23.221,23.222
			H373.914h-82.447H278h-0.148h-13.467h-82.447H53.147c-14.394,0-23.222-8.168-23.222-23.222V57.631
			c0-13.762,10.268-23.223,23.222-23.223h128.79h191.977H502.705 M502.705,30.408H373.914H181.938H53.147
			c-15.519,0-27.222,11.703-27.222,27.223v334.783c0,8.408,2.564,15.363,7.414,20.113c4.748,4.65,11.598,7.108,19.808,7.108h128.79
			h82.447h13.467H278h13.467h82.447h128.791c8.21,0,15.059-2.458,19.807-7.108c4.851-4.75,7.414-11.705,7.414-20.113V57.631
			C529.926,42.111,518.224,30.408,502.705,30.408L502.705,30.408z"/>
	</g>
	<g id="Lines">
		
			<line id="Line_11_" fill="none" stroke="#E2E2E2" stroke-width="2" stroke-miterlimit="10" x1="29.926" y1="64.209" x2="525.926" y2="64.209"/>
		
			<line id="Line_10_" fill="none" stroke="#E2E2E2" stroke-width="2" stroke-miterlimit="10" x1="29.926" y1="94.209" x2="525.926" y2="94.209"/>
		
			<line id="Line_9_" fill="none" stroke="#E2E2E2" stroke-width="2" stroke-miterlimit="10" x1="29.926" y1="124.209" x2="525.926" y2="124.209"/>
		
			<line id="Line_8_" fill="none" stroke="#E2E2E2" stroke-width="2" stroke-miterlimit="10" x1="29.926" y1="154.209" x2="525.926" y2="154.209"/>
		
			<line id="Line_7_" fill="none" stroke="#E2E2E2" stroke-width="2" stroke-miterlimit="10" x1="29.926" y1="184.209" x2="525.926" y2="184.209"/>
		
			<line id="Line_6_" fill="none" stroke="#E2E2E2" stroke-width="2" stroke-miterlimit="10" x1="29.926" y1="214.209" x2="525.926" y2="214.209"/>
		
			<line id="Line_5_" fill="none" stroke="#E2E2E2" stroke-width="2" stroke-miterlimit="10" x1="29.926" y1="244.209" x2="525.926" y2="244.209"/>
		
			<line id="Line_4_" fill="none" stroke="#E2E2E2" stroke-width="2" stroke-miterlimit="10" x1="29.926" y1="274.209" x2="525.926" y2="274.209"/>
		
			<line id="Line_3_" fill="none" stroke="#E2E2E2" stroke-width="2" stroke-miterlimit="10" x1="29.926" y1="304.209" x2="525.926" y2="304.209"/>
		
			<line id="Line_2_" fill="none" stroke="#E2E2E2" stroke-width="2" stroke-miterlimit="10" x1="29.926" y1="334.209" x2="525.926" y2="334.209"/>
		
			<line id="Line_1_" fill="none" stroke="#E2E2E2" stroke-width="2" stroke-miterlimit="10" x1="29.926" y1="364.209" x2="525.926" y2="364.209"/>
		
			<line id="Line" fill="none" stroke="#E2E2E2" stroke-width="2" stroke-miterlimit="10" x1="29.926" y1="394.209" x2="525.926" y2="394.209"/>
	</g>
	
		<line id="Border_Shadow" fill="none" stroke="#E2E2E2" stroke-width="10" stroke-miterlimit="10" x1="278.094" y1="34.284" x2="278.094" y2="415.636"/>
	
		<line id="Border_23_" fill="#FEF7CE" stroke="#333333" stroke-width="4" stroke-miterlimit="10" x1="278.094" y1="34.284" x2="278.094" y2="415.636"/>
	<g id="Lash_3_">
		<path fill="#333333" d="M488.592,426.477c-0.306-0.042-0.982-0.408-1.802-1.001l0.967-0.001V24.602h-1.746
			c1.049-1.231,2.165-2.433,2.785-2.758h11.188c0.46,0,0.835,0.375,0.835,0.835v402.963c0,0.46-0.375,0.835-0.835,0.835H488.592z"/>
		<path fill="#111111" d="M498.818,23.844v400.633h-9.062v-1V26.602v-2.758H498.818 M499.983,19.844h-11.392
			c-1.565,0-5.125,4.683-6.773,6.758h3.938v396.875l-3.938,0.003c1.895,2.401,5.208,4.997,6.773,4.997h11.392
			c1.565,0,2.835-1.27,2.835-2.835V22.679C502.818,21.113,501.549,19.844,499.983,19.844L499.983,19.844z"/>
	</g>
	<g id="Marker_2_">
		<polygon fill="#BB4D67" points="233.487,29.479 252.154,29.479 252.154,436.023 242.82,430.771 233.487,436.024 		"/>
		<path fill="#333333" d="M250.154,31.479v401.124l-7.334-4.127l-7.333,4.127V31.479H250.154 M254.154,27.479h-4h-14.667h-4v4
			v401.124v6.841l5.962-3.354l5.371-3.023l5.372,3.023l5.962,3.354v-6.841V31.479V27.479L254.154,27.479z"/>
	</g>
</g>
<g id="Moleskine_Large">
</g>
<g id="Moleskine_Small_1_">
</g>
<g id="iPad_Mini">
</g>
<g id="MacBook_13_x22_">
</g>
<g id="iMac_1_">
</g>
<g id="Wallet_2_">
</g>
<g id="iPhone_6_Grey">
</g>
<g id="iPhone_6_Silver_1_">
</g>
<g id="iPhone_6_Gold_1_">
</g>
<g id="Wallet_1_">
</g>
<g id="Bills">
</g>
<g id="Coins_1_">
</g>
<g id="Passport_Red_1_">
</g>
<g id="Passport_Blue_1_">
</g>
<g id="Credit_Card_Red">
</g>
<g id="Credit_Card_Blue">
</g>
<g id="Aeroplane_1_">
</g>
<g id="Magic_Mouse_1_">
</g>
<g id="Keyboard">
</g>
<g id="Ruler_1_">
</g>
<g id="Charger_1_">
</g>
<g id="Macbook_13_x22_">
</g>
<g id="Brushes">
</g>
<g id="Pencils">
</g>
<g id="Can">
</g>
<g id="Coffee">
</g>
<g id="Stylus">
</g>
<g id="Wacom_1_">
</g>
<g id="Paperclips_1_">
</g>
<g id="Earbuds_1_">
</g>
<g id="Glasses">
</g>
<g id="Sunglasses">
</g>
<g id="Case_1_">
</g>
<g id="Donut_1_">
</g>
</svg>
