<?xml version="1.0" encoding="utf-8"?>
<!-- Generator: Adobe Illustrator 16.0.0, SVG Export Plug-In . SVG Version: 6.00 Build 0)  -->
<!DOCTYPE svg PUBLIC "-//W3C//DTD SVG 1.1//EN" "http://www.w3.org/Graphics/SVG/1.1/DTD/svg11.dtd">
<svg version="1.1" xmlns="http://www.w3.org/2000/svg" xmlns:xlink="http://www.w3.org/1999/xlink" x="0px" y="0px" width="780px"
	 height="660px" viewBox="0 0 780 660" enable-background="new 0 0 780 660" xml:space="preserve">
<g id="Camera_Standing">
</g>
<g id="Camera_Lying">
</g>
<g id="Colours_1_">
</g>
<g id="Aquarell_1_">
</g>
<g id="Envelope_big_1_">
</g>
<g id="Envelope_small_1_">
</g>
<g id="Airmail_1_">
</g>
<g id="Highlighters_Closed_1_">
</g>
<g id="Highlighters_Open_1_">
</g>
<g id="USB_Stick_1_">
</g>
<g id="Pencil_Small">
</g>
<g id="Pencil_Large">
</g>
<g id="Brush_3_">
</g>
<g id="Notepad_1_">
</g>
<g id="Moleskine_Large_Open">
	<path id="Background_31_" fill="#616263" stroke="#333333" stroke-width="4" stroke-miterlimit="10" d="M734.104,26.97H493.159
		h-85.826h-14.174h-14.174h-85.826H52.214c-13.484,0-24.173,9.848-24.173,24.174v545.503c0,15.671,9.188,24.174,24.173,24.174
		h240.945h85.826h14.174h14.174h85.826h240.945c14.984,0,24.173-8.503,24.173-24.174V51.144
		C758.277,36.817,747.589,26.97,734.104,26.97z"/>
	<path id="Label_3_" fill="#58B6B4" stroke="#333333" stroke-width="4" stroke-miterlimit="10" d="M25.591,528.588h8.037V390.969
		h-8.037V528.588z M752.69,390.969v137.619h8.037V390.969H752.69z"/>
	<g id="Paper_1_">
		<path fill="#FFFFFF" d="M60.85,614.009c-15.793,0-25.222-9.429-25.222-25.222V59.004c0-14.379,10.843-25.223,25.222-25.223
			h665.558c14.378,0,25.221,10.844,25.221,25.223v529.783c0,15.793-9.429,25.222-25.221,25.222H60.85z"/>
		<path fill="#333333" d="M726.407,35.781c12.954,0,23.221,9.461,23.221,23.223v529.783c0,15.054-8.828,23.222-23.221,23.222
			H489.616h-82.447h-13.467h-0.148h-13.467H297.64H60.85c-14.394,0-23.222-8.168-23.222-23.222V59.004
			c0-13.762,10.268-23.223,23.222-23.223h236.79h191.977H726.407 M726.407,31.781H489.616H297.64H60.85
			c-15.519,0-27.222,11.703-27.222,27.223v529.783c0,8.408,2.564,15.363,7.414,20.113c4.748,4.65,11.598,7.108,19.808,7.108h236.79
			h82.447h13.467h0.148h13.467h82.447h236.791c8.209,0,15.059-2.458,19.807-7.108c4.85-4.75,7.414-11.705,7.414-20.113V59.004
			C753.628,43.484,741.925,31.781,726.407,31.781L726.407,31.781z"/>
	</g>
	<g id="Lines_1_">
		
			<line id="Line_28_" fill="none" stroke="#E2E2E2" stroke-width="2" stroke-miterlimit="10" x1="37.628" y1="65.582" x2="749.628" y2="65.582"/>
		
			<line id="Line_29_" fill="none" stroke="#E2E2E2" stroke-width="2" stroke-miterlimit="10" x1="37.628" y1="95.582" x2="749.628" y2="95.582"/>
		
			<line id="Line_27_" fill="none" stroke="#E2E2E2" stroke-width="2" stroke-miterlimit="10" x1="37.628" y1="125.582" x2="749.628" y2="125.582"/>
		
			<line id="Line_26_" fill="none" stroke="#E2E2E2" stroke-width="2" stroke-miterlimit="10" x1="37.628" y1="155.582" x2="749.628" y2="155.582"/>
		
			<line id="Line_25_" fill="none" stroke="#E2E2E2" stroke-width="2" stroke-miterlimit="10" x1="37.628" y1="185.582" x2="749.628" y2="185.582"/>
		
			<line id="Line_24_" fill="none" stroke="#E2E2E2" stroke-width="2" stroke-miterlimit="10" x1="37.628" y1="215.582" x2="749.628" y2="215.582"/>
		
			<line id="Line_23_" fill="none" stroke="#E2E2E2" stroke-width="2" stroke-miterlimit="10" x1="37.628" y1="245.582" x2="749.628" y2="245.582"/>
		
			<line id="Line_22_" fill="none" stroke="#E2E2E2" stroke-width="2" stroke-miterlimit="10" x1="37.628" y1="275.582" x2="749.628" y2="275.582"/>
		
			<line id="Line_21_" fill="none" stroke="#E2E2E2" stroke-width="2" stroke-miterlimit="10" x1="37.628" y1="305.582" x2="749.628" y2="305.582"/>
		
			<line id="Line_20_" fill="none" stroke="#E2E2E2" stroke-width="2" stroke-miterlimit="10" x1="37.628" y1="335.582" x2="749.628" y2="335.582"/>
		
			<line id="Line_19_" fill="none" stroke="#E2E2E2" stroke-width="2" stroke-miterlimit="10" x1="37.628" y1="365.582" x2="749.628" y2="365.582"/>
		
			<line id="Line_18_" fill="none" stroke="#E2E2E2" stroke-width="2" stroke-miterlimit="10" x1="37.628" y1="395.582" x2="749.628" y2="395.582"/>
		
			<line id="Line_17_" fill="none" stroke="#E2E2E2" stroke-width="2" stroke-miterlimit="10" x1="37.628" y1="425.582" x2="749.628" y2="425.582"/>
		
			<line id="Line_16_" fill="none" stroke="#E2E2E2" stroke-width="2" stroke-miterlimit="10" x1="37.628" y1="455.582" x2="749.628" y2="455.582"/>
		
			<line id="Line_15_" fill="none" stroke="#E2E2E2" stroke-width="2" stroke-miterlimit="10" x1="37.628" y1="485.582" x2="749.628" y2="485.582"/>
		
			<line id="Line_14_" fill="none" stroke="#E2E2E2" stroke-width="2" stroke-miterlimit="10" x1="37.628" y1="515.582" x2="749.628" y2="515.582"/>
		
			<line id="Line_13_" fill="none" stroke="#E2E2E2" stroke-width="2" stroke-miterlimit="10" x1="37.628" y1="545.582" x2="749.628" y2="545.582"/>
		
			<line id="Line_12_" fill="none" stroke="#E2E2E2" stroke-width="2" stroke-miterlimit="10" x1="37.628" y1="575.582" x2="749.628" y2="575.582"/>
	</g>
	
		<line id="Border_Shadow_1_" fill="none" stroke="#E2E2E2" stroke-width="10" stroke-miterlimit="10" x1="393.796" y1="35.657" x2="393.796" y2="612.009"/>
	
		<line id="Border_24_" fill="#FEF7CE" stroke="#333333" stroke-width="4" stroke-miterlimit="10" x1="393.796" y1="35.657" x2="393.796" y2="612.009"/>
	<g id="Lash_4_">
		<path fill="#333333" d="M712.294,622.85c-0.306-0.042-0.982-0.408-1.801-1.001l0.966-0.001V25.975h-1.746
			c1.049-1.23,2.165-2.433,2.785-2.758h11.188c0.46,0,0.835,0.375,0.835,0.835v597.963c0,0.46-0.375,0.835-0.835,0.835H712.294z"/>
		<path fill="#111111" d="M722.521,25.217V620.85h-9.062v-1V27.975v-2.758H722.521 M723.686,21.217h-11.392
			c-1.565,0-5.125,4.683-6.773,6.758h3.938V619.85l-3.938,0.003c1.895,2.401,5.208,4.997,6.773,4.997h11.392
			c1.565,0,2.835-1.27,2.835-2.835V24.052C726.521,22.486,725.251,21.217,723.686,21.217L723.686,21.217z"/>
	</g>
	<g id="Marker_3_">
		<polygon fill="#BB4D67" points="349.189,30.853 367.856,30.853 367.856,632.397 358.522,627.145 349.189,632.397 		"/>
		<path fill="#333333" d="M365.856,32.853v596.124l-7.334-4.127l-7.333,4.127V32.853H365.856 M369.856,28.853h-4h-14.667h-4v4
			v596.124v6.841l5.962-3.354l5.371-3.023l5.373,3.023l5.961,3.354v-6.841V32.853V28.853L369.856,28.853z"/>
	</g>
</g>
<g id="Moleskine_Small_Open_1_">
</g>
<g id="Moleskine_Large">
</g>
<g id="Moleskine_Small_1_">
</g>
<g id="iPad_Mini">
</g>
<g id="MacBook_13_x22_">
</g>
<g id="iMac_1_">
</g>
<g id="Wallet_2_">
</g>
<g id="iPhone_6_Grey">
</g>
<g id="iPhone_6_Silver_1_">
</g>
<g id="iPhone_6_Gold_1_">
</g>
<g id="Wallet_1_">
</g>
<g id="Bills">
</g>
<g id="Coins_1_">
</g>
<g id="Passport_Red_1_">
</g>
<g id="Passport_Blue_1_">
</g>
<g id="Credit_Card_Red">
</g>
<g id="Credit_Card_Blue">
</g>
<g id="Aeroplane_1_">
</g>
<g id="Magic_Mouse_1_">
</g>
<g id="Keyboard">
</g>
<g id="Ruler_1_">
</g>
<g id="Charger_1_">
</g>
<g id="Macbook_13_x22_">
</g>
<g id="Brushes">
</g>
<g id="Pencils">
</g>
<g id="Can">
</g>
<g id="Coffee">
</g>
<g id="Stylus">
</g>
<g id="Wacom_1_">
</g>
<g id="Paperclips_1_">
</g>
<g id="Earbuds_1_">
</g>
<g id="Glasses">
</g>
<g id="Sunglasses">
</g>
<g id="Case_1_">
</g>
<g id="Donut_1_">
</g>
</svg>
