<?xml version="1.0" encoding="utf-8"?>
<!-- Generator: Adobe Illustrator 16.0.0, SVG Export Plug-In . SVG Version: 6.00 Build 0)  -->
<!DOCTYPE svg PUBLIC "-//W3C//DTD SVG 1.1//EN" "http://www.w3.org/Graphics/SVG/1.1/DTD/svg11.dtd">
<svg version="1.1" xmlns="http://www.w3.org/2000/svg" xmlns:xlink="http://www.w3.org/1999/xlink" x="0px" y="0px" width="500px"
	 height="500px" viewBox="0 0 500 500" enable-background="new 0 0 500 500" xml:space="preserve">
<g id="Camera_Standing">
</g>
<g id="Camera_Lying">
</g>
<g id="Colours_1_">
</g>
<g id="Aquarell_1_">
</g>
<g id="Envelope_big_1_">
</g>
<g id="Envelope_small_1_">
</g>
<g id="Airmail_1_">
</g>
<g id="Highlighters_Closed_1_">
</g>
<g id="Highlighters_Open_1_">
</g>
<g id="USB_Stick_1_">
</g>
<g id="Pencil_Small">
</g>
<g id="Pencil_Large">
</g>
<g id="Brush_3_">
</g>
<g id="Notepad_1_">
</g>
<g id="Moleskine_Large_Open">
</g>
<g id="Moleskine_Small_Open_1_">
</g>
<g id="Moleskine_Large">
</g>
<g id="Moleskine_Small_1_">
</g>
<g id="iPad_Mini">
</g>
<g id="MacBook_13_x22_">
</g>
<g id="iMac_1_">
</g>
<g id="Wallet_2_">
</g>
<g id="iPhone_6_Grey">
</g>
<g id="iPhone_6_Silver_1_">
</g>
<g id="iPhone_6_Gold_1_">
</g>
<g id="Wallet_1_">
	<g id="bills">
		<defs>
			<path id="SVGID_5_" d="M869.508,105.71c0-7.828-6.346-14.174-14.173-14.174H575.181c-7.827,0-14.173,6.346-14.173,14.174v203.15
				c0,7.827,6.346,14.173,14.173,14.173h280.154c7.827,0,14.173-6.346,14.173-14.173V105.71z"/>
		</defs>
		<clipPath id="SVGID_2_">
			<use xlink:href="#SVGID_5_"  overflow="visible"/>
		</clipPath>
		<g clip-path="url(#SVGID_2_)">
			<g>
				
					<rect x="427.279" y="148.167" transform="matrix(-0.9952 0.0976 -0.0976 -0.9952 1312.5854 416.4332)" fill="#F5F6CA" width="437.668" height="184.277"/>
				<path fill="#333333" d="M853.118,129.443l17.587,179.417l-431.6,42.307L421.52,171.75L853.118,129.443 M856.709,125.072
					l-439.561,43.087l18.366,187.379l439.562-43.087L856.709,125.072L856.709,125.072z"/>
			</g>
			<path fill="#8DB559" d="M432.448,180.728l15.636,159.514l410.696-40.259L843.146,140.47L432.448,180.728z M834.674,259.06
				c-11.362,2.414-19.24,14.537-17.9,28.217c0.227,2.321,0.711,4.543,1.406,6.637l-331.447,32.49
				c0.274-2.189,0.318-4.464,0.094-6.783c-1.344-13.682-11.428-24.043-23.04-24.207l-4.873-49.706
				c0.259-0.017,0.522-0.026,0.781-0.053c17.286-1.693,29.526-21.174,27.336-43.512c-0.58-5.902-2.115-11.407-4.371-16.288
				l312.225-30.606c-1.266,5.226-1.702,10.927-1.124,16.829c2.19,22.336,17.978,39.07,35.267,37.375
				c0.26-0.024,0.517-0.064,0.774-0.099L834.674,259.06z M648.936,248.037l1.935,19.747c7.19-1.268,11.012-4.938,10.372-11.469
				C660.767,251.46,657.355,249.463,648.936,248.037z M639.582,181.524c-26.109,2.559-44.611,31.801-41.327,65.312
				c3.286,33.516,27.113,58.607,53.224,56.049c26.106-2.56,44.609-31.803,41.324-65.316
				C689.517,204.058,665.691,178.966,639.582,181.524z M651.379,272.958l0.929,9.477l-5.415,0.53l-0.92-9.394
				c-11.527,0.486-20.746-4.159-21.635-13.234c-0.422-4.299,2.539-7.726,6.678-8.13c3.743-0.367,6.445,1.778,6.795,5.362
				c0.336,3.424-1.768,4.915-4.268,5.643c1.544,3.468,5.441,5.496,11.929,5.262l-2.066-21.1l-4.075-0.564
				c-9.86-1.366-16.261-5.963-17.127-14.802c-1.036-10.588,7.111-17.657,17.777-19.587l-0.368-3.74l5.414-0.531l0.365,3.742
				c11.959-0.211,19.947,5.037,20.649,12.203c0.516,5.254-1.694,8.125-6.074,8.553c-4.061,0.398-6.762-1.748-7.122-5.41
				c-0.28-2.868,1.562-4.575,3.959-5.534c-1.403-2.836-4.989-4.977-10.936-4.956l2.036,20.781l3.52,0.62
				c12.35,2.165,18.034,6.028,18.853,14.39C671.408,264.083,663.482,270.969,651.379,272.958z M630.775,228.437
				c0.469,4.777,3.919,7.17,11.592,8.349l-1.913-19.507C634.083,218.706,630.245,223.021,630.775,228.437z M534.146,227.698
				c-11.579,1.133-20.043,11.44-18.908,23.018c1.138,11.576,11.442,20.041,23.019,18.906c11.578-1.135,20.043-11.439,18.907-23.018
				C556.028,235.028,545.723,226.562,534.146,227.698z M746.129,206.918c-11.576,1.135-20.041,11.44-18.907,23.018
				c1.137,11.578,11.441,20.043,23.018,18.908c11.576-1.136,20.043-11.44,18.909-23.018
				C768.013,214.249,757.708,205.782,746.129,206.918z"/>
		</g>
		<g clip-path="url(#SVGID_2_)">
			<g>
				
					<rect x="413.279" y="157.167" transform="matrix(-0.9988 0.0492 -0.0492 -0.9988 1275.7302 467.1936)" fill="#F5F6CA" width="437.666" height="184.277"/>
				<path fill="#333333" d="M844.246,148.604l8.873,180.058l-433.142,21.347l-8.872-180.058L844.246,148.604 M848.044,144.411
					l-441.131,21.74L416.18,354.2l441.132-21.74L848.044,144.411L848.044,144.411z"/>
			</g>
			<path fill="#8DB559" d="M421.586,179.446l7.889,160.083l412.165-20.313l-7.888-160.082L421.586,179.446z M819.544,277.173
				c-11.466,1.862-19.922,13.588-19.246,27.317c0.113,2.329,0.489,4.571,1.082,6.697L468.749,327.58
				c0.38-2.173,0.533-4.442,0.421-6.771c-0.678-13.73-10.249-24.568-21.84-25.295l-2.459-49.883c0.26-0.004,0.522-0.002,0.783-0.016
				c17.348-0.854,30.517-19.719,29.412-42.136c-0.293-5.924-1.561-11.497-3.578-16.481l313.342-15.443
				c-1.518,5.158-2.23,10.831-1.938,16.755c1.104,22.416,16.063,39.896,33.413,39.04c0.261-0.012,0.52-0.039,0.779-0.061
				L819.544,277.173z M634.558,257.165l0.976,19.817c7.244-0.917,11.237-4.398,10.915-10.952
				C646.209,261.157,642.898,258.997,634.558,257.165z M628.438,190.277c-26.203,1.29-46.1,29.602-44.442,63.233
				c1.658,33.635,24.242,59.852,50.445,58.562c26.2-1.292,46.098-29.604,44.439-63.237
				C677.223,215.203,654.64,188.986,628.438,190.277z M635.791,282.175l0.468,9.51l-5.434,0.269l-0.465-9.429
				c-11.537-0.071-20.52-5.158-20.968-14.267c-0.213-4.313,2.91-7.593,7.064-7.797c3.756-0.185,6.352,2.089,6.527,5.686
				c0.17,3.437-2.004,4.824-4.536,5.43c1.374,3.538,5.169,5.753,11.66,5.833l-1.043-21.174l-4.043-0.763
				c-9.782-1.841-15.952-6.743-16.389-15.613c-0.522-10.626,7.958-17.292,18.704-18.703l-0.186-3.753l5.434-0.27l0.184,3.756
				c11.955,0.369,19.68,5.998,20.033,13.189c0.262,5.273-2.086,8.033-6.481,8.249c-4.074,0.2-6.669-2.073-6.852-5.749
				c-0.141-2.878,1.781-4.494,4.223-5.336c-1.265-2.9-4.742-5.213-10.683-5.48l1.027,20.855l3.485,0.79
				c12.229,2.762,17.721,6.896,18.133,15.286C656.227,274.281,647.977,280.774,635.791,282.175z M617.368,236.707
				c0.237,4.794,3.567,7.353,11.174,8.9l-0.966-19.576C621.144,227.149,617.101,231.273,617.368,236.707z M520.888,231.288
				c-11.62,0.571-20.573,10.456-20.001,22.074c0.575,11.618,10.457,20.572,22.075,20.001c11.619-0.573,20.573-10.456,20.001-22.075
				C542.39,239.67,532.507,230.714,520.888,231.288z M733.629,220.803c-11.617,0.573-20.572,10.456-20,22.075
				c0.574,11.619,10.457,20.573,22.074,20c11.618-0.573,20.574-10.455,20.002-22.074
				C755.132,229.186,745.249,220.23,733.629,220.803z"/>
		</g>
	</g>
</g>
<g id="Bills">
	<g id="Bill_1_">
		<g>
			
				<rect x="116.984" y="158.692" transform="matrix(-0.0378 0.9993 -0.9993 -0.0378 599.1583 -75.2672)" fill="#F5F6CA" width="437.665" height="184.277"/>
			<path fill="#333333" d="M253.937,30.746l180.148,6.812l-16.389,433.356l-180.148-6.813L253.937,30.746 M250.091,26.598
				l-16.691,441.35l188.143,7.116l16.691-441.351L250.091,26.598L250.091,26.598z"/>
		</g>
		<path fill="#8DB559" d="M423.714,47.173l-160.162-6.056l-15.596,412.37l160.164,6.058L423.714,47.173z M291.76,435.131
			c-0.855-11.584-11.803-21.029-25.539-21.549c-2.33-0.089-4.598,0.092-6.767,0.496l12.585-332.797
			c2.134,0.569,4.379,0.918,6.71,1.006c13.737,0.521,25.365-8.071,27.097-19.557l49.906,1.887c-0.017,0.261-0.042,0.521-0.052,0.782
			c-0.657,17.356,16.993,32.116,39.421,32.963c5.927,0.225,11.588-0.554,16.731-2.13L399.996,409.73
			c-5.008-1.961-10.594-3.164-16.523-3.389c-22.427-0.848-41.138,12.535-41.796,29.893c-0.011,0.263-0.005,0.521-0.006,0.783
			L291.76,435.131z M327.774,252.582l-19.825-0.749c0.283,7.296,3.404,11.577,9.96,11.825
			C322.786,263.843,325.226,260.732,327.774,252.582z M394.942,252.301c0.991-26.215-25.484-48.498-59.132-49.77
			c-33.65-1.273-61.731,18.946-62.724,45.162c-0.992,26.214,25.483,48.498,59.134,49.769
			C365.868,298.734,393.951,278.516,394.942,252.301z M302.752,251.637l-9.515-0.359l0.206-5.436l9.434,0.357
			c1.073-11.489,6.921-19.995,16.034-19.65c4.317,0.163,7.312,3.561,7.154,7.717c-0.143,3.758-2.635,6.146-6.231,6.009
			c-3.438-0.13-4.633-2.417-5.017-4.993c-3.642,1.064-6.179,4.65-6.823,11.109l21.186,0.803l1.109-3.961
			c2.685-9.587,8.104-15.307,16.979-14.97c10.632,0.401,16.534,9.432,17.007,20.257l3.757,0.143l-0.205,5.436l-3.758-0.143
			c-1.41,11.877-7.686,19.085-14.883,18.811c-5.274-0.199-7.82-2.776-7.652-7.174c0.153-4.076,2.646-6.462,6.324-6.324
			c2.876,0.109,4.319,2.164,4.946,4.67c3-1.008,5.604-4.271,6.387-10.166l-20.864-0.789l-1.091,3.401
			c-3.813,11.944-8.408,17.055-16.805,16.737C308.841,272.683,303.089,263.899,302.752,251.637z M349.65,237.238
			c-4.797-0.181-7.636,2.913-9.839,10.356l19.586,0.741C358.844,241.829,355.086,237.445,349.65,237.238z M363.438,141.592
			c0.438-11.623-8.629-21.402-20.254-21.842c-11.625-0.438-21.404,8.627-21.844,20.253c-0.44,11.623,8.629,21.403,20.252,21.842
			C353.215,162.287,362.996,153.219,363.438,141.592z M355.387,354.44c0.44-11.623-8.627-21.403-20.253-21.843
			c-11.625-0.439-21.403,8.628-21.843,20.252c-0.439,11.625,8.628,21.404,20.252,21.845
			C345.167,375.134,354.947,366.066,355.387,354.44z"/>
	</g>
	<g id="Bill">
		<g>
			
				<rect x="227.276" y="21.944" transform="matrix(-0.998 0.0635 -0.0635 -0.998 653.4789 460.7776)" fill="#F5F6CA" width="184.277" height="437.665"/>
			<path fill="#333333" d="M395.598,18.656l27.548,432.789l-179.913,11.452l-27.548-432.79L395.598,18.656 M399.336,14.41
				L211.438,26.369l28.056,440.774l187.897-11.96L399.336,14.41L399.336,14.41z"/>
		</g>
		<path fill="#8DB559" d="M386.252,29.271L226.299,39.452l26.215,411.833l159.954-10.182L386.252,29.271z M294.236,428.589
			c-2.026-11.438-13.872-19.726-27.59-18.853c-2.328,0.147-4.564,0.556-6.684,1.178L238.81,78.552
			c2.179,0.35,4.449,0.47,6.776,0.323c13.719-0.873,24.418-10.599,24.979-22.199l49.843-3.173c0.007,0.261,0.01,0.521,0.026,0.783
			c1.103,17.334,20.154,30.231,42.553,28.805c5.919-0.377,11.475-1.725,16.43-3.813l19.929,313.089
			c-5.179-1.444-10.861-2.076-16.78-1.698c-22.398,1.426-39.66,16.635-38.559,33.969c0.018,0.261,0.048,0.52,0.073,0.779
			L294.236,428.589z M311.593,243.334l-19.802,1.262c1.021,7.229,4.558,11.172,11.107,10.756
			C307.768,255.042,309.88,251.7,311.593,243.334z M378.386,236.258c-1.666-26.183-30.26-45.671-63.864-43.532
			c-33.606,2.14-59.497,25.097-57.832,51.277c1.666,26.181,30.26,45.671,63.867,43.53
			C354.162,285.395,380.053,262.438,378.386,236.258z M286.603,244.926l-9.501,0.604l-0.347-5.429l9.421-0.6
			c-0.094-11.537,4.863-20.592,13.964-21.171c4.312-0.274,7.634,2.802,7.897,6.952c0.239,3.752-1.998,6.381-5.591,6.609
			c-3.434,0.219-4.853-1.937-5.494-4.459c-3.518,1.426-5.677,5.25-5.666,11.742l21.157-1.346l0.705-4.053
			c1.699-9.809,6.513-16.048,15.376-16.611c10.618-0.676,17.405,7.71,18.97,18.434l3.752-0.239l0.345,5.429l-3.753,0.238
			c-0.198,11.958-5.715,19.764-12.9,20.221c-5.27,0.336-8.062-1.971-8.34-6.363c-0.261-4.07,1.977-6.698,5.651-6.932
			c2.874-0.184,4.516,1.716,5.394,4.145c2.883-1.306,5.143-4.816,5.326-10.76l-20.838,1.326l-0.74,3.494
			c-2.586,12.27-6.641,17.818-15.024,18.352C294.789,265.247,288.178,257.09,286.603,244.926z M331.803,225.854
			c-4.79,0.306-7.301,3.672-8.739,11.3l19.56-1.245C341.414,229.492,337.232,225.51,331.803,225.854z M335.84,129.306
			c-0.738-11.609-10.75-20.421-22.36-19.682c-11.608,0.739-20.421,10.749-19.683,22.358c0.74,11.609,10.75,20.422,22.36,19.683
			C327.766,150.926,336.578,140.915,335.84,129.306z M349.369,341.877c-0.738-11.61-10.749-20.422-22.359-19.683
			c-11.609,0.739-20.42,10.749-19.682,22.357c0.739,11.61,10.75,20.423,22.359,19.684
			C341.296,363.494,350.109,353.484,349.369,341.877z"/>
	</g>
</g>
<g id="Coins_1_">
	<g id="Dollar_1_">
		<circle fill="#FCC865" stroke="#333333" stroke-width="4" stroke-miterlimit="10" cx="66.065" cy="264.808" r="37.559"/>
		<circle fill="#FEF7CE" cx="66.065" cy="264.808" r="30"/>
		
			<text transform="matrix(0.977 -0.2133 0.2133 0.977 51.7979 289.9297)" fill="#FCC865" font-family="'Belizio-Medium'" font-size="60" letter-spacing="2">$</text>
	</g>
	<g id="Dollar">
		<circle fill="#FCC865" stroke="#333333" stroke-width="4" stroke-miterlimit="10" cx="174.653" cy="294.814" r="37.559"/>
		<circle fill="#FEF7CE" cx="174.653" cy="294.815" r="30"/>
		
			<text transform="matrix(0.9928 0.1194 -0.1194 0.9928 152.917 313.7764)" fill="#FCC865" font-family="'Belizio-Medium'" font-size="60" letter-spacing="2">$</text>
	</g>
	<g id="Cents_1_">
		<circle fill="#D6D6D6" stroke="#333333" stroke-width="4" stroke-miterlimit="10" cx="204.653" cy="254.815" r="43.384"/>
		<circle fill="#FFFFFF" cx="204.653" cy="254.814" r="35"/>
		
			<text transform="matrix(0.9782 0.2077 -0.2077 0.9782 180.1562 273.0684)" fill="#D6D6D6" font-family="'Belizio-Medium'" font-size="69.3056" letter-spacing="2">¢</text>
	</g>
	<g id="Cents">
		<circle fill="#D6D6D6" stroke="#333333" stroke-width="4" stroke-miterlimit="10" cx="135.49" cy="197.539" r="34.384"/>
		<circle fill="#FFFFFF" cx="135.49" cy="197.539" r="27.739"/>
		
			<text transform="matrix(0.9328 -0.3603 0.3603 0.9328 127.1943 220.252)" fill="#D6D6D6" font-family="'Belizio-Medium'" font-size="54.9282" letter-spacing="2">¢</text>
	</g>
</g>
<g id="Passport_Red_1_">
</g>
<g id="Passport_Blue_1_">
</g>
<g id="Credit_Card_Red">
</g>
<g id="Credit_Card_Blue">
</g>
<g id="Aeroplane_1_">
</g>
<g id="Magic_Mouse_1_">
</g>
<g id="Keyboard">
</g>
<g id="Ruler_1_">
</g>
<g id="Charger_1_">
</g>
<g id="Macbook_13_x22_">
</g>
<g id="Brushes">
</g>
<g id="Pencils">
</g>
<g id="Can">
</g>
<g id="Coffee">
</g>
<g id="Stylus">
</g>
<g id="Wacom_1_">
</g>
<g id="Paperclips_1_">
</g>
<g id="Earbuds_1_">
</g>
<g id="Glasses">
</g>
<g id="Sunglasses">
</g>
<g id="Case_1_">
</g>
<g id="Donut_1_">
</g>
</svg>
