<?xml version="1.0" encoding="utf-8"?>
<!-- Generator: Adobe Illustrator 16.0.0, SVG Export Plug-In . SVG Version: 6.00 Build 0)  -->
<!DOCTYPE svg PUBLIC "-//W3C//DTD SVG 1.1//EN" "http://www.w3.org/Graphics/SVG/1.1/DTD/svg11.dtd">
<svg version="1.1" xmlns="http://www.w3.org/2000/svg" xmlns:xlink="http://www.w3.org/1999/xlink" x="0px" y="0px" width="220px"
	 height="375px" viewBox="0 0 220 375" enable-background="new 0 0 220 375" xml:space="preserve">
<g id="Camera_Standing">
</g>
<g id="Camera_Lying">
</g>
<g id="Colours_1_">
</g>
<g id="Aquarell_1_">
</g>
<g id="Envelope_big_1_">
</g>
<g id="Envelope_small_1_">
</g>
<g id="Airmail_1_">
</g>
<g id="Highlighters_Closed_1_">
</g>
<g id="Highlighters_Open_1_">
</g>
<g id="USB_Stick_1_">
</g>
<g id="Pencil_Small">
</g>
<g id="Pencil_Large">
</g>
<g id="Brush_3_">
</g>
<g id="Notepad_1_">
</g>
<g id="Moleskine_Large_Open">
</g>
<g id="Moleskine_Small_Open_1_">
</g>
<g id="Moleskine_Large">
</g>
<g id="Moleskine_Small_1_">
</g>
<g id="iPad_Mini">
</g>
<g id="MacBook_13_x22_">
</g>
<g id="iMac_1_">
</g>
<g id="Wallet_2_">
</g>
<g id="iPhone_6_Grey">
</g>
<g id="iPhone_6_Silver_1_">
</g>
<g id="iPhone_6_Gold_1_">
</g>
<g id="Wallet_1_">
</g>
<g id="Bills">
</g>
<g id="Coins_1_">
</g>
<g id="Passport_Red_1_">
</g>
<g id="Passport_Blue_1_">
</g>
<g id="Credit_Card_Red">
</g>
<g id="Credit_Card_Blue">
</g>
<g id="Aeroplane_1_">
</g>
<g id="Magic_Mouse_1_">
	<path id="Background_5_" fill="#FFFFFF" stroke="#333333" stroke-width="4" stroke-miterlimit="10" d="M110.191,26.849
		c-70,0-84,16-84,158s9.333,167.334,84,167.334s84-25.334,84-167.334S180.191,26.849,110.191,26.849z"/>
	<path id="Shadow_2_" opacity="0.5" fill="#E2E2E2" d="M110.191,36.277c-62.5,0-79,22.286-79,149.071s12.333,157.405,79,157.405
		s79-30.62,79-157.405S172.691,36.277,110.191,36.277z"/>
	<path id="Lights" opacity="0.5" fill="#FFFFFF" d="M129.809,37.272l-97.375,97.375c-0.86,14.697-1.242,31.492-1.242,50.701
		c0,18.012,0.25,34.078,0.868,48.396l149.17-149.171C172.926,52.348,157.187,40.485,129.809,37.272z M110.191,36.277
		c-5.303,0-10.267,0.166-14.925,0.536L36.802,95.279c-1.748,9.395-3.035,20.215-3.932,32.655l91.205-91.205
		C119.721,36.415,115.099,36.277,110.191,36.277z"/>
	<path id="Logo_2_" fill-rule="evenodd" clip-rule="evenodd" fill="#D6D6D6" d="M124.172,269.581
		c-1.799-2.25-4.324-3.545-6.706-3.545c-3.152,0-4.485,1.5-6.674,1.5c-2.253,0-3.967-1.5-6.691-1.5
		c-2.678,0-5.525,1.629-7.333,4.412c-2.54,3.92-2.109,11.285,2.013,17.563c1.471,2.244,3.439,4.772,6.012,4.793
		c2.282,0.021,2.933-1.462,6.035-1.479c3.1-0.015,3.688,1.494,5.974,1.474c2.572-0.023,4.649-2.821,6.12-5.065
		c1.058-1.605,1.45-2.42,2.271-4.236C119.232,281.241,118.277,272.815,124.172,269.581z M115.072,263.528
		c1.146-1.474,2.016-3.551,1.702-5.675c-1.872,0.129-4.061,1.321-5.338,2.874c-1.16,1.412-2.118,3.504-1.746,5.537
		C111.732,266.323,113.848,265.104,115.072,263.528z"/>
</g>
<g id="Keyboard">
</g>
<g id="Ruler_1_">
</g>
<g id="Charger_1_">
</g>
<g id="Macbook_13_x22_">
</g>
<g id="Brushes">
</g>
<g id="Pencils">
</g>
<g id="Can">
</g>
<g id="Coffee">
</g>
<g id="Stylus">
</g>
<g id="Wacom_1_">
</g>
<g id="Paperclips_1_">
</g>
<g id="Earbuds_1_">
</g>
<g id="Glasses">
</g>
<g id="Sunglasses">
</g>
<g id="Case_1_">
</g>
<g id="Donut_1_">
</g>
</svg>
