<?xml version="1.0" encoding="utf-8"?>
<!-- Generator: Adobe Illustrator 16.0.0, SVG Export Plug-In . SVG Version: 6.00 Build 0)  -->
<!DOCTYPE svg PUBLIC "-//W3C//DTD SVG 1.1//EN" "http://www.w3.org/Graphics/SVG/1.1/DTD/svg11.dtd">
<svg version="1.1" xmlns="http://www.w3.org/2000/svg" xmlns:xlink="http://www.w3.org/1999/xlink" x="0px" y="0px" width="460px"
	 height="620px" viewBox="0 0 460 620" enable-background="new 0 0 460 620" xml:space="preserve">
<g id="Camera_Standing">
</g>
<g id="Camera_Lying">
</g>
<g id="Colours_1_">
</g>
<g id="Aquarell_1_">
</g>
<g id="Envelope_big_1_">
</g>
<g id="Envelope_small_1_">
</g>
<g id="Airmail_1_">
</g>
<g id="Highlighters_Closed_1_">
</g>
<g id="Highlighters_Open_1_">
</g>
<g id="USB_Stick_1_">
</g>
<g id="Pencil_Small">
</g>
<g id="Pencil_Large">
</g>
<g id="Brush_3_">
</g>
<g id="Notepad_1_">
	<g id="Paper_2_">
		<path fill="#FEF7CE" d="M449.992,595.048c0,4.696-3.808,8.504-8.504,8.504H36.016c-4.696,0-8.504-3.808-8.504-8.504V28.586
			c0-4.697,3.808-8.505,8.504-8.505h405.473c4.696,0,8.504,3.808,8.504,8.505V595.048z"/>
	</g>
	<g id="Lines_2_">
		
			<line id="Line_47_" fill="none" stroke="#58B6B4" stroke-width="2" stroke-miterlimit="10" x1="30.623" y1="56.076" x2="446.623" y2="56.076"/>
		
			<line id="Line_46_" fill="none" stroke="#58B6B4" stroke-width="2" stroke-miterlimit="10" x1="30.623" y1="86.076" x2="446.623" y2="86.076"/>
		
			<line id="Line_45_" fill="none" stroke="#58B6B4" stroke-width="2" stroke-miterlimit="10" x1="30.623" y1="116.076" x2="446.623" y2="116.076"/>
		
			<line id="Line_44_" fill="none" stroke="#58B6B4" stroke-width="2" stroke-miterlimit="10" x1="30.623" y1="146.076" x2="446.623" y2="146.076"/>
		
			<line id="Line_43_" fill="none" stroke="#58B6B4" stroke-width="2" stroke-miterlimit="10" x1="30.623" y1="176.076" x2="446.623" y2="176.076"/>
		
			<line id="Line_42_" fill="none" stroke="#58B6B4" stroke-width="2" stroke-miterlimit="10" x1="30.623" y1="206.076" x2="446.623" y2="206.076"/>
		
			<line id="Line_41_" fill="none" stroke="#58B6B4" stroke-width="2" stroke-miterlimit="10" x1="30.623" y1="236.076" x2="446.623" y2="236.076"/>
		
			<line id="Line_40_" fill="none" stroke="#58B6B4" stroke-width="2" stroke-miterlimit="10" x1="30.623" y1="266.076" x2="446.623" y2="266.076"/>
		
			<line id="Line_39_" fill="none" stroke="#58B6B4" stroke-width="2" stroke-miterlimit="10" x1="30.623" y1="296.076" x2="446.623" y2="296.076"/>
		
			<line id="Line_38_" fill="none" stroke="#58B6B4" stroke-width="2" stroke-miterlimit="10" x1="30.623" y1="326.076" x2="446.623" y2="326.076"/>
		
			<line id="Line_37_" fill="none" stroke="#58B6B4" stroke-width="2" stroke-miterlimit="10" x1="30.623" y1="356.076" x2="446.623" y2="356.076"/>
		
			<line id="Line_36_" fill="none" stroke="#58B6B4" stroke-width="2" stroke-miterlimit="10" x1="30.623" y1="386.076" x2="446.623" y2="386.076"/>
		
			<line id="Line_35_" fill="none" stroke="#58B6B4" stroke-width="2" stroke-miterlimit="10" x1="30.623" y1="416.076" x2="446.623" y2="416.076"/>
		
			<line id="Line_34_" fill="none" stroke="#58B6B4" stroke-width="2" stroke-miterlimit="10" x1="30.623" y1="446.076" x2="446.623" y2="446.076"/>
		
			<line id="Line_33_" fill="none" stroke="#58B6B4" stroke-width="2" stroke-miterlimit="10" x1="30.623" y1="476.076" x2="446.623" y2="476.076"/>
		
			<line id="Line_32_" fill="none" stroke="#58B6B4" stroke-width="2" stroke-miterlimit="10" x1="30.623" y1="506.076" x2="446.623" y2="506.076"/>
		
			<line id="Line_31_" fill="none" stroke="#58B6B4" stroke-width="2" stroke-miterlimit="10" x1="30.623" y1="536.076" x2="446.623" y2="536.076"/>
		
			<line id="Line_30_" fill="none" stroke="#58B6B4" stroke-width="2" stroke-miterlimit="10" x1="30.623" y1="566.076" x2="446.623" y2="566.076"/>
	</g>
	
		<line id="Red_Line" fill="none" stroke="#F77F5B" stroke-width="4" stroke-miterlimit="10" x1="104.92" y1="20.081" x2="104.92" y2="603.552"/>
	<g id="Border_25_">
		<path fill="#333333" d="M441.488,24.081c2.483,0,4.504,2.021,4.504,4.505v566.462c0,2.483-2.021,4.504-4.504,4.504H36.016
			c-2.483,0-4.504-2.021-4.504-4.504V28.586c0-2.484,2.021-4.505,4.504-4.505H441.488 M441.488,20.081H36.016
			c-4.696,0-8.504,3.808-8.504,8.505v566.462c0,4.696,3.808,8.504,8.504,8.504h405.473c4.696,0,8.504-3.808,8.504-8.504V28.586
			C449.992,23.889,446.185,20.081,441.488,20.081L441.488,20.081z"/>
	</g>
	<g id="Spiral">
		<path fill="#333333" d="M59.269,47.985c1.656,0,3,1.344,3,3v10c0,1.656-1.344,3-3,3h-10.5c-1.656,0-3-1.344-3-3v-10
			c0-1.656,1.344-3,3-3H59.269z"/>
		<path fill="none" stroke="#333333" stroke-width="4" stroke-miterlimit="10" d="M52.673,52.134c0,0-9.82-1.818-21.096-1.818
			c-11.273,0-18.822,2.184-18.822,3.639c0,1.453-4.884,4.363,14.757,4.363"/>
		<path fill="none" stroke="#333333" stroke-width="4" stroke-miterlimit="10" d="M52.673,59.134c0,0-9.82-1.818-21.096-1.818
			c-11.273,0-18.822,2.184-18.822,3.639c0,1.453-5.123,4.361,14.518,4.361"/>
		<path fill="#333333" d="M59.269,77.985c1.656,0,3,1.344,3,3v10c0,1.656-1.344,3-3,3h-10.5c-1.656,0-3-1.344-3-3v-10
			c0-1.656,1.344-3,3-3H59.269z"/>
		<path fill="none" stroke="#333333" stroke-width="4" stroke-miterlimit="10" d="M52.673,82.134c0,0-9.82-1.818-21.096-1.818
			c-11.273,0-18.822,2.184-18.822,3.639c0,1.453-4.884,4.363,14.757,4.363"/>
		<path fill="none" stroke="#333333" stroke-width="4" stroke-miterlimit="10" d="M52.673,89.134c0,0-9.82-1.818-21.096-1.818
			c-11.273,0-18.822,2.184-18.822,3.639c0,1.453-5.123,4.361,14.518,4.361"/>
		<path fill="#333333" d="M59.269,107.985c1.656,0,3,1.344,3,3v10c0,1.656-1.344,3-3,3h-10.5c-1.656,0-3-1.344-3-3v-10
			c0-1.656,1.344-3,3-3H59.269z"/>
		<path fill="none" stroke="#333333" stroke-width="4" stroke-miterlimit="10" d="M52.673,112.134c0,0-9.82-1.818-21.096-1.818
			c-11.273,0-18.822,2.184-18.822,3.639c0,1.453-4.884,4.363,14.757,4.363"/>
		<path fill="none" stroke="#333333" stroke-width="4" stroke-miterlimit="10" d="M52.673,119.134c0,0-9.82-1.818-21.096-1.818
			c-11.273,0-18.822,2.184-18.822,3.639c0,1.453-5.123,4.361,14.518,4.361"/>
		<path fill="#333333" d="M59.269,137.985c1.656,0,3,1.344,3,3v10c0,1.656-1.344,3-3,3h-10.5c-1.656,0-3-1.344-3-3v-10
			c0-1.656,1.344-3,3-3H59.269z"/>
		<path fill="none" stroke="#333333" stroke-width="4" stroke-miterlimit="10" d="M52.673,142.134c0,0-9.82-1.818-21.096-1.818
			c-11.273,0-18.822,2.184-18.822,3.639c0,1.453-4.884,4.363,14.757,4.363"/>
		<path fill="none" stroke="#333333" stroke-width="4" stroke-miterlimit="10" d="M52.673,149.134c0,0-9.82-1.818-21.096-1.818
			c-11.273,0-18.822,2.184-18.822,3.639c0,1.453-5.123,4.361,14.518,4.361"/>
		<path fill="#333333" d="M59.269,167.985c1.656,0,3,1.344,3,3v10c0,1.656-1.344,3-3,3h-10.5c-1.656,0-3-1.344-3-3v-10
			c0-1.656,1.344-3,3-3H59.269z"/>
		<path fill="none" stroke="#333333" stroke-width="4" stroke-miterlimit="10" d="M52.673,172.134c0,0-9.82-1.818-21.096-1.818
			c-11.273,0-18.822,2.184-18.822,3.639c0,1.453-4.884,4.363,14.757,4.363"/>
		<path fill="none" stroke="#333333" stroke-width="4" stroke-miterlimit="10" d="M52.673,179.134c0,0-9.82-1.818-21.096-1.818
			c-11.273,0-18.822,2.184-18.822,3.639c0,1.453-5.123,4.361,14.518,4.361"/>
		<path fill="#333333" d="M59.269,197.985c1.656,0,3,1.344,3,3v10c0,1.656-1.344,3-3,3h-10.5c-1.656,0-3-1.344-3-3v-10
			c0-1.656,1.344-3,3-3H59.269z"/>
		<path fill="none" stroke="#333333" stroke-width="4" stroke-miterlimit="10" d="M52.673,202.134c0,0-9.82-1.818-21.096-1.818
			c-11.273,0-18.822,2.184-18.822,3.639c0,1.453-4.884,4.363,14.757,4.363"/>
		<path fill="none" stroke="#333333" stroke-width="4" stroke-miterlimit="10" d="M52.673,209.134c0,0-9.82-1.818-21.096-1.818
			c-11.273,0-18.822,2.184-18.822,3.639c0,1.453-5.123,4.361,14.518,4.361"/>
		<path fill="#333333" d="M59.269,227.985c1.656,0,3,1.344,3,3v10c0,1.656-1.344,3-3,3h-10.5c-1.656,0-3-1.344-3-3v-10
			c0-1.656,1.344-3,3-3H59.269z"/>
		<path fill="none" stroke="#333333" stroke-width="4" stroke-miterlimit="10" d="M52.673,232.134c0,0-9.82-1.818-21.096-1.818
			c-11.273,0-18.822,2.184-18.822,3.639c0,1.453-4.884,4.363,14.757,4.363"/>
		<path fill="none" stroke="#333333" stroke-width="4" stroke-miterlimit="10" d="M52.673,239.134c0,0-9.82-1.818-21.096-1.818
			c-11.273,0-18.822,2.184-18.822,3.639c0,1.453-5.123,4.361,14.518,4.361"/>
		<path fill="#333333" d="M59.269,257.985c1.656,0,3,1.344,3,3v10c0,1.656-1.344,3-3,3h-10.5c-1.656,0-3-1.344-3-3v-10
			c0-1.656,1.344-3,3-3H59.269z"/>
		<path fill="none" stroke="#333333" stroke-width="4" stroke-miterlimit="10" d="M52.673,262.134c0,0-9.82-1.818-21.096-1.818
			c-11.273,0-18.822,2.184-18.822,3.639c0,1.453-4.884,4.363,14.757,4.363"/>
		<path fill="none" stroke="#333333" stroke-width="4" stroke-miterlimit="10" d="M52.673,269.134c0,0-9.82-1.818-21.096-1.818
			c-11.273,0-18.822,2.184-18.822,3.639c0,1.453-5.123,4.361,14.518,4.361"/>
		<path fill="#333333" d="M59.269,287.985c1.656,0,3,1.344,3,3v10c0,1.656-1.344,3-3,3h-10.5c-1.656,0-3-1.344-3-3v-10
			c0-1.656,1.344-3,3-3H59.269z"/>
		<path fill="none" stroke="#333333" stroke-width="4" stroke-miterlimit="10" d="M52.673,292.134c0,0-9.82-1.818-21.096-1.818
			c-11.273,0-18.822,2.185-18.822,3.639c0,1.453-4.884,4.363,14.757,4.363"/>
		<path fill="none" stroke="#333333" stroke-width="4" stroke-miterlimit="10" d="M52.673,299.134c0,0-9.82-1.818-21.096-1.818
			c-11.273,0-18.822,2.185-18.822,3.639c0,1.453-5.123,4.361,14.518,4.361"/>
		<path fill="#333333" d="M59.269,317.985c1.656,0,3,1.344,3,3v10c0,1.656-1.344,3-3,3h-10.5c-1.656,0-3-1.344-3-3v-10
			c0-1.656,1.344-3,3-3H59.269z"/>
		<path fill="none" stroke="#333333" stroke-width="4" stroke-miterlimit="10" d="M52.673,322.134c0,0-9.82-1.818-21.096-1.818
			c-11.273,0-18.822,2.185-18.822,3.639c0,1.453-4.884,4.363,14.757,4.363"/>
		<path fill="none" stroke="#333333" stroke-width="4" stroke-miterlimit="10" d="M52.673,329.134c0,0-9.82-1.818-21.096-1.818
			c-11.273,0-18.822,2.185-18.822,3.639c0,1.453-5.123,4.361,14.518,4.361"/>
		<path fill="#333333" d="M59.269,347.985c1.656,0,3,1.344,3,3v10c0,1.656-1.344,3-3,3h-10.5c-1.656,0-3-1.344-3-3v-10
			c0-1.656,1.344-3,3-3H59.269z"/>
		<path fill="none" stroke="#333333" stroke-width="4" stroke-miterlimit="10" d="M52.673,352.134c0,0-9.82-1.818-21.096-1.818
			c-11.273,0-18.822,2.185-18.822,3.639c0,1.453-4.884,4.363,14.757,4.363"/>
		<path fill="none" stroke="#333333" stroke-width="4" stroke-miterlimit="10" d="M52.673,359.134c0,0-9.82-1.818-21.096-1.818
			c-11.273,0-18.822,2.185-18.822,3.639c0,1.453-5.123,4.361,14.518,4.361"/>
		<path fill="#333333" d="M59.269,377.985c1.656,0,3,1.344,3,3v10c0,1.656-1.344,3-3,3h-10.5c-1.656,0-3-1.344-3-3v-10
			c0-1.656,1.344-3,3-3H59.269z"/>
		<path fill="none" stroke="#333333" stroke-width="4" stroke-miterlimit="10" d="M52.673,382.134c0,0-9.82-1.818-21.096-1.818
			c-11.273,0-18.822,2.185-18.822,3.639c0,1.453-4.884,4.363,14.757,4.363"/>
		<path fill="none" stroke="#333333" stroke-width="4" stroke-miterlimit="10" d="M52.673,389.134c0,0-9.82-1.818-21.096-1.818
			c-11.273,0-18.822,2.185-18.822,3.639c0,1.453-5.123,4.361,14.518,4.361"/>
		<path fill="#333333" d="M59.269,407.985c1.656,0,3,1.344,3,3v10c0,1.656-1.344,3-3,3h-10.5c-1.656,0-3-1.344-3-3v-10
			c0-1.656,1.344-3,3-3H59.269z"/>
		<path fill="none" stroke="#333333" stroke-width="4" stroke-miterlimit="10" d="M52.673,412.134c0,0-9.82-1.818-21.096-1.818
			c-11.273,0-18.822,2.185-18.822,3.639c0,1.453-4.884,4.363,14.757,4.363"/>
		<path fill="none" stroke="#333333" stroke-width="4" stroke-miterlimit="10" d="M52.673,419.134c0,0-9.82-1.818-21.096-1.818
			c-11.273,0-18.822,2.185-18.822,3.639c0,1.453-5.123,4.361,14.518,4.361"/>
		<path fill="#333333" d="M59.269,437.985c1.656,0,3,1.344,3,3v10c0,1.656-1.344,3-3,3h-10.5c-1.656,0-3-1.344-3-3v-10
			c0-1.656,1.344-3,3-3H59.269z"/>
		<path fill="none" stroke="#333333" stroke-width="4" stroke-miterlimit="10" d="M52.673,442.134c0,0-9.82-1.818-21.096-1.818
			c-11.273,0-18.822,2.185-18.822,3.639c0,1.453-4.884,4.363,14.757,4.363"/>
		<path fill="none" stroke="#333333" stroke-width="4" stroke-miterlimit="10" d="M52.673,449.134c0,0-9.82-1.818-21.096-1.818
			c-11.273,0-18.822,2.185-18.822,3.639c0,1.453-5.123,4.361,14.518,4.361"/>
		<path fill="#333333" d="M59.269,467.985c1.656,0,3,1.344,3,3v10c0,1.656-1.344,3-3,3h-10.5c-1.656,0-3-1.344-3-3v-10
			c0-1.656,1.344-3,3-3H59.269z"/>
		<path fill="none" stroke="#333333" stroke-width="4" stroke-miterlimit="10" d="M52.673,472.134c0,0-9.82-1.818-21.096-1.818
			c-11.273,0-18.822,2.185-18.822,3.639c0,1.453-4.884,4.363,14.757,4.363"/>
		<path fill="none" stroke="#333333" stroke-width="4" stroke-miterlimit="10" d="M52.673,479.134c0,0-9.82-1.818-21.096-1.818
			c-11.273,0-18.822,2.185-18.822,3.639c0,1.453-5.123,4.361,14.518,4.361"/>
		<path fill="#333333" d="M59.269,497.985c1.656,0,3,1.344,3,3v10c0,1.656-1.344,3-3,3h-10.5c-1.656,0-3-1.344-3-3v-10
			c0-1.656,1.344-3,3-3H59.269z"/>
		<path fill="none" stroke="#333333" stroke-width="4" stroke-miterlimit="10" d="M52.673,502.134c0,0-9.82-1.818-21.096-1.818
			c-11.273,0-18.822,2.185-18.822,3.639c0,1.453-4.884,4.363,14.757,4.363"/>
		<path fill="none" stroke="#333333" stroke-width="4" stroke-miterlimit="10" d="M52.673,509.134c0,0-9.82-1.818-21.096-1.818
			c-11.273,0-18.822,2.185-18.822,3.639c0,1.453-5.123,4.361,14.518,4.361"/>
		<path fill="#333333" d="M59.269,527.985c1.656,0,3,1.344,3,3v10c0,1.656-1.344,3-3,3h-10.5c-1.656,0-3-1.344-3-3v-10
			c0-1.656,1.344-3,3-3H59.269z"/>
		<path fill="none" stroke="#333333" stroke-width="4" stroke-miterlimit="10" d="M52.673,532.134c0,0-9.82-1.818-21.096-1.818
			c-11.273,0-18.822,2.185-18.822,3.639c0,1.453-4.884,4.363,14.757,4.363"/>
		<path fill="none" stroke="#333333" stroke-width="4" stroke-miterlimit="10" d="M52.673,539.134c0,0-9.82-1.818-21.096-1.818
			c-11.273,0-18.822,2.185-18.822,3.639c0,1.453-5.123,4.361,14.518,4.361"/>
		<path fill="#333333" d="M59.269,557.985c1.656,0,3,1.344,3,3v10c0,1.656-1.344,3-3,3h-10.5c-1.656,0-3-1.344-3-3v-10
			c0-1.656,1.344-3,3-3H59.269z"/>
		<path fill="none" stroke="#333333" stroke-width="4" stroke-miterlimit="10" d="M52.673,562.134c0,0-9.82-1.818-21.096-1.818
			c-11.273,0-18.822,2.185-18.822,3.639c0,1.453-4.884,4.363,14.757,4.363"/>
		<path fill="none" stroke="#333333" stroke-width="4" stroke-miterlimit="10" d="M52.673,569.134c0,0-9.82-1.818-21.096-1.818
			c-11.273,0-18.822,2.185-18.822,3.639c0,1.453-5.123,4.361,14.518,4.361"/>
	</g>
</g>
<g id="Moleskine_Large_Open">
</g>
<g id="Moleskine_Small_Open_1_">
</g>
<g id="Moleskine_Large">
</g>
<g id="Moleskine_Small_1_">
</g>
<g id="iPad_Mini">
</g>
<g id="MacBook_13_x22_">
</g>
<g id="iMac_1_">
</g>
<g id="Wallet_2_">
</g>
<g id="iPhone_6_Grey">
</g>
<g id="iPhone_6_Silver_1_">
</g>
<g id="iPhone_6_Gold_1_">
</g>
<g id="Wallet_1_">
</g>
<g id="Bills">
</g>
<g id="Coins_1_">
</g>
<g id="Passport_Red_1_">
</g>
<g id="Passport_Blue_1_">
</g>
<g id="Credit_Card_Red">
</g>
<g id="Credit_Card_Blue">
</g>
<g id="Aeroplane_1_">
</g>
<g id="Magic_Mouse_1_">
</g>
<g id="Keyboard">
</g>
<g id="Ruler_1_">
</g>
<g id="Charger_1_">
</g>
<g id="Macbook_13_x22_">
</g>
<g id="Brushes">
</g>
<g id="Pencils">
</g>
<g id="Can">
</g>
<g id="Coffee">
</g>
<g id="Stylus">
</g>
<g id="Wacom_1_">
</g>
<g id="Paperclips_1_">
</g>
<g id="Earbuds_1_">
</g>
<g id="Glasses">
</g>
<g id="Sunglasses">
</g>
<g id="Case_1_">
</g>
<g id="Donut_1_">
</g>
</svg>
