<?xml version="1.0" encoding="utf-8"?>
<!-- Generator: Adobe Illustrator 16.0.0, SVG Export Plug-In . SVG Version: 6.00 Build 0)  -->
<!DOCTYPE svg PUBLIC "-//W3C//DTD SVG 1.1//EN" "http://www.w3.org/Graphics/SVG/1.1/DTD/svg11.dtd">
<svg version="1.1" xmlns="http://www.w3.org/2000/svg" xmlns:xlink="http://www.w3.org/1999/xlink" x="0px" y="0px" width="370px"
	 height="450px" viewBox="0 0 370 450" enable-background="new 0 0 370 450" xml:space="preserve">
<g id="Camera_Standing">
</g>
<g id="Camera_Lying">
</g>
<g id="Colours_1_">
</g>
<g id="Aquarell_1_">
</g>
<g id="Envelope_big_1_">
</g>
<g id="Envelope_small_1_">
</g>
<g id="Airmail_1_">
</g>
<g id="Highlighters_Closed_1_">
</g>
<g id="Highlighters_Open_1_">
</g>
<g id="USB_Stick_1_">
</g>
<g id="Pencil_Small">
</g>
<g id="Pencil_Large">
</g>
<g id="Brush_3_">
</g>
<g id="Notepad_1_">
</g>
<g id="Moleskine_Large_Open">
</g>
<g id="Moleskine_Small_Open_1_">
</g>
<g id="Moleskine_Large">
</g>
<g id="Moleskine_Small_1_">
</g>
<g id="iPad_Mini">
</g>
<g id="MacBook_13_x22_">
</g>
<g id="iMac_1_">
</g>
<g id="Wallet_2_">
</g>
<g id="iPhone_6_Grey">
</g>
<g id="iPhone_6_Silver_1_">
</g>
<g id="iPhone_6_Gold_1_">
</g>
<g id="Wallet_1_">
</g>
<g id="Bills">
</g>
<g id="Coins_1_">
</g>
<g id="Passport_Red_1_">
	<g id="Background_11_">
		<path fill="#BB4D67" d="M289.536,411.651c-0.459,0-0.925-0.026-1.385-0.078L52.213,384.902c-6.659-0.753-7.073-1.271-6.32-7.935
			L84.906,31.843c0.709-6.277,1.597-6.557,4.566-6.557c0.877,0,1.947,0.075,3.367,0.235l235.938,26.67
			c6.67,0.755,11.484,6.795,10.73,13.464l-37.893,335.188C300.919,407.005,295.727,411.651,289.536,411.651z"/>
		<path fill="#333333" d="M89.474,27.286L89.474,27.286c0.8,0,1.798,0.071,3.142,0.223l235.938,26.67
			c5.574,0.631,9.598,5.679,8.968,11.252l-37.893,335.188c-0.582,5.149-4.92,9.032-10.092,9.032c-0.385,0-0.774-0.022-1.16-0.065
			L52.438,382.915c-3.481-0.394-4.376-0.821-4.604-1.006c-0.129-0.264-0.347-1.233,0.047-4.717L86.894,32.067
			c0.393-3.474,0.82-4.373,1.005-4.604C87.993,27.422,88.39,27.286,89.474,27.286 M89.473,23.286c-4.697,0-5.831,1.939-6.554,8.332
			L43.905,376.743c-0.879,7.779,0.307,9.268,8.083,10.146l235.938,26.671c0.541,0.061,1.078,0.091,1.609,0.091
			c7.117,0,13.248-5.345,14.066-12.583L341.495,65.88c0.879-7.778-4.715-14.796-12.493-15.676L93.064,23.534
			C91.678,23.377,90.491,23.286,89.473,23.286L89.473,23.286z"/>
	</g>
	
		<text transform="matrix(0.9735 0.2285 -0.2285 0.9735 121.2656 325.2852)" fill="#FCC865" font-family="'TimesNewRomanPS-BoldMT'" font-size="30" letter-spacing="1">PASSPORT</text>
	<g id="Emblem_1_">
		<path fill-rule="evenodd" clip-rule="evenodd" fill="#FCC865" d="M220.6,148.969c0,0-1.892-1.277-3.501-2.17
			c-2.154-1.192-4.875-0.411-6.07,1.746c-1.191,2.156-0.406,4.879,1.751,6.069c2.074,1.15,4.635,0.429,5.895-1.544
			c23.001,15.296,30.818,45.886,17.212,70.487c-13.608,24.601-43.661,34.19-68.842,22.836c0.98-2.104,0.227-4.638-1.838-5.774
			c-2.155-1.202-4.878-0.413-6.069,1.746c-1.196,2.156-0.411,4.871,1.745,6.07c1.236,0.686,3.079,1.51,3.079,1.51
			c27.525,13.182,60.881,2.832,75.849-24.224C254.659,198.871,245.954,165.418,220.6,148.969z"/>
		<path fill-rule="evenodd" clip-rule="evenodd" fill="#FCC865" d="M194.009,153.224c-24.521-2.771-46.635,14.852-49.407,39.372
			c-2.771,24.51,14.85,46.635,39.371,49.406c24.52,2.771,46.639-14.861,49.408-39.371
			C236.153,178.112,218.527,155.996,194.009,153.224z M184.441,237.856c-22.23-2.515-38.207-22.557-35.694-44.793
			c2.512-22.224,22.562-38.208,44.793-35.695c22.225,2.513,38.209,22.569,35.696,44.795
			C226.724,224.398,206.666,240.367,184.441,237.856z"/>
		<path fill-rule="evenodd" clip-rule="evenodd" fill="#FCC865" d="M193.862,264.893l-9.324-4.054l0.335-2.956
			c0.185-1.637-0.514-3.057-2.149-3.242c-1.636-0.185-2.635,1.044-2.819,2.68l-0.335,2.959l-10.49,1.812
			c-1.227-0.139-2.873,0.68-3.014,1.912l-0.166,1.473c-0.138,1.225,1.136,2.125,2.365,2.265l25.146,2.843
			c1.229,0.139,2.16-0.513,2.298-1.737l0.167-1.473C196.017,266.141,195.091,265.032,193.862,264.893z"/>
		<g>
			<g>
				<path fill="#FCC865" d="M224.448,184.746c-0.139-0.075-0.312-0.132-0.539-0.151c-0.968-0.071-1.102-0.316-1.033-0.924
					c0.068-0.605,0.876-1.139-0.073-1.378c-0.944-0.23-0.543-0.35-1.296-0.304c-0.749,0.037-2.665-0.012-2.989,0.013
					c-0.336,0.031-1.154,0.493-1.656,0.471c-0.512-0.029-0.644-0.334-1.062-0.154c-0.43,0.18-0.94,0.122-1.362,0.424
					c-0.426,0.312-1.515,1.006-1.468,1.469c0.049,0.453,0.009,1.073-0.573,1.323c-0.577,0.27-1.342,0.954-1.358,1.119
					c-0.019,0.156-0.211,0.108-0.211,0.108c-0.409,0.506-0.904,1.391-1.198,1.707c-0.296,0.328-0.587,0.619-0.569,0.982
					c0.026,0.362,0.667,1.021,0.522,1.463c-0.141,0.432-0.858,0.834-0.874,1.56c-0.006,0.738-0.34,1.676,0.074,2.047
					c0.414,0.372,0.43,0.506,0.588,0.821c0.163,0.309,0.92,1.695,1.269,2.022c0.354,0.329-0.058,0.775,0.881,1.109
					c0.936,0.334,0.549,0.651,1.401,0.519c0.869-0.13,1.1-0.165,1.54-0.09c0.445,0.086,0.882,0.258,1.444,0.163
					c0.563-0.104,1.356-0.787,1.88-0.498c0.518,0.287,0.644,0.028,0.818,0.505s1.019,0.782,1.568,0.802
					c0.546,0.025,0.582-0.031,0.521,0.514c-0.062,0.549-0.293,0.626-0.422,0.884c-0.123,0.258-0.169,0.894-0.202,1.197
					c-0.035,0.312,0.117,0.979,0.645,1.522c0.521,0.55,0.408,0.96,0.416,1.478c0.003,0.52,0.992,1.156,0.845,1.693
					c-0.154,0.538-0.341,1.067-0.395,1.545c-0.054,0.479-0.662,0.384-0.824,1.533c-0.165,1.157-0.082,2.105-0.05,2.697
					c0.031,0.583,0.514,0.9,0.561,1.425c0.032,0.52-1.034,1.604-0.504,2.119c0.153,0.15,0.266,0.348,0.359,0.561
					c2.795-4.542,4.665-9.751,5.304-15.399C227.092,195.729,226.339,189.986,224.448,184.746z M201.083,163.042
					c-0.043,0.381-0.22,1.045-0.22,1.045s-0.588,0.908-0.205,1.393c0.387,0.479,0.712,1.889,0.952,1.959
					c0.231,0.071,0.631-0.034,0.813,0.093c0.185,0.116-0.691,0.948,0.066,0.733c0.747-0.212,0.394-0.928,1.24-1.071
					c0.848-0.147,0.461-1.948,1.472-1.833c1.01,0.114,1.302-0.249,2.033-0.307c0.212-0.019,0.371-0.085,0.514-0.163
					c-1.847-1.053-3.799-1.948-5.838-2.681C201.575,162.521,201.109,162.804,201.083,163.042z M197.255,201.656
					c-0.248-0.467-0.862-0.617-1.76-0.639c-0.866-0.028-0.94-0.036-1.015,0.201c0.053-0.205,0.166-0.788-0.121-0.918
					c-0.397-0.158-0.696-0.729-1.162-0.622c-0.462,0.121-0.513-0.516-0.835-0.552c-0.306-0.034-1.072,0.019-0.741-0.269
					c0.322-0.288,0.714-0.296,0.466-0.667c-0.252-0.369,0.17-0.682-0.324-1.257c-0.492-0.565-0.753-1.087-1.382-1.132
					c-0.63-0.044-0.862,0.096-1.3-0.147c-0.434-0.242-0.6-0.507-0.73-0.687c-0.119-0.19-0.334-0.89-0.713-1.179
					c-0.387-0.29-0.561-0.45-0.813-0.769c-0.262-0.329-0.666-0.637-1.026-0.44c-0.365,0.203-1.673,0.11-1.892-0.118
					c-0.217-0.216-0.203-1.19-0.566-0.774c-0.37,0.434-0.514,0.461-0.646,0.98c-0.137,0.52-0.521,0.942-0.504,0.55
					c0.022-0.386,0.282-1.014,0.354-1.174c0.067-0.167,0.222-1.389-0.111-0.994c-0.336,0.41-1.131,0.995-1.449,0.959
					c-0.307-0.034-0.572-0.091-0.62,0.325c-0.045,0.408-0.478,1-0.731,0.892c-0.258-0.099-0.477-0.712-0.996-0.7
					c-0.51,0.022-1.166,0.404-1.358,0.162c-0.189-0.229-0.754-0.856-0.569-1.602c0.175-0.727,0.801-1.49,0.698-1.87
					c-0.106-0.371-1.076-0.41-1.462-0.455c-0.382-0.042-1.225,0.258-0.876-0.265c0.353-0.523,0.552-1.186,0.755-1.653
					c0.191-0.462,0.434-0.653,0.645-0.797c0.217-0.151-0.006-0.317-0.639-0.389c-0.624-0.07-1.196,0.06-1.407,0.377
					c-0.208,0.318-0.239,1.019-0.525,0.986c-0.291-0.033-0.665-0.174-0.909-0.104c-0.25,0.068-0.374,0.467-0.66,0.196
					c-0.284-0.286-1.438-1.53-0.789-2.95c0.646-1.41,0.689-1.792,0.902-2.127c0.202-0.347,1.344-1.079,1.888-0.992
					c0.55,0.088,1.142,0.691,1.583,0.507c0.426-0.199,0.909,0.064,0.751-0.244c-0.161-0.305,0.019-0.33,0.802-0.144
					c0.779,0.182,1.228,0.103,1.426,0.255c0.208,0.139,0.51,0.305,0.453,0.808c-0.058,0.504,0.241,2.1,0.493,1.84
					c0.253-0.271,0.368-0.645,0.409-1.01c0.042-0.362-0.121-1.96,0.354-2.031c0.474-0.068,1.818-1.277,2.255-1.421
					c0.434-0.153,1.103-1.342,1.165-1.731c0.069-0.379,0.381-0.289,0.688-0.456c0.316-0.157,0.801-0.367,1.025-0.685
					c0.231-0.315,0.937-0.894,1.317-0.851c0.386,0.043,0.761-0.011,0.841-0.291c0.075-0.292,1.555-1.019,2.226-0.986
					c0.683,0.04,0.16,0.569,0.852,0.289c0.688-0.301,1.149-0.31,1.428-0.358c0.268-0.038,0.633-0.2,0.757-0.493
					c0.137-0.31,0.841-0.466,1.518-0.372c0.692,0.104,1.357,0.424,1.414,0.159c0.05-0.259,0.491-1.596,0.16-2.072
					c-0.339-0.477,1.193-1.524,0.596-1.618c-0.596-0.094-1.396-0.808-1.357-1.154c0.037-0.33,0.016-0.999-0.536-1.299
					c-0.552-0.309-1.192-0.195-1.98-0.144c-0.781,0.051,0.233-1.204-0.312-1.512c-0.559-0.3-0.25-1.293-1.57-0.802
					c-1.321,0.475-2.028,0.667-2.28,1.676c-0.265,1.006-1.085,1.781-1.575,1.807c-0.49,0.023-0.202,2.198-0.807,1.497
					c-0.598-0.7,0.042-1.62-0.543-1.65c-0.58-0.039-3.225-0.776-3.127-1.644c0.098-0.868,0.979-2.182,2.101-2.152
					c1.115,0.029,1.293-0.73,1.964-0.611c0.671,0.129,1.115,0.083,1.733,0.195c0.619,0.123,1.9,0.03,1.445-0.266
					c-0.454-0.298,1.23-0.107,1.712-0.053c0.482,0.055,1.033,0.749,1.691,0.973c0.66,0.215,0.833,1.261,1.15,1.009
					c0.328-0.264,0.715-0.262,1.049-0.62c0.33-0.35-0.286-1.394,0.438-1.312c0.727,0.082,1.708,0.044,1.832,0.207
					c0.129,0.155,0.646-0.506,0.082-0.719c-0.56-0.213-0.541-0.994-1.271-1.321c-0.74-0.321-1.201-0.961-1.472-1.14
					c-0.255-0.168-0.289-0.015-0.219-0.66c-0.52-0.081-1.041-0.158-1.568-0.218c-9.823-1.11-19.182,1.691-26.535,7.157
					c0.447,0.742,0.095,0.663,0.045,1.104c-0.056,0.485,0.207,1.584-0.285,1.582c-0.481-0.009-0.771-0.043-1.066,0.854
					c-0.299,0.889-1.864,1.809-2.016,3.144c-0.148,1.327-0.231,1.616-0.217,2.4c0.008,0.781,1.053,0.161,0.964,0.936
					c-0.087,0.771-0.625,2.464-0.184,2.514c0.429,0.049,0.896,1.566,0.943,1.961c0.052,0.392,0.243,1.345,0.243,1.345
					s0.142,0.402,0.463,0.202c0.313-0.211,0.01-0.492,0.01-0.973c0.009-0.492-0.818-1.807-0.358-2
					c0.46-0.185-0.523-1.421-0.132-0.99c0.393,0.439,0.582,1.339,0.717,1.45c0.133,0.112,0.809,0.575,0.791,1.162
					c-0.018,0.577,0.002,0.878,0.366,1.068c0.372,0.183,0.813,0.583,0.728,1.347c-0.088,0.771-0.597,0.958-0.285,1.188
					c0.321,0.23,2.742,1.629,3.373,2.129c0.617,0.51,1.069,0.395,1.398,0.56c0.317,0.179-0.033,1.113,0.982,1.176
					c1.015,0.07,1.912,0.805,1.879,1.091c-0.032,0.285,0.555,1.968,1.021,2.162c0.463,0.202,1.269-0.051,1.229,0.289
					c-0.037,0.336,0.29,0.513,0.474,0.587c0.188,0.066,0.864-0.728,0.871-0.341c0.003,0.388-0.068,1.012,0.072,1.088
					c0.134,0.06-0.331,1.614-0.651,2.114c-0.329,0.497-0.839,0.712-0.939,1.166c-0.1,0.447-0.855,0.677-0.531,0.812
					c0.328,0.142,0.767-0.057,0.61,0.464c-0.159,0.517-1.381,0.764-1.1,1.306c0.276,0.548,1.858,1.236,1.827,1.742
					s-0.163,2.495,0.289,2.79c0.454,0.298,0.36,1.138,0.74,1.232c0.378,0.089,2.097,1.258,2.329,2.285
					c0.222,1.025-0.428,3.34-0.483,4.021c-0.047,0.669,0.107,0.959,0.069,1.533c-0.04,0.585-0.277,3.341-0.355,4.035
					c-0.08,0.703,0.108,1.408,0.13,1.842c0.025,0.44,0.047,3.736,0.457,4.195c0.408,0.458,0.607,0.587,0.543,1.158
					c-0.065,0.573-0.228,0.555,0.204,0.85c0.429,0.293,0.604,1.096,1.027,1.195c0.43,0.092,0.768,0.623,0.93,0.667
					c0.163,0.036,0.044,0.436,0.433,0.479c0.388,0.043,1.006,0.308,1.273,0.363c0.262,0.059,0.694-0.279,0.694-0.279
					s-0.904-0.411-0.999-0.668c-0.097-0.247-0.235-0.957-0.428-0.953c-0.193,0.005-0.478,0.14-0.529-0.06
					c-0.052-0.208-0.28-0.594-0.162-0.737c0.109-0.129,0.413-0.219,0.453-0.334c0.032-0.121-0.258-0.541-0.081-0.6
					c0.173-0.051,0.44-0.213,0.51-0.619c0.072-0.413-0.799-0.484-0.803-0.624c-0.01-0.15-0.216-0.517,0.062-0.556
					c0.268-0.041,0.899-0.436,0.773-0.861c-0.118-0.436-0.486-1.1-0.427-1.366c0.048-0.258,0.432,0.074,0.694,0.079
					c0.272,0.005,0.557,0.038,0.589-0.249c0.034-0.296-0.377-1.168,0.149-1.08c0.525,0.085,1.589,0.389,1.765-0.073
					c0.171-0.465,0.337-0.639,0.127-1.129c-0.216-0.489-0.688-0.805-0.647-0.977c0.044-0.162,0.385,0.238,0.766,0.332
					c0.384,0.095,0.744,0.136,0.964,0.136c0.215-0.001,0.85-0.642,0.924-0.878c0.08-0.229,0.654-0.821,0.79-1.123
					c0.127-0.312,0.303-0.94,0.601-1.002c0.297-0.073,0.291-0.242,0.343-0.48c0.05-0.24-0.33-1.179,0.014-1.432
					c0.351-0.257,0.913-0.923,1.317-0.851c0.405,0.071,0.822-0.415,1.091-0.37c0.267,0.058,0.893,0.269,0.924-0.017
					c0.033-0.287,0.792-1.132,0.988-2.226c0.195-1.101,0.403-1.612,0.462-2.114c0.057-0.505-0.061-0.814,0.46-0.879
					c0.52-0.056,0.557-0.845,1.338-1.456c0.771-0.616,0.481-2.115,0.261-2.307C198.472,202.725,197.491,202.12,197.255,201.656z"/>
			</g>
		</g>
	</g>
	<text id="Text_1_" transform="matrix(0.9735 0.2285 -0.2285 0.9735 202.2383 112.1484)"><tspan x="0" y="0" fill="#FCC865" font-family="'TimesNewRomanPS-BoldItalicMT'" font-size="16">Comunidad de</tspan><tspan x="11.882" y="19.199" fill="#FCC865" font-family="'TimesNewRomanPS-BoldItalicMT'" font-size="16"> Creatticon</tspan></text>
	<path id="Electronic_1_" fill="#FCC865" d="M180.224,359.836c-3.505-0.396-6.101-3.315-6.203-6.74l-7.531-0.851l-0.748,6.624
		c-0.125,1.098,0.665,2.088,1.763,2.211l24.842,2.809c1.097,0.124,2.087-0.666,2.212-1.764l0.748-6.623l-7.531-0.852
		C186.911,357.967,183.729,360.232,180.224,359.836z M194.518,344.678l-24.843-2.807c-1.098-0.126-2.088,0.664-2.212,1.762
		l-0.749,6.625l7.531,0.852c0.864-3.316,4.047-5.582,7.551-5.186c3.505,0.396,6.102,3.314,6.203,6.74l7.532,0.851l0.748-6.624
		C196.403,345.793,195.614,344.801,194.518,344.678z M185.649,353.404c0.289-2.562-1.554-4.873-4.115-5.162
		c-2.562-0.291-4.873,1.551-5.162,4.113c-0.29,2.562,1.553,4.873,4.113,5.162C183.048,357.808,185.358,355.967,185.649,353.404z"/>
</g>
<g id="Passport_Blue_1_">
	<g id="Background_10_">
		<path fill="#284E7E" d="M51.369,399.018c-4.381,0-5.107-0.467-5.427-6.867L28.626,45.259c-0.178-3.577,0.042-5.36,0.761-6.153
			c0.718-0.793,2.469-1.189,6.046-1.368l237.146-11.838c0.207-0.01,0.413-0.015,0.618-0.015c6.488,0,11.824,5.08,12.147,11.566
			l16.816,336.904c0.162,3.248-0.95,6.364-3.132,8.774c-2.182,2.411-5.172,3.828-8.42,3.99L53.463,398.958
			C52.704,398.995,52.007,399.018,51.369,399.018z"/>
		<path fill="#333333" d="M273.197,27.885c5.421,0,9.879,4.246,10.149,9.666l16.816,336.904c0.136,2.715-0.794,5.318-2.617,7.333
			s-4.322,3.198-7.036,3.334L53.363,396.96c-0.771,0.038-1.423,0.058-1.994,0.058c-1.993,0-2.589-0.24-2.715-0.307
			c-0.169-0.242-0.54-1.166-0.714-4.66L30.624,45.159c-0.175-3.499,0.104-4.453,0.248-4.709c0.239-0.169,1.16-0.54,4.66-0.715
			l237.146-11.838C272.852,27.889,273.025,27.885,273.197,27.885 M273.196,23.885c-0.237,0-0.477,0.006-0.717,0.018L35.333,35.74
			c-7.817,0.39-9.094,1.8-8.704,9.618L43.945,392.25c0.35,7.023,1.523,8.768,7.424,8.768c0.669,0,1.398-0.023,2.193-0.062
			l237.146-11.838c7.818-0.39,13.84-7.043,13.449-14.861L287.342,37.352C286.964,29.773,280.701,23.884,273.196,23.885
			L273.196,23.885z"/>
	</g>
	
		<text transform="matrix(0.9988 -0.0498 0.0498 0.9988 77.417 102.9922)" fill="#FCC865" font-family="'TimesNewRomanPS-BoldMT'" font-size="30" letter-spacing="1">PASSPORT</text>
	<g id="Emblem">
		<path fill-rule="evenodd" clip-rule="evenodd" fill="#FCC865" d="M181.478,138.897c0,0-2.075-0.954-3.807-1.574
			c-2.319-0.828-4.878,0.382-5.708,2.703c-0.828,2.322,0.388,4.882,2.709,5.708c2.232,0.799,4.644-0.327,5.567-2.478
			c25.172,11.374,37.834,40.297,28.384,66.775s-37.556,40.802-64.242,33.669c0.628-2.234-0.525-4.613-2.748-5.401
			c-2.319-0.838-4.879,0.382-5.706,2.706c-0.832,2.32,0.382,4.872,2.705,5.707c1.33,0.477,3.281,0.99,3.281,0.99
			c29.296,8.558,60.538-7.05,70.934-36.171C223.158,182.635,209.157,151.029,181.478,138.897z"/>
		<path fill-rule="evenodd" clip-rule="evenodd" fill="#FCC865" d="M155.924,147.396c-24.647,1.23-43.62,22.2-42.39,46.844
			c1.229,24.636,22.196,43.619,46.844,42.39c24.645-1.23,43.621-22.208,42.391-46.844
			C201.539,165.143,180.568,146.167,155.924,147.396z M160.17,232.462c-22.345,1.115-41.354-16.08-42.469-38.43
			c-1.115-22.338,16.086-41.354,38.431-42.47c22.338-1.115,41.355,16.094,42.471,38.432
			C199.718,212.344,182.508,231.347,160.17,232.462z"/>
		<path fill-rule="evenodd" clip-rule="evenodd" fill="#FCC865" d="M173.839,257.619l-9.856-2.49l-0.148-2.974
			c-0.082-1.644-1-2.933-2.646-2.851c-1.644,0.082-2.431,1.455-2.349,3.1l0.148,2.973l-10.059,3.486
			c-1.233,0.061-2.727,1.136-2.665,2.374l0.074,1.481c0.061,1.23,1.464,1.914,2.699,1.852l25.275-1.262
			c1.235-0.062,2.049-0.854,1.987-2.086l-0.073-1.481C176.165,258.504,175.074,257.558,173.839,257.619z"/>
		<g>
			<g>
				<path fill="#FCC865" d="M195.742,189.937c-0.297-5.943-1.968-11.488-4.682-16.354c-0.149-0.052-0.329-0.08-0.558-0.062
					c-0.966,0.084-1.138-0.136-1.168-0.745s0.68-1.266-0.295-1.348c-0.969-0.075-0.593-0.258-1.328-0.092
					c-0.732,0.159-2.632,0.42-2.948,0.497c-0.325,0.085-1.06,0.673-1.559,0.732c-0.51,0.053-0.688-0.227-1.073,0.02
					c-0.395,0.246-0.908,0.272-1.274,0.64c-0.37,0.376-1.333,1.236-1.213,1.686c0.122,0.439,0.184,1.058-0.351,1.398
					c-0.527,0.359-1.169,1.158-1.16,1.323c0.008,0.158-0.189,0.143-0.189,0.143c-0.322,0.564-0.669,1.518-0.907,1.879
					c-0.238,0.37-0.479,0.705-0.402,1.06c0.084,0.354,0.823,0.901,0.751,1.36c-0.068,0.448-0.711,0.962-0.61,1.68
					c0.114,0.729-0.063,1.709,0.405,2.009c0.469,0.299,0.506,0.429,0.713,0.715c0.211,0.278,1.182,1.523,1.579,1.791
					c0.401,0.268,0.068,0.774,1.048,0.951c0.978,0.18,0.647,0.555,1.469,0.286c0.835-0.269,1.057-0.341,1.504-0.338
					c0.453,0.013,0.912,0.112,1.45-0.072c0.541-0.194,1.213-0.996,1.776-0.796c0.558,0.198,0.64-0.076,0.889,0.366
					c0.25,0.442,1.131,0.606,1.678,0.537c0.543-0.063,0.569-0.126,0.597,0.423c0.027,0.551-0.188,0.665-0.273,0.94
					c-0.08,0.274-0.021,0.909-0.007,1.215c0.016,0.313,0.274,0.946,0.883,1.397c0.604,0.459,0.559,0.881,0.65,1.391
					c0.086,0.512,1.166,0.98,1.106,1.535c-0.064,0.555-0.163,1.107-0.14,1.588c0.024,0.48-0.592,0.486-0.564,1.646
					c0.023,1.169,0.26,2.092,0.387,2.67c0.125,0.571,0.652,0.807,0.783,1.316c0.117,0.508-0.761,1.75-0.155,2.173
					c0.176,0.123,0.319,0.301,0.446,0.495C195.022,201.058,196.025,195.614,195.742,189.937z M166.96,194.666
					c-0.32-0.42-0.951-0.469-1.84-0.344c-0.859,0.111-0.934,0.115-0.969,0.361c0.02-0.211,0.037-0.805-0.268-0.886
					c-0.419-0.092-0.804-0.605-1.248-0.427c-0.437,0.195-0.588-0.425-0.913-0.408c-0.308,0.015-1.055,0.191-0.774-0.146
					c0.271-0.337,0.656-0.408,0.352-0.734c-0.309-0.324,0.058-0.7-0.523-1.188c-0.577-0.479-0.919-0.95-1.547-0.894
					c-0.629,0.059-0.835,0.234-1.307,0.065c-0.467-0.17-0.674-0.402-0.831-0.562c-0.149-0.167-0.475-0.822-0.896-1.047
					c-0.428-0.223-0.626-0.354-0.926-0.626c-0.312-0.282-0.76-0.521-1.084-0.27c-0.328,0.261-1.634,0.38-1.887,0.19
					c-0.248-0.179-0.393-1.142-0.685-0.673c-0.294,0.487-0.432,0.538-0.479,1.071c-0.05,0.535-0.36,1.016-0.407,0.624
					c-0.04-0.383,0.114-1.046,0.159-1.214c0.039-0.178-0.006-1.407-0.271-0.965c-0.266,0.459-0.955,1.166-1.273,1.182
					c-0.31,0.016-0.581,0.002-0.56,0.421c0.02,0.409-0.311,1.063-0.579,0.999c-0.27-0.057-0.586-0.626-1.097-0.531
					c-0.498,0.104-1.085,0.588-1.313,0.381c-0.224-0.197-0.883-0.724-0.821-1.488c0.055-0.745,0.55-1.6,0.388-1.96
					c-0.165-0.349-1.13-0.23-1.517-0.211c-0.384,0.019-1.167,0.451-0.908-0.121c0.265-0.573,0.354-1.259,0.479-1.753
					c0.114-0.487,0.322-0.715,0.508-0.891c0.189-0.185-0.058-0.312-0.693-0.28c-0.629,0.031-1.172,0.252-1.328,0.6
					c-0.155,0.348-0.071,1.044-0.359,1.058c-0.293,0.015-0.685-0.063-0.914,0.046c-0.235,0.106-0.293,0.521-0.619,0.3
					c-0.327-0.236-1.666-1.277-1.257-2.783c0.409-1.497,0.391-1.881,0.547-2.246c0.144-0.374,1.151-1.281,1.702-1.284
					c0.557-0.001,1.239,0.499,1.645,0.244c0.388-0.265,0.908-0.082,0.702-0.361c-0.209-0.275-0.036-0.329,0.769-0.271
					c0.798,0.054,1.227-0.097,1.447,0.021c0.228,0.103,0.553,0.218,0.578,0.723c0.024,0.507,0.577,2.034,0.784,1.736
					c0.205-0.308,0.259-0.696,0.24-1.062c-0.019-0.366-0.437-1.916,0.021-2.063c0.455-0.145,1.589-1.554,1.995-1.767
					c0.403-0.221,0.872-1.502,0.87-1.896c0.007-0.385,0.328-0.347,0.605-0.562c0.286-0.207,0.73-0.492,0.901-0.842
					c0.178-0.349,0.779-1.034,1.161-1.053c0.389-0.02,0.75-0.133,0.783-0.423c0.028-0.3,1.37-1.257,2.037-1.334
					c0.681-0.07,0.251,0.537,0.887,0.148c0.631-0.408,1.084-0.491,1.351-0.584c0.259-0.082,0.593-0.301,0.669-0.61
					c0.084-0.327,0.752-0.595,1.438-0.612c0.699-0.01,1.407,0.199,1.42-0.071c0.008-0.263,0.228-1.653-0.177-2.07
					c-0.411-0.416,0.932-1.697,0.325-1.694c-0.602,0.005-1.508-0.57-1.525-0.919c-0.017-0.332-0.146-0.989-0.738-1.194
					c-0.596-0.216-1.21-0.001-1.979,0.178c-0.764,0.177,0.036-1.226-0.552-1.441c-0.6-0.205-0.456-1.234-1.679-0.537
					c-1.227,0.683-1.895,0.986-1.98,2.022c-0.098,1.036-0.782,1.934-1.262,2.037c-0.48,0.103,0.156,2.202-0.554,1.608
					c-0.703-0.594-0.22-1.605-0.803-1.541c-0.578,0.055-3.308-0.245-3.352-1.117c-0.044-0.873,0.613-2.311,1.724-2.462
					c1.105-0.152,1.158-0.931,1.841-0.922c0.683,0.019,1.113-0.099,1.743-0.087c0.629,0.021,1.879-0.277,1.382-0.496
					c-0.496-0.221,1.197-0.306,1.681-0.33c0.485-0.023,1.141,0.573,1.827,0.687c0.686,0.105,1.025,1.11,1.298,0.81
					c0.281-0.312,0.662-0.373,0.935-0.781c0.27-0.397-0.509-1.329,0.222-1.365s1.691-0.232,1.841-0.092
					c0.152,0.132,0.555-0.604-0.036-0.723c-0.587-0.119-0.693-0.893-1.469-1.099c-0.78-0.196-1.339-0.753-1.635-0.886
					c-0.278-0.125-0.288,0.031-0.322-0.617c-0.526,0.004-1.053,0.013-1.584,0.039c-9.874,0.493-18.656,4.771-25.029,11.355
					c0.562,0.66,0.202,0.637,0.224,1.082c0.024,0.488,0.462,1.53-0.025,1.608c-0.477,0.067-0.768,0.082-0.914,1.015
					c-0.15,0.926-1.546,2.086-1.479,3.429c0.066,1.333,0.033,1.632,0.173,2.403c0.135,0.771,1.065-0.012,1.104,0.766
					c0.038,0.775-0.219,2.534,0.225,2.512c0.432-0.021,1.136,1.402,1.247,1.783c0.114,0.378,0.457,1.287,0.457,1.287
					s0.206,0.374,0.491,0.123c0.274-0.257-0.072-0.485-0.148-0.961c-0.071-0.486-1.101-1.648-0.677-1.914
					c0.423-0.257-0.747-1.317-0.292-0.957c0.459,0.37,0.792,1.229,0.943,1.316c0.148,0.088,0.891,0.437,0.969,1.019
					c0.076,0.573,0.144,0.866,0.533,0.995c0.396,0.12,0.897,0.443,0.936,1.211c0.039,0.775-0.433,1.043-0.089,1.219
					c0.354,0.175,2.971,1.162,3.673,1.555c0.692,0.403,1.12,0.216,1.472,0.327c0.341,0.124,0.146,1.103,1.159,1.001
					c1.013-0.095,2.017,0.484,2.03,0.772c0.015,0.286,0.865,1.852,1.356,1.968c0.49,0.124,1.244-0.255,1.262,0.086
					c0.017,0.338,0.367,0.461,0.562,0.504c0.194,0.035,0.734-0.858,0.804-0.478c0.065,0.381,0.097,1.009,0.248,1.062
					c0.142,0.037-0.066,1.646-0.3,2.19c-0.245,0.545-0.714,0.84-0.74,1.304c-0.024,0.456-0.733,0.806-0.393,0.886
					c0.347,0.087,0.747-0.179,0.677,0.358c-0.072,0.537-1.238,0.979-0.873,1.467c0.36,0.497,2.032,0.92,2.083,1.424
					c0.053,0.504,0.244,2.489,0.738,2.707c0.496,0.221,0.538,1.064,0.93,1.098c0.388,0.025,2.271,0.9,2.667,1.877
					c0.384,0.977,0.118,3.366,0.174,4.046c0.062,0.668,0.26,0.93,0.316,1.503c0.055,0.583,0.266,3.341,0.301,4.038
					c0.035,0.707,0.336,1.372,0.427,1.797c0.097,0.431,0.651,3.68,1.129,4.066c0.479,0.386,0.695,0.48,0.724,1.056
					c0.029,0.576-0.135,0.584,0.339,0.804c0.471,0.222,0.774,0.984,1.207,1.015c0.44,0.021,0.857,0.491,1.025,0.508
					c0.168,0.01,0.113,0.423,0.505,0.403c0.39-0.02,1.043,0.141,1.315,0.153c0.267,0.015,0.64-0.389,0.64-0.389
					s-0.959-0.259-1.095-0.498c-0.135-0.228-0.387-0.906-0.575-0.87c-0.19,0.035-0.449,0.215-0.532,0.026
					c-0.085-0.196-0.372-0.541-0.28-0.702c0.089-0.146,0.375-0.281,0.395-0.403c0.012-0.124-0.343-0.491-0.177-0.577
					c0.162-0.079,0.4-0.282,0.403-0.693c0.004-0.42-0.867-0.35-0.895-0.487c-0.034-0.146-0.296-0.475-0.028-0.558
					c0.258-0.083,0.818-0.574,0.624-0.975c-0.187-0.411-0.657-1.008-0.642-1.279c0.006-0.264,0.438,0.004,0.698-0.035
					c0.27-0.039,0.556-0.053,0.542-0.342c-0.015-0.296-0.562-1.09-0.028-1.09c0.533-0.001,1.631,0.127,1.729-0.357
					c0.094-0.485,0.229-0.684-0.057-1.134c-0.292-0.448-0.811-0.683-0.798-0.858c0.018-0.168,0.419,0.172,0.809,0.204
					c0.395,0.03,0.757,0.013,0.975-0.023c0.212-0.036,0.734-0.77,0.771-1.016c0.041-0.238,0.513-0.916,0.596-1.237
					c0.076-0.326,0.148-0.977,0.432-1.085c0.282-0.12,0.248-0.284,0.262-0.529c0.009-0.245-0.517-1.109-0.22-1.414
					c0.305-0.312,0.752-1.06,1.162-1.054c0.412,0.006,0.745-0.542,1.018-0.541c0.272,0.014,0.924,0.121,0.909-0.166
					c-0.014-0.287,0.599-1.244,0.615-2.355c0.015-1.118,0.138-1.656,0.113-2.162c-0.025-0.507-0.19-0.794,0.312-0.94
					c0.505-0.141,0.413-0.924,1.085-1.653c0.661-0.733,0.132-2.166-0.116-2.319C168.333,195.523,167.269,195.087,166.96,194.666z
					 M164.493,155.941c0.019,0.383-0.049,1.067-0.049,1.067s-0.434,0.991,0.022,1.407c0.46,0.412,1.01,1.748,1.257,1.779
					c0.24,0.032,0.617-0.136,0.818-0.041c0.2,0.086-0.529,1.048,0.185,0.714c0.702-0.329,0.237-0.979,1.051-1.257
					c0.812-0.284,0.14-1.998,1.155-2.049c1.015-0.051,1.245-0.455,1.957-0.631c0.206-0.053,0.354-0.143,0.48-0.244
					c-1.992-0.739-4.064-1.308-6.194-1.701C164.895,155.35,164.481,155.703,164.493,155.941z"/>
			</g>
		</g>
	</g>
	<text id="Text" transform="matrix(0.9988 -0.0498 0.0498 0.9988 121.4521 298.041)"><tspan x="0" y="0" fill="#FCC865" font-family="'TimesNewRomanPS-BoldItalicMT'" font-size="16">United States</tspan><tspan x="0.448" y="19.2" fill="#FCC865" font-family="'TimesNewRomanPS-BoldItalicMT'" font-size="16">of Creatticon</tspan></text>
	<path id="Electronic" fill="#FCC865" d="M175.734,353.519c-3.522,0.176-6.557-2.284-7.211-5.647l-7.57,0.377l0.333,6.658
		c0.055,1.104,0.994,1.953,2.097,1.898l24.97-1.247c1.103-0.055,1.952-0.993,1.897-2.097l-0.333-6.658l-7.569,0.378
		C182.031,350.592,179.257,353.342,175.734,353.519z M187.388,336.249l-24.969,1.246c-1.103,0.056-1.952,0.994-1.897,2.097
		l0.332,6.659l7.57-0.378c0.316-3.412,3.09-6.162,6.612-6.338s6.557,2.285,7.212,5.648l7.569-0.379l-0.332-6.658
		C189.431,337.043,188.491,336.193,187.388,336.249z M180.048,346.294c-0.129-2.575-2.32-4.558-4.895-4.429
		c-2.575,0.128-4.559,2.32-4.43,4.895c0.128,2.574,2.319,4.559,4.895,4.43S180.177,348.869,180.048,346.294z"/>
</g>
<g id="Credit_Card_Red">
</g>
<g id="Credit_Card_Blue">
</g>
<g id="Aeroplane_1_">
</g>
<g id="Magic_Mouse_1_">
</g>
<g id="Keyboard">
</g>
<g id="Ruler_1_">
</g>
<g id="Charger_1_">
</g>
<g id="Macbook_13_x22_">
</g>
<g id="Brushes">
</g>
<g id="Pencils">
</g>
<g id="Can">
</g>
<g id="Coffee">
</g>
<g id="Stylus">
</g>
<g id="Wacom_1_">
</g>
<g id="Paperclips_1_">
</g>
<g id="Earbuds_1_">
</g>
<g id="Glasses">
</g>
<g id="Sunglasses">
</g>
<g id="Case_1_">
</g>
<g id="Donut_1_">
</g>
</svg>
