<?xml version="1.0" encoding="utf-8"?>
<!-- Generator: Adobe Illustrator 16.0.0, SVG Export Plug-In . SVG Version: 6.00 Build 0)  -->
<!DOCTYPE svg PUBLIC "-//W3C//DTD SVG 1.1//EN" "http://www.w3.org/Graphics/SVG/1.1/DTD/svg11.dtd">
<svg version="1.1" xmlns="http://www.w3.org/2000/svg" xmlns:xlink="http://www.w3.org/1999/xlink" x="0px" y="0px" width="40px"
	 height="370px" viewBox="0 0 40 370" enable-background="new 0 0 40 370" xml:space="preserve">
<g id="Camera_Standing">
</g>
<g id="Camera_Lying">
</g>
<g id="Colours_1_">
</g>
<g id="Aquarell_1_">
</g>
<g id="Envelope_big_1_">
</g>
<g id="Envelope_small_1_">
</g>
<g id="Airmail_1_">
</g>
<g id="Highlighters_Closed_1_">
</g>
<g id="Highlighters_Open_1_">
</g>
<g id="USB_Stick_1_">
</g>
<g id="Pencil_Small">
	<g id="rubber">
		<path fill="#BB4D67" d="M11.712,283.695V21.107c1.096-1.107,4.235-3.768,9.144-3.768c5.596,0,8.3,2.623,9.144,3.648v262.721
			l-8.983,22.697L11.712,283.695z"/>
		<path fill="#333333" d="M20.856,19.34c3.967,0,6.168,1.512,7.144,2.439v261.547l-7.015,17.727l-7.272-17.75V21.982
			C14.932,20.939,17.372,19.34,20.856,19.34 M20.856,15.34c-7.19,0-11.144,5-11.144,5v263.75l11.337,27.67L32,284.09V20.34
			C32,20.34,29,15.34,20.856,15.34L20.856,15.34z"/>
	</g>
	<g id="metal_1_">
		<path fill="#E2E2E2" d="M11.712,302.695V40.107c1.096-1.107,4.235-3.768,9.144-3.768c5.596,0,8.3,2.623,9.144,3.648v262.721
			l-8.983,22.697L11.712,302.695z"/>
		<path fill="#333333" d="M20.856,38.34c3.967,0,6.168,1.512,7.144,2.439v261.547l-7.015,17.727l-7.272-17.75V40.982
			C14.932,39.939,17.372,38.34,20.856,38.34 M20.856,34.34c-7.19,0-11.144,5-11.144,5v263.75l11.337,27.67L32,303.09V39.34
			C32,39.34,29,34.34,20.856,34.34L20.856,34.34z"/>
	</g>
	<path id="metal_border_1_" fill="none" stroke="#616263" stroke-width="2" stroke-miterlimit="10" d="M11.375,45.715
		c0,0,4.213-3.375,9.481-3.375s9.269,3.375,9.269,3.375"/>
	<path id="metal_border" fill="none" stroke="#616263" stroke-width="2" stroke-miterlimit="10" d="M11.375,49.715
		c0,0,4.213-3.375,9.481-3.375s9.269,3.375,9.269,3.375"/>
	<g id="border_16_">
		<path fill="#333333" d="M20.856,38.34c3.967,0,6.168,1.512,7.144,2.439v261.547l-7.015,17.727l-7.272-17.75V40.982
			C14.932,39.939,17.372,38.34,20.856,38.34 M20.856,34.34c-7.19,0-11.144,5-11.144,5v263.75l11.337,27.67L32,303.09V39.34
			C32,39.34,29,34.34,20.856,34.34L20.856,34.34z"/>
	</g>
	<g id="tip_wood_1_">
		<polygon fill="#FEF7CE" points="11.712,329.695 11.712,67.402 17.736,63.34 23.661,63.34 30,67.43 30,329.709 21.017,352.406 		
			"/>
		<path fill="#333333" d="M23.072,65.34L28,68.52v260.807l-7.015,17.727l-7.272-17.75V68.467l4.636-3.127H23.072 M24.25,61.34
			h-7.125l-7.413,5v263.75l11.337,27.67L32,330.09V66.34L24.25,61.34L24.25,61.34z"/>
	</g>
	<g id="wood_1_">
		<path fill="#FCC865" d="M32,66.34v263.75c0,0-3.756-1.068-4.531-1.902c-0.851-0.916-1.969-5.098-1.969-5.098
			s-3.249,1.918-4.332,1.949c-1.011,0.029-4.043-1.699-4.043-1.699s-1.752,3.848-2.683,4.695c-0.922,0.84-4.73,2.055-4.73,2.055
			V66.34l7.413-5h7.125L32,66.34z"/>
	</g>
	<g id="border_15_">
		<path fill="#333333" d="M23.072,65.34L28,68.52v260.807l-7.015,17.727l-7.272-17.75V68.467l4.636-3.127H23.072 M24.25,61.34
			h-7.125l-7.413,5v263.75l11.337,27.67L32,330.09V66.34L24.25,61.34L24.25,61.34z"/>
	</g>
	<path id="border_14_" fill="none" stroke="#333333" stroke-width="2" stroke-miterlimit="10" d="M31,330.09
		c-3.729-0.324-4.81-3.785-5.5-7c-3.125,2.5-5.125,2.625-8.375,0.25c-1.625,4.375-2.75,5.213-6.375,6.918"/>
	<path id="tip_2_" fill="#333333" d="M21.049,357.76L27,342.473c0,0-1.583-3.713-5.951-3.713c-4.299,0-6.049,3.713-6.049,3.713
		L21.049,357.76z"/>
	
		<line id="border_13_" fill="none" stroke="#333333" stroke-width="2" stroke-linecap="round" stroke-miterlimit="10" x1="17.125" y1="63.34" x2="17.125" y2="269.34"/>
	
		<line id="border_12_" fill="none" stroke="#333333" stroke-width="2" stroke-linecap="round" stroke-miterlimit="10" x1="24.125" y1="63.34" x2="24.125" y2="269.34"/>
</g>
<g id="Pencil_Large">
</g>
<g id="Brush_3_">
</g>
<g id="Notepad_1_">
</g>
<g id="Moleskine_Large_Open">
</g>
<g id="Moleskine_Small_Open_1_">
</g>
<g id="Moleskine_Large">
</g>
<g id="Moleskine_Small_1_">
</g>
<g id="iPad_Mini">
</g>
<g id="MacBook_13_x22_">
</g>
<g id="iMac_1_">
</g>
<g id="Wallet_2_">
</g>
<g id="iPhone_6_Grey">
</g>
<g id="iPhone_6_Silver_1_">
</g>
<g id="iPhone_6_Gold_1_">
</g>
<g id="Wallet_1_">
</g>
<g id="Bills">
</g>
<g id="Coins_1_">
</g>
<g id="Passport_Red_1_">
</g>
<g id="Passport_Blue_1_">
</g>
<g id="Credit_Card_Red">
</g>
<g id="Credit_Card_Blue">
</g>
<g id="Aeroplane_1_">
</g>
<g id="Magic_Mouse_1_">
</g>
<g id="Keyboard">
</g>
<g id="Ruler_1_">
</g>
<g id="Charger_1_">
</g>
<g id="Macbook_13_x22_">
</g>
<g id="Brushes">
</g>
<g id="Pencils">
</g>
<g id="Can">
</g>
<g id="Coffee">
</g>
<g id="Stylus">
</g>
<g id="Wacom_1_">
</g>
<g id="Paperclips_1_">
</g>
<g id="Earbuds_1_">
</g>
<g id="Glasses">
</g>
<g id="Sunglasses">
</g>
<g id="Case_1_">
</g>
<g id="Donut_1_">
</g>
</svg>
