<?xml version="1.0" encoding="utf-8"?>
<!-- Generator: Adobe Illustrator 16.0.0, SVG Export Plug-In . SVG Version: 6.00 Build 0)  -->
<!DOCTYPE svg PUBLIC "-//W3C//DTD SVG 1.1//EN" "http://www.w3.org/Graphics/SVG/1.1/DTD/svg11.dtd">
<svg version="1.1" xmlns="http://www.w3.org/2000/svg" xmlns:xlink="http://www.w3.org/1999/xlink" x="0px" y="0px" width="40px"
	 height="490px" viewBox="0 0 40 490" enable-background="new 0 0 40 490" xml:space="preserve">
<g id="Camera_Standing">
</g>
<g id="Camera_Lying">
</g>
<g id="Colours_1_">
</g>
<g id="Aquarell_1_">
</g>
<g id="Envelope_big_1_">
</g>
<g id="Envelope_small_1_">
</g>
<g id="Airmail_1_">
</g>
<g id="Highlighters_Closed_1_">
</g>
<g id="Highlighters_Open_1_">
</g>
<g id="USB_Stick_1_">
</g>
<g id="Pencil_Small">
</g>
<g id="Pencil_Large">
	<g id="Rubber_1_">
		<path fill="#BB4D67" d="M12.212,403.698V21.11c1.096-1.108,4.235-3.769,9.144-3.769c5.563,0,8.308,2.653,9.144,3.653v382.716
			l-8.983,22.698L12.212,403.698z"/>
		<path fill="#333333" d="M21.356,19.342c3.967,0,6.168,1.513,7.144,2.439v381.548l-7.015,17.726l-7.272-17.75V21.98
			C15.42,20.95,17.865,19.342,21.356,19.342 M21.356,15.342c-7.19,0-11.144,5-11.144,5v383.75l11.337,27.671L32.5,404.092V20.342
			C32.5,20.342,29.5,15.342,21.356,15.342L21.356,15.342z"/>
	</g>
	<g id="Metal">
		<path fill="#E2E2E2" d="M12.212,422.698V40.11c1.096-1.108,4.235-3.769,9.144-3.769c5.563,0,8.308,2.653,9.144,3.653v382.716
			l-8.983,22.698L12.212,422.698z"/>
		<path fill="#333333" d="M21.356,38.342c3.967,0,6.168,1.513,7.144,2.439v381.548l-7.015,17.726l-7.272-17.75V40.98
			C15.42,39.95,17.865,38.342,21.356,38.342 M21.356,34.342c-7.19,0-11.144,5-11.144,5v383.75l11.337,27.671L32.5,423.092V39.342
			C32.5,39.342,29.5,34.342,21.356,34.342L21.356,34.342z"/>
	</g>
	<path id="Metal_Border_1_" fill="none" stroke="#616263" stroke-width="2" stroke-miterlimit="10" d="M11.875,45.717
		c0,0,4.213-3.375,9.481-3.375s9.269,3.375,9.269,3.375"/>
	<path id="Metal_Border" fill="none" stroke="#616263" stroke-width="2" stroke-miterlimit="10" d="M11.875,49.717
		c0,0,4.213-3.375,9.481-3.375s9.269,3.375,9.269,3.375"/>
	<g id="border_11_">
		<path fill="#333333" d="M21.356,38.342c3.967,0,6.168,1.513,7.144,2.439v381.548l-7.015,17.726l-7.272-17.75V40.98
			C15.42,39.95,17.865,38.342,21.356,38.342 M21.356,34.342c-7.19,0-11.144,5-11.144,5v383.75l11.337,27.671L32.5,423.092V39.342
			C32.5,39.342,29.5,34.342,21.356,34.342L21.356,34.342z"/>
	</g>
	<g id="tip_wood">
		<polygon fill="#FEF7CE" points="12.212,449.698 12.212,67.405 18.236,63.342 24.161,63.342 30.5,67.432 30.5,449.711 
			21.517,472.409 		"/>
		<path fill="#333333" d="M23.572,65.342l4.928,3.18v380.808l-7.015,17.726l-7.272-17.75V68.469l4.636-3.127H23.572 M24.75,61.342
			h-7.125l-7.413,5v383.75l11.337,27.671L32.5,450.092V66.342L24.75,61.342L24.75,61.342z"/>
	</g>
	<g id="wood">
		<path fill="#FCC865" d="M32.5,66.342v383.75c0,0-3.756-1.068-4.531-1.902c-0.851-0.916-1.969-5.098-1.969-5.098
			s-3.249,1.918-4.332,1.949c-1.011,0.03-4.043-1.699-4.043-1.699s-1.752,3.849-2.683,4.696c-0.922,0.84-4.73,2.054-4.73,2.054
			V66.342l7.413-5h7.125L32.5,66.342z"/>
	</g>
	<g id="border_10_">
		<path fill="#333333" d="M23.572,65.342l4.928,3.18v380.808l-7.015,17.726l-7.272-17.75V68.469l4.636-3.127H23.572 M24.75,61.342
			h-7.125l-7.413,5v383.75l11.337,27.671L32.5,450.092V66.342L24.75,61.342L24.75,61.342z"/>
	</g>
	<path id="border_9_" fill="none" stroke="#333333" stroke-width="2" stroke-miterlimit="10" d="M31.5,450.092
		c-3.729-0.324-4.81-3.785-5.5-7c-3.125,2.5-5.125,2.625-8.375,0.25c-1.625,4.375-2.75,5.214-6.375,6.919"/>
	<path id="tip_1_" fill="#333333" d="M21.549,477.763l5.951-15.287c0,0-1.583-3.713-5.951-3.713c-4.299,0-6.049,3.713-6.049,3.713
		L21.549,477.763z"/>
	
		<line id="border_8_" fill="none" stroke="#333333" stroke-width="2" stroke-linecap="round" stroke-miterlimit="10" x1="17.625" y1="63.342" x2="17.625" y2="389.342"/>
	
		<line id="border_7_" fill="none" stroke="#333333" stroke-width="2" stroke-linecap="round" stroke-miterlimit="10" x1="24.625" y1="63.342" x2="24.625" y2="389.342"/>
</g>
<g id="Brush_3_">
</g>
<g id="Notepad_1_">
</g>
<g id="Moleskine_Large_Open">
</g>
<g id="Moleskine_Small_Open_1_">
</g>
<g id="Moleskine_Large">
</g>
<g id="Moleskine_Small_1_">
</g>
<g id="iPad_Mini">
</g>
<g id="MacBook_13_x22_">
</g>
<g id="iMac_1_">
</g>
<g id="Wallet_2_">
</g>
<g id="iPhone_6_Grey">
</g>
<g id="iPhone_6_Silver_1_">
</g>
<g id="iPhone_6_Gold_1_">
</g>
<g id="Wallet_1_">
</g>
<g id="Bills">
</g>
<g id="Coins_1_">
</g>
<g id="Passport_Red_1_">
</g>
<g id="Passport_Blue_1_">
</g>
<g id="Credit_Card_Red">
</g>
<g id="Credit_Card_Blue">
</g>
<g id="Aeroplane_1_">
</g>
<g id="Magic_Mouse_1_">
</g>
<g id="Keyboard">
</g>
<g id="Ruler_1_">
</g>
<g id="Charger_1_">
</g>
<g id="Macbook_13_x22_">
</g>
<g id="Brushes">
</g>
<g id="Pencils">
</g>
<g id="Can">
</g>
<g id="Coffee">
</g>
<g id="Stylus">
</g>
<g id="Wacom_1_">
</g>
<g id="Paperclips_1_">
</g>
<g id="Earbuds_1_">
</g>
<g id="Glasses">
</g>
<g id="Sunglasses">
</g>
<g id="Case_1_">
</g>
<g id="Donut_1_">
</g>
</svg>
