<?xml version="1.0" encoding="utf-8"?>
<!-- Generator: Adobe Illustrator 16.0.0, SVG Export Plug-In . SVG Version: 6.00 Build 0)  -->
<!DOCTYPE svg PUBLIC "-//W3C//DTD SVG 1.1//EN" "http://www.w3.org/Graphics/SVG/1.1/DTD/svg11.dtd">
<svg version="1.1" xmlns="http://www.w3.org/2000/svg" xmlns:xlink="http://www.w3.org/1999/xlink" x="0px" y="0px" width="350px"
	 height="350px" viewBox="0 0 350 350" enable-background="new 0 0 350 350" xml:space="preserve">
<g id="Camera_Standing">
</g>
<g id="Camera_Lying">
</g>
<g id="Colours_1_">
</g>
<g id="Aquarell_1_">
</g>
<g id="Envelope_big_1_">
</g>
<g id="Envelope_small_1_">
</g>
<g id="Airmail_1_">
</g>
<g id="Highlighters_Closed_1_">
</g>
<g id="Highlighters_Open_1_">
</g>
<g id="USB_Stick_1_">
</g>
<g id="Pencil_Small">
</g>
<g id="Pencil_Large">
</g>
<g id="Brush_3_">
</g>
<g id="Notepad_1_">
</g>
<g id="Moleskine_Large_Open">
</g>
<g id="Moleskine_Small_Open_1_">
</g>
<g id="Moleskine_Large">
</g>
<g id="Moleskine_Small_1_">
</g>
<g id="iPad_Mini">
</g>
<g id="MacBook_13_x22_">
</g>
<g id="iMac_1_">
</g>
<g id="Wallet_2_">
</g>
<g id="iPhone_6_Grey">
</g>
<g id="iPhone_6_Silver_1_">
</g>
<g id="iPhone_6_Gold_1_">
</g>
<g id="Wallet_1_">
</g>
<g id="Bills">
</g>
<g id="Coins_1_">
</g>
<g id="Passport_Red_1_">
</g>
<g id="Passport_Blue_1_">
</g>
<g id="Credit_Card_Red">
</g>
<g id="Credit_Card_Blue">
</g>
<g id="Aeroplane_1_">
</g>
<g id="Magic_Mouse_1_">
</g>
<g id="Keyboard">
</g>
<g id="Ruler_1_">
</g>
<g id="Charger_1_">
</g>
<g id="Macbook_13_x22_">
</g>
<g id="Brushes">
</g>
<g id="Pencils">
	<g id="background">
		<circle fill="#333333" cx="166.184" cy="184.876" r="113.386"/>
	</g>
	<g id="glass">
		<path fill="#FCC865" d="M166.184,296.262c-61.418,0-111.386-49.968-111.386-111.386c0-61.418,49.968-111.386,111.386-111.386
			s111.386,49.967,111.386,111.386C277.569,246.294,227.602,296.262,166.184,296.262z M166.184,89.876c-52.383,0-95,42.617-95,95
			c0,52.383,42.617,95,95,95s95-42.617,95-95C261.184,132.493,218.566,89.876,166.184,89.876z"/>
		<path fill="#333333" d="M166.184,75.49c29.218,0,56.688,11.378,77.348,32.039c20.66,20.66,32.038,48.129,32.038,77.347
			s-11.378,56.688-32.038,77.348s-48.13,32.038-77.348,32.038s-56.688-11.378-77.348-32.038s-32.038-48.13-32.038-77.348
			s11.378-56.687,32.038-77.347C109.496,86.868,136.966,75.49,166.184,75.49 M166.184,281.876c53.486,0,97-43.514,97-97
			c0-53.486-43.514-97-97-97s-97,43.514-97,97C69.184,238.362,112.697,281.876,166.184,281.876 M166.184,71.49
			c-62.621,0-113.386,50.765-113.386,113.386s50.765,113.386,113.386,113.386s113.386-50.765,113.386-113.386
			S228.805,71.49,166.184,71.49L166.184,71.49z M166.184,277.876c-51.363,0-93-41.637-93-93s41.637-93,93-93s93,41.637,93,93
			S217.547,277.876,166.184,277.876L166.184,277.876z"/>
	</g>
	<g id="pencil_2_">
		<g>
			<polygon fill="#FEF7CE" points="-3.957,207.135 16.928,191.376 106.38,174.108 111.622,180.131 113.09,185.761 111.504,191.903 
				22.772,212.193 			"/>
			<path fill="#333333" d="M105.627,176.29l4.178,4.8l1.219,4.674l-1.152,4.46l-87.137,19.927L0.854,206.01l16.908-12.758
				L105.627,176.29 M107.132,171.926L16.093,189.5l-24.861,18.76l31.58,5.977l90.324-20.655l2.021-7.822l-1.718-6.587
				L107.132,171.926L107.132,171.926z"/>
		</g>
		<path fill="none" stroke="#333333" stroke-width="2" stroke-miterlimit="10" d="M22.929,212.991
			c-0.404-3.721,2.155-6.584,5.176-7.884c-3.443-2.955-3.866-5.903-2.732-10.133c-4.819-0.369-6.319-1.348-8.694-4.573"/>
		<path fill="#333333" d="M-8.769,208.26l17.991,3.404c0,0,2.45-4.498,1.352-7.948c-1.101-3.451-5.782-5.689-5.782-5.689
			L-8.769,208.26z"/>
		
			<line fill="none" stroke="#333333" stroke-width="2" stroke-linecap="round" stroke-miterlimit="10" x1="115.156" y1="185.759" x2="49.865" y2="200.201"/>
		
			<line fill="none" stroke="#333333" stroke-width="2" stroke-linecap="round" stroke-miterlimit="10" x1="112.584" y1="179.092" x2="47.299" y2="191.424"/>
	</g>
	<g id="pen_5_">
		<g>
			<polygon fill="#535454" points="173.165,147.379 175.746,74.152 194.913,72.017 185.594,160.067 			"/>
			<path fill="#333333" d="M192.662,74.28l-8.61,81.354l-8.858-9.042l2.491-70.644L192.662,74.28 M197.164,69.754l-23.355,2.602
				l-2.673,75.811l16,16.333L197.164,69.754L197.164,69.754z"/>
		</g>
		<g>
			<path fill="#58B6B4" d="M186.209,78.989c-3.012,0-6.282-1.548-9.999-4.732c-3.604-3.087-4.562-13.727-2.629-29.191
				c1.621-12.969,4.857-25.99,6.138-29.333c1.926-5.032,1.926-5.032,5.886-5.664c0.954-0.152,1.737-0.227,2.395-0.227
				c2.19,0,2.505,0.504,3.958,4.467l0.427,1.157c2.282,6.087,10.827,50.438,4.923,56.883
				C193.1,76.941,189.678,78.989,186.209,78.989z"/>
			<path fill="#333333" d="M187.999,11.842c0.441,0,0.668,0.045,0.757,0.069c0.338,0.402,0.883,1.887,1.323,3.088
				c0.137,0.373,0.28,0.762,0.433,1.168c0.777,2.074,3.646,14.367,5.44,27.75c3.116,23.242,0.014,26.936-0.12,27.082
				c-3.796,4.143-6.764,5.991-9.623,5.991c-2.514,0-5.359-1.391-8.698-4.251c-2.346-2.01-4.089-10.27-1.945-27.424
				c1.602-12.811,4.771-25.602,6.021-28.866c1.093-2.855,1.592-3.69,1.803-3.876c0.287-0.169,1.584-0.376,2.531-0.528
				C186.757,11.91,187.456,11.842,187.999,11.842 M187.999,7.842c-0.766,0-1.658,0.083-2.71,0.251
				c-4.438,0.709-5.112,0.848-7.438,6.924c-2.706,7.066-12.99,52.148-2.942,60.758c4.264,3.653,7.941,5.214,11.301,5.214
				c4.557,0,8.526-2.872,12.572-7.289c7.03-7.674-2.494-53.52-4.524-58.937C192.547,10.203,192.07,7.842,187.999,7.842
				L187.999,7.842z"/>
		</g>
	</g>
	<g id="pen_4_">
		<g>
			<polygon fill="#D6D6D6" points="87.994,116.751 97.162,94.89 157.185,118.082 158.647,133.404 			"/>
			<path fill="#333333" d="M98.255,97.456l57.056,22.046l1.08,11.316l-65.639-15.471L98.255,97.456 M96.069,92.323l-10.833,25.833
				l75.667,17.834l-1.846-19.329L96.069,92.323L96.069,92.323z"/>
		</g>
		<g>
			<path fill="#535454" d="M87.817,116.398c-0.728,0-1.473-0.07-2.216-0.208c-7.066-1.314-7.066-1.314-12.135-2.786
				c-10.343-3.003-8.585-11.979-8.127-13.747c2.025-7.832,7.774-10.611,12.082-10.611c0.948,0,1.886,0.125,2.784,0.372
				c3.363,0.925,7.056,2.152,10.022,3.138c2.157,0.717,4.021,1.337,5.306,1.694c0.305,0.112,1.268,1.035,2.236,3.155
				c1.42,3.103,2.309,7.67,1.096,10.877C97,113.212,92.664,116.398,87.817,116.398z"/>
			<path fill="#333333" d="M77.422,91.046L77.422,91.046c0.77,0,1.527,0.101,2.254,0.301c3.312,0.911,6.977,2.129,9.922,3.107
				c1.993,0.663,3.738,1.243,5.042,1.621c1.462,1.401,3.768,7.767,2.355,11.5c-1.568,4.145-5.171,6.823-9.178,6.823
				c-0.604,0-1.228-0.059-1.85-0.174c-6.97-1.296-6.97-1.296-11.949-2.742c-2.11-0.613-8.833-3.24-6.743-11.324
				C69.016,93.433,73.828,91.046,77.422,91.046 M77.422,87.046c-5.841,0-11.922,4.004-14.019,12.11
				c-2.5,9.666,4.333,14.667,9.5,16.167s5.166,1.5,12.333,2.833c0.88,0.164,1.741,0.242,2.581,0.242
				c6.003,0,10.872-3.999,12.919-9.408c2.333-6.166-1.667-15.834-4.667-16.667s-9.525-3.236-15.333-4.833
				C79.66,87.194,78.546,87.046,77.422,87.046L77.422,87.046z"/>
		</g>
		<g>
			<path fill="#535454" d="M75.727,112.861c-0.923,0-1.863-0.108-2.795-0.321c-0.559-0.128-0.935-0.198-1.238-0.254
				c-0.609-0.113-0.79-0.147-2.116-0.71c-2.879-1.937-5.883-5.559-4.237-11.919c2.024-7.827,7.771-10.604,12.076-10.604
				c0.868,0,1.729,0.105,2.559,0.312l0.001-0.002c9.615,3.129,8.224,12.13,7.567,14.819
				C86.655,107.821,82.056,112.861,75.727,112.861L75.727,112.861z"/>
			<path fill="#333333" d="M77.416,91.054c0.629,0,1.253,0.068,1.856,0.202c0.166,0.059,0.32,0.104,0.463,0.14
				c2.734,0.987,7.895,3.995,5.865,12.313c-0.383,1.568-1.634,3.373-3.264,4.709c-1.359,1.115-3.61,2.443-6.61,2.443
				c-0.772,0-1.562-0.091-2.35-0.271c-0.596-0.136-0.995-0.211-1.318-0.271c-0.448-0.083-0.565-0.105-1.517-0.507
				c-3.241-2.254-4.341-5.5-3.267-9.655C69.014,93.438,73.824,91.053,77.416,91.054L77.416,91.054 M77.416,87.054
				c-5.839,0-11.916,3.998-14.013,12.103c-1.833,7.088,1.355,11.658,5.222,14.188c2.32,0.991,1.962,0.712,3.861,1.146
				c1.111,0.254,2.194,0.371,3.24,0.371c7.184,0,12.62-5.532,13.76-10.204c1.667-6.833-0.25-14.417-8.917-17.203
				c-0.082-0.026-0.117-0.036-0.123-0.036c-0.004,0,0.002,0.003,0.014,0.008c0.037,0.009,0.073,0.019,0.109,0.028
				c0.107,0.043,0.141,0.059,0.134,0.059c-0.014,0-0.189-0.063-0.243-0.087C79.469,87.178,78.445,87.054,77.416,87.054
				L77.416,87.054z"/>
		</g>
		<g>
			<path fill="#535454" d="M59.068,95.029c1.283-4.045,7.071-7.989,11.646-6.345c4.576,1.643,7.878,2.621,8.986,3.022
				c1.108,0.404,4.203,5.908,2.548,9.882c-1.656,3.973-4.772,6.788-8.799,6.021c-4.024-0.769-6.372-1.003-9.631-2.496
				C60.56,103.62,58.003,98.386,59.068,95.029z"/>
		</g>
		<path fill="#616263" d="M70.136,97.478c0.538-2.364-0.636-8.396-2.545-8.907c-0.128-0.033-0.304-0.081-0.52-0.142
			c-3.591,0.634-7.048,3.588-8.003,6.601c-0.905,2.851,0.806,7.046,3.338,9.164c0.037,0.01,0.085,0.015,0.117,0.024
			C64.487,104.815,69.421,100.614,70.136,97.478z"/>
		<g>
			<path fill="#333333" d="M68.455,92.302L68.455,92.302c0.33,0,0.636,0.05,0.908,0.147c3.086,1.108,5.6,1.918,7.263,2.454
				c0.35,0.113,0.666,0.215,0.937,0.303c0.689,1.1,1.542,3.528,0.994,4.843c-0.36,0.865-1.699,3.686-3.797,3.686
				c-0.178,0-0.366-0.019-0.56-0.056c-0.714-0.136-1.377-0.256-2.002-0.369c-2.793-0.506-4.479-0.811-6.713-1.834
				c-1.571-0.72-3.011-3.958-2.604-5.238C63.432,94.503,66.166,92.302,68.455,92.302 M68.454,88.302
				c-4.048,0-8.308,3.329-9.386,6.728c-1.065,3.356,1.491,8.591,4.751,10.084c3.259,1.493,5.606,1.728,9.631,2.496
				c0.448,0.085,0.885,0.126,1.31,0.126c3.393,0,6.018-2.617,7.489-6.147c1.655-3.974-1.439-9.478-2.548-9.882
				c-1.108-0.401-4.41-1.38-8.986-3.022C69.984,88.422,69.224,88.302,68.454,88.302L68.454,88.302z"/>
		</g>
	</g>
	<g id="pen_3_">
		<path fill="#58B6B4" stroke="#333333" stroke-width="2" stroke-miterlimit="10" d="M118.737,52.093c0,0-4.979,2.46-4.084,10.036
			c0.896,7.576,4.954,20.351,20.025,40.801c4.973,6.746,4.428-1.173,2.832-3.89c-2.012-3.425-10.633-16.274-11.624-19.648
			s2.691-3.59,2.691-3.59l-4.222-17.017c0,0-3.696,0.904-4.562-0.364C118.929,57.152,120.669,52.611,118.737,52.093z"/>
		<polygon fill="#535454" stroke="#333333" stroke-width="4" stroke-miterlimit="10" points="135.176,86.551 159.469,161.5 
			170.593,144.091 159.078,80.3 		"/>
		<path fill="#4F8699" stroke="#333333" stroke-width="4" stroke-miterlimit="10" d="M133.885,47.109
			c4.729-2.401,16.852-2.972,20.677,6.861c3.826,9.832,8.385,22.71,8.385,22.71s-4.4,8.653-11.977,11.792
			c-7.577,3.139-15.794-1.922-15.794-1.922s-6.982-16.378-9.434-21.698S127.887,50.154,133.885,47.109z"/>
		<path fill="#58B6B4" stroke="#333333" stroke-width="4" stroke-miterlimit="10" d="M144.906,71.565
			c7.795-3.323,11.009-12.01,9.209-18.61c-0.666-1.378-1.507-2.527-2.474-3.472c-2.045-1.456-5.234-2.713-8.779-3.771
			c-3.528-0.331-6.939,0.361-8.978,1.396c-5.998,3.045-10.594,12.423-8.143,17.743C127.729,69.012,136.573,75.117,144.906,71.565z"
			/>
		<g>
			<path fill="#D6D6D6" d="M132.062,38.768c4.88-1.582,12.827,1.334,14.429,6.988c1.602,5.653,2.963,9.588,3.347,10.961
				c0.383,1.372-2.853,8.286-7.923,9.452c-5.069,1.166-10.028,0.082-12.104-4.415s-3.495-6.97-4.319-11.224
				S128.014,40.082,132.062,38.768z"/>
		</g>
		<path fill="#FFFFFF" d="M137.439,51.37c2.701-1.133,7.806-6.529,6.965-8.765c-0.056-0.149-0.133-0.355-0.225-0.61
			c-3.149-3.086-8.482-4.406-12.117-3.228c-3.438,1.115-6.359,5.749-6.66,9.726c0.016,0.043,0.044,0.095,0.058,0.134
			C126.254,50.977,133.853,52.873,137.439,51.37z"/>
		<g>
			<path fill="#333333" d="M134.982,42.34L134.982,42.34c3.02,0,6.908,1.85,7.66,4.506c1.073,3.787,2.04,6.816,2.68,8.82
				c0.178,0.556,0.334,1.045,0.455,1.436c-0.521,1.471-2.555,4.662-4.759,5.169c-0.961,0.221-1.886,0.333-2.751,0.333
				c-3.659,0-4.537-1.901-4.825-2.526c-0.365-0.791-0.71-1.52-1.035-2.207c-1.499-3.167-2.403-5.078-2.989-8.101
				c-0.455-2.35,1.793-6.52,3.878-7.197C133.765,42.42,134.348,42.34,134.982,42.34 M134.981,38.34
				c-1.037,0-2.029,0.139-2.919,0.427c-4.049,1.314-7.396,7.509-6.571,11.763s2.243,6.727,4.319,11.224
				c1.57,3.401,4.789,4.85,8.457,4.85c1.183,0,2.412-0.15,3.647-0.435c5.07-1.166,8.306-8.08,7.923-9.452
				c-0.384-1.373-1.745-5.308-3.347-10.961C145.182,41.132,139.63,38.34,134.981,38.34L134.981,38.34z"/>
		</g>
	</g>
	<g id="pen_2_">
		<path fill="#F77F5B" d="M185.197,190.172c0,0,61.978-40.104,83.784-51.889c21.806-11.784,40-17.708,43.414-12.312
			c3.413,5.398-13.744,24.626-32.74,36.882s-79.521,41.896-79.521,41.896L185.197,190.172z"/>
		<path fill="#FCC865" d="M276.402,151.16c4.838,4.838,13.771,6.146,19.917,0s20.184-22.394,15.967-26.698
			s-26.884,5.028-33.384,8.695S273.569,148.327,276.402,151.16z"/>
		<path fill="#333333" d="M304.856,130.307c-1.752-3.146,2.26-5.085,6.475-5.777c3.13-0.514,3.49,1.745,1.891,4.103
			C311.62,130.991,306.554,133.355,304.856,130.307z"/>
		<path fill="none" stroke="#333333" stroke-width="4" stroke-miterlimit="10" d="M185.197,190.172c0,0,61.978-40.104,83.784-51.889
			c21.806-11.784,40-17.708,43.414-12.312c3.413,5.398-13.744,24.626-32.74,36.882s-79.521,41.896-79.521,41.896L185.197,190.172z"
			/>
	</g>
	<g id="pencil_1_">
		<g>
			<polygon fill="#FEF7CE" points="186.06,188.522 291.485,95.748 317.316,87.178 306.729,111.077 201.904,194.971 			"/>
			<path fill="#333333" d="M313.658,90.499l-8.56,19.321L201.57,192.676l-11.763-4.788l102.694-90.37L313.658,90.499
				 M320.976,83.857l-30.506,10.12l-108.158,95.179l19.926,8.109l106.123-84.933L320.976,83.857L320.976,83.857z"/>
		</g>
		<path fill="none" stroke="#333333" stroke-width="2" stroke-miterlimit="10" d="M290.972,95.122
			c2.162,3.056,1.315,6.802-0.693,9.405c4.445,0.91,6.248,3.282,7.312,7.529c4.392-2.019,6.179-1.893,9.821-0.228"/>
		<path fill="#333333" d="M320.976,83.857l-17.379,5.766c0,0,0.044,5.122,2.68,7.604c2.639,2.481,7.818,2.164,7.818,2.164
			L320.976,83.857z"/>
		
			<line fill="none" stroke="#333333" stroke-width="2" stroke-linecap="round" stroke-miterlimit="10" x1="193.57" y1="190.401" x2="273.643" y2="119.389"/>
		
			<line fill="none" stroke="#333333" stroke-width="2" stroke-linecap="round" stroke-miterlimit="10" x1="201.445" y1="189.156" x2="280.15" y2="125.813"/>
	</g>
	<g id="pen_1_">
		<polygon fill="#535454" stroke="#333333" stroke-width="4" stroke-miterlimit="10" points="74.735,151.16 158.635,157.5 
			149.135,132 79.235,122.365 		"/>
		<path fill="#4F8699" stroke="#333333" stroke-width="4" stroke-miterlimit="10" d="M40.311,135.532
			c-0.092-5.304,4.695-16.456,15.211-15.597s27.091,3.39,27.091,3.39s5.857,7.742,5.367,15.928s-8.633,13.363-8.633,13.363
			s-20.783-1.882-26.64-2.005C46.85,150.491,40.426,142.257,40.311,135.532z"/>
		<path fill="#58B6B4" stroke="#333333" stroke-width="4" stroke-miterlimit="10" d="M67.123,136.312
			c0.421-8.463-5.986-15.151-12.709-16.42c-1.531-0.002-2.933,0.252-4.204,0.708c-2.205,1.202-4.729,3.521-7.229,6.247
			c-1.842,3.028-2.71,6.398-2.67,8.685c0.115,6.725,6.539,14.959,12.396,15.079C57.316,150.645,66.674,145.36,67.123,136.312z"/>
		<g>
			<path fill="#D6D6D6" d="M30.032,133.108c0.76-5.437,7.286-11.72,13.479-10.616c6.189,1.104,10.614,1.637,12.116,1.908
				c1.498,0.274,6.641,6.624,5.39,12.05c-1.251,5.425-4.615,9.69-9.914,9.583c-5.3-0.106-8.345,0.102-12.825-1.094
				C33.798,143.742,29.402,137.621,30.032,133.108z"/>
		</g>
		<path fill="#FFFFFF" d="M44.678,133.832c0.175-3.13-2.632-10.567-5.177-10.806c-0.169-0.016-0.404-0.039-0.692-0.067
			c-4.444,1.586-8.21,6.101-8.776,10.149c-0.536,3.833,2.558,8.812,6.245,10.964c0.048,0.005,0.11,0.001,0.154,0.006
			C39.065,144.414,44.446,137.988,44.678,133.832z"/>
		<g>
			<path fill="#333333" d="M42.058,126.365L42.058,126.365c0.256,0,0.509,0.022,0.751,0.065c4.163,0.742,7.535,1.229,9.768,1.552
				c0.649,0.094,1.216,0.176,1.656,0.243c1.209,1.176,3.469,4.802,2.887,7.326c-0.45,1.95-1.917,6.484-5.821,6.484l-0.115-0.001
				c-0.931-0.019-1.793-0.028-2.606-0.037c-3.643-0.039-6.049-0.064-9.266-0.922c-2.575-0.688-5.656-4.984-5.316-7.413
				C34.439,130.476,38.43,126.365,42.058,126.365 M42.057,122.365c-5.723,0-11.324,5.732-12.024,10.744
				c-0.63,4.513,3.766,10.634,8.245,11.831c4.48,1.195,7.525,0.987,12.825,1.094c0.065,0.001,0.13,0.002,0.195,0.002
				c5.186,0,8.483-4.228,9.719-9.585c1.251-5.426-3.892-11.775-5.39-12.05c-1.502-0.271-5.927-0.805-12.116-1.908
				C43.027,122.406,42.542,122.365,42.057,122.365L42.057,122.365z"/>
		</g>
		<path fill="#58B6B4" stroke="#333333" stroke-width="2" stroke-miterlimit="10" d="M58.319,151.24c0,0-5.518,6.235-4.5,9.25
			c2.25,6.666,12.75,4.5,19.75,4.75s24.25-1.25,30.75-1.5s3.75-4.75-9.25-4.25s-26.25,1.25-27-0.5s1.75-5.25,2.25-6.75
			S58.319,151.24,58.319,151.24z"/>
	</g>
	<g id="pencil">
		<g>
			<polygon fill="#FEF7CE" points="167.142,157.5 162.06,155.721 155.913,44.259 165.407,18.764 177.419,42.007 179.779,153.111 
				173.196,157.5 			"/>
			<path fill="#333333" d="M165.705,23.696l9.724,18.817l2.327,109.543l-5.165,3.444h-5.109l-3.499-1.225l-6.049-109.709
				L165.705,23.696 M165.109,13.832l-11.216,30.12l6.242,113.214l6.666,2.333h7l8-5.333l-2.394-112.666L165.109,13.832
				L165.109,13.832z"/>
		</g>
		<path fill="none" stroke="#333333" stroke-width="2" stroke-miterlimit="10" d="M155.101,44.277
			c3.736,0.229,6.125,3.234,6.898,6.431c3.492-2.896,6.471-2.814,10.448-0.984c1.176-4.688,2.393-6.001,5.974-7.798"/>
		<path fill="#333333" d="M165.109,13.832l-6.39,17.158c0,0,4.02,3.175,7.606,2.674c3.587-0.502,6.583-4.739,6.583-4.739
			L165.109,13.832z"/>
		
			<line fill="none" stroke="#333333" stroke-width="2" stroke-linecap="round" stroke-miterlimit="10" x1="166.819" y1="154.74" x2="163.165" y2="72.985"/>
		
			<line fill="none" stroke="#333333" stroke-width="2" stroke-linecap="round" stroke-miterlimit="10" x1="173.569" y1="154.99" x2="172.25" y2="71.937"/>
	</g>
	<g id="marker_3_">
		<polygon fill="#535454" stroke="#333333" stroke-width="4" stroke-miterlimit="10" points="228.567,218.157 144.138,195.491 
			149.299,179.092 237.809,195.491 		"/>
		<path fill="#BB4D67" stroke="#333333" stroke-width="4" stroke-miterlimit="10" d="M309.561,240.614l-80.993-22.457
			c0,0-4.334-5.666-1.334-13.666s10.575-9,10.575-9l78.55,15.702L309.561,240.614z"/>
		
			<ellipse transform="matrix(0.9862 0.1658 -0.1658 0.9862 41.7459 -48.6311)" fill="#CF627C" stroke="#333333" stroke-width="4" stroke-miterlimit="10" cx="312.075" cy="225.658" rx="11.5" ry="15.166"/>
	</g>
	<g id="marker_2_">
		<polygon fill="#535454" stroke="#333333" stroke-width="4" stroke-miterlimit="10" points="279.315,272.962 144.138,195.491 
			146.442,185.759 293.61,249.861 		"/>
		
			<ellipse transform="matrix(-0.8132 -0.582 0.582 -0.8132 368.4051 642.0261)" fill="#F77F5B" stroke="#333333" stroke-width="4" stroke-miterlimit="10" cx="287.242" cy="261.887" rx="13" ry="13.621"/>
		<path fill="#FCC865" d="M283.315,259.077c3.148-4.394,8.507-5.95,11.97-3.474c3.458,2.477,3.711,8.048,0.561,12.443
			c-3.148,4.396-8.507,5.949-11.97,3.476C280.416,269.044,280.165,263.475,283.315,259.077z"/>
		
			<ellipse transform="matrix(-0.8132 -0.582 0.582 -0.8132 368.4051 642.0261)" fill="none" stroke="#333333" stroke-width="4" stroke-miterlimit="10" cx="287.242" cy="261.887" rx="13" ry="13.621"/>
	</g>
	<g id="marker_1_">
		<polygon fill="#535454" stroke="#333333" stroke-width="4" stroke-linejoin="round" stroke-miterlimit="10" points="
			245.396,306.585 147.385,206.25 147.635,190.5 265.922,289.114 		"/>
		
			<ellipse transform="matrix(-0.6307 -0.776 0.776 -0.6307 185.3715 683.6255)" fill="#4BA7AF" stroke="#333333" stroke-width="4" stroke-miterlimit="10" cx="255.353" cy="297.704" rx="11.093" ry="13.62"/>
		
			<ellipse transform="matrix(-0.6306 -0.7761 0.7761 -0.6306 186.9779 690.3584)" fill="#58B6B4" cx="257.773" cy="300.684" rx="8.96" ry="11.001"/>
		
			<ellipse transform="matrix(-0.6307 -0.776 0.776 -0.6307 185.3715 683.6255)" fill="none" stroke="#333333" stroke-width="4" stroke-miterlimit="10" cx="255.353" cy="297.704" rx="11.093" ry="13.62"/>
	</g>
	<g id="pen">
		<path fill="#535454" stroke="#333333" stroke-width="4" stroke-miterlimit="10" d="M169.135,172.5c0,0,1.979,86.056,0.494,110.799
			c-1.484,24.742-6.044,43.325-12.429,43.38c-6.388,0.054-13.68-24.663-14.076-47.266c-0.398-22.603,6.521-102.582,6.521-102.582
			L169.135,172.5z"/>
		<path fill="#333333" d="M157.49,317.986c3.599,0.171,3.13,4.602,1.495,8.549c-1.213,2.93-3.322,2.046-4.482-0.558
			C153.343,323.373,154.005,317.821,157.49,317.986z"/>
	</g>
	<g id="highlighter">
		<path fill="#BB4D67" stroke="#333333" stroke-width="4" stroke-miterlimit="10" d="M98.458,187.884
			c-11.5,13.349-29.57,48.856-27.854,60.606s15.466,28.438,24.716,22.219s25.75-22.219,39.75-52.969s14.576-40.909,14.576-40.909
			L98.458,187.884z"/>
		<path fill="none" stroke="#333333" stroke-width="8" stroke-miterlimit="10" d="M96.236,187.884c0,0,13-4.821,21.5,3.894
			s13.27,38.713,13.27,38.713"/>
		<path fill="#CF627C" stroke="#333333" stroke-width="4" stroke-miterlimit="10" d="M78.902,235.49
			c12.761-6.187,20.333,9,22,14.667s1.668,18.999-7.666,21.333s-16.666-5-20-13.333S67.902,240.823,78.902,235.49z"/>
		<path fill="#CF627C" stroke="#333333" stroke-width="4" stroke-miterlimit="10" d="M103.069,235.49c0,0,3.75,1,7-2
			s14.25-26.25,17.75-27.5s6.5,6.75,6.5,14.75s-4.5,14.75-10.75,23.5s-10.25,9.75-13.25,10s-1.75-7.5-3.75-11.75
			S103.069,235.49,103.069,235.49z"/>
	</g>
	<g id="marker">
		<polygon fill="#535454" stroke="#333333" stroke-width="4" stroke-miterlimit="10" points="79.235,164.537 164.135,161 
			168.885,175 81.056,191.642 		"/>
		
			<ellipse fill="#F77F5B" stroke="#333333" stroke-width="4" stroke-miterlimit="10" cx="79.235" cy="178.156" rx="13" ry="13.621"/>
		<ellipse fill="#FCC865" cx="74.735" cy="178.156" rx="10.5" ry="11"/>
		<ellipse fill="none" stroke="#333333" stroke-width="4" stroke-miterlimit="10" cx="79.235" cy="178.156" rx="13" ry="13.621"/>
	</g>
	<g id="Rubber">
		<path fill="#D6D6D6" stroke="#333333" stroke-width="4" stroke-miterlimit="10" d="M162.906,159.259c0,0-3.813,5.185-4.271,7.897
			c-0.458,2.711,9.64,11.538,14.275,11.936c2.275,0.195,6.535-2.67,8.264-3.898S162.906,159.259,162.906,159.259z"/>
		<path fill="#E2E2E2" stroke="#333333" stroke-width="4" stroke-miterlimit="10" d="M188.774,134.22
			c4.804-2.411,19.268,10.019,16.841,16.37c-2.426,6.35-22.47,24.937-24.441,24.604c-1.973-0.333-19.151-12.703-18.268-15.934
			C163.791,156.028,183.233,137.001,188.774,134.22z"/>
		<path fill="#FFFFFF" d="M188.167,135.809c0,0-6.454,18.179-7.18,24.479c-0.727,6.3-1.129,14.684-1.129,14.684
			s25.141-18.74,24.826-24.877C204.37,143.956,194.75,132.865,188.167,135.809z"/>
		<path fill="none" stroke="#333333" stroke-width="4" stroke-miterlimit="10" d="M188.774,134.22
			c4.804-2.411,19.268,10.019,16.841,16.37c-2.426,6.35-22.47,24.937-24.441,24.604c-1.973-0.333-19.151-12.703-18.268-15.934
			C163.791,156.028,183.233,137.001,188.774,134.22z"/>
	</g>
</g>
<g id="Can">
</g>
<g id="Coffee">
</g>
<g id="Stylus">
</g>
<g id="Wacom_1_">
</g>
<g id="Paperclips_1_">
</g>
<g id="Earbuds_1_">
</g>
<g id="Glasses">
</g>
<g id="Sunglasses">
</g>
<g id="Case_1_">
</g>
<g id="Donut_1_">
</g>
</svg>
