<?xml version="1.0" encoding="utf-8"?>
<!-- Generator: Adobe Illustrator 16.0.0, SVG Export Plug-In . SVG Version: 6.00 Build 0)  -->
<!DOCTYPE svg PUBLIC "-//W3C//DTD SVG 1.1//EN" "http://www.w3.org/Graphics/SVG/1.1/DTD/svg11.dtd">
<svg version="1.1" xmlns="http://www.w3.org/2000/svg" xmlns:xlink="http://www.w3.org/1999/xlink" x="0px" y="0px" width="700px"
	 height="110px" viewBox="0 0 700 110" enable-background="new 0 0 700 110" xml:space="preserve">
<g id="Camera_Standing">
</g>
<g id="Camera_Lying">
</g>
<g id="Colours_1_">
</g>
<g id="Aquarell_1_">
</g>
<g id="Envelope_big_1_">
</g>
<g id="Envelope_small_1_">
</g>
<g id="Airmail_1_">
</g>
<g id="Highlighters_Closed_1_">
</g>
<g id="Highlighters_Open_1_">
</g>
<g id="USB_Stick_1_">
</g>
<g id="Pencil_Small">
</g>
<g id="Pencil_Large">
</g>
<g id="Brush_3_">
</g>
<g id="Notepad_1_">
</g>
<g id="Moleskine_Large_Open">
</g>
<g id="Moleskine_Small_Open_1_">
</g>
<g id="Moleskine_Large">
</g>
<g id="Moleskine_Small_1_">
</g>
<g id="iPad_Mini">
</g>
<g id="MacBook_13_x22_">
</g>
<g id="iMac_1_">
</g>
<g id="Wallet_2_">
</g>
<g id="iPhone_6_Grey">
</g>
<g id="iPhone_6_Silver_1_">
</g>
<g id="iPhone_6_Gold_1_">
</g>
<g id="Wallet_1_">
</g>
<g id="Bills">
</g>
<g id="Coins_1_">
</g>
<g id="Passport_Red_1_">
</g>
<g id="Passport_Blue_1_">
</g>
<g id="Credit_Card_Red">
</g>
<g id="Credit_Card_Blue">
</g>
<g id="Aeroplane_1_">
</g>
<g id="Magic_Mouse_1_">
</g>
<g id="Keyboard">
</g>
<g id="Ruler_1_">
	<g id="Background_12_">
		<path fill="#FCC865" d="M14.678,95.537c-2.809,0-5.094-2.28-5.094-5.084V19.621c0-2.803,2.285-5.084,5.094-5.084h670.813
			c2.809,0,5.093,2.281,5.093,5.084v70.832c0,2.804-2.284,5.084-5.093,5.084H14.678z"/>
		<path fill="#333333" d="M685.491,16.537c1.705,0,3.093,1.383,3.093,3.084v70.832c0,1.701-1.388,3.084-3.093,3.084H14.678
			c-1.706,0-3.094-1.383-3.094-3.084V19.621c0-1.701,1.388-3.084,3.094-3.084H685.491 M685.491,12.537H14.678
			c-3.918,0-7.094,3.172-7.094,7.084v70.832c0,3.912,3.176,7.084,7.094,7.084h670.813c3.917,0,7.093-3.172,7.093-7.084V19.621
			C692.584,15.709,689.408,12.537,685.491,12.537L685.491,12.537z"/>
	</g>
	<g id="Guides">
		<line fill="none" stroke="#333333" stroke-width="4" stroke-miterlimit="10" x1="27.585" y1="13.506" x2="27.585" y2="35.537"/>
		<line fill="none" stroke="#333333" stroke-width="4" stroke-miterlimit="10" x1="99.584" y1="13.506" x2="99.584" y2="35.537"/>
		<line fill="none" stroke="#333333" stroke-width="4" stroke-miterlimit="10" x1="171.584" y1="13.506" x2="171.584" y2="35.537"/>
		<line fill="none" stroke="#333333" stroke-width="4" stroke-miterlimit="10" x1="243.584" y1="13.506" x2="243.584" y2="35.537"/>
		<line fill="none" stroke="#333333" stroke-width="4" stroke-miterlimit="10" x1="315.584" y1="13.506" x2="315.584" y2="35.537"/>
		<line fill="none" stroke="#333333" stroke-width="4" stroke-miterlimit="10" x1="387.584" y1="13.506" x2="387.584" y2="35.537"/>
		<line fill="none" stroke="#333333" stroke-width="4" stroke-miterlimit="10" x1="459.584" y1="13.506" x2="459.584" y2="35.537"/>
		<line fill="none" stroke="#333333" stroke-width="4" stroke-miterlimit="10" x1="531.584" y1="13.506" x2="531.584" y2="35.537"/>
		<line fill="none" stroke="#333333" stroke-width="4" stroke-miterlimit="10" x1="603.584" y1="13.506" x2="603.584" y2="35.537"/>
		<line fill="none" stroke="#333333" stroke-width="4" stroke-miterlimit="10" x1="675.584" y1="13.506" x2="675.584" y2="35.537"/>
		<line fill="none" stroke="#333333" stroke-width="2" stroke-miterlimit="10" x1="63.585" y1="13.506" x2="63.585" y2="35.537"/>
		<line fill="none" stroke="#333333" stroke-width="2" stroke-miterlimit="10" x1="45.585" y1="13.506" x2="45.585" y2="27.537"/>
		<line fill="none" stroke="#333333" stroke-width="2" stroke-miterlimit="10" x1="81.585" y1="13.506" x2="81.585" y2="27.537"/>
		<line fill="none" stroke="#333333" stroke-width="2" stroke-miterlimit="10" x1="135.585" y1="13.506" x2="135.585" y2="35.537"/>
		<line fill="none" stroke="#333333" stroke-width="2" stroke-miterlimit="10" x1="117.585" y1="13.506" x2="117.585" y2="27.537"/>
		<line fill="none" stroke="#333333" stroke-width="2" stroke-miterlimit="10" x1="153.585" y1="13.506" x2="153.585" y2="27.537"/>
		<line fill="none" stroke="#333333" stroke-width="2" stroke-miterlimit="10" x1="207.585" y1="13.506" x2="207.585" y2="35.537"/>
		<line fill="none" stroke="#333333" stroke-width="2" stroke-miterlimit="10" x1="189.585" y1="13.506" x2="189.585" y2="27.537"/>
		<line fill="none" stroke="#333333" stroke-width="2" stroke-miterlimit="10" x1="225.585" y1="13.506" x2="225.585" y2="27.537"/>
		<line fill="none" stroke="#333333" stroke-width="2" stroke-miterlimit="10" x1="279.585" y1="13.506" x2="279.584" y2="35.537"/>
		<line fill="none" stroke="#333333" stroke-width="2" stroke-miterlimit="10" x1="261.585" y1="13.506" x2="261.585" y2="27.537"/>
		<line fill="none" stroke="#333333" stroke-width="2" stroke-miterlimit="10" x1="297.585" y1="13.506" x2="297.585" y2="27.537"/>
		<line fill="none" stroke="#333333" stroke-width="2" stroke-miterlimit="10" x1="351.585" y1="13.506" x2="351.584" y2="35.537"/>
		<line fill="none" stroke="#333333" stroke-width="2" stroke-miterlimit="10" x1="333.585" y1="13.506" x2="333.585" y2="27.537"/>
		<line fill="none" stroke="#333333" stroke-width="2" stroke-miterlimit="10" x1="369.585" y1="13.506" x2="369.585" y2="27.537"/>
		<line fill="none" stroke="#333333" stroke-width="2" stroke-miterlimit="10" x1="423.585" y1="13.506" x2="423.585" y2="35.537"/>
		<line fill="none" stroke="#333333" stroke-width="2" stroke-miterlimit="10" x1="405.585" y1="13.506" x2="405.585" y2="27.537"/>
		<line fill="none" stroke="#333333" stroke-width="2" stroke-miterlimit="10" x1="441.585" y1="13.506" x2="441.585" y2="27.537"/>
		<line fill="none" stroke="#333333" stroke-width="2" stroke-miterlimit="10" x1="495.585" y1="13.506" x2="495.585" y2="35.537"/>
		<line fill="none" stroke="#333333" stroke-width="2" stroke-miterlimit="10" x1="477.585" y1="13.506" x2="477.585" y2="27.537"/>
		<line fill="none" stroke="#333333" stroke-width="2" stroke-miterlimit="10" x1="513.585" y1="13.506" x2="513.585" y2="27.537"/>
		<line fill="none" stroke="#333333" stroke-width="2" stroke-miterlimit="10" x1="567.585" y1="13.506" x2="567.585" y2="35.537"/>
		<line fill="none" stroke="#333333" stroke-width="2" stroke-miterlimit="10" x1="549.585" y1="13.506" x2="549.585" y2="27.537"/>
		<line fill="none" stroke="#333333" stroke-width="2" stroke-miterlimit="10" x1="585.585" y1="13.506" x2="585.585" y2="27.537"/>
		<line fill="none" stroke="#333333" stroke-width="2" stroke-miterlimit="10" x1="639.585" y1="13.506" x2="639.585" y2="35.537"/>
		<line fill="none" stroke="#333333" stroke-width="2" stroke-miterlimit="10" x1="621.585" y1="13.506" x2="621.585" y2="27.537"/>
		<line fill="none" stroke="#333333" stroke-width="2" stroke-miterlimit="10" x1="657.585" y1="13.506" x2="657.585" y2="27.537"/>
	</g>
</g>
<g id="Charger_1_">
</g>
<g id="Macbook_13_x22_">
</g>
<g id="Brushes">
</g>
<g id="Pencils">
</g>
<g id="Can">
</g>
<g id="Coffee">
</g>
<g id="Stylus">
</g>
<g id="Wacom_1_">
</g>
<g id="Paperclips_1_">
</g>
<g id="Earbuds_1_">
</g>
<g id="Glasses">
</g>
<g id="Sunglasses">
</g>
<g id="Case_1_">
</g>
<g id="Donut_1_">
</g>
</svg>
