<?xml version="1.0" encoding="utf-8"?>
<!-- Generator: Adobe Illustrator 16.0.0, SVG Export Plug-In . SVG Version: 6.00 Build 0)  -->
<!DOCTYPE svg PUBLIC "-//W3C//DTD SVG 1.1//EN" "http://www.w3.org/Graphics/SVG/1.1/DTD/svg11.dtd">
<svg version="1.1" xmlns="http://www.w3.org/2000/svg" xmlns:xlink="http://www.w3.org/1999/xlink" x="0px" y="0px" width="200px"
	 height="70px" viewBox="0 0 200 70" enable-background="new 0 0 200 70" xml:space="preserve">
<g id="Camera_Standing">
</g>
<g id="Camera_Lying">
</g>
<g id="Colours_1_">
</g>
<g id="Aquarell_1_">
</g>
<g id="Envelope_big_1_">
</g>
<g id="Envelope_small_1_">
</g>
<g id="Airmail_1_">
</g>
<g id="Highlighters_Closed_1_">
</g>
<g id="Highlighters_Open_1_">
</g>
<g id="USB_Stick_1_">
	
		<rect id="USB_Background" x="143.022" y="21.088" fill="#E2E2E2" stroke="#333333" stroke-width="4" stroke-miterlimit="10" width="41.978" height="33.529"/>
	<path id="Background_36_" fill="#333333" d="M149.11,9.602c0,0-118.102,0-123.69,0s-7.825,2.792-8.942,6.705
		C15.359,20.217,15,31.195,15,37.814c0,6.618,0.359,17.598,1.478,21.508c1.117,3.914,3.354,6.707,8.942,6.707s123.69,0,123.69,0
		c1.302,0,3.353-1.115,3.353-8.01c0-6.893,0-20.205,0-20.205s0-13.312,0-20.205C152.463,10.715,150.412,9.602,149.11,9.602z"/>
	<path id="USB" fill="#333333" d="M170.717,25.617h-4.284c-0.821,0-1.489,0.668-1.489,1.492v5.215c0,0.824,0.668,1.49,1.489,1.49
		h4.284c0.826,0,1.491-0.666,1.491-1.49v-5.215C172.208,26.285,171.543,25.617,170.717,25.617z M170.717,42.012h-4.284
		c-0.821,0-1.489,0.667-1.489,1.49v5.216c0,0.825,0.668,1.491,1.489,1.491h4.284c0.826,0,1.491-0.666,1.491-1.491v-5.216
		C172.208,42.679,171.543,42.012,170.717,42.012z"/>
	<path id="Switch_Background" fill="#D6D6D6" stroke="#333333" stroke-width="2" stroke-miterlimit="10" d="M105.833,17.947h-8.375
		H68.583c-4.418,0-8,3.582-8,8v16.064v5.811v8h8h2.375h34.875c4.418,0,8-3.582,8-8V32.197v-6.25v-8H105.833z"/>
	<path id="Switch_Light" fill="#FFFFFF" stroke="#333333" stroke-width="2" stroke-miterlimit="10" d="M111.583,17.947
		c-4.418,0-8,3.582-8,8v29.875h2.25c4.418,0,8-3.582,8-8V17.947H111.583z"/>
</g>
<g id="Pencil_Small">
</g>
<g id="Pencil_Large">
</g>
<g id="Brush_3_">
</g>
<g id="Notepad_1_">
</g>
<g id="Moleskine_Large_Open">
</g>
<g id="Moleskine_Small_Open_1_">
</g>
<g id="Moleskine_Large">
</g>
<g id="Moleskine_Small_1_">
</g>
<g id="iPad_Mini">
</g>
<g id="MacBook_13_x22_">
</g>
<g id="iMac_1_">
</g>
<g id="Wallet_2_">
</g>
<g id="iPhone_6_Grey">
</g>
<g id="iPhone_6_Silver_1_">
</g>
<g id="iPhone_6_Gold_1_">
</g>
<g id="Wallet_1_">
</g>
<g id="Bills">
</g>
<g id="Coins_1_">
</g>
<g id="Passport_Red_1_">
</g>
<g id="Passport_Blue_1_">
</g>
<g id="Credit_Card_Red">
</g>
<g id="Credit_Card_Blue">
</g>
<g id="Aeroplane_1_">
</g>
<g id="Magic_Mouse_1_">
</g>
<g id="Keyboard">
</g>
<g id="Ruler_1_">
</g>
<g id="Charger_1_">
</g>
<g id="Macbook_13_x22_">
</g>
<g id="Brushes">
</g>
<g id="Pencils">
</g>
<g id="Can">
</g>
<g id="Coffee">
</g>
<g id="Stylus">
</g>
<g id="Wacom_1_">
</g>
<g id="Paperclips_1_">
</g>
<g id="Earbuds_1_">
</g>
<g id="Glasses">
</g>
<g id="Sunglasses">
</g>
<g id="Case_1_">
</g>
<g id="Donut_1_">
</g>
</svg>
