<?xml version="1.0" encoding="utf-8"?>
<!-- Generator: Adobe Illustrator 16.0.0, SVG Export Plug-In . SVG Version: 6.00 Build 0)  -->
<!DOCTYPE svg PUBLIC "-//W3C//DTD SVG 1.1//EN" "http://www.w3.org/Graphics/SVG/1.1/DTD/svg11.dtd">
<svg version="1.1" xmlns="http://www.w3.org/2000/svg" xmlns:xlink="http://www.w3.org/1999/xlink" x="0px" y="0px" width="1020px"
	 height="645px" viewBox="0 0 1020 645" enable-background="new 0 0 1020 645" xml:space="preserve">
<g id="Camera_Standing">
</g>
<g id="Camera_Lying">
</g>
<g id="Colours_1_">
</g>
<g id="Aquarell_1_">
</g>
<g id="Envelope_big_1_">
</g>
<g id="Envelope_small_1_">
</g>
<g id="Airmail_1_">
</g>
<g id="Highlighters_Closed_1_">
</g>
<g id="Highlighters_Open_1_">
</g>
<g id="USB_Stick_1_">
</g>
<g id="Pencil_Small">
</g>
<g id="Pencil_Large">
</g>
<g id="Brush_3_">
</g>
<g id="Notepad_1_">
</g>
<g id="Moleskine_Large_Open">
</g>
<g id="Moleskine_Small_Open_1_">
</g>
<g id="Moleskine_Large">
</g>
<g id="Moleskine_Small_1_">
</g>
<g id="iPad_Mini">
</g>
<g id="MacBook_13_x22_">
</g>
<g id="iMac_1_">
</g>
<g id="Wallet_2_">
</g>
<g id="iPhone_6_Grey">
</g>
<g id="iPhone_6_Silver_1_">
</g>
<g id="iPhone_6_Gold_1_">
</g>
<g id="Wallet_1_">
</g>
<g id="Bills">
</g>
<g id="Coins_1_">
</g>
<g id="Passport_Red_1_">
</g>
<g id="Passport_Blue_1_">
</g>
<g id="Credit_Card_Red">
</g>
<g id="Credit_Card_Blue">
</g>
<g id="Aeroplane_1_">
</g>
<g id="Magic_Mouse_1_">
</g>
<g id="Keyboard">
</g>
<g id="Ruler_1_">
</g>
<g id="Charger_1_">
</g>
<g id="Macbook_13_x22_">
</g>
<g id="Brushes">
</g>
<g id="Pencils">
</g>
<g id="Can">
</g>
<g id="Coffee">
</g>
<g id="Stylus">
	<path id="Border_6_" fill="#535454" stroke="#333333" stroke-width="4" stroke-miterlimit="10" d="M966.588,471.906v17.77
		c0,0-0.747,1.777,5.77,1.777c6.516,0,6.219-1.777,6.219-1.777v-17.77H966.588z"/>
	<path id="Border_5_" fill="#535454" stroke="#333333" stroke-width="4" stroke-miterlimit="10" d="M963.833,467.378v10.155
		c0,0,2.008,2.073,8.524,2.073c6.516,0,8.524-3.227,8.524-3.227v-9.001H963.833z"/>
	<path id="Background_1_" fill="#535454" stroke="#333333" stroke-width="4" stroke-miterlimit="10" d="M992.496,195.875
		l-20.139-52.126l-20.141,52.126c0,0,5.317,8.292,5.028,17.178s2.673,245.821,2.673,251.745c0,5.923,5.923,7.7,12.439,7.7
		c6.516,0,12.438-1.777,12.438-7.7c0-5.924,2.962-242.86,2.673-251.745S992.496,195.875,992.496,195.875z"/>
	<path id="Border_4_" fill="#535454" stroke="#333333" stroke-width="4" stroke-miterlimit="10" d="M955.429,187.564
		c0,0,7.154,5.053,16.929,5.053c9.773,0,16.928-5.053,16.928-5.053"/>
	<path id="Border_3_" fill="#535454" stroke="#333333" stroke-width="4" stroke-miterlimit="10" d="M962.725,168.682
		c0,0,4.598,2.907,9.633,2.907c5.034,0,9.161-4.127,9.161-4.127"/>
	<path id="Button" fill="#333333" d="M978.28,273.472c0,1.962-1.591,3.554-3.554,3.554h-4.739c-1.963,0-3.554-1.591-3.554-3.554
		v-53.311c0-1.962,1.591-3.554,3.554-3.554h4.739c1.963,0,3.554,1.591,3.554,3.554V273.472z"/>
</g>
<g id="Wacom_1_">
	<g id="Background">
		<path fill="#535454" d="M931.713,591.706c0,13.114-10.63,23.744-23.744,23.744H48.37c-13.113,0-23.744-10.63-23.744-23.744V49.784
			c0-13.114,10.63-23.744,23.744-23.744h859.599c13.114,0,23.744,10.63,23.744,23.744V591.706z"/>
	</g>
	<g id="Light_1_">
		<path fill="#616263" d="M931.713,567.963c0,13.113-10.63,23.743-23.744,23.743H48.37c-13.113,0-23.744-10.63-23.744-23.743V73.527
			c0-13.113,10.63-23.743,23.744-23.743h859.599c13.114,0,23.744,10.63,23.744,23.743V567.963z"/>
	</g>
	<g id="Border_2_">
		<g>
			<path fill="#333333" d="M907.613,29.424c10.919,0,20.076,9.116,20.9,20.776l0.1,541.995c-0.838,10.636-9.584,18.639-20.4,18.639
				h-859.6c-10.887,0-19.744-8.857-19.744-19.744V49.168c0-10.887,8.857-19.744,19.744-19.744H907.613 M907.613,25.424h-859
				c-13.113,0-23.744,10.63-23.744,23.744V591.09c0,13.114,10.63,23.744,23.744,23.744h859.6c13.113,0,23.5-10.014,24.4-22.488
				l-0.1-542.282C931.613,36.31,920.727,25.424,907.613,25.424L907.613,25.424z"/>
		</g>
	</g>
	<rect id="Touchpad" x="147.614" y="83.021" fill="#333333" width="726.395" height="471.884"/>
	<circle id="Shadow" fill="#535454" cx="84.991" cy="321.339" r="38.285"/>
	<g id="Buttons">
		<path fill="#616263" d="M73.682,478.805c-1.413,0-2.562-1.149-2.562-2.562v-12.267c0-1.413,1.149-2.562,2.562-2.562h23.15
			c1.413,0,2.562,1.149,2.562,2.562v12.267c0,1.413-1.149,2.562-2.562,2.562H73.682z M73.682,452.687
			c-1.413,0-2.562-1.149-2.562-2.562v-12.267c0-1.413,1.149-2.562,2.562-2.562h23.15c1.413,0,2.562,1.149,2.562,2.562v12.267
			c0,1.413-1.149,2.562-2.562,2.562H73.682z M73.682,426.568c-1.413,0-2.562-1.149-2.562-2.562v-12.267
			c0-1.413,1.149-2.562,2.562-2.562h23.15c1.413,0,2.562,1.149,2.562,2.562v12.267c0,1.413-1.149,2.562-2.562,2.562H73.682z
			 M73.682,400.45c-1.413,0-2.562-1.149-2.562-2.562v-12.267c0-1.413,1.149-2.562,2.562-2.562h23.15
			c1.413,0,2.562,1.149,2.562,2.562v12.267c0,1.413-1.149,2.562-2.562,2.562H73.682z M84.991,339.334
			c-9.922,0-17.995-8.073-17.995-17.995s8.073-17.995,17.995-17.995s17.995,8.073,17.995,17.995S94.914,339.334,84.991,339.334z
			 M73.682,258.778c-1.413,0-2.562-1.149-2.562-2.562v-12.268c0-1.412,1.149-2.561,2.562-2.561h23.15
			c1.413,0,2.562,1.149,2.562,2.561v12.268c0,1.413-1.149,2.562-2.562,2.562H73.682z M73.682,232.66
			c-1.413,0-2.562-1.149-2.562-2.562v-12.268c0-1.412,1.149-2.561,2.562-2.561h23.15c1.413,0,2.562,1.149,2.562,2.561v12.268
			c0,1.413-1.149,2.562-2.562,2.562H73.682z M73.682,206.542c-1.413,0-2.562-1.149-2.562-2.562v-12.268
			c0-1.412,1.149-2.561,2.562-2.561h23.15c1.413,0,2.562,1.149,2.562,2.561v12.268c0,1.413-1.149,2.562-2.562,2.562H73.682z
			 M73.682,180.424c-1.413,0-2.562-1.149-2.562-2.562v-12.268c0-1.413,1.149-2.562,2.562-2.562h23.15
			c1.413,0,2.562,1.149,2.562,2.562v12.268c0,1.413-1.149,2.562-2.562,2.562H73.682z"/>
		<path fill="#333333" d="M96.832,164.033c0.861,0,1.562,0.701,1.562,1.562v12.268c0,0.861-0.701,1.562-1.562,1.562h-23.15
			c-0.861,0-1.562-0.701-1.562-1.562v-12.268c0-0.861,0.701-1.562,1.562-1.562H96.832 M96.832,190.152
			c0.861,0,1.562,0.7,1.562,1.561v12.268c0,0.861-0.701,1.562-1.562,1.562h-23.15c-0.861,0-1.562-0.701-1.562-1.562v-12.268
			c0-0.861,0.701-1.561,1.562-1.561H96.832 M96.832,216.27c0.861,0,1.562,0.7,1.562,1.561v12.268c0,0.861-0.701,1.562-1.562,1.562
			h-23.15c-0.861,0-1.562-0.701-1.562-1.562v-12.268c0-0.861,0.701-1.561,1.562-1.561H96.832 M96.832,242.388
			c0.861,0,1.562,0.7,1.562,1.561v12.268c0,0.861-0.701,1.562-1.562,1.562h-23.15c-0.861,0-1.562-0.701-1.562-1.562v-12.268
			c0-0.861,0.701-1.561,1.562-1.561H96.832 M84.991,304.344c9.371,0,16.995,7.624,16.995,16.995s-7.624,16.995-16.995,16.995
			s-16.995-7.624-16.995-16.995S75.62,304.344,84.991,304.344 M96.832,384.06c0.861,0,1.562,0.701,1.562,1.562v12.267
			c0,0.861-0.701,1.562-1.562,1.562h-23.15c-0.861,0-1.562-0.701-1.562-1.562v-12.267c0-0.861,0.701-1.562,1.562-1.562H96.832
			 M96.832,410.178c0.861,0,1.562,0.701,1.562,1.562v12.267c0,0.861-0.701,1.562-1.562,1.562h-23.15
			c-0.861,0-1.562-0.701-1.562-1.562v-12.267c0-0.861,0.701-1.562,1.562-1.562H96.832 M96.832,436.296
			c0.861,0,1.562,0.701,1.562,1.562v12.267c0,0.861-0.701,1.562-1.562,1.562h-23.15c-0.861,0-1.562-0.701-1.562-1.562v-12.267
			c0-0.861,0.701-1.562,1.562-1.562H96.832 M96.832,462.414c0.861,0,1.562,0.701,1.562,1.562v12.267
			c0,0.861-0.701,1.562-1.562,1.562h-23.15c-0.861,0-1.562-0.701-1.562-1.562v-12.267c0-0.861,0.701-1.562,1.562-1.562H96.832
			 M96.832,162.033h-23.15c-1.967,0-3.562,1.595-3.562,3.562v12.268c0,1.967,1.595,3.562,3.562,3.562h23.15
			c1.967,0,3.562-1.595,3.562-3.562v-12.268C100.394,163.628,98.799,162.033,96.832,162.033L96.832,162.033z M96.832,188.152h-23.15
			c-1.967,0-3.562,1.595-3.562,3.561v12.268c0,1.967,1.595,3.562,3.562,3.562h23.15c1.967,0,3.562-1.595,3.562-3.562v-12.268
			C100.394,189.747,98.799,188.152,96.832,188.152L96.832,188.152z M96.832,214.27h-23.15c-1.967,0-3.562,1.595-3.562,3.561v12.268
			c0,1.967,1.595,3.562,3.562,3.562h23.15c1.967,0,3.562-1.595,3.562-3.562v-12.268C100.394,215.865,98.799,214.27,96.832,214.27
			L96.832,214.27z M96.832,240.388h-23.15c-1.967,0-3.562,1.595-3.562,3.561v12.268c0,1.967,1.595,3.562,3.562,3.562h23.15
			c1.967,0,3.562-1.595,3.562-3.562v-12.268C100.394,241.983,98.799,240.388,96.832,240.388L96.832,240.388z M84.991,302.344
			c-10.494,0-18.995,8.501-18.995,18.995c0,10.494,8.501,18.995,18.995,18.995s18.995-8.501,18.995-18.995
			C103.986,310.845,95.485,302.344,84.991,302.344L84.991,302.344z M96.832,382.06h-23.15c-1.967,0-3.562,1.595-3.562,3.562v12.267
			c0,1.967,1.595,3.562,3.562,3.562h23.15c1.967,0,3.562-1.595,3.562-3.562v-12.267C100.394,383.654,98.799,382.06,96.832,382.06
			L96.832,382.06z M96.832,408.178h-23.15c-1.967,0-3.562,1.595-3.562,3.562v12.267c0,1.967,1.595,3.562,3.562,3.562h23.15
			c1.967,0,3.562-1.595,3.562-3.562v-12.267C100.394,409.772,98.799,408.178,96.832,408.178L96.832,408.178z M96.832,434.296h-23.15
			c-1.967,0-3.562,1.595-3.562,3.562v12.267c0,1.967,1.595,3.562,3.562,3.562h23.15c1.967,0,3.562-1.595,3.562-3.562v-12.267
			C100.394,435.891,98.799,434.296,96.832,434.296L96.832,434.296z M96.832,460.414h-23.15c-1.967,0-3.562,1.595-3.562,3.562v12.267
			c0,1.967,1.595,3.562,3.562,3.562h23.15c1.967,0,3.562-1.595,3.562-3.562v-12.267C100.394,462.009,98.799,460.414,96.832,460.414
			L96.832,460.414z"/>
	</g>
	
		<line id="border_6_" fill="none" stroke="#333333" stroke-width="4" stroke-miterlimit="10" x1="147.614" y1="85.395" x2="25.813" y2="85.395"/>
	
		<line id="border_5_" fill="none" stroke="#333333" stroke-width="4" stroke-miterlimit="10" x1="147.614" y1="552.569" x2="25.813" y2="552.569"/>
</g>
<g id="Paperclips_1_">
</g>
<g id="Earbuds_1_">
</g>
<g id="Glasses">
</g>
<g id="Sunglasses">
</g>
<g id="Case_1_">
</g>
<g id="Donut_1_">
</g>
</svg>
