<?xml version="1.0" encoding="utf-8"?>
<!-- Generator: Adobe Illustrator 16.0.0, SVG Export Plug-In . SVG Version: 6.00 Build 0)  -->
<!DOCTYPE svg PUBLIC "-//W3C//DTD SVG 1.1//EN" "http://www.w3.org/Graphics/SVG/1.1/DTD/svg11.dtd">
<svg version="1.1" xmlns="http://www.w3.org/2000/svg" xmlns:xlink="http://www.w3.org/1999/xlink" x="0px" y="0px" width="380px"
	 height="360px" viewBox="0 0 380 360" enable-background="new 0 0 380 360" xml:space="preserve">
<g id="Camera_Standing">
</g>
<g id="Camera_Lying">
</g>
<g id="Colours_1_">
</g>
<g id="Aquarell_1_">
</g>
<g id="Envelope_big_1_">
</g>
<g id="Envelope_small_1_">
</g>
<g id="Airmail_1_">
</g>
<g id="Highlighters_Closed_1_">
</g>
<g id="Highlighters_Open_1_">
</g>
<g id="USB_Stick_1_">
</g>
<g id="Pencil_Small">
</g>
<g id="Pencil_Large">
</g>
<g id="Brush_3_">
</g>
<g id="Notepad_1_">
</g>
<g id="Moleskine_Large_Open">
</g>
<g id="Moleskine_Small_Open_1_">
</g>
<g id="Moleskine_Large">
</g>
<g id="Moleskine_Small_1_">
</g>
<g id="iPad_Mini">
</g>
<g id="MacBook_13_x22_">
</g>
<g id="iMac_1_">
</g>
<g id="Wallet_2_">
</g>
<g id="iPhone_6_Grey">
</g>
<g id="iPhone_6_Silver_1_">
</g>
<g id="iPhone_6_Gold_1_">
</g>
<g id="Wallet_1_">
	
		<path id="background_3_" fill-rule="evenodd" clip-rule="evenodd" fill="#535454" stroke="#333333" stroke-width="4" stroke-miterlimit="10" d="
		M353.24,301.329c0,7.828-6.346,14.174-14.173,14.174H32.413c-7.827,0-14.173-6.346-14.173-14.174V66.677
		c0-7.828,6.346-14.174,14.173-14.174c0,0,100.377-8,172.583-8c84.245,0,134.071,8,134.071,8c7.827,0,14.173,6.346,14.173,14.174
		V301.329z"/>
	<g id="bills">
		<defs>
			<path id="SVGID_5_" d="M326.74,6.177c0-7.828-6.346-14.174-14.173-14.174H32.413c-7.827,0-14.173,6.346-14.173,14.174v203.15
				c0,7.827,6.346,14.173,14.173,14.173h280.154c7.827,0,14.173-6.346,14.173-14.173V6.177z"/>
		</defs>
		<clipPath id="SVGID_2_">
			<use xlink:href="#SVGID_5_"  overflow="visible"/>
		</clipPath>
		<g clip-path="url(#SVGID_2_)">
			<g>
				
					<rect x="-115.489" y="48.633" transform="matrix(-0.9952 0.0976 -0.0976 -0.9952 219.9294 270.7908)" fill="#F5F6CA" width="437.668" height="184.277"/>
				<path fill="#333333" d="M310.351,29.91l17.587,179.417l-431.6,42.307l-17.586-179.417L310.351,29.91 M313.941,25.539
					l-439.561,43.087l18.366,187.379l439.562-43.087L313.941,25.539L313.941,25.539z"/>
			</g>
			<path fill="#8DB559" d="M-110.319,81.194l15.636,159.514l410.696-40.259L300.379,40.937L-110.319,81.194z M291.906,159.526
				c-11.362,2.414-19.24,14.537-17.9,28.217c0.227,2.321,0.711,4.543,1.406,6.637l-331.447,32.49
				c0.274-2.189,0.318-4.464,0.094-6.783c-1.344-13.682-11.428-24.043-23.04-24.207l-4.873-49.706
				c0.259-0.017,0.522-0.026,0.781-0.053c17.286-1.693,29.526-21.174,27.336-43.512c-0.58-5.902-2.115-11.407-4.371-16.288
				l312.225-30.606c-1.266,5.226-1.702,10.927-1.124,16.829c2.19,22.336,17.978,39.07,35.267,37.375
				c0.26-0.024,0.517-0.064,0.774-0.099L291.906,159.526z M106.168,148.504l1.935,19.747c7.19-1.268,11.012-4.938,10.372-11.469
				C117.999,151.927,114.588,149.93,106.168,148.504z M96.814,81.991c-26.109,2.559-44.611,31.801-41.327,65.312
				c3.286,33.516,27.113,58.607,53.224,56.049c26.106-2.56,44.609-31.803,41.324-65.316
				C146.749,104.524,122.924,79.433,96.814,81.991z M108.611,173.425l0.929,9.477l-5.415,0.53l-0.92-9.394
				c-11.527,0.486-20.746-4.159-21.635-13.234c-0.422-4.299,2.539-7.726,6.678-8.13c3.743-0.367,6.445,1.778,6.795,5.362
				c0.336,3.424-1.768,4.915-4.268,5.643c1.544,3.468,5.441,5.496,11.929,5.262l-2.066-21.1l-4.075-0.564
				c-9.86-1.366-16.261-5.963-17.127-14.802c-1.036-10.588,7.111-17.657,17.777-19.587l-0.368-3.74l5.414-0.531l0.365,3.742
				c11.959-0.211,19.947,5.037,20.649,12.203c0.516,5.254-1.694,8.125-6.074,8.553c-4.061,0.398-6.762-1.748-7.122-5.41
				c-0.28-2.868,1.562-4.575,3.959-5.534c-1.403-2.836-4.989-4.977-10.936-4.956l2.036,20.781l3.52,0.62
				c12.35,2.165,18.034,6.028,18.853,14.39C128.641,164.55,120.715,171.436,108.611,173.425z M88.008,128.903
				c0.469,4.777,3.919,7.17,11.592,8.349l-1.913-19.507C91.315,119.173,87.478,123.488,88.008,128.903z M-8.622,128.165
				c-11.579,1.133-20.043,11.44-18.908,23.018c1.138,11.576,11.442,20.041,23.019,18.906c11.578-1.135,20.043-11.439,18.907-23.018
				C13.261,135.495,2.955,127.028-8.622,128.165z M203.361,107.385c-11.576,1.135-20.041,11.44-18.907,23.018
				c1.137,11.578,11.441,20.043,23.018,18.908c11.576-1.136,20.043-11.44,18.909-23.018
				C225.245,114.716,214.94,106.249,203.361,107.385z"/>
		</g>
		<g clip-path="url(#SVGID_2_)">
			<g>
				
					<rect x="-129.488" y="57.634" transform="matrix(-0.9988 0.0492 -0.0492 -0.9988 185.9536 294.9654)" fill="#F5F6CA" width="437.666" height="184.277"/>
				<path fill="#333333" d="M301.479,49.07l8.873,180.058l-433.142,21.347l-8.872-180.058L301.479,49.07 M305.276,44.878
					l-441.131,21.74l9.267,188.049l441.132-21.74L305.276,44.878L305.276,44.878z"/>
			</g>
			<path fill="#8DB559" d="M-121.182,79.913l7.889,160.083l412.165-20.313l-7.888-160.082L-121.182,79.913z M276.776,177.64
				c-11.466,1.862-19.922,13.588-19.246,27.317c0.113,2.329,0.489,4.571,1.082,6.697l-332.631,16.393
				c0.38-2.173,0.533-4.442,0.421-6.771c-0.678-13.73-10.249-24.568-21.84-25.295l-2.459-49.883c0.26-0.004,0.522-0.002,0.783-0.016
				c17.348-0.854,30.517-19.719,29.412-42.136c-0.293-5.924-1.561-11.497-3.578-16.481l313.342-15.443
				c-1.518,5.158-2.23,10.831-1.938,16.755c1.104,22.416,16.063,39.896,33.413,39.04c0.261-0.012,0.52-0.039,0.779-0.061
				L276.776,177.64z M91.79,157.632l0.976,19.817c7.244-0.917,11.237-4.398,10.915-10.952
				C103.441,161.624,100.131,159.464,91.79,157.632z M85.67,90.744c-26.203,1.29-46.1,29.602-44.442,63.233
				c1.658,33.635,24.242,59.852,50.445,58.562c26.2-1.292,46.098-29.604,44.439-63.237C134.455,115.67,111.872,89.453,85.67,90.744z
				 M93.023,182.642l0.468,9.51l-5.434,0.269l-0.465-9.429c-11.537-0.071-20.52-5.158-20.968-14.267
				c-0.213-4.313,2.91-7.593,7.064-7.797c3.756-0.185,6.352,2.089,6.527,5.686c0.17,3.437-2.004,4.824-4.536,5.43
				c1.374,3.538,5.169,5.753,11.66,5.833l-1.043-21.174l-4.043-0.763c-9.782-1.841-15.952-6.743-16.389-15.613
				c-0.522-10.626,7.958-17.292,18.704-18.703l-0.186-3.753l5.434-0.27l0.184,3.756c11.955,0.369,19.68,5.998,20.033,13.189
				c0.262,5.273-2.086,8.033-6.481,8.249c-4.074,0.2-6.669-2.073-6.852-5.749c-0.141-2.878,1.781-4.494,4.223-5.336
				c-1.265-2.9-4.742-5.213-10.683-5.48l1.027,20.855l3.485,0.79c12.229,2.762,17.721,6.896,18.133,15.286
				C113.459,174.748,105.209,181.241,93.023,182.642z M74.601,137.174c0.237,4.794,3.567,7.353,11.174,8.9l-0.966-19.576
				C78.376,127.616,74.333,131.74,74.601,137.174z M-21.88,131.755c-11.62,0.571-20.573,10.456-20.001,22.074
				c0.575,11.618,10.457,20.572,22.075,20.001c11.619-0.573,20.573-10.456,20.001-22.075
				C-0.378,140.137-10.261,131.181-21.88,131.755z M190.861,121.27c-11.617,0.573-20.572,10.456-20,22.075
				c0.574,11.619,10.457,20.573,22.074,20c11.618-0.573,20.574-10.455,20.002-22.074
				C212.364,129.652,202.481,120.697,190.861,121.27z"/>
		</g>
	</g>
	
		<path id="background_2_" fill-rule="evenodd" clip-rule="evenodd" fill="#616263" stroke="#333333" stroke-width="4" stroke-miterlimit="10" d="
		M18.24,304.329c0,7.828,3.346,11.174,11.173,11.174c0,0,81.827,6,151.827,6c57,0,151.826-8,151.826-8
		c7.828,0,14.174-6.346,14.174-14.174V68.676c0-7.827-6.346-14.173-14.174-14.173c0,0-73.826,7-149.826,7c-63,0-154.827-9-154.827-9
		c-7.827,0-10.173,3.346-10.173,11.173V304.329z"/>
	
		<path id="stiching_1_" fill-rule="evenodd" clip-rule="evenodd" fill="none" stroke="#333333" stroke-width="2" stroke-miterlimit="10" stroke-dasharray="6" d="
		M18.24,301.329c0,0,80.001,10.509,159.335,9.176s141.915-7.252,149.915-8.002s12.25-7,12.5-12.75s-0.5-212.5-1-218
		s-4-11.25-13-9.75s-74.75,10-137.75,10s-170-8.327-170-8.327"/>
	
		<path id="latch" fill-rule="evenodd" clip-rule="evenodd" fill="#616263" stroke="#333333" stroke-width="4" stroke-miterlimit="10" d="
		M355.24,153.003c0,0-6.5,6.5-25,6.5s-30.036,0.536-47.249,1.749c-17.751,1.251-24.439,11.939-24.439,24.939
		s11.188,26.812,30.688,26.812c17.5,0,32.416-5,41-5s23-2,25-5S358.24,156.003,355.24,153.003z"/>
	
		<circle id="Button_1_" fill="#616263" stroke="#333333" stroke-width="4" stroke-miterlimit="10" cx="289.241" cy="187.003" r="13"/>
	<path id="Light_13_" fill="none" stroke="#FEF7CE" stroke-width="2" stroke-linecap="round" stroke-miterlimit="10" d="
		M282.002,182.79c0,0,2.879-4.211,7.536-4.211c4.651,0,5.43,1.665,5.43,1.665"/>
</g>
<g id="Bills">
</g>
<g id="Coins_1_">
</g>
<g id="Passport_Red_1_">
</g>
<g id="Passport_Blue_1_">
</g>
<g id="Credit_Card_Red">
</g>
<g id="Credit_Card_Blue">
</g>
<g id="Aeroplane_1_">
</g>
<g id="Magic_Mouse_1_">
</g>
<g id="Keyboard">
</g>
<g id="Ruler_1_">
</g>
<g id="Charger_1_">
</g>
<g id="Macbook_13_x22_">
</g>
<g id="Brushes">
</g>
<g id="Pencils">
</g>
<g id="Can">
</g>
<g id="Coffee">
</g>
<g id="Stylus">
</g>
<g id="Wacom_1_">
</g>
<g id="Paperclips_1_">
</g>
<g id="Earbuds_1_">
</g>
<g id="Glasses">
</g>
<g id="Sunglasses">
</g>
<g id="Case_1_">
</g>
<g id="Donut_1_">
</g>
</svg>
