<?xml version="1.0" encoding="utf-8"?>
<!-- Generator: Adobe Illustrator 16.0.0, SVG Export Plug-In . SVG Version: 6.00 Build 0)  -->
<!DOCTYPE svg PUBLIC "-//W3C//DTD SVG 1.1//EN" "http://www.w3.org/Graphics/SVG/1.1/DTD/svg11.dtd">
<svg version="1.1" xmlns="http://www.w3.org/2000/svg" xmlns:xlink="http://www.w3.org/1999/xlink" x="0px" y="0px" width="720px"
	 height="350px" viewBox="0 0 720 350" enable-background="new 0 0 720 350" xml:space="preserve">
<g id="Camera_Standing">
</g>
<g id="Camera_Lying">
</g>
<g id="Colours_1_">
</g>
<g id="Aquarell_1_">
</g>
<g id="Envelope_big_1_">
</g>
<g id="Envelope_small_1_">
</g>
<g id="Airmail_1_">
</g>
<g id="Highlighters_Closed_1_">
</g>
<g id="Highlighters_Open_1_">
</g>
<g id="USB_Stick_1_">
</g>
<g id="Pencil_Small">
</g>
<g id="Pencil_Large">
</g>
<g id="Brush_3_">
</g>
<g id="Notepad_1_">
</g>
<g id="Moleskine_Large_Open">
</g>
<g id="Moleskine_Small_Open_1_">
</g>
<g id="Moleskine_Large">
</g>
<g id="Moleskine_Small_1_">
</g>
<g id="iPad_Mini">
</g>
<g id="MacBook_13_x22_">
</g>
<g id="iMac_1_">
</g>
<g id="Wallet_2_">
	<path id="Background_24_" fill="#535454" stroke="#333333" stroke-width="4" stroke-miterlimit="10" d="M686.228,290.285
		c0,4.696-3.808,8.504-8.504,8.504H389.657c-6.132,0-12.241-10.596-24.748-10c-16.002,0.763-19.969,10-26.971,10H54.102
		c-4.696,0-8.504-3.808-8.504-8.504V67.274c0-4.696,3.808-8.504,8.504-8.504h623.622c4.696,0,8.504,3.808,8.504,8.504V290.285z"/>
	<g id="Bill_3_">
		<g>
			
				<rect x="257.619" y="-80.128" transform="matrix(-0.149 0.9888 -0.9888 -0.149 539.0227 -186.4847)" fill="#F5F6CA" width="184.277" height="437.666"/>
			<path fill="#333333" d="M148.773,17.27L577.6,81.876l-26.858,178.265l-428.825-64.606L148.773,17.27 M145.414,12.718
				l-28.05,186.176l436.736,65.799l28.051-186.176L145.414,12.718L145.414,12.718z"/>
		</g>
		<path fill="#8DB559" d="M157.172,28.647l-23.878,158.488l408.061,61.479l23.878-158.489L157.172,28.647z M527.996,203.036
			c-11.607-0.44-22.214,9.385-24.262,22.979c-0.348,2.306-0.422,4.578-0.261,6.779l-329.318-49.615
			c0.803-2.056,1.399-4.249,1.748-6.555c2.048-13.594-5.193-26.107-16.414-29.108l7.439-49.386c0.257,0.047,0.513,0.101,0.771,0.14
			c17.175,2.588,33.811-13.306,37.153-35.5c0.884-5.864,0.742-11.578-0.252-16.864l310.222,46.738
			c-2.508,4.757-4.326,10.176-5.21,16.042c-3.343,22.193,7.87,42.28,25.046,44.869c0.26,0.039,0.518,0.063,0.777,0.094
			L527.996,203.036z M350.603,146.893l-2.955,19.618c7.282,0.532,11.884-2.092,12.862-8.579
			C361.236,153.105,358.418,150.335,350.603,146.893z M357.812,80.112c-25.941-3.908-51.036,19.918-56.053,53.214
			c-5.017,33.299,11.945,63.459,37.887,67.368c25.94,3.908,51.037-19.917,56.053-53.216
			C400.715,114.183,383.752,84.021,357.812,80.112z M346.872,171.653l-1.418,9.415l-5.379-0.811l1.407-9.335
			c-11.298-2.348-19.099-9.107-17.739-18.125c0.644-4.272,4.353-6.869,8.466-6.25c3.719,0.562,5.813,3.305,5.276,6.863
			c-0.513,3.403-2.918,4.334-5.521,4.428c0.651,3.738,3.933,6.659,10.28,8.021l3.159-20.964l-3.812-1.544
			c-9.228-3.737-14.307-9.762-12.983-18.543c1.585-10.521,11.217-15.38,22.027-14.642l0.561-3.718l5.379,0.81l-0.561,3.719
			c11.646,2.725,18.108,9.766,17.034,16.887c-0.786,5.221-3.632,7.462-7.982,6.805c-4.034-0.606-6.128-3.349-5.581-6.989
			c0.43-2.847,2.633-4.052,5.192-4.395c-0.666-3.094-3.619-6.046-9.39-7.481l-3.11,20.646l3.258,1.463
			c11.445,5.122,16.012,10.258,14.76,18.566C368.466,167.949,359.096,172.687,346.872,171.653z M337.793,123.442
			c-0.715,4.746,2.044,7.912,9.195,10.932l2.92-19.381C343.38,114.817,338.604,118.063,337.793,123.442z M244.281,99.077
			c-11.503-1.732-22.231,6.188-23.965,17.691c-1.732,11.503,6.187,22.232,17.69,23.966c11.502,1.733,22.232-6.188,23.965-17.69
			C263.706,111.542,255.785,100.812,244.281,99.077z M454.904,130.811c-11.502-1.734-22.232,6.187-23.965,17.69
			c-1.733,11.503,6.188,22.232,17.69,23.965c11.502,1.733,22.232-6.188,23.966-17.689
			C474.328,143.273,466.408,132.543,454.904,130.811z"/>
	</g>
	<g id="Bill_2_">
		<g>
			
				<rect x="245.799" y="-64.95" transform="matrix(-0.0482 0.9988 -0.9988 -0.0482 507.9164 -176.2523)" fill="#F5F6CA" width="184.277" height="437.666"/>
			<path fill="#333333" d="M125.697,53.408L558.859,74.29l-8.68,180.067l-433.164-20.881L125.697,53.408 M121.895,49.221
				l-9.066,188.059l441.154,21.267l9.065-188.059L121.895,49.221L121.895,49.221z"/>
		</g>
		<path fill="#8DB559" d="M135.204,63.879l-7.718,160.091l412.188,19.87l7.718-160.092L135.204,63.879z M521.771,199.847
			c-11.592,0.738-21.149,11.586-21.812,25.316c-0.113,2.329,0.043,4.598,0.426,6.771l-332.648-16.037
			c0.59-2.126,0.963-4.369,1.076-6.697c0.662-13.731-7.81-25.448-19.275-27.298l2.404-49.887c0.26,0.021,0.52,0.049,0.781,0.062
			c17.349,0.837,32.29-16.658,33.37-39.076c0.285-5.924-0.434-11.595-1.957-16.752l313.358,15.105
			c-2.013,4.986-3.274,10.562-3.56,16.486c-1.08,22.418,12.108,41.269,29.458,42.105c0.262,0.013,0.521,0.011,0.782,0.015
			L521.771,199.847z M339.607,161.942l-0.955,19.818c7.299-0.209,11.611-3.284,11.928-9.838
			C350.815,167.049,347.73,164.577,339.607,161.942z M340.022,94.776c-26.204-1.264-48.76,24.979-50.381,58.612
			c-1.622,33.636,18.306,61.925,44.509,63.188s48.76-24.979,50.38-58.614C386.152,124.329,366.225,96.039,340.022,94.776z
			 M338.402,186.954l-0.459,9.51l-5.434-0.262l0.455-9.43c-11.476-1.192-19.921-7.128-19.481-16.236
			c0.208-4.315,3.635-7.274,7.789-7.074c3.756,0.182,6.118,2.698,5.944,6.294c-0.165,3.437-2.465,4.606-5.044,4.963
			c1.025,3.654,4.585,6.228,11.038,6.939l1.021-21.175l-3.949-1.152c-9.558-2.783-15.221-8.263-14.793-17.133
			c0.513-10.627,9.603-16.437,20.434-16.796l0.181-3.755l5.434,0.262l-0.182,3.756c11.861,1.531,19.003,7.884,18.656,15.075
			c-0.254,5.274-2.858,7.792-7.254,7.579c-4.074-0.196-6.436-2.712-6.259-6.389c0.139-2.877,2.209-4.298,4.721-4.898
			c-0.977-3.01-4.213-5.648-10.099-6.493l-1.006,20.856l3.391,1.125c11.903,3.938,16.967,8.586,16.562,16.977
			C359.51,181.085,350.667,186.745,338.402,186.954z M324.49,139.909c-0.23,4.795,2.835,7.665,10.255,9.945l0.943-19.577
			C329.177,130.764,324.753,134.476,324.49,139.909z M228.993,125.133c-11.619-0.562-21.492,8.405-22.052,20.024
			s8.405,21.492,20.024,22.053c11.619,0.56,21.493-8.405,22.053-20.024C249.579,135.566,240.613,125.692,228.993,125.133z
			 M441.747,135.389c-11.619-0.561-21.492,8.405-22.053,20.025c-0.56,11.619,8.405,21.491,20.024,22.052
			c11.619,0.56,21.493-8.405,22.053-20.024S453.366,135.948,441.747,135.389z"/>
	</g>
	<path id="Background_23_" fill="#616263" d="M686.228,310.285c0,4.696-3.808,8.504-8.504,8.504H389.657
		c-6.132,0-5.246-10.443-24.748-10c-21.502,0.489-19.969,10-26.971,10H54.102c-4.696,0-8.504-3.808-8.504-8.504V82.274
		c0-4.696,3.808-8.504,8.504-8.504c0,0,210.42,0,282.517,0c5.666,0,8.039-6,25.537-6c12.002,0,18.499,6,23.665,6
		c72.976,0,291.903,0,291.903,0c4.696,0,8.504,3.808,8.504,8.504V310.285z"/>
	<path id="Shadow_6_" fill="#535454" d="M362.155,67.771c-15.333,0-24.079,6-24.079,6h-1.667c0,0,6.443,20.833,5.809,48.822
		c-0.837,36.977-8.809,85.695-8.809,108.012c0,21.322,4.529,88.185,4.529,88.185c6.96,0.1,7.114-9.186,26.47-9.186
		c17.669,0,18.524,9.97,25.249,9.186c0.95-0.111-3.837-245.019-3.837-245.019S376.822,67.771,362.155,67.771z"/>
	<path id="Border_20_" fill="none" stroke="#333333" stroke-width="4" stroke-miterlimit="10" d="M686.228,310.285
		c0,4.696-3.808,8.504-8.504,8.504H389.657c-6.132,0-5.246-10.443-24.748-10c-21.502,0.489-19.969,10-26.971,10H54.102
		c-4.696,0-8.504-3.808-8.504-8.504V82.274c0-4.696,3.808-8.504,8.504-8.504c0,0,210.42,0,282.517,0c5.666,0,8.039-6,25.537-6
		c12.002,0,18.499,6,23.665,6c72.976,0,291.903,0,291.903,0c4.696,0,8.504,3.808,8.504,8.504V310.285z"/>
	<path id="Pocket" fill="#616263" stroke="#333333" stroke-width="4" stroke-miterlimit="10" d="M419.749,83.109
		c0,0-4,118.996-4,158.661c0,17.521,4,77.019,4,77.019c70.409,4.849,201.047,5.54,241.514,0c0.011-0.198,4.813-37.518,4.813-70.185
		c0-41.374-4-165.495-4-165.495c0-6.263-5.076-11.339-11.339-11.339H431.088C424.825,71.771,419.749,76.847,419.749,83.109z"/>
	<path id="Stiching_3_" fill="none" stroke="#333333" stroke-width="2" stroke-miterlimit="10" stroke-dasharray="6" d="
		M428.909,184.341c0,0-5,28.93-5,54.93c0,18.161,5,79.519,5,79.519"/>
	<path id="Stiching_2_" fill="none" stroke="#333333" stroke-width="2" stroke-miterlimit="10" stroke-dasharray="6" d="
		M653.14,180.413c0,0,3,30.525,3,75.191c0,31.667-3,61.835-3,61.835"/>
	<path id="Lash" fill="#616263" stroke="#333333" stroke-width="4" stroke-miterlimit="10" d="M670.076,176.767
		c0,6.262-5.076,11.338-11.339,11.338c0,0-118.994,5.5-175.828,5.5c-24.059,0-58.16-5.5-58.16-5.5
		c-6.263-1.89-11.339-5.076-11.339-11.338V77.109c0-6.263,0.076-5.339,6.339-5.339h243.988c6.263,0,6.339,0.076,6.339,6.339V176.767
		z"/>
	<path id="Stiching_1_" fill="none" stroke="#333333" stroke-width="2" stroke-miterlimit="10" stroke-dasharray="6" d="
		M663.743,170.575c0,5.437-4.746,8.199-10.604,9.838c0,0-122.727-0.415-162.731,3.357c-24.999,2.357-58.062-3.357-58.062-3.357
		c-5.856,0-10.603-4.401-10.603-9.838V84.087c0-5.434,0.071-4.633,5.927-4.633h228.146c5.855,0,5.927,0.065,5.927,5.502
		L663.743,170.575z"/>
	
		<circle id="Button_2_" fill="#616263" stroke="#333333" stroke-width="4" stroke-miterlimit="10" cx="547.813" cy="154.743" r="13"/>
	<path id="Light_22_" fill="none" stroke="#FEF7CE" stroke-width="2" stroke-linecap="round" stroke-miterlimit="10" d="
		M540.574,150.53c0,0,2.879-4.211,7.536-4.211c4.651,0,5.43,1.665,5.43,1.665"/>
	<path id="Border_19_" fill="none" stroke="#333333" stroke-width="4" stroke-miterlimit="10" d="M336.076,71.771
		c0,0,6.667,22.835,6,46.835s-10.667,86-8,116s3.862,84.184,3.862,84.184"/>
	<path id="Stiching" fill="none" stroke="#333333" stroke-width="2" stroke-miterlimit="10" stroke-dasharray="6" d="
		M329.076,73.771c0,0,6.667,20.835,6,44.835s-10.667,86-8,116s3.798,84.184,3.798,84.184"/>
	<path id="Border_18_" fill="none" stroke="#333333" stroke-width="4" stroke-miterlimit="10" d="M318.874,313.895
		c0,0-5.362-49.211-3.798-79.289c1.561-30,3.114-56.731,3.781-102.729c0.348-24.007-2.015-56.942-2.015-56.942"/>
	<g id="Border_17_">
		<path fill="#F77F5B" d="M70.112,232.514c-3.586-0.004-6.502-2.924-6.499-6.509l0.1-136.062c0.002-3.583,2.918-6.498,6.499-6.498
			l225.647,0.164c3.586,0.003,6.502,2.923,6.499,6.508l-0.099,136.064c-0.003,3.583-2.922,6.498-6.506,6.498L70.112,232.514z"/>
		<g>
			<path fill="#333333" d="M70.22,85.444l225.638,0.164c2.483,0.002,4.503,2.023,4.501,4.507l-0.099,136.062
				c-0.002,2.482-2.023,4.501-4.509,4.501l-225.636-0.165c-2.484-0.003-4.504-2.024-4.502-4.508l0.1-136.062
				c0.002-2.48,2.02-4.499,4.499-4.499H70.22 M70.212,81.444c-4.691,0-8.496,3.803-8.499,8.496l-0.1,136.062
				c-0.004,4.697,3.802,8.506,8.498,8.511l225.637,0.165c0.002,0,0.004,0,0.006,0c4.694,0,8.502-3.804,8.506-8.497l0.099-136.063
				c0.004-4.697-3.802-8.506-8.498-8.51L70.223,81.444C70.219,81.444,70.216,81.444,70.212,81.444L70.212,81.444z"/>
		</g>
	</g>
	<path id="Background_22_" fill="#616263" stroke="#333333" stroke-width="4" stroke-miterlimit="10" d="M45.598,94.604
		c0,0,78.048-6.382,91.327-2.074s42.48,29.068,62.484,28.741s119.123,0.003,119.123,0.003l-1.641,36.873l-271.294,1.768V94.604z"/>
	<g id="Card">
		<path fill="#FCC865" d="M61.765,257.429c-3.585-0.069-6.447-3.042-6.378-6.627l2.597-136.038c0.066-3.518,2.981-6.379,6.497-6.379
			l225.727,4.309c3.585,0.068,6.447,3.041,6.379,6.626l-2.598,136.039c-0.067,3.517-2.982,6.379-6.499,6.379L61.765,257.429z"/>
		<g>
			<path fill="#333333" d="M64.48,110.385L64.48,110.385l0.092,0.001l225.597,4.307c2.482,0.048,4.465,2.106,4.418,4.589
				l-2.598,136.039c-0.047,2.436-2.065,4.416-4.5,4.416h-0.09L61.804,255.43c-2.483-0.049-4.465-2.107-4.418-4.59l2.597-136.039
				C60.028,112.366,62.047,110.385,64.48,110.385 M64.48,106.385c-4.619,0-8.409,3.701-8.497,8.341l-2.597,136.038
				c-0.09,4.696,3.645,8.574,8.34,8.665l225.597,4.307c0.056,0.001,0.11,0.001,0.166,0.001c4.621,0,8.41-3.701,8.499-8.34
				l2.598-136.039c0.089-4.696-3.646-8.574-8.341-8.664l-225.597-4.307C64.592,106.386,64.537,106.385,64.48,106.385L64.48,106.385z
				"/>
		</g>
	</g>
	<path id="Background_21_" fill="#616263" stroke="#333333" stroke-width="4" stroke-miterlimit="10" d="M45.598,124.604
		c0,0,78.048-6.382,91.327-2.074s42.48,29.068,62.484,28.741s119.123,0.003,119.123,0.003l-1.641,36.873l-271.294,2.338V124.604z"/>
	<g id="Credit_Card_2_1_">
		<g>
			<path fill="#4F8699" d="M299.635,274.28c-0.046,4.696-3.89,8.467-8.587,8.421l-225.627-2.217
				c-4.696-0.047-8.466-3.891-8.42-8.587l1.337-136.057c0.045-4.697,3.891-8.466,8.586-8.42l225.627,2.217
				c4.697,0.046,8.467,3.89,8.421,8.587L299.635,274.28z"/>
		</g>
		<g>
			<path fill="#58B6B4" d="M58.318,137.822l-1.289,131.12c4.61,4.382,9.686,8.279,15.148,11.607l91.635,0.9
				c26.377-15.374,44.23-43.841,44.552-76.593c0.314-32.077-16.272-60.378-41.457-76.454l-94.818-0.932
				C67.166,130.481,62.557,133.95,58.318,137.822z"/>
		</g>
		<g>
			<path fill="#4F8699" d="M299.658,271.831l1.295-131.8c-4.116-3.885-8.602-7.384-13.396-10.443l-94.909-0.932
				c-25.566,15.605-42.755,43.641-43.07,75.794c-0.32,32.591,16.77,61.296,42.604,77.279l92.836,0.911
				C290.265,279.534,295.167,275.906,299.658,271.831z"/>
		</g>
		<g>
			<g>
				<path fill="#58B6B4" d="M204.798,178.944l-89.762-0.882l-0.1,10.104l92.161,0.905
					C206.519,185.621,205.759,182.242,204.798,178.944z M115.136,167.958l86.036,0.846c-1.495-3.502-3.196-6.893-5.115-10.155
					l-80.821-0.793L115.136,167.958z M179.697,138.288l-64.265-0.632l-0.099,10.095l73.756,0.725
					C186.222,144.845,183.089,141.432,179.697,138.288z M114.343,248.779l81.545,0.801c1.91-3.229,3.643-6.581,5.146-10.054
					l-86.592-0.851L114.343,248.779z M208.221,199.183l-93.382-0.916l-0.1,10.109l93.468,0.917c0.081-1.475,0.143-2.947,0.157-4.436
					C208.383,202.952,208.319,201.066,208.221,199.183z M114.54,228.571l90.125,0.885c0.974-3.285,1.77-6.643,2.363-10.081
					l-92.389-0.907L114.54,228.571z M114.144,268.977l65.578,0.643c3.325-3.088,6.425-6.442,9.253-10.003l-74.731-0.734
					L114.144,268.977z"/>
			</g>
		</g>
		<g>
			<g>
				<path fill="#FCC865" d="M80.986,207.188c-2.261-0.022-4.082-1.879-4.061-4.14l0.25-25.509c0.023-2.239,1.863-4.061,4.102-4.061
					l31.015,0.305c1.095,0.011,2.12,0.447,2.888,1.23c0.767,0.782,1.184,1.815,1.173,2.91l-0.251,25.509
					c-0.021,2.238-1.861,4.059-4.101,4.059L80.986,207.188z"/>
				<path fill="#333333" d="M81.277,174.479c0.01,0,0.02,0,0.03,0l30.975,0.305c1.712,0.017,3.087,1.42,3.07,3.131l-0.251,25.509
					c-0.017,1.7-1.402,3.068-3.101,3.068c-0.01,0-0.02,0-0.03,0l-30.975-0.304c-1.712-0.017-3.087-1.418-3.07-3.13l0.25-25.509
					C78.193,175.848,79.579,174.479,81.277,174.479 M81.277,172.479L81.277,172.479c-2.784,0-5.073,2.266-5.102,5.05l-0.25,25.51
					c-0.027,2.812,2.238,5.122,5.051,5.149l30.975,0.304h0.01h0.04c2.786,0,5.073-2.265,5.101-5.049l0.251-25.509
					c0.013-1.361-0.505-2.647-1.459-3.621c-0.954-0.973-2.229-1.516-3.592-1.529l-30.975-0.305h-0.01H81.277L81.277,172.479z"/>
			</g>
			<path fill="#FEF7CE" d="M92.922,179.238c-0.017,1.712-1.418,3.086-3.129,3.069l-7.469-0.073c-1.712-0.018-3.086-1.418-3.068-3.13
				l0.003-0.36c0.017-1.713,1.418-3.087,3.13-3.069l7.468,0.072c1.712,0.018,3.087,1.418,3.069,3.131L92.922,179.238z"/>
			<path fill="#FEF7CE" d="M92.848,186.893c-0.018,1.712-1.418,3.085-3.131,3.068l-7.468-0.073
				c-1.712-0.017-3.086-1.418-3.069-3.129l0.004-0.361c0.017-1.713,1.418-3.086,3.13-3.069l7.468,0.073
				c1.712,0.017,3.086,1.418,3.069,3.13L92.848,186.893z"/>
			<path fill="#FEF7CE" d="M92.771,194.546c-0.016,1.711-1.418,3.086-3.129,3.069l-7.469-0.073
				c-1.712-0.017-3.086-1.419-3.069-3.131l0.004-0.36c0.017-1.712,1.418-3.086,3.13-3.069l7.469,0.074
				c1.711,0.017,3.086,1.418,3.068,3.129L92.771,194.546z"/>
			<path fill="#FEF7CE" d="M92.697,202.199c-0.018,1.712-1.419,3.087-3.131,3.07l-7.468-0.074c-1.712-0.017-3.086-1.418-3.069-3.13
				l0.004-0.36c0.017-1.712,1.418-3.088,3.13-3.071l7.468,0.074c1.713,0.018,3.086,1.419,3.07,3.131L92.697,202.199z"/>
			<path fill="#FEF7CE" d="M113.547,194.75c-0.018,1.712-1.418,3.087-3.131,3.07l-7.468-0.074c-1.712-0.017-3.086-1.418-3.069-3.13
				l0.004-0.361c0.017-1.712,1.418-3.086,3.13-3.069l7.468,0.073c1.713,0.017,3.086,1.418,3.069,3.131L113.547,194.75z"/>
			<path fill="#FEF7CE" d="M113.472,202.403c-0.017,1.712-1.419,3.087-3.13,3.07l-7.469-0.073c-1.712-0.017-3.086-1.419-3.068-3.13
				l0.003-0.361c0.017-1.712,1.418-3.087,3.13-3.07l7.468,0.073c1.712,0.017,3.087,1.419,3.069,3.132L113.472,202.403z"/>
		</g>
		<g>
			<g>
				<path fill="#333333" d="M66.839,127.42l0.046,4.001l225.627,2.217c1.203,0.012,2.33,0.491,3.172,1.35
					c0.843,0.859,1.3,1.995,1.288,3.198l-1.337,136.056c-0.023,2.46-2.044,4.46-4.548,4.46l-225.626-2.217
					c-2.483-0.024-4.484-2.064-4.46-4.548l1.337-136.058c0.023-2.458,2.043-4.458,4.501-4.459V127.42 M66.839,127.42
					c-4.656,0.001-8.456,3.752-8.501,8.421l-1.337,136.057c-0.046,4.696,3.724,8.54,8.42,8.587l225.627,2.217
					c0.028,0,0.057,0,0.085,0c4.658,0,8.456-3.753,8.502-8.421l1.337-136.056c0.046-4.697-3.724-8.541-8.421-8.587l-225.627-2.217
					C66.896,127.421,66.867,127.42,66.839,127.42L66.839,127.42z"/>
			</g>
		</g>
		<path fill="#58B6B4" d="M290.206,199.188c-0.123,12.522-10.375,22.576-22.898,22.452l-17.979-0.176
			c-12.524-0.124-22.576-10.376-22.454-22.898l0.374-37.978c0.123-12.523,10.374-22.576,22.898-22.453l17.979,0.177
			c12.523,0.122,22.576,10.374,22.452,22.898L290.206,199.188z"/>
		<path fill-rule="evenodd" clip-rule="evenodd" fill="#E30520" d="M263.837,161.391c-0.088,8.903-7.378,16.056-16.291,15.969
			c-8.904-0.088-16.057-7.382-15.969-16.286c0.088-8.91,7.381-16.059,16.287-15.972C256.774,145.189,263.925,152.48,263.837,161.391
			z"/>
		<circle fill-rule="evenodd" clip-rule="evenodd" fill="#F9B421" cx="269.415" cy="161.474" r="16.16"/>
		<g>
			<path fill="#E30520" d="M246.985,162.017l16.821,0.166c0.02-0.259,0.028-0.528,0.03-0.792c0.004-0.344-0.013-0.688-0.028-1.024
				l-16.806-0.165L246.985,162.017z"/>
			<path fill="#E30520" d="M246.896,171.11l-0.018,1.821l11.802,0.115c0.599-0.559,1.159-1.16,1.667-1.804L246.896,171.11z"/>
			<path fill="#E30520" d="M247.092,151.111l13.273,0.131c-0.516-0.657-1.08-1.272-1.688-1.839l-11.566-0.113L247.092,151.111z"/>
			<path fill="#E30520" d="M247.074,152.928l-0.018,1.817l15.487,0.151c-0.271-0.628-0.578-1.242-0.922-1.825L247.074,152.928z"/>
			<path fill="#E30520" d="M247.021,158.383l16.591,0.163c-0.105-0.618-0.242-1.229-0.413-1.824l-16.16-0.158L247.021,158.383z"/>
			<path fill="#E30520" d="M246.932,167.475l-0.019,1.815l14.677,0.145c0.344-0.581,0.658-1.18,0.931-1.807L246.932,167.475z"/>
			<path fill="#E30520" d="M263.597,164.003l-16.63-0.163l-0.018,1.818l16.222,0.159
				C263.345,165.223,263.489,164.619,263.597,164.003z"/>
		</g>
		<path fill="#D6D6D6" d="M285.201,199.63c-0.087,8.925-7.394,16.088-16.317,16l-21.68-0.213c-8.925-0.088-16.088-7.393-16-16.316
			l0,0c0.087-8.926,7.393-16.088,16.316-16l21.681,0.213C278.126,183.4,285.289,190.706,285.201,199.63L285.201,199.63z"/>
		
			<text transform="matrix(0.9999 0.0098 -0.0098 0.9999 76.876 231.4844)" fill="#333333" font-family="'Belizio-Medium'" font-size="16">5843  2948  2174  6392</text>
		
			<text transform="matrix(0.9999 0.0098 -0.0098 0.9999 78.5225 253.501)" fill="#333333" font-family="'Belizio-Medium'" font-size="13">10/19</text>
	</g>
	<path id="Background_20_" fill="#616263" stroke="#333333" stroke-width="4" stroke-miterlimit="10" d="M316.892,188.147
		c0,0-97.482,2.457-117.482,3.124s-45.333-22-60.41-26.667s-93.401,0.225-93.401,0.225V272.55c0,6.263,9.08,11.572,15.339,11.339
		c65.415-2.439,179.861-2.15,251.806,0.007c0,0,3.073-22.225,3.149-49.625C315.951,212.771,316.892,188.147,316.892,188.147z"/>
	<g id="Credit_Card_1_">
		<g>
			<path fill="#BB4D67" d="M300.302,286.793c0.184,4.692-3.471,8.646-8.164,8.83l-225.466,8.83c-4.692,0.184-8.646-3.472-8.83-8.165
				L52.518,160.33c-0.184-4.693,3.472-8.646,8.164-8.83l225.466-8.83c4.693-0.184,8.646,3.471,8.83,8.165L300.302,286.793z"/>
		</g>
		<g>
			<path fill="#CF627C" d="M52.596,162.311l5.131,131.025c4.818,4.151,10.079,7.795,15.697,10.853l91.569-3.586
				c25.593-16.647,42.031-45.953,40.749-78.683c-1.255-32.054-19.208-59.507-45.148-74.333l-94.75,3.711
				C61.074,154.544,56.639,158.234,52.596,162.311z"/>
		</g>
		<g>
			<path fill="#BB4D67" d="M300.206,284.346l-5.158-131.706c-4.302-3.678-8.953-6.955-13.893-9.774l-94.84,3.714
				c-24.772,16.839-40.567,45.682-39.31,77.812c1.275,32.566,19.75,60.401,46.336,75.101l92.769-3.633
				C291.2,292.499,295.919,288.636,300.206,284.346z"/>
		</g>
		<g>
			<g>
				<path fill="#CF627C" d="M200.912,196.213l-89.697,3.513l0.395,10.098l92.096-3.607
					C202.958,202.798,202.033,199.459,200.912,196.213z M110.82,189.63l85.974-3.367c-1.664-3.425-3.529-6.729-5.606-9.893
					l-80.763,3.162L110.82,189.63z M173.852,156.833l-64.219,2.516l0.396,10.088l73.703-2.887
					C180.689,163.063,177.394,159.808,173.852,156.833z M113.983,270.392l81.486-3.191c1.75-3.319,3.317-6.751,4.647-10.294
					l-86.529,3.389L113.983,270.392z M205.321,216.261l-93.315,3.654l0.396,10.102l93.4-3.658c0.009-1.477-0.002-2.951-0.061-4.438
					C205.668,220.017,205.512,218.136,205.321,216.261z M113.191,250.197l90.061-3.526c0.812-3.328,1.442-6.722,1.866-10.185
					l-92.322,3.615L113.191,250.197z M114.773,290.573l65.53-2.566c3.171-3.247,6.104-6.75,8.753-10.443l-74.679,2.924
					L114.773,290.573z"/>
			</g>
		</g>
		<g>
			<g>
				<path fill="#FCC865" d="M78.47,230.485c-2.211,0-4.01-1.73-4.096-3.939l-0.998-25.49c-0.043-1.094,0.343-2.14,1.086-2.944
					c0.744-0.804,1.756-1.271,2.851-1.313l30.953-1.212l0.163-0.003c2.21,0,4.008,1.73,4.094,3.939l0.998,25.49
					c0.043,1.094-0.343,2.14-1.086,2.944c-0.744,0.804-1.757,1.271-2.851,1.312l-30.953,1.213L78.47,230.485z"/>
				<path fill="#333333" d="M108.429,196.582c1.655,0,3.03,1.311,3.095,2.979l0.998,25.49c0.067,1.711-1.266,3.152-2.977,3.219
					l-30.953,1.213c-0.041,0.002-0.082,0.003-0.122,0.003c-1.656,0-3.032-1.31-3.097-2.979l-0.998-25.49
					c-0.067-1.711,1.266-3.152,2.977-3.22l30.953-1.212C108.346,196.583,108.388,196.582,108.429,196.582 M108.429,194.582
					c-0.067,0-0.135,0.002-0.202,0.004l-30.953,1.213c-2.811,0.11-5.008,2.486-4.896,5.297l0.998,25.489
					c0.106,2.748,2.344,4.901,5.095,4.901c0.066,0,0.133-0.002,0.2-0.004l30.953-1.213c1.361-0.054,2.62-0.633,3.545-1.634
					c0.926-1.001,1.405-2.302,1.352-3.663l-0.998-25.489C113.415,196.735,111.178,194.582,108.429,194.582L108.429,194.582z"/>
			</g>
			<path fill="#FEF7CE" d="M89.186,201.983c0.066,1.71-1.266,3.15-2.977,3.218l-7.463,0.292c-1.711,0.067-3.151-1.265-3.219-2.976
				l-0.014-0.36c-0.066-1.711,1.266-3.152,2.977-3.219l7.463-0.293c1.71-0.066,3.151,1.266,3.219,2.978L89.186,201.983z"/>
			<path fill="#FEF7CE" d="M89.484,209.632c0.067,1.71-1.265,3.15-2.976,3.218l-7.463,0.292c-1.71,0.067-3.151-1.265-3.219-2.976
				l-0.014-0.36c-0.067-1.711,1.265-3.152,2.976-3.219l7.463-0.293c1.711-0.066,3.152,1.266,3.219,2.977L89.484,209.632z"/>
			<path fill="#FEF7CE" d="M89.784,217.278c0.067,1.711-1.265,3.152-2.976,3.22l-7.463,0.292c-1.711,0.067-3.152-1.266-3.219-2.977
				l-0.014-0.359c-0.067-1.711,1.265-3.152,2.976-3.219l7.463-0.293c1.71-0.066,3.151,1.266,3.219,2.977L89.784,217.278z"/>
			<path fill="#FEF7CE" d="M90.084,224.927c0.066,1.711-1.266,3.152-2.977,3.22l-7.463,0.292c-1.71,0.067-3.151-1.266-3.219-2.977
				l-0.014-0.359c-0.066-1.711,1.266-3.153,2.977-3.221l7.463-0.292c1.711-0.067,3.151,1.267,3.219,2.978L90.084,224.927z"/>
			<path fill="#FEF7CE" d="M110.544,216.466c0.067,1.711-1.266,3.152-2.976,3.22l-7.463,0.292c-1.711,0.066-3.152-1.267-3.219-2.977
				l-0.015-0.36c-0.067-1.711,1.266-3.151,2.976-3.219l7.463-0.292c1.711-0.067,3.152,1.266,3.219,2.976L110.544,216.466z"/>
			<path fill="#FEF7CE" d="M110.844,224.114c0.066,1.711-1.266,3.152-2.977,3.22l-7.463,0.292c-1.711,0.066-3.151-1.267-3.219-2.977
				l-0.014-0.36c-0.066-1.711,1.266-3.153,2.976-3.22l7.464-0.292c1.71-0.067,3.15,1.267,3.218,2.977L110.844,224.114z"/>
		</g>
		<g>
			<g>
				<path fill="#333333" d="M286.486,146.663c2.425,0,4.398,1.901,4.494,4.328l5.324,135.958c0.098,2.482-1.842,4.58-4.323,4.677
					l-225.466,8.83c-0.061,0.003-0.121,0.004-0.182,0.004c-2.426,0-4.4-1.901-4.495-4.328l-5.324-135.958
					c-0.097-2.481,1.843-4.58,4.323-4.677l225.466-8.83C286.364,146.664,286.426,146.663,286.486,146.663 M286.486,142.663
					c-0.112,0-0.226,0.003-0.339,0.007L60.682,151.5c-4.692,0.184-8.348,4.137-8.164,8.83l5.324,135.958
					c0.18,4.58,3.949,8.172,8.492,8.172c0.111,0,0.225-0.003,0.338-0.007l225.466-8.83c4.693-0.184,8.348-4.138,8.164-8.83
					l-5.324-135.958C294.797,146.254,291.029,142.663,286.486,142.663L286.486,142.663z"/>
			</g>
		</g>
		<path fill="#CF627C" d="M287.209,212.252c0.489,12.514-9.258,23.057-21.772,23.547l-17.967,0.704
			c-12.515,0.49-23.057-9.259-23.547-21.772l-1.486-37.949c-0.49-12.515,9.258-23.058,21.772-23.548l17.967-0.704
			c12.515-0.489,23.057,9.259,23.547,21.773L287.209,212.252z"/>
		<path fill-rule="evenodd" clip-rule="evenodd" fill="#E30520" d="M259.022,175.79c0.348,8.897-6.585,16.398-15.49,16.747
			c-8.899,0.349-16.398-6.587-16.747-15.484c-0.349-8.903,6.586-16.401,15.485-16.75
			C251.176,159.954,258.673,166.887,259.022,175.79z"/>
		<circle fill-rule="evenodd" clip-rule="evenodd" fill="#F9B421" cx="264.598" cy="175.601" r="16.16"/>
		<g>
			<path fill="#E30520" d="M242.22,177.241l16.81-0.658c0.008-0.26,0.003-0.529-0.007-0.793c-0.014-0.344-0.047-0.687-0.08-1.021
				l-16.793,0.658L242.22,177.241z"/>
			<path fill="#E30520" d="M242.576,186.329l0.071,1.818l11.793-0.462c0.572-0.587,1.102-1.216,1.576-1.884L242.576,186.329z"/>
			<path fill="#E30520" d="M241.793,166.344l13.265-0.52c-0.548-0.631-1.142-1.218-1.777-1.754l-11.559,0.452L241.793,166.344z"/>
			<path fill="#E30520" d="M241.864,168.159l0.071,1.814l15.477-0.605c-0.302-0.614-0.638-1.213-1.01-1.778L241.864,168.159z"/>
			<path fill="#E30520" d="M242.078,173.61l16.579-0.65c-0.136-0.611-0.302-1.215-0.503-1.802l-16.147,0.633L242.078,173.61z"/>
			<path fill="#E30520" d="M242.434,182.694l0.071,1.815l14.666-0.574c0.315-0.597,0.6-1.212,0.841-1.851L242.434,182.694z"/>
			<path fill="#E30520" d="M258.909,178.412l-16.618,0.65l0.071,1.817l16.211-0.635
				C258.718,179.643,258.832,179.032,258.909,178.412z"/>
		</g>
		<path fill="#F77F5B" d="M282.231,212.938c0.35,8.918-6.596,16.43-15.514,16.779l-21.666,0.849
			c-8.918,0.349-16.43-6.597-16.778-15.515l0,0c-0.35-8.918,6.596-16.43,15.514-16.779l21.665-0.849
			C274.37,197.075,281.883,204.021,282.231,212.938L282.231,212.938z"/>
		
			<text transform="matrix(0.9992 -0.0391 0.0391 0.9992 75.6543 254.9668)" fill="#FCC865" font-family="'Belizio-Medium'" font-size="16">9682  1286  9523  4235</text>
		
			<text transform="matrix(0.9992 -0.0391 0.0391 0.9992 78.375 276.877)" fill="#FCC865" font-family="'Belizio-Medium'" font-size="13">12/22</text>
	</g>
	<path id="Background_19_" fill="#616263" stroke="#333333" stroke-width="4" stroke-miterlimit="10" d="M315.892,220.604
		c0,0-96.482,0-116.482,0.667s-45.333-22-60.41-26.667s-93.401,1.979-93.401,1.979V304.46c0,6.263,0,14.329,10.438,14.329
		c65.415,0,262.856,0,262.856,0c-2.528-22.283-3.091-22.274-3.001-54.519C315.951,242.771,315.892,220.604,315.892,220.604z"/>
	<path id="Border_16_" fill="none" stroke="#333333" stroke-width="2" stroke-miterlimit="10" stroke-dasharray="6" d="
		M309.189,73.771c0,0,2.016,34.099,1.668,58.105c-0.667,45.998-2.221,72.729-3.781,102.729c-1.564,30.078,3.798,84.184,3.798,84.184
		"/>
	<path id="Border_15_" fill="none" stroke="#333333" stroke-width="2" stroke-miterlimit="10" stroke-dasharray="6" d="
		M47.74,201.604c0,0,75.905-6.382,89.185-2.074s42.48,29.068,62.484,28.741s102.123,0.003,102.123,0.003"/>
</g>
<g id="iPhone_6_Grey">
</g>
<g id="iPhone_6_Silver_1_">
</g>
<g id="iPhone_6_Gold_1_">
</g>
<g id="Wallet_1_">
</g>
<g id="Bills">
</g>
<g id="Coins_1_">
</g>
<g id="Passport_Red_1_">
</g>
<g id="Passport_Blue_1_">
</g>
<g id="Credit_Card_Red">
</g>
<g id="Credit_Card_Blue">
</g>
<g id="Aeroplane_1_">
</g>
<g id="Magic_Mouse_1_">
</g>
<g id="Keyboard">
</g>
<g id="Ruler_1_">
</g>
<g id="Charger_1_">
</g>
<g id="Macbook_13_x22_">
</g>
<g id="Brushes">
</g>
<g id="Pencils">
</g>
<g id="Can">
</g>
<g id="Coffee">
</g>
<g id="Stylus">
</g>
<g id="Wacom_1_">
</g>
<g id="Paperclips_1_">
</g>
<g id="Earbuds_1_">
</g>
<g id="Glasses">
</g>
<g id="Sunglasses">
</g>
<g id="Case_1_">
</g>
<g id="Donut_1_">
</g>
</svg>
